<?xml version="1.0" encoding="utf-8" standalone="no"?>
<!DOCTYPE svg PUBLIC "-//W3C//DTD SVG 1.1//EN"
  "http://www.w3.org/Graphics/SVG/1.1/DTD/svg11.dtd">
<svg xmlns:xlink="http://www.w3.org/1999/xlink" width="1152pt" height="432pt" viewBox="0 0 1152 432" xmlns="http://www.w3.org/2000/svg" version="1.1">
 <metadata>
  <rdf:RDF xmlns:dc="http://purl.org/dc/elements/1.1/" xmlns:cc="http://creativecommons.org/ns#" xmlns:rdf="http://www.w3.org/1999/02/22-rdf-syntax-ns#">
   <cc:Work>
    <dc:type rdf:resource="http://purl.org/dc/dcmitype/StillImage"/>
    <dc:date>2023-02-20T13:55:48.572975</dc:date>
    <dc:format>image/svg+xml</dc:format>
    <dc:creator>
     <cc:Agent>
      <dc:title>Matplotlib v3.5.1, https://matplotlib.org/</dc:title>
     </cc:Agent>
    </dc:creator>
   </cc:Work>
  </rdf:RDF>
 </metadata>
 <defs>
  <style type="text/css">*{stroke-linejoin: round; stroke-linecap: butt}</style>
 </defs>
 <g id="figure_1">
  <g id="patch_1">
   <path d="M 0 432 
L 1152 432 
L 1152 0 
L 0 0 
L 0 432 
z
" style="fill: none"/>
  </g>
  <g id="axes_1">
   <g id="patch_2">
    <path d="M 144 378 
L 1036.8 378 
L 1036.8 51.84 
L 144 51.84 
z
" style="fill: #ffffff"/>
   </g>
   <g id="matplotlib.axis_1">
    <g id="xtick_1">
     <g id="line2d_1">
      <defs>
       <path id="m12960cbf92" d="M 0 0 
L 0 3.5 
" style="stroke: #000000; stroke-width: 0.8"/>
      </defs>
      <g>
       <use xlink:href="#m12960cbf92" x="184.581818" y="378" style="stroke: #000000; stroke-width: 0.8"/>
      </g>
     </g>
     <g id="text_1">
      <!-- 0 -->
      <g transform="translate(178.855568 398.677188)scale(0.18 -0.18)">
       <defs>
        <path id="DejaVuSans-30" d="M 2034 4250 
Q 1547 4250 1301 3770 
Q 1056 3291 1056 2328 
Q 1056 1369 1301 889 
Q 1547 409 2034 409 
Q 2525 409 2770 889 
Q 3016 1369 3016 2328 
Q 3016 3291 2770 3770 
Q 2525 4250 2034 4250 
z
M 2034 4750 
Q 2819 4750 3233 4129 
Q 3647 3509 3647 2328 
Q 3647 1150 3233 529 
Q 2819 -91 2034 -91 
Q 1250 -91 836 529 
Q 422 1150 422 2328 
Q 422 3509 836 4129 
Q 1250 4750 2034 4750 
z
" transform="scale(0.015625)"/>
       </defs>
       <use xlink:href="#DejaVuSans-30"/>
      </g>
     </g>
    </g>
    <g id="xtick_2">
     <g id="line2d_2">
      <g>
       <use xlink:href="#m12960cbf92" x="300.52987" y="378" style="stroke: #000000; stroke-width: 0.8"/>
      </g>
     </g>
     <g id="text_2">
      <!-- 50 -->
      <g transform="translate(289.07737 398.677188)scale(0.18 -0.18)">
       <defs>
        <path id="DejaVuSans-35" d="M 691 4666 
L 3169 4666 
L 3169 4134 
L 1269 4134 
L 1269 2991 
Q 1406 3038 1543 3061 
Q 1681 3084 1819 3084 
Q 2600 3084 3056 2656 
Q 3513 2228 3513 1497 
Q 3513 744 3044 326 
Q 2575 -91 1722 -91 
Q 1428 -91 1123 -41 
Q 819 9 494 109 
L 494 744 
Q 775 591 1075 516 
Q 1375 441 1709 441 
Q 2250 441 2565 725 
Q 2881 1009 2881 1497 
Q 2881 1984 2565 2268 
Q 2250 2553 1709 2553 
Q 1456 2553 1204 2497 
Q 953 2441 691 2322 
L 691 4666 
z
" transform="scale(0.015625)"/>
       </defs>
       <use xlink:href="#DejaVuSans-35"/>
       <use xlink:href="#DejaVuSans-30" x="63.623047"/>
      </g>
     </g>
    </g>
    <g id="xtick_3">
     <g id="line2d_3">
      <g>
       <use xlink:href="#m12960cbf92" x="416.477922" y="378" style="stroke: #000000; stroke-width: 0.8"/>
      </g>
     </g>
     <g id="text_3">
      <!-- 100 -->
      <g transform="translate(399.299172 398.677188)scale(0.18 -0.18)">
       <defs>
        <path id="DejaVuSans-31" d="M 794 531 
L 1825 531 
L 1825 4091 
L 703 3866 
L 703 4441 
L 1819 4666 
L 2450 4666 
L 2450 531 
L 3481 531 
L 3481 0 
L 794 0 
L 794 531 
z
" transform="scale(0.015625)"/>
       </defs>
       <use xlink:href="#DejaVuSans-31"/>
       <use xlink:href="#DejaVuSans-30" x="63.623047"/>
       <use xlink:href="#DejaVuSans-30" x="127.246094"/>
      </g>
     </g>
    </g>
    <g id="xtick_4">
     <g id="line2d_4">
      <g>
       <use xlink:href="#m12960cbf92" x="532.425974" y="378" style="stroke: #000000; stroke-width: 0.8"/>
      </g>
     </g>
     <g id="text_4">
      <!-- 150 -->
      <g transform="translate(515.247224 398.677188)scale(0.18 -0.18)">
       <use xlink:href="#DejaVuSans-31"/>
       <use xlink:href="#DejaVuSans-35" x="63.623047"/>
       <use xlink:href="#DejaVuSans-30" x="127.246094"/>
      </g>
     </g>
    </g>
    <g id="xtick_5">
     <g id="line2d_5">
      <g>
       <use xlink:href="#m12960cbf92" x="648.374026" y="378" style="stroke: #000000; stroke-width: 0.8"/>
      </g>
     </g>
     <g id="text_5">
      <!-- 200 -->
      <g transform="translate(631.195276 398.677188)scale(0.18 -0.18)">
       <defs>
        <path id="DejaVuSans-32" d="M 1228 531 
L 3431 531 
L 3431 0 
L 469 0 
L 469 531 
Q 828 903 1448 1529 
Q 2069 2156 2228 2338 
Q 2531 2678 2651 2914 
Q 2772 3150 2772 3378 
Q 2772 3750 2511 3984 
Q 2250 4219 1831 4219 
Q 1534 4219 1204 4116 
Q 875 4013 500 3803 
L 500 4441 
Q 881 4594 1212 4672 
Q 1544 4750 1819 4750 
Q 2544 4750 2975 4387 
Q 3406 4025 3406 3419 
Q 3406 3131 3298 2873 
Q 3191 2616 2906 2266 
Q 2828 2175 2409 1742 
Q 1991 1309 1228 531 
z
" transform="scale(0.015625)"/>
       </defs>
       <use xlink:href="#DejaVuSans-32"/>
       <use xlink:href="#DejaVuSans-30" x="63.623047"/>
       <use xlink:href="#DejaVuSans-30" x="127.246094"/>
      </g>
     </g>
    </g>
    <g id="xtick_6">
     <g id="line2d_6">
      <g>
       <use xlink:href="#m12960cbf92" x="764.322078" y="378" style="stroke: #000000; stroke-width: 0.8"/>
      </g>
     </g>
     <g id="text_6">
      <!-- 250 -->
      <g transform="translate(747.143328 398.677188)scale(0.18 -0.18)">
       <use xlink:href="#DejaVuSans-32"/>
       <use xlink:href="#DejaVuSans-35" x="63.623047"/>
       <use xlink:href="#DejaVuSans-30" x="127.246094"/>
      </g>
     </g>
    </g>
    <g id="xtick_7">
     <g id="line2d_7">
      <g>
       <use xlink:href="#m12960cbf92" x="880.27013" y="378" style="stroke: #000000; stroke-width: 0.8"/>
      </g>
     </g>
     <g id="text_7">
      <!-- 300 -->
      <g transform="translate(863.09138 398.677188)scale(0.18 -0.18)">
       <defs>
        <path id="DejaVuSans-33" d="M 2597 2516 
Q 3050 2419 3304 2112 
Q 3559 1806 3559 1356 
Q 3559 666 3084 287 
Q 2609 -91 1734 -91 
Q 1441 -91 1130 -33 
Q 819 25 488 141 
L 488 750 
Q 750 597 1062 519 
Q 1375 441 1716 441 
Q 2309 441 2620 675 
Q 2931 909 2931 1356 
Q 2931 1769 2642 2001 
Q 2353 2234 1838 2234 
L 1294 2234 
L 1294 2753 
L 1863 2753 
Q 2328 2753 2575 2939 
Q 2822 3125 2822 3475 
Q 2822 3834 2567 4026 
Q 2313 4219 1838 4219 
Q 1578 4219 1281 4162 
Q 984 4106 628 3988 
L 628 4550 
Q 988 4650 1302 4700 
Q 1616 4750 1894 4750 
Q 2613 4750 3031 4423 
Q 3450 4097 3450 3541 
Q 3450 3153 3228 2886 
Q 3006 2619 2597 2516 
z
" transform="scale(0.015625)"/>
       </defs>
       <use xlink:href="#DejaVuSans-33"/>
       <use xlink:href="#DejaVuSans-30" x="63.623047"/>
       <use xlink:href="#DejaVuSans-30" x="127.246094"/>
      </g>
     </g>
    </g>
    <g id="xtick_8">
     <g id="line2d_8">
      <g>
       <use xlink:href="#m12960cbf92" x="996.218182" y="378" style="stroke: #000000; stroke-width: 0.8"/>
      </g>
     </g>
     <g id="text_8">
      <!-- 350 -->
      <g transform="translate(979.039432 398.677188)scale(0.18 -0.18)">
       <use xlink:href="#DejaVuSans-33"/>
       <use xlink:href="#DejaVuSans-35" x="63.623047"/>
       <use xlink:href="#DejaVuSans-30" x="127.246094"/>
      </g>
     </g>
    </g>
    <g id="text_9">
     <!-- $N$ -->
     <g transform="translate(583.65 420.097812)scale(0.18 -0.18)">
      <defs>
       <path id="DejaVuSans-Oblique-4e" d="M 1081 4666 
L 1931 4666 
L 3219 666 
L 4000 4666 
L 4616 4666 
L 3706 0 
L 2853 0 
L 1569 4025 
L 788 0 
L 172 0 
L 1081 4666 
z
" transform="scale(0.015625)"/>
      </defs>
      <use xlink:href="#DejaVuSans-Oblique-4e" transform="translate(0 0.09375)"/>
     </g>
    </g>
   </g>
   <g id="matplotlib.axis_2">
    <g id="ytick_1">
     <g id="line2d_9">
      <defs>
       <path id="md440b48340" d="M 0 0 
L -3.5 0 
" style="stroke: #000000; stroke-width: 0.8"/>
      </defs>
      <g>
       <use xlink:href="#md440b48340" x="144" y="366.059379" style="stroke: #000000; stroke-width: 0.8"/>
      </g>
     </g>
     <g id="text_10">
      <!-- 1.9 -->
      <g transform="translate(108.374375 372.897973)scale(0.18 -0.18)">
       <defs>
        <path id="DejaVuSans-2e" d="M 684 794 
L 1344 794 
L 1344 0 
L 684 0 
L 684 794 
z
" transform="scale(0.015625)"/>
        <path id="DejaVuSans-39" d="M 703 97 
L 703 672 
Q 941 559 1184 500 
Q 1428 441 1663 441 
Q 2288 441 2617 861 
Q 2947 1281 2994 2138 
Q 2813 1869 2534 1725 
Q 2256 1581 1919 1581 
Q 1219 1581 811 2004 
Q 403 2428 403 3163 
Q 403 3881 828 4315 
Q 1253 4750 1959 4750 
Q 2769 4750 3195 4129 
Q 3622 3509 3622 2328 
Q 3622 1225 3098 567 
Q 2575 -91 1691 -91 
Q 1453 -91 1209 -44 
Q 966 3 703 97 
z
M 1959 2075 
Q 2384 2075 2632 2365 
Q 2881 2656 2881 3163 
Q 2881 3666 2632 3958 
Q 2384 4250 1959 4250 
Q 1534 4250 1286 3958 
Q 1038 3666 1038 3163 
Q 1038 2656 1286 2365 
Q 1534 2075 1959 2075 
z
" transform="scale(0.015625)"/>
       </defs>
       <use xlink:href="#DejaVuSans-31"/>
       <use xlink:href="#DejaVuSans-2e" x="63.623047"/>
       <use xlink:href="#DejaVuSans-39" x="95.410156"/>
      </g>
     </g>
    </g>
    <g id="ytick_2">
     <g id="line2d_10">
      <g>
       <use xlink:href="#md440b48340" x="144" y="310.23961" style="stroke: #000000; stroke-width: 0.8"/>
      </g>
     </g>
     <g id="text_11">
      <!-- 2.0 -->
      <g transform="translate(108.374375 317.078204)scale(0.18 -0.18)">
       <use xlink:href="#DejaVuSans-32"/>
       <use xlink:href="#DejaVuSans-2e" x="63.623047"/>
       <use xlink:href="#DejaVuSans-30" x="95.410156"/>
      </g>
     </g>
    </g>
    <g id="ytick_3">
     <g id="line2d_11">
      <g>
       <use xlink:href="#md440b48340" x="144" y="254.419842" style="stroke: #000000; stroke-width: 0.8"/>
      </g>
     </g>
     <g id="text_12">
      <!-- 2.1 -->
      <g transform="translate(108.374375 261.258435)scale(0.18 -0.18)">
       <use xlink:href="#DejaVuSans-32"/>
       <use xlink:href="#DejaVuSans-2e" x="63.623047"/>
       <use xlink:href="#DejaVuSans-31" x="95.410156"/>
      </g>
     </g>
    </g>
    <g id="ytick_4">
     <g id="line2d_12">
      <g>
       <use xlink:href="#md440b48340" x="144" y="198.600073" style="stroke: #000000; stroke-width: 0.8"/>
      </g>
     </g>
     <g id="text_13">
      <!-- 2.2 -->
      <g transform="translate(108.374375 205.438666)scale(0.18 -0.18)">
       <use xlink:href="#DejaVuSans-32"/>
       <use xlink:href="#DejaVuSans-2e" x="63.623047"/>
       <use xlink:href="#DejaVuSans-32" x="95.410156"/>
      </g>
     </g>
    </g>
    <g id="ytick_5">
     <g id="line2d_13">
      <g>
       <use xlink:href="#md440b48340" x="144" y="142.780304" style="stroke: #000000; stroke-width: 0.8"/>
      </g>
     </g>
     <g id="text_14">
      <!-- 2.3 -->
      <g transform="translate(108.374375 149.618898)scale(0.18 -0.18)">
       <use xlink:href="#DejaVuSans-32"/>
       <use xlink:href="#DejaVuSans-2e" x="63.623047"/>
       <use xlink:href="#DejaVuSans-33" x="95.410156"/>
      </g>
     </g>
    </g>
    <g id="ytick_6">
     <g id="line2d_14">
      <g>
       <use xlink:href="#md440b48340" x="144" y="86.960535" style="stroke: #000000; stroke-width: 0.8"/>
      </g>
     </g>
     <g id="text_15">
      <!-- 2.4 -->
      <g transform="translate(108.374375 93.799129)scale(0.18 -0.18)">
       <defs>
        <path id="DejaVuSans-34" d="M 2419 4116 
L 825 1625 
L 2419 1625 
L 2419 4116 
z
M 2253 4666 
L 3047 4666 
L 3047 1625 
L 3713 1625 
L 3713 1100 
L 3047 1100 
L 3047 0 
L 2419 0 
L 2419 1100 
L 313 1100 
L 313 1709 
L 2253 4666 
z
" transform="scale(0.015625)"/>
       </defs>
       <use xlink:href="#DejaVuSans-32"/>
       <use xlink:href="#DejaVuSans-2e" x="63.623047"/>
       <use xlink:href="#DejaVuSans-34" x="95.410156"/>
      </g>
     </g>
    </g>
    <g id="text_16">
     <!-- Media -->
     <g transform="translate(100.630938 241.952344)rotate(-90)scale(0.18 -0.18)">
      <defs>
       <path id="DejaVuSans-4d" d="M 628 4666 
L 1569 4666 
L 2759 1491 
L 3956 4666 
L 4897 4666 
L 4897 0 
L 4281 0 
L 4281 4097 
L 3078 897 
L 2444 897 
L 1241 4097 
L 1241 0 
L 628 0 
L 628 4666 
z
" transform="scale(0.015625)"/>
       <path id="DejaVuSans-65" d="M 3597 1894 
L 3597 1613 
L 953 1613 
Q 991 1019 1311 708 
Q 1631 397 2203 397 
Q 2534 397 2845 478 
Q 3156 559 3463 722 
L 3463 178 
Q 3153 47 2828 -22 
Q 2503 -91 2169 -91 
Q 1331 -91 842 396 
Q 353 884 353 1716 
Q 353 2575 817 3079 
Q 1281 3584 2069 3584 
Q 2775 3584 3186 3129 
Q 3597 2675 3597 1894 
z
M 3022 2063 
Q 3016 2534 2758 2815 
Q 2500 3097 2075 3097 
Q 1594 3097 1305 2825 
Q 1016 2553 972 2059 
L 3022 2063 
z
" transform="scale(0.015625)"/>
       <path id="DejaVuSans-64" d="M 2906 2969 
L 2906 4863 
L 3481 4863 
L 3481 0 
L 2906 0 
L 2906 525 
Q 2725 213 2448 61 
Q 2172 -91 1784 -91 
Q 1150 -91 751 415 
Q 353 922 353 1747 
Q 353 2572 751 3078 
Q 1150 3584 1784 3584 
Q 2172 3584 2448 3432 
Q 2725 3281 2906 2969 
z
M 947 1747 
Q 947 1113 1208 752 
Q 1469 391 1925 391 
Q 2381 391 2643 752 
Q 2906 1113 2906 1747 
Q 2906 2381 2643 2742 
Q 2381 3103 1925 3103 
Q 1469 3103 1208 2742 
Q 947 2381 947 1747 
z
" transform="scale(0.015625)"/>
       <path id="DejaVuSans-69" d="M 603 3500 
L 1178 3500 
L 1178 0 
L 603 0 
L 603 3500 
z
M 603 4863 
L 1178 4863 
L 1178 4134 
L 603 4134 
L 603 4863 
z
" transform="scale(0.015625)"/>
       <path id="DejaVuSans-61" d="M 2194 1759 
Q 1497 1759 1228 1600 
Q 959 1441 959 1056 
Q 959 750 1161 570 
Q 1363 391 1709 391 
Q 2188 391 2477 730 
Q 2766 1069 2766 1631 
L 2766 1759 
L 2194 1759 
z
M 3341 1997 
L 3341 0 
L 2766 0 
L 2766 531 
Q 2569 213 2275 61 
Q 1981 -91 1556 -91 
Q 1019 -91 701 211 
Q 384 513 384 1019 
Q 384 1609 779 1909 
Q 1175 2209 1959 2209 
L 2766 2209 
L 2766 2266 
Q 2766 2663 2505 2880 
Q 2244 3097 1772 3097 
Q 1472 3097 1187 3025 
Q 903 2953 641 2809 
L 641 3341 
Q 956 3463 1253 3523 
Q 1550 3584 1831 3584 
Q 2591 3584 2966 3190 
Q 3341 2797 3341 1997 
z
" transform="scale(0.015625)"/>
      </defs>
      <use xlink:href="#DejaVuSans-4d"/>
      <use xlink:href="#DejaVuSans-65" x="86.279297"/>
      <use xlink:href="#DejaVuSans-64" x="147.802734"/>
      <use xlink:href="#DejaVuSans-69" x="211.279297"/>
      <use xlink:href="#DejaVuSans-61" x="239.0625"/>
     </g>
    </g>
   </g>
   <g id="LineCollection_1">
    <path d="M 184.581818 254.419842 
L 996.218182 254.419842 
" clip-path="url(#p4ee005a21c)" style="fill: none; stroke-dasharray: 5.55,2.4; stroke-dashoffset: 0; stroke: #ff0000; stroke-width: 1.5"/>
   </g>
   <g id="LineCollection_2">
    <path d="M 196.176623 362.327205 
L 196.176623 66.665455 
" clip-path="url(#p4ee005a21c)" style="fill: none; stroke: #000000; stroke-width: 1.5"/>
    <path d="M 242.555844 363.174545 
L 242.555844 259.650789 
" clip-path="url(#p4ee005a21c)" style="fill: none; stroke: #000000; stroke-width: 1.5"/>
    <path d="M 288.935065 294.985319 
L 288.935065 200.0466 
" clip-path="url(#p4ee005a21c)" style="fill: none; stroke: #000000; stroke-width: 1.5"/>
    <path d="M 335.314286 282.248239 
L 335.314286 208.722229 
" clip-path="url(#p4ee005a21c)" style="fill: none; stroke: #000000; stroke-width: 1.5"/>
    <path d="M 381.693506 257.791015 
L 381.693506 201.006342 
" clip-path="url(#p4ee005a21c)" style="fill: none; stroke: #000000; stroke-width: 1.5"/>
    <path d="M 428.072727 307.240045 
L 428.072727 250.953647 
" clip-path="url(#p4ee005a21c)" style="fill: none; stroke: #000000; stroke-width: 1.5"/>
    <path d="M 474.451948 255.419449 
L 474.451948 207.221787 
" clip-path="url(#p4ee005a21c)" style="fill: none; stroke: #000000; stroke-width: 1.5"/>
    <path d="M 520.831169 295.44062 
L 520.831169 248.023039 
" clip-path="url(#p4ee005a21c)" style="fill: none; stroke: #000000; stroke-width: 1.5"/>
    <path d="M 567.21039 294.577091 
L 567.21039 253.763188 
" clip-path="url(#p4ee005a21c)" style="fill: none; stroke: #000000; stroke-width: 1.5"/>
    <path d="M 613.58961 269.81575 
L 613.58961 229.490545 
" clip-path="url(#p4ee005a21c)" style="fill: none; stroke: #000000; stroke-width: 1.5"/>
    <path d="M 659.968831 277.77719 
L 659.968831 239.429632 
" clip-path="url(#p4ee005a21c)" style="fill: none; stroke: #000000; stroke-width: 1.5"/>
    <path d="M 706.348052 226.387947 
L 706.348052 190.590739 
" clip-path="url(#p4ee005a21c)" style="fill: none; stroke: #000000; stroke-width: 1.5"/>
    <path d="M 752.727273 239.580836 
L 752.727273 204.860688 
" clip-path="url(#p4ee005a21c)" style="fill: none; stroke: #000000; stroke-width: 1.5"/>
    <path d="M 799.106494 253.48892 
L 799.106494 219.289461 
" clip-path="url(#p4ee005a21c)" style="fill: none; stroke: #000000; stroke-width: 1.5"/>
    <path d="M 845.485714 298.345156 
L 845.485714 265.125288 
" clip-path="url(#p4ee005a21c)" style="fill: none; stroke: #000000; stroke-width: 1.5"/>
    <path d="M 891.864935 283.988607 
L 891.864935 251.690963 
" clip-path="url(#p4ee005a21c)" style="fill: none; stroke: #000000; stroke-width: 1.5"/>
    <path d="M 938.244156 284.16146 
L 938.244156 253.325235 
" clip-path="url(#p4ee005a21c)" style="fill: none; stroke: #000000; stroke-width: 1.5"/>
    <path d="M 984.623377 275.896512 
L 984.623377 247.056196 
" clip-path="url(#p4ee005a21c)" style="fill: none; stroke: #000000; stroke-width: 1.5"/>
   </g>
   <g id="line2d_15">
    <defs>
     <path id="m6fd2dd37b6" d="M 5 0 
L -5 -0 
" style="stroke: #000000"/>
    </defs>
    <g clip-path="url(#p4ee005a21c)">
     <use xlink:href="#m6fd2dd37b6" x="196.176623" y="362.327205" style="stroke: #000000"/>
     <use xlink:href="#m6fd2dd37b6" x="242.555844" y="363.174545" style="stroke: #000000"/>
     <use xlink:href="#m6fd2dd37b6" x="288.935065" y="294.985319" style="stroke: #000000"/>
     <use xlink:href="#m6fd2dd37b6" x="335.314286" y="282.248239" style="stroke: #000000"/>
     <use xlink:href="#m6fd2dd37b6" x="381.693506" y="257.791015" style="stroke: #000000"/>
     <use xlink:href="#m6fd2dd37b6" x="428.072727" y="307.240045" style="stroke: #000000"/>
     <use xlink:href="#m6fd2dd37b6" x="474.451948" y="255.419449" style="stroke: #000000"/>
     <use xlink:href="#m6fd2dd37b6" x="520.831169" y="295.44062" style="stroke: #000000"/>
     <use xlink:href="#m6fd2dd37b6" x="567.21039" y="294.577091" style="stroke: #000000"/>
     <use xlink:href="#m6fd2dd37b6" x="613.58961" y="269.81575" style="stroke: #000000"/>
     <use xlink:href="#m6fd2dd37b6" x="659.968831" y="277.77719" style="stroke: #000000"/>
     <use xlink:href="#m6fd2dd37b6" x="706.348052" y="226.387947" style="stroke: #000000"/>
     <use xlink:href="#m6fd2dd37b6" x="752.727273" y="239.580836" style="stroke: #000000"/>
     <use xlink:href="#m6fd2dd37b6" x="799.106494" y="253.48892" style="stroke: #000000"/>
     <use xlink:href="#m6fd2dd37b6" x="845.485714" y="298.345156" style="stroke: #000000"/>
     <use xlink:href="#m6fd2dd37b6" x="891.864935" y="283.988607" style="stroke: #000000"/>
     <use xlink:href="#m6fd2dd37b6" x="938.244156" y="284.16146" style="stroke: #000000"/>
     <use xlink:href="#m6fd2dd37b6" x="984.623377" y="275.896512" style="stroke: #000000"/>
    </g>
   </g>
   <g id="line2d_16">
    <g clip-path="url(#p4ee005a21c)">
     <use xlink:href="#m6fd2dd37b6" x="196.176623" y="66.665455" style="stroke: #000000"/>
     <use xlink:href="#m6fd2dd37b6" x="242.555844" y="259.650789" style="stroke: #000000"/>
     <use xlink:href="#m6fd2dd37b6" x="288.935065" y="200.0466" style="stroke: #000000"/>
     <use xlink:href="#m6fd2dd37b6" x="335.314286" y="208.722229" style="stroke: #000000"/>
     <use xlink:href="#m6fd2dd37b6" x="381.693506" y="201.006342" style="stroke: #000000"/>
     <use xlink:href="#m6fd2dd37b6" x="428.072727" y="250.953647" style="stroke: #000000"/>
     <use xlink:href="#m6fd2dd37b6" x="474.451948" y="207.221787" style="stroke: #000000"/>
     <use xlink:href="#m6fd2dd37b6" x="520.831169" y="248.023039" style="stroke: #000000"/>
     <use xlink:href="#m6fd2dd37b6" x="567.21039" y="253.763188" style="stroke: #000000"/>
     <use xlink:href="#m6fd2dd37b6" x="613.58961" y="229.490545" style="stroke: #000000"/>
     <use xlink:href="#m6fd2dd37b6" x="659.968831" y="239.429632" style="stroke: #000000"/>
     <use xlink:href="#m6fd2dd37b6" x="706.348052" y="190.590739" style="stroke: #000000"/>
     <use xlink:href="#m6fd2dd37b6" x="752.727273" y="204.860688" style="stroke: #000000"/>
     <use xlink:href="#m6fd2dd37b6" x="799.106494" y="219.289461" style="stroke: #000000"/>
     <use xlink:href="#m6fd2dd37b6" x="845.485714" y="265.125288" style="stroke: #000000"/>
     <use xlink:href="#m6fd2dd37b6" x="891.864935" y="251.690963" style="stroke: #000000"/>
     <use xlink:href="#m6fd2dd37b6" x="938.244156" y="253.325235" style="stroke: #000000"/>
     <use xlink:href="#m6fd2dd37b6" x="984.623377" y="247.056196" style="stroke: #000000"/>
    </g>
   </g>
   <g id="line2d_17">
    <defs>
     <path id="m93d1ef8295" d="M 0 3 
C 0.795609 3 1.55874 2.683901 2.12132 2.12132 
C 2.683901 1.55874 3 0.795609 3 0 
C 3 -0.795609 2.683901 -1.55874 2.12132 -2.12132 
C 1.55874 -2.683901 0.795609 -3 0 -3 
C -0.795609 -3 -1.55874 -2.683901 -2.12132 -2.12132 
C -2.683901 -1.55874 -3 -0.795609 -3 0 
C -3 0.795609 -2.683901 1.55874 -2.12132 2.12132 
C -1.55874 2.683901 -0.795609 3 0 3 
z
" style="stroke: #000000"/>
    </defs>
    <g clip-path="url(#p4ee005a21c)">
     <use xlink:href="#m93d1ef8295" x="196.176623" y="214.49633" style="stroke: #000000"/>
     <use xlink:href="#m93d1ef8295" x="242.555844" y="311.412667" style="stroke: #000000"/>
     <use xlink:href="#m93d1ef8295" x="288.935065" y="247.51596" style="stroke: #000000"/>
     <use xlink:href="#m93d1ef8295" x="335.314286" y="245.485234" style="stroke: #000000"/>
     <use xlink:href="#m93d1ef8295" x="381.693506" y="229.398678" style="stroke: #000000"/>
     <use xlink:href="#m93d1ef8295" x="428.072727" y="279.096846" style="stroke: #000000"/>
     <use xlink:href="#m93d1ef8295" x="474.451948" y="231.320618" style="stroke: #000000"/>
     <use xlink:href="#m93d1ef8295" x="520.831169" y="271.73183" style="stroke: #000000"/>
     <use xlink:href="#m93d1ef8295" x="567.21039" y="274.170139" style="stroke: #000000"/>
     <use xlink:href="#m93d1ef8295" x="613.58961" y="249.653148" style="stroke: #000000"/>
     <use xlink:href="#m93d1ef8295" x="659.968831" y="258.603411" style="stroke: #000000"/>
     <use xlink:href="#m93d1ef8295" x="706.348052" y="208.489343" style="stroke: #000000"/>
     <use xlink:href="#m93d1ef8295" x="752.727273" y="222.220762" style="stroke: #000000"/>
     <use xlink:href="#m93d1ef8295" x="799.106494" y="236.38919" style="stroke: #000000"/>
     <use xlink:href="#m93d1ef8295" x="845.485714" y="281.735222" style="stroke: #000000"/>
     <use xlink:href="#m93d1ef8295" x="891.864935" y="267.839785" style="stroke: #000000"/>
     <use xlink:href="#m93d1ef8295" x="938.244156" y="268.743347" style="stroke: #000000"/>
     <use xlink:href="#m93d1ef8295" x="984.623377" y="261.476354" style="stroke: #000000"/>
    </g>
   </g>
   <g id="patch_3">
    <path d="M 144 378 
L 144 51.84 
" style="fill: none; stroke: #000000; stroke-width: 0.8; stroke-linejoin: miter; stroke-linecap: square"/>
   </g>
   <g id="patch_4">
    <path d="M 1036.8 378 
L 1036.8 51.84 
" style="fill: none; stroke: #000000; stroke-width: 0.8; stroke-linejoin: miter; stroke-linecap: square"/>
   </g>
   <g id="patch_5">
    <path d="M 144 378 
L 1036.8 378 
" style="fill: none; stroke: #000000; stroke-width: 0.8; stroke-linejoin: miter; stroke-linecap: square"/>
   </g>
   <g id="patch_6">
    <path d="M 144 51.84 
L 1036.8 51.84 
" style="fill: none; stroke: #000000; stroke-width: 0.8; stroke-linejoin: miter; stroke-linecap: square"/>
   </g>
  </g>
 </g>
 <defs>
  <clipPath id="p4ee005a21c">
   <rect x="144" y="51.84" width="892.8" height="326.16"/>
  </clipPath>
 </defs>
</svg>
