<?xml version="1.0" encoding="utf-8" standalone="no"?>
<!DOCTYPE svg PUBLIC "-//W3C//DTD SVG 1.1//EN"
  "http://www.w3.org/Graphics/SVG/1.1/DTD/svg11.dtd">
<svg xmlns:xlink="http://www.w3.org/1999/xlink" width="864pt" height="576pt" viewBox="0 0 864 576" xmlns="http://www.w3.org/2000/svg" version="1.1">
 <metadata>
  <rdf:RDF xmlns:dc="http://purl.org/dc/elements/1.1/" xmlns:cc="http://creativecommons.org/ns#" xmlns:rdf="http://www.w3.org/1999/02/22-rdf-syntax-ns#">
   <cc:Work>
    <dc:type rdf:resource="http://purl.org/dc/dcmitype/StillImage"/>
    <dc:date>2024-02-06T14:25:58.687468</dc:date>
    <dc:format>image/svg+xml</dc:format>
    <dc:creator>
     <cc:Agent>
      <dc:title>Matplotlib v3.7.1, https://matplotlib.org/</dc:title>
     </cc:Agent>
    </dc:creator>
   </cc:Work>
  </rdf:RDF>
 </metadata>
 <defs>
  <style type="text/css">*{stroke-linejoin: round; stroke-linecap: butt}</style>
 </defs>
 <g id="figure_1">
  <g id="patch_1">
   <path d="M 0 576 
L 864 576 
L 864 0 
L 0 0 
z
" style="fill: #ffffff"/>
  </g>
  <g id="axes_1">
   <g id="patch_2">
    <path d="M 108 512.64 
L 777.6 512.64 
L 777.6 69.12 
L 108 69.12 
z
" style="fill: #ffffff"/>
   </g>
   <g id="PolyCollection_1">
    <defs>
     <path id="m75b3135428" d="M 344.853701 -83.52 
L 344.853701 -329.479139 
L 348.851509 -339.399544 
L 352.849317 -349.281856 
L 356.847125 -359.091438 
L 360.844933 -368.792713 
L 364.842742 -378.349364 
L 368.84055 -387.724556 
L 372.838358 -396.881161 
L 376.836166 -405.781999 
L 380.833974 -414.390083 
L 384.831782 -422.668873 
L 388.82959 -430.582532 
L 392.827398 -438.096181 
L 396.825207 -445.176155 
L 400.823015 -451.790251 
L 404.820823 -457.907974 
L 408.818631 -463.500768 
L 412.816439 -468.542241 
L 416.814247 -473.00837 
L 420.812055 -476.877691 
L 424.809863 -480.131471 
L 428.807672 -482.753864 
L 432.80548 -484.732031 
L 436.803288 -486.056252 
L 440.801096 -486.72 
L 444.798904 -486.72 
L 448.796712 -486.056252 
L 452.79452 -484.732031 
L 456.792328 -482.753864 
L 460.790137 -480.131471 
L 464.787945 -476.877691 
L 468.785753 -473.00837 
L 472.783561 -468.542241 
L 476.781369 -463.500768 
L 480.779177 -457.907974 
L 484.776985 -451.790251 
L 488.774793 -445.176155 
L 492.772602 -438.096181 
L 496.77041 -430.582532 
L 500.768218 -422.668873 
L 504.766026 -414.390083 
L 508.763834 -405.781999 
L 512.761642 -396.881161 
L 516.75945 -387.724556 
L 520.757258 -378.349364 
L 524.755067 -368.792713 
L 528.752875 -359.091438 
L 532.750683 -349.281856 
L 536.748491 -339.399544 
L 540.746299 -329.479139 
L 540.746299 -83.52 
L 540.746299 -83.52 
L 536.748491 -83.52 
L 532.750683 -83.52 
L 528.752875 -83.52 
L 524.755067 -83.52 
L 520.757258 -83.52 
L 516.75945 -83.52 
L 512.761642 -83.52 
L 508.763834 -83.52 
L 504.766026 -83.52 
L 500.768218 -83.52 
L 496.77041 -83.52 
L 492.772602 -83.52 
L 488.774793 -83.52 
L 484.776985 -83.52 
L 480.779177 -83.52 
L 476.781369 -83.52 
L 472.783561 -83.52 
L 468.785753 -83.52 
L 464.787945 -83.52 
L 460.790137 -83.52 
L 456.792328 -83.52 
L 452.79452 -83.52 
L 448.796712 -83.52 
L 444.798904 -83.52 
L 440.801096 -83.52 
L 436.803288 -83.52 
L 432.80548 -83.52 
L 428.807672 -83.52 
L 424.809863 -83.52 
L 420.812055 -83.52 
L 416.814247 -83.52 
L 412.816439 -83.52 
L 408.818631 -83.52 
L 404.820823 -83.52 
L 400.823015 -83.52 
L 396.825207 -83.52 
L 392.827398 -83.52 
L 388.82959 -83.52 
L 384.831782 -83.52 
L 380.833974 -83.52 
L 376.836166 -83.52 
L 372.838358 -83.52 
L 368.84055 -83.52 
L 364.842742 -83.52 
L 360.844933 -83.52 
L 356.847125 -83.52 
L 352.849317 -83.52 
L 348.851509 -83.52 
L 344.853701 -83.52 
z
" style="stroke: #add8e6; stroke-opacity: 0.8"/>
    </defs>
    <g clip-path="url(#p3e54843188)">
     <use xlink:href="#m75b3135428" x="0" y="576" style="fill: #add8e6; fill-opacity: 0.8; stroke: #add8e6; stroke-opacity: 0.8"/>
    </g>
   </g>
   <g id="PolyCollection_2">
    <defs>
     <path id="m74998193dd" d="M 249.758925 -83.52 
L 249.758925 -142.600992 
L 251.699635 -144.915384 
L 253.640345 -147.295672 
L 255.581054 -149.742528 
L 257.521764 -152.256568 
L 259.462474 -154.838355 
L 261.403184 -157.488391 
L 263.343893 -160.207117 
L 265.284603 -162.994907 
L 267.225313 -165.85207 
L 269.166022 -168.77884 
L 271.106732 -171.77538 
L 273.047442 -174.841774 
L 274.988151 -177.978028 
L 276.928861 -181.184064 
L 278.869571 -184.459719 
L 280.810281 -187.804743 
L 282.75099 -191.218793 
L 284.6917 -194.701438 
L 286.63241 -198.252146 
L 288.573119 -201.870291 
L 290.513829 -205.555146 
L 292.454539 -209.305883 
L 294.395249 -213.12157 
L 296.335958 -217.001171 
L 298.276668 -220.94354 
L 300.217378 -224.947427 
L 302.158087 -229.01147 
L 304.098797 -233.134198 
L 306.039507 -237.314025 
L 307.980217 -241.549259 
L 309.920926 -245.838091 
L 311.861636 -250.178601 
L 313.802346 -254.568756 
L 315.743055 -259.00641 
L 317.683765 -263.489306 
L 319.624475 -268.015075 
L 321.565184 -272.581237 
L 323.505894 -277.185204 
L 325.446604 -281.824277 
L 327.387314 -286.495653 
L 329.328023 -291.196423 
L 331.268733 -295.923578 
L 333.209443 -300.674004 
L 335.150152 -305.444494 
L 337.090862 -310.231744 
L 339.031572 -315.032359 
L 340.972282 -319.842856 
L 342.912991 -324.659665 
L 344.853701 -329.479139 
L 344.853701 -83.52 
L 344.853701 -83.52 
L 342.912991 -83.52 
L 340.972282 -83.52 
L 339.031572 -83.52 
L 337.090862 -83.52 
L 335.150152 -83.52 
L 333.209443 -83.52 
L 331.268733 -83.52 
L 329.328023 -83.52 
L 327.387314 -83.52 
L 325.446604 -83.52 
L 323.505894 -83.52 
L 321.565184 -83.52 
L 319.624475 -83.52 
L 317.683765 -83.52 
L 315.743055 -83.52 
L 313.802346 -83.52 
L 311.861636 -83.52 
L 309.920926 -83.52 
L 307.980217 -83.52 
L 306.039507 -83.52 
L 304.098797 -83.52 
L 302.158087 -83.52 
L 300.217378 -83.52 
L 298.276668 -83.52 
L 296.335958 -83.52 
L 294.395249 -83.52 
L 292.454539 -83.52 
L 290.513829 -83.52 
L 288.573119 -83.52 
L 286.63241 -83.52 
L 284.6917 -83.52 
L 282.75099 -83.52 
L 280.810281 -83.52 
L 278.869571 -83.52 
L 276.928861 -83.52 
L 274.988151 -83.52 
L 273.047442 -83.52 
L 271.106732 -83.52 
L 269.166022 -83.52 
L 267.225313 -83.52 
L 265.284603 -83.52 
L 263.343893 -83.52 
L 261.403184 -83.52 
L 259.462474 -83.52 
L 257.521764 -83.52 
L 255.581054 -83.52 
L 253.640345 -83.52 
L 251.699635 -83.52 
L 249.758925 -83.52 
z
" style="stroke: #f08080; stroke-opacity: 0.8"/>
    </defs>
    <g clip-path="url(#p3e54843188)">
     <use xlink:href="#m74998193dd" x="0" y="576" style="fill: #f08080; fill-opacity: 0.8; stroke: #f08080; stroke-opacity: 0.8"/>
    </g>
   </g>
   <g id="PolyCollection_3">
    <defs>
     <path id="m7566541d09" d="M 540.746299 -83.52 
L 540.746299 -329.479139 
L 542.687009 -324.659665 
L 544.627718 -319.842856 
L 546.568428 -315.032359 
L 548.509138 -310.231744 
L 550.449848 -305.444494 
L 552.390557 -300.674004 
L 554.331267 -295.923578 
L 556.271977 -291.196423 
L 558.212686 -286.495653 
L 560.153396 -281.824277 
L 562.094106 -277.185204 
L 564.034816 -272.581237 
L 565.975525 -268.015075 
L 567.916235 -263.489306 
L 569.856945 -259.00641 
L 571.797654 -254.568756 
L 573.738364 -250.178601 
L 575.679074 -245.838091 
L 577.619783 -241.549259 
L 579.560493 -237.314025 
L 581.501203 -233.134198 
L 583.441913 -229.01147 
L 585.382622 -224.947427 
L 587.323332 -220.94354 
L 589.264042 -217.001171 
L 591.204751 -213.12157 
L 593.145461 -209.305883 
L 595.086171 -205.555146 
L 597.026881 -201.870291 
L 598.96759 -198.252146 
L 600.9083 -194.701438 
L 602.84901 -191.218793 
L 604.789719 -187.804743 
L 606.730429 -184.459719 
L 608.671139 -181.184064 
L 610.611849 -177.978028 
L 612.552558 -174.841774 
L 614.493268 -171.77538 
L 616.433978 -168.77884 
L 618.374687 -165.85207 
L 620.315397 -162.994907 
L 622.256107 -160.207117 
L 624.196816 -157.488391 
L 626.137526 -154.838355 
L 628.078236 -152.256568 
L 630.018946 -149.742528 
L 631.959655 -147.295672 
L 633.900365 -144.915384 
L 635.841075 -142.600992 
L 635.841075 -83.52 
L 635.841075 -83.52 
L 633.900365 -83.52 
L 631.959655 -83.52 
L 630.018946 -83.52 
L 628.078236 -83.52 
L 626.137526 -83.52 
L 624.196816 -83.52 
L 622.256107 -83.52 
L 620.315397 -83.52 
L 618.374687 -83.52 
L 616.433978 -83.52 
L 614.493268 -83.52 
L 612.552558 -83.52 
L 610.611849 -83.52 
L 608.671139 -83.52 
L 606.730429 -83.52 
L 604.789719 -83.52 
L 602.84901 -83.52 
L 600.9083 -83.52 
L 598.96759 -83.52 
L 597.026881 -83.52 
L 595.086171 -83.52 
L 593.145461 -83.52 
L 591.204751 -83.52 
L 589.264042 -83.52 
L 587.323332 -83.52 
L 585.382622 -83.52 
L 583.441913 -83.52 
L 581.501203 -83.52 
L 579.560493 -83.52 
L 577.619783 -83.52 
L 575.679074 -83.52 
L 573.738364 -83.52 
L 571.797654 -83.52 
L 569.856945 -83.52 
L 567.916235 -83.52 
L 565.975525 -83.52 
L 564.034816 -83.52 
L 562.094106 -83.52 
L 560.153396 -83.52 
L 558.212686 -83.52 
L 556.271977 -83.52 
L 554.331267 -83.52 
L 552.390557 -83.52 
L 550.449848 -83.52 
L 548.509138 -83.52 
L 546.568428 -83.52 
L 544.627718 -83.52 
L 542.687009 -83.52 
L 540.746299 -83.52 
z
" style="stroke: #f08080; stroke-opacity: 0.8"/>
    </defs>
    <g clip-path="url(#p3e54843188)">
     <use xlink:href="#m7566541d09" x="0" y="576" style="fill: #f08080; fill-opacity: 0.8; stroke: #f08080; stroke-opacity: 0.8"/>
    </g>
   </g>
   <g id="PolyCollection_4">
    <defs>
     <path id="mb107c27f3d" d="M 150.501099 -83.52 
L 150.501099 -88.452789 
L 152.526769 -88.76214 
L 154.552439 -89.088537 
L 156.578109 -89.432754 
L 158.603779 -89.795594 
L 160.629449 -90.177883 
L 162.655119 -90.580473 
L 164.680789 -91.00424 
L 166.706458 -91.450087 
L 168.732128 -91.91894 
L 170.757798 -92.411751 
L 172.783468 -92.929496 
L 174.809138 -93.473178 
L 176.834808 -94.043822 
L 178.860478 -94.642476 
L 180.886148 -95.270214 
L 182.911818 -95.92813 
L 184.937488 -96.617344 
L 186.963158 -97.338993 
L 188.988828 -98.094239 
L 191.014498 -98.88426 
L 193.040167 -99.710256 
L 195.065837 -100.573443 
L 197.091507 -101.475055 
L 199.117177 -102.41634 
L 201.142847 -103.398561 
L 203.168517 -104.422994 
L 205.194187 -105.490924 
L 207.219857 -106.603649 
L 209.245527 -107.762472 
L 211.271197 -108.968702 
L 213.296867 -110.223652 
L 215.322537 -111.528638 
L 217.348207 -112.884973 
L 219.373876 -114.293969 
L 221.399546 -115.756934 
L 223.425216 -117.275165 
L 225.450886 -118.849951 
L 227.476556 -120.482568 
L 229.502226 -122.174275 
L 231.527896 -123.926313 
L 233.553566 -125.739902 
L 235.579236 -127.616234 
L 237.604906 -129.556477 
L 239.630576 -131.561765 
L 241.656246 -133.633199 
L 243.681916 -135.771841 
L 245.707585 -137.978712 
L 247.733255 -140.254786 
L 249.758925 -142.600992 
L 249.758925 -83.52 
L 249.758925 -83.52 
L 247.733255 -83.52 
L 245.707585 -83.52 
L 243.681916 -83.52 
L 241.656246 -83.52 
L 239.630576 -83.52 
L 237.604906 -83.52 
L 235.579236 -83.52 
L 233.553566 -83.52 
L 231.527896 -83.52 
L 229.502226 -83.52 
L 227.476556 -83.52 
L 225.450886 -83.52 
L 223.425216 -83.52 
L 221.399546 -83.52 
L 219.373876 -83.52 
L 217.348207 -83.52 
L 215.322537 -83.52 
L 213.296867 -83.52 
L 211.271197 -83.52 
L 209.245527 -83.52 
L 207.219857 -83.52 
L 205.194187 -83.52 
L 203.168517 -83.52 
L 201.142847 -83.52 
L 199.117177 -83.52 
L 197.091507 -83.52 
L 195.065837 -83.52 
L 193.040167 -83.52 
L 191.014498 -83.52 
L 188.988828 -83.52 
L 186.963158 -83.52 
L 184.937488 -83.52 
L 182.911818 -83.52 
L 180.886148 -83.52 
L 178.860478 -83.52 
L 176.834808 -83.52 
L 174.809138 -83.52 
L 172.783468 -83.52 
L 170.757798 -83.52 
L 168.732128 -83.52 
L 166.706458 -83.52 
L 164.680789 -83.52 
L 162.655119 -83.52 
L 160.629449 -83.52 
L 158.603779 -83.52 
L 156.578109 -83.52 
L 154.552439 -83.52 
L 152.526769 -83.52 
L 150.501099 -83.52 
z
" style="stroke: #d3d3d3; stroke-opacity: 0.8"/>
    </defs>
    <g clip-path="url(#p3e54843188)">
     <use xlink:href="#mb107c27f3d" x="0" y="576" style="fill: #d3d3d3; fill-opacity: 0.8; stroke: #d3d3d3; stroke-opacity: 0.8"/>
    </g>
   </g>
   <g id="PolyCollection_5">
    <defs>
     <path id="m608f1ad425" d="M 635.841075 -83.52 
L 635.841075 -142.600992 
L 637.866745 -140.254786 
L 639.892415 -137.978712 
L 641.918084 -135.771841 
L 643.943754 -133.633199 
L 645.969424 -131.561765 
L 647.995094 -129.556477 
L 650.020764 -127.616234 
L 652.046434 -125.739902 
L 654.072104 -123.926313 
L 656.097774 -122.174275 
L 658.123444 -120.482568 
L 660.149114 -118.849951 
L 662.174784 -117.275165 
L 664.200454 -115.756934 
L 666.226124 -114.293969 
L 668.251793 -112.884973 
L 670.277463 -111.528638 
L 672.303133 -110.223652 
L 674.328803 -108.968702 
L 676.354473 -107.762472 
L 678.380143 -106.603649 
L 680.405813 -105.490924 
L 682.431483 -104.422994 
L 684.457153 -103.398561 
L 686.482823 -102.41634 
L 688.508493 -101.475055 
L 690.534163 -100.573443 
L 692.559833 -99.710256 
L 694.585502 -98.88426 
L 696.611172 -98.094239 
L 698.636842 -97.338993 
L 700.662512 -96.617344 
L 702.688182 -95.92813 
L 704.713852 -95.270214 
L 706.739522 -94.642476 
L 708.765192 -94.043822 
L 710.790862 -93.473178 
L 712.816532 -92.929496 
L 714.842202 -92.411751 
L 716.867872 -91.91894 
L 718.893542 -91.450087 
L 720.919211 -91.00424 
L 722.944881 -90.580473 
L 724.970551 -90.177883 
L 726.996221 -89.795594 
L 729.021891 -89.432754 
L 731.047561 -89.088537 
L 733.073231 -88.76214 
L 735.098901 -88.452789 
L 735.098901 -83.52 
L 735.098901 -83.52 
L 733.073231 -83.52 
L 731.047561 -83.52 
L 729.021891 -83.52 
L 726.996221 -83.52 
L 724.970551 -83.52 
L 722.944881 -83.52 
L 720.919211 -83.52 
L 718.893542 -83.52 
L 716.867872 -83.52 
L 714.842202 -83.52 
L 712.816532 -83.52 
L 710.790862 -83.52 
L 708.765192 -83.52 
L 706.739522 -83.52 
L 704.713852 -83.52 
L 702.688182 -83.52 
L 700.662512 -83.52 
L 698.636842 -83.52 
L 696.611172 -83.52 
L 694.585502 -83.52 
L 692.559833 -83.52 
L 690.534163 -83.52 
L 688.508493 -83.52 
L 686.482823 -83.52 
L 684.457153 -83.52 
L 682.431483 -83.52 
L 680.405813 -83.52 
L 678.380143 -83.52 
L 676.354473 -83.52 
L 674.328803 -83.52 
L 672.303133 -83.52 
L 670.277463 -83.52 
L 668.251793 -83.52 
L 666.226124 -83.52 
L 664.200454 -83.52 
L 662.174784 -83.52 
L 660.149114 -83.52 
L 658.123444 -83.52 
L 656.097774 -83.52 
L 654.072104 -83.52 
L 652.046434 -83.52 
L 650.020764 -83.52 
L 647.995094 -83.52 
L 645.969424 -83.52 
L 643.943754 -83.52 
L 641.918084 -83.52 
L 639.892415 -83.52 
L 637.866745 -83.52 
L 635.841075 -83.52 
z
" style="stroke: #d3d3d3; stroke-opacity: 0.8"/>
    </defs>
    <g clip-path="url(#p3e54843188)">
     <use xlink:href="#m608f1ad425" x="0" y="576" style="fill: #d3d3d3; fill-opacity: 0.8; stroke: #d3d3d3; stroke-opacity: 0.8"/>
    </g>
   </g>
   <g id="matplotlib.axis_1">
    <g id="xtick_1">
     <g id="line2d_1">
      <defs>
       <path id="m4606c09138" d="M 0 0 
L 0 3.5 
" style="stroke: #000000; stroke-width: 0.8"/>
      </defs>
      <g>
       <use xlink:href="#m4606c09138" x="147.323538" y="512.64" style="stroke: #000000; stroke-width: 0.8"/>
      </g>
     </g>
     <g id="text_1">
      <!-- −3 -->
      <g transform="translate(134.055569 533.317188) scale(0.18 -0.18)">
       <defs>
        <path id="DejaVuSans-2212" d="M 678 2272 
L 4684 2272 
L 4684 1741 
L 678 1741 
L 678 2272 
z
" transform="scale(0.015625)"/>
        <path id="DejaVuSans-33" d="M 2597 2516 
Q 3050 2419 3304 2112 
Q 3559 1806 3559 1356 
Q 3559 666 3084 287 
Q 2609 -91 1734 -91 
Q 1441 -91 1130 -33 
Q 819 25 488 141 
L 488 750 
Q 750 597 1062 519 
Q 1375 441 1716 441 
Q 2309 441 2620 675 
Q 2931 909 2931 1356 
Q 2931 1769 2642 2001 
Q 2353 2234 1838 2234 
L 1294 2234 
L 1294 2753 
L 1863 2753 
Q 2328 2753 2575 2939 
Q 2822 3125 2822 3475 
Q 2822 3834 2567 4026 
Q 2313 4219 1838 4219 
Q 1578 4219 1281 4162 
Q 984 4106 628 3988 
L 628 4550 
Q 988 4650 1302 4700 
Q 1616 4750 1894 4750 
Q 2613 4750 3031 4423 
Q 3450 4097 3450 3541 
Q 3450 3153 3228 2886 
Q 3006 2619 2597 2516 
z
" transform="scale(0.015625)"/>
       </defs>
       <use xlink:href="#DejaVuSans-2212"/>
       <use xlink:href="#DejaVuSans-33" x="83.789062"/>
      </g>
     </g>
    </g>
    <g id="xtick_2">
     <g id="line2d_2">
      <g>
       <use xlink:href="#m4606c09138" x="245.815692" y="512.64" style="stroke: #000000; stroke-width: 0.8"/>
      </g>
     </g>
     <g id="text_2">
      <!-- −2 -->
      <g transform="translate(232.547723 533.317188) scale(0.18 -0.18)">
       <defs>
        <path id="DejaVuSans-32" d="M 1228 531 
L 3431 531 
L 3431 0 
L 469 0 
L 469 531 
Q 828 903 1448 1529 
Q 2069 2156 2228 2338 
Q 2531 2678 2651 2914 
Q 2772 3150 2772 3378 
Q 2772 3750 2511 3984 
Q 2250 4219 1831 4219 
Q 1534 4219 1204 4116 
Q 875 4013 500 3803 
L 500 4441 
Q 881 4594 1212 4672 
Q 1544 4750 1819 4750 
Q 2544 4750 2975 4387 
Q 3406 4025 3406 3419 
Q 3406 3131 3298 2873 
Q 3191 2616 2906 2266 
Q 2828 2175 2409 1742 
Q 1991 1309 1228 531 
z
" transform="scale(0.015625)"/>
       </defs>
       <use xlink:href="#DejaVuSans-2212"/>
       <use xlink:href="#DejaVuSans-32" x="83.789062"/>
      </g>
     </g>
    </g>
    <g id="xtick_3">
     <g id="line2d_3">
      <g>
       <use xlink:href="#m4606c09138" x="344.307846" y="512.64" style="stroke: #000000; stroke-width: 0.8"/>
      </g>
     </g>
     <g id="text_3">
      <!-- −1 -->
      <g transform="translate(331.039877 533.317188) scale(0.18 -0.18)">
       <defs>
        <path id="DejaVuSans-31" d="M 794 531 
L 1825 531 
L 1825 4091 
L 703 3866 
L 703 4441 
L 1819 4666 
L 2450 4666 
L 2450 531 
L 3481 531 
L 3481 0 
L 794 0 
L 794 531 
z
" transform="scale(0.015625)"/>
       </defs>
       <use xlink:href="#DejaVuSans-2212"/>
       <use xlink:href="#DejaVuSans-31" x="83.789062"/>
      </g>
     </g>
    </g>
    <g id="xtick_4">
     <g id="line2d_4">
      <g>
       <use xlink:href="#m4606c09138" x="442.8" y="512.64" style="stroke: #000000; stroke-width: 0.8"/>
      </g>
     </g>
     <g id="text_4">
      <!-- 0 -->
      <g transform="translate(437.07375 533.317188) scale(0.18 -0.18)">
       <defs>
        <path id="DejaVuSans-30" d="M 2034 4250 
Q 1547 4250 1301 3770 
Q 1056 3291 1056 2328 
Q 1056 1369 1301 889 
Q 1547 409 2034 409 
Q 2525 409 2770 889 
Q 3016 1369 3016 2328 
Q 3016 3291 2770 3770 
Q 2525 4250 2034 4250 
z
M 2034 4750 
Q 2819 4750 3233 4129 
Q 3647 3509 3647 2328 
Q 3647 1150 3233 529 
Q 2819 -91 2034 -91 
Q 1250 -91 836 529 
Q 422 1150 422 2328 
Q 422 3509 836 4129 
Q 1250 4750 2034 4750 
z
" transform="scale(0.015625)"/>
       </defs>
       <use xlink:href="#DejaVuSans-30"/>
      </g>
     </g>
    </g>
    <g id="xtick_5">
     <g id="line2d_5">
      <g>
       <use xlink:href="#m4606c09138" x="541.292154" y="512.64" style="stroke: #000000; stroke-width: 0.8"/>
      </g>
     </g>
     <g id="text_5">
      <!-- 1 -->
      <g transform="translate(535.565904 533.317188) scale(0.18 -0.18)">
       <use xlink:href="#DejaVuSans-31"/>
      </g>
     </g>
    </g>
    <g id="xtick_6">
     <g id="line2d_6">
      <g>
       <use xlink:href="#m4606c09138" x="639.784308" y="512.64" style="stroke: #000000; stroke-width: 0.8"/>
      </g>
     </g>
     <g id="text_6">
      <!-- 2 -->
      <g transform="translate(634.058058 533.317188) scale(0.18 -0.18)">
       <use xlink:href="#DejaVuSans-32"/>
      </g>
     </g>
    </g>
    <g id="xtick_7">
     <g id="line2d_7">
      <g>
       <use xlink:href="#m4606c09138" x="738.276462" y="512.64" style="stroke: #000000; stroke-width: 0.8"/>
      </g>
     </g>
     <g id="text_7">
      <!-- 3 -->
      <g transform="translate(732.550212 533.317188) scale(0.18 -0.18)">
       <use xlink:href="#DejaVuSans-33"/>
      </g>
     </g>
    </g>
    <g id="text_8">
     <!-- $x/\sigma_m$ -->
     <g transform="translate(422.28 554.737813) scale(0.18 -0.18)">
      <defs>
       <path id="DejaVuSans-Oblique-78" d="M 3841 3500 
L 2234 1784 
L 3219 0 
L 2559 0 
L 1819 1388 
L 531 0 
L -166 0 
L 1556 1844 
L 641 3500 
L 1300 3500 
L 1972 2234 
L 3144 3500 
L 3841 3500 
z
" transform="scale(0.015625)"/>
       <path id="DejaVuSans-2f" d="M 1625 4666 
L 2156 4666 
L 531 -594 
L 0 -594 
L 1625 4666 
z
" transform="scale(0.015625)"/>
       <path id="DejaVuSans-Oblique-3c3" d="M 2219 3044 
Q 1744 3044 1422 2700 
Q 1081 2341 969 1747 
Q 844 1119 1044 756 
Q 1241 397 1706 397 
Q 2166 397 2503 759 
Q 2844 1122 2966 1747 
Q 3075 2319 2881 2700 
Q 2700 3044 2219 3044 
z
M 2309 3503 
L 4219 3500 
L 4106 2925 
L 3463 2925 
Q 3706 2438 3575 1747 
Q 3406 888 2884 400 
Q 2359 -91 1609 -91 
Q 856 -91 525 400 
Q 194 888 363 1747 
Q 528 2609 1050 3097 
Q 1484 3503 2309 3503 
z
" transform="scale(0.015625)"/>
       <path id="DejaVuSans-Oblique-6d" d="M 5747 2113 
L 5338 0 
L 4763 0 
L 5166 2094 
Q 5191 2228 5203 2325 
Q 5216 2422 5216 2491 
Q 5216 2772 5059 2928 
Q 4903 3084 4622 3084 
Q 4203 3084 3875 2770 
Q 3547 2456 3450 1953 
L 3066 0 
L 2491 0 
L 2900 2094 
Q 2925 2209 2937 2307 
Q 2950 2406 2950 2484 
Q 2950 2769 2794 2926 
Q 2638 3084 2363 3084 
Q 1938 3084 1609 2770 
Q 1281 2456 1184 1953 
L 800 0 
L 225 0 
L 909 3500 
L 1484 3500 
L 1375 2956 
Q 1609 3263 1923 3423 
Q 2238 3584 2597 3584 
Q 2978 3584 3223 3384 
Q 3469 3184 3519 2828 
Q 3781 3197 4126 3390 
Q 4472 3584 4856 3584 
Q 5306 3584 5551 3325 
Q 5797 3066 5797 2591 
Q 5797 2488 5784 2364 
Q 5772 2241 5747 2113 
z
" transform="scale(0.015625)"/>
      </defs>
      <use xlink:href="#DejaVuSans-Oblique-78" transform="translate(0 0.09375)"/>
      <use xlink:href="#DejaVuSans-2f" transform="translate(59.179688 0.09375)"/>
      <use xlink:href="#DejaVuSans-Oblique-3c3" transform="translate(92.871094 0.09375)"/>
      <use xlink:href="#DejaVuSans-Oblique-6d" transform="translate(156.25 -16.3125) scale(0.7)"/>
     </g>
    </g>
   </g>
   <g id="matplotlib.axis_2">
    <g id="ytick_1">
     <g id="line2d_8">
      <defs>
       <path id="mab6622feea" d="M 0 0 
L -3.5 0 
" style="stroke: #000000; stroke-width: 0.8"/>
      </defs>
      <g>
       <use xlink:href="#mab6622feea" x="108" y="492.48" style="stroke: #000000; stroke-width: 0.8"/>
      </g>
     </g>
     <g id="text_9">
      <!-- 0.00 -->
      <g transform="translate(60.921875 499.318594) scale(0.18 -0.18)">
       <defs>
        <path id="DejaVuSans-2e" d="M 684 794 
L 1344 794 
L 1344 0 
L 684 0 
L 684 794 
z
" transform="scale(0.015625)"/>
       </defs>
       <use xlink:href="#DejaVuSans-30"/>
       <use xlink:href="#DejaVuSans-2e" x="63.623047"/>
       <use xlink:href="#DejaVuSans-30" x="95.410156"/>
       <use xlink:href="#DejaVuSans-30" x="159.033203"/>
      </g>
     </g>
    </g>
    <g id="ytick_2">
     <g id="line2d_9">
      <g>
       <use xlink:href="#mab6622feea" x="108" y="441.935966" style="stroke: #000000; stroke-width: 0.8"/>
      </g>
     </g>
     <g id="text_10">
      <!-- 0.05 -->
      <g transform="translate(60.921875 448.77456) scale(0.18 -0.18)">
       <defs>
        <path id="DejaVuSans-35" d="M 691 4666 
L 3169 4666 
L 3169 4134 
L 1269 4134 
L 1269 2991 
Q 1406 3038 1543 3061 
Q 1681 3084 1819 3084 
Q 2600 3084 3056 2656 
Q 3513 2228 3513 1497 
Q 3513 744 3044 326 
Q 2575 -91 1722 -91 
Q 1428 -91 1123 -41 
Q 819 9 494 109 
L 494 744 
Q 775 591 1075 516 
Q 1375 441 1709 441 
Q 2250 441 2565 725 
Q 2881 1009 2881 1497 
Q 2881 1984 2565 2268 
Q 2250 2553 1709 2553 
Q 1456 2553 1204 2497 
Q 953 2441 691 2322 
L 691 4666 
z
" transform="scale(0.015625)"/>
       </defs>
       <use xlink:href="#DejaVuSans-30"/>
       <use xlink:href="#DejaVuSans-2e" x="63.623047"/>
       <use xlink:href="#DejaVuSans-30" x="95.410156"/>
       <use xlink:href="#DejaVuSans-35" x="159.033203"/>
      </g>
     </g>
    </g>
    <g id="ytick_3">
     <g id="line2d_10">
      <g>
       <use xlink:href="#mab6622feea" x="108" y="391.391932" style="stroke: #000000; stroke-width: 0.8"/>
      </g>
     </g>
     <g id="text_11">
      <!-- 0.10 -->
      <g transform="translate(60.921875 398.230525) scale(0.18 -0.18)">
       <use xlink:href="#DejaVuSans-30"/>
       <use xlink:href="#DejaVuSans-2e" x="63.623047"/>
       <use xlink:href="#DejaVuSans-31" x="95.410156"/>
       <use xlink:href="#DejaVuSans-30" x="159.033203"/>
      </g>
     </g>
    </g>
    <g id="ytick_4">
     <g id="line2d_11">
      <g>
       <use xlink:href="#mab6622feea" x="108" y="340.847897" style="stroke: #000000; stroke-width: 0.8"/>
      </g>
     </g>
     <g id="text_12">
      <!-- 0.15 -->
      <g transform="translate(60.921875 347.686491) scale(0.18 -0.18)">
       <use xlink:href="#DejaVuSans-30"/>
       <use xlink:href="#DejaVuSans-2e" x="63.623047"/>
       <use xlink:href="#DejaVuSans-31" x="95.410156"/>
       <use xlink:href="#DejaVuSans-35" x="159.033203"/>
      </g>
     </g>
    </g>
    <g id="ytick_5">
     <g id="line2d_12">
      <g>
       <use xlink:href="#mab6622feea" x="108" y="290.303863" style="stroke: #000000; stroke-width: 0.8"/>
      </g>
     </g>
     <g id="text_13">
      <!-- 0.20 -->
      <g transform="translate(60.921875 297.142457) scale(0.18 -0.18)">
       <use xlink:href="#DejaVuSans-30"/>
       <use xlink:href="#DejaVuSans-2e" x="63.623047"/>
       <use xlink:href="#DejaVuSans-32" x="95.410156"/>
       <use xlink:href="#DejaVuSans-30" x="159.033203"/>
      </g>
     </g>
    </g>
    <g id="ytick_6">
     <g id="line2d_13">
      <g>
       <use xlink:href="#mab6622feea" x="108" y="239.759829" style="stroke: #000000; stroke-width: 0.8"/>
      </g>
     </g>
     <g id="text_14">
      <!-- 0.25 -->
      <g transform="translate(60.921875 246.598423) scale(0.18 -0.18)">
       <use xlink:href="#DejaVuSans-30"/>
       <use xlink:href="#DejaVuSans-2e" x="63.623047"/>
       <use xlink:href="#DejaVuSans-32" x="95.410156"/>
       <use xlink:href="#DejaVuSans-35" x="159.033203"/>
      </g>
     </g>
    </g>
    <g id="ytick_7">
     <g id="line2d_14">
      <g>
       <use xlink:href="#mab6622feea" x="108" y="189.215795" style="stroke: #000000; stroke-width: 0.8"/>
      </g>
     </g>
     <g id="text_15">
      <!-- 0.30 -->
      <g transform="translate(60.921875 196.054388) scale(0.18 -0.18)">
       <use xlink:href="#DejaVuSans-30"/>
       <use xlink:href="#DejaVuSans-2e" x="63.623047"/>
       <use xlink:href="#DejaVuSans-33" x="95.410156"/>
       <use xlink:href="#DejaVuSans-30" x="159.033203"/>
      </g>
     </g>
    </g>
    <g id="ytick_8">
     <g id="line2d_15">
      <g>
       <use xlink:href="#mab6622feea" x="108" y="138.67176" style="stroke: #000000; stroke-width: 0.8"/>
      </g>
     </g>
     <g id="text_16">
      <!-- 0.35 -->
      <g transform="translate(60.921875 145.510354) scale(0.18 -0.18)">
       <use xlink:href="#DejaVuSans-30"/>
       <use xlink:href="#DejaVuSans-2e" x="63.623047"/>
       <use xlink:href="#DejaVuSans-33" x="95.410156"/>
       <use xlink:href="#DejaVuSans-35" x="159.033203"/>
      </g>
     </g>
    </g>
    <g id="ytick_9">
     <g id="line2d_16">
      <g>
       <use xlink:href="#mab6622feea" x="108" y="88.127726" style="stroke: #000000; stroke-width: 0.8"/>
      </g>
     </g>
     <g id="text_17">
      <!-- 0.40 -->
      <g transform="translate(60.921875 94.96632) scale(0.18 -0.18)">
       <defs>
        <path id="DejaVuSans-34" d="M 2419 4116 
L 825 1625 
L 2419 1625 
L 2419 4116 
z
M 2253 4666 
L 3047 4666 
L 3047 1625 
L 3713 1625 
L 3713 1100 
L 3047 1100 
L 3047 0 
L 2419 0 
L 2419 1100 
L 313 1100 
L 313 1709 
L 2253 4666 
z
" transform="scale(0.015625)"/>
       </defs>
       <use xlink:href="#DejaVuSans-30"/>
       <use xlink:href="#DejaVuSans-2e" x="63.623047"/>
       <use xlink:href="#DejaVuSans-34" x="95.410156"/>
       <use xlink:href="#DejaVuSans-30" x="159.033203"/>
      </g>
     </g>
    </g>
    <g id="text_18">
     <!-- $G(x;\mu,\sigma_m)$ -->
     <g transform="translate(53.141875 337.5) rotate(-90) scale(0.18 -0.18)">
      <defs>
       <path id="DejaVuSans-Oblique-47" d="M 3494 697 
L 3738 1919 
L 2700 1919 
L 2797 2438 
L 4453 2438 
L 4050 384 
Q 3634 156 3143 32 
Q 2653 -91 2156 -91 
Q 1278 -91 783 396 
Q 288 884 288 1753 
Q 288 2475 589 3126 
Q 891 3778 1422 4213 
Q 1756 4484 2153 4617 
Q 2550 4750 3034 4750 
Q 3472 4750 3873 4639 
Q 4275 4528 4641 4306 
L 4513 3634 
Q 4231 3928 3853 4083 
Q 3475 4238 3047 4238 
Q 2550 4238 2172 4048 
Q 1794 3859 1497 3463 
Q 1244 3125 1098 2667 
Q 953 2209 953 1734 
Q 953 1081 1287 751 
Q 1622 422 2284 422 
Q 2616 422 2925 492 
Q 3234 563 3494 697 
z
" transform="scale(0.015625)"/>
       <path id="DejaVuSans-28" d="M 1984 4856 
Q 1566 4138 1362 3434 
Q 1159 2731 1159 2009 
Q 1159 1288 1364 580 
Q 1569 -128 1984 -844 
L 1484 -844 
Q 1016 -109 783 600 
Q 550 1309 550 2009 
Q 550 2706 781 3412 
Q 1013 4119 1484 4856 
L 1984 4856 
z
" transform="scale(0.015625)"/>
       <path id="DejaVuSans-3b" d="M 750 3309 
L 1409 3309 
L 1409 2516 
L 750 2516 
L 750 3309 
z
M 750 794 
L 1409 794 
L 1409 256 
L 897 -744 
L 494 -744 
L 750 256 
L 750 794 
z
" transform="scale(0.015625)"/>
       <path id="DejaVuSans-Oblique-3bc" d="M -84 -1331 
L 856 3500 
L 1434 3500 
L 1009 1322 
Q 997 1256 987 1175 
Q 978 1094 978 1013 
Q 978 722 1161 565 
Q 1344 409 1684 409 
Q 2147 409 2431 671 
Q 2716 934 2816 1459 
L 3213 3500 
L 3788 3500 
L 3266 809 
Q 3253 750 3248 706 
Q 3244 663 3244 628 
Q 3244 531 3283 486 
Q 3322 441 3406 441 
Q 3438 441 3492 456 
Q 3547 472 3647 513 
L 3559 50 
Q 3422 -19 3297 -55 
Q 3172 -91 3053 -91 
Q 2847 -91 2730 40 
Q 2613 172 2613 403 
Q 2438 153 2195 31 
Q 1953 -91 1625 -91 
Q 1334 -91 1117 43 
Q 900 178 831 397 
L 494 -1331 
L -84 -1331 
z
" transform="scale(0.015625)"/>
       <path id="DejaVuSans-2c" d="M 750 794 
L 1409 794 
L 1409 256 
L 897 -744 
L 494 -744 
L 750 256 
L 750 794 
z
" transform="scale(0.015625)"/>
       <path id="DejaVuSans-29" d="M 513 4856 
L 1013 4856 
Q 1481 4119 1714 3412 
Q 1947 2706 1947 2009 
Q 1947 1309 1714 600 
Q 1481 -109 1013 -844 
L 513 -844 
Q 928 -128 1133 580 
Q 1338 1288 1338 2009 
Q 1338 2731 1133 3434 
Q 928 4138 513 4856 
z
" transform="scale(0.015625)"/>
      </defs>
      <use xlink:href="#DejaVuSans-Oblique-47" transform="translate(0 0.125)"/>
      <use xlink:href="#DejaVuSans-28" transform="translate(77.490234 0.125)"/>
      <use xlink:href="#DejaVuSans-Oblique-78" transform="translate(116.503906 0.125)"/>
      <use xlink:href="#DejaVuSans-3b" transform="translate(175.683594 0.125)"/>
      <use xlink:href="#DejaVuSans-Oblique-3bc" transform="translate(228.857422 0.125)"/>
      <use xlink:href="#DejaVuSans-2c" transform="translate(292.480469 0.125)"/>
      <use xlink:href="#DejaVuSans-Oblique-3c3" transform="translate(343.75 0.125)"/>
      <use xlink:href="#DejaVuSans-Oblique-6d" transform="translate(407.128906 -16.28125) scale(0.7)"/>
      <use xlink:href="#DejaVuSans-29" transform="translate(478.051758 0.125)"/>
     </g>
    </g>
   </g>
   <g id="line2d_17">
    <path d="M 138.436364 489.076274 
L 144.585124 488.360046 
L 150.733884 487.512504 
L 156.882645 486.513906 
L 163.031405 485.342436 
L 169.180165 483.974158 
L 175.328926 482.383008 
L 181.477686 480.54083 
L 187.626446 478.417464 
L 193.775207 475.98089 
L 199.923967 473.197435 
L 206.072727 470.03206 
L 212.221488 466.448718 
L 218.370248 462.410789 
L 224.519008 457.88161 
L 230.667769 452.825075 
L 236.816529 447.206322 
L 242.965289 440.992499 
L 249.11405 434.15359 
L 255.26281 426.663306 
L 261.41157 418.500008 
L 267.560331 409.647668 
L 273.709091 400.096824 
L 279.857851 389.845522 
L 286.006612 378.900209 
L 292.155372 367.276565 
L 298.304132 355.000224 
L 304.452893 342.107375 
L 310.601653 328.645207 
L 316.750413 314.672168 
L 322.899174 300.258027 
L 329.047934 285.483708 
L 335.196694 270.440881 
L 341.345455 255.231314 
L 347.494215 239.96596 
L 353.642975 224.763809 
L 359.791736 209.750492 
L 365.940496 195.056671 
L 372.089256 180.816232 
L 378.238017 167.164321 
L 384.386777 154.235248 
L 390.535537 142.160324 
L 396.684298 131.065653 
L 402.833058 121.069961 
L 408.981818 112.282479 
L 415.130579 104.800964 
L 421.279339 98.709891 
L 427.428099 94.078865 
L 433.57686 90.961296 
L 439.72562 89.393375 
L 445.87438 89.393375 
L 452.02314 90.961296 
L 458.171901 94.078865 
L 464.320661 98.709891 
L 470.469421 104.800964 
L 476.618182 112.282479 
L 482.766942 121.069961 
L 488.915702 131.065653 
L 495.064463 142.160324 
L 501.213223 154.235248 
L 507.361983 167.164321 
L 513.510744 180.816232 
L 519.659504 195.056671 
L 525.808264 209.750492 
L 531.957025 224.763809 
L 538.105785 239.96596 
L 544.254545 255.231314 
L 550.403306 270.440881 
L 556.552066 285.483708 
L 562.700826 300.258027 
L 568.849587 314.672168 
L 574.998347 328.645207 
L 581.147107 342.107375 
L 587.295868 355.000224 
L 593.444628 367.276565 
L 599.593388 378.900209 
L 605.742149 389.845522 
L 611.890909 400.096824 
L 618.039669 409.647668 
L 624.18843 418.500008 
L 630.33719 426.663306 
L 636.48595 434.15359 
L 642.634711 440.992499 
L 648.783471 447.206322 
L 654.932231 452.825075 
L 661.080992 457.88161 
L 667.229752 462.410789 
L 673.378512 466.448718 
L 679.527273 470.03206 
L 685.676033 473.197435 
L 691.824793 475.98089 
L 697.973554 478.417464 
L 704.122314 480.54083 
L 710.271074 482.383008 
L 716.419835 483.974158 
L 722.568595 485.342436 
L 728.717355 486.513906 
L 734.866116 487.512504 
L 741.014876 488.360046 
L 747.163636 489.076274 
" clip-path="url(#p3e54843188)" style="fill: none; stroke: #0000ff; stroke-opacity: 0.4; stroke-width: 5; stroke-linecap: square"/>
   </g>
   <g id="patch_3">
    <path d="M 108 512.64 
L 108 69.12 
" style="fill: none; stroke: #000000; stroke-width: 0.8; stroke-linejoin: miter; stroke-linecap: square"/>
   </g>
   <g id="patch_4">
    <path d="M 777.6 512.64 
L 777.6 69.12 
" style="fill: none; stroke: #000000; stroke-width: 0.8; stroke-linejoin: miter; stroke-linecap: square"/>
   </g>
   <g id="patch_5">
    <path d="M 108 512.64 
L 777.6 512.64 
" style="fill: none; stroke: #000000; stroke-width: 0.8; stroke-linejoin: miter; stroke-linecap: square"/>
   </g>
   <g id="patch_6">
    <path d="M 108 69.12 
L 777.6 69.12 
" style="fill: none; stroke: #000000; stroke-width: 0.8; stroke-linejoin: miter; stroke-linecap: square"/>
   </g>
   <g id="text_19">
    <!-- 68 % -->
    <g transform="translate(432.950785 391.391932) scale(0.18 -0.18)">
     <defs>
      <path id="DejaVuSans-36" d="M 2113 2584 
Q 1688 2584 1439 2293 
Q 1191 2003 1191 1497 
Q 1191 994 1439 701 
Q 1688 409 2113 409 
Q 2538 409 2786 701 
Q 3034 994 3034 1497 
Q 3034 2003 2786 2293 
Q 2538 2584 2113 2584 
z
M 3366 4563 
L 3366 3988 
Q 3128 4100 2886 4159 
Q 2644 4219 2406 4219 
Q 1781 4219 1451 3797 
Q 1122 3375 1075 2522 
Q 1259 2794 1537 2939 
Q 1816 3084 2150 3084 
Q 2853 3084 3261 2657 
Q 3669 2231 3669 1497 
Q 3669 778 3244 343 
Q 2819 -91 2113 -91 
Q 1303 -91 875 529 
Q 447 1150 447 2328 
Q 447 3434 972 4092 
Q 1497 4750 2381 4750 
Q 2619 4750 2861 4703 
Q 3103 4656 3366 4563 
z
" transform="scale(0.015625)"/>
      <path id="DejaVuSans-38" d="M 2034 2216 
Q 1584 2216 1326 1975 
Q 1069 1734 1069 1313 
Q 1069 891 1326 650 
Q 1584 409 2034 409 
Q 2484 409 2743 651 
Q 3003 894 3003 1313 
Q 3003 1734 2745 1975 
Q 2488 2216 2034 2216 
z
M 1403 2484 
Q 997 2584 770 2862 
Q 544 3141 544 3541 
Q 544 4100 942 4425 
Q 1341 4750 2034 4750 
Q 2731 4750 3128 4425 
Q 3525 4100 3525 3541 
Q 3525 3141 3298 2862 
Q 3072 2584 2669 2484 
Q 3125 2378 3379 2068 
Q 3634 1759 3634 1313 
Q 3634 634 3220 271 
Q 2806 -91 2034 -91 
Q 1263 -91 848 271 
Q 434 634 434 1313 
Q 434 1759 690 2068 
Q 947 2378 1403 2484 
z
M 1172 3481 
Q 1172 3119 1398 2916 
Q 1625 2713 2034 2713 
Q 2441 2713 2670 2916 
Q 2900 3119 2900 3481 
Q 2900 3844 2670 4047 
Q 2441 4250 2034 4250 
Q 1625 4250 1398 4047 
Q 1172 3844 1172 3481 
z
" transform="scale(0.015625)"/>
      <path id="DejaVuSans-20" transform="scale(0.015625)"/>
      <path id="DejaVuSans-25" d="M 4653 2053 
Q 4381 2053 4226 1822 
Q 4072 1591 4072 1178 
Q 4072 772 4226 539 
Q 4381 306 4653 306 
Q 4919 306 5073 539 
Q 5228 772 5228 1178 
Q 5228 1588 5073 1820 
Q 4919 2053 4653 2053 
z
M 4653 2450 
Q 5147 2450 5437 2106 
Q 5728 1763 5728 1178 
Q 5728 594 5436 251 
Q 5144 -91 4653 -91 
Q 4153 -91 3862 251 
Q 3572 594 3572 1178 
Q 3572 1766 3864 2108 
Q 4156 2450 4653 2450 
z
M 1428 4353 
Q 1159 4353 1004 4120 
Q 850 3888 850 3481 
Q 850 3069 1003 2837 
Q 1156 2606 1428 2606 
Q 1700 2606 1854 2837 
Q 2009 3069 2009 3481 
Q 2009 3884 1853 4118 
Q 1697 4353 1428 4353 
z
M 4250 4750 
L 4750 4750 
L 1831 -91 
L 1331 -91 
L 4250 4750 
z
M 1428 4750 
Q 1922 4750 2215 4408 
Q 2509 4066 2509 3481 
Q 2509 2891 2217 2550 
Q 1925 2209 1428 2209 
Q 931 2209 642 2551 
Q 353 2894 353 3481 
Q 353 4063 643 4406 
Q 934 4750 1428 4750 
z
" transform="scale(0.015625)"/>
     </defs>
     <use xlink:href="#DejaVuSans-36"/>
     <use xlink:href="#DejaVuSans-38" x="63.623047"/>
     <use xlink:href="#DejaVuSans-20" x="127.246094"/>
     <use xlink:href="#DejaVuSans-25" x="159.033203"/>
    </g>
   </g>
   <g id="text_20">
    <!-- 13.5 % -->
    <g transform="translate(265.514123 441.935966) scale(0.18 -0.18)">
     <use xlink:href="#DejaVuSans-31"/>
     <use xlink:href="#DejaVuSans-33" x="63.623047"/>
     <use xlink:href="#DejaVuSans-2e" x="127.246094"/>
     <use xlink:href="#DejaVuSans-35" x="159.033203"/>
     <use xlink:href="#DejaVuSans-20" x="222.65625"/>
     <use xlink:href="#DejaVuSans-25" x="254.443359"/>
    </g>
   </g>
   <g id="text_21">
    <!-- 13.5 % -->
    <g transform="translate(560.990585 441.935966) scale(0.18 -0.18)">
     <use xlink:href="#DejaVuSans-31"/>
     <use xlink:href="#DejaVuSans-33" x="63.623047"/>
     <use xlink:href="#DejaVuSans-2e" x="127.246094"/>
     <use xlink:href="#DejaVuSans-35" x="159.033203"/>
     <use xlink:href="#DejaVuSans-20" x="222.65625"/>
     <use xlink:href="#DejaVuSans-25" x="254.443359"/>
    </g>
   </g>
   <g id="text_22">
    <!-- 2.35 % -->
    <g transform="translate(186.720399 492.48) scale(0.18 -0.18)">
     <use xlink:href="#DejaVuSans-32"/>
     <use xlink:href="#DejaVuSans-2e" x="63.623047"/>
     <use xlink:href="#DejaVuSans-33" x="95.410156"/>
     <use xlink:href="#DejaVuSans-35" x="159.033203"/>
     <use xlink:href="#DejaVuSans-20" x="222.65625"/>
     <use xlink:href="#DejaVuSans-25" x="254.443359"/>
    </g>
   </g>
   <g id="text_23">
    <!-- 2.35 % -->
    <g transform="translate(641.754151 492.48) scale(0.18 -0.18)">
     <use xlink:href="#DejaVuSans-32"/>
     <use xlink:href="#DejaVuSans-2e" x="63.623047"/>
     <use xlink:href="#DejaVuSans-33" x="95.410156"/>
     <use xlink:href="#DejaVuSans-35" x="159.033203"/>
     <use xlink:href="#DejaVuSans-20" x="222.65625"/>
     <use xlink:href="#DejaVuSans-25" x="254.443359"/>
    </g>
   </g>
  </g>
 </g>
 <defs>
  <clipPath id="p3e54843188">
   <rect x="108" y="69.12" width="669.6" height="443.52"/>
  </clipPath>
 </defs>
</svg>
