<?xml version="1.0" encoding="utf-8" standalone="no"?>
<!DOCTYPE svg PUBLIC "-//W3C//DTD SVG 1.1//EN"
  "http://www.w3.org/Graphics/SVG/1.1/DTD/svg11.dtd">
<svg xmlns:xlink="http://www.w3.org/1999/xlink" width="1584pt" height="1296pt" viewBox="0 0 1584 1296" xmlns="http://www.w3.org/2000/svg" version="1.1">
 <metadata>
  <rdf:RDF xmlns:dc="http://purl.org/dc/elements/1.1/" xmlns:cc="http://creativecommons.org/ns#" xmlns:rdf="http://www.w3.org/1999/02/22-rdf-syntax-ns#">
   <cc:Work>
    <dc:type rdf:resource="http://purl.org/dc/dcmitype/StillImage"/>
    <dc:date>2024-02-06T14:25:54.794569</dc:date>
    <dc:format>image/svg+xml</dc:format>
    <dc:creator>
     <cc:Agent>
      <dc:title>Matplotlib v3.7.1, https://matplotlib.org/</dc:title>
     </cc:Agent>
    </dc:creator>
   </cc:Work>
  </rdf:RDF>
 </metadata>
 <defs>
  <style type="text/css">*{stroke-linejoin: round; stroke-linecap: butt}</style>
 </defs>
 <g id="figure_1">
  <g id="patch_1">
   <path d="M 0 1296 
L 1584 1296 
L 1584 0 
L 0 0 
z
" style="fill: #ffffff"/>
  </g>
  <g id="axes_1">
   <g id="patch_2">
    <path d="M 198 449.025882 
L 559.058824 449.025882 
L 559.058824 155.52 
L 198 155.52 
z
" style="fill: #ffffff"/>
   </g>
   <g id="patch_3">
    <path d="M 215.043271 449.025882 
L 215.043271 262.672941 
L 231.398896 262.672941 
L 231.398896 224.555294 
L 247.754521 224.555294 
L 247.754521 258.437647 
L 264.110146 258.437647 
L 264.110146 216.084706 
L 280.465772 216.084706 
L 280.465772 199.143529 
L 296.821397 199.143529 
L 296.821397 211.849412 
L 313.177022 211.849412 
L 313.177022 216.084706 
L 329.532647 216.084706 
L 329.532647 237.261176 
L 345.888273 237.261176 
L 345.888273 169.496471 
L 362.243898 169.496471 
L 362.243898 228.790588 
L 378.599523 228.790588 
L 378.599523 207.614118 
L 394.955149 207.614118 
L 394.955149 254.202353 
L 411.310774 254.202353 
L 411.310774 241.496471 
L 427.666399 241.496471 
L 427.666399 275.378824 
L 444.022024 275.378824 
L 444.022024 245.731765 
L 460.37765 245.731765 
L 460.37765 317.731765 
L 476.733275 317.731765 
L 476.733275 262.672941 
L 493.0889 262.672941 
L 493.0889 266.908235 
L 509.444526 266.908235 
L 509.444526 203.378824 
L 525.800151 203.378824 
L 525.800151 245.731765 
L 542.155776 245.731765 
L 542.155776 449.025882 
L 525.800151 449.025882 
L 525.800151 449.025882 
L 509.444526 449.025882 
L 509.444526 449.025882 
L 493.0889 449.025882 
L 493.0889 449.025882 
L 476.733275 449.025882 
L 476.733275 449.025882 
L 460.37765 449.025882 
L 460.37765 449.025882 
L 444.022024 449.025882 
L 444.022024 449.025882 
L 427.666399 449.025882 
L 427.666399 449.025882 
L 411.310774 449.025882 
L 411.310774 449.025882 
L 394.955149 449.025882 
L 394.955149 449.025882 
L 378.599523 449.025882 
L 378.599523 449.025882 
L 362.243898 449.025882 
L 362.243898 449.025882 
L 345.888273 449.025882 
L 345.888273 449.025882 
L 329.532647 449.025882 
L 329.532647 449.025882 
L 313.177022 449.025882 
L 313.177022 449.025882 
L 296.821397 449.025882 
L 296.821397 449.025882 
L 280.465772 449.025882 
L 280.465772 449.025882 
L 264.110146 449.025882 
L 264.110146 449.025882 
L 247.754521 449.025882 
L 247.754521 449.025882 
L 231.398896 449.025882 
L 231.398896 449.025882 
z
" clip-path="url(#p8d2e18e09d)" style="fill: #c0c0c0; opacity: 0.5"/>
   </g>
   <g id="matplotlib.axis_1">
    <g id="xtick_1">
     <g id="line2d_1">
      <defs>
       <path id="m5b0a3932da" d="M 0 0 
L 0 3.5 
" style="stroke: #000000; stroke-width: 0.8"/>
      </defs>
      <g>
       <use xlink:href="#m5b0a3932da" x="264.825371" y="449.025882" style="stroke: #000000; stroke-width: 0.8"/>
      </g>
     </g>
     <g id="text_1">
      <!-- 1.5 -->
      <g transform="translate(248.922246 471.222757) scale(0.2 -0.2)">
       <defs>
        <path id="DejaVuSans-31" d="M 794 531 
L 1825 531 
L 1825 4091 
L 703 3866 
L 703 4441 
L 1819 4666 
L 2450 4666 
L 2450 531 
L 3481 531 
L 3481 0 
L 794 0 
L 794 531 
z
" transform="scale(0.015625)"/>
        <path id="DejaVuSans-2e" d="M 684 794 
L 1344 794 
L 1344 0 
L 684 0 
L 684 794 
z
" transform="scale(0.015625)"/>
        <path id="DejaVuSans-35" d="M 691 4666 
L 3169 4666 
L 3169 4134 
L 1269 4134 
L 1269 2991 
Q 1406 3038 1543 3061 
Q 1681 3084 1819 3084 
Q 2600 3084 3056 2656 
Q 3513 2228 3513 1497 
Q 3513 744 3044 326 
Q 2575 -91 1722 -91 
Q 1428 -91 1123 -41 
Q 819 9 494 109 
L 494 744 
Q 775 591 1075 516 
Q 1375 441 1709 441 
Q 2250 441 2565 725 
Q 2881 1009 2881 1497 
Q 2881 1984 2565 2268 
Q 2250 2553 1709 2553 
Q 1456 2553 1204 2497 
Q 953 2441 691 2322 
L 691 4666 
z
" transform="scale(0.015625)"/>
       </defs>
       <use xlink:href="#DejaVuSans-31"/>
       <use xlink:href="#DejaVuSans-2e" x="63.623047"/>
       <use xlink:href="#DejaVuSans-35" x="95.410156"/>
      </g>
     </g>
    </g>
    <g id="xtick_2">
     <g id="line2d_2">
      <g>
       <use xlink:href="#m5b0a3932da" x="359.578738" y="449.025882" style="stroke: #000000; stroke-width: 0.8"/>
      </g>
     </g>
     <g id="text_2">
      <!-- 2.0 -->
      <g transform="translate(343.675613 471.222757) scale(0.2 -0.2)">
       <defs>
        <path id="DejaVuSans-32" d="M 1228 531 
L 3431 531 
L 3431 0 
L 469 0 
L 469 531 
Q 828 903 1448 1529 
Q 2069 2156 2228 2338 
Q 2531 2678 2651 2914 
Q 2772 3150 2772 3378 
Q 2772 3750 2511 3984 
Q 2250 4219 1831 4219 
Q 1534 4219 1204 4116 
Q 875 4013 500 3803 
L 500 4441 
Q 881 4594 1212 4672 
Q 1544 4750 1819 4750 
Q 2544 4750 2975 4387 
Q 3406 4025 3406 3419 
Q 3406 3131 3298 2873 
Q 3191 2616 2906 2266 
Q 2828 2175 2409 1742 
Q 1991 1309 1228 531 
z
" transform="scale(0.015625)"/>
        <path id="DejaVuSans-30" d="M 2034 4250 
Q 1547 4250 1301 3770 
Q 1056 3291 1056 2328 
Q 1056 1369 1301 889 
Q 1547 409 2034 409 
Q 2525 409 2770 889 
Q 3016 1369 3016 2328 
Q 3016 3291 2770 3770 
Q 2525 4250 2034 4250 
z
M 2034 4750 
Q 2819 4750 3233 4129 
Q 3647 3509 3647 2328 
Q 3647 1150 3233 529 
Q 2819 -91 2034 -91 
Q 1250 -91 836 529 
Q 422 1150 422 2328 
Q 422 3509 836 4129 
Q 1250 4750 2034 4750 
z
" transform="scale(0.015625)"/>
       </defs>
       <use xlink:href="#DejaVuSans-32"/>
       <use xlink:href="#DejaVuSans-2e" x="63.623047"/>
       <use xlink:href="#DejaVuSans-30" x="95.410156"/>
      </g>
     </g>
    </g>
    <g id="xtick_3">
     <g id="line2d_3">
      <g>
       <use xlink:href="#m5b0a3932da" x="454.332106" y="449.025882" style="stroke: #000000; stroke-width: 0.8"/>
      </g>
     </g>
     <g id="text_3">
      <!-- 2.5 -->
      <g transform="translate(438.428981 471.222757) scale(0.2 -0.2)">
       <use xlink:href="#DejaVuSans-32"/>
       <use xlink:href="#DejaVuSans-2e" x="63.623047"/>
       <use xlink:href="#DejaVuSans-35" x="95.410156"/>
      </g>
     </g>
    </g>
    <g id="xtick_4">
     <g id="line2d_4">
      <g>
       <use xlink:href="#m5b0a3932da" x="549.085474" y="449.025882" style="stroke: #000000; stroke-width: 0.8"/>
      </g>
     </g>
     <g id="text_4">
      <!-- 3.0 -->
      <g transform="translate(533.182349 471.222757) scale(0.2 -0.2)">
       <defs>
        <path id="DejaVuSans-33" d="M 2597 2516 
Q 3050 2419 3304 2112 
Q 3559 1806 3559 1356 
Q 3559 666 3084 287 
Q 2609 -91 1734 -91 
Q 1441 -91 1130 -33 
Q 819 25 488 141 
L 488 750 
Q 750 597 1062 519 
Q 1375 441 1716 441 
Q 2309 441 2620 675 
Q 2931 909 2931 1356 
Q 2931 1769 2642 2001 
Q 2353 2234 1838 2234 
L 1294 2234 
L 1294 2753 
L 1863 2753 
Q 2328 2753 2575 2939 
Q 2822 3125 2822 3475 
Q 2822 3834 2567 4026 
Q 2313 4219 1838 4219 
Q 1578 4219 1281 4162 
Q 984 4106 628 3988 
L 628 4550 
Q 988 4650 1302 4700 
Q 1616 4750 1894 4750 
Q 2613 4750 3031 4423 
Q 3450 4097 3450 3541 
Q 3450 3153 3228 2886 
Q 3006 2619 2597 2516 
z
" transform="scale(0.015625)"/>
       </defs>
       <use xlink:href="#DejaVuSans-33"/>
       <use xlink:href="#DejaVuSans-2e" x="63.623047"/>
       <use xlink:href="#DejaVuSans-30" x="95.410156"/>
      </g>
     </g>
    </g>
    <g id="text_5">
     <!-- $x$ -->
     <g transform="translate(372.529412 494.579007) scale(0.2 -0.2)">
      <defs>
       <path id="DejaVuSans-Oblique-78" d="M 3841 3500 
L 2234 1784 
L 3219 0 
L 2559 0 
L 1819 1388 
L 531 0 
L -166 0 
L 1556 1844 
L 641 3500 
L 1300 3500 
L 1972 2234 
L 3144 3500 
L 3841 3500 
z
" transform="scale(0.015625)"/>
      </defs>
      <use xlink:href="#DejaVuSans-Oblique-78" transform="translate(0 0.3125)"/>
     </g>
    </g>
   </g>
   <g id="matplotlib.axis_2">
    <g id="ytick_1">
     <g id="line2d_5">
      <defs>
       <path id="mc829decb60" d="M 0 0 
L -3.5 0 
" style="stroke: #000000; stroke-width: 0.8"/>
      </defs>
      <g>
       <use xlink:href="#mc829decb60" x="198" y="449.025882" style="stroke: #000000; stroke-width: 0.8"/>
      </g>
     </g>
     <g id="text_6">
      <!-- 0 -->
      <g transform="translate(178.275 456.62432) scale(0.2 -0.2)">
       <use xlink:href="#DejaVuSans-30"/>
      </g>
     </g>
    </g>
    <g id="ytick_2">
     <g id="line2d_6">
      <g>
       <use xlink:href="#mc829decb60" x="198" y="406.672941" style="stroke: #000000; stroke-width: 0.8"/>
      </g>
     </g>
     <g id="text_7">
      <!-- 10 -->
      <g transform="translate(165.55 414.271379) scale(0.2 -0.2)">
       <use xlink:href="#DejaVuSans-31"/>
       <use xlink:href="#DejaVuSans-30" x="63.623047"/>
      </g>
     </g>
    </g>
    <g id="ytick_3">
     <g id="line2d_7">
      <g>
       <use xlink:href="#mc829decb60" x="198" y="364.32" style="stroke: #000000; stroke-width: 0.8"/>
      </g>
     </g>
     <g id="text_8">
      <!-- 20 -->
      <g transform="translate(165.55 371.918437) scale(0.2 -0.2)">
       <use xlink:href="#DejaVuSans-32"/>
       <use xlink:href="#DejaVuSans-30" x="63.623047"/>
      </g>
     </g>
    </g>
    <g id="ytick_4">
     <g id="line2d_8">
      <g>
       <use xlink:href="#mc829decb60" x="198" y="321.967059" style="stroke: #000000; stroke-width: 0.8"/>
      </g>
     </g>
     <g id="text_9">
      <!-- 30 -->
      <g transform="translate(165.55 329.565496) scale(0.2 -0.2)">
       <use xlink:href="#DejaVuSans-33"/>
       <use xlink:href="#DejaVuSans-30" x="63.623047"/>
      </g>
     </g>
    </g>
    <g id="ytick_5">
     <g id="line2d_9">
      <g>
       <use xlink:href="#mc829decb60" x="198" y="279.614118" style="stroke: #000000; stroke-width: 0.8"/>
      </g>
     </g>
     <g id="text_10">
      <!-- 40 -->
      <g transform="translate(165.55 287.212555) scale(0.2 -0.2)">
       <defs>
        <path id="DejaVuSans-34" d="M 2419 4116 
L 825 1625 
L 2419 1625 
L 2419 4116 
z
M 2253 4666 
L 3047 4666 
L 3047 1625 
L 3713 1625 
L 3713 1100 
L 3047 1100 
L 3047 0 
L 2419 0 
L 2419 1100 
L 313 1100 
L 313 1709 
L 2253 4666 
z
" transform="scale(0.015625)"/>
       </defs>
       <use xlink:href="#DejaVuSans-34"/>
       <use xlink:href="#DejaVuSans-30" x="63.623047"/>
      </g>
     </g>
    </g>
    <g id="ytick_6">
     <g id="line2d_10">
      <g>
       <use xlink:href="#mc829decb60" x="198" y="237.261176" style="stroke: #000000; stroke-width: 0.8"/>
      </g>
     </g>
     <g id="text_11">
      <!-- 50 -->
      <g transform="translate(165.55 244.859614) scale(0.2 -0.2)">
       <use xlink:href="#DejaVuSans-35"/>
       <use xlink:href="#DejaVuSans-30" x="63.623047"/>
      </g>
     </g>
    </g>
    <g id="ytick_7">
     <g id="line2d_11">
      <g>
       <use xlink:href="#mc829decb60" x="198" y="194.908235" style="stroke: #000000; stroke-width: 0.8"/>
      </g>
     </g>
     <g id="text_12">
      <!-- 60 -->
      <g transform="translate(165.55 202.506673) scale(0.2 -0.2)">
       <defs>
        <path id="DejaVuSans-36" d="M 2113 2584 
Q 1688 2584 1439 2293 
Q 1191 2003 1191 1497 
Q 1191 994 1439 701 
Q 1688 409 2113 409 
Q 2538 409 2786 701 
Q 3034 994 3034 1497 
Q 3034 2003 2786 2293 
Q 2538 2584 2113 2584 
z
M 3366 4563 
L 3366 3988 
Q 3128 4100 2886 4159 
Q 2644 4219 2406 4219 
Q 1781 4219 1451 3797 
Q 1122 3375 1075 2522 
Q 1259 2794 1537 2939 
Q 1816 3084 2150 3084 
Q 2853 3084 3261 2657 
Q 3669 2231 3669 1497 
Q 3669 778 3244 343 
Q 2819 -91 2113 -91 
Q 1303 -91 875 529 
Q 447 1150 447 2328 
Q 447 3434 972 4092 
Q 1497 4750 2381 4750 
Q 2619 4750 2861 4703 
Q 3103 4656 3366 4563 
z
" transform="scale(0.015625)"/>
       </defs>
       <use xlink:href="#DejaVuSans-36"/>
       <use xlink:href="#DejaVuSans-30" x="63.623047"/>
      </g>
     </g>
    </g>
    <g id="text_13">
     <!-- Ocurrencia -->
     <g transform="translate(157.390625 356.697941) rotate(-90) scale(0.2 -0.2)">
      <defs>
       <path id="DejaVuSans-4f" d="M 2522 4238 
Q 1834 4238 1429 3725 
Q 1025 3213 1025 2328 
Q 1025 1447 1429 934 
Q 1834 422 2522 422 
Q 3209 422 3611 934 
Q 4013 1447 4013 2328 
Q 4013 3213 3611 3725 
Q 3209 4238 2522 4238 
z
M 2522 4750 
Q 3503 4750 4090 4092 
Q 4678 3434 4678 2328 
Q 4678 1225 4090 567 
Q 3503 -91 2522 -91 
Q 1538 -91 948 565 
Q 359 1222 359 2328 
Q 359 3434 948 4092 
Q 1538 4750 2522 4750 
z
" transform="scale(0.015625)"/>
       <path id="DejaVuSans-63" d="M 3122 3366 
L 3122 2828 
Q 2878 2963 2633 3030 
Q 2388 3097 2138 3097 
Q 1578 3097 1268 2742 
Q 959 2388 959 1747 
Q 959 1106 1268 751 
Q 1578 397 2138 397 
Q 2388 397 2633 464 
Q 2878 531 3122 666 
L 3122 134 
Q 2881 22 2623 -34 
Q 2366 -91 2075 -91 
Q 1284 -91 818 406 
Q 353 903 353 1747 
Q 353 2603 823 3093 
Q 1294 3584 2113 3584 
Q 2378 3584 2631 3529 
Q 2884 3475 3122 3366 
z
" transform="scale(0.015625)"/>
       <path id="DejaVuSans-75" d="M 544 1381 
L 544 3500 
L 1119 3500 
L 1119 1403 
Q 1119 906 1312 657 
Q 1506 409 1894 409 
Q 2359 409 2629 706 
Q 2900 1003 2900 1516 
L 2900 3500 
L 3475 3500 
L 3475 0 
L 2900 0 
L 2900 538 
Q 2691 219 2414 64 
Q 2138 -91 1772 -91 
Q 1169 -91 856 284 
Q 544 659 544 1381 
z
M 1991 3584 
L 1991 3584 
z
" transform="scale(0.015625)"/>
       <path id="DejaVuSans-72" d="M 2631 2963 
Q 2534 3019 2420 3045 
Q 2306 3072 2169 3072 
Q 1681 3072 1420 2755 
Q 1159 2438 1159 1844 
L 1159 0 
L 581 0 
L 581 3500 
L 1159 3500 
L 1159 2956 
Q 1341 3275 1631 3429 
Q 1922 3584 2338 3584 
Q 2397 3584 2469 3576 
Q 2541 3569 2628 3553 
L 2631 2963 
z
" transform="scale(0.015625)"/>
       <path id="DejaVuSans-65" d="M 3597 1894 
L 3597 1613 
L 953 1613 
Q 991 1019 1311 708 
Q 1631 397 2203 397 
Q 2534 397 2845 478 
Q 3156 559 3463 722 
L 3463 178 
Q 3153 47 2828 -22 
Q 2503 -91 2169 -91 
Q 1331 -91 842 396 
Q 353 884 353 1716 
Q 353 2575 817 3079 
Q 1281 3584 2069 3584 
Q 2775 3584 3186 3129 
Q 3597 2675 3597 1894 
z
M 3022 2063 
Q 3016 2534 2758 2815 
Q 2500 3097 2075 3097 
Q 1594 3097 1305 2825 
Q 1016 2553 972 2059 
L 3022 2063 
z
" transform="scale(0.015625)"/>
       <path id="DejaVuSans-6e" d="M 3513 2113 
L 3513 0 
L 2938 0 
L 2938 2094 
Q 2938 2591 2744 2837 
Q 2550 3084 2163 3084 
Q 1697 3084 1428 2787 
Q 1159 2491 1159 1978 
L 1159 0 
L 581 0 
L 581 3500 
L 1159 3500 
L 1159 2956 
Q 1366 3272 1645 3428 
Q 1925 3584 2291 3584 
Q 2894 3584 3203 3211 
Q 3513 2838 3513 2113 
z
" transform="scale(0.015625)"/>
       <path id="DejaVuSans-69" d="M 603 3500 
L 1178 3500 
L 1178 0 
L 603 0 
L 603 3500 
z
M 603 4863 
L 1178 4863 
L 1178 4134 
L 603 4134 
L 603 4863 
z
" transform="scale(0.015625)"/>
       <path id="DejaVuSans-61" d="M 2194 1759 
Q 1497 1759 1228 1600 
Q 959 1441 959 1056 
Q 959 750 1161 570 
Q 1363 391 1709 391 
Q 2188 391 2477 730 
Q 2766 1069 2766 1631 
L 2766 1759 
L 2194 1759 
z
M 3341 1997 
L 3341 0 
L 2766 0 
L 2766 531 
Q 2569 213 2275 61 
Q 1981 -91 1556 -91 
Q 1019 -91 701 211 
Q 384 513 384 1019 
Q 384 1609 779 1909 
Q 1175 2209 1959 2209 
L 2766 2209 
L 2766 2266 
Q 2766 2663 2505 2880 
Q 2244 3097 1772 3097 
Q 1472 3097 1187 3025 
Q 903 2953 641 2809 
L 641 3341 
Q 956 3463 1253 3523 
Q 1550 3584 1831 3584 
Q 2591 3584 2966 3190 
Q 3341 2797 3341 1997 
z
" transform="scale(0.015625)"/>
      </defs>
      <use xlink:href="#DejaVuSans-4f"/>
      <use xlink:href="#DejaVuSans-63" x="78.710938"/>
      <use xlink:href="#DejaVuSans-75" x="133.691406"/>
      <use xlink:href="#DejaVuSans-72" x="197.070312"/>
      <use xlink:href="#DejaVuSans-72" x="236.433594"/>
      <use xlink:href="#DejaVuSans-65" x="275.296875"/>
      <use xlink:href="#DejaVuSans-6e" x="336.820312"/>
      <use xlink:href="#DejaVuSans-63" x="400.199219"/>
      <use xlink:href="#DejaVuSans-69" x="455.179688"/>
      <use xlink:href="#DejaVuSans-61" x="482.962891"/>
     </g>
    </g>
   </g>
   <g id="line2d_12">
    <path d="M 214.411765 237.261176 
L 231.687307 237.261176 
L 248.962848 237.261176 
L 266.23839 237.261176 
L 283.513932 237.261176 
L 300.789474 237.261176 
L 318.065015 237.261176 
L 335.340557 237.261176 
L 352.616099 237.261176 
L 369.891641 237.261176 
L 387.167183 237.261176 
L 404.442724 237.261176 
L 421.718266 237.261176 
L 438.993808 237.261176 
L 456.26935 237.261176 
L 473.544892 237.261176 
L 490.820433 237.261176 
L 508.095975 237.261176 
L 525.371517 237.261176 
L 542.647059 237.261176 
" clip-path="url(#p8d2e18e09d)" style="fill: none; stroke: #ff0000; stroke-width: 1.5; stroke-linecap: square"/>
   </g>
   <g id="patch_4">
    <path d="M 198 449.025882 
L 198 155.52 
" style="fill: none; stroke: #000000; stroke-width: 0.8; stroke-linejoin: miter; stroke-linecap: square"/>
   </g>
   <g id="patch_5">
    <path d="M 559.058824 449.025882 
L 559.058824 155.52 
" style="fill: none; stroke: #000000; stroke-width: 0.8; stroke-linejoin: miter; stroke-linecap: square"/>
   </g>
   <g id="patch_6">
    <path d="M 198 449.025882 
L 559.058824 449.025882 
" style="fill: none; stroke: #000000; stroke-width: 0.8; stroke-linejoin: miter; stroke-linecap: square"/>
   </g>
   <g id="patch_7">
    <path d="M 198 155.52 
L 559.058824 155.52 
" style="fill: none; stroke: #000000; stroke-width: 0.8; stroke-linejoin: miter; stroke-linecap: square"/>
   </g>
  </g>
  <g id="axes_2">
   <g id="patch_8">
    <path d="M 631.270588 449.025882 
L 992.329412 449.025882 
L 992.329412 155.52 
L 631.270588 155.52 
z
" style="fill: #ffffff"/>
   </g>
   <g id="patch_9">
    <path d="M 647.682353 449.025882 
L 647.682353 449.025882 
L 664.957895 449.025882 
L 664.957895 449.025882 
L 682.233437 449.025882 
L 682.233437 447.300392 
L 699.508978 447.300392 
L 699.508978 431.77098 
L 716.78452 431.77098 
L 716.78452 423.143529 
L 734.060062 423.143529 
L 734.060062 345.496471 
L 751.335604 345.496471 
L 751.335604 302.359216 
L 768.611146 302.359216 
L 768.611146 267.849412 
L 785.886687 267.849412 
L 785.886687 185.025882 
L 803.162229 185.025882 
L 803.162229 197.104314 
L 820.437771 197.104314 
L 820.437771 169.496471 
L 837.713313 169.496471 
L 837.713313 233.339608 
L 854.988854 233.339608 
L 854.988854 324.790588 
L 872.264396 324.790588 
L 872.264396 371.378824 
L 889.539938 371.378824 
L 889.539938 426.59451 
L 906.81548 426.59451 
L 906.81548 438.672941 
L 924.091022 438.672941 
L 924.091022 445.574902 
L 941.366563 445.574902 
L 941.366563 449.025882 
L 958.642105 449.025882 
L 958.642105 449.025882 
L 975.917647 449.025882 
L 975.917647 449.025882 
L 958.642105 449.025882 
L 958.642105 449.025882 
L 941.366563 449.025882 
L 941.366563 449.025882 
L 924.091022 449.025882 
L 924.091022 449.025882 
L 906.81548 449.025882 
L 906.81548 449.025882 
L 889.539938 449.025882 
L 889.539938 449.025882 
L 872.264396 449.025882 
L 872.264396 449.025882 
L 854.988854 449.025882 
L 854.988854 449.025882 
L 837.713313 449.025882 
L 837.713313 449.025882 
L 820.437771 449.025882 
L 820.437771 449.025882 
L 803.162229 449.025882 
L 803.162229 449.025882 
L 785.886687 449.025882 
L 785.886687 449.025882 
L 768.611146 449.025882 
L 768.611146 449.025882 
L 751.335604 449.025882 
L 751.335604 449.025882 
L 734.060062 449.025882 
L 734.060062 449.025882 
L 716.78452 449.025882 
L 716.78452 449.025882 
L 699.508978 449.025882 
L 699.508978 449.025882 
L 682.233437 449.025882 
L 682.233437 449.025882 
L 664.957895 449.025882 
L 664.957895 449.025882 
z
" clip-path="url(#p39e44986ef)" style="fill: #c0c0c0; opacity: 0.5"/>
   </g>
   <g id="matplotlib.axis_3">
    <g id="xtick_5">
     <g id="line2d_13">
      <g>
       <use xlink:href="#m5b0a3932da" x="698.095959" y="449.025882" style="stroke: #000000; stroke-width: 0.8"/>
      </g>
     </g>
     <g id="text_14">
      <!-- 1.5 -->
      <g transform="translate(682.192834 471.222757) scale(0.2 -0.2)">
       <use xlink:href="#DejaVuSans-31"/>
       <use xlink:href="#DejaVuSans-2e" x="63.623047"/>
       <use xlink:href="#DejaVuSans-35" x="95.410156"/>
      </g>
     </g>
    </g>
    <g id="xtick_6">
     <g id="line2d_14">
      <g>
       <use xlink:href="#m5b0a3932da" x="792.849326" y="449.025882" style="stroke: #000000; stroke-width: 0.8"/>
      </g>
     </g>
     <g id="text_15">
      <!-- 2.0 -->
      <g transform="translate(776.946201 471.222757) scale(0.2 -0.2)">
       <use xlink:href="#DejaVuSans-32"/>
       <use xlink:href="#DejaVuSans-2e" x="63.623047"/>
       <use xlink:href="#DejaVuSans-30" x="95.410156"/>
      </g>
     </g>
    </g>
    <g id="xtick_7">
     <g id="line2d_15">
      <g>
       <use xlink:href="#m5b0a3932da" x="887.602694" y="449.025882" style="stroke: #000000; stroke-width: 0.8"/>
      </g>
     </g>
     <g id="text_16">
      <!-- 2.5 -->
      <g transform="translate(871.699569 471.222757) scale(0.2 -0.2)">
       <use xlink:href="#DejaVuSans-32"/>
       <use xlink:href="#DejaVuSans-2e" x="63.623047"/>
       <use xlink:href="#DejaVuSans-35" x="95.410156"/>
      </g>
     </g>
    </g>
    <g id="xtick_8">
     <g id="line2d_16">
      <g>
       <use xlink:href="#m5b0a3932da" x="982.356062" y="449.025882" style="stroke: #000000; stroke-width: 0.8"/>
      </g>
     </g>
     <g id="text_17">
      <!-- 3.0 -->
      <g transform="translate(966.452937 471.222757) scale(0.2 -0.2)">
       <use xlink:href="#DejaVuSans-33"/>
       <use xlink:href="#DejaVuSans-2e" x="63.623047"/>
       <use xlink:href="#DejaVuSans-30" x="95.410156"/>
      </g>
     </g>
    </g>
    <g id="text_18">
     <!-- $x$ -->
     <g transform="translate(805.8 494.579007) scale(0.2 -0.2)">
      <use xlink:href="#DejaVuSans-Oblique-78" transform="translate(0 0.3125)"/>
     </g>
    </g>
   </g>
   <g id="matplotlib.axis_4">
    <g id="ytick_8">
     <g id="line2d_17">
      <g>
       <use xlink:href="#mc829decb60" x="631.270588" y="449.025882" style="stroke: #000000; stroke-width: 0.8"/>
      </g>
     </g>
     <g id="text_19">
      <!-- 0 -->
      <g transform="translate(611.545588 456.62432) scale(0.2 -0.2)">
       <use xlink:href="#DejaVuSans-30"/>
      </g>
     </g>
    </g>
    <g id="ytick_9">
     <g id="line2d_18">
      <g>
       <use xlink:href="#mc829decb60" x="631.270588" y="405.888627" style="stroke: #000000; stroke-width: 0.8"/>
      </g>
     </g>
     <g id="text_20">
      <!-- 25 -->
      <g transform="translate(598.820588 413.487065) scale(0.2 -0.2)">
       <use xlink:href="#DejaVuSans-32"/>
       <use xlink:href="#DejaVuSans-35" x="63.623047"/>
      </g>
     </g>
    </g>
    <g id="ytick_10">
     <g id="line2d_19">
      <g>
       <use xlink:href="#mc829decb60" x="631.270588" y="362.751373" style="stroke: #000000; stroke-width: 0.8"/>
      </g>
     </g>
     <g id="text_21">
      <!-- 50 -->
      <g transform="translate(598.820588 370.34981) scale(0.2 -0.2)">
       <use xlink:href="#DejaVuSans-35"/>
       <use xlink:href="#DejaVuSans-30" x="63.623047"/>
      </g>
     </g>
    </g>
    <g id="ytick_11">
     <g id="line2d_20">
      <g>
       <use xlink:href="#mc829decb60" x="631.270588" y="319.614118" style="stroke: #000000; stroke-width: 0.8"/>
      </g>
     </g>
     <g id="text_22">
      <!-- 75 -->
      <g transform="translate(598.820588 327.212555) scale(0.2 -0.2)">
       <defs>
        <path id="DejaVuSans-37" d="M 525 4666 
L 3525 4666 
L 3525 4397 
L 1831 0 
L 1172 0 
L 2766 4134 
L 525 4134 
L 525 4666 
z
" transform="scale(0.015625)"/>
       </defs>
       <use xlink:href="#DejaVuSans-37"/>
       <use xlink:href="#DejaVuSans-35" x="63.623047"/>
      </g>
     </g>
    </g>
    <g id="ytick_12">
     <g id="line2d_21">
      <g>
       <use xlink:href="#mc829decb60" x="631.270588" y="276.476863" style="stroke: #000000; stroke-width: 0.8"/>
      </g>
     </g>
     <g id="text_23">
      <!-- 100 -->
      <g transform="translate(586.095588 284.0753) scale(0.2 -0.2)">
       <use xlink:href="#DejaVuSans-31"/>
       <use xlink:href="#DejaVuSans-30" x="63.623047"/>
       <use xlink:href="#DejaVuSans-30" x="127.246094"/>
      </g>
     </g>
    </g>
    <g id="ytick_13">
     <g id="line2d_22">
      <g>
       <use xlink:href="#mc829decb60" x="631.270588" y="233.339608" style="stroke: #000000; stroke-width: 0.8"/>
      </g>
     </g>
     <g id="text_24">
      <!-- 125 -->
      <g transform="translate(586.095588 240.938045) scale(0.2 -0.2)">
       <use xlink:href="#DejaVuSans-31"/>
       <use xlink:href="#DejaVuSans-32" x="63.623047"/>
       <use xlink:href="#DejaVuSans-35" x="127.246094"/>
      </g>
     </g>
    </g>
    <g id="ytick_14">
     <g id="line2d_23">
      <g>
       <use xlink:href="#mc829decb60" x="631.270588" y="190.202353" style="stroke: #000000; stroke-width: 0.8"/>
      </g>
     </g>
     <g id="text_25">
      <!-- 150 -->
      <g transform="translate(586.095588 197.80079) scale(0.2 -0.2)">
       <use xlink:href="#DejaVuSans-31"/>
       <use xlink:href="#DejaVuSans-35" x="63.623047"/>
       <use xlink:href="#DejaVuSans-30" x="127.246094"/>
      </g>
     </g>
    </g>
    <g id="text_26">
     <!-- Ocurrencia -->
     <g transform="translate(577.936213 356.697941) rotate(-90) scale(0.2 -0.2)">
      <use xlink:href="#DejaVuSans-4f"/>
      <use xlink:href="#DejaVuSans-63" x="78.710938"/>
      <use xlink:href="#DejaVuSans-75" x="133.691406"/>
      <use xlink:href="#DejaVuSans-72" x="197.070312"/>
      <use xlink:href="#DejaVuSans-72" x="236.433594"/>
      <use xlink:href="#DejaVuSans-65" x="275.296875"/>
      <use xlink:href="#DejaVuSans-6e" x="336.820312"/>
      <use xlink:href="#DejaVuSans-63" x="400.199219"/>
      <use xlink:href="#DejaVuSans-69" x="455.179688"/>
      <use xlink:href="#DejaVuSans-61" x="482.962891"/>
     </g>
    </g>
   </g>
   <g id="line2d_24">
    <path d="M 647.682353 448.852766 
L 653.245663 448.741895 
L 658.808973 448.56798 
L 664.372283 448.300175 
L 669.935593 447.895398 
L 675.498903 447.294943 
L 681.062213 446.420848 
L 686.625523 445.172346 
L 692.188833 443.422894 
L 697.752144 441.018431 
L 703.315454 437.777677 
L 708.878764 433.495346 
L 714.442074 427.949114 
L 720.005384 420.911025 
L 725.568694 412.163614 
L 731.132004 401.520529 
L 736.695314 388.850708 
L 742.258624 374.104379 
L 747.821934 357.338427 
L 753.385244 338.738031 
L 758.948554 318.63124 
L 764.511864 297.493263 
L 770.075174 275.937934 
L 775.638485 254.69499 
L 781.201795 234.573352 
L 786.765105 216.412433 
L 792.328415 201.025254 
L 797.891725 189.138582 
L 803.455035 181.33619 
L 809.018345 178.011366 
L 814.581655 179.334061 
L 820.144965 185.236499 
L 825.708275 195.418925 
L 831.271585 209.374836 
L 836.834895 226.432724 
L 842.398205 245.80955 
L 847.961515 266.670023 
L 853.524826 288.185481 
L 859.088136 309.58668 
L 864.651446 330.206046 
L 870.214756 349.50658 
L 875.778066 367.096438 
L 881.341376 382.72993 
L 886.904686 396.297029 
L 892.467996 407.804366 
L 898.031306 417.35108 
L 903.594616 425.102743 
L 909.157926 431.266136 
L 914.721236 436.066937 
L 920.284546 439.731579 
L 925.847856 442.473815 
L 931.411167 444.485899 
L 936.974477 445.933848 
L 942.537787 446.955985 
L 948.101097 447.663912 
L 953.664407 448.145035 
L 959.227717 448.465934 
L 964.791027 448.67601 
L 970.354337 448.811007 
L 975.917647 448.896172 
" clip-path="url(#p39e44986ef)" style="fill: none; stroke: #ff0000; stroke-width: 1.5; stroke-linecap: square"/>
   </g>
   <g id="patch_10">
    <path d="M 631.270588 449.025882 
L 631.270588 155.52 
" style="fill: none; stroke: #000000; stroke-width: 0.8; stroke-linejoin: miter; stroke-linecap: square"/>
   </g>
   <g id="patch_11">
    <path d="M 992.329412 449.025882 
L 992.329412 155.52 
" style="fill: none; stroke: #000000; stroke-width: 0.8; stroke-linejoin: miter; stroke-linecap: square"/>
   </g>
   <g id="patch_12">
    <path d="M 631.270588 449.025882 
L 992.329412 449.025882 
" style="fill: none; stroke: #000000; stroke-width: 0.8; stroke-linejoin: miter; stroke-linecap: square"/>
   </g>
   <g id="patch_13">
    <path d="M 631.270588 155.52 
L 992.329412 155.52 
" style="fill: none; stroke: #000000; stroke-width: 0.8; stroke-linejoin: miter; stroke-linecap: square"/>
   </g>
  </g>
  <g id="axes_3">
   <g id="patch_14">
    <path d="M 1064.541176 449.025882 
L 1425.6 449.025882 
L 1425.6 155.52 
L 1064.541176 155.52 
z
" style="fill: #ffffff"/>
   </g>
   <g id="patch_15">
    <path d="M 1080.952941 449.025882 
L 1080.952941 449.025882 
L 1098.228483 449.025882 
L 1098.228483 449.025882 
L 1115.504025 449.025882 
L 1115.504025 449.025882 
L 1132.779567 449.025882 
L 1132.779567 449.025882 
L 1150.055108 449.025882 
L 1150.055108 449.025882 
L 1167.33065 449.025882 
L 1167.33065 449.025882 
L 1184.606192 449.025882 
L 1184.606192 443.982826 
L 1201.881734 443.982826 
L 1201.881734 407.960995 
L 1219.157276 407.960995 
L 1219.157276 281.164148 
L 1236.432817 281.164148 
L 1236.432817 169.496471 
L 1253.708359 169.496471 
L 1253.708359 269.637162 
L 1270.983901 269.637162 
L 1270.983901 404.358811 
L 1288.259443 404.358811 
L 1288.259443 446.144136 
L 1305.534985 446.144136 
L 1305.534985 449.025882 
L 1322.810526 449.025882 
L 1322.810526 449.025882 
L 1340.086068 449.025882 
L 1340.086068 449.025882 
L 1357.36161 449.025882 
L 1357.36161 449.025882 
L 1374.637152 449.025882 
L 1374.637152 449.025882 
L 1391.912693 449.025882 
L 1391.912693 449.025882 
L 1409.188235 449.025882 
L 1409.188235 449.025882 
L 1391.912693 449.025882 
L 1391.912693 449.025882 
L 1374.637152 449.025882 
L 1374.637152 449.025882 
L 1357.36161 449.025882 
L 1357.36161 449.025882 
L 1340.086068 449.025882 
L 1340.086068 449.025882 
L 1322.810526 449.025882 
L 1322.810526 449.025882 
L 1305.534985 449.025882 
L 1305.534985 449.025882 
L 1288.259443 449.025882 
L 1288.259443 449.025882 
L 1270.983901 449.025882 
L 1270.983901 449.025882 
L 1253.708359 449.025882 
L 1253.708359 449.025882 
L 1236.432817 449.025882 
L 1236.432817 449.025882 
L 1219.157276 449.025882 
L 1219.157276 449.025882 
L 1201.881734 449.025882 
L 1201.881734 449.025882 
L 1184.606192 449.025882 
L 1184.606192 449.025882 
L 1167.33065 449.025882 
L 1167.33065 449.025882 
L 1150.055108 449.025882 
L 1150.055108 449.025882 
L 1132.779567 449.025882 
L 1132.779567 449.025882 
L 1115.504025 449.025882 
L 1115.504025 449.025882 
L 1098.228483 449.025882 
L 1098.228483 449.025882 
z
" clip-path="url(#p7946bfbf32)" style="fill: #c0c0c0; opacity: 0.5"/>
   </g>
   <g id="matplotlib.axis_5">
    <g id="xtick_9">
     <g id="line2d_25">
      <g>
       <use xlink:href="#m5b0a3932da" x="1131.366547" y="449.025882" style="stroke: #000000; stroke-width: 0.8"/>
      </g>
     </g>
     <g id="text_27">
      <!-- 1.5 -->
      <g transform="translate(1115.463422 471.222757) scale(0.2 -0.2)">
       <use xlink:href="#DejaVuSans-31"/>
       <use xlink:href="#DejaVuSans-2e" x="63.623047"/>
       <use xlink:href="#DejaVuSans-35" x="95.410156"/>
      </g>
     </g>
    </g>
    <g id="xtick_10">
     <g id="line2d_26">
      <g>
       <use xlink:href="#m5b0a3932da" x="1226.119915" y="449.025882" style="stroke: #000000; stroke-width: 0.8"/>
      </g>
     </g>
     <g id="text_28">
      <!-- 2.0 -->
      <g transform="translate(1210.21679 471.222757) scale(0.2 -0.2)">
       <use xlink:href="#DejaVuSans-32"/>
       <use xlink:href="#DejaVuSans-2e" x="63.623047"/>
       <use xlink:href="#DejaVuSans-30" x="95.410156"/>
      </g>
     </g>
    </g>
    <g id="xtick_11">
     <g id="line2d_27">
      <g>
       <use xlink:href="#m5b0a3932da" x="1320.873282" y="449.025882" style="stroke: #000000; stroke-width: 0.8"/>
      </g>
     </g>
     <g id="text_29">
      <!-- 2.5 -->
      <g transform="translate(1304.970157 471.222757) scale(0.2 -0.2)">
       <use xlink:href="#DejaVuSans-32"/>
       <use xlink:href="#DejaVuSans-2e" x="63.623047"/>
       <use xlink:href="#DejaVuSans-35" x="95.410156"/>
      </g>
     </g>
    </g>
    <g id="xtick_12">
     <g id="line2d_28">
      <g>
       <use xlink:href="#m5b0a3932da" x="1415.62665" y="449.025882" style="stroke: #000000; stroke-width: 0.8"/>
      </g>
     </g>
     <g id="text_30">
      <!-- 3.0 -->
      <g transform="translate(1399.723525 471.222757) scale(0.2 -0.2)">
       <use xlink:href="#DejaVuSans-33"/>
       <use xlink:href="#DejaVuSans-2e" x="63.623047"/>
       <use xlink:href="#DejaVuSans-30" x="95.410156"/>
      </g>
     </g>
    </g>
    <g id="text_31">
     <!-- $x$ -->
     <g transform="translate(1239.070588 494.579007) scale(0.2 -0.2)">
      <use xlink:href="#DejaVuSans-Oblique-78" transform="translate(0 0.3125)"/>
     </g>
    </g>
   </g>
   <g id="matplotlib.axis_6">
    <g id="ytick_15">
     <g id="line2d_29">
      <g>
       <use xlink:href="#mc829decb60" x="1064.541176" y="449.025882" style="stroke: #000000; stroke-width: 0.8"/>
      </g>
     </g>
     <g id="text_32">
      <!-- 0 -->
      <g transform="translate(1044.816176 456.62432) scale(0.2 -0.2)">
       <use xlink:href="#DejaVuSans-30"/>
      </g>
     </g>
    </g>
    <g id="ytick_16">
     <g id="line2d_30">
      <g>
       <use xlink:href="#mc829decb60" x="1064.541176" y="376.98222" style="stroke: #000000; stroke-width: 0.8"/>
      </g>
     </g>
     <g id="text_33">
      <!-- 100 -->
      <g transform="translate(1019.366176 384.580657) scale(0.2 -0.2)">
       <use xlink:href="#DejaVuSans-31"/>
       <use xlink:href="#DejaVuSans-30" x="63.623047"/>
       <use xlink:href="#DejaVuSans-30" x="127.246094"/>
      </g>
     </g>
    </g>
    <g id="ytick_17">
     <g id="line2d_31">
      <g>
       <use xlink:href="#mc829decb60" x="1064.541176" y="304.938557" style="stroke: #000000; stroke-width: 0.8"/>
      </g>
     </g>
     <g id="text_34">
      <!-- 200 -->
      <g transform="translate(1019.366176 312.536994) scale(0.2 -0.2)">
       <use xlink:href="#DejaVuSans-32"/>
       <use xlink:href="#DejaVuSans-30" x="63.623047"/>
       <use xlink:href="#DejaVuSans-30" x="127.246094"/>
      </g>
     </g>
    </g>
    <g id="ytick_18">
     <g id="line2d_32">
      <g>
       <use xlink:href="#mc829decb60" x="1064.541176" y="232.894894" style="stroke: #000000; stroke-width: 0.8"/>
      </g>
     </g>
     <g id="text_35">
      <!-- 300 -->
      <g transform="translate(1019.366176 240.493331) scale(0.2 -0.2)">
       <use xlink:href="#DejaVuSans-33"/>
       <use xlink:href="#DejaVuSans-30" x="63.623047"/>
       <use xlink:href="#DejaVuSans-30" x="127.246094"/>
      </g>
     </g>
    </g>
    <g id="ytick_19">
     <g id="line2d_33">
      <g>
       <use xlink:href="#mc829decb60" x="1064.541176" y="160.851231" style="stroke: #000000; stroke-width: 0.8"/>
      </g>
     </g>
     <g id="text_36">
      <!-- 400 -->
      <g transform="translate(1019.366176 168.449669) scale(0.2 -0.2)">
       <use xlink:href="#DejaVuSans-34"/>
       <use xlink:href="#DejaVuSans-30" x="63.623047"/>
       <use xlink:href="#DejaVuSans-30" x="127.246094"/>
      </g>
     </g>
    </g>
    <g id="text_37">
     <!-- Ocurrencia -->
     <g transform="translate(1011.206801 356.697941) rotate(-90) scale(0.2 -0.2)">
      <use xlink:href="#DejaVuSans-4f"/>
      <use xlink:href="#DejaVuSans-63" x="78.710938"/>
      <use xlink:href="#DejaVuSans-75" x="133.691406"/>
      <use xlink:href="#DejaVuSans-72" x="197.070312"/>
      <use xlink:href="#DejaVuSans-72" x="236.433594"/>
      <use xlink:href="#DejaVuSans-65" x="275.296875"/>
      <use xlink:href="#DejaVuSans-6e" x="336.820312"/>
      <use xlink:href="#DejaVuSans-63" x="400.199219"/>
      <use xlink:href="#DejaVuSans-69" x="455.179688"/>
      <use xlink:href="#DejaVuSans-61" x="482.962891"/>
     </g>
    </g>
   </g>
   <g id="line2d_34">
    <path d="M 1080.952941 449.025882 
L 1085.107818 449.025882 
L 1089.262695 449.025882 
L 1093.417573 449.025882 
L 1097.57245 449.025882 
L 1101.727327 449.025882 
L 1105.882204 449.025882 
L 1110.037081 449.025882 
L 1114.191958 449.025882 
L 1118.346835 449.025882 
L 1122.501713 449.025882 
L 1126.65659 449.025882 
L 1130.811467 449.025882 
L 1134.966344 449.025882 
L 1139.121221 449.025881 
L 1143.276098 449.025875 
L 1147.430975 449.025851 
L 1151.585853 449.025765 
L 1155.74073 449.025463 
L 1159.895607 449.024471 
L 1164.050484 449.021394 
L 1168.205361 449.01241 
L 1172.360238 448.987715 
L 1176.515115 448.923812 
L 1180.669993 448.768216 
L 1184.82487 448.411888 
L 1188.979747 447.6448 
L 1193.134624 446.093482 
L 1197.289501 443.148614 
L 1201.444378 437.906611 
L 1205.599255 429.16833 
L 1209.754133 415.550645 
L 1213.90901 395.757419 
L 1218.063887 369.01202 
L 1222.218764 335.574741 
L 1226.373641 297.180683 
L 1230.528518 257.184707 
L 1234.683395 220.238984 
L 1238.838273 191.471443 
L 1242.99315 175.338049 
L 1247.148027 174.495441 
L 1251.302904 189.0853 
L 1255.457781 216.69538 
L 1259.612658 253.011952 
L 1263.767535 292.9211 
L 1267.922413 331.672924 
L 1272.07729 365.74977 
L 1276.232167 393.243712 
L 1280.387044 413.754788 
L 1284.541921 427.973996 
L 1288.696798 437.165145 
L 1292.851675 442.718039 
L 1297.006552 445.859242 
L 1301.16143 447.525282 
L 1305.316307 448.354639 
L 1309.471184 448.742454 
L 1313.626061 448.912914 
L 1317.780938 448.98338 
L 1321.935815 449.010788 
L 1326.090692 449.020822 
L 1330.24557 449.024281 
L 1334.400447 449.025404 
L 1338.555324 449.025747 
L 1342.710201 449.025846 
L 1346.865078 449.025873 
L 1351.019955 449.02588 
L 1355.174832 449.025882 
L 1359.32971 449.025882 
L 1363.484587 449.025882 
L 1367.639464 449.025882 
L 1371.794341 449.025882 
L 1375.949218 449.025882 
L 1380.104095 449.025882 
L 1384.258972 449.025882 
L 1388.41385 449.025882 
L 1392.568727 449.025882 
L 1396.723604 449.025882 
L 1400.878481 449.025882 
L 1405.033358 449.025882 
L 1409.188235 449.025882 
" clip-path="url(#p7946bfbf32)" style="fill: none; stroke: #ff0000; stroke-width: 1.5; stroke-linecap: square"/>
   </g>
   <g id="patch_16">
    <path d="M 1064.541176 449.025882 
L 1064.541176 155.52 
" style="fill: none; stroke: #000000; stroke-width: 0.8; stroke-linejoin: miter; stroke-linecap: square"/>
   </g>
   <g id="patch_17">
    <path d="M 1425.6 449.025882 
L 1425.6 155.52 
" style="fill: none; stroke: #000000; stroke-width: 0.8; stroke-linejoin: miter; stroke-linecap: square"/>
   </g>
   <g id="patch_18">
    <path d="M 1064.541176 449.025882 
L 1425.6 449.025882 
" style="fill: none; stroke: #000000; stroke-width: 0.8; stroke-linejoin: miter; stroke-linecap: square"/>
   </g>
   <g id="patch_19">
    <path d="M 1064.541176 155.52 
L 1425.6 155.52 
" style="fill: none; stroke: #000000; stroke-width: 0.8; stroke-linejoin: miter; stroke-linecap: square"/>
   </g>
  </g>
  <g id="axes_4">
   <g id="patch_20">
    <path d="M 198 801.232941 
L 559.058824 801.232941 
L 559.058824 507.727059 
L 198 507.727059 
z
" style="fill: #ffffff"/>
   </g>
   <g id="patch_21">
    <path d="M 234.053327 801.232941 
L 234.053327 783.88284 
L 249.483014 783.88284 
L 249.483014 756.893793 
L 264.912701 756.893793 
L 264.912701 753.038215 
L 280.342387 753.038215 
L 280.342387 712.554645 
L 295.772074 712.554645 
L 295.772074 645.082028 
L 311.20176 645.082028 
L 311.20176 618.092982 
L 326.631447 618.092982 
L 326.631447 560.25931 
L 342.061133 560.25931 
L 342.061133 521.703529 
L 357.49082 521.703529 
L 357.49082 566.042677 
L 372.920507 566.042677 
L 372.920507 573.753834 
L 388.350193 573.753834 
L 388.350193 633.515294 
L 403.77988 633.515294 
L 403.77988 704.843489 
L 419.209566 704.843489 
L 419.209566 745.327059 
L 434.639253 745.327059 
L 434.639253 758.821582 
L 450.068939 758.821582 
L 450.068939 778.099473 
L 465.498626 778.099473 
L 465.498626 787.738418 
L 480.928313 787.738418 
L 480.928313 801.232941 
L 496.357999 801.232941 
L 496.357999 795.449574 
L 511.787686 795.449574 
L 511.787686 801.232941 
L 527.217372 801.232941 
L 527.217372 799.305152 
L 542.647059 799.305152 
L 542.647059 801.232941 
L 527.217372 801.232941 
L 527.217372 801.232941 
L 511.787686 801.232941 
L 511.787686 801.232941 
L 496.357999 801.232941 
L 496.357999 801.232941 
L 480.928313 801.232941 
L 480.928313 801.232941 
L 465.498626 801.232941 
L 465.498626 801.232941 
L 450.068939 801.232941 
L 450.068939 801.232941 
L 434.639253 801.232941 
L 434.639253 801.232941 
L 419.209566 801.232941 
L 419.209566 801.232941 
L 403.77988 801.232941 
L 403.77988 801.232941 
L 388.350193 801.232941 
L 388.350193 801.232941 
L 372.920507 801.232941 
L 372.920507 801.232941 
L 357.49082 801.232941 
L 357.49082 801.232941 
L 342.061133 801.232941 
L 342.061133 801.232941 
L 326.631447 801.232941 
L 326.631447 801.232941 
L 311.20176 801.232941 
L 311.20176 801.232941 
L 295.772074 801.232941 
L 295.772074 801.232941 
L 280.342387 801.232941 
L 280.342387 801.232941 
L 264.912701 801.232941 
L 264.912701 801.232941 
L 249.483014 801.232941 
L 249.483014 801.232941 
z
" clip-path="url(#p547fa17c2b)" style="fill: #c0c0c0; opacity: 0.5"/>
   </g>
   <g id="matplotlib.axis_7">
    <g id="xtick_13">
     <g id="line2d_35">
      <g>
       <use xlink:href="#m5b0a3932da" x="255.001945" y="801.232941" style="stroke: #000000; stroke-width: 0.8"/>
      </g>
     </g>
     <g id="text_38">
      <!-- 1 -->
      <g transform="translate(248.639445 823.429816) scale(0.2 -0.2)">
       <use xlink:href="#DejaVuSans-31"/>
      </g>
     </g>
    </g>
    <g id="xtick_14">
     <g id="line2d_36">
      <g>
       <use xlink:href="#m5b0a3932da" x="346.192032" y="801.232941" style="stroke: #000000; stroke-width: 0.8"/>
      </g>
     </g>
     <g id="text_39">
      <!-- 2 -->
      <g transform="translate(339.829532 823.429816) scale(0.2 -0.2)">
       <use xlink:href="#DejaVuSans-32"/>
      </g>
     </g>
    </g>
    <g id="xtick_15">
     <g id="line2d_37">
      <g>
       <use xlink:href="#m5b0a3932da" x="437.382119" y="801.232941" style="stroke: #000000; stroke-width: 0.8"/>
      </g>
     </g>
     <g id="text_40">
      <!-- 3 -->
      <g transform="translate(431.019619 823.429816) scale(0.2 -0.2)">
       <use xlink:href="#DejaVuSans-33"/>
      </g>
     </g>
    </g>
    <g id="xtick_16">
     <g id="line2d_38">
      <g>
       <use xlink:href="#m5b0a3932da" x="528.572205" y="801.232941" style="stroke: #000000; stroke-width: 0.8"/>
      </g>
     </g>
     <g id="text_41">
      <!-- 4 -->
      <g transform="translate(522.209705 823.429816) scale(0.2 -0.2)">
       <use xlink:href="#DejaVuSans-34"/>
      </g>
     </g>
    </g>
    <g id="text_42">
     <!-- $x$ -->
     <g transform="translate(372.529412 846.786066) scale(0.2 -0.2)">
      <use xlink:href="#DejaVuSans-Oblique-78" transform="translate(0 0.3125)"/>
     </g>
    </g>
   </g>
   <g id="matplotlib.axis_8">
    <g id="ytick_20">
     <g id="line2d_39">
      <g>
       <use xlink:href="#mc829decb60" x="198" y="801.232941" style="stroke: #000000; stroke-width: 0.8"/>
      </g>
     </g>
     <g id="text_43">
      <!-- 0 -->
      <g transform="translate(178.275 808.831379) scale(0.2 -0.2)">
       <use xlink:href="#DejaVuSans-30"/>
      </g>
     </g>
    </g>
    <g id="ytick_21">
     <g id="line2d_40">
      <g>
       <use xlink:href="#mc829decb60" x="198" y="753.038215" style="stroke: #000000; stroke-width: 0.8"/>
      </g>
     </g>
     <g id="text_44">
      <!-- 25 -->
      <g transform="translate(165.55 760.636653) scale(0.2 -0.2)">
       <use xlink:href="#DejaVuSans-32"/>
       <use xlink:href="#DejaVuSans-35" x="63.623047"/>
      </g>
     </g>
    </g>
    <g id="ytick_22">
     <g id="line2d_41">
      <g>
       <use xlink:href="#mc829decb60" x="198" y="704.843489" style="stroke: #000000; stroke-width: 0.8"/>
      </g>
     </g>
     <g id="text_45">
      <!-- 50 -->
      <g transform="translate(165.55 712.441926) scale(0.2 -0.2)">
       <use xlink:href="#DejaVuSans-35"/>
       <use xlink:href="#DejaVuSans-30" x="63.623047"/>
      </g>
     </g>
    </g>
    <g id="ytick_23">
     <g id="line2d_42">
      <g>
       <use xlink:href="#mc829decb60" x="198" y="656.648763" style="stroke: #000000; stroke-width: 0.8"/>
      </g>
     </g>
     <g id="text_46">
      <!-- 75 -->
      <g transform="translate(165.55 664.2472) scale(0.2 -0.2)">
       <use xlink:href="#DejaVuSans-37"/>
       <use xlink:href="#DejaVuSans-35" x="63.623047"/>
      </g>
     </g>
    </g>
    <g id="ytick_24">
     <g id="line2d_43">
      <g>
       <use xlink:href="#mc829decb60" x="198" y="608.454037" style="stroke: #000000; stroke-width: 0.8"/>
      </g>
     </g>
     <g id="text_47">
      <!-- 100 -->
      <g transform="translate(152.825 616.052474) scale(0.2 -0.2)">
       <use xlink:href="#DejaVuSans-31"/>
       <use xlink:href="#DejaVuSans-30" x="63.623047"/>
       <use xlink:href="#DejaVuSans-30" x="127.246094"/>
      </g>
     </g>
    </g>
    <g id="ytick_25">
     <g id="line2d_44">
      <g>
       <use xlink:href="#mc829decb60" x="198" y="560.25931" style="stroke: #000000; stroke-width: 0.8"/>
      </g>
     </g>
     <g id="text_48">
      <!-- 125 -->
      <g transform="translate(152.825 567.857748) scale(0.2 -0.2)">
       <use xlink:href="#DejaVuSans-31"/>
       <use xlink:href="#DejaVuSans-32" x="63.623047"/>
       <use xlink:href="#DejaVuSans-35" x="127.246094"/>
      </g>
     </g>
    </g>
    <g id="ytick_26">
     <g id="line2d_45">
      <g>
       <use xlink:href="#mc829decb60" x="198" y="512.064584" style="stroke: #000000; stroke-width: 0.8"/>
      </g>
     </g>
     <g id="text_49">
      <!-- 150 -->
      <g transform="translate(152.825 519.663022) scale(0.2 -0.2)">
       <use xlink:href="#DejaVuSans-31"/>
       <use xlink:href="#DejaVuSans-35" x="63.623047"/>
       <use xlink:href="#DejaVuSans-30" x="127.246094"/>
      </g>
     </g>
    </g>
    <g id="text_50">
     <!-- Ocurrencia -->
     <g transform="translate(144.665625 708.905) rotate(-90) scale(0.2 -0.2)">
      <use xlink:href="#DejaVuSans-4f"/>
      <use xlink:href="#DejaVuSans-63" x="78.710938"/>
      <use xlink:href="#DejaVuSans-75" x="133.691406"/>
      <use xlink:href="#DejaVuSans-72" x="197.070312"/>
      <use xlink:href="#DejaVuSans-72" x="236.433594"/>
      <use xlink:href="#DejaVuSans-65" x="275.296875"/>
      <use xlink:href="#DejaVuSans-6e" x="336.820312"/>
      <use xlink:href="#DejaVuSans-63" x="400.199219"/>
      <use xlink:href="#DejaVuSans-69" x="455.179688"/>
      <use xlink:href="#DejaVuSans-61" x="482.962891"/>
     </g>
    </g>
   </g>
   <g id="line2d_46">
    <path d="M 214.411765 799.175626 
L 221.637369 797.917587 
L 228.862972 796.022766 
L 236.088576 793.248069 
L 243.31418 789.299196 
L 250.539784 783.839771 
L 257.765388 776.511491 
L 264.990992 766.967025 
L 272.216596 754.915566 
L 279.4422 740.178292 
L 286.667804 722.747927 
L 293.893408 702.843625 
L 301.119011 680.950471 
L 308.344615 657.832681 
L 315.570219 634.511775 
L 322.795823 612.205551 
L 330.021427 592.230221 
L 337.247031 575.875275 
L 344.472635 564.266996 
L 351.698239 558.240515 
L 358.923843 558.240515 
L 366.149446 564.266996 
L 373.37505 575.875275 
L 380.600654 592.230221 
L 387.826258 612.205551 
L 395.051862 634.511775 
L 402.277466 657.832681 
L 409.50307 680.950471 
L 416.728674 702.843625 
L 423.954278 722.747927 
L 431.179881 740.178292 
L 438.405485 754.915566 
L 445.631089 766.967025 
L 452.856693 776.511491 
L 460.082297 783.839771 
L 467.307901 789.299196 
L 474.533505 793.248069 
L 481.759109 796.022766 
L 488.984713 797.917587 
L 496.210317 799.175626 
" clip-path="url(#p547fa17c2b)" style="fill: none; stroke: #ff0000; stroke-width: 1.5; stroke-linecap: square"/>
   </g>
   <g id="patch_22">
    <path d="M 198 801.232941 
L 198 507.727059 
" style="fill: none; stroke: #000000; stroke-width: 0.8; stroke-linejoin: miter; stroke-linecap: square"/>
   </g>
   <g id="patch_23">
    <path d="M 559.058824 801.232941 
L 559.058824 507.727059 
" style="fill: none; stroke: #000000; stroke-width: 0.8; stroke-linejoin: miter; stroke-linecap: square"/>
   </g>
   <g id="patch_24">
    <path d="M 198 801.232941 
L 559.058824 801.232941 
" style="fill: none; stroke: #000000; stroke-width: 0.8; stroke-linejoin: miter; stroke-linecap: square"/>
   </g>
   <g id="patch_25">
    <path d="M 198 507.727059 
L 559.058824 507.727059 
" style="fill: none; stroke: #000000; stroke-width: 0.8; stroke-linejoin: miter; stroke-linecap: square"/>
   </g>
  </g>
  <g id="axes_5">
   <g id="patch_26">
    <path d="M 631.270588 801.232941 
L 992.329412 801.232941 
L 992.329412 507.727059 
L 631.270588 507.727059 
z
" style="fill: #ffffff"/>
   </g>
   <g id="patch_27">
    <path d="M 647.682353 801.232941 
L 647.682353 801.232941 
L 664.957895 801.232941 
L 664.957895 801.232941 
L 682.233437 801.232941 
L 682.233437 801.232941 
L 699.508978 801.232941 
L 699.508978 801.232941 
L 716.78452 801.232941 
L 716.78452 800.265711 
L 734.060062 800.265711 
L 734.060062 797.364022 
L 751.335604 797.364022 
L 751.335604 778.019426 
L 768.611146 778.019426 
L 768.611146 702.575502 
L 785.886687 702.575502 
L 785.886687 592.311305 
L 803.162229 592.311305 
L 803.162229 521.703529 
L 820.437771 521.703529 
L 820.437771 580.704547 
L 837.713313 580.704547 
L 837.713313 697.739353 
L 854.988854 697.739353 
L 854.988854 775.117737 
L 872.264396 775.117737 
L 872.264396 799.298482 
L 889.539938 799.298482 
L 889.539938 801.232941 
L 906.81548 801.232941 
L 906.81548 801.232941 
L 924.091022 801.232941 
L 924.091022 801.232941 
L 941.366563 801.232941 
L 941.366563 801.232941 
L 958.642105 801.232941 
L 958.642105 801.232941 
L 975.917647 801.232941 
L 975.917647 801.232941 
L 958.642105 801.232941 
L 958.642105 801.232941 
L 941.366563 801.232941 
L 941.366563 801.232941 
L 924.091022 801.232941 
L 924.091022 801.232941 
L 906.81548 801.232941 
L 906.81548 801.232941 
L 889.539938 801.232941 
L 889.539938 801.232941 
L 872.264396 801.232941 
L 872.264396 801.232941 
L 854.988854 801.232941 
L 854.988854 801.232941 
L 837.713313 801.232941 
L 837.713313 801.232941 
L 820.437771 801.232941 
L 820.437771 801.232941 
L 803.162229 801.232941 
L 803.162229 801.232941 
L 785.886687 801.232941 
L 785.886687 801.232941 
L 768.611146 801.232941 
L 768.611146 801.232941 
L 751.335604 801.232941 
L 751.335604 801.232941 
L 734.060062 801.232941 
L 734.060062 801.232941 
L 716.78452 801.232941 
L 716.78452 801.232941 
L 699.508978 801.232941 
L 699.508978 801.232941 
L 682.233437 801.232941 
L 682.233437 801.232941 
L 664.957895 801.232941 
L 664.957895 801.232941 
z
" clip-path="url(#p1f8de3c73d)" style="fill: #c0c0c0; opacity: 0.5"/>
   </g>
   <g id="matplotlib.axis_9">
    <g id="xtick_17">
     <g id="line2d_47">
      <g>
       <use xlink:href="#m5b0a3932da" x="694.961268" y="801.232941" style="stroke: #000000; stroke-width: 0.8"/>
      </g>
     </g>
     <g id="text_51">
      <!-- 1 -->
      <g transform="translate(688.598768 823.429816) scale(0.2 -0.2)">
       <use xlink:href="#DejaVuSans-31"/>
      </g>
     </g>
    </g>
    <g id="xtick_18">
     <g id="line2d_48">
      <g>
       <use xlink:href="#m5b0a3932da" x="801.178297" y="801.232941" style="stroke: #000000; stroke-width: 0.8"/>
      </g>
     </g>
     <g id="text_52">
      <!-- 2 -->
      <g transform="translate(794.815797 823.429816) scale(0.2 -0.2)">
       <use xlink:href="#DejaVuSans-32"/>
      </g>
     </g>
    </g>
    <g id="xtick_19">
     <g id="line2d_49">
      <g>
       <use xlink:href="#m5b0a3932da" x="907.395326" y="801.232941" style="stroke: #000000; stroke-width: 0.8"/>
      </g>
     </g>
     <g id="text_53">
      <!-- 3 -->
      <g transform="translate(901.032826 823.429816) scale(0.2 -0.2)">
       <use xlink:href="#DejaVuSans-33"/>
      </g>
     </g>
    </g>
    <g id="text_54">
     <!-- $x$ -->
     <g transform="translate(805.8 846.786066) scale(0.2 -0.2)">
      <use xlink:href="#DejaVuSans-Oblique-78" transform="translate(0 0.3125)"/>
     </g>
    </g>
   </g>
   <g id="matplotlib.axis_10">
    <g id="ytick_27">
     <g id="line2d_50">
      <g>
       <use xlink:href="#mc829decb60" x="631.270588" y="801.232941" style="stroke: #000000; stroke-width: 0.8"/>
      </g>
     </g>
     <g id="text_55">
      <!-- 0 -->
      <g transform="translate(611.545588 808.831379) scale(0.2 -0.2)">
       <use xlink:href="#DejaVuSans-30"/>
      </g>
     </g>
    </g>
    <g id="ytick_28">
     <g id="line2d_51">
      <g>
       <use xlink:href="#mc829decb60" x="631.270588" y="752.871451" style="stroke: #000000; stroke-width: 0.8"/>
      </g>
     </g>
     <g id="text_56">
      <!-- 50 -->
      <g transform="translate(598.820588 760.469889) scale(0.2 -0.2)">
       <use xlink:href="#DejaVuSans-35"/>
       <use xlink:href="#DejaVuSans-30" x="63.623047"/>
      </g>
     </g>
    </g>
    <g id="ytick_29">
     <g id="line2d_52">
      <g>
       <use xlink:href="#mc829decb60" x="631.270588" y="704.509961" style="stroke: #000000; stroke-width: 0.8"/>
      </g>
     </g>
     <g id="text_57">
      <!-- 100 -->
      <g transform="translate(586.095588 712.108399) scale(0.2 -0.2)">
       <use xlink:href="#DejaVuSans-31"/>
       <use xlink:href="#DejaVuSans-30" x="63.623047"/>
       <use xlink:href="#DejaVuSans-30" x="127.246094"/>
      </g>
     </g>
    </g>
    <g id="ytick_30">
     <g id="line2d_53">
      <g>
       <use xlink:href="#mc829decb60" x="631.270588" y="656.148471" style="stroke: #000000; stroke-width: 0.8"/>
      </g>
     </g>
     <g id="text_58">
      <!-- 150 -->
      <g transform="translate(586.095588 663.746909) scale(0.2 -0.2)">
       <use xlink:href="#DejaVuSans-31"/>
       <use xlink:href="#DejaVuSans-35" x="63.623047"/>
       <use xlink:href="#DejaVuSans-30" x="127.246094"/>
      </g>
     </g>
    </g>
    <g id="ytick_31">
     <g id="line2d_54">
      <g>
       <use xlink:href="#mc829decb60" x="631.270588" y="607.786981" style="stroke: #000000; stroke-width: 0.8"/>
      </g>
     </g>
     <g id="text_59">
      <!-- 200 -->
      <g transform="translate(586.095588 615.385419) scale(0.2 -0.2)">
       <use xlink:href="#DejaVuSans-32"/>
       <use xlink:href="#DejaVuSans-30" x="63.623047"/>
       <use xlink:href="#DejaVuSans-30" x="127.246094"/>
      </g>
     </g>
    </g>
    <g id="ytick_32">
     <g id="line2d_55">
      <g>
       <use xlink:href="#mc829decb60" x="631.270588" y="559.425492" style="stroke: #000000; stroke-width: 0.8"/>
      </g>
     </g>
     <g id="text_60">
      <!-- 250 -->
      <g transform="translate(586.095588 567.023929) scale(0.2 -0.2)">
       <use xlink:href="#DejaVuSans-32"/>
       <use xlink:href="#DejaVuSans-35" x="63.623047"/>
       <use xlink:href="#DejaVuSans-30" x="127.246094"/>
      </g>
     </g>
    </g>
    <g id="ytick_33">
     <g id="line2d_56">
      <g>
       <use xlink:href="#mc829decb60" x="631.270588" y="511.064002" style="stroke: #000000; stroke-width: 0.8"/>
      </g>
     </g>
     <g id="text_61">
      <!-- 300 -->
      <g transform="translate(586.095588 518.662439) scale(0.2 -0.2)">
       <use xlink:href="#DejaVuSans-33"/>
       <use xlink:href="#DejaVuSans-30" x="63.623047"/>
       <use xlink:href="#DejaVuSans-30" x="127.246094"/>
      </g>
     </g>
    </g>
    <g id="text_62">
     <!-- Ocurrencia -->
     <g transform="translate(577.936213 708.905) rotate(-90) scale(0.2 -0.2)">
      <use xlink:href="#DejaVuSans-4f"/>
      <use xlink:href="#DejaVuSans-63" x="78.710938"/>
      <use xlink:href="#DejaVuSans-75" x="133.691406"/>
      <use xlink:href="#DejaVuSans-72" x="197.070312"/>
      <use xlink:href="#DejaVuSans-72" x="236.433594"/>
      <use xlink:href="#DejaVuSans-65" x="275.296875"/>
      <use xlink:href="#DejaVuSans-6e" x="336.820312"/>
      <use xlink:href="#DejaVuSans-63" x="400.199219"/>
      <use xlink:href="#DejaVuSans-69" x="455.179688"/>
      <use xlink:href="#DejaVuSans-61" x="482.962891"/>
     </g>
    </g>
   </g>
   <g id="line2d_57">
    <path d="M 647.682353 801.232941 
L 653.245663 801.232941 
L 658.808973 801.232941 
L 664.372283 801.23294 
L 669.935593 801.232937 
L 675.498903 801.232924 
L 681.062213 801.232878 
L 686.625523 801.232715 
L 692.188833 801.232183 
L 697.752144 801.230529 
L 703.315454 801.225679 
L 708.878764 801.212242 
L 714.442074 801.177093 
L 720.005384 801.090307 
L 725.568694 800.888104 
L 731.132004 800.443762 
L 736.695314 799.523284 
L 742.258624 797.726923 
L 747.821934 794.426954 
L 753.385244 788.726325 
L 758.948554 779.477884 
L 764.511864 765.41073 
L 770.075174 745.396688 
L 775.638485 718.847233 
L 781.201795 686.163709 
L 786.765105 649.094739 
L 792.328415 610.823239 
L 797.891725 575.647226 
L 803.455035 548.24149 
L 809.018345 532.654082 
L 814.581655 531.32881 
L 820.144965 544.477906 
L 825.708275 570.026391 
L 831.271585 604.148189 
L 836.834895 642.203458 
L 842.398205 679.761552 
L 847.961515 713.403104 
L 853.524826 741.118075 
L 859.088136 762.284201 
L 864.651446 777.345112 
L 870.214756 787.364371 
L 875.778066 793.611126 
L 881.341376 797.267817 
L 886.904686 799.280279 
L 892.467996 800.322674 
L 898.031306 800.831259 
L 903.594616 801.06515 
L 909.157926 801.166594 
L 914.721236 801.208107 
L 920.284546 801.224142 
L 925.847856 801.22999 
L 931.411167 801.232004 
L 936.974477 801.23266 
L 942.537787 801.232861 
L 948.101097 801.23292 
L 953.664407 801.232936 
L 959.227717 801.23294 
L 964.791027 801.232941 
L 970.354337 801.232941 
L 975.917647 801.232941 
" clip-path="url(#p1f8de3c73d)" style="fill: none; stroke: #ff0000; stroke-width: 1.5; stroke-linecap: square"/>
   </g>
   <g id="patch_28">
    <path d="M 631.270588 801.232941 
L 631.270588 507.727059 
" style="fill: none; stroke: #000000; stroke-width: 0.8; stroke-linejoin: miter; stroke-linecap: square"/>
   </g>
   <g id="patch_29">
    <path d="M 992.329412 801.232941 
L 992.329412 507.727059 
" style="fill: none; stroke: #000000; stroke-width: 0.8; stroke-linejoin: miter; stroke-linecap: square"/>
   </g>
   <g id="patch_30">
    <path d="M 631.270588 801.232941 
L 992.329412 801.232941 
" style="fill: none; stroke: #000000; stroke-width: 0.8; stroke-linejoin: miter; stroke-linecap: square"/>
   </g>
   <g id="patch_31">
    <path d="M 631.270588 507.727059 
L 992.329412 507.727059 
" style="fill: none; stroke: #000000; stroke-width: 0.8; stroke-linejoin: miter; stroke-linecap: square"/>
   </g>
  </g>
  <g id="axes_6">
   <g id="patch_32">
    <path d="M 1064.541176 801.232941 
L 1425.6 801.232941 
L 1425.6 507.727059 
L 1064.541176 507.727059 
z
" style="fill: #ffffff"/>
   </g>
   <g id="patch_33">
    <path d="M 1080.952941 801.232941 
L 1080.952941 801.232941 
L 1098.228483 801.232941 
L 1098.228483 801.232941 
L 1115.504025 801.232941 
L 1115.504025 801.232941 
L 1132.779567 801.232941 
L 1132.779567 801.232941 
L 1150.055108 801.232941 
L 1150.055108 801.232941 
L 1167.33065 801.232941 
L 1167.33065 801.232941 
L 1184.606192 801.232941 
L 1184.606192 801.232941 
L 1201.881734 801.232941 
L 1201.881734 800.403081 
L 1219.157276 800.403081 
L 1219.157276 728.205206 
L 1236.432817 728.205206 
L 1236.432817 532.3581 
L 1253.708359 532.3581 
L 1253.708359 730.694788 
L 1270.983901 730.694788 
L 1270.983901 799.57322 
L 1288.259443 799.57322 
L 1288.259443 801.232941 
L 1305.534985 801.232941 
L 1305.534985 801.232941 
L 1322.810526 801.232941 
L 1322.810526 801.232941 
L 1340.086068 801.232941 
L 1340.086068 801.232941 
L 1357.36161 801.232941 
L 1357.36161 801.232941 
L 1374.637152 801.232941 
L 1374.637152 801.232941 
L 1391.912693 801.232941 
L 1391.912693 801.232941 
L 1409.188235 801.232941 
L 1409.188235 801.232941 
L 1391.912693 801.232941 
L 1391.912693 801.232941 
L 1374.637152 801.232941 
L 1374.637152 801.232941 
L 1357.36161 801.232941 
L 1357.36161 801.232941 
L 1340.086068 801.232941 
L 1340.086068 801.232941 
L 1322.810526 801.232941 
L 1322.810526 801.232941 
L 1305.534985 801.232941 
L 1305.534985 801.232941 
L 1288.259443 801.232941 
L 1288.259443 801.232941 
L 1270.983901 801.232941 
L 1270.983901 801.232941 
L 1253.708359 801.232941 
L 1253.708359 801.232941 
L 1236.432817 801.232941 
L 1236.432817 801.232941 
L 1219.157276 801.232941 
L 1219.157276 801.232941 
L 1201.881734 801.232941 
L 1201.881734 801.232941 
L 1184.606192 801.232941 
L 1184.606192 801.232941 
L 1167.33065 801.232941 
L 1167.33065 801.232941 
L 1150.055108 801.232941 
L 1150.055108 801.232941 
L 1132.779567 801.232941 
L 1132.779567 801.232941 
L 1115.504025 801.232941 
L 1115.504025 801.232941 
L 1098.228483 801.232941 
L 1098.228483 801.232941 
z
" clip-path="url(#p4b474c8538)" style="fill: #c0c0c0; opacity: 0.5"/>
   </g>
   <g id="matplotlib.axis_11">
    <g id="xtick_20">
     <g id="line2d_58">
      <g>
       <use xlink:href="#m5b0a3932da" x="1128.231856" y="801.232941" style="stroke: #000000; stroke-width: 0.8"/>
      </g>
     </g>
     <g id="text_63">
      <!-- 1 -->
      <g transform="translate(1121.869356 823.429816) scale(0.2 -0.2)">
       <use xlink:href="#DejaVuSans-31"/>
      </g>
     </g>
    </g>
    <g id="xtick_21">
     <g id="line2d_59">
      <g>
       <use xlink:href="#m5b0a3932da" x="1234.448885" y="801.232941" style="stroke: #000000; stroke-width: 0.8"/>
      </g>
     </g>
     <g id="text_64">
      <!-- 2 -->
      <g transform="translate(1228.086385 823.429816) scale(0.2 -0.2)">
       <use xlink:href="#DejaVuSans-32"/>
      </g>
     </g>
    </g>
    <g id="xtick_22">
     <g id="line2d_60">
      <g>
       <use xlink:href="#m5b0a3932da" x="1340.665914" y="801.232941" style="stroke: #000000; stroke-width: 0.8"/>
      </g>
     </g>
     <g id="text_65">
      <!-- 3 -->
      <g transform="translate(1334.303414 823.429816) scale(0.2 -0.2)">
       <use xlink:href="#DejaVuSans-33"/>
      </g>
     </g>
    </g>
    <g id="text_66">
     <!-- $x$ -->
     <g transform="translate(1239.070588 846.786066) scale(0.2 -0.2)">
      <use xlink:href="#DejaVuSans-Oblique-78" transform="translate(0 0.3125)"/>
     </g>
    </g>
   </g>
   <g id="matplotlib.axis_12">
    <g id="ytick_34">
     <g id="line2d_61">
      <g>
       <use xlink:href="#mc829decb60" x="1064.541176" y="801.232941" style="stroke: #000000; stroke-width: 0.8"/>
      </g>
     </g>
     <g id="text_67">
      <!-- 0 -->
      <g transform="translate(1044.816176 808.831379) scale(0.2 -0.2)">
       <use xlink:href="#DejaVuSans-30"/>
      </g>
     </g>
    </g>
    <g id="ytick_35">
     <g id="line2d_62">
      <g>
       <use xlink:href="#mc829decb60" x="1064.541176" y="718.246879" style="stroke: #000000; stroke-width: 0.8"/>
      </g>
     </g>
     <g id="text_68">
      <!-- 200 -->
      <g transform="translate(1019.366176 725.845317) scale(0.2 -0.2)">
       <use xlink:href="#DejaVuSans-32"/>
       <use xlink:href="#DejaVuSans-30" x="63.623047"/>
       <use xlink:href="#DejaVuSans-30" x="127.246094"/>
      </g>
     </g>
    </g>
    <g id="ytick_36">
     <g id="line2d_63">
      <g>
       <use xlink:href="#mc829decb60" x="1064.541176" y="635.260817" style="stroke: #000000; stroke-width: 0.8"/>
      </g>
     </g>
     <g id="text_69">
      <!-- 400 -->
      <g transform="translate(1019.366176 642.859254) scale(0.2 -0.2)">
       <use xlink:href="#DejaVuSans-34"/>
       <use xlink:href="#DejaVuSans-30" x="63.623047"/>
       <use xlink:href="#DejaVuSans-30" x="127.246094"/>
      </g>
     </g>
    </g>
    <g id="ytick_37">
     <g id="line2d_64">
      <g>
       <use xlink:href="#mc829decb60" x="1064.541176" y="552.274755" style="stroke: #000000; stroke-width: 0.8"/>
      </g>
     </g>
     <g id="text_70">
      <!-- 600 -->
      <g transform="translate(1019.366176 559.873192) scale(0.2 -0.2)">
       <use xlink:href="#DejaVuSans-36"/>
       <use xlink:href="#DejaVuSans-30" x="63.623047"/>
       <use xlink:href="#DejaVuSans-30" x="127.246094"/>
      </g>
     </g>
    </g>
    <g id="text_71">
     <!-- Ocurrencia -->
     <g transform="translate(1011.206801 708.905) rotate(-90) scale(0.2 -0.2)">
      <use xlink:href="#DejaVuSans-4f"/>
      <use xlink:href="#DejaVuSans-63" x="78.710938"/>
      <use xlink:href="#DejaVuSans-75" x="133.691406"/>
      <use xlink:href="#DejaVuSans-72" x="197.070312"/>
      <use xlink:href="#DejaVuSans-72" x="236.433594"/>
      <use xlink:href="#DejaVuSans-65" x="275.296875"/>
      <use xlink:href="#DejaVuSans-6e" x="336.820312"/>
      <use xlink:href="#DejaVuSans-63" x="400.199219"/>
      <use xlink:href="#DejaVuSans-69" x="455.179688"/>
      <use xlink:href="#DejaVuSans-61" x="482.962891"/>
     </g>
    </g>
   </g>
   <g id="line2d_65">
    <path d="M 1080.952941 801.232941 
L 1084.268449 801.232941 
L 1087.583957 801.232941 
L 1090.899465 801.232941 
L 1094.214973 801.232941 
L 1097.530481 801.232941 
L 1100.845989 801.232941 
L 1104.161497 801.232941 
L 1107.477005 801.232941 
L 1110.792513 801.232941 
L 1114.108021 801.232941 
L 1117.423529 801.232941 
L 1120.739037 801.232941 
L 1124.054545 801.232941 
L 1127.370053 801.232941 
L 1130.685561 801.232941 
L 1134.00107 801.232941 
L 1137.316578 801.232941 
L 1140.632086 801.232941 
L 1143.947594 801.232941 
L 1147.263102 801.232941 
L 1150.57861 801.232941 
L 1153.894118 801.232941 
L 1157.209626 801.232941 
L 1160.525134 801.232941 
L 1163.840642 801.232941 
L 1167.15615 801.232941 
L 1170.471658 801.232941 
L 1173.787166 801.232941 
L 1177.102674 801.232941 
L 1180.418182 801.232941 
L 1183.73369 801.232941 
L 1187.049198 801.232936 
L 1190.364706 801.232904 
L 1193.680214 801.232699 
L 1196.995722 801.231551 
L 1200.31123 801.22583 
L 1203.626738 801.200578 
L 1206.942246 801.101914 
L 1210.257754 800.760992 
L 1213.573262 799.720599 
L 1216.88877 796.921455 
L 1220.204278 790.297763 
L 1223.519786 776.55855 
L 1226.835294 751.700604 
L 1230.150802 712.771708 
L 1233.46631 660.680322 
L 1236.781818 602.556359 
L 1240.097326 551.384754 
L 1243.412834 521.703529 
L 1246.728342 523.005088 
L 1250.04385 554.858595 
L 1253.359358 607.138924 
L 1256.674866 665.19796 
L 1259.990374 716.410486 
L 1263.305882 754.179341 
L 1266.62139 778.011099 
L 1269.936898 791.037119 
L 1273.252406 797.250314 
L 1276.567914 799.848933 
L 1279.883422 800.805054 
L 1283.19893 801.11525 
L 1286.514439 801.204142 
L 1289.829947 801.226672 
L 1293.145455 801.231727 
L 1296.460963 801.232732 
L 1299.776471 801.232909 
L 1303.091979 801.232937 
L 1306.407487 801.232941 
L 1309.722995 801.232941 
L 1313.038503 801.232941 
L 1316.354011 801.232941 
L 1319.669519 801.232941 
L 1322.985027 801.232941 
L 1326.300535 801.232941 
L 1329.616043 801.232941 
L 1332.931551 801.232941 
L 1336.247059 801.232941 
L 1339.562567 801.232941 
L 1342.878075 801.232941 
L 1346.193583 801.232941 
L 1349.509091 801.232941 
L 1352.824599 801.232941 
L 1356.140107 801.232941 
L 1359.455615 801.232941 
L 1362.771123 801.232941 
L 1366.086631 801.232941 
L 1369.402139 801.232941 
L 1372.717647 801.232941 
L 1376.033155 801.232941 
L 1379.348663 801.232941 
L 1382.664171 801.232941 
L 1385.979679 801.232941 
L 1389.295187 801.232941 
L 1392.610695 801.232941 
L 1395.926203 801.232941 
L 1399.241711 801.232941 
L 1402.557219 801.232941 
L 1405.872727 801.232941 
L 1409.188235 801.232941 
" clip-path="url(#p4b474c8538)" style="fill: none; stroke: #ff0000; stroke-width: 1.5; stroke-linecap: square"/>
   </g>
   <g id="patch_34">
    <path d="M 1064.541176 801.232941 
L 1064.541176 507.727059 
" style="fill: none; stroke: #000000; stroke-width: 0.8; stroke-linejoin: miter; stroke-linecap: square"/>
   </g>
   <g id="patch_35">
    <path d="M 1425.6 801.232941 
L 1425.6 507.727059 
" style="fill: none; stroke: #000000; stroke-width: 0.8; stroke-linejoin: miter; stroke-linecap: square"/>
   </g>
   <g id="patch_36">
    <path d="M 1064.541176 801.232941 
L 1425.6 801.232941 
" style="fill: none; stroke: #000000; stroke-width: 0.8; stroke-linejoin: miter; stroke-linecap: square"/>
   </g>
   <g id="patch_37">
    <path d="M 1064.541176 507.727059 
L 1425.6 507.727059 
" style="fill: none; stroke: #000000; stroke-width: 0.8; stroke-linejoin: miter; stroke-linecap: square"/>
   </g>
  </g>
  <g id="axes_7">
   <g id="patch_38">
    <path d="M 198 1153.44 
L 559.058824 1153.44 
L 559.058824 859.934118 
L 198 859.934118 
z
" style="fill: #ffffff"/>
   </g>
   <g id="patch_39">
    <path d="M 214.411765 1153.44 
L 214.411765 1027.1418 
L 258.176471 1027.1418 
L 258.176471 889.456058 
L 301.941176 889.456058 
L 301.941176 888.420827 
L 345.705882 888.420827 
L 345.705882 953.640389 
L 389.470588 953.640389 
L 389.470588 1045.775961 
L 433.235294 1045.775961 
L 433.235294 1105.819367 
L 477 1105.819367 
L 477 1131.700146 
L 520.764706 1131.700146 
L 520.764706 1153.44 
L 477 1153.44 
L 477 1153.44 
L 433.235294 1153.44 
L 433.235294 1153.44 
L 389.470588 1153.44 
L 389.470588 1153.44 
L 345.705882 1153.44 
L 345.705882 1153.44 
L 301.941176 1153.44 
L 301.941176 1153.44 
L 258.176471 1153.44 
L 258.176471 1153.44 
z
" clip-path="url(#p509e9abab3)" style="fill: #c0c0c0; opacity: 0.5"/>
   </g>
   <g id="matplotlib.axis_13">
    <g id="xtick_23">
     <g id="line2d_66">
      <g>
       <use xlink:href="#m5b0a3932da" x="236.294118" y="1153.44" style="stroke: #000000; stroke-width: 0.8"/>
      </g>
     </g>
     <g id="text_72">
      <!-- 0 -->
      <g transform="translate(229.931618 1175.636875) scale(0.2 -0.2)">
       <use xlink:href="#DejaVuSans-30"/>
      </g>
     </g>
    </g>
    <g id="xtick_24">
     <g id="line2d_67">
      <g>
       <use xlink:href="#m5b0a3932da" x="323.823529" y="1153.44" style="stroke: #000000; stroke-width: 0.8"/>
      </g>
     </g>
     <g id="text_73">
      <!-- 2 -->
      <g transform="translate(317.461029 1175.636875) scale(0.2 -0.2)">
       <use xlink:href="#DejaVuSans-32"/>
      </g>
     </g>
    </g>
    <g id="xtick_25">
     <g id="line2d_68">
      <g>
       <use xlink:href="#m5b0a3932da" x="411.352941" y="1153.44" style="stroke: #000000; stroke-width: 0.8"/>
      </g>
     </g>
     <g id="text_74">
      <!-- 4 -->
      <g transform="translate(404.990441 1175.636875) scale(0.2 -0.2)">
       <use xlink:href="#DejaVuSans-34"/>
      </g>
     </g>
    </g>
    <g id="xtick_26">
     <g id="line2d_69">
      <g>
       <use xlink:href="#m5b0a3932da" x="498.882353" y="1153.44" style="stroke: #000000; stroke-width: 0.8"/>
      </g>
     </g>
     <g id="text_75">
      <!-- 6 -->
      <g transform="translate(492.519853 1175.636875) scale(0.2 -0.2)">
       <use xlink:href="#DejaVuSans-36"/>
      </g>
     </g>
    </g>
    <g id="text_76">
     <!-- $x$ -->
     <g transform="translate(372.529412 1198.993125) scale(0.2 -0.2)">
      <use xlink:href="#DejaVuSans-Oblique-78" transform="translate(0 0.3125)"/>
     </g>
    </g>
   </g>
   <g id="matplotlib.axis_14">
    <g id="ytick_38">
     <g id="line2d_70">
      <g>
       <use xlink:href="#mc829decb60" x="198" y="1153.44" style="stroke: #000000; stroke-width: 0.8"/>
      </g>
     </g>
     <g id="text_77">
      <!-- 0 -->
      <g transform="translate(178.275 1161.038438) scale(0.2 -0.2)">
       <use xlink:href="#DejaVuSans-30"/>
      </g>
     </g>
    </g>
    <g id="ytick_39">
     <g id="line2d_71">
      <g>
       <use xlink:href="#mc829decb60" x="198" y="1101.678443" style="stroke: #000000; stroke-width: 0.8"/>
      </g>
     </g>
     <g id="text_78">
      <!-- 50 -->
      <g transform="translate(165.55 1109.27688) scale(0.2 -0.2)">
       <use xlink:href="#DejaVuSans-35"/>
       <use xlink:href="#DejaVuSans-30" x="63.623047"/>
      </g>
     </g>
    </g>
    <g id="ytick_40">
     <g id="line2d_72">
      <g>
       <use xlink:href="#mc829decb60" x="198" y="1049.916886" style="stroke: #000000; stroke-width: 0.8"/>
      </g>
     </g>
     <g id="text_79">
      <!-- 100 -->
      <g transform="translate(152.825 1057.515323) scale(0.2 -0.2)">
       <use xlink:href="#DejaVuSans-31"/>
       <use xlink:href="#DejaVuSans-30" x="63.623047"/>
       <use xlink:href="#DejaVuSans-30" x="127.246094"/>
      </g>
     </g>
    </g>
    <g id="ytick_41">
     <g id="line2d_73">
      <g>
       <use xlink:href="#mc829decb60" x="198" y="998.155328" style="stroke: #000000; stroke-width: 0.8"/>
      </g>
     </g>
     <g id="text_80">
      <!-- 150 -->
      <g transform="translate(152.825 1005.753766) scale(0.2 -0.2)">
       <use xlink:href="#DejaVuSans-31"/>
       <use xlink:href="#DejaVuSans-35" x="63.623047"/>
       <use xlink:href="#DejaVuSans-30" x="127.246094"/>
      </g>
     </g>
    </g>
    <g id="ytick_42">
     <g id="line2d_74">
      <g>
       <use xlink:href="#mc829decb60" x="198" y="946.393771" style="stroke: #000000; stroke-width: 0.8"/>
      </g>
     </g>
     <g id="text_81">
      <!-- 200 -->
      <g transform="translate(152.825 953.992209) scale(0.2 -0.2)">
       <use xlink:href="#DejaVuSans-32"/>
       <use xlink:href="#DejaVuSans-30" x="63.623047"/>
       <use xlink:href="#DejaVuSans-30" x="127.246094"/>
      </g>
     </g>
    </g>
    <g id="ytick_43">
     <g id="line2d_75">
      <g>
       <use xlink:href="#mc829decb60" x="198" y="894.632214" style="stroke: #000000; stroke-width: 0.8"/>
      </g>
     </g>
     <g id="text_82">
      <!-- 250 -->
      <g transform="translate(152.825 902.230652) scale(0.2 -0.2)">
       <use xlink:href="#DejaVuSans-32"/>
       <use xlink:href="#DejaVuSans-35" x="63.623047"/>
       <use xlink:href="#DejaVuSans-30" x="127.246094"/>
      </g>
     </g>
    </g>
    <g id="text_83">
     <!-- Ocurrencia -->
     <g transform="translate(144.665625 1061.112059) rotate(-90) scale(0.2 -0.2)">
      <use xlink:href="#DejaVuSans-4f"/>
      <use xlink:href="#DejaVuSans-63" x="78.710938"/>
      <use xlink:href="#DejaVuSans-75" x="133.691406"/>
      <use xlink:href="#DejaVuSans-72" x="197.070312"/>
      <use xlink:href="#DejaVuSans-72" x="236.433594"/>
      <use xlink:href="#DejaVuSans-65" x="275.296875"/>
      <use xlink:href="#DejaVuSans-6e" x="336.820312"/>
      <use xlink:href="#DejaVuSans-63" x="400.199219"/>
      <use xlink:href="#DejaVuSans-69" x="455.179688"/>
      <use xlink:href="#DejaVuSans-61" x="482.962891"/>
     </g>
    </g>
   </g>
   <g id="line2d_76">
    <defs>
     <path id="m0f2cbcd1bd" d="M 0 1.5 
C 0.397805 1.5 0.77937 1.341951 1.06066 1.06066 
C 1.341951 0.77937 1.5 0.397805 1.5 0 
C 1.5 -0.397805 1.341951 -0.77937 1.06066 -1.06066 
C 0.77937 -1.341951 0.397805 -1.5 0 -1.5 
C -0.397805 -1.5 -0.77937 -1.341951 -1.06066 -1.06066 
C -1.341951 -0.77937 -1.5 -0.397805 -1.5 0 
C -1.5 0.397805 -1.341951 0.77937 -1.06066 1.06066 
C -0.77937 1.341951 -0.397805 1.5 0 1.5 
z
" style="stroke: #ff0000"/>
    </defs>
    <g clip-path="url(#p509e9abab3)">
     <use xlink:href="#m0f2cbcd1bd" x="236.294118" y="1026.669292" style="fill: #ff0000; stroke: #ff0000"/>
     <use xlink:href="#m0f2cbcd1bd" x="280.058824" y="887.221513" style="fill: #ff0000; stroke: #ff0000"/>
     <use xlink:href="#m0f2cbcd1bd" x="323.823529" y="873.910588" style="fill: #ff0000; stroke: #ff0000"/>
     <use xlink:href="#m0f2cbcd1bd" x="367.588235" y="957.769412" style="fill: #ff0000; stroke: #ff0000"/>
     <use xlink:href="#m0f2cbcd1bd" x="411.352941" y="1050.712941" style="fill: #ff0000; stroke: #ff0000"/>
     <use xlink:href="#m0f2cbcd1bd" x="455.117647" y="1110.294635" style="fill: #ff0000; stroke: #ff0000"/>
     <use xlink:href="#m0f2cbcd1bd" x="498.882353" y="1138.339122" style="fill: #ff0000; stroke: #ff0000"/>
     <use xlink:href="#m0f2cbcd1bd" x="542.647059" y="1148.909737" style="fill: #ff0000; stroke: #ff0000"/>
    </g>
   </g>
   <g id="patch_40">
    <path d="M 198 1153.44 
L 198 859.934118 
" style="fill: none; stroke: #000000; stroke-width: 0.8; stroke-linejoin: miter; stroke-linecap: square"/>
   </g>
   <g id="patch_41">
    <path d="M 559.058824 1153.44 
L 559.058824 859.934118 
" style="fill: none; stroke: #000000; stroke-width: 0.8; stroke-linejoin: miter; stroke-linecap: square"/>
   </g>
   <g id="patch_42">
    <path d="M 198 1153.44 
L 559.058824 1153.44 
" style="fill: none; stroke: #000000; stroke-width: 0.8; stroke-linejoin: miter; stroke-linecap: square"/>
   </g>
   <g id="patch_43">
    <path d="M 198 859.934118 
L 559.058824 859.934118 
" style="fill: none; stroke: #000000; stroke-width: 0.8; stroke-linejoin: miter; stroke-linecap: square"/>
   </g>
  </g>
  <g id="axes_8">
   <g id="patch_44">
    <path d="M 631.270588 1153.44 
L 992.329412 1153.44 
L 992.329412 859.934118 
L 631.270588 859.934118 
z
" style="fill: #ffffff"/>
   </g>
   <g id="patch_45">
    <path d="M 647.682353 1153.44 
L 647.682353 1151.12984 
L 664.957895 1151.12984 
L 664.957895 1153.44 
L 682.233437 1153.44 
L 682.233437 1096.84107 
L 699.508978 1096.84107 
L 699.508978 989.41861 
L 716.78452 989.41861 
L 716.78452 916.648556 
L 734.060062 916.648556 
L 734.060062 873.910588 
L 751.335604 873.910588 
L 751.335604 1012.520214 
L 768.611146 1012.520214 
L 768.611146 1000.969412 
L 785.886687 1000.969412 
L 785.886687 1069.119144 
L 803.162229 1069.119144 
L 803.162229 1126.873155 
L 820.437771 1126.873155 
L 820.437771 1143.044278 
L 837.713313 1143.044278 
L 837.713313 1152.28492 
L 854.988854 1152.28492 
L 854.988854 1153.44 
L 872.264396 1153.44 
L 872.264396 1153.44 
L 889.539938 1153.44 
L 889.539938 1153.44 
L 906.81548 1153.44 
L 906.81548 1153.44 
L 924.091022 1153.44 
L 924.091022 1153.44 
L 941.366563 1153.44 
L 941.366563 1153.44 
L 958.642105 1153.44 
L 958.642105 1153.44 
L 975.917647 1153.44 
L 975.917647 1153.44 
L 958.642105 1153.44 
L 958.642105 1153.44 
L 941.366563 1153.44 
L 941.366563 1153.44 
L 924.091022 1153.44 
L 924.091022 1153.44 
L 906.81548 1153.44 
L 906.81548 1153.44 
L 889.539938 1153.44 
L 889.539938 1153.44 
L 872.264396 1153.44 
L 872.264396 1153.44 
L 854.988854 1153.44 
L 854.988854 1153.44 
L 837.713313 1153.44 
L 837.713313 1153.44 
L 820.437771 1153.44 
L 820.437771 1153.44 
L 803.162229 1153.44 
L 803.162229 1153.44 
L 785.886687 1153.44 
L 785.886687 1153.44 
L 768.611146 1153.44 
L 768.611146 1153.44 
L 751.335604 1153.44 
L 751.335604 1153.44 
L 734.060062 1153.44 
L 734.060062 1153.44 
L 716.78452 1153.44 
L 716.78452 1153.44 
L 699.508978 1153.44 
L 699.508978 1153.44 
L 682.233437 1153.44 
L 682.233437 1153.44 
L 664.957895 1153.44 
L 664.957895 1153.44 
z
" clip-path="url(#paf3a02464e)" style="fill: #c0c0c0; opacity: 0.5"/>
   </g>
   <g id="matplotlib.axis_15">
    <g id="xtick_27">
     <g id="line2d_77">
      <g>
       <use xlink:href="#m5b0a3932da" x="647.682353" y="1153.44" style="stroke: #000000; stroke-width: 0.8"/>
      </g>
     </g>
     <g id="text_84">
      <!-- 0 -->
      <g transform="translate(641.319853 1175.636875) scale(0.2 -0.2)">
       <use xlink:href="#DejaVuSans-30"/>
      </g>
     </g>
    </g>
    <g id="xtick_28">
     <g id="line2d_78">
      <g>
       <use xlink:href="#m5b0a3932da" x="741.463866" y="1153.44" style="stroke: #000000; stroke-width: 0.8"/>
      </g>
     </g>
     <g id="text_85">
      <!-- 2 -->
      <g transform="translate(735.101366 1175.636875) scale(0.2 -0.2)">
       <use xlink:href="#DejaVuSans-32"/>
      </g>
     </g>
    </g>
    <g id="xtick_29">
     <g id="line2d_79">
      <g>
       <use xlink:href="#m5b0a3932da" x="835.245378" y="1153.44" style="stroke: #000000; stroke-width: 0.8"/>
      </g>
     </g>
     <g id="text_86">
      <!-- 4 -->
      <g transform="translate(828.882878 1175.636875) scale(0.2 -0.2)">
       <use xlink:href="#DejaVuSans-34"/>
      </g>
     </g>
    </g>
    <g id="xtick_30">
     <g id="line2d_80">
      <g>
       <use xlink:href="#m5b0a3932da" x="929.026891" y="1153.44" style="stroke: #000000; stroke-width: 0.8"/>
      </g>
     </g>
     <g id="text_87">
      <!-- 6 -->
      <g transform="translate(922.664391 1175.636875) scale(0.2 -0.2)">
       <use xlink:href="#DejaVuSans-36"/>
      </g>
     </g>
    </g>
    <g id="text_88">
     <!-- $x$ -->
     <g transform="translate(805.8 1198.993125) scale(0.2 -0.2)">
      <use xlink:href="#DejaVuSans-Oblique-78" transform="translate(0 0.3125)"/>
     </g>
    </g>
   </g>
   <g id="matplotlib.axis_16">
    <g id="ytick_44">
     <g id="line2d_81">
      <g>
       <use xlink:href="#mc829decb60" x="631.270588" y="1153.44" style="stroke: #000000; stroke-width: 0.8"/>
      </g>
     </g>
     <g id="text_89">
      <!-- 0 -->
      <g transform="translate(611.545588 1161.038438) scale(0.2 -0.2)">
       <use xlink:href="#DejaVuSans-30"/>
      </g>
     </g>
    </g>
    <g id="ytick_45">
     <g id="line2d_82">
      <g>
       <use xlink:href="#mc829decb60" x="631.270588" y="1095.685989" style="stroke: #000000; stroke-width: 0.8"/>
      </g>
     </g>
     <g id="text_90">
      <!-- 50 -->
      <g transform="translate(598.820588 1103.284427) scale(0.2 -0.2)">
       <use xlink:href="#DejaVuSans-35"/>
       <use xlink:href="#DejaVuSans-30" x="63.623047"/>
      </g>
     </g>
    </g>
    <g id="ytick_46">
     <g id="line2d_83">
      <g>
       <use xlink:href="#mc829decb60" x="631.270588" y="1037.931979" style="stroke: #000000; stroke-width: 0.8"/>
      </g>
     </g>
     <g id="text_91">
      <!-- 100 -->
      <g transform="translate(586.095588 1045.530416) scale(0.2 -0.2)">
       <use xlink:href="#DejaVuSans-31"/>
       <use xlink:href="#DejaVuSans-30" x="63.623047"/>
       <use xlink:href="#DejaVuSans-30" x="127.246094"/>
      </g>
     </g>
    </g>
    <g id="ytick_47">
     <g id="line2d_84">
      <g>
       <use xlink:href="#mc829decb60" x="631.270588" y="980.177968" style="stroke: #000000; stroke-width: 0.8"/>
      </g>
     </g>
     <g id="text_92">
      <!-- 150 -->
      <g transform="translate(586.095588 987.776405) scale(0.2 -0.2)">
       <use xlink:href="#DejaVuSans-31"/>
       <use xlink:href="#DejaVuSans-35" x="63.623047"/>
       <use xlink:href="#DejaVuSans-30" x="127.246094"/>
      </g>
     </g>
    </g>
    <g id="ytick_48">
     <g id="line2d_85">
      <g>
       <use xlink:href="#mc829decb60" x="631.270588" y="922.423957" style="stroke: #000000; stroke-width: 0.8"/>
      </g>
     </g>
     <g id="text_93">
      <!-- 200 -->
      <g transform="translate(586.095588 930.022395) scale(0.2 -0.2)">
       <use xlink:href="#DejaVuSans-32"/>
       <use xlink:href="#DejaVuSans-30" x="63.623047"/>
       <use xlink:href="#DejaVuSans-30" x="127.246094"/>
      </g>
     </g>
    </g>
    <g id="ytick_49">
     <g id="line2d_86">
      <g>
       <use xlink:href="#mc829decb60" x="631.270588" y="864.669947" style="stroke: #000000; stroke-width: 0.8"/>
      </g>
     </g>
     <g id="text_94">
      <!-- 250 -->
      <g transform="translate(586.095588 872.268384) scale(0.2 -0.2)">
       <use xlink:href="#DejaVuSans-32"/>
       <use xlink:href="#DejaVuSans-35" x="63.623047"/>
       <use xlink:href="#DejaVuSans-30" x="127.246094"/>
      </g>
     </g>
    </g>
    <g id="text_95">
     <!-- Ocurrencia -->
     <g transform="translate(577.936213 1061.112059) rotate(-90) scale(0.2 -0.2)">
      <use xlink:href="#DejaVuSans-4f"/>
      <use xlink:href="#DejaVuSans-63" x="78.710938"/>
      <use xlink:href="#DejaVuSans-75" x="133.691406"/>
      <use xlink:href="#DejaVuSans-72" x="197.070312"/>
      <use xlink:href="#DejaVuSans-72" x="236.433594"/>
      <use xlink:href="#DejaVuSans-65" x="275.296875"/>
      <use xlink:href="#DejaVuSans-6e" x="336.820312"/>
      <use xlink:href="#DejaVuSans-63" x="400.199219"/>
      <use xlink:href="#DejaVuSans-69" x="455.179688"/>
      <use xlink:href="#DejaVuSans-61" x="482.962891"/>
     </g>
    </g>
   </g>
   <g id="line2d_87">
    <path d="M 647.682353 1152.016973 
L 652.405163 1151.122434 
L 654.766568 1150.509053 
L 657.127973 1149.755644 
L 659.489378 1148.836453 
L 661.850783 1147.722564 
L 664.212188 1146.381904 
L 666.573593 1144.779332 
L 668.934998 1142.876865 
L 671.296403 1140.634049 
L 673.657808 1138.008489 
L 676.019213 1134.956567 
L 678.380618 1131.43434 
L 680.742023 1127.398634 
L 683.103428 1122.808329 
L 685.464833 1117.625803 
L 687.826238 1111.818539 
L 690.187643 1105.360825 
L 692.549048 1098.235525 
L 694.910453 1090.435852 
L 697.271858 1081.96707 
L 699.633263 1072.848059 
L 701.994668 1063.112658 
L 704.356073 1052.810705 
L 709.078883 1030.789993 
L 716.163098 995.710043 
L 720.885908 972.458919 
L 723.247313 961.325983 
L 725.608718 950.73591 
L 727.970123 940.849647 
L 730.331528 931.823454 
L 732.692933 923.804836 
L 735.054338 916.92854 
L 737.415743 911.312805 
L 739.777148 907.055981 
L 742.138553 904.233661 
L 744.499958 902.896454 
L 746.861363 903.068473 
L 749.222768 904.74661 
L 751.584173 907.900634 
L 753.945578 912.474092 
L 756.306983 918.385993 
L 758.668388 925.53319 
L 761.029793 933.793378 
L 763.391198 943.028565 
L 765.752603 953.088899 
L 770.475413 975.050505 
L 784.643843 1044.505878 
L 787.005248 1055.200851 
L 789.366653 1065.379158 
L 791.728058 1074.978129 
L 794.089463 1083.951639 
L 796.450868 1092.269355 
L 798.812273 1099.915621 
L 801.173678 1106.888058 
L 803.535083 1113.195962 
L 805.896488 1118.858575 
L 808.257893 1123.903312 
L 810.619298 1128.363998 
L 812.980702 1132.279185 
L 815.342107 1135.690585 
L 817.703512 1138.64165 
L 820.064917 1141.176339 
L 822.426322 1143.338065 
L 824.787727 1145.168837 
L 827.149132 1146.708588 
L 829.510537 1147.994681 
L 831.871942 1149.061573 
L 834.233347 1149.940625 
L 836.594752 1150.660028 
L 841.317562 1151.717049 
L 846.040372 1152.397644 
L 850.763182 1152.824442 
L 857.847397 1153.173019 
L 867.293017 1153.359453 
L 886.184257 1153.434513 
L 975.917647 1153.44 
L 975.917647 1153.44 
" clip-path="url(#paf3a02464e)" style="fill: none; stroke: #ff0000; stroke-width: 1.5; stroke-linecap: square"/>
   </g>
   <g id="patch_46">
    <path d="M 631.270588 1153.44 
L 631.270588 859.934118 
" style="fill: none; stroke: #000000; stroke-width: 0.8; stroke-linejoin: miter; stroke-linecap: square"/>
   </g>
   <g id="patch_47">
    <path d="M 992.329412 1153.44 
L 992.329412 859.934118 
" style="fill: none; stroke: #000000; stroke-width: 0.8; stroke-linejoin: miter; stroke-linecap: square"/>
   </g>
   <g id="patch_48">
    <path d="M 631.270588 1153.44 
L 992.329412 1153.44 
" style="fill: none; stroke: #000000; stroke-width: 0.8; stroke-linejoin: miter; stroke-linecap: square"/>
   </g>
   <g id="patch_49">
    <path d="M 631.270588 859.934118 
L 992.329412 859.934118 
" style="fill: none; stroke: #000000; stroke-width: 0.8; stroke-linejoin: miter; stroke-linecap: square"/>
   </g>
  </g>
  <g id="axes_9">
   <g id="patch_50">
    <path d="M 1064.541176 1153.44 
L 1425.6 1153.44 
L 1425.6 859.934118 
L 1064.541176 859.934118 
z
" style="fill: #ffffff"/>
   </g>
   <g id="patch_51">
    <path d="M 1080.952941 1153.44 
L 1080.952941 1153.44 
L 1098.228483 1153.44 
L 1098.228483 1153.44 
L 1115.504025 1153.44 
L 1115.504025 1153.44 
L 1132.779567 1153.44 
L 1132.779567 1151.336422 
L 1150.055108 1151.336422 
L 1150.055108 1069.296898 
L 1167.33065 1069.296898 
L 1167.33065 891.544595 
L 1184.606192 891.544595 
L 1184.606192 990.938634 
L 1201.881734 990.938634 
L 1201.881734 1138.189063 
L 1219.157276 1138.189063 
L 1219.157276 1153.44 
L 1236.432817 1153.44 
L 1236.432817 1153.44 
L 1253.708359 1153.44 
L 1253.708359 1153.44 
L 1270.983901 1153.44 
L 1270.983901 1153.44 
L 1288.259443 1153.44 
L 1288.259443 1153.44 
L 1305.534985 1153.44 
L 1305.534985 1153.44 
L 1322.810526 1153.44 
L 1322.810526 1153.44 
L 1340.086068 1153.44 
L 1340.086068 1153.44 
L 1357.36161 1153.44 
L 1357.36161 1153.44 
L 1374.637152 1153.44 
L 1374.637152 1153.44 
L 1391.912693 1153.44 
L 1391.912693 1153.44 
L 1409.188235 1153.44 
L 1409.188235 1153.44 
L 1391.912693 1153.44 
L 1391.912693 1153.44 
L 1374.637152 1153.44 
L 1374.637152 1153.44 
L 1357.36161 1153.44 
L 1357.36161 1153.44 
L 1340.086068 1153.44 
L 1340.086068 1153.44 
L 1322.810526 1153.44 
L 1322.810526 1153.44 
L 1305.534985 1153.44 
L 1305.534985 1153.44 
L 1288.259443 1153.44 
L 1288.259443 1153.44 
L 1270.983901 1153.44 
L 1270.983901 1153.44 
L 1253.708359 1153.44 
L 1253.708359 1153.44 
L 1236.432817 1153.44 
L 1236.432817 1153.44 
L 1219.157276 1153.44 
L 1219.157276 1153.44 
L 1201.881734 1153.44 
L 1201.881734 1153.44 
L 1184.606192 1153.44 
L 1184.606192 1153.44 
L 1167.33065 1153.44 
L 1167.33065 1153.44 
L 1150.055108 1153.44 
L 1150.055108 1153.44 
L 1132.779567 1153.44 
L 1132.779567 1153.44 
L 1115.504025 1153.44 
L 1115.504025 1153.44 
L 1098.228483 1153.44 
L 1098.228483 1153.44 
z
" clip-path="url(#pbad1647289)" style="fill: #c0c0c0; opacity: 0.5"/>
   </g>
   <g id="matplotlib.axis_17">
    <g id="xtick_31">
     <g id="line2d_88">
      <g>
       <use xlink:href="#m5b0a3932da" x="1080.952941" y="1153.44" style="stroke: #000000; stroke-width: 0.8"/>
      </g>
     </g>
     <g id="text_96">
      <!-- 0 -->
      <g transform="translate(1074.590441 1175.636875) scale(0.2 -0.2)">
       <use xlink:href="#DejaVuSans-30"/>
      </g>
     </g>
    </g>
    <g id="xtick_32">
     <g id="line2d_89">
      <g>
       <use xlink:href="#m5b0a3932da" x="1174.734454" y="1153.44" style="stroke: #000000; stroke-width: 0.8"/>
      </g>
     </g>
     <g id="text_97">
      <!-- 2 -->
      <g transform="translate(1168.371954 1175.636875) scale(0.2 -0.2)">
       <use xlink:href="#DejaVuSans-32"/>
      </g>
     </g>
    </g>
    <g id="xtick_33">
     <g id="line2d_90">
      <g>
       <use xlink:href="#m5b0a3932da" x="1268.515966" y="1153.44" style="stroke: #000000; stroke-width: 0.8"/>
      </g>
     </g>
     <g id="text_98">
      <!-- 4 -->
      <g transform="translate(1262.153466 1175.636875) scale(0.2 -0.2)">
       <use xlink:href="#DejaVuSans-34"/>
      </g>
     </g>
    </g>
    <g id="xtick_34">
     <g id="line2d_91">
      <g>
       <use xlink:href="#m5b0a3932da" x="1362.297479" y="1153.44" style="stroke: #000000; stroke-width: 0.8"/>
      </g>
     </g>
     <g id="text_99">
      <!-- 6 -->
      <g transform="translate(1355.934979 1175.636875) scale(0.2 -0.2)">
       <use xlink:href="#DejaVuSans-36"/>
      </g>
     </g>
    </g>
    <g id="text_100">
     <!-- $x$ -->
     <g transform="translate(1239.070588 1198.993125) scale(0.2 -0.2)">
      <use xlink:href="#DejaVuSans-Oblique-78" transform="translate(0 0.3125)"/>
     </g>
    </g>
   </g>
   <g id="matplotlib.axis_18">
    <g id="ytick_50">
     <g id="line2d_92">
      <g>
       <use xlink:href="#mc829decb60" x="1064.541176" y="1153.44" style="stroke: #000000; stroke-width: 0.8"/>
      </g>
     </g>
     <g id="text_101">
      <!-- 0 -->
      <g transform="translate(1044.816176 1161.038438) scale(0.2 -0.2)">
       <use xlink:href="#DejaVuSans-30"/>
      </g>
     </g>
    </g>
    <g id="ytick_51">
     <g id="line2d_93">
      <g>
       <use xlink:href="#mc829decb60" x="1064.541176" y="1100.850561" style="stroke: #000000; stroke-width: 0.8"/>
      </g>
     </g>
     <g id="text_102">
      <!-- 100 -->
      <g transform="translate(1019.366176 1108.448999) scale(0.2 -0.2)">
       <use xlink:href="#DejaVuSans-31"/>
       <use xlink:href="#DejaVuSans-30" x="63.623047"/>
       <use xlink:href="#DejaVuSans-30" x="127.246094"/>
      </g>
     </g>
    </g>
    <g id="ytick_52">
     <g id="line2d_94">
      <g>
       <use xlink:href="#mc829decb60" x="1064.541176" y="1048.261122" style="stroke: #000000; stroke-width: 0.8"/>
      </g>
     </g>
     <g id="text_103">
      <!-- 200 -->
      <g transform="translate(1019.366176 1055.85956) scale(0.2 -0.2)">
       <use xlink:href="#DejaVuSans-32"/>
       <use xlink:href="#DejaVuSans-30" x="63.623047"/>
       <use xlink:href="#DejaVuSans-30" x="127.246094"/>
      </g>
     </g>
    </g>
    <g id="ytick_53">
     <g id="line2d_95">
      <g>
       <use xlink:href="#mc829decb60" x="1064.541176" y="995.671684" style="stroke: #000000; stroke-width: 0.8"/>
      </g>
     </g>
     <g id="text_104">
      <!-- 300 -->
      <g transform="translate(1019.366176 1003.270121) scale(0.2 -0.2)">
       <use xlink:href="#DejaVuSans-33"/>
       <use xlink:href="#DejaVuSans-30" x="63.623047"/>
       <use xlink:href="#DejaVuSans-30" x="127.246094"/>
      </g>
     </g>
    </g>
    <g id="ytick_54">
     <g id="line2d_96">
      <g>
       <use xlink:href="#mc829decb60" x="1064.541176" y="943.082245" style="stroke: #000000; stroke-width: 0.8"/>
      </g>
     </g>
     <g id="text_105">
      <!-- 400 -->
      <g transform="translate(1019.366176 950.680682) scale(0.2 -0.2)">
       <use xlink:href="#DejaVuSans-34"/>
       <use xlink:href="#DejaVuSans-30" x="63.623047"/>
       <use xlink:href="#DejaVuSans-30" x="127.246094"/>
      </g>
     </g>
    </g>
    <g id="ytick_55">
     <g id="line2d_97">
      <g>
       <use xlink:href="#mc829decb60" x="1064.541176" y="890.492806" style="stroke: #000000; stroke-width: 0.8"/>
      </g>
     </g>
     <g id="text_106">
      <!-- 500 -->
      <g transform="translate(1019.366176 898.091244) scale(0.2 -0.2)">
       <use xlink:href="#DejaVuSans-35"/>
       <use xlink:href="#DejaVuSans-30" x="63.623047"/>
       <use xlink:href="#DejaVuSans-30" x="127.246094"/>
      </g>
     </g>
    </g>
    <g id="text_107">
     <!-- Ocurrencia -->
     <g transform="translate(1011.206801 1061.112059) rotate(-90) scale(0.2 -0.2)">
      <use xlink:href="#DejaVuSans-4f"/>
      <use xlink:href="#DejaVuSans-63" x="78.710938"/>
      <use xlink:href="#DejaVuSans-75" x="133.691406"/>
      <use xlink:href="#DejaVuSans-72" x="197.070312"/>
      <use xlink:href="#DejaVuSans-72" x="236.433594"/>
      <use xlink:href="#DejaVuSans-65" x="275.296875"/>
      <use xlink:href="#DejaVuSans-6e" x="336.820312"/>
      <use xlink:href="#DejaVuSans-63" x="400.199219"/>
      <use xlink:href="#DejaVuSans-69" x="455.179688"/>
      <use xlink:href="#DejaVuSans-61" x="482.962891"/>
     </g>
    </g>
   </g>
   <g id="line2d_98">
    <path d="M 1080.952941 1153.44 
L 1130.542446 1153.342145 
L 1135.265256 1153.024408 
L 1137.626661 1152.628839 
L 1139.988066 1151.913093 
L 1142.349471 1150.668063 
L 1144.710876 1148.586893 
L 1147.072281 1145.245512 
L 1149.433686 1140.0959 
L 1151.795091 1132.483331 
L 1154.156496 1121.69899 
L 1156.517901 1107.075591 
L 1158.879306 1088.124806 
L 1161.240711 1064.702084 
L 1163.602116 1037.169447 
L 1165.963521 1006.514981 
L 1170.686331 942.992238 
L 1173.047736 914.896904 
L 1175.409141 892.671639 
L 1177.770546 878.518661 
L 1180.131951 873.910588 
L 1182.493356 879.33808 
L 1184.854761 894.223792 
L 1187.216166 917.023527 
L 1189.577571 945.490049 
L 1196.661786 1039.57372 
L 1199.023191 1066.796049 
L 1201.384596 1089.856142 
L 1203.746001 1108.43912 
L 1206.107406 1122.724284 
L 1208.468811 1133.220715 
L 1210.830216 1140.603801 
L 1213.191621 1145.580904 
L 1215.553026 1148.799399 
L 1217.914431 1150.797339 
L 1220.275836 1151.988643 
L 1222.637241 1152.671273 
L 1224.998646 1153.047323 
L 1229.721456 1153.348091 
L 1239.167076 1153.43674 
L 1376.128565 1153.44 
L 1409.188235 1153.44 
L 1409.188235 1153.44 
" clip-path="url(#pbad1647289)" style="fill: none; stroke: #ff0000; stroke-width: 1.5; stroke-linecap: square"/>
   </g>
   <g id="patch_52">
    <path d="M 1064.541176 1153.44 
L 1064.541176 859.934118 
" style="fill: none; stroke: #000000; stroke-width: 0.8; stroke-linejoin: miter; stroke-linecap: square"/>
   </g>
   <g id="patch_53">
    <path d="M 1425.6 1153.44 
L 1425.6 859.934118 
" style="fill: none; stroke: #000000; stroke-width: 0.8; stroke-linejoin: miter; stroke-linecap: square"/>
   </g>
   <g id="patch_54">
    <path d="M 1064.541176 1153.44 
L 1425.6 1153.44 
" style="fill: none; stroke: #000000; stroke-width: 0.8; stroke-linejoin: miter; stroke-linecap: square"/>
   </g>
   <g id="patch_55">
    <path d="M 1064.541176 859.934118 
L 1425.6 859.934118 
" style="fill: none; stroke: #000000; stroke-width: 0.8; stroke-linejoin: miter; stroke-linecap: square"/>
   </g>
  </g>
 </g>
 <defs>
  <clipPath id="p8d2e18e09d">
   <rect x="198" y="155.52" width="361.058824" height="293.505882"/>
  </clipPath>
  <clipPath id="p39e44986ef">
   <rect x="631.270588" y="155.52" width="361.058824" height="293.505882"/>
  </clipPath>
  <clipPath id="p7946bfbf32">
   <rect x="1064.541176" y="155.52" width="361.058824" height="293.505882"/>
  </clipPath>
  <clipPath id="p547fa17c2b">
   <rect x="198" y="507.727059" width="361.058824" height="293.505882"/>
  </clipPath>
  <clipPath id="p1f8de3c73d">
   <rect x="631.270588" y="507.727059" width="361.058824" height="293.505882"/>
  </clipPath>
  <clipPath id="p4b474c8538">
   <rect x="1064.541176" y="507.727059" width="361.058824" height="293.505882"/>
  </clipPath>
  <clipPath id="p509e9abab3">
   <rect x="198" y="859.934118" width="361.058824" height="293.505882"/>
  </clipPath>
  <clipPath id="paf3a02464e">
   <rect x="631.270588" y="859.934118" width="361.058824" height="293.505882"/>
  </clipPath>
  <clipPath id="pbad1647289">
   <rect x="1064.541176" y="859.934118" width="361.058824" height="293.505882"/>
  </clipPath>
 </defs>
</svg>
