<?xml version="1.0" encoding="utf-8" standalone="no"?>
<!DOCTYPE svg PUBLIC "-//W3C//DTD SVG 1.1//EN"
  "http://www.w3.org/Graphics/SVG/1.1/DTD/svg11.dtd">
<svg xmlns:xlink="http://www.w3.org/1999/xlink" width="1152pt" height="576pt" viewBox="0 0 1152 576" xmlns="http://www.w3.org/2000/svg" version="1.1">
 <metadata>
  <rdf:RDF xmlns:dc="http://purl.org/dc/elements/1.1/" xmlns:cc="http://creativecommons.org/ns#" xmlns:rdf="http://www.w3.org/1999/02/22-rdf-syntax-ns#">
   <cc:Work>
    <dc:type rdf:resource="http://purl.org/dc/dcmitype/StillImage"/>
    <dc:date>2024-02-06T13:09:28.295463</dc:date>
    <dc:format>image/svg+xml</dc:format>
    <dc:creator>
     <cc:Agent>
      <dc:title>Matplotlib v3.7.1, https://matplotlib.org/</dc:title>
     </cc:Agent>
    </dc:creator>
   </cc:Work>
  </rdf:RDF>
 </metadata>
 <defs>
  <style type="text/css">*{stroke-linejoin: round; stroke-linecap: butt}</style>
 </defs>
 <g id="figure_1">
  <g id="patch_1">
   <path d="M 0 576 
L 1152 576 
L 1152 0 
L 0 0 
z
" style="fill: #ffffff"/>
  </g>
  <g id="axes_1">
   <g id="patch_2">
    <path d="M 144 512.64 
L 1036.8 512.64 
L 1036.8 69.12 
L 144 69.12 
z
" style="fill: #ffffff"/>
   </g>
   <g id="matplotlib.axis_1">
    <g id="xtick_1">
     <g id="line2d_1">
      <defs>
       <path id="m5fb4d4f942" d="M 0 0 
L 0 3.5 
" style="stroke: #000000; stroke-width: 0.8"/>
      </defs>
      <g>
       <use xlink:href="#m5fb4d4f942" x="184.581818" y="512.64" style="stroke: #000000; stroke-width: 0.8"/>
      </g>
     </g>
     <g id="text_1">
      <!-- 0 -->
      <g transform="translate(179.491818 531.7975) scale(0.16 -0.16)">
       <defs>
        <path id="DejaVuSans-30" d="M 2034 4250 
Q 1547 4250 1301 3770 
Q 1056 3291 1056 2328 
Q 1056 1369 1301 889 
Q 1547 409 2034 409 
Q 2525 409 2770 889 
Q 3016 1369 3016 2328 
Q 3016 3291 2770 3770 
Q 2525 4250 2034 4250 
z
M 2034 4750 
Q 2819 4750 3233 4129 
Q 3647 3509 3647 2328 
Q 3647 1150 3233 529 
Q 2819 -91 2034 -91 
Q 1250 -91 836 529 
Q 422 1150 422 2328 
Q 422 3509 836 4129 
Q 1250 4750 2034 4750 
z
" transform="scale(0.015625)"/>
       </defs>
       <use xlink:href="#DejaVuSans-30"/>
      </g>
     </g>
    </g>
    <g id="xtick_2">
     <g id="line2d_2">
      <g>
       <use xlink:href="#m5fb4d4f942" x="346.909091" y="512.64" style="stroke: #000000; stroke-width: 0.8"/>
      </g>
     </g>
     <g id="text_2">
      <!-- 2 -->
      <g transform="translate(341.819091 531.7975) scale(0.16 -0.16)">
       <defs>
        <path id="DejaVuSans-32" d="M 1228 531 
L 3431 531 
L 3431 0 
L 469 0 
L 469 531 
Q 828 903 1448 1529 
Q 2069 2156 2228 2338 
Q 2531 2678 2651 2914 
Q 2772 3150 2772 3378 
Q 2772 3750 2511 3984 
Q 2250 4219 1831 4219 
Q 1534 4219 1204 4116 
Q 875 4013 500 3803 
L 500 4441 
Q 881 4594 1212 4672 
Q 1544 4750 1819 4750 
Q 2544 4750 2975 4387 
Q 3406 4025 3406 3419 
Q 3406 3131 3298 2873 
Q 3191 2616 2906 2266 
Q 2828 2175 2409 1742 
Q 1991 1309 1228 531 
z
" transform="scale(0.015625)"/>
       </defs>
       <use xlink:href="#DejaVuSans-32"/>
      </g>
     </g>
    </g>
    <g id="xtick_3">
     <g id="line2d_3">
      <g>
       <use xlink:href="#m5fb4d4f942" x="509.236364" y="512.64" style="stroke: #000000; stroke-width: 0.8"/>
      </g>
     </g>
     <g id="text_3">
      <!-- 4 -->
      <g transform="translate(504.146364 531.7975) scale(0.16 -0.16)">
       <defs>
        <path id="DejaVuSans-34" d="M 2419 4116 
L 825 1625 
L 2419 1625 
L 2419 4116 
z
M 2253 4666 
L 3047 4666 
L 3047 1625 
L 3713 1625 
L 3713 1100 
L 3047 1100 
L 3047 0 
L 2419 0 
L 2419 1100 
L 313 1100 
L 313 1709 
L 2253 4666 
z
" transform="scale(0.015625)"/>
       </defs>
       <use xlink:href="#DejaVuSans-34"/>
      </g>
     </g>
    </g>
    <g id="xtick_4">
     <g id="line2d_4">
      <g>
       <use xlink:href="#m5fb4d4f942" x="671.563636" y="512.64" style="stroke: #000000; stroke-width: 0.8"/>
      </g>
     </g>
     <g id="text_4">
      <!-- 6 -->
      <g transform="translate(666.473636 531.7975) scale(0.16 -0.16)">
       <defs>
        <path id="DejaVuSans-36" d="M 2113 2584 
Q 1688 2584 1439 2293 
Q 1191 2003 1191 1497 
Q 1191 994 1439 701 
Q 1688 409 2113 409 
Q 2538 409 2786 701 
Q 3034 994 3034 1497 
Q 3034 2003 2786 2293 
Q 2538 2584 2113 2584 
z
M 3366 4563 
L 3366 3988 
Q 3128 4100 2886 4159 
Q 2644 4219 2406 4219 
Q 1781 4219 1451 3797 
Q 1122 3375 1075 2522 
Q 1259 2794 1537 2939 
Q 1816 3084 2150 3084 
Q 2853 3084 3261 2657 
Q 3669 2231 3669 1497 
Q 3669 778 3244 343 
Q 2819 -91 2113 -91 
Q 1303 -91 875 529 
Q 447 1150 447 2328 
Q 447 3434 972 4092 
Q 1497 4750 2381 4750 
Q 2619 4750 2861 4703 
Q 3103 4656 3366 4563 
z
" transform="scale(0.015625)"/>
       </defs>
       <use xlink:href="#DejaVuSans-36"/>
      </g>
     </g>
    </g>
    <g id="xtick_5">
     <g id="line2d_5">
      <g>
       <use xlink:href="#m5fb4d4f942" x="833.890909" y="512.64" style="stroke: #000000; stroke-width: 0.8"/>
      </g>
     </g>
     <g id="text_5">
      <!-- 8 -->
      <g transform="translate(828.800909 531.7975) scale(0.16 -0.16)">
       <defs>
        <path id="DejaVuSans-38" d="M 2034 2216 
Q 1584 2216 1326 1975 
Q 1069 1734 1069 1313 
Q 1069 891 1326 650 
Q 1584 409 2034 409 
Q 2484 409 2743 651 
Q 3003 894 3003 1313 
Q 3003 1734 2745 1975 
Q 2488 2216 2034 2216 
z
M 1403 2484 
Q 997 2584 770 2862 
Q 544 3141 544 3541 
Q 544 4100 942 4425 
Q 1341 4750 2034 4750 
Q 2731 4750 3128 4425 
Q 3525 4100 3525 3541 
Q 3525 3141 3298 2862 
Q 3072 2584 2669 2484 
Q 3125 2378 3379 2068 
Q 3634 1759 3634 1313 
Q 3634 634 3220 271 
Q 2806 -91 2034 -91 
Q 1263 -91 848 271 
Q 434 634 434 1313 
Q 434 1759 690 2068 
Q 947 2378 1403 2484 
z
M 1172 3481 
Q 1172 3119 1398 2916 
Q 1625 2713 2034 2713 
Q 2441 2713 2670 2916 
Q 2900 3119 2900 3481 
Q 2900 3844 2670 4047 
Q 2441 4250 2034 4250 
Q 1625 4250 1398 4047 
Q 1172 3844 1172 3481 
z
" transform="scale(0.015625)"/>
       </defs>
       <use xlink:href="#DejaVuSans-38"/>
      </g>
     </g>
    </g>
    <g id="xtick_6">
     <g id="line2d_6">
      <g>
       <use xlink:href="#m5fb4d4f942" x="996.218182" y="512.64" style="stroke: #000000; stroke-width: 0.8"/>
      </g>
     </g>
     <g id="text_6">
      <!-- 10 -->
      <g transform="translate(986.038182 531.7975) scale(0.16 -0.16)">
       <defs>
        <path id="DejaVuSans-31" d="M 794 531 
L 1825 531 
L 1825 4091 
L 703 3866 
L 703 4441 
L 1819 4666 
L 2450 4666 
L 2450 531 
L 3481 531 
L 3481 0 
L 794 0 
L 794 531 
z
" transform="scale(0.015625)"/>
       </defs>
       <use xlink:href="#DejaVuSans-31"/>
       <use xlink:href="#DejaVuSans-30" x="63.623047"/>
      </g>
     </g>
    </g>
    <g id="text_7">
     <!-- $x$ -->
     <g transform="translate(585.6 551.2825) scale(0.16 -0.16)">
      <defs>
       <path id="DejaVuSans-Oblique-78" d="M 3841 3500 
L 2234 1784 
L 3219 0 
L 2559 0 
L 1819 1388 
L 531 0 
L -166 0 
L 1556 1844 
L 641 3500 
L 1300 3500 
L 1972 2234 
L 3144 3500 
L 3841 3500 
z
" transform="scale(0.015625)"/>
      </defs>
      <use xlink:href="#DejaVuSans-Oblique-78" transform="translate(0 0.3125)"/>
     </g>
    </g>
   </g>
   <g id="matplotlib.axis_2">
    <g id="ytick_1">
     <g id="line2d_7">
      <defs>
       <path id="m8e07816085" d="M 0 0 
L -3.5 0 
" style="stroke: #000000; stroke-width: 0.8"/>
      </defs>
      <g>
       <use xlink:href="#m8e07816085" x="144" y="492.48" style="stroke: #000000; stroke-width: 0.8"/>
      </g>
     </g>
     <g id="text_8">
      <!-- 0.00 -->
      <g transform="translate(101.375 498.55875) scale(0.16 -0.16)">
       <defs>
        <path id="DejaVuSans-2e" d="M 684 794 
L 1344 794 
L 1344 0 
L 684 0 
L 684 794 
z
" transform="scale(0.015625)"/>
       </defs>
       <use xlink:href="#DejaVuSans-30"/>
       <use xlink:href="#DejaVuSans-2e" x="63.623047"/>
       <use xlink:href="#DejaVuSans-30" x="95.410156"/>
       <use xlink:href="#DejaVuSans-30" x="159.033203"/>
      </g>
     </g>
    </g>
    <g id="ytick_2">
     <g id="line2d_8">
      <g>
       <use xlink:href="#m8e07816085" x="144" y="432.246099" style="stroke: #000000; stroke-width: 0.8"/>
      </g>
     </g>
     <g id="text_9">
      <!-- 0.05 -->
      <g transform="translate(101.375 438.324849) scale(0.16 -0.16)">
       <defs>
        <path id="DejaVuSans-35" d="M 691 4666 
L 3169 4666 
L 3169 4134 
L 1269 4134 
L 1269 2991 
Q 1406 3038 1543 3061 
Q 1681 3084 1819 3084 
Q 2600 3084 3056 2656 
Q 3513 2228 3513 1497 
Q 3513 744 3044 326 
Q 2575 -91 1722 -91 
Q 1428 -91 1123 -41 
Q 819 9 494 109 
L 494 744 
Q 775 591 1075 516 
Q 1375 441 1709 441 
Q 2250 441 2565 725 
Q 2881 1009 2881 1497 
Q 2881 1984 2565 2268 
Q 2250 2553 1709 2553 
Q 1456 2553 1204 2497 
Q 953 2441 691 2322 
L 691 4666 
z
" transform="scale(0.015625)"/>
       </defs>
       <use xlink:href="#DejaVuSans-30"/>
       <use xlink:href="#DejaVuSans-2e" x="63.623047"/>
       <use xlink:href="#DejaVuSans-30" x="95.410156"/>
       <use xlink:href="#DejaVuSans-35" x="159.033203"/>
      </g>
     </g>
    </g>
    <g id="ytick_3">
     <g id="line2d_9">
      <g>
       <use xlink:href="#m8e07816085" x="144" y="372.012198" style="stroke: #000000; stroke-width: 0.8"/>
      </g>
     </g>
     <g id="text_10">
      <!-- 0.10 -->
      <g transform="translate(101.375 378.090948) scale(0.16 -0.16)">
       <use xlink:href="#DejaVuSans-30"/>
       <use xlink:href="#DejaVuSans-2e" x="63.623047"/>
       <use xlink:href="#DejaVuSans-31" x="95.410156"/>
       <use xlink:href="#DejaVuSans-30" x="159.033203"/>
      </g>
     </g>
    </g>
    <g id="ytick_4">
     <g id="line2d_10">
      <g>
       <use xlink:href="#m8e07816085" x="144" y="311.778297" style="stroke: #000000; stroke-width: 0.8"/>
      </g>
     </g>
     <g id="text_11">
      <!-- 0.15 -->
      <g transform="translate(101.375 317.857047) scale(0.16 -0.16)">
       <use xlink:href="#DejaVuSans-30"/>
       <use xlink:href="#DejaVuSans-2e" x="63.623047"/>
       <use xlink:href="#DejaVuSans-31" x="95.410156"/>
       <use xlink:href="#DejaVuSans-35" x="159.033203"/>
      </g>
     </g>
    </g>
    <g id="ytick_5">
     <g id="line2d_11">
      <g>
       <use xlink:href="#m8e07816085" x="144" y="251.544396" style="stroke: #000000; stroke-width: 0.8"/>
      </g>
     </g>
     <g id="text_12">
      <!-- 0.20 -->
      <g transform="translate(101.375 257.623146) scale(0.16 -0.16)">
       <use xlink:href="#DejaVuSans-30"/>
       <use xlink:href="#DejaVuSans-2e" x="63.623047"/>
       <use xlink:href="#DejaVuSans-32" x="95.410156"/>
       <use xlink:href="#DejaVuSans-30" x="159.033203"/>
      </g>
     </g>
    </g>
    <g id="ytick_6">
     <g id="line2d_12">
      <g>
       <use xlink:href="#m8e07816085" x="144" y="191.310494" style="stroke: #000000; stroke-width: 0.8"/>
      </g>
     </g>
     <g id="text_13">
      <!-- 0.25 -->
      <g transform="translate(101.375 197.389244) scale(0.16 -0.16)">
       <use xlink:href="#DejaVuSans-30"/>
       <use xlink:href="#DejaVuSans-2e" x="63.623047"/>
       <use xlink:href="#DejaVuSans-32" x="95.410156"/>
       <use xlink:href="#DejaVuSans-35" x="159.033203"/>
      </g>
     </g>
    </g>
    <g id="ytick_7">
     <g id="line2d_13">
      <g>
       <use xlink:href="#m8e07816085" x="144" y="131.076593" style="stroke: #000000; stroke-width: 0.8"/>
      </g>
     </g>
     <g id="text_14">
      <!-- 0.30 -->
      <g transform="translate(101.375 137.155343) scale(0.16 -0.16)">
       <defs>
        <path id="DejaVuSans-33" d="M 2597 2516 
Q 3050 2419 3304 2112 
Q 3559 1806 3559 1356 
Q 3559 666 3084 287 
Q 2609 -91 1734 -91 
Q 1441 -91 1130 -33 
Q 819 25 488 141 
L 488 750 
Q 750 597 1062 519 
Q 1375 441 1716 441 
Q 2309 441 2620 675 
Q 2931 909 2931 1356 
Q 2931 1769 2642 2001 
Q 2353 2234 1838 2234 
L 1294 2234 
L 1294 2753 
L 1863 2753 
Q 2328 2753 2575 2939 
Q 2822 3125 2822 3475 
Q 2822 3834 2567 4026 
Q 2313 4219 1838 4219 
Q 1578 4219 1281 4162 
Q 984 4106 628 3988 
L 628 4550 
Q 988 4650 1302 4700 
Q 1616 4750 1894 4750 
Q 2613 4750 3031 4423 
Q 3450 4097 3450 3541 
Q 3450 3153 3228 2886 
Q 3006 2619 2597 2516 
z
" transform="scale(0.015625)"/>
       </defs>
       <use xlink:href="#DejaVuSans-30"/>
       <use xlink:href="#DejaVuSans-2e" x="63.623047"/>
       <use xlink:href="#DejaVuSans-33" x="95.410156"/>
       <use xlink:href="#DejaVuSans-30" x="159.033203"/>
      </g>
     </g>
    </g>
    <g id="ytick_8">
     <g id="line2d_14">
      <g>
       <use xlink:href="#m8e07816085" x="144" y="70.842692" style="stroke: #000000; stroke-width: 0.8"/>
      </g>
     </g>
     <g id="text_15">
      <!-- 0.35 -->
      <g transform="translate(101.375 76.921442) scale(0.16 -0.16)">
       <use xlink:href="#DejaVuSans-30"/>
       <use xlink:href="#DejaVuSans-2e" x="63.623047"/>
       <use xlink:href="#DejaVuSans-33" x="95.410156"/>
       <use xlink:href="#DejaVuSans-35" x="159.033203"/>
      </g>
     </g>
    </g>
    <g id="text_16">
     <!-- $\wp(x,\mu)$ -->
     <g transform="translate(93.695 316.64) rotate(-90) scale(0.16 -0.16)">
      <defs>
       <path id="DejaVuSans-2118" d="M 1766 3019 
Q 1341 2613 1341 2019 
Q 1341 1778 1438 1444 
Q 1722 1759 2256 2222 
Q 2941 2813 3353 2813 
Q 3763 2813 3981 2575 
Q 4209 2325 4209 1791 
Q 4209 1109 3722 438 
Q 3344 -84 2800 -84 
Q 2484 -84 2247 103 
Q 2303 238 2331 328 
Q 2459 203 2813 203 
Q 3194 203 3484 641 
Q 3700 966 3700 1575 
Q 3700 1963 3581 2188 
Q 3481 2378 3250 2378 
Q 2659 2378 1556 1156 
Q 1978 250 1978 -138 
Q 1978 -628 1763 -972 
Q 1484 -1416 1075 -1416 
Q 722 -1416 541 -1225 
Q 344 -1019 344 -600 
Q 344 234 1041 1022 
Q 897 1516 897 1913 
Q 897 2656 1622 3169 
L 1766 3019 
z
M 1159 716 
Q 756 97 756 -288 
Q 756 -653 853 -797 
Q 1003 -1016 1147 -1019 
Q 1350 -1019 1438 -872 
Q 1538 -709 1538 -413 
Q 1538 -169 1159 716 
z
" transform="scale(0.015625)"/>
       <path id="DejaVuSans-28" d="M 1984 4856 
Q 1566 4138 1362 3434 
Q 1159 2731 1159 2009 
Q 1159 1288 1364 580 
Q 1569 -128 1984 -844 
L 1484 -844 
Q 1016 -109 783 600 
Q 550 1309 550 2009 
Q 550 2706 781 3412 
Q 1013 4119 1484 4856 
L 1984 4856 
z
" transform="scale(0.015625)"/>
       <path id="DejaVuSans-2c" d="M 750 794 
L 1409 794 
L 1409 256 
L 897 -744 
L 494 -744 
L 750 256 
L 750 794 
z
" transform="scale(0.015625)"/>
       <path id="DejaVuSans-Oblique-3bc" d="M -84 -1331 
L 856 3500 
L 1434 3500 
L 1009 1322 
Q 997 1256 987 1175 
Q 978 1094 978 1013 
Q 978 722 1161 565 
Q 1344 409 1684 409 
Q 2147 409 2431 671 
Q 2716 934 2816 1459 
L 3213 3500 
L 3788 3500 
L 3266 809 
Q 3253 750 3248 706 
Q 3244 663 3244 628 
Q 3244 531 3283 486 
Q 3322 441 3406 441 
Q 3438 441 3492 456 
Q 3547 472 3647 513 
L 3559 50 
Q 3422 -19 3297 -55 
Q 3172 -91 3053 -91 
Q 2847 -91 2730 40 
Q 2613 172 2613 403 
Q 2438 153 2195 31 
Q 1953 -91 1625 -91 
Q 1334 -91 1117 43 
Q 900 178 831 397 
L 494 -1331 
L -84 -1331 
z
" transform="scale(0.015625)"/>
       <path id="DejaVuSans-29" d="M 513 4856 
L 1013 4856 
Q 1481 4119 1714 3412 
Q 1947 2706 1947 2009 
Q 1947 1309 1714 600 
Q 1481 -109 1013 -844 
L 513 -844 
Q 928 -128 1133 580 
Q 1338 1288 1338 2009 
Q 1338 2731 1133 3434 
Q 928 4138 513 4856 
z
" transform="scale(0.015625)"/>
      </defs>
      <use xlink:href="#DejaVuSans-2118" transform="translate(0 0.125)"/>
      <use xlink:href="#DejaVuSans-28" transform="translate(69.726562 0.125)"/>
      <use xlink:href="#DejaVuSans-Oblique-78" transform="translate(108.740234 0.125)"/>
      <use xlink:href="#DejaVuSans-2c" transform="translate(167.919922 0.125)"/>
      <use xlink:href="#DejaVuSans-Oblique-3bc" transform="translate(219.189453 0.125)"/>
      <use xlink:href="#DejaVuSans-29" transform="translate(282.8125 0.125)"/>
     </g>
    </g>
   </g>
   <g id="line2d_15">
    <defs>
     <path id="m375490c12b" d="M 0 3.75 
C 0.994512 3.75 1.948425 3.354876 2.65165 2.65165 
C 3.354876 1.948425 3.75 0.994512 3.75 0 
C 3.75 -0.994512 3.354876 -1.948425 2.65165 -2.65165 
C 1.948425 -3.354876 0.994512 -3.75 0 -3.75 
C -0.994512 -3.75 -1.948425 -3.354876 -2.65165 -2.65165 
C -3.354876 -1.948425 -3.75 -0.994512 -3.75 0 
C -3.75 0.994512 -3.354876 1.948425 -2.65165 2.65165 
C -1.948425 3.354876 -0.994512 3.75 0 3.75 
z
" style="stroke: #000000"/>
    </defs>
    <g clip-path="url(#p249c5d38ba)">
     <use xlink:href="#m375490c12b" x="184.581818" y="223.68" style="stroke: #000000"/>
     <use xlink:href="#m375490c12b" x="265.745455" y="89.28" style="stroke: #000000"/>
     <use xlink:href="#m375490c12b" x="346.909091" y="190.08" style="stroke: #000000"/>
     <use xlink:href="#m375490c12b" x="428.072727" y="341.28" style="stroke: #000000"/>
     <use xlink:href="#m375490c12b" x="509.236364" y="435.78" style="stroke: #000000"/>
     <use xlink:href="#m375490c12b" x="590.4" y="475.47" style="stroke: #000000"/>
     <use xlink:href="#m375490c12b" x="671.563636" y="488.2275" style="stroke: #000000"/>
     <use xlink:href="#m375490c12b" x="752.727273" y="491.56875" style="stroke: #000000"/>
     <use xlink:href="#m375490c12b" x="833.890909" y="492.309141" style="stroke: #000000"/>
     <use xlink:href="#m375490c12b" x="915.054545" y="492.451523" style="stroke: #000000"/>
     <use xlink:href="#m375490c12b" x="996.218182" y="492.475729" style="stroke: #000000"/>
    </g>
   </g>
   <g id="line2d_16">
    <path d="M 184.581818 223.68 
L 192.698182 198.242707 
L 200.814545 174.993683 
L 208.930909 154.231122 
L 217.047273 136.182318 
L 225.163636 121.00469 
L 233.28 108.788655 
L 241.396364 99.562022 
L 249.512727 93.295559 
L 257.629091 89.909401 
L 265.745455 89.28 
L 273.861818 91.247328 
L 281.978182 95.622104 
L 290.094545 102.192833 
L 298.210909 110.732484 
L 306.327273 121.00469 
L 314.443636 132.769364 
L 322.56 145.787667 
L 330.676364 159.826299 
L 338.792727 174.661106 
L 346.909091 190.08 
L 355.025455 205.885234 
L 363.141818 221.895071 
L 371.258182 237.944891 
L 379.374545 253.887802 
L 387.490909 269.594814 
L 395.607273 284.954633 
L 403.723636 299.873148 
L 411.84 314.27266 
L 419.956364 328.090917 
L 428.072727 341.28 
L 436.189091 353.805113 
L 444.305455 365.643315 
L 452.421818 376.782223 
L 460.538182 387.218736 
L 468.654545 396.957778 
L 476.770909 406.011097 
L 484.887273 414.396141 
L 493.003636 422.134997 
L 501.12 429.25343 
L 509.236364 435.78 
L 517.352727 441.745285 
L 525.469091 447.181184 
L 533.585455 452.12031 
L 541.701818 456.595478 
L 549.818182 460.639259 
L 557.934545 464.283619 
L 566.050909 467.55962 
L 574.167273 470.497187 
L 582.283636 473.124927 
L 590.4 475.47 
L 598.516364 477.558025 
L 606.632727 479.413034 
L 614.749091 481.057446 
L 622.865455 482.512077 
L 630.981818 483.796162 
L 639.098182 484.927398 
L 647.214545 485.922005 
L 655.330909 486.79479 
L 663.447273 487.559219 
L 671.563636 488.2275 
L 679.68 488.810662 
L 687.796364 489.318637 
L 695.912727 489.760344 
L 704.029091 490.143768 
L 712.145455 490.476037 
L 720.261818 490.7635 
L 728.378182 491.011792 
L 736.494545 491.225909 
L 744.610909 491.410265 
L 752.727273 491.56875 
L 760.843636 491.704788 
L 768.96 491.821383 
L 777.076364 491.921167 
L 785.192727 492.006439 
L 793.309091 492.079207 
L 801.425455 492.141217 
L 809.541818 492.193985 
L 817.658182 492.238829 
L 825.774545 492.276886 
L 833.890909 492.309141 
L 842.007273 492.336442 
L 850.123636 492.359521 
L 858.24 492.379006 
L 866.356364 492.395436 
L 874.472727 492.409272 
L 882.589091 492.42091 
L 890.705455 492.430687 
L 898.821818 492.438891 
L 906.938182 492.445767 
L 915.054545 492.451523 
L 923.170909 492.456337 
L 931.287273 492.460357 
L 939.403636 492.463711 
L 947.52 492.466506 
L 955.636364 492.468832 
L 963.752727 492.470767 
L 971.869091 492.472374 
L 979.985455 492.473708 
L 988.101818 492.474813 
" clip-path="url(#p249c5d38ba)" style="fill: none; stroke: #1f77b4; stroke-width: 1.5; stroke-linecap: square"/>
   </g>
   <g id="LineCollection_1">
    <path d="M 184.581818 492.48 
L 184.581818 223.68 
" clip-path="url(#p249c5d38ba)" style="fill: none; stroke: #000000; stroke-opacity: 0.5; stroke-width: 5"/>
    <path d="M 265.745455 492.48 
L 265.745455 89.28 
" clip-path="url(#p249c5d38ba)" style="fill: none; stroke: #000000; stroke-opacity: 0.5; stroke-width: 5"/>
    <path d="M 346.909091 492.48 
L 346.909091 190.08 
" clip-path="url(#p249c5d38ba)" style="fill: none; stroke: #000000; stroke-opacity: 0.5; stroke-width: 5"/>
    <path d="M 428.072727 492.48 
L 428.072727 341.28 
" clip-path="url(#p249c5d38ba)" style="fill: none; stroke: #000000; stroke-opacity: 0.5; stroke-width: 5"/>
    <path d="M 509.236364 492.48 
L 509.236364 435.78 
" clip-path="url(#p249c5d38ba)" style="fill: none; stroke: #000000; stroke-opacity: 0.5; stroke-width: 5"/>
    <path d="M 590.4 492.48 
L 590.4 475.47 
" clip-path="url(#p249c5d38ba)" style="fill: none; stroke: #000000; stroke-opacity: 0.5; stroke-width: 5"/>
    <path d="M 671.563636 492.48 
L 671.563636 488.2275 
" clip-path="url(#p249c5d38ba)" style="fill: none; stroke: #000000; stroke-opacity: 0.5; stroke-width: 5"/>
    <path d="M 752.727273 492.48 
L 752.727273 491.56875 
" clip-path="url(#p249c5d38ba)" style="fill: none; stroke: #000000; stroke-opacity: 0.5; stroke-width: 5"/>
    <path d="M 833.890909 492.48 
L 833.890909 492.309141 
" clip-path="url(#p249c5d38ba)" style="fill: none; stroke: #000000; stroke-opacity: 0.5; stroke-width: 5"/>
    <path d="M 915.054545 492.48 
L 915.054545 492.451523 
" clip-path="url(#p249c5d38ba)" style="fill: none; stroke: #000000; stroke-opacity: 0.5; stroke-width: 5"/>
    <path d="M 996.218182 492.48 
L 996.218182 492.475729 
" clip-path="url(#p249c5d38ba)" style="fill: none; stroke: #000000; stroke-opacity: 0.5; stroke-width: 5"/>
   </g>
   <g id="line2d_17">
    <path d="M 306.327273 512.64 
L 306.327273 69.12 
" clip-path="url(#p249c5d38ba)" style="fill: none; stroke-dasharray: 7.4,3.2; stroke-dashoffset: 0; stroke: #008000; stroke-width: 2"/>
   </g>
   <g id="line2d_18">
    <path d="M 206.922525 254.473848 
L 405.73202 254.473848 
" clip-path="url(#p249c5d38ba)" style="fill: none; stroke-dasharray: 11.1,4.8; stroke-dashoffset: 0; stroke: #ff0000; stroke-width: 3"/>
   </g>
   <g id="patch_3">
    <path d="M 144 512.64 
L 144 69.12 
" style="fill: none; stroke: #000000; stroke-width: 0.8; stroke-linejoin: miter; stroke-linecap: square"/>
   </g>
   <g id="patch_4">
    <path d="M 1036.8 512.64 
L 1036.8 69.12 
" style="fill: none; stroke: #000000; stroke-width: 0.8; stroke-linejoin: miter; stroke-linecap: square"/>
   </g>
   <g id="patch_5">
    <path d="M 144 512.64 
L 1036.8 512.64 
" style="fill: none; stroke: #000000; stroke-width: 0.8; stroke-linejoin: miter; stroke-linecap: square"/>
   </g>
   <g id="patch_6">
    <path d="M 144 69.12 
L 1036.8 69.12 
" style="fill: none; stroke: #000000; stroke-width: 0.8; stroke-linejoin: miter; stroke-linecap: square"/>
   </g>
   <g id="legend_1">
    <g id="patch_7">
     <path d="M 915.2 128.9225 
L 1025.6 128.9225 
Q 1028.8 128.9225 1028.8 125.7225 
L 1028.8 80.32 
Q 1028.8 77.12 1025.6 77.12 
L 915.2 77.12 
Q 912 77.12 912 80.32 
L 912 125.7225 
Q 912 128.9225 915.2 128.9225 
z
" style="fill: #ffffff; opacity: 0.8; stroke: #cccccc; stroke-linejoin: miter"/>
    </g>
    <g id="line2d_19">
     <path d="M 918.4 90.0775 
L 934.4 90.0775 
L 950.4 90.0775 
" style="fill: none; stroke-dasharray: 7.4,3.2; stroke-dashoffset: 0; stroke: #008000; stroke-width: 2"/>
    </g>
    <g id="text_17">
     <!-- $\mu$=1.5 -->
     <g transform="translate(963.2 95.6775) scale(0.16 -0.16)">
      <defs>
       <path id="DejaVuSans-3d" d="M 678 2906 
L 4684 2906 
L 4684 2381 
L 678 2381 
L 678 2906 
z
M 678 1631 
L 4684 1631 
L 4684 1100 
L 678 1100 
L 678 1631 
z
" transform="scale(0.015625)"/>
      </defs>
      <use xlink:href="#DejaVuSans-Oblique-3bc" transform="translate(0 0.09375)"/>
      <use xlink:href="#DejaVuSans-3d" transform="translate(63.623047 0.09375)"/>
      <use xlink:href="#DejaVuSans-31" transform="translate(147.412109 0.09375)"/>
      <use xlink:href="#DejaVuSans-2e" transform="translate(211.035156 0.09375)"/>
      <use xlink:href="#DejaVuSans-35" transform="translate(242.822266 0.09375)"/>
     </g>
    </g>
    <g id="line2d_20">
     <path d="M 918.4 113.595 
L 934.4 113.595 
L 950.4 113.595 
" style="fill: none; stroke-dasharray: 11.1,4.8; stroke-dashoffset: 0; stroke: #ff0000; stroke-width: 3"/>
    </g>
    <g id="text_18">
     <!-- $2\sigma$=2.4 -->
     <g transform="translate(963.2 119.195) scale(0.16 -0.16)">
      <defs>
       <path id="DejaVuSans-Oblique-3c3" d="M 2219 3044 
Q 1744 3044 1422 2700 
Q 1081 2341 969 1747 
Q 844 1119 1044 756 
Q 1241 397 1706 397 
Q 2166 397 2503 759 
Q 2844 1122 2966 1747 
Q 3075 2319 2881 2700 
Q 2700 3044 2219 3044 
z
M 2309 3503 
L 4219 3500 
L 4106 2925 
L 3463 2925 
Q 3706 2438 3575 1747 
Q 3406 888 2884 400 
Q 2359 -91 1609 -91 
Q 856 -91 525 400 
Q 194 888 363 1747 
Q 528 2609 1050 3097 
Q 1484 3503 2309 3503 
z
" transform="scale(0.015625)"/>
      </defs>
      <use xlink:href="#DejaVuSans-32" transform="translate(0 0.78125)"/>
      <use xlink:href="#DejaVuSans-Oblique-3c3" transform="translate(63.623047 0.78125)"/>
      <use xlink:href="#DejaVuSans-3d" transform="translate(127.001953 0.78125)"/>
      <use xlink:href="#DejaVuSans-32" transform="translate(210.791016 0.78125)"/>
      <use xlink:href="#DejaVuSans-2e" transform="translate(274.414062 0.78125)"/>
      <use xlink:href="#DejaVuSans-34" transform="translate(306.201172 0.78125)"/>
     </g>
    </g>
   </g>
  </g>
 </g>
 <defs>
  <clipPath id="p249c5d38ba">
   <rect x="144" y="69.12" width="892.8" height="443.52"/>
  </clipPath>
 </defs>
</svg>
