<?xml version="1.0" encoding="utf-8" standalone="no"?>
<!DOCTYPE svg PUBLIC "-//W3C//DTD SVG 1.1//EN"
  "http://www.w3.org/Graphics/SVG/1.1/DTD/svg11.dtd">
<svg xmlns:xlink="http://www.w3.org/1999/xlink" width="1152pt" height="576pt" viewBox="0 0 1152 576" xmlns="http://www.w3.org/2000/svg" version="1.1">
 <metadata>
  <rdf:RDF xmlns:dc="http://purl.org/dc/elements/1.1/" xmlns:cc="http://creativecommons.org/ns#" xmlns:rdf="http://www.w3.org/1999/02/22-rdf-syntax-ns#">
   <cc:Work>
    <dc:type rdf:resource="http://purl.org/dc/dcmitype/StillImage"/>
    <dc:date>2023-04-27T15:27:41.158314</dc:date>
    <dc:format>image/svg+xml</dc:format>
    <dc:creator>
     <cc:Agent>
      <dc:title>Matplotlib v3.5.1, https://matplotlib.org/</dc:title>
     </cc:Agent>
    </dc:creator>
   </cc:Work>
  </rdf:RDF>
 </metadata>
 <defs>
  <style type="text/css">*{stroke-linejoin: round; stroke-linecap: butt}</style>
 </defs>
 <g id="figure_1">
  <g id="patch_1">
   <path d="M 0 576 
L 1152 576 
L 1152 0 
L 0 0 
L 0 576 
z
" style="fill: none"/>
  </g>
  <g id="axes_1">
   <g id="patch_2">
    <path d="M 144 504 
L 1036.8 504 
L 1036.8 69.12 
L 144 69.12 
z
" style="fill: #ffffff"/>
   </g>
   <g id="matplotlib.axis_1">
    <g id="xtick_1">
     <g id="line2d_1">
      <defs>
       <path id="md9364a90f7" d="M 0 0 
L 0 3.5 
" style="stroke: #000000; stroke-width: 0.8"/>
      </defs>
      <g>
       <use xlink:href="#md9364a90f7" x="144" y="504" style="stroke: #000000; stroke-width: 0.8"/>
      </g>
     </g>
     <g id="text_1">
      <!-- 0 -->
      <g transform="translate(138.27375 524.677187)scale(0.18 -0.18)">
       <defs>
        <path id="DejaVuSans-30" d="M 2034 4250 
Q 1547 4250 1301 3770 
Q 1056 3291 1056 2328 
Q 1056 1369 1301 889 
Q 1547 409 2034 409 
Q 2525 409 2770 889 
Q 3016 1369 3016 2328 
Q 3016 3291 2770 3770 
Q 2525 4250 2034 4250 
z
M 2034 4750 
Q 2819 4750 3233 4129 
Q 3647 3509 3647 2328 
Q 3647 1150 3233 529 
Q 2819 -91 2034 -91 
Q 1250 -91 836 529 
Q 422 1150 422 2328 
Q 422 3509 836 4129 
Q 1250 4750 2034 4750 
z
" transform="scale(0.015625)"/>
       </defs>
       <use xlink:href="#DejaVuSans-30"/>
      </g>
     </g>
    </g>
    <g id="xtick_2">
     <g id="line2d_2">
      <g>
       <use xlink:href="#md9364a90f7" x="292.8" y="504" style="stroke: #000000; stroke-width: 0.8"/>
      </g>
     </g>
     <g id="text_2">
      <!-- 5 -->
      <g transform="translate(287.07375 524.677187)scale(0.18 -0.18)">
       <defs>
        <path id="DejaVuSans-35" d="M 691 4666 
L 3169 4666 
L 3169 4134 
L 1269 4134 
L 1269 2991 
Q 1406 3038 1543 3061 
Q 1681 3084 1819 3084 
Q 2600 3084 3056 2656 
Q 3513 2228 3513 1497 
Q 3513 744 3044 326 
Q 2575 -91 1722 -91 
Q 1428 -91 1123 -41 
Q 819 9 494 109 
L 494 744 
Q 775 591 1075 516 
Q 1375 441 1709 441 
Q 2250 441 2565 725 
Q 2881 1009 2881 1497 
Q 2881 1984 2565 2268 
Q 2250 2553 1709 2553 
Q 1456 2553 1204 2497 
Q 953 2441 691 2322 
L 691 4666 
z
" transform="scale(0.015625)"/>
       </defs>
       <use xlink:href="#DejaVuSans-35"/>
      </g>
     </g>
    </g>
    <g id="xtick_3">
     <g id="line2d_3">
      <g>
       <use xlink:href="#md9364a90f7" x="441.6" y="504" style="stroke: #000000; stroke-width: 0.8"/>
      </g>
     </g>
     <g id="text_3">
      <!-- 10 -->
      <g transform="translate(430.1475 524.677187)scale(0.18 -0.18)">
       <defs>
        <path id="DejaVuSans-31" d="M 794 531 
L 1825 531 
L 1825 4091 
L 703 3866 
L 703 4441 
L 1819 4666 
L 2450 4666 
L 2450 531 
L 3481 531 
L 3481 0 
L 794 0 
L 794 531 
z
" transform="scale(0.015625)"/>
       </defs>
       <use xlink:href="#DejaVuSans-31"/>
       <use xlink:href="#DejaVuSans-30" x="63.623047"/>
      </g>
     </g>
    </g>
    <g id="xtick_4">
     <g id="line2d_4">
      <g>
       <use xlink:href="#md9364a90f7" x="590.4" y="504" style="stroke: #000000; stroke-width: 0.8"/>
      </g>
     </g>
     <g id="text_4">
      <!-- 15 -->
      <g transform="translate(578.9475 524.677187)scale(0.18 -0.18)">
       <use xlink:href="#DejaVuSans-31"/>
       <use xlink:href="#DejaVuSans-35" x="63.623047"/>
      </g>
     </g>
    </g>
    <g id="xtick_5">
     <g id="line2d_5">
      <g>
       <use xlink:href="#md9364a90f7" x="739.2" y="504" style="stroke: #000000; stroke-width: 0.8"/>
      </g>
     </g>
     <g id="text_5">
      <!-- 20 -->
      <g transform="translate(727.7475 524.677187)scale(0.18 -0.18)">
       <defs>
        <path id="DejaVuSans-32" d="M 1228 531 
L 3431 531 
L 3431 0 
L 469 0 
L 469 531 
Q 828 903 1448 1529 
Q 2069 2156 2228 2338 
Q 2531 2678 2651 2914 
Q 2772 3150 2772 3378 
Q 2772 3750 2511 3984 
Q 2250 4219 1831 4219 
Q 1534 4219 1204 4116 
Q 875 4013 500 3803 
L 500 4441 
Q 881 4594 1212 4672 
Q 1544 4750 1819 4750 
Q 2544 4750 2975 4387 
Q 3406 4025 3406 3419 
Q 3406 3131 3298 2873 
Q 3191 2616 2906 2266 
Q 2828 2175 2409 1742 
Q 1991 1309 1228 531 
z
" transform="scale(0.015625)"/>
       </defs>
       <use xlink:href="#DejaVuSans-32"/>
       <use xlink:href="#DejaVuSans-30" x="63.623047"/>
      </g>
     </g>
    </g>
    <g id="xtick_6">
     <g id="line2d_6">
      <g>
       <use xlink:href="#md9364a90f7" x="888" y="504" style="stroke: #000000; stroke-width: 0.8"/>
      </g>
     </g>
     <g id="text_6">
      <!-- 25 -->
      <g transform="translate(876.5475 524.677187)scale(0.18 -0.18)">
       <use xlink:href="#DejaVuSans-32"/>
       <use xlink:href="#DejaVuSans-35" x="63.623047"/>
      </g>
     </g>
    </g>
    <g id="xtick_7">
     <g id="line2d_7">
      <g>
       <use xlink:href="#md9364a90f7" x="1036.8" y="504" style="stroke: #000000; stroke-width: 0.8"/>
      </g>
     </g>
     <g id="text_7">
      <!-- 30 -->
      <g transform="translate(1025.3475 524.677187)scale(0.18 -0.18)">
       <defs>
        <path id="DejaVuSans-33" d="M 2597 2516 
Q 3050 2419 3304 2112 
Q 3559 1806 3559 1356 
Q 3559 666 3084 287 
Q 2609 -91 1734 -91 
Q 1441 -91 1130 -33 
Q 819 25 488 141 
L 488 750 
Q 750 597 1062 519 
Q 1375 441 1716 441 
Q 2309 441 2620 675 
Q 2931 909 2931 1356 
Q 2931 1769 2642 2001 
Q 2353 2234 1838 2234 
L 1294 2234 
L 1294 2753 
L 1863 2753 
Q 2328 2753 2575 2939 
Q 2822 3125 2822 3475 
Q 2822 3834 2567 4026 
Q 2313 4219 1838 4219 
Q 1578 4219 1281 4162 
Q 984 4106 628 3988 
L 628 4550 
Q 988 4650 1302 4700 
Q 1616 4750 1894 4750 
Q 2613 4750 3031 4423 
Q 3450 4097 3450 3541 
Q 3450 3153 3228 2886 
Q 3006 2619 2597 2516 
z
" transform="scale(0.015625)"/>
       </defs>
       <use xlink:href="#DejaVuSans-33"/>
       <use xlink:href="#DejaVuSans-30" x="63.623047"/>
      </g>
     </g>
    </g>
    <g id="text_8">
     <!-- $\chi^2$ -->
     <g transform="translate(580.41 548.800625)scale(0.18 -0.18)">
      <defs>
       <path id="DejaVuSans-Oblique-3c7" d="M 1922 -781 
L 1691 416 
L 394 -1334 
L -284 -1334 
L 1553 1141 
L 1269 2613 
Q 1194 3006 713 3006 
L 559 3006 
L 653 3500 
L 872 3494 
Q 1675 3472 1775 2950 
L 2006 1753 
L 3303 3503 
L 3981 3503 
L 2144 1028 
L 2428 -444 
Q 2503 -838 2984 -838 
L 3138 -838 
L 3044 -1331 
L 2825 -1325 
Q 2022 -1303 1922 -781 
z
" transform="scale(0.015625)"/>
      </defs>
      <use xlink:href="#DejaVuSans-Oblique-3c7" transform="translate(0 0.765625)"/>
      <use xlink:href="#DejaVuSans-32" transform="translate(63.652396 39.046875)scale(0.7)"/>
     </g>
    </g>
   </g>
   <g id="matplotlib.axis_2">
    <g id="ytick_1">
     <g id="line2d_8">
      <defs>
       <path id="m0fd4242e29" d="M 0 0 
L -3.5 0 
" style="stroke: #000000; stroke-width: 0.8"/>
      </defs>
      <g>
       <use xlink:href="#m0fd4242e29" x="144" y="504" style="stroke: #000000; stroke-width: 0.8"/>
      </g>
     </g>
     <g id="text_9">
      <!-- 0.00 -->
      <g transform="translate(96.921875 510.838594)scale(0.18 -0.18)">
       <defs>
        <path id="DejaVuSans-2e" d="M 684 794 
L 1344 794 
L 1344 0 
L 684 0 
L 684 794 
z
" transform="scale(0.015625)"/>
       </defs>
       <use xlink:href="#DejaVuSans-30"/>
       <use xlink:href="#DejaVuSans-2e" x="63.623047"/>
       <use xlink:href="#DejaVuSans-30" x="95.410156"/>
       <use xlink:href="#DejaVuSans-30" x="159.033203"/>
      </g>
     </g>
    </g>
    <g id="ytick_2">
     <g id="line2d_9">
      <g>
       <use xlink:href="#m0fd4242e29" x="144" y="449.64" style="stroke: #000000; stroke-width: 0.8"/>
      </g>
     </g>
     <g id="text_10">
      <!-- 0.05 -->
      <g transform="translate(96.921875 456.478594)scale(0.18 -0.18)">
       <use xlink:href="#DejaVuSans-30"/>
       <use xlink:href="#DejaVuSans-2e" x="63.623047"/>
       <use xlink:href="#DejaVuSans-30" x="95.410156"/>
       <use xlink:href="#DejaVuSans-35" x="159.033203"/>
      </g>
     </g>
    </g>
    <g id="ytick_3">
     <g id="line2d_10">
      <g>
       <use xlink:href="#m0fd4242e29" x="144" y="395.28" style="stroke: #000000; stroke-width: 0.8"/>
      </g>
     </g>
     <g id="text_11">
      <!-- 0.10 -->
      <g transform="translate(96.921875 402.118594)scale(0.18 -0.18)">
       <use xlink:href="#DejaVuSans-30"/>
       <use xlink:href="#DejaVuSans-2e" x="63.623047"/>
       <use xlink:href="#DejaVuSans-31" x="95.410156"/>
       <use xlink:href="#DejaVuSans-30" x="159.033203"/>
      </g>
     </g>
    </g>
    <g id="ytick_4">
     <g id="line2d_11">
      <g>
       <use xlink:href="#m0fd4242e29" x="144" y="340.92" style="stroke: #000000; stroke-width: 0.8"/>
      </g>
     </g>
     <g id="text_12">
      <!-- 0.15 -->
      <g transform="translate(96.921875 347.758594)scale(0.18 -0.18)">
       <use xlink:href="#DejaVuSans-30"/>
       <use xlink:href="#DejaVuSans-2e" x="63.623047"/>
       <use xlink:href="#DejaVuSans-31" x="95.410156"/>
       <use xlink:href="#DejaVuSans-35" x="159.033203"/>
      </g>
     </g>
    </g>
    <g id="ytick_5">
     <g id="line2d_12">
      <g>
       <use xlink:href="#m0fd4242e29" x="144" y="286.56" style="stroke: #000000; stroke-width: 0.8"/>
      </g>
     </g>
     <g id="text_13">
      <!-- 0.20 -->
      <g transform="translate(96.921875 293.398594)scale(0.18 -0.18)">
       <use xlink:href="#DejaVuSans-30"/>
       <use xlink:href="#DejaVuSans-2e" x="63.623047"/>
       <use xlink:href="#DejaVuSans-32" x="95.410156"/>
       <use xlink:href="#DejaVuSans-30" x="159.033203"/>
      </g>
     </g>
    </g>
    <g id="ytick_6">
     <g id="line2d_13">
      <g>
       <use xlink:href="#m0fd4242e29" x="144" y="232.2" style="stroke: #000000; stroke-width: 0.8"/>
      </g>
     </g>
     <g id="text_14">
      <!-- 0.25 -->
      <g transform="translate(96.921875 239.038594)scale(0.18 -0.18)">
       <use xlink:href="#DejaVuSans-30"/>
       <use xlink:href="#DejaVuSans-2e" x="63.623047"/>
       <use xlink:href="#DejaVuSans-32" x="95.410156"/>
       <use xlink:href="#DejaVuSans-35" x="159.033203"/>
      </g>
     </g>
    </g>
    <g id="ytick_7">
     <g id="line2d_14">
      <g>
       <use xlink:href="#m0fd4242e29" x="144" y="177.84" style="stroke: #000000; stroke-width: 0.8"/>
      </g>
     </g>
     <g id="text_15">
      <!-- 0.30 -->
      <g transform="translate(96.921875 184.678594)scale(0.18 -0.18)">
       <use xlink:href="#DejaVuSans-30"/>
       <use xlink:href="#DejaVuSans-2e" x="63.623047"/>
       <use xlink:href="#DejaVuSans-33" x="95.410156"/>
       <use xlink:href="#DejaVuSans-30" x="159.033203"/>
      </g>
     </g>
    </g>
    <g id="ytick_8">
     <g id="line2d_15">
      <g>
       <use xlink:href="#m0fd4242e29" x="144" y="123.48" style="stroke: #000000; stroke-width: 0.8"/>
      </g>
     </g>
     <g id="text_16">
      <!-- 0.35 -->
      <g transform="translate(96.921875 130.318594)scale(0.18 -0.18)">
       <use xlink:href="#DejaVuSans-30"/>
       <use xlink:href="#DejaVuSans-2e" x="63.623047"/>
       <use xlink:href="#DejaVuSans-33" x="95.410156"/>
       <use xlink:href="#DejaVuSans-35" x="159.033203"/>
      </g>
     </g>
    </g>
    <g id="ytick_9">
     <g id="line2d_16">
      <g>
       <use xlink:href="#m0fd4242e29" x="144" y="69.12" style="stroke: #000000; stroke-width: 0.8"/>
      </g>
     </g>
     <g id="text_17">
      <!-- 0.40 -->
      <g transform="translate(96.921875 75.958594)scale(0.18 -0.18)">
       <defs>
        <path id="DejaVuSans-34" d="M 2419 4116 
L 825 1625 
L 2419 1625 
L 2419 4116 
z
M 2253 4666 
L 3047 4666 
L 3047 1625 
L 3713 1625 
L 3713 1100 
L 3047 1100 
L 3047 0 
L 2419 0 
L 2419 1100 
L 313 1100 
L 313 1709 
L 2253 4666 
z
" transform="scale(0.015625)"/>
       </defs>
       <use xlink:href="#DejaVuSans-30"/>
       <use xlink:href="#DejaVuSans-2e" x="63.623047"/>
       <use xlink:href="#DejaVuSans-34" x="95.410156"/>
       <use xlink:href="#DejaVuSans-30" x="159.033203"/>
      </g>
     </g>
    </g>
    <g id="text_18">
     <!-- $X(\chi^2;\nu)$ -->
     <g transform="translate(89.141875 319.59)rotate(-90)scale(0.18 -0.18)">
      <defs>
       <path id="DejaVuSans-Oblique-58" d="M 878 4666 
L 1516 4666 
L 2316 2981 
L 3763 4666 
L 4500 4666 
L 2578 2438 
L 3738 0 
L 3103 0 
L 2163 1966 
L 459 0 
L -275 0 
L 1906 2509 
L 878 4666 
z
" transform="scale(0.015625)"/>
       <path id="DejaVuSans-28" d="M 1984 4856 
Q 1566 4138 1362 3434 
Q 1159 2731 1159 2009 
Q 1159 1288 1364 580 
Q 1569 -128 1984 -844 
L 1484 -844 
Q 1016 -109 783 600 
Q 550 1309 550 2009 
Q 550 2706 781 3412 
Q 1013 4119 1484 4856 
L 1984 4856 
z
" transform="scale(0.015625)"/>
       <path id="DejaVuSans-3b" d="M 750 3309 
L 1409 3309 
L 1409 2516 
L 750 2516 
L 750 3309 
z
M 750 794 
L 1409 794 
L 1409 256 
L 897 -744 
L 494 -744 
L 750 256 
L 750 794 
z
" transform="scale(0.015625)"/>
       <path id="DejaVuSans-Oblique-3bd" d="M 959 0 
L 572 3500 
L 1191 3500 
L 1522 563 
Q 1972 950 2391 1488 
Q 2706 1891 2788 2241 
Q 2825 2406 2809 2719 
Q 2794 3091 2544 3500 
L 3125 3500 
L 3125 3500 
Q 3288 3222 3353 2834 
Q 3416 2478 3369 2234 
Q 3250 1622 2719 1075 
Q 2025 363 1572 0 
L 959 0 
z
" transform="scale(0.015625)"/>
       <path id="DejaVuSans-29" d="M 513 4856 
L 1013 4856 
Q 1481 4119 1714 3412 
Q 1947 2706 1947 2009 
Q 1947 1309 1714 600 
Q 1481 -109 1013 -844 
L 513 -844 
Q 928 -128 1133 580 
Q 1338 1288 1338 2009 
Q 1338 2731 1133 3434 
Q 928 4138 513 4856 
z
" transform="scale(0.015625)"/>
      </defs>
      <use xlink:href="#DejaVuSans-Oblique-58" transform="translate(0 0.765625)"/>
      <use xlink:href="#DejaVuSans-28" transform="translate(68.505859 0.765625)"/>
      <use xlink:href="#DejaVuSans-Oblique-3c7" transform="translate(107.519531 0.765625)"/>
      <use xlink:href="#DejaVuSans-32" transform="translate(171.171927 39.046875)scale(0.7)"/>
      <use xlink:href="#DejaVuSans-3b" transform="translate(218.442435 0.765625)"/>
      <use xlink:href="#DejaVuSans-Oblique-3bd" transform="translate(271.616263 0.765625)"/>
      <use xlink:href="#DejaVuSans-29" transform="translate(327.475638 0.765625)"/>
     </g>
    </g>
   </g>
   <g id="line2d_17">
    <path d="M 158.861799 -1 
L 162.036364 92.512077 
L 171.054545 215.258459 
L 180.072727 289.099361 
L 189.090909 338.811235 
L 198.109091 374.405166 
L 207.127273 400.887314 
L 216.145455 421.107749 
L 225.163636 436.836166 
L 234.181818 449.241122 
L 243.2 459.130007 
L 252.218182 467.080184 
L 261.236364 473.515696 
L 270.254545 478.75463 
L 279.272727 483.039679 
L 288.290909 486.558598 
L 297.309091 489.458316 
L 306.327273 491.85491 
L 315.345455 493.840836 
L 324.363636 495.490234 
L 333.381818 496.862917 
L 342.4 498.007378 
L 351.418182 498.963114 
L 360.436364 499.762417 
L 369.454545 500.43178 
L 378.472727 500.993005 
L 387.490909 501.464081 
L 396.509091 501.85989 
L 405.527273 502.192768 
L 414.545455 502.472961 
L 423.563636 502.708996 
L 432.581818 502.907978 
L 441.6 503.07584 
L 450.618182 503.21754 
L 459.636364 503.337226 
L 468.654545 503.438375 
L 477.672727 503.523904 
L 486.690909 503.59626 
L 495.709091 503.657502 
L 504.727273 503.709358 
L 513.745455 503.753286 
L 522.763636 503.790512 
L 531.781818 503.822071 
L 540.8 503.848834 
L 549.818182 503.871539 
L 558.836364 503.890807 
L 567.854545 503.907162 
L 576.872727 503.92105 
L 585.890909 503.932846 
L 594.909091 503.942868 
L 603.927273 503.951384 
L 612.945455 503.958623 
L 621.963636 503.964777 
L 630.981818 503.970011 
L 640 503.974463 
L 649.018182 503.97825 
L 658.036364 503.981473 
L 667.054545 503.984215 
L 676.072727 503.98655 
L 685.090909 503.988538 
L 694.109091 503.99023 
L 703.127273 503.991672 
L 712.145455 503.9929 
L 721.163636 503.993946 
L 730.181818 503.994837 
L 739.2 503.995597 
L 748.218182 503.996244 
L 757.236364 503.996796 
L 766.254545 503.997267 
L 775.272727 503.997668 
L 784.290909 503.99801 
L 793.309091 503.998302 
L 802.327273 503.99855 
L 811.345455 503.998763 
L 820.363636 503.998944 
L 829.381818 503.999098 
L 838.4 503.99923 
L 847.418182 503.999343 
L 856.436364 503.999439 
L 865.454545 503.999521 
L 874.472727 503.99959 
L 883.490909 503.99965 
L 892.509091 503.999701 
L 901.527273 503.999745 
L 910.545455 503.999782 
L 919.563636 503.999814 
L 928.581818 503.999841 
L 937.6 503.999864 
L 946.618182 503.999884 
L 955.636364 503.999901 
L 964.654545 503.999915 
L 973.672727 503.999927 
L 982.690909 503.999938 
L 991.709091 503.999947 
L 1000.727273 503.999955 
L 1009.745455 503.999961 
L 1018.763636 503.999967 
L 1027.781818 503.999972 
L 1036.8 503.999976 
" clip-path="url(#pd666801fba)" style="fill: none; stroke: #1f77b4; stroke-width: 1.5; stroke-linecap: square"/>
   </g>
   <g id="line2d_18">
    <path d="M 144 504 
L 153.018182 433.216291 
L 162.036364 382.336272 
L 171.054545 347.162401 
L 180.072727 324.284007 
L 189.090909 310.939003 
L 198.109091 304.898928 
L 207.127273 304.3735 
L 216.145455 307.931446 
L 225.163636 314.434948 
L 234.181818 322.985414 
L 243.2 332.878704 
L 252.218182 343.56821 
L 261.236364 354.634485 
L 270.254545 365.760285 
L 279.272727 376.710126 
L 288.290909 387.313561 
L 297.309091 397.451551 
L 306.327273 407.045377 
L 315.345455 416.047655 
L 324.363636 424.435081 
L 333.381818 432.202598 
L 342.4 439.358724 
L 351.418182 445.921836 
L 360.436364 451.917228 
L 369.454545 457.374805 
L 378.472727 462.327284 
L 387.490909 466.808814 
L 396.509091 470.853925 
L 405.527273 474.496749 
L 414.545455 477.770444 
L 423.563636 480.706798 
L 432.581818 483.335958 
L 441.6 485.68626 
L 450.618182 487.784146 
L 459.636364 489.654134 
L 468.654545 491.318839 
L 477.672727 492.799019 
L 486.690909 494.113656 
L 495.709091 495.280039 
L 504.727273 496.31387 
L 513.745455 497.229365 
L 522.763636 498.039363 
L 531.781818 498.755433 
L 540.8 499.387975 
L 549.818182 499.946322 
L 558.836364 500.438832 
L 567.854545 500.872983 
L 576.872727 501.255448 
L 585.890909 501.59218 
L 594.909091 501.888477 
L 603.927273 502.149054 
L 612.945455 502.378097 
L 621.963636 502.579324 
L 630.981818 502.756027 
L 640 502.911126 
L 649.018182 503.047202 
L 658.036364 503.166539 
L 667.054545 503.271153 
L 676.072727 503.362826 
L 685.090909 503.443128 
L 694.109091 503.513445 
L 703.127273 503.574998 
L 712.145455 503.62886 
L 721.163636 503.675978 
L 730.181818 503.717183 
L 739.2 503.753206 
L 748.218182 503.78469 
L 757.236364 503.8122 
L 766.254545 503.83623 
L 775.272727 503.857216 
L 784.290909 503.875538 
L 793.309091 503.89153 
L 802.327273 503.905486 
L 811.345455 503.917661 
L 820.363636 503.928281 
L 829.381818 503.937543 
L 838.4 503.945618 
L 847.418182 503.952657 
L 856.436364 503.958791 
L 865.454545 503.964137 
L 874.472727 503.968794 
L 883.490909 503.97285 
L 892.509091 503.976383 
L 901.527273 503.979459 
L 910.545455 503.982136 
L 919.563636 503.984467 
L 928.581818 503.986496 
L 937.6 503.988261 
L 946.618182 503.989797 
L 955.636364 503.991133 
L 964.654545 503.992295 
L 973.672727 503.993305 
L 982.690909 503.994184 
L 991.709091 503.994948 
L 1000.727273 503.995612 
L 1009.745455 503.996189 
L 1018.763636 503.996691 
L 1027.781818 503.997127 
L 1036.8 503.997506 
" clip-path="url(#pd666801fba)" style="fill: none; stroke: #ff7f0e; stroke-width: 1.5; stroke-linecap: square"/>
   </g>
   <g id="line2d_19">
    <path d="M 144 504 
L 153.018182 502.743851 
L 162.036364 497.893196 
L 171.054545 489.537614 
L 180.072727 478.485645 
L 189.090909 465.694826 
L 198.109091 452.071191 
L 207.127273 438.389531 
L 216.145455 425.268085 
L 225.163636 413.169872 
L 234.181818 402.416901 
L 243.2 393.209894 
L 252.218182 385.649476 
L 261.236364 379.75662 
L 270.254545 375.491229 
L 279.272727 372.768336 
L 288.290909 371.471815 
L 297.309091 371.465665 
L 306.327273 372.603085 
L 315.345455 374.733583 
L 324.363636 377.708388 
L 333.381818 381.384448 
L 342.4 385.627225 
L 351.418182 390.31255 
L 360.436364 395.327704 
L 369.454545 400.571895 
L 378.472727 405.956294 
L 387.490909 411.403714 
L 396.509091 416.848064 
L 405.527273 422.233621 
L 414.545455 427.514218 
L 423.563636 432.65236 
L 432.581818 437.618337 
L 441.6 442.389343 
L 450.618182 446.948628 
L 459.636364 451.284696 
L 468.654545 455.390555 
L 477.672727 459.263034 
L 486.690909 462.902159 
L 495.709091 466.31059 
L 504.727273 469.493127 
L 513.745455 472.456268 
L 522.763636 475.207825 
L 531.781818 477.756595 
L 540.8 480.112068 
L 549.818182 482.284194 
L 558.836364 484.283172 
L 567.854545 486.119284 
L 576.872727 487.802754 
L 585.890909 489.343641 
L 594.909091 490.751744 
L 603.927273 492.036536 
L 612.945455 493.207112 
L 621.963636 494.272152 
L 630.981818 495.239895 
L 640 496.118127 
L 649.018182 496.914172 
L 658.036364 497.634897 
L 667.054545 498.286712 
L 676.072727 498.875589 
L 685.090909 499.40707 
L 694.109091 499.886286 
L 703.127273 500.317976 
L 712.145455 500.706509 
L 721.163636 501.055898 
L 730.181818 501.369828 
L 739.2 501.651674 
L 748.218182 501.904521 
L 757.236364 502.131184 
L 766.254545 502.334231 
L 775.272727 502.515997 
L 784.290909 502.678602 
L 793.309091 502.823975 
L 802.327273 502.953859 
L 811.345455 503.069834 
L 820.363636 503.17333 
L 829.381818 503.265637 
L 838.4 503.347919 
L 847.418182 503.421226 
L 856.436364 503.486503 
L 865.454545 503.5446 
L 874.472727 503.596282 
L 883.490909 503.642235 
L 892.509091 503.683075 
L 901.527273 503.719355 
L 910.545455 503.75157 
L 919.563636 503.780163 
L 928.581818 503.805531 
L 937.6 503.828028 
L 946.618182 503.847972 
L 955.636364 503.865646 
L 964.654545 503.881301 
L 973.672727 503.895164 
L 982.690909 503.907435 
L 991.709091 503.918293 
L 1000.727273 503.927899 
L 1009.745455 503.936392 
L 1018.763636 503.9439 
L 1027.781818 503.950536 
L 1036.8 503.956397 
" clip-path="url(#pd666801fba)" style="fill: none; stroke: #2ca02c; stroke-width: 1.5; stroke-linecap: square"/>
   </g>
   <g id="line2d_20">
    <path d="M 144 504 
L 153.018182 503.989741 
L 162.036364 503.858939 
L 171.054545 503.386279 
L 180.072727 502.333046 
L 189.090909 500.50247 
L 198.109091 497.767184 
L 207.127273 494.0764 
L 216.145455 489.450943 
L 225.163636 483.971762 
L 234.181818 477.765637 
L 243.2 470.990491 
L 252.218182 463.821741 
L 261.236364 456.440493 
L 270.254545 449.023905 
L 279.272727 441.737782 
L 288.290909 434.73126 
L 297.309091 428.13336 
L 306.327273 422.051126 
L 315.345455 416.569054 
L 324.363636 411.749535 
L 333.381818 407.634059 
L 342.4 404.244945 
L 351.418182 401.587412 
L 360.436364 399.651846 
L 369.454545 398.416114 
L 378.472727 397.847847 
L 387.490909 397.906622 
L 396.509091 398.545977 
L 405.527273 399.715245 
L 414.545455 401.361179 
L 423.563636 403.429359 
L 432.581818 405.865399 
L 441.6 408.615938 
L 450.618182 411.62945 
L 459.636364 414.856877 
L 468.654545 418.252104 
L 477.672727 421.772294 
L 486.690909 425.378112 
L 495.709091 429.033831 
L 504.727273 432.707366 
L 513.745455 436.370227 
L 522.763636 439.997422 
L 531.781818 443.567309 
L 540.8 447.061421 
L 549.818182 450.464264 
L 558.836364 453.763097 
L 567.854545 456.94771 
L 576.872727 460.01019 
L 585.890909 462.944696 
L 594.909091 465.74724 
L 603.927273 468.415468 
L 612.945455 470.948457 
L 621.963636 473.34653 
L 630.981818 475.611071 
L 640 477.744364 
L 649.018182 479.749444 
L 658.036364 481.629957 
L 667.054545 483.390039 
L 676.072727 485.034205 
L 685.090909 486.567254 
L 694.109091 487.994179 
L 703.127273 489.320097 
L 712.145455 490.550181 
L 721.163636 491.689607 
L 730.181818 492.743503 
L 739.2 493.716916 
L 748.218182 494.614776 
L 757.236364 495.441869 
L 766.254545 496.202822 
L 775.272727 496.902081 
L 784.290909 497.543903 
L 793.309091 498.132346 
L 802.327273 498.67127 
L 811.345455 499.164326 
L 820.363636 499.614966 
L 829.381818 500.026437 
L 838.4 500.401791 
L 847.418182 500.743885 
L 856.436364 501.055392 
L 865.454545 501.338804 
L 874.472727 501.596441 
L 883.490909 501.830459 
L 892.509091 502.042856 
L 901.527273 502.235485 
L 910.545455 502.410057 
L 919.563636 502.56815 
L 928.581818 502.711221 
L 937.6 502.840609 
L 946.618182 502.957545 
L 955.636364 503.063161 
L 964.654545 503.158492 
L 973.672727 503.244487 
L 982.690909 503.322015 
L 991.709091 503.391868 
L 1000.727273 503.454772 
L 1009.745455 503.511385 
L 1018.763636 503.56231 
L 1027.781818 503.608094 
L 1036.8 503.649235 
" clip-path="url(#pd666801fba)" style="fill: none; stroke: #d62728; stroke-width: 1.5; stroke-linecap: square"/>
   </g>
   <g id="patch_3">
    <path d="M 144 504 
L 144 69.12 
" style="fill: none; stroke: #000000; stroke-width: 0.8; stroke-linejoin: miter; stroke-linecap: square"/>
   </g>
   <g id="patch_4">
    <path d="M 1036.8 504 
L 1036.8 69.12 
" style="fill: none; stroke: #000000; stroke-width: 0.8; stroke-linejoin: miter; stroke-linecap: square"/>
   </g>
   <g id="patch_5">
    <path d="M 144 504 
L 1036.8 504 
" style="fill: none; stroke: #000000; stroke-width: 0.8; stroke-linejoin: miter; stroke-linecap: square"/>
   </g>
   <g id="patch_6">
    <path d="M 144 69.12 
L 1036.8 69.12 
" style="fill: none; stroke: #000000; stroke-width: 0.8; stroke-linejoin: miter; stroke-linecap: square"/>
   </g>
   <g id="legend_1">
    <g id="patch_7">
     <path d="M 907.02 189.2025 
L 1024.2 189.2025 
Q 1027.8 189.2025 1027.8 185.6025 
L 1027.8 81.72 
Q 1027.8 78.12 1024.2 78.12 
L 907.02 78.12 
Q 903.42 78.12 903.42 81.72 
L 903.42 185.6025 
Q 903.42 189.2025 907.02 189.2025 
z
" style="fill: #ffffff; opacity: 0.8; stroke: #cccccc; stroke-linejoin: miter"/>
    </g>
    <g id="line2d_21">
     <path d="M 910.62 92.697187 
L 928.62 92.697187 
L 946.62 92.697187 
" style="fill: none; stroke: #1f77b4; stroke-width: 1.5; stroke-linecap: square"/>
    </g>
    <g id="text_19">
     <!-- $\nu$ = 1 -->
     <g transform="translate(961.02 98.997187)scale(0.18 -0.18)">
      <defs>
       <path id="DejaVuSans-20" transform="scale(0.015625)"/>
       <path id="DejaVuSans-3d" d="M 678 2906 
L 4684 2906 
L 4684 2381 
L 678 2381 
L 678 2906 
z
M 678 1631 
L 4684 1631 
L 4684 1100 
L 678 1100 
L 678 1631 
z
" transform="scale(0.015625)"/>
      </defs>
      <use xlink:href="#DejaVuSans-Oblique-3bd" transform="translate(0 0.09375)"/>
      <use xlink:href="#DejaVuSans-20" transform="translate(55.859375 0.09375)"/>
      <use xlink:href="#DejaVuSans-3d" transform="translate(87.646484 0.09375)"/>
      <use xlink:href="#DejaVuSans-20" transform="translate(171.435547 0.09375)"/>
      <use xlink:href="#DejaVuSans-31" transform="translate(203.222656 0.09375)"/>
     </g>
    </g>
    <g id="line2d_22">
     <path d="M 910.62 119.117812 
L 928.62 119.117812 
L 946.62 119.117812 
" style="fill: none; stroke: #ff7f0e; stroke-width: 1.5; stroke-linecap: square"/>
    </g>
    <g id="text_20">
     <!-- $\nu$ = 4 -->
     <g transform="translate(961.02 125.417812)scale(0.18 -0.18)">
      <use xlink:href="#DejaVuSans-Oblique-3bd" transform="translate(0 0.09375)"/>
      <use xlink:href="#DejaVuSans-20" transform="translate(55.859375 0.09375)"/>
      <use xlink:href="#DejaVuSans-3d" transform="translate(87.646484 0.09375)"/>
      <use xlink:href="#DejaVuSans-20" transform="translate(171.435547 0.09375)"/>
      <use xlink:href="#DejaVuSans-34" transform="translate(203.222656 0.09375)"/>
     </g>
    </g>
    <g id="line2d_23">
     <path d="M 910.62 145.538437 
L 928.62 145.538437 
L 946.62 145.538437 
" style="fill: none; stroke: #2ca02c; stroke-width: 1.5; stroke-linecap: square"/>
    </g>
    <g id="text_21">
     <!-- $\nu$ = 7 -->
     <g transform="translate(961.02 151.838437)scale(0.18 -0.18)">
      <defs>
       <path id="DejaVuSans-37" d="M 525 4666 
L 3525 4666 
L 3525 4397 
L 1831 0 
L 1172 0 
L 2766 4134 
L 525 4134 
L 525 4666 
z
" transform="scale(0.015625)"/>
      </defs>
      <use xlink:href="#DejaVuSans-Oblique-3bd" transform="translate(0 0.09375)"/>
      <use xlink:href="#DejaVuSans-20" transform="translate(55.859375 0.09375)"/>
      <use xlink:href="#DejaVuSans-3d" transform="translate(87.646484 0.09375)"/>
      <use xlink:href="#DejaVuSans-20" transform="translate(171.435547 0.09375)"/>
      <use xlink:href="#DejaVuSans-37" transform="translate(203.222656 0.09375)"/>
     </g>
    </g>
    <g id="line2d_24">
     <path d="M 910.62 171.959062 
L 928.62 171.959062 
L 946.62 171.959062 
" style="fill: none; stroke: #d62728; stroke-width: 1.5; stroke-linecap: square"/>
    </g>
    <g id="text_22">
     <!-- $\nu$ = 10 -->
     <g transform="translate(961.02 178.259062)scale(0.18 -0.18)">
      <use xlink:href="#DejaVuSans-Oblique-3bd" transform="translate(0 0.78125)"/>
      <use xlink:href="#DejaVuSans-20" transform="translate(55.859375 0.78125)"/>
      <use xlink:href="#DejaVuSans-3d" transform="translate(87.646484 0.78125)"/>
      <use xlink:href="#DejaVuSans-20" transform="translate(171.435547 0.78125)"/>
      <use xlink:href="#DejaVuSans-31" transform="translate(203.222656 0.78125)"/>
      <use xlink:href="#DejaVuSans-30" transform="translate(266.845703 0.78125)"/>
     </g>
    </g>
   </g>
  </g>
 </g>
 <defs>
  <clipPath id="pd666801fba">
   <rect x="144" y="69.12" width="892.8" height="434.88"/>
  </clipPath>
 </defs>
</svg>
