<?xml version="1.0" encoding="utf-8" standalone="no"?>
<!DOCTYPE svg PUBLIC "-//W3C//DTD SVG 1.1//EN"
  "http://www.w3.org/Graphics/SVG/1.1/DTD/svg11.dtd">
<svg xmlns:xlink="http://www.w3.org/1999/xlink" width="1440pt" height="1008pt" viewBox="0 0 1440 1008" xmlns="http://www.w3.org/2000/svg" version="1.1">
 <metadata>
  <rdf:RDF xmlns:dc="http://purl.org/dc/elements/1.1/" xmlns:cc="http://creativecommons.org/ns#" xmlns:rdf="http://www.w3.org/1999/02/22-rdf-syntax-ns#">
   <cc:Work>
    <dc:type rdf:resource="http://purl.org/dc/dcmitype/StillImage"/>
    <dc:date>2024-02-06T13:09:43.411807</dc:date>
    <dc:format>image/svg+xml</dc:format>
    <dc:creator>
     <cc:Agent>
      <dc:title>Matplotlib v3.7.1, https://matplotlib.org/</dc:title>
     </cc:Agent>
    </dc:creator>
   </cc:Work>
  </rdf:RDF>
 </metadata>
 <defs>
  <style type="text/css">*{stroke-linejoin: round; stroke-linecap: butt}</style>
 </defs>
 <g id="figure_1">
  <g id="patch_1">
   <path d="M 0 1008 
L 1440 1008 
L 1440 0 
L 0 0 
z
" style="fill: #ffffff"/>
  </g>
  <g id="axes_1">
   <g id="patch_2">
    <path d="M 180 473.76 
L 1296 473.76 
L 1296 120.96 
L 180 120.96 
z
" style="fill: #ffffff"/>
   </g>
   <g id="matplotlib.axis_1">
    <g id="xtick_1">
     <g id="line2d_1">
      <path d="M 230.727273 473.76 
L 230.727273 120.96 
" clip-path="url(#p72bad61b50)" style="fill: none; stroke: #b0b0b0; stroke-width: 0.8; stroke-linecap: square"/>
     </g>
     <g id="line2d_2">
      <defs>
       <path id="m712e327bc3" d="M 0 0 
L 0 3.5 
" style="stroke: #000000; stroke-width: 0.8"/>
      </defs>
      <g>
       <use xlink:href="#m712e327bc3" x="230.727273" y="473.76" style="stroke: #000000; stroke-width: 0.8"/>
      </g>
     </g>
     <g id="text_1">
      <!-- −6 -->
      <g transform="translate(217.459304 494.437187) scale(0.18 -0.18)">
       <defs>
        <path id="DejaVuSans-2212" d="M 678 2272 
L 4684 2272 
L 4684 1741 
L 678 1741 
L 678 2272 
z
" transform="scale(0.015625)"/>
        <path id="DejaVuSans-36" d="M 2113 2584 
Q 1688 2584 1439 2293 
Q 1191 2003 1191 1497 
Q 1191 994 1439 701 
Q 1688 409 2113 409 
Q 2538 409 2786 701 
Q 3034 994 3034 1497 
Q 3034 2003 2786 2293 
Q 2538 2584 2113 2584 
z
M 3366 4563 
L 3366 3988 
Q 3128 4100 2886 4159 
Q 2644 4219 2406 4219 
Q 1781 4219 1451 3797 
Q 1122 3375 1075 2522 
Q 1259 2794 1537 2939 
Q 1816 3084 2150 3084 
Q 2853 3084 3261 2657 
Q 3669 2231 3669 1497 
Q 3669 778 3244 343 
Q 2819 -91 2113 -91 
Q 1303 -91 875 529 
Q 447 1150 447 2328 
Q 447 3434 972 4092 
Q 1497 4750 2381 4750 
Q 2619 4750 2861 4703 
Q 3103 4656 3366 4563 
z
" transform="scale(0.015625)"/>
       </defs>
       <use xlink:href="#DejaVuSans-2212"/>
       <use xlink:href="#DejaVuSans-36" x="83.789062"/>
      </g>
     </g>
    </g>
    <g id="xtick_2">
     <g id="line2d_3">
      <path d="M 401.239114 473.76 
L 401.239114 120.96 
" clip-path="url(#p72bad61b50)" style="fill: none; stroke: #b0b0b0; stroke-width: 0.8; stroke-linecap: square"/>
     </g>
     <g id="line2d_4">
      <g>
       <use xlink:href="#m712e327bc3" x="401.239114" y="473.76" style="stroke: #000000; stroke-width: 0.8"/>
      </g>
     </g>
     <g id="text_2">
      <!-- −4 -->
      <g transform="translate(387.971145 494.437187) scale(0.18 -0.18)">
       <defs>
        <path id="DejaVuSans-34" d="M 2419 4116 
L 825 1625 
L 2419 1625 
L 2419 4116 
z
M 2253 4666 
L 3047 4666 
L 3047 1625 
L 3713 1625 
L 3713 1100 
L 3047 1100 
L 3047 0 
L 2419 0 
L 2419 1100 
L 313 1100 
L 313 1709 
L 2253 4666 
z
" transform="scale(0.015625)"/>
       </defs>
       <use xlink:href="#DejaVuSans-2212"/>
       <use xlink:href="#DejaVuSans-34" x="83.789062"/>
      </g>
     </g>
    </g>
    <g id="xtick_3">
     <g id="line2d_5">
      <path d="M 571.750955 473.76 
L 571.750955 120.96 
" clip-path="url(#p72bad61b50)" style="fill: none; stroke: #b0b0b0; stroke-width: 0.8; stroke-linecap: square"/>
     </g>
     <g id="line2d_6">
      <g>
       <use xlink:href="#m712e327bc3" x="571.750955" y="473.76" style="stroke: #000000; stroke-width: 0.8"/>
      </g>
     </g>
     <g id="text_3">
      <!-- −2 -->
      <g transform="translate(558.482986 494.437187) scale(0.18 -0.18)">
       <defs>
        <path id="DejaVuSans-32" d="M 1228 531 
L 3431 531 
L 3431 0 
L 469 0 
L 469 531 
Q 828 903 1448 1529 
Q 2069 2156 2228 2338 
Q 2531 2678 2651 2914 
Q 2772 3150 2772 3378 
Q 2772 3750 2511 3984 
Q 2250 4219 1831 4219 
Q 1534 4219 1204 4116 
Q 875 4013 500 3803 
L 500 4441 
Q 881 4594 1212 4672 
Q 1544 4750 1819 4750 
Q 2544 4750 2975 4387 
Q 3406 4025 3406 3419 
Q 3406 3131 3298 2873 
Q 3191 2616 2906 2266 
Q 2828 2175 2409 1742 
Q 1991 1309 1228 531 
z
" transform="scale(0.015625)"/>
       </defs>
       <use xlink:href="#DejaVuSans-2212"/>
       <use xlink:href="#DejaVuSans-32" x="83.789062"/>
      </g>
     </g>
    </g>
    <g id="xtick_4">
     <g id="line2d_7">
      <path d="M 742.262796 473.76 
L 742.262796 120.96 
" clip-path="url(#p72bad61b50)" style="fill: none; stroke: #b0b0b0; stroke-width: 0.8; stroke-linecap: square"/>
     </g>
     <g id="line2d_8">
      <g>
       <use xlink:href="#m712e327bc3" x="742.262796" y="473.76" style="stroke: #000000; stroke-width: 0.8"/>
      </g>
     </g>
     <g id="text_4">
      <!-- 0 -->
      <g transform="translate(736.536546 494.437187) scale(0.18 -0.18)">
       <defs>
        <path id="DejaVuSans-30" d="M 2034 4250 
Q 1547 4250 1301 3770 
Q 1056 3291 1056 2328 
Q 1056 1369 1301 889 
Q 1547 409 2034 409 
Q 2525 409 2770 889 
Q 3016 1369 3016 2328 
Q 3016 3291 2770 3770 
Q 2525 4250 2034 4250 
z
M 2034 4750 
Q 2819 4750 3233 4129 
Q 3647 3509 3647 2328 
Q 3647 1150 3233 529 
Q 2819 -91 2034 -91 
Q 1250 -91 836 529 
Q 422 1150 422 2328 
Q 422 3509 836 4129 
Q 1250 4750 2034 4750 
z
" transform="scale(0.015625)"/>
       </defs>
       <use xlink:href="#DejaVuSans-30"/>
      </g>
     </g>
    </g>
    <g id="xtick_5">
     <g id="line2d_9">
      <path d="M 912.774637 473.76 
L 912.774637 120.96 
" clip-path="url(#p72bad61b50)" style="fill: none; stroke: #b0b0b0; stroke-width: 0.8; stroke-linecap: square"/>
     </g>
     <g id="line2d_10">
      <g>
       <use xlink:href="#m712e327bc3" x="912.774637" y="473.76" style="stroke: #000000; stroke-width: 0.8"/>
      </g>
     </g>
     <g id="text_5">
      <!-- 2 -->
      <g transform="translate(907.048387 494.437187) scale(0.18 -0.18)">
       <use xlink:href="#DejaVuSans-32"/>
      </g>
     </g>
    </g>
    <g id="xtick_6">
     <g id="line2d_11">
      <path d="M 1083.286478 473.76 
L 1083.286478 120.96 
" clip-path="url(#p72bad61b50)" style="fill: none; stroke: #b0b0b0; stroke-width: 0.8; stroke-linecap: square"/>
     </g>
     <g id="line2d_12">
      <g>
       <use xlink:href="#m712e327bc3" x="1083.286478" y="473.76" style="stroke: #000000; stroke-width: 0.8"/>
      </g>
     </g>
     <g id="text_6">
      <!-- 4 -->
      <g transform="translate(1077.560228 494.437187) scale(0.18 -0.18)">
       <use xlink:href="#DejaVuSans-34"/>
      </g>
     </g>
    </g>
    <g id="xtick_7">
     <g id="line2d_13">
      <path d="M 1253.798319 473.76 
L 1253.798319 120.96 
" clip-path="url(#p72bad61b50)" style="fill: none; stroke: #b0b0b0; stroke-width: 0.8; stroke-linecap: square"/>
     </g>
     <g id="line2d_14">
      <g>
       <use xlink:href="#m712e327bc3" x="1253.798319" y="473.76" style="stroke: #000000; stroke-width: 0.8"/>
      </g>
     </g>
     <g id="text_7">
      <!-- 6 -->
      <g transform="translate(1248.072069 494.437187) scale(0.18 -0.18)">
       <use xlink:href="#DejaVuSans-36"/>
      </g>
     </g>
    </g>
    <g id="text_8">
     <!-- $t$ -->
     <g transform="translate(734 517.3775) scale(0.2 -0.2)">
      <defs>
       <path id="DejaVuSans-Oblique-74" d="M 2706 3500 
L 2619 3053 
L 1472 3053 
L 1100 1153 
Q 1081 1047 1072 975 
Q 1063 903 1063 863 
Q 1063 663 1183 572 
Q 1303 481 1569 481 
L 2150 481 
L 2053 0 
L 1503 0 
Q 991 0 739 200 
Q 488 400 488 806 
Q 488 878 497 964 
Q 506 1050 525 1153 
L 897 3053 
L 409 3053 
L 500 3500 
L 978 3500 
L 1172 4494 
L 1747 4494 
L 1556 3500 
L 2706 3500 
z
" transform="scale(0.015625)"/>
      </defs>
      <use xlink:href="#DejaVuSans-Oblique-74" transform="translate(0 0.78125)"/>
     </g>
    </g>
   </g>
   <g id="matplotlib.axis_2">
    <g id="ytick_1">
     <g id="line2d_15">
      <path d="M 180 457.723641 
L 1296 457.723641 
" clip-path="url(#p72bad61b50)" style="fill: none; stroke: #b0b0b0; stroke-width: 0.8; stroke-linecap: square"/>
     </g>
     <g id="line2d_16">
      <defs>
       <path id="m2d7c1ba2b9" d="M 0 0 
L -3.5 0 
" style="stroke: #000000; stroke-width: 0.8"/>
      </defs>
      <g>
       <use xlink:href="#m2d7c1ba2b9" x="180" y="457.723641" style="stroke: #000000; stroke-width: 0.8"/>
      </g>
     </g>
     <g id="text_9">
      <!-- 0.00 -->
      <g transform="translate(132.921875 464.562235) scale(0.18 -0.18)">
       <defs>
        <path id="DejaVuSans-2e" d="M 684 794 
L 1344 794 
L 1344 0 
L 684 0 
L 684 794 
z
" transform="scale(0.015625)"/>
       </defs>
       <use xlink:href="#DejaVuSans-30"/>
       <use xlink:href="#DejaVuSans-2e" x="63.623047"/>
       <use xlink:href="#DejaVuSans-30" x="95.410156"/>
       <use xlink:href="#DejaVuSans-30" x="159.033203"/>
      </g>
     </g>
    </g>
    <g id="ytick_2">
     <g id="line2d_17">
      <path d="M 180 417.526438 
L 1296 417.526438 
" clip-path="url(#p72bad61b50)" style="fill: none; stroke: #b0b0b0; stroke-width: 0.8; stroke-linecap: square"/>
     </g>
     <g id="line2d_18">
      <g>
       <use xlink:href="#m2d7c1ba2b9" x="180" y="417.526438" style="stroke: #000000; stroke-width: 0.8"/>
      </g>
     </g>
     <g id="text_10">
      <!-- 0.05 -->
      <g transform="translate(132.921875 424.365032) scale(0.18 -0.18)">
       <defs>
        <path id="DejaVuSans-35" d="M 691 4666 
L 3169 4666 
L 3169 4134 
L 1269 4134 
L 1269 2991 
Q 1406 3038 1543 3061 
Q 1681 3084 1819 3084 
Q 2600 3084 3056 2656 
Q 3513 2228 3513 1497 
Q 3513 744 3044 326 
Q 2575 -91 1722 -91 
Q 1428 -91 1123 -41 
Q 819 9 494 109 
L 494 744 
Q 775 591 1075 516 
Q 1375 441 1709 441 
Q 2250 441 2565 725 
Q 2881 1009 2881 1497 
Q 2881 1984 2565 2268 
Q 2250 2553 1709 2553 
Q 1456 2553 1204 2497 
Q 953 2441 691 2322 
L 691 4666 
z
" transform="scale(0.015625)"/>
       </defs>
       <use xlink:href="#DejaVuSans-30"/>
       <use xlink:href="#DejaVuSans-2e" x="63.623047"/>
       <use xlink:href="#DejaVuSans-30" x="95.410156"/>
       <use xlink:href="#DejaVuSans-35" x="159.033203"/>
      </g>
     </g>
    </g>
    <g id="ytick_3">
     <g id="line2d_19">
      <path d="M 180 377.329235 
L 1296 377.329235 
" clip-path="url(#p72bad61b50)" style="fill: none; stroke: #b0b0b0; stroke-width: 0.8; stroke-linecap: square"/>
     </g>
     <g id="line2d_20">
      <g>
       <use xlink:href="#m2d7c1ba2b9" x="180" y="377.329235" style="stroke: #000000; stroke-width: 0.8"/>
      </g>
     </g>
     <g id="text_11">
      <!-- 0.10 -->
      <g transform="translate(132.921875 384.167829) scale(0.18 -0.18)">
       <defs>
        <path id="DejaVuSans-31" d="M 794 531 
L 1825 531 
L 1825 4091 
L 703 3866 
L 703 4441 
L 1819 4666 
L 2450 4666 
L 2450 531 
L 3481 531 
L 3481 0 
L 794 0 
L 794 531 
z
" transform="scale(0.015625)"/>
       </defs>
       <use xlink:href="#DejaVuSans-30"/>
       <use xlink:href="#DejaVuSans-2e" x="63.623047"/>
       <use xlink:href="#DejaVuSans-31" x="95.410156"/>
       <use xlink:href="#DejaVuSans-30" x="159.033203"/>
      </g>
     </g>
    </g>
    <g id="ytick_4">
     <g id="line2d_21">
      <path d="M 180 337.132032 
L 1296 337.132032 
" clip-path="url(#p72bad61b50)" style="fill: none; stroke: #b0b0b0; stroke-width: 0.8; stroke-linecap: square"/>
     </g>
     <g id="line2d_22">
      <g>
       <use xlink:href="#m2d7c1ba2b9" x="180" y="337.132032" style="stroke: #000000; stroke-width: 0.8"/>
      </g>
     </g>
     <g id="text_12">
      <!-- 0.15 -->
      <g transform="translate(132.921875 343.970626) scale(0.18 -0.18)">
       <use xlink:href="#DejaVuSans-30"/>
       <use xlink:href="#DejaVuSans-2e" x="63.623047"/>
       <use xlink:href="#DejaVuSans-31" x="95.410156"/>
       <use xlink:href="#DejaVuSans-35" x="159.033203"/>
      </g>
     </g>
    </g>
    <g id="ytick_5">
     <g id="line2d_23">
      <path d="M 180 296.934829 
L 1296 296.934829 
" clip-path="url(#p72bad61b50)" style="fill: none; stroke: #b0b0b0; stroke-width: 0.8; stroke-linecap: square"/>
     </g>
     <g id="line2d_24">
      <g>
       <use xlink:href="#m2d7c1ba2b9" x="180" y="296.934829" style="stroke: #000000; stroke-width: 0.8"/>
      </g>
     </g>
     <g id="text_13">
      <!-- 0.20 -->
      <g transform="translate(132.921875 303.773422) scale(0.18 -0.18)">
       <use xlink:href="#DejaVuSans-30"/>
       <use xlink:href="#DejaVuSans-2e" x="63.623047"/>
       <use xlink:href="#DejaVuSans-32" x="95.410156"/>
       <use xlink:href="#DejaVuSans-30" x="159.033203"/>
      </g>
     </g>
    </g>
    <g id="ytick_6">
     <g id="line2d_25">
      <path d="M 180 256.737626 
L 1296 256.737626 
" clip-path="url(#p72bad61b50)" style="fill: none; stroke: #b0b0b0; stroke-width: 0.8; stroke-linecap: square"/>
     </g>
     <g id="line2d_26">
      <g>
       <use xlink:href="#m2d7c1ba2b9" x="180" y="256.737626" style="stroke: #000000; stroke-width: 0.8"/>
      </g>
     </g>
     <g id="text_14">
      <!-- 0.25 -->
      <g transform="translate(132.921875 263.576219) scale(0.18 -0.18)">
       <use xlink:href="#DejaVuSans-30"/>
       <use xlink:href="#DejaVuSans-2e" x="63.623047"/>
       <use xlink:href="#DejaVuSans-32" x="95.410156"/>
       <use xlink:href="#DejaVuSans-35" x="159.033203"/>
      </g>
     </g>
    </g>
    <g id="ytick_7">
     <g id="line2d_27">
      <path d="M 180 216.540422 
L 1296 216.540422 
" clip-path="url(#p72bad61b50)" style="fill: none; stroke: #b0b0b0; stroke-width: 0.8; stroke-linecap: square"/>
     </g>
     <g id="line2d_28">
      <g>
       <use xlink:href="#m2d7c1ba2b9" x="180" y="216.540422" style="stroke: #000000; stroke-width: 0.8"/>
      </g>
     </g>
     <g id="text_15">
      <!-- 0.30 -->
      <g transform="translate(132.921875 223.379016) scale(0.18 -0.18)">
       <defs>
        <path id="DejaVuSans-33" d="M 2597 2516 
Q 3050 2419 3304 2112 
Q 3559 1806 3559 1356 
Q 3559 666 3084 287 
Q 2609 -91 1734 -91 
Q 1441 -91 1130 -33 
Q 819 25 488 141 
L 488 750 
Q 750 597 1062 519 
Q 1375 441 1716 441 
Q 2309 441 2620 675 
Q 2931 909 2931 1356 
Q 2931 1769 2642 2001 
Q 2353 2234 1838 2234 
L 1294 2234 
L 1294 2753 
L 1863 2753 
Q 2328 2753 2575 2939 
Q 2822 3125 2822 3475 
Q 2822 3834 2567 4026 
Q 2313 4219 1838 4219 
Q 1578 4219 1281 4162 
Q 984 4106 628 3988 
L 628 4550 
Q 988 4650 1302 4700 
Q 1616 4750 1894 4750 
Q 2613 4750 3031 4423 
Q 3450 4097 3450 3541 
Q 3450 3153 3228 2886 
Q 3006 2619 2597 2516 
z
" transform="scale(0.015625)"/>
       </defs>
       <use xlink:href="#DejaVuSans-30"/>
       <use xlink:href="#DejaVuSans-2e" x="63.623047"/>
       <use xlink:href="#DejaVuSans-33" x="95.410156"/>
       <use xlink:href="#DejaVuSans-30" x="159.033203"/>
      </g>
     </g>
    </g>
    <g id="ytick_8">
     <g id="line2d_29">
      <path d="M 180 176.343219 
L 1296 176.343219 
" clip-path="url(#p72bad61b50)" style="fill: none; stroke: #b0b0b0; stroke-width: 0.8; stroke-linecap: square"/>
     </g>
     <g id="line2d_30">
      <g>
       <use xlink:href="#m2d7c1ba2b9" x="180" y="176.343219" style="stroke: #000000; stroke-width: 0.8"/>
      </g>
     </g>
     <g id="text_16">
      <!-- 0.35 -->
      <g transform="translate(132.921875 183.181813) scale(0.18 -0.18)">
       <use xlink:href="#DejaVuSans-30"/>
       <use xlink:href="#DejaVuSans-2e" x="63.623047"/>
       <use xlink:href="#DejaVuSans-33" x="95.410156"/>
       <use xlink:href="#DejaVuSans-35" x="159.033203"/>
      </g>
     </g>
    </g>
    <g id="ytick_9">
     <g id="line2d_31">
      <path d="M 180 136.146016 
L 1296 136.146016 
" clip-path="url(#p72bad61b50)" style="fill: none; stroke: #b0b0b0; stroke-width: 0.8; stroke-linecap: square"/>
     </g>
     <g id="line2d_32">
      <g>
       <use xlink:href="#m2d7c1ba2b9" x="180" y="136.146016" style="stroke: #000000; stroke-width: 0.8"/>
      </g>
     </g>
     <g id="text_17">
      <!-- 0.40 -->
      <g transform="translate(132.921875 142.98461) scale(0.18 -0.18)">
       <use xlink:href="#DejaVuSans-30"/>
       <use xlink:href="#DejaVuSans-2e" x="63.623047"/>
       <use xlink:href="#DejaVuSans-34" x="95.410156"/>
       <use xlink:href="#DejaVuSans-30" x="159.033203"/>
      </g>
     </g>
    </g>
    <g id="text_18">
     <!-- $f(t)$ -->
     <g transform="translate(124.7625 312.66) rotate(-90) scale(0.2 -0.2)">
      <defs>
       <path id="DejaVuSans-Oblique-66" d="M 3059 4863 
L 2969 4384 
L 2419 4384 
Q 2106 4384 1964 4261 
Q 1822 4138 1753 3809 
L 1691 3500 
L 2638 3500 
L 2553 3053 
L 1606 3053 
L 1013 0 
L 434 0 
L 1031 3053 
L 481 3053 
L 563 3500 
L 1113 3500 
L 1159 3744 
Q 1278 4363 1576 4613 
Q 1875 4863 2516 4863 
L 3059 4863 
z
" transform="scale(0.015625)"/>
       <path id="DejaVuSans-28" d="M 1984 4856 
Q 1566 4138 1362 3434 
Q 1159 2731 1159 2009 
Q 1159 1288 1364 580 
Q 1569 -128 1984 -844 
L 1484 -844 
Q 1016 -109 783 600 
Q 550 1309 550 2009 
Q 550 2706 781 3412 
Q 1013 4119 1484 4856 
L 1984 4856 
z
" transform="scale(0.015625)"/>
       <path id="DejaVuSans-29" d="M 513 4856 
L 1013 4856 
Q 1481 4119 1714 3412 
Q 1947 2706 1947 2009 
Q 1947 1309 1714 600 
Q 1481 -109 1013 -844 
L 513 -844 
Q 928 -128 1133 580 
Q 1338 1288 1338 2009 
Q 1338 2731 1133 3434 
Q 928 4138 513 4856 
z
" transform="scale(0.015625)"/>
      </defs>
      <use xlink:href="#DejaVuSans-Oblique-66" transform="translate(0 0.015625)"/>
      <use xlink:href="#DejaVuSans-28" transform="translate(35.205078 0.015625)"/>
      <use xlink:href="#DejaVuSans-Oblique-74" transform="translate(74.21875 0.015625)"/>
      <use xlink:href="#DejaVuSans-29" transform="translate(113.427734 0.015625)"/>
     </g>
    </g>
   </g>
   <g id="line2d_33">
    <path d="M 230.727273 456.770281 
L 239.252865 456.695511 
L 247.778457 456.613743 
L 256.304049 456.524218 
L 264.829641 456.426084 
L 273.355233 456.318385 
L 281.880825 456.200042 
L 290.406417 456.069842 
L 298.932009 455.926415 
L 307.457601 455.768212 
L 315.983193 455.593482 
L 324.508785 455.40024 
L 333.034377 455.186233 
L 341.559969 454.948904 
L 350.085561 454.685342 
L 358.611154 454.392234 
L 367.136746 454.065799 
L 375.662338 453.701721 
L 384.18793 453.295067 
L 392.713522 452.84019 
L 401.239114 452.330621 
L 409.764706 451.75894 
L 418.290298 451.116634 
L 426.81589 450.393919 
L 435.341482 449.579553 
L 443.867074 448.660606 
L 452.392666 447.622206 
L 460.918258 446.447245 
L 469.44385 445.11605 
L 477.969442 443.606012 
L 486.495034 441.89117 
L 495.020626 439.941763 
L 503.546218 437.723741 
L 512.071811 435.198256 
L 520.597403 432.321145 
L 529.122995 429.042435 
L 537.648587 425.305916 
L 546.174179 421.048838 
L 554.699771 416.201818 
L 563.225363 410.689081 
L 571.750955 404.429176 
L 580.276547 397.336366 
L 588.802139 389.322923 
L 597.327731 380.302597 
L 605.853323 370.195546 
L 614.378915 358.934995 
L 622.904507 346.475842 
L 631.430099 332.805241 
L 639.955691 317.954972 
L 648.481283 302.01498 
L 657.006875 285.146978 
L 665.532468 267.596382 
L 674.05806 249.700272 
L 682.583652 231.888654 
L 691.109244 214.676311 
L 699.634836 198.643125 
L 708.160428 184.402169 
L 716.68602 172.556942 
L 725.211612 163.651648 
L 733.737204 158.120649 
L 742.262796 156.244618 
L 750.788388 158.120649 
L 759.31398 163.651648 
L 767.839572 172.556942 
L 776.365164 184.402169 
L 784.890756 198.643125 
L 793.416348 214.676311 
L 801.94194 231.888654 
L 810.467532 249.700272 
L 818.993125 267.596382 
L 827.518717 285.146978 
L 836.044309 302.01498 
L 844.569901 317.954972 
L 853.095493 332.805241 
L 861.621085 346.475842 
L 870.146677 358.934995 
L 878.672269 370.195546 
L 887.197861 380.302597 
L 895.723453 389.322923 
L 904.249045 397.336366 
L 912.774637 404.429176 
L 921.300229 410.689081 
L 929.825821 416.201818 
L 938.351413 421.048838 
L 946.877005 425.305916 
L 955.402597 429.042435 
L 963.928189 432.321145 
L 972.453782 435.198256 
L 980.979374 437.723741 
L 989.504966 439.941763 
L 998.030558 441.89117 
L 1006.55615 443.606012 
L 1015.081742 445.11605 
L 1023.607334 446.447245 
L 1032.132926 447.622206 
L 1040.658518 448.660606 
L 1049.18411 449.579553 
L 1057.709702 450.393919 
L 1066.235294 451.116634 
L 1074.760886 451.75894 
L 1083.286478 452.330621 
L 1091.81207 452.84019 
L 1100.337662 453.295067 
L 1108.863254 453.701721 
L 1117.388846 454.065799 
L 1125.914439 454.392234 
L 1134.440031 454.685342 
L 1142.965623 454.948904 
L 1151.491215 455.186233 
L 1160.016807 455.40024 
L 1168.542399 455.593482 
L 1177.067991 455.768212 
L 1185.593583 455.926415 
L 1194.119175 456.069842 
L 1202.644767 456.200042 
L 1211.170359 456.318385 
L 1219.695951 456.426084 
L 1228.221543 456.524218 
L 1236.747135 456.613743 
L 1245.272727 456.695511 
" clip-path="url(#p72bad61b50)" style="fill: none; stroke-dasharray: 5,8.25; stroke-dashoffset: 0; stroke: #000000; stroke-width: 5"/>
   </g>
   <g id="line2d_34">
    <path d="M 230.727273 457.723636 
L 239.252865 457.723632 
L 247.778457 457.723625 
L 256.304049 457.723613 
L 264.829641 457.723592 
L 273.355233 457.723555 
L 281.880825 457.723492 
L 290.406417 457.723386 
L 298.932009 457.72321 
L 307.457601 457.72292 
L 315.983193 457.722446 
L 324.508785 457.72168 
L 333.034377 457.720457 
L 341.559969 457.71852 
L 350.085561 457.715489 
L 358.611154 457.710791 
L 367.136746 457.703589 
L 375.662338 457.692661 
L 384.18793 457.676254 
L 392.713522 457.65188 
L 401.239114 457.616049 
L 409.764706 457.563933 
L 418.290298 457.488932 
L 426.81589 457.382142 
L 435.341482 457.231706 
L 443.867074 457.022053 
L 452.392666 456.733006 
L 460.918258 456.338792 
L 469.44385 455.806968 
L 477.969442 455.097301 
L 486.495034 454.160683 
L 495.020626 452.938138 
L 503.546218 451.360061 
L 512.071811 449.345793 
L 520.597403 446.803694 
L 529.122995 443.631868 
L 537.648587 439.719692 
L 546.174179 434.950287 
L 554.699771 429.204053 
L 563.225363 422.36329 
L 571.750955 414.317924 
L 580.276547 404.972197 
L 588.802139 394.25213 
L 597.327731 382.113444 
L 605.853323 368.549495 
L 614.378915 353.598739 
L 622.904507 337.351134 
L 631.430099 319.952879 
L 639.955691 301.608915 
L 648.481283 282.582677 
L 657.006875 263.192714 
L 665.532468 243.805984 
L 674.05806 224.827837 
L 682.583652 206.688946 
L 691.109244 189.8297 
L 699.634836 174.682812 
L 708.160428 161.655049 
L 716.68602 151.109171 
L 725.211612 143.347189 
L 733.737204 138.595998 
L 742.262796 136.996364 
L 750.788388 138.595998 
L 759.31398 143.347189 
L 767.839572 151.109171 
L 776.365164 161.655049 
L 784.890756 174.682812 
L 793.416348 189.8297 
L 801.94194 206.688946 
L 810.467532 224.827837 
L 818.993125 243.805984 
L 827.518717 263.192714 
L 836.044309 282.582677 
L 844.569901 301.608915 
L 853.095493 319.952879 
L 861.621085 337.351134 
L 870.146677 353.598739 
L 878.672269 368.549495 
L 887.197861 382.113444 
L 895.723453 394.25213 
L 904.249045 404.972197 
L 912.774637 414.317924 
L 921.300229 422.36329 
L 929.825821 429.204053 
L 938.351413 434.950287 
L 946.877005 439.719692 
L 955.402597 443.631868 
L 963.928189 446.803694 
L 972.453782 449.345793 
L 980.979374 451.360061 
L 989.504966 452.938138 
L 998.030558 454.160683 
L 1006.55615 455.097301 
L 1015.081742 455.806968 
L 1023.607334 456.338792 
L 1032.132926 456.733006 
L 1040.658518 457.022053 
L 1049.18411 457.231706 
L 1057.709702 457.382142 
L 1066.235294 457.488932 
L 1074.760886 457.563933 
L 1083.286478 457.616049 
L 1091.81207 457.65188 
L 1100.337662 457.676254 
L 1108.863254 457.692661 
L 1117.388846 457.703589 
L 1125.914439 457.710791 
L 1134.440031 457.715489 
L 1142.965623 457.71852 
L 1151.491215 457.720457 
L 1160.016807 457.72168 
L 1168.542399 457.722446 
L 1177.067991 457.72292 
L 1185.593583 457.72321 
L 1194.119175 457.723386 
L 1202.644767 457.723492 
L 1211.170359 457.723555 
L 1219.695951 457.723592 
L 1228.221543 457.723613 
L 1236.747135 457.723625 
L 1245.272727 457.723632 
" clip-path="url(#p72bad61b50)" style="fill: none; stroke: #0000ff; stroke-width: 2; stroke-linecap: square"/>
   </g>
   <g id="line2d_35">
    <path d="M 621.692717 263.192714 
L 862.832875 263.192714 
" clip-path="url(#p72bad61b50)" style="fill: none; stroke-dasharray: 11.1,4.8; stroke-dashoffset: 0; stroke: #ff0000; stroke-width: 3"/>
   </g>
   <g id="patch_3">
    <path d="M 180 473.76 
L 180 120.96 
" style="fill: none; stroke: #000000; stroke-width: 0.8; stroke-linejoin: miter; stroke-linecap: square"/>
   </g>
   <g id="patch_4">
    <path d="M 1296 473.76 
L 1296 120.96 
" style="fill: none; stroke: #000000; stroke-width: 0.8; stroke-linejoin: miter; stroke-linecap: square"/>
   </g>
   <g id="patch_5">
    <path d="M 180 473.76 
L 1296 473.76 
" style="fill: none; stroke: #000000; stroke-width: 0.8; stroke-linejoin: miter; stroke-linecap: square"/>
   </g>
   <g id="patch_6">
    <path d="M 180 120.96 
L 1296 120.96 
" style="fill: none; stroke: #000000; stroke-width: 0.8; stroke-linejoin: miter; stroke-linecap: square"/>
   </g>
   <g id="text_19">
    <!-- N = 5 -->
    <g transform="translate(707.133938 114.96) scale(0.216 -0.216)">
     <defs>
      <path id="DejaVuSans-4e" d="M 628 4666 
L 1478 4666 
L 3547 763 
L 3547 4666 
L 4159 4666 
L 4159 0 
L 3309 0 
L 1241 3903 
L 1241 0 
L 628 0 
L 628 4666 
z
" transform="scale(0.015625)"/>
      <path id="DejaVuSans-20" transform="scale(0.015625)"/>
      <path id="DejaVuSans-3d" d="M 678 2906 
L 4684 2906 
L 4684 2381 
L 678 2381 
L 678 2906 
z
M 678 1631 
L 4684 1631 
L 4684 1100 
L 678 1100 
L 678 1631 
z
" transform="scale(0.015625)"/>
     </defs>
     <use xlink:href="#DejaVuSans-4e"/>
     <use xlink:href="#DejaVuSans-20" x="74.804688"/>
     <use xlink:href="#DejaVuSans-3d" x="106.591797"/>
     <use xlink:href="#DejaVuSans-20" x="190.380859"/>
     <use xlink:href="#DejaVuSans-35" x="222.167969"/>
    </g>
   </g>
   <g id="legend_1">
    <g id="patch_7">
     <path d="M 1035.441562 214.621875 
L 1283.4 214.621875 
Q 1287 214.621875 1287 211.021875 
L 1287 133.56 
Q 1287 129.96 1283.4 129.96 
L 1035.441562 129.96 
Q 1031.841563 129.96 1031.841563 133.56 
L 1031.841563 211.021875 
Q 1031.841563 214.621875 1035.441562 214.621875 
z
" style="fill: #ffffff; opacity: 0.8; stroke: #cccccc; stroke-linejoin: miter"/>
    </g>
    <g id="line2d_36">
     <path d="M 1039.041563 144.537188 
L 1057.041563 144.537188 
L 1075.041563 144.537188 
" style="fill: none; stroke-dasharray: 5,8.25; stroke-dashoffset: 0; stroke: #000000; stroke-width: 5"/>
    </g>
    <g id="text_20">
     <!-- t-Student con 4 g.d.l. -->
     <g transform="translate(1089.441563 150.837188) scale(0.18 -0.18)">
      <defs>
       <path id="DejaVuSans-74" d="M 1172 4494 
L 1172 3500 
L 2356 3500 
L 2356 3053 
L 1172 3053 
L 1172 1153 
Q 1172 725 1289 603 
Q 1406 481 1766 481 
L 2356 481 
L 2356 0 
L 1766 0 
Q 1100 0 847 248 
Q 594 497 594 1153 
L 594 3053 
L 172 3053 
L 172 3500 
L 594 3500 
L 594 4494 
L 1172 4494 
z
" transform="scale(0.015625)"/>
       <path id="DejaVuSans-2d" d="M 313 2009 
L 1997 2009 
L 1997 1497 
L 313 1497 
L 313 2009 
z
" transform="scale(0.015625)"/>
       <path id="DejaVuSans-53" d="M 3425 4513 
L 3425 3897 
Q 3066 4069 2747 4153 
Q 2428 4238 2131 4238 
Q 1616 4238 1336 4038 
Q 1056 3838 1056 3469 
Q 1056 3159 1242 3001 
Q 1428 2844 1947 2747 
L 2328 2669 
Q 3034 2534 3370 2195 
Q 3706 1856 3706 1288 
Q 3706 609 3251 259 
Q 2797 -91 1919 -91 
Q 1588 -91 1214 -16 
Q 841 59 441 206 
L 441 856 
Q 825 641 1194 531 
Q 1563 422 1919 422 
Q 2459 422 2753 634 
Q 3047 847 3047 1241 
Q 3047 1584 2836 1778 
Q 2625 1972 2144 2069 
L 1759 2144 
Q 1053 2284 737 2584 
Q 422 2884 422 3419 
Q 422 4038 858 4394 
Q 1294 4750 2059 4750 
Q 2388 4750 2728 4690 
Q 3069 4631 3425 4513 
z
" transform="scale(0.015625)"/>
       <path id="DejaVuSans-75" d="M 544 1381 
L 544 3500 
L 1119 3500 
L 1119 1403 
Q 1119 906 1312 657 
Q 1506 409 1894 409 
Q 2359 409 2629 706 
Q 2900 1003 2900 1516 
L 2900 3500 
L 3475 3500 
L 3475 0 
L 2900 0 
L 2900 538 
Q 2691 219 2414 64 
Q 2138 -91 1772 -91 
Q 1169 -91 856 284 
Q 544 659 544 1381 
z
M 1991 3584 
L 1991 3584 
z
" transform="scale(0.015625)"/>
       <path id="DejaVuSans-64" d="M 2906 2969 
L 2906 4863 
L 3481 4863 
L 3481 0 
L 2906 0 
L 2906 525 
Q 2725 213 2448 61 
Q 2172 -91 1784 -91 
Q 1150 -91 751 415 
Q 353 922 353 1747 
Q 353 2572 751 3078 
Q 1150 3584 1784 3584 
Q 2172 3584 2448 3432 
Q 2725 3281 2906 2969 
z
M 947 1747 
Q 947 1113 1208 752 
Q 1469 391 1925 391 
Q 2381 391 2643 752 
Q 2906 1113 2906 1747 
Q 2906 2381 2643 2742 
Q 2381 3103 1925 3103 
Q 1469 3103 1208 2742 
Q 947 2381 947 1747 
z
" transform="scale(0.015625)"/>
       <path id="DejaVuSans-65" d="M 3597 1894 
L 3597 1613 
L 953 1613 
Q 991 1019 1311 708 
Q 1631 397 2203 397 
Q 2534 397 2845 478 
Q 3156 559 3463 722 
L 3463 178 
Q 3153 47 2828 -22 
Q 2503 -91 2169 -91 
Q 1331 -91 842 396 
Q 353 884 353 1716 
Q 353 2575 817 3079 
Q 1281 3584 2069 3584 
Q 2775 3584 3186 3129 
Q 3597 2675 3597 1894 
z
M 3022 2063 
Q 3016 2534 2758 2815 
Q 2500 3097 2075 3097 
Q 1594 3097 1305 2825 
Q 1016 2553 972 2059 
L 3022 2063 
z
" transform="scale(0.015625)"/>
       <path id="DejaVuSans-6e" d="M 3513 2113 
L 3513 0 
L 2938 0 
L 2938 2094 
Q 2938 2591 2744 2837 
Q 2550 3084 2163 3084 
Q 1697 3084 1428 2787 
Q 1159 2491 1159 1978 
L 1159 0 
L 581 0 
L 581 3500 
L 1159 3500 
L 1159 2956 
Q 1366 3272 1645 3428 
Q 1925 3584 2291 3584 
Q 2894 3584 3203 3211 
Q 3513 2838 3513 2113 
z
" transform="scale(0.015625)"/>
       <path id="DejaVuSans-63" d="M 3122 3366 
L 3122 2828 
Q 2878 2963 2633 3030 
Q 2388 3097 2138 3097 
Q 1578 3097 1268 2742 
Q 959 2388 959 1747 
Q 959 1106 1268 751 
Q 1578 397 2138 397 
Q 2388 397 2633 464 
Q 2878 531 3122 666 
L 3122 134 
Q 2881 22 2623 -34 
Q 2366 -91 2075 -91 
Q 1284 -91 818 406 
Q 353 903 353 1747 
Q 353 2603 823 3093 
Q 1294 3584 2113 3584 
Q 2378 3584 2631 3529 
Q 2884 3475 3122 3366 
z
" transform="scale(0.015625)"/>
       <path id="DejaVuSans-6f" d="M 1959 3097 
Q 1497 3097 1228 2736 
Q 959 2375 959 1747 
Q 959 1119 1226 758 
Q 1494 397 1959 397 
Q 2419 397 2687 759 
Q 2956 1122 2956 1747 
Q 2956 2369 2687 2733 
Q 2419 3097 1959 3097 
z
M 1959 3584 
Q 2709 3584 3137 3096 
Q 3566 2609 3566 1747 
Q 3566 888 3137 398 
Q 2709 -91 1959 -91 
Q 1206 -91 779 398 
Q 353 888 353 1747 
Q 353 2609 779 3096 
Q 1206 3584 1959 3584 
z
" transform="scale(0.015625)"/>
       <path id="DejaVuSans-67" d="M 2906 1791 
Q 2906 2416 2648 2759 
Q 2391 3103 1925 3103 
Q 1463 3103 1205 2759 
Q 947 2416 947 1791 
Q 947 1169 1205 825 
Q 1463 481 1925 481 
Q 2391 481 2648 825 
Q 2906 1169 2906 1791 
z
M 3481 434 
Q 3481 -459 3084 -895 
Q 2688 -1331 1869 -1331 
Q 1566 -1331 1297 -1286 
Q 1028 -1241 775 -1147 
L 775 -588 
Q 1028 -725 1275 -790 
Q 1522 -856 1778 -856 
Q 2344 -856 2625 -561 
Q 2906 -266 2906 331 
L 2906 616 
Q 2728 306 2450 153 
Q 2172 0 1784 0 
Q 1141 0 747 490 
Q 353 981 353 1791 
Q 353 2603 747 3093 
Q 1141 3584 1784 3584 
Q 2172 3584 2450 3431 
Q 2728 3278 2906 2969 
L 2906 3500 
L 3481 3500 
L 3481 434 
z
" transform="scale(0.015625)"/>
       <path id="DejaVuSans-6c" d="M 603 4863 
L 1178 4863 
L 1178 0 
L 603 0 
L 603 4863 
z
" transform="scale(0.015625)"/>
      </defs>
      <use xlink:href="#DejaVuSans-74"/>
      <use xlink:href="#DejaVuSans-2d" x="39.208984"/>
      <use xlink:href="#DejaVuSans-53" x="75.292969"/>
      <use xlink:href="#DejaVuSans-74" x="138.769531"/>
      <use xlink:href="#DejaVuSans-75" x="177.978516"/>
      <use xlink:href="#DejaVuSans-64" x="241.357422"/>
      <use xlink:href="#DejaVuSans-65" x="304.833984"/>
      <use xlink:href="#DejaVuSans-6e" x="366.357422"/>
      <use xlink:href="#DejaVuSans-74" x="429.736328"/>
      <use xlink:href="#DejaVuSans-20" x="468.945312"/>
      <use xlink:href="#DejaVuSans-63" x="500.732422"/>
      <use xlink:href="#DejaVuSans-6f" x="555.712891"/>
      <use xlink:href="#DejaVuSans-6e" x="616.894531"/>
      <use xlink:href="#DejaVuSans-20" x="680.273438"/>
      <use xlink:href="#DejaVuSans-34" x="712.060547"/>
      <use xlink:href="#DejaVuSans-20" x="775.683594"/>
      <use xlink:href="#DejaVuSans-67" x="807.470703"/>
      <use xlink:href="#DejaVuSans-2e" x="870.947266"/>
      <use xlink:href="#DejaVuSans-64" x="902.734375"/>
      <use xlink:href="#DejaVuSans-2e" x="966.210938"/>
      <use xlink:href="#DejaVuSans-6c" x="997.998047"/>
      <use xlink:href="#DejaVuSans-2e" x="1025.78125"/>
     </g>
    </g>
    <g id="line2d_37">
     <path d="M 1039.041563 170.957812 
L 1057.041563 170.957812 
L 1075.041563 170.957812 
" style="fill: none; stroke: #0000ff; stroke-width: 2; stroke-linecap: square"/>
    </g>
    <g id="text_21">
     <!-- Normal, $\sigma = 1.0$ -->
     <g transform="translate(1089.441563 177.257812) scale(0.18 -0.18)">
      <defs>
       <path id="DejaVuSans-72" d="M 2631 2963 
Q 2534 3019 2420 3045 
Q 2306 3072 2169 3072 
Q 1681 3072 1420 2755 
Q 1159 2438 1159 1844 
L 1159 0 
L 581 0 
L 581 3500 
L 1159 3500 
L 1159 2956 
Q 1341 3275 1631 3429 
Q 1922 3584 2338 3584 
Q 2397 3584 2469 3576 
Q 2541 3569 2628 3553 
L 2631 2963 
z
" transform="scale(0.015625)"/>
       <path id="DejaVuSans-6d" d="M 3328 2828 
Q 3544 3216 3844 3400 
Q 4144 3584 4550 3584 
Q 5097 3584 5394 3201 
Q 5691 2819 5691 2113 
L 5691 0 
L 5113 0 
L 5113 2094 
Q 5113 2597 4934 2840 
Q 4756 3084 4391 3084 
Q 3944 3084 3684 2787 
Q 3425 2491 3425 1978 
L 3425 0 
L 2847 0 
L 2847 2094 
Q 2847 2600 2669 2842 
Q 2491 3084 2119 3084 
Q 1678 3084 1418 2786 
Q 1159 2488 1159 1978 
L 1159 0 
L 581 0 
L 581 3500 
L 1159 3500 
L 1159 2956 
Q 1356 3278 1631 3431 
Q 1906 3584 2284 3584 
Q 2666 3584 2933 3390 
Q 3200 3197 3328 2828 
z
" transform="scale(0.015625)"/>
       <path id="DejaVuSans-61" d="M 2194 1759 
Q 1497 1759 1228 1600 
Q 959 1441 959 1056 
Q 959 750 1161 570 
Q 1363 391 1709 391 
Q 2188 391 2477 730 
Q 2766 1069 2766 1631 
L 2766 1759 
L 2194 1759 
z
M 3341 1997 
L 3341 0 
L 2766 0 
L 2766 531 
Q 2569 213 2275 61 
Q 1981 -91 1556 -91 
Q 1019 -91 701 211 
Q 384 513 384 1019 
Q 384 1609 779 1909 
Q 1175 2209 1959 2209 
L 2766 2209 
L 2766 2266 
Q 2766 2663 2505 2880 
Q 2244 3097 1772 3097 
Q 1472 3097 1187 3025 
Q 903 2953 641 2809 
L 641 3341 
Q 956 3463 1253 3523 
Q 1550 3584 1831 3584 
Q 2591 3584 2966 3190 
Q 3341 2797 3341 1997 
z
" transform="scale(0.015625)"/>
       <path id="DejaVuSans-2c" d="M 750 794 
L 1409 794 
L 1409 256 
L 897 -744 
L 494 -744 
L 750 256 
L 750 794 
z
" transform="scale(0.015625)"/>
       <path id="DejaVuSans-Oblique-3c3" d="M 2219 3044 
Q 1744 3044 1422 2700 
Q 1081 2341 969 1747 
Q 844 1119 1044 756 
Q 1241 397 1706 397 
Q 2166 397 2503 759 
Q 2844 1122 2966 1747 
Q 3075 2319 2881 2700 
Q 2700 3044 2219 3044 
z
M 2309 3503 
L 4219 3500 
L 4106 2925 
L 3463 2925 
Q 3706 2438 3575 1747 
Q 3406 888 2884 400 
Q 2359 -91 1609 -91 
Q 856 -91 525 400 
Q 194 888 363 1747 
Q 528 2609 1050 3097 
Q 1484 3503 2309 3503 
z
" transform="scale(0.015625)"/>
      </defs>
      <use xlink:href="#DejaVuSans-4e" transform="translate(0 0.015625)"/>
      <use xlink:href="#DejaVuSans-6f" transform="translate(74.804688 0.015625)"/>
      <use xlink:href="#DejaVuSans-72" transform="translate(135.986328 0.015625)"/>
      <use xlink:href="#DejaVuSans-6d" transform="translate(177.099609 0.015625)"/>
      <use xlink:href="#DejaVuSans-61" transform="translate(274.511719 0.015625)"/>
      <use xlink:href="#DejaVuSans-6c" transform="translate(335.791016 0.015625)"/>
      <use xlink:href="#DejaVuSans-2c" transform="translate(363.574219 0.015625)"/>
      <use xlink:href="#DejaVuSans-20" transform="translate(395.361328 0.015625)"/>
      <use xlink:href="#DejaVuSans-Oblique-3c3" transform="translate(427.148438 0.015625)"/>
      <use xlink:href="#DejaVuSans-3d" transform="translate(510.009766 0.015625)"/>
      <use xlink:href="#DejaVuSans-31" transform="translate(613.28125 0.015625)"/>
      <use xlink:href="#DejaVuSans-2e" transform="translate(676.904297 0.015625)"/>
      <use xlink:href="#DejaVuSans-30" transform="translate(708.691406 0.015625)"/>
     </g>
    </g>
    <g id="line2d_38">
     <path d="M 1039.041563 197.378437 
L 1057.041563 197.378437 
L 1075.041563 197.378437 
" style="fill: none; stroke-dasharray: 11.1,4.8; stroke-dashoffset: 0; stroke: #ff0000; stroke-width: 3"/>
    </g>
    <g id="text_22">
     <!-- $\sigma_t = 1.41$ -->
     <g transform="translate(1089.441563 203.678437) scale(0.18 -0.18)">
      <use xlink:href="#DejaVuSans-Oblique-3c3" transform="translate(0 0.09375)"/>
      <use xlink:href="#DejaVuSans-Oblique-74" transform="translate(63.378906 -16.3125) scale(0.7)"/>
      <use xlink:href="#DejaVuSans-3d" transform="translate(113.041992 0.09375)"/>
      <use xlink:href="#DejaVuSans-31" transform="translate(216.313477 0.09375)"/>
      <use xlink:href="#DejaVuSans-2e" transform="translate(279.936523 0.09375)"/>
      <use xlink:href="#DejaVuSans-34" transform="translate(311.723633 0.09375)"/>
      <use xlink:href="#DejaVuSans-31" transform="translate(375.34668 0.09375)"/>
     </g>
    </g>
   </g>
  </g>
  <g id="axes_2">
   <g id="patch_8">
    <path d="M 180 897.12 
L 1296 897.12 
L 1296 544.32 
L 180 544.32 
z
" style="fill: #ffffff"/>
   </g>
   <g id="matplotlib.axis_3">
    <g id="xtick_8">
     <g id="line2d_39">
      <path d="M 230.727273 897.12 
L 230.727273 544.32 
" clip-path="url(#p1a3c031d89)" style="fill: none; stroke: #b0b0b0; stroke-width: 0.8; stroke-linecap: square"/>
     </g>
     <g id="line2d_40">
      <g>
       <use xlink:href="#m712e327bc3" x="230.727273" y="897.12" style="stroke: #000000; stroke-width: 0.8"/>
      </g>
     </g>
     <g id="text_23">
      <!-- −6 -->
      <g transform="translate(217.459304 917.797188) scale(0.18 -0.18)">
       <use xlink:href="#DejaVuSans-2212"/>
       <use xlink:href="#DejaVuSans-36" x="83.789062"/>
      </g>
     </g>
    </g>
    <g id="xtick_9">
     <g id="line2d_41">
      <path d="M 401.239114 897.12 
L 401.239114 544.32 
" clip-path="url(#p1a3c031d89)" style="fill: none; stroke: #b0b0b0; stroke-width: 0.8; stroke-linecap: square"/>
     </g>
     <g id="line2d_42">
      <g>
       <use xlink:href="#m712e327bc3" x="401.239114" y="897.12" style="stroke: #000000; stroke-width: 0.8"/>
      </g>
     </g>
     <g id="text_24">
      <!-- −4 -->
      <g transform="translate(387.971145 917.797188) scale(0.18 -0.18)">
       <use xlink:href="#DejaVuSans-2212"/>
       <use xlink:href="#DejaVuSans-34" x="83.789062"/>
      </g>
     </g>
    </g>
    <g id="xtick_10">
     <g id="line2d_43">
      <path d="M 571.750955 897.12 
L 571.750955 544.32 
" clip-path="url(#p1a3c031d89)" style="fill: none; stroke: #b0b0b0; stroke-width: 0.8; stroke-linecap: square"/>
     </g>
     <g id="line2d_44">
      <g>
       <use xlink:href="#m712e327bc3" x="571.750955" y="897.12" style="stroke: #000000; stroke-width: 0.8"/>
      </g>
     </g>
     <g id="text_25">
      <!-- −2 -->
      <g transform="translate(558.482986 917.797188) scale(0.18 -0.18)">
       <use xlink:href="#DejaVuSans-2212"/>
       <use xlink:href="#DejaVuSans-32" x="83.789062"/>
      </g>
     </g>
    </g>
    <g id="xtick_11">
     <g id="line2d_45">
      <path d="M 742.262796 897.12 
L 742.262796 544.32 
" clip-path="url(#p1a3c031d89)" style="fill: none; stroke: #b0b0b0; stroke-width: 0.8; stroke-linecap: square"/>
     </g>
     <g id="line2d_46">
      <g>
       <use xlink:href="#m712e327bc3" x="742.262796" y="897.12" style="stroke: #000000; stroke-width: 0.8"/>
      </g>
     </g>
     <g id="text_26">
      <!-- 0 -->
      <g transform="translate(736.536546 917.797188) scale(0.18 -0.18)">
       <use xlink:href="#DejaVuSans-30"/>
      </g>
     </g>
    </g>
    <g id="xtick_12">
     <g id="line2d_47">
      <path d="M 912.774637 897.12 
L 912.774637 544.32 
" clip-path="url(#p1a3c031d89)" style="fill: none; stroke: #b0b0b0; stroke-width: 0.8; stroke-linecap: square"/>
     </g>
     <g id="line2d_48">
      <g>
       <use xlink:href="#m712e327bc3" x="912.774637" y="897.12" style="stroke: #000000; stroke-width: 0.8"/>
      </g>
     </g>
     <g id="text_27">
      <!-- 2 -->
      <g transform="translate(907.048387 917.797188) scale(0.18 -0.18)">
       <use xlink:href="#DejaVuSans-32"/>
      </g>
     </g>
    </g>
    <g id="xtick_13">
     <g id="line2d_49">
      <path d="M 1083.286478 897.12 
L 1083.286478 544.32 
" clip-path="url(#p1a3c031d89)" style="fill: none; stroke: #b0b0b0; stroke-width: 0.8; stroke-linecap: square"/>
     </g>
     <g id="line2d_50">
      <g>
       <use xlink:href="#m712e327bc3" x="1083.286478" y="897.12" style="stroke: #000000; stroke-width: 0.8"/>
      </g>
     </g>
     <g id="text_28">
      <!-- 4 -->
      <g transform="translate(1077.560228 917.797188) scale(0.18 -0.18)">
       <use xlink:href="#DejaVuSans-34"/>
      </g>
     </g>
    </g>
    <g id="xtick_14">
     <g id="line2d_51">
      <path d="M 1253.798319 897.12 
L 1253.798319 544.32 
" clip-path="url(#p1a3c031d89)" style="fill: none; stroke: #b0b0b0; stroke-width: 0.8; stroke-linecap: square"/>
     </g>
     <g id="line2d_52">
      <g>
       <use xlink:href="#m712e327bc3" x="1253.798319" y="897.12" style="stroke: #000000; stroke-width: 0.8"/>
      </g>
     </g>
     <g id="text_29">
      <!-- 6 -->
      <g transform="translate(1248.072069 917.797188) scale(0.18 -0.18)">
       <use xlink:href="#DejaVuSans-36"/>
      </g>
     </g>
    </g>
    <g id="text_30">
     <!-- $t$ -->
     <g transform="translate(734 940.7375) scale(0.2 -0.2)">
      <use xlink:href="#DejaVuSans-Oblique-74" transform="translate(0 0.78125)"/>
     </g>
    </g>
   </g>
   <g id="matplotlib.axis_4">
    <g id="ytick_10">
     <g id="line2d_53">
      <path d="M 180 881.083641 
L 1296 881.083641 
" clip-path="url(#p1a3c031d89)" style="fill: none; stroke: #b0b0b0; stroke-width: 0.8; stroke-linecap: square"/>
     </g>
     <g id="line2d_54">
      <g>
       <use xlink:href="#m2d7c1ba2b9" x="180" y="881.083641" style="stroke: #000000; stroke-width: 0.8"/>
      </g>
     </g>
     <g id="text_31">
      <!-- 0.00 -->
      <g transform="translate(132.921875 887.922235) scale(0.18 -0.18)">
       <use xlink:href="#DejaVuSans-30"/>
       <use xlink:href="#DejaVuSans-2e" x="63.623047"/>
       <use xlink:href="#DejaVuSans-30" x="95.410156"/>
       <use xlink:href="#DejaVuSans-30" x="159.033203"/>
      </g>
     </g>
    </g>
    <g id="ytick_11">
     <g id="line2d_55">
      <path d="M 180 840.886438 
L 1296 840.886438 
" clip-path="url(#p1a3c031d89)" style="fill: none; stroke: #b0b0b0; stroke-width: 0.8; stroke-linecap: square"/>
     </g>
     <g id="line2d_56">
      <g>
       <use xlink:href="#m2d7c1ba2b9" x="180" y="840.886438" style="stroke: #000000; stroke-width: 0.8"/>
      </g>
     </g>
     <g id="text_32">
      <!-- 0.05 -->
      <g transform="translate(132.921875 847.725032) scale(0.18 -0.18)">
       <use xlink:href="#DejaVuSans-30"/>
       <use xlink:href="#DejaVuSans-2e" x="63.623047"/>
       <use xlink:href="#DejaVuSans-30" x="95.410156"/>
       <use xlink:href="#DejaVuSans-35" x="159.033203"/>
      </g>
     </g>
    </g>
    <g id="ytick_12">
     <g id="line2d_57">
      <path d="M 180 800.689235 
L 1296 800.689235 
" clip-path="url(#p1a3c031d89)" style="fill: none; stroke: #b0b0b0; stroke-width: 0.8; stroke-linecap: square"/>
     </g>
     <g id="line2d_58">
      <g>
       <use xlink:href="#m2d7c1ba2b9" x="180" y="800.689235" style="stroke: #000000; stroke-width: 0.8"/>
      </g>
     </g>
     <g id="text_33">
      <!-- 0.10 -->
      <g transform="translate(132.921875 807.527829) scale(0.18 -0.18)">
       <use xlink:href="#DejaVuSans-30"/>
       <use xlink:href="#DejaVuSans-2e" x="63.623047"/>
       <use xlink:href="#DejaVuSans-31" x="95.410156"/>
       <use xlink:href="#DejaVuSans-30" x="159.033203"/>
      </g>
     </g>
    </g>
    <g id="ytick_13">
     <g id="line2d_59">
      <path d="M 180 760.492032 
L 1296 760.492032 
" clip-path="url(#p1a3c031d89)" style="fill: none; stroke: #b0b0b0; stroke-width: 0.8; stroke-linecap: square"/>
     </g>
     <g id="line2d_60">
      <g>
       <use xlink:href="#m2d7c1ba2b9" x="180" y="760.492032" style="stroke: #000000; stroke-width: 0.8"/>
      </g>
     </g>
     <g id="text_34">
      <!-- 0.15 -->
      <g transform="translate(132.921875 767.330626) scale(0.18 -0.18)">
       <use xlink:href="#DejaVuSans-30"/>
       <use xlink:href="#DejaVuSans-2e" x="63.623047"/>
       <use xlink:href="#DejaVuSans-31" x="95.410156"/>
       <use xlink:href="#DejaVuSans-35" x="159.033203"/>
      </g>
     </g>
    </g>
    <g id="ytick_14">
     <g id="line2d_61">
      <path d="M 180 720.294829 
L 1296 720.294829 
" clip-path="url(#p1a3c031d89)" style="fill: none; stroke: #b0b0b0; stroke-width: 0.8; stroke-linecap: square"/>
     </g>
     <g id="line2d_62">
      <g>
       <use xlink:href="#m2d7c1ba2b9" x="180" y="720.294829" style="stroke: #000000; stroke-width: 0.8"/>
      </g>
     </g>
     <g id="text_35">
      <!-- 0.20 -->
      <g transform="translate(132.921875 727.133422) scale(0.18 -0.18)">
       <use xlink:href="#DejaVuSans-30"/>
       <use xlink:href="#DejaVuSans-2e" x="63.623047"/>
       <use xlink:href="#DejaVuSans-32" x="95.410156"/>
       <use xlink:href="#DejaVuSans-30" x="159.033203"/>
      </g>
     </g>
    </g>
    <g id="ytick_15">
     <g id="line2d_63">
      <path d="M 180 680.097626 
L 1296 680.097626 
" clip-path="url(#p1a3c031d89)" style="fill: none; stroke: #b0b0b0; stroke-width: 0.8; stroke-linecap: square"/>
     </g>
     <g id="line2d_64">
      <g>
       <use xlink:href="#m2d7c1ba2b9" x="180" y="680.097626" style="stroke: #000000; stroke-width: 0.8"/>
      </g>
     </g>
     <g id="text_36">
      <!-- 0.25 -->
      <g transform="translate(132.921875 686.936219) scale(0.18 -0.18)">
       <use xlink:href="#DejaVuSans-30"/>
       <use xlink:href="#DejaVuSans-2e" x="63.623047"/>
       <use xlink:href="#DejaVuSans-32" x="95.410156"/>
       <use xlink:href="#DejaVuSans-35" x="159.033203"/>
      </g>
     </g>
    </g>
    <g id="ytick_16">
     <g id="line2d_65">
      <path d="M 180 639.900422 
L 1296 639.900422 
" clip-path="url(#p1a3c031d89)" style="fill: none; stroke: #b0b0b0; stroke-width: 0.8; stroke-linecap: square"/>
     </g>
     <g id="line2d_66">
      <g>
       <use xlink:href="#m2d7c1ba2b9" x="180" y="639.900422" style="stroke: #000000; stroke-width: 0.8"/>
      </g>
     </g>
     <g id="text_37">
      <!-- 0.30 -->
      <g transform="translate(132.921875 646.739016) scale(0.18 -0.18)">
       <use xlink:href="#DejaVuSans-30"/>
       <use xlink:href="#DejaVuSans-2e" x="63.623047"/>
       <use xlink:href="#DejaVuSans-33" x="95.410156"/>
       <use xlink:href="#DejaVuSans-30" x="159.033203"/>
      </g>
     </g>
    </g>
    <g id="ytick_17">
     <g id="line2d_67">
      <path d="M 180 599.703219 
L 1296 599.703219 
" clip-path="url(#p1a3c031d89)" style="fill: none; stroke: #b0b0b0; stroke-width: 0.8; stroke-linecap: square"/>
     </g>
     <g id="line2d_68">
      <g>
       <use xlink:href="#m2d7c1ba2b9" x="180" y="599.703219" style="stroke: #000000; stroke-width: 0.8"/>
      </g>
     </g>
     <g id="text_38">
      <!-- 0.35 -->
      <g transform="translate(132.921875 606.541813) scale(0.18 -0.18)">
       <use xlink:href="#DejaVuSans-30"/>
       <use xlink:href="#DejaVuSans-2e" x="63.623047"/>
       <use xlink:href="#DejaVuSans-33" x="95.410156"/>
       <use xlink:href="#DejaVuSans-35" x="159.033203"/>
      </g>
     </g>
    </g>
    <g id="ytick_18">
     <g id="line2d_69">
      <path d="M 180 559.506016 
L 1296 559.506016 
" clip-path="url(#p1a3c031d89)" style="fill: none; stroke: #b0b0b0; stroke-width: 0.8; stroke-linecap: square"/>
     </g>
     <g id="line2d_70">
      <g>
       <use xlink:href="#m2d7c1ba2b9" x="180" y="559.506016" style="stroke: #000000; stroke-width: 0.8"/>
      </g>
     </g>
     <g id="text_39">
      <!-- 0.40 -->
      <g transform="translate(132.921875 566.34461) scale(0.18 -0.18)">
       <use xlink:href="#DejaVuSans-30"/>
       <use xlink:href="#DejaVuSans-2e" x="63.623047"/>
       <use xlink:href="#DejaVuSans-34" x="95.410156"/>
       <use xlink:href="#DejaVuSans-30" x="159.033203"/>
      </g>
     </g>
    </g>
    <g id="text_40">
     <!-- $f(t)$ -->
     <g transform="translate(124.7625 736.02) rotate(-90) scale(0.2 -0.2)">
      <use xlink:href="#DejaVuSans-Oblique-66" transform="translate(0 0.015625)"/>
      <use xlink:href="#DejaVuSans-28" transform="translate(35.205078 0.015625)"/>
      <use xlink:href="#DejaVuSans-Oblique-74" transform="translate(74.21875 0.015625)"/>
      <use xlink:href="#DejaVuSans-29" transform="translate(113.427734 0.015625)"/>
     </g>
    </g>
   </g>
   <g id="line2d_71">
    <path d="M 230.727273 881.081885 
L 239.252865 881.081324 
L 247.778457 881.080582 
L 256.304049 881.079602 
L 264.829641 881.078306 
L 273.355233 881.076594 
L 281.880825 881.07433 
L 290.406417 881.07134 
L 298.932009 881.06739 
L 307.457601 881.062176 
L 315.983193 881.055298 
L 324.508785 881.046231 
L 333.034377 881.034289 
L 341.559969 881.01858 
L 350.085561 880.997938 
L 358.611154 880.970852 
L 367.136746 880.935366 
L 375.662338 880.888957 
L 384.18793 880.82838 
L 392.713522 880.749478 
L 401.239114 880.64695 
L 409.764706 880.514061 
L 418.290298 880.342305 
L 426.81589 880.120987 
L 435.341482 879.836744 
L 443.867074 879.472983 
L 452.392666 879.009237 
L 460.918258 878.420451 
L 469.44385 877.676205 
L 477.969442 876.739883 
L 486.495034 875.567838 
L 495.020626 874.108595 
L 503.546218 872.302148 
L 512.071811 870.079449 
L 520.597403 867.36219 
L 529.122995 864.063002 
L 537.648587 860.08621 
L 546.174179 855.329302 
L 554.699771 849.685252 
L 563.225363 843.045827 
L 571.750955 835.305981 
L 580.276547 826.369359 
L 588.802139 816.154869 
L 597.327731 804.604166 
L 605.853323 791.689765 
L 614.378915 777.423364 
L 622.904507 761.863836 
L 631.430099 745.124203 
L 639.955691 727.376881 
L 648.481283 708.856414 
L 657.006875 689.858994 
L 665.532468 670.738227 
L 674.05806 651.896789 
L 682.583652 633.773969 
L 691.109244 616.829428 
L 699.634836 601.523898 
L 708.160428 588.297919 
L 716.68602 577.549973 
L 725.211612 569.615588 
L 733.737204 564.748997 
L 742.262796 563.108828 
L 750.788388 564.748997 
L 759.31398 569.615588 
L 767.839572 577.549973 
L 776.365164 588.297919 
L 784.890756 601.523898 
L 793.416348 616.829428 
L 801.94194 633.773969 
L 810.467532 651.896789 
L 818.993125 670.738227 
L 827.518717 689.858994 
L 836.044309 708.856414 
L 844.569901 727.376881 
L 853.095493 745.124203 
L 861.621085 761.863836 
L 870.146677 777.423364 
L 878.672269 791.689765 
L 887.197861 804.604166 
L 895.723453 816.154869 
L 904.249045 826.369359 
L 912.774637 835.305981 
L 921.300229 843.045827 
L 929.825821 849.685252 
L 938.351413 855.329302 
L 946.877005 860.08621 
L 955.402597 864.063002 
L 963.928189 867.36219 
L 972.453782 870.079449 
L 980.979374 872.302148 
L 989.504966 874.108595 
L 998.030558 875.567838 
L 1006.55615 876.739883 
L 1015.081742 877.676205 
L 1023.607334 878.420451 
L 1032.132926 879.009237 
L 1040.658518 879.472983 
L 1049.18411 879.836744 
L 1057.709702 880.120987 
L 1066.235294 880.342305 
L 1074.760886 880.514061 
L 1083.286478 880.64695 
L 1091.81207 880.749478 
L 1100.337662 880.82838 
L 1108.863254 880.888957 
L 1117.388846 880.935366 
L 1125.914439 880.970852 
L 1134.440031 880.997938 
L 1142.965623 881.01858 
L 1151.491215 881.034289 
L 1160.016807 881.046231 
L 1168.542399 881.055298 
L 1177.067991 881.062176 
L 1185.593583 881.06739 
L 1194.119175 881.07134 
L 1202.644767 881.07433 
L 1211.170359 881.076594 
L 1219.695951 881.078306 
L 1228.221543 881.079602 
L 1236.747135 881.080582 
L 1245.272727 881.081324 
" clip-path="url(#p1a3c031d89)" style="fill: none; stroke-dasharray: 5,8.25; stroke-dashoffset: 0; stroke: #000000; stroke-width: 5"/>
   </g>
   <g id="line2d_72">
    <path d="M 230.727273 881.083636 
L 239.252865 881.083632 
L 247.778457 881.083625 
L 256.304049 881.083613 
L 264.829641 881.083592 
L 273.355233 881.083555 
L 281.880825 881.083492 
L 290.406417 881.083386 
L 298.932009 881.08321 
L 307.457601 881.08292 
L 315.983193 881.082446 
L 324.508785 881.08168 
L 333.034377 881.080457 
L 341.559969 881.07852 
L 350.085561 881.075489 
L 358.611154 881.070791 
L 367.136746 881.063589 
L 375.662338 881.052661 
L 384.18793 881.036254 
L 392.713522 881.01188 
L 401.239114 880.976049 
L 409.764706 880.923933 
L 418.290298 880.848932 
L 426.81589 880.742142 
L 435.341482 880.591706 
L 443.867074 880.382053 
L 452.392666 880.093006 
L 460.918258 879.698792 
L 469.44385 879.166968 
L 477.969442 878.457301 
L 486.495034 877.520683 
L 495.020626 876.298138 
L 503.546218 874.720061 
L 512.071811 872.705793 
L 520.597403 870.163694 
L 529.122995 866.991868 
L 537.648587 863.079692 
L 546.174179 858.310287 
L 554.699771 852.564053 
L 563.225363 845.72329 
L 571.750955 837.677924 
L 580.276547 828.332197 
L 588.802139 817.61213 
L 597.327731 805.473444 
L 605.853323 791.909495 
L 614.378915 776.958739 
L 622.904507 760.711134 
L 631.430099 743.312879 
L 639.955691 724.968915 
L 648.481283 705.942677 
L 657.006875 686.552714 
L 665.532468 667.165984 
L 674.05806 648.187837 
L 682.583652 630.048946 
L 691.109244 613.1897 
L 699.634836 598.042812 
L 708.160428 585.015049 
L 716.68602 574.469171 
L 725.211612 566.707189 
L 733.737204 561.955998 
L 742.262796 560.356364 
L 750.788388 561.955998 
L 759.31398 566.707189 
L 767.839572 574.469171 
L 776.365164 585.015049 
L 784.890756 598.042812 
L 793.416348 613.1897 
L 801.94194 630.048946 
L 810.467532 648.187837 
L 818.993125 667.165984 
L 827.518717 686.552714 
L 836.044309 705.942677 
L 844.569901 724.968915 
L 853.095493 743.312879 
L 861.621085 760.711134 
L 870.146677 776.958739 
L 878.672269 791.909495 
L 887.197861 805.473444 
L 895.723453 817.61213 
L 904.249045 828.332197 
L 912.774637 837.677924 
L 921.300229 845.72329 
L 929.825821 852.564053 
L 938.351413 858.310287 
L 946.877005 863.079692 
L 955.402597 866.991868 
L 963.928189 870.163694 
L 972.453782 872.705793 
L 980.979374 874.720061 
L 989.504966 876.298138 
L 998.030558 877.520683 
L 1006.55615 878.457301 
L 1015.081742 879.166968 
L 1023.607334 879.698792 
L 1032.132926 880.093006 
L 1040.658518 880.382053 
L 1049.18411 880.591706 
L 1057.709702 880.742142 
L 1066.235294 880.848932 
L 1074.760886 880.923933 
L 1083.286478 880.976049 
L 1091.81207 881.01188 
L 1100.337662 881.036254 
L 1108.863254 881.052661 
L 1117.388846 881.063589 
L 1125.914439 881.070791 
L 1134.440031 881.075489 
L 1142.965623 881.07852 
L 1151.491215 881.080457 
L 1160.016807 881.08168 
L 1168.542399 881.082446 
L 1177.067991 881.08292 
L 1185.593583 881.08321 
L 1194.119175 881.083386 
L 1202.644767 881.083492 
L 1211.170359 881.083555 
L 1219.695951 881.083592 
L 1228.221543 881.083613 
L 1236.747135 881.083625 
L 1245.272727 881.083632 
" clip-path="url(#p1a3c031d89)" style="fill: none; stroke: #0000ff; stroke-width: 2; stroke-linecap: square"/>
   </g>
   <g id="line2d_73">
    <path d="M 653.905653 686.552714 
L 830.619939 686.552714 
" clip-path="url(#p1a3c031d89)" style="fill: none; stroke-dasharray: 11.1,4.8; stroke-dashoffset: 0; stroke: #ff0000; stroke-width: 3"/>
   </g>
   <g id="patch_9">
    <path d="M 180 897.12 
L 180 544.32 
" style="fill: none; stroke: #000000; stroke-width: 0.8; stroke-linejoin: miter; stroke-linecap: square"/>
   </g>
   <g id="patch_10">
    <path d="M 1296 897.12 
L 1296 544.32 
" style="fill: none; stroke: #000000; stroke-width: 0.8; stroke-linejoin: miter; stroke-linecap: square"/>
   </g>
   <g id="patch_11">
    <path d="M 180 897.12 
L 1296 897.12 
" style="fill: none; stroke: #000000; stroke-width: 0.8; stroke-linejoin: miter; stroke-linecap: square"/>
   </g>
   <g id="patch_12">
    <path d="M 180 544.32 
L 1296 544.32 
" style="fill: none; stroke: #000000; stroke-width: 0.8; stroke-linejoin: miter; stroke-linecap: square"/>
   </g>
   <g id="text_41">
    <!-- N = 30 -->
    <g transform="translate(700.262438 538.32) scale(0.216 -0.216)">
     <use xlink:href="#DejaVuSans-4e"/>
     <use xlink:href="#DejaVuSans-20" x="74.804688"/>
     <use xlink:href="#DejaVuSans-3d" x="106.591797"/>
     <use xlink:href="#DejaVuSans-20" x="190.380859"/>
     <use xlink:href="#DejaVuSans-33" x="222.167969"/>
     <use xlink:href="#DejaVuSans-30" x="285.791016"/>
    </g>
   </g>
   <g id="legend_2">
    <g id="patch_13">
     <path d="M 1023.989062 637.981875 
L 1283.4 637.981875 
Q 1287 637.981875 1287 634.381875 
L 1287 556.92 
Q 1287 553.32 1283.4 553.32 
L 1023.989062 553.32 
Q 1020.389062 553.32 1020.389062 556.92 
L 1020.389062 634.381875 
Q 1020.389062 637.981875 1023.989062 637.981875 
z
" style="fill: #ffffff; opacity: 0.8; stroke: #cccccc; stroke-linejoin: miter"/>
    </g>
    <g id="line2d_74">
     <path d="M 1027.589062 567.897188 
L 1045.589062 567.897188 
L 1063.589062 567.897188 
" style="fill: none; stroke-dasharray: 5,8.25; stroke-dashoffset: 0; stroke: #000000; stroke-width: 5"/>
    </g>
    <g id="text_42">
     <!-- t-Student con 29 g.d.l. -->
     <g transform="translate(1077.989063 574.197188) scale(0.18 -0.18)">
      <defs>
       <path id="DejaVuSans-39" d="M 703 97 
L 703 672 
Q 941 559 1184 500 
Q 1428 441 1663 441 
Q 2288 441 2617 861 
Q 2947 1281 2994 2138 
Q 2813 1869 2534 1725 
Q 2256 1581 1919 1581 
Q 1219 1581 811 2004 
Q 403 2428 403 3163 
Q 403 3881 828 4315 
Q 1253 4750 1959 4750 
Q 2769 4750 3195 4129 
Q 3622 3509 3622 2328 
Q 3622 1225 3098 567 
Q 2575 -91 1691 -91 
Q 1453 -91 1209 -44 
Q 966 3 703 97 
z
M 1959 2075 
Q 2384 2075 2632 2365 
Q 2881 2656 2881 3163 
Q 2881 3666 2632 3958 
Q 2384 4250 1959 4250 
Q 1534 4250 1286 3958 
Q 1038 3666 1038 3163 
Q 1038 2656 1286 2365 
Q 1534 2075 1959 2075 
z
" transform="scale(0.015625)"/>
      </defs>
      <use xlink:href="#DejaVuSans-74"/>
      <use xlink:href="#DejaVuSans-2d" x="39.208984"/>
      <use xlink:href="#DejaVuSans-53" x="75.292969"/>
      <use xlink:href="#DejaVuSans-74" x="138.769531"/>
      <use xlink:href="#DejaVuSans-75" x="177.978516"/>
      <use xlink:href="#DejaVuSans-64" x="241.357422"/>
      <use xlink:href="#DejaVuSans-65" x="304.833984"/>
      <use xlink:href="#DejaVuSans-6e" x="366.357422"/>
      <use xlink:href="#DejaVuSans-74" x="429.736328"/>
      <use xlink:href="#DejaVuSans-20" x="468.945312"/>
      <use xlink:href="#DejaVuSans-63" x="500.732422"/>
      <use xlink:href="#DejaVuSans-6f" x="555.712891"/>
      <use xlink:href="#DejaVuSans-6e" x="616.894531"/>
      <use xlink:href="#DejaVuSans-20" x="680.273438"/>
      <use xlink:href="#DejaVuSans-32" x="712.060547"/>
      <use xlink:href="#DejaVuSans-39" x="775.683594"/>
      <use xlink:href="#DejaVuSans-20" x="839.306641"/>
      <use xlink:href="#DejaVuSans-67" x="871.09375"/>
      <use xlink:href="#DejaVuSans-2e" x="934.570312"/>
      <use xlink:href="#DejaVuSans-64" x="966.357422"/>
      <use xlink:href="#DejaVuSans-2e" x="1029.833984"/>
      <use xlink:href="#DejaVuSans-6c" x="1061.621094"/>
      <use xlink:href="#DejaVuSans-2e" x="1089.404297"/>
     </g>
    </g>
    <g id="line2d_75">
     <path d="M 1027.589062 594.317813 
L 1045.589062 594.317813 
L 1063.589062 594.317813 
" style="fill: none; stroke: #0000ff; stroke-width: 2; stroke-linecap: square"/>
    </g>
    <g id="text_43">
     <!-- Normal, $\sigma = 1.0$ -->
     <g transform="translate(1077.989063 600.617813) scale(0.18 -0.18)">
      <use xlink:href="#DejaVuSans-4e" transform="translate(0 0.015625)"/>
      <use xlink:href="#DejaVuSans-6f" transform="translate(74.804688 0.015625)"/>
      <use xlink:href="#DejaVuSans-72" transform="translate(135.986328 0.015625)"/>
      <use xlink:href="#DejaVuSans-6d" transform="translate(177.099609 0.015625)"/>
      <use xlink:href="#DejaVuSans-61" transform="translate(274.511719 0.015625)"/>
      <use xlink:href="#DejaVuSans-6c" transform="translate(335.791016 0.015625)"/>
      <use xlink:href="#DejaVuSans-2c" transform="translate(363.574219 0.015625)"/>
      <use xlink:href="#DejaVuSans-20" transform="translate(395.361328 0.015625)"/>
      <use xlink:href="#DejaVuSans-Oblique-3c3" transform="translate(427.148438 0.015625)"/>
      <use xlink:href="#DejaVuSans-3d" transform="translate(510.009766 0.015625)"/>
      <use xlink:href="#DejaVuSans-31" transform="translate(613.28125 0.015625)"/>
      <use xlink:href="#DejaVuSans-2e" transform="translate(676.904297 0.015625)"/>
      <use xlink:href="#DejaVuSans-30" transform="translate(708.691406 0.015625)"/>
     </g>
    </g>
    <g id="line2d_76">
     <path d="M 1027.589062 620.738438 
L 1045.589062 620.738438 
L 1063.589062 620.738438 
" style="fill: none; stroke-dasharray: 11.1,4.8; stroke-dashoffset: 0; stroke: #ff0000; stroke-width: 3"/>
    </g>
    <g id="text_44">
     <!-- $\sigma_t = 1.04$ -->
     <g transform="translate(1077.989063 627.038438) scale(0.18 -0.18)">
      <use xlink:href="#DejaVuSans-Oblique-3c3" transform="translate(0 0.78125)"/>
      <use xlink:href="#DejaVuSans-Oblique-74" transform="translate(63.378906 -15.625) scale(0.7)"/>
      <use xlink:href="#DejaVuSans-3d" transform="translate(113.041992 0.78125)"/>
      <use xlink:href="#DejaVuSans-31" transform="translate(216.313477 0.78125)"/>
      <use xlink:href="#DejaVuSans-2e" transform="translate(279.936523 0.78125)"/>
      <use xlink:href="#DejaVuSans-30" transform="translate(311.723633 0.78125)"/>
      <use xlink:href="#DejaVuSans-34" transform="translate(375.34668 0.78125)"/>
     </g>
    </g>
   </g>
  </g>
 </g>
 <defs>
  <clipPath id="p72bad61b50">
   <rect x="180" y="120.96" width="1116" height="352.8"/>
  </clipPath>
  <clipPath id="p1a3c031d89">
   <rect x="180" y="544.32" width="1116" height="352.8"/>
  </clipPath>
 </defs>
</svg>
