<?xml version="1.0" encoding="utf-8" standalone="no"?>
<!DOCTYPE svg PUBLIC "-//W3C//DTD SVG 1.1//EN"
  "http://www.w3.org/Graphics/SVG/1.1/DTD/svg11.dtd">
<svg xmlns:xlink="http://www.w3.org/1999/xlink" width="1152pt" height="576pt" viewBox="0 0 1152 576" xmlns="http://www.w3.org/2000/svg" version="1.1">
 <metadata>
  <rdf:RDF xmlns:dc="http://purl.org/dc/elements/1.1/" xmlns:cc="http://creativecommons.org/ns#" xmlns:rdf="http://www.w3.org/1999/02/22-rdf-syntax-ns#">
   <cc:Work>
    <dc:type rdf:resource="http://purl.org/dc/dcmitype/StillImage"/>
    <dc:date>2024-02-06T14:25:52.277921</dc:date>
    <dc:format>image/svg+xml</dc:format>
    <dc:creator>
     <cc:Agent>
      <dc:title>Matplotlib v3.7.1, https://matplotlib.org/</dc:title>
     </cc:Agent>
    </dc:creator>
   </cc:Work>
  </rdf:RDF>
 </metadata>
 <defs>
  <style type="text/css">*{stroke-linejoin: round; stroke-linecap: butt}</style>
 </defs>
 <g id="figure_1">
  <g id="patch_1">
   <path d="M 0 576 
L 1152 576 
L 1152 0 
L 0 0 
z
" style="fill: #ffffff"/>
  </g>
  <g id="axes_1">
   <g id="patch_2">
    <path d="M 144 512.64 
L 1036.8 512.64 
L 1036.8 69.12 
L 144 69.12 
z
" style="fill: #ffffff"/>
   </g>
   <g id="patch_3">
    <path d="M 184.581818 512.64 
L 211.636364 512.64 
L 211.636364 512.57439 
L 184.581818 512.57439 
z
" clip-path="url(#p55d30ca096)" style="fill: #c0c0c0"/>
   </g>
   <g id="patch_4">
    <path d="M 211.636364 512.64 
L 238.690909 512.64 
L 238.690909 512.302575 
L 211.636364 512.302575 
z
" clip-path="url(#p55d30ca096)" style="fill: #c0c0c0"/>
   </g>
   <g id="patch_5">
    <path d="M 238.690909 512.64 
L 265.745455 512.64 
L 265.745455 511.777691 
L 238.690909 511.777691 
z
" clip-path="url(#p55d30ca096)" style="fill: #c0c0c0"/>
   </g>
   <g id="patch_6">
    <path d="M 265.745455 512.64 
L 292.8 512.64 
L 292.8 509.874989 
L 265.745455 509.874989 
z
" clip-path="url(#p55d30ca096)" style="fill: #c0c0c0"/>
   </g>
   <g id="patch_7">
    <path d="M 292.8 512.64 
L 319.854545 512.64 
L 319.854545 505.572819 
L 292.8 505.572819 
z
" clip-path="url(#p55d30ca096)" style="fill: #c0c0c0"/>
   </g>
   <g id="patch_8">
    <path d="M 319.854545 512.64 
L 346.909091 512.64 
L 346.909091 497.277785 
L 319.854545 497.277785 
z
" clip-path="url(#p55d30ca096)" style="fill: #c0c0c0"/>
   </g>
   <g id="patch_9">
    <path d="M 346.909091 512.64 
L 373.963636 512.64 
L 373.963636 482.852861 
L 346.909091 482.852861 
z
" clip-path="url(#p55d30ca096)" style="fill: #c0c0c0"/>
   </g>
   <g id="patch_10">
    <path d="M 373.963636 512.64 
L 401.018182 512.64 
L 401.018182 459.711122 
L 373.963636 459.711122 
z
" clip-path="url(#p55d30ca096)" style="fill: #c0c0c0"/>
   </g>
   <g id="patch_11">
    <path d="M 401.018182 512.64 
L 428.072727 512.64 
L 428.072727 424.581419 
L 401.018182 424.581419 
z
" clip-path="url(#p55d30ca096)" style="fill: #c0c0c0"/>
   </g>
   <g id="patch_12">
    <path d="M 428.072727 512.64 
L 455.127273 512.64 
L 455.127273 373.742703 
L 428.072727 373.742703 
z
" clip-path="url(#p55d30ca096)" style="fill: #c0c0c0"/>
   </g>
   <g id="patch_13">
    <path d="M 455.127273 512.64 
L 482.181818 512.64 
L 482.181818 311.656482 
L 455.127273 311.656482 
z
" clip-path="url(#p55d30ca096)" style="fill: #c0c0c0"/>
   </g>
   <g id="patch_14">
    <path d="M 482.181818 512.64 
L 509.236364 512.64 
L 509.236364 245.77423 
L 482.181818 245.77423 
z
" clip-path="url(#p55d30ca096)" style="fill: #c0c0c0"/>
   </g>
   <g id="patch_15">
    <path d="M 509.236364 512.64 
L 536.290909 512.64 
L 536.290909 183.91296 
L 509.236364 183.91296 
z
" clip-path="url(#p55d30ca096)" style="fill: #c0c0c0"/>
   </g>
   <g id="patch_16">
    <path d="M 536.290909 512.64 
L 563.345455 512.64 
L 563.345455 135.79239 
L 536.290909 135.79239 
z
" clip-path="url(#p55d30ca096)" style="fill: #c0c0c0"/>
   </g>
   <g id="patch_17">
    <path d="M 563.345455 512.64 
L 590.4 512.64 
L 590.4 108.245379 
L 563.345455 108.245379 
z
" clip-path="url(#p55d30ca096)" style="fill: #c0c0c0"/>
   </g>
   <g id="patch_18">
    <path d="M 590.4 512.64 
L 617.454545 512.64 
L 617.454545 90.24 
L 590.4 90.24 
z
" clip-path="url(#p55d30ca096)" style="fill: #c0c0c0"/>
   </g>
   <g id="patch_19">
    <path d="M 617.454545 512.64 
L 644.509091 512.64 
L 644.509091 133.186718 
L 617.454545 133.186718 
z
" clip-path="url(#p55d30ca096)" style="fill: #c0c0c0"/>
   </g>
   <g id="patch_20">
    <path d="M 644.509091 512.64 
L 671.563636 512.64 
L 671.563636 180.501217 
L 644.509091 180.501217 
z
" clip-path="url(#p55d30ca096)" style="fill: #c0c0c0"/>
   </g>
   <g id="patch_21">
    <path d="M 671.563636 512.64 
L 698.618182 512.64 
L 698.618182 240.347309 
L 671.563636 240.347309 
z
" clip-path="url(#p55d30ca096)" style="fill: #c0c0c0"/>
   </g>
   <g id="patch_22">
    <path d="M 698.618182 512.64 
L 725.672727 512.64 
L 725.672727 303.933197 
L 698.618182 303.933197 
z
" clip-path="url(#p55d30ca096)" style="fill: #c0c0c0"/>
   </g>
   <g id="patch_23">
    <path d="M 725.672727 512.64 
L 752.727273 512.64 
L 752.727273 369.43116 
L 725.672727 369.43116 
z
" clip-path="url(#p55d30ca096)" style="fill: #c0c0c0"/>
   </g>
   <g id="patch_24">
    <path d="M 752.727273 512.64 
L 779.781818 512.64 
L 779.781818 417.458 
L 752.727273 417.458 
z
" clip-path="url(#p55d30ca096)" style="fill: #c0c0c0"/>
   </g>
   <g id="patch_25">
    <path d="M 779.781818 512.64 
L 806.836364 512.64 
L 806.836364 457.236672 
L 779.781818 457.236672 
z
" clip-path="url(#p55d30ca096)" style="fill: #c0c0c0"/>
   </g>
   <g id="patch_26">
    <path d="M 806.836364 512.64 
L 833.890909 512.64 
L 833.890909 483.124676 
L 806.836364 483.124676 
z
" clip-path="url(#p55d30ca096)" style="fill: #c0c0c0"/>
   </g>
   <g id="patch_27">
    <path d="M 833.890909 512.64 
L 860.945455 512.64 
L 860.945455 498.083856 
L 833.890909 498.083856 
z
" clip-path="url(#p55d30ca096)" style="fill: #c0c0c0"/>
   </g>
   <g id="patch_28">
    <path d="M 860.945455 512.64 
L 888 512.64 
L 888 505.957108 
L 860.945455 505.957108 
z
" clip-path="url(#p55d30ca096)" style="fill: #c0c0c0"/>
   </g>
   <g id="patch_29">
    <path d="M 888 512.64 
L 915.054545 512.64 
L 915.054545 509.800005 
L 888 509.800005 
z
" clip-path="url(#p55d30ca096)" style="fill: #c0c0c0"/>
   </g>
   <g id="patch_30">
    <path d="M 915.054545 512.64 
L 942.109091 512.64 
L 942.109091 511.693335 
L 915.054545 511.693335 
z
" clip-path="url(#p55d30ca096)" style="fill: #c0c0c0"/>
   </g>
   <g id="patch_31">
    <path d="M 942.109091 512.64 
L 969.163636 512.64 
L 969.163636 512.41505 
L 942.109091 512.41505 
z
" clip-path="url(#p55d30ca096)" style="fill: #c0c0c0"/>
   </g>
   <g id="patch_32">
    <path d="M 969.163636 512.64 
L 996.218182 512.64 
L 996.218182 512.602508 
L 969.163636 512.602508 
z
" clip-path="url(#p55d30ca096)" style="fill: #c0c0c0"/>
   </g>
   <g id="matplotlib.axis_1">
    <g id="xtick_1">
     <g id="line2d_1">
      <path d="M 268.058869 512.64 
L 268.058869 69.12 
" clip-path="url(#p55d30ca096)" style="fill: none; stroke: #b0b0b0; stroke-width: 0.8; stroke-linecap: square"/>
     </g>
     <g id="line2d_2">
      <defs>
       <path id="md3f83b9952" d="M 0 0 
L 0 3.5 
" style="stroke: #000000; stroke-width: 0.8"/>
      </defs>
      <g>
       <use xlink:href="#md3f83b9952" x="268.058869" y="512.64" style="stroke: #000000; stroke-width: 0.8"/>
      </g>
     </g>
     <g id="text_1">
      <!-- −4 -->
      <g transform="translate(254.7909 533.317188) scale(0.18 -0.18)">
       <defs>
        <path id="DejaVuSans-2212" d="M 678 2272 
L 4684 2272 
L 4684 1741 
L 678 1741 
L 678 2272 
z
" transform="scale(0.015625)"/>
        <path id="DejaVuSans-34" d="M 2419 4116 
L 825 1625 
L 2419 1625 
L 2419 4116 
z
M 2253 4666 
L 3047 4666 
L 3047 1625 
L 3713 1625 
L 3713 1100 
L 3047 1100 
L 3047 0 
L 2419 0 
L 2419 1100 
L 313 1100 
L 313 1709 
L 2253 4666 
z
" transform="scale(0.015625)"/>
       </defs>
       <use xlink:href="#DejaVuSans-2212"/>
       <use xlink:href="#DejaVuSans-34" x="83.789062"/>
      </g>
     </g>
    </g>
    <g id="xtick_2">
     <g id="line2d_3">
      <path d="M 429.836099 512.64 
L 429.836099 69.12 
" clip-path="url(#p55d30ca096)" style="fill: none; stroke: #b0b0b0; stroke-width: 0.8; stroke-linecap: square"/>
     </g>
     <g id="line2d_4">
      <g>
       <use xlink:href="#md3f83b9952" x="429.836099" y="512.64" style="stroke: #000000; stroke-width: 0.8"/>
      </g>
     </g>
     <g id="text_2">
      <!-- −2 -->
      <g transform="translate(416.56813 533.317188) scale(0.18 -0.18)">
       <defs>
        <path id="DejaVuSans-32" d="M 1228 531 
L 3431 531 
L 3431 0 
L 469 0 
L 469 531 
Q 828 903 1448 1529 
Q 2069 2156 2228 2338 
Q 2531 2678 2651 2914 
Q 2772 3150 2772 3378 
Q 2772 3750 2511 3984 
Q 2250 4219 1831 4219 
Q 1534 4219 1204 4116 
Q 875 4013 500 3803 
L 500 4441 
Q 881 4594 1212 4672 
Q 1544 4750 1819 4750 
Q 2544 4750 2975 4387 
Q 3406 4025 3406 3419 
Q 3406 3131 3298 2873 
Q 3191 2616 2906 2266 
Q 2828 2175 2409 1742 
Q 1991 1309 1228 531 
z
" transform="scale(0.015625)"/>
       </defs>
       <use xlink:href="#DejaVuSans-2212"/>
       <use xlink:href="#DejaVuSans-32" x="83.789062"/>
      </g>
     </g>
    </g>
    <g id="xtick_3">
     <g id="line2d_5">
      <path d="M 591.613329 512.64 
L 591.613329 69.12 
" clip-path="url(#p55d30ca096)" style="fill: none; stroke: #b0b0b0; stroke-width: 0.8; stroke-linecap: square"/>
     </g>
     <g id="line2d_6">
      <g>
       <use xlink:href="#md3f83b9952" x="591.613329" y="512.64" style="stroke: #000000; stroke-width: 0.8"/>
      </g>
     </g>
     <g id="text_3">
      <!-- 0 -->
      <g transform="translate(585.887079 533.317188) scale(0.18 -0.18)">
       <defs>
        <path id="DejaVuSans-30" d="M 2034 4250 
Q 1547 4250 1301 3770 
Q 1056 3291 1056 2328 
Q 1056 1369 1301 889 
Q 1547 409 2034 409 
Q 2525 409 2770 889 
Q 3016 1369 3016 2328 
Q 3016 3291 2770 3770 
Q 2525 4250 2034 4250 
z
M 2034 4750 
Q 2819 4750 3233 4129 
Q 3647 3509 3647 2328 
Q 3647 1150 3233 529 
Q 2819 -91 2034 -91 
Q 1250 -91 836 529 
Q 422 1150 422 2328 
Q 422 3509 836 4129 
Q 1250 4750 2034 4750 
z
" transform="scale(0.015625)"/>
       </defs>
       <use xlink:href="#DejaVuSans-30"/>
      </g>
     </g>
    </g>
    <g id="xtick_4">
     <g id="line2d_7">
      <path d="M 753.390559 512.64 
L 753.390559 69.12 
" clip-path="url(#p55d30ca096)" style="fill: none; stroke: #b0b0b0; stroke-width: 0.8; stroke-linecap: square"/>
     </g>
     <g id="line2d_8">
      <g>
       <use xlink:href="#md3f83b9952" x="753.390559" y="512.64" style="stroke: #000000; stroke-width: 0.8"/>
      </g>
     </g>
     <g id="text_4">
      <!-- 2 -->
      <g transform="translate(747.664309 533.317188) scale(0.18 -0.18)">
       <use xlink:href="#DejaVuSans-32"/>
      </g>
     </g>
    </g>
    <g id="xtick_5">
     <g id="line2d_9">
      <path d="M 915.16779 512.64 
L 915.16779 69.12 
" clip-path="url(#p55d30ca096)" style="fill: none; stroke: #b0b0b0; stroke-width: 0.8; stroke-linecap: square"/>
     </g>
     <g id="line2d_10">
      <g>
       <use xlink:href="#md3f83b9952" x="915.16779" y="512.64" style="stroke: #000000; stroke-width: 0.8"/>
      </g>
     </g>
     <g id="text_5">
      <!-- 4 -->
      <g transform="translate(909.44154 533.317188) scale(0.18 -0.18)">
       <use xlink:href="#DejaVuSans-34"/>
      </g>
     </g>
    </g>
    <g id="text_6">
     <!-- Amplitud en unidades arbitrarias/$10^3$ -->
     <g transform="translate(423.45 557.440625) scale(0.18 -0.18)">
      <defs>
       <path id="DejaVuSans-41" d="M 2188 4044 
L 1331 1722 
L 3047 1722 
L 2188 4044 
z
M 1831 4666 
L 2547 4666 
L 4325 0 
L 3669 0 
L 3244 1197 
L 1141 1197 
L 716 0 
L 50 0 
L 1831 4666 
z
" transform="scale(0.015625)"/>
       <path id="DejaVuSans-6d" d="M 3328 2828 
Q 3544 3216 3844 3400 
Q 4144 3584 4550 3584 
Q 5097 3584 5394 3201 
Q 5691 2819 5691 2113 
L 5691 0 
L 5113 0 
L 5113 2094 
Q 5113 2597 4934 2840 
Q 4756 3084 4391 3084 
Q 3944 3084 3684 2787 
Q 3425 2491 3425 1978 
L 3425 0 
L 2847 0 
L 2847 2094 
Q 2847 2600 2669 2842 
Q 2491 3084 2119 3084 
Q 1678 3084 1418 2786 
Q 1159 2488 1159 1978 
L 1159 0 
L 581 0 
L 581 3500 
L 1159 3500 
L 1159 2956 
Q 1356 3278 1631 3431 
Q 1906 3584 2284 3584 
Q 2666 3584 2933 3390 
Q 3200 3197 3328 2828 
z
" transform="scale(0.015625)"/>
       <path id="DejaVuSans-70" d="M 1159 525 
L 1159 -1331 
L 581 -1331 
L 581 3500 
L 1159 3500 
L 1159 2969 
Q 1341 3281 1617 3432 
Q 1894 3584 2278 3584 
Q 2916 3584 3314 3078 
Q 3713 2572 3713 1747 
Q 3713 922 3314 415 
Q 2916 -91 2278 -91 
Q 1894 -91 1617 61 
Q 1341 213 1159 525 
z
M 3116 1747 
Q 3116 2381 2855 2742 
Q 2594 3103 2138 3103 
Q 1681 3103 1420 2742 
Q 1159 2381 1159 1747 
Q 1159 1113 1420 752 
Q 1681 391 2138 391 
Q 2594 391 2855 752 
Q 3116 1113 3116 1747 
z
" transform="scale(0.015625)"/>
       <path id="DejaVuSans-6c" d="M 603 4863 
L 1178 4863 
L 1178 0 
L 603 0 
L 603 4863 
z
" transform="scale(0.015625)"/>
       <path id="DejaVuSans-69" d="M 603 3500 
L 1178 3500 
L 1178 0 
L 603 0 
L 603 3500 
z
M 603 4863 
L 1178 4863 
L 1178 4134 
L 603 4134 
L 603 4863 
z
" transform="scale(0.015625)"/>
       <path id="DejaVuSans-74" d="M 1172 4494 
L 1172 3500 
L 2356 3500 
L 2356 3053 
L 1172 3053 
L 1172 1153 
Q 1172 725 1289 603 
Q 1406 481 1766 481 
L 2356 481 
L 2356 0 
L 1766 0 
Q 1100 0 847 248 
Q 594 497 594 1153 
L 594 3053 
L 172 3053 
L 172 3500 
L 594 3500 
L 594 4494 
L 1172 4494 
z
" transform="scale(0.015625)"/>
       <path id="DejaVuSans-75" d="M 544 1381 
L 544 3500 
L 1119 3500 
L 1119 1403 
Q 1119 906 1312 657 
Q 1506 409 1894 409 
Q 2359 409 2629 706 
Q 2900 1003 2900 1516 
L 2900 3500 
L 3475 3500 
L 3475 0 
L 2900 0 
L 2900 538 
Q 2691 219 2414 64 
Q 2138 -91 1772 -91 
Q 1169 -91 856 284 
Q 544 659 544 1381 
z
M 1991 3584 
L 1991 3584 
z
" transform="scale(0.015625)"/>
       <path id="DejaVuSans-64" d="M 2906 2969 
L 2906 4863 
L 3481 4863 
L 3481 0 
L 2906 0 
L 2906 525 
Q 2725 213 2448 61 
Q 2172 -91 1784 -91 
Q 1150 -91 751 415 
Q 353 922 353 1747 
Q 353 2572 751 3078 
Q 1150 3584 1784 3584 
Q 2172 3584 2448 3432 
Q 2725 3281 2906 2969 
z
M 947 1747 
Q 947 1113 1208 752 
Q 1469 391 1925 391 
Q 2381 391 2643 752 
Q 2906 1113 2906 1747 
Q 2906 2381 2643 2742 
Q 2381 3103 1925 3103 
Q 1469 3103 1208 2742 
Q 947 2381 947 1747 
z
" transform="scale(0.015625)"/>
       <path id="DejaVuSans-20" transform="scale(0.015625)"/>
       <path id="DejaVuSans-65" d="M 3597 1894 
L 3597 1613 
L 953 1613 
Q 991 1019 1311 708 
Q 1631 397 2203 397 
Q 2534 397 2845 478 
Q 3156 559 3463 722 
L 3463 178 
Q 3153 47 2828 -22 
Q 2503 -91 2169 -91 
Q 1331 -91 842 396 
Q 353 884 353 1716 
Q 353 2575 817 3079 
Q 1281 3584 2069 3584 
Q 2775 3584 3186 3129 
Q 3597 2675 3597 1894 
z
M 3022 2063 
Q 3016 2534 2758 2815 
Q 2500 3097 2075 3097 
Q 1594 3097 1305 2825 
Q 1016 2553 972 2059 
L 3022 2063 
z
" transform="scale(0.015625)"/>
       <path id="DejaVuSans-6e" d="M 3513 2113 
L 3513 0 
L 2938 0 
L 2938 2094 
Q 2938 2591 2744 2837 
Q 2550 3084 2163 3084 
Q 1697 3084 1428 2787 
Q 1159 2491 1159 1978 
L 1159 0 
L 581 0 
L 581 3500 
L 1159 3500 
L 1159 2956 
Q 1366 3272 1645 3428 
Q 1925 3584 2291 3584 
Q 2894 3584 3203 3211 
Q 3513 2838 3513 2113 
z
" transform="scale(0.015625)"/>
       <path id="DejaVuSans-61" d="M 2194 1759 
Q 1497 1759 1228 1600 
Q 959 1441 959 1056 
Q 959 750 1161 570 
Q 1363 391 1709 391 
Q 2188 391 2477 730 
Q 2766 1069 2766 1631 
L 2766 1759 
L 2194 1759 
z
M 3341 1997 
L 3341 0 
L 2766 0 
L 2766 531 
Q 2569 213 2275 61 
Q 1981 -91 1556 -91 
Q 1019 -91 701 211 
Q 384 513 384 1019 
Q 384 1609 779 1909 
Q 1175 2209 1959 2209 
L 2766 2209 
L 2766 2266 
Q 2766 2663 2505 2880 
Q 2244 3097 1772 3097 
Q 1472 3097 1187 3025 
Q 903 2953 641 2809 
L 641 3341 
Q 956 3463 1253 3523 
Q 1550 3584 1831 3584 
Q 2591 3584 2966 3190 
Q 3341 2797 3341 1997 
z
" transform="scale(0.015625)"/>
       <path id="DejaVuSans-73" d="M 2834 3397 
L 2834 2853 
Q 2591 2978 2328 3040 
Q 2066 3103 1784 3103 
Q 1356 3103 1142 2972 
Q 928 2841 928 2578 
Q 928 2378 1081 2264 
Q 1234 2150 1697 2047 
L 1894 2003 
Q 2506 1872 2764 1633 
Q 3022 1394 3022 966 
Q 3022 478 2636 193 
Q 2250 -91 1575 -91 
Q 1294 -91 989 -36 
Q 684 19 347 128 
L 347 722 
Q 666 556 975 473 
Q 1284 391 1588 391 
Q 1994 391 2212 530 
Q 2431 669 2431 922 
Q 2431 1156 2273 1281 
Q 2116 1406 1581 1522 
L 1381 1569 
Q 847 1681 609 1914 
Q 372 2147 372 2553 
Q 372 3047 722 3315 
Q 1072 3584 1716 3584 
Q 2034 3584 2315 3537 
Q 2597 3491 2834 3397 
z
" transform="scale(0.015625)"/>
       <path id="DejaVuSans-72" d="M 2631 2963 
Q 2534 3019 2420 3045 
Q 2306 3072 2169 3072 
Q 1681 3072 1420 2755 
Q 1159 2438 1159 1844 
L 1159 0 
L 581 0 
L 581 3500 
L 1159 3500 
L 1159 2956 
Q 1341 3275 1631 3429 
Q 1922 3584 2338 3584 
Q 2397 3584 2469 3576 
Q 2541 3569 2628 3553 
L 2631 2963 
z
" transform="scale(0.015625)"/>
       <path id="DejaVuSans-62" d="M 3116 1747 
Q 3116 2381 2855 2742 
Q 2594 3103 2138 3103 
Q 1681 3103 1420 2742 
Q 1159 2381 1159 1747 
Q 1159 1113 1420 752 
Q 1681 391 2138 391 
Q 2594 391 2855 752 
Q 3116 1113 3116 1747 
z
M 1159 2969 
Q 1341 3281 1617 3432 
Q 1894 3584 2278 3584 
Q 2916 3584 3314 3078 
Q 3713 2572 3713 1747 
Q 3713 922 3314 415 
Q 2916 -91 2278 -91 
Q 1894 -91 1617 61 
Q 1341 213 1159 525 
L 1159 0 
L 581 0 
L 581 4863 
L 1159 4863 
L 1159 2969 
z
" transform="scale(0.015625)"/>
       <path id="DejaVuSans-2f" d="M 1625 4666 
L 2156 4666 
L 531 -594 
L 0 -594 
L 1625 4666 
z
" transform="scale(0.015625)"/>
       <path id="DejaVuSans-31" d="M 794 531 
L 1825 531 
L 1825 4091 
L 703 3866 
L 703 4441 
L 1819 4666 
L 2450 4666 
L 2450 531 
L 3481 531 
L 3481 0 
L 794 0 
L 794 531 
z
" transform="scale(0.015625)"/>
       <path id="DejaVuSans-33" d="M 2597 2516 
Q 3050 2419 3304 2112 
Q 3559 1806 3559 1356 
Q 3559 666 3084 287 
Q 2609 -91 1734 -91 
Q 1441 -91 1130 -33 
Q 819 25 488 141 
L 488 750 
Q 750 597 1062 519 
Q 1375 441 1716 441 
Q 2309 441 2620 675 
Q 2931 909 2931 1356 
Q 2931 1769 2642 2001 
Q 2353 2234 1838 2234 
L 1294 2234 
L 1294 2753 
L 1863 2753 
Q 2328 2753 2575 2939 
Q 2822 3125 2822 3475 
Q 2822 3834 2567 4026 
Q 2313 4219 1838 4219 
Q 1578 4219 1281 4162 
Q 984 4106 628 3988 
L 628 4550 
Q 988 4650 1302 4700 
Q 1616 4750 1894 4750 
Q 2613 4750 3031 4423 
Q 3450 4097 3450 3541 
Q 3450 3153 3228 2886 
Q 3006 2619 2597 2516 
z
" transform="scale(0.015625)"/>
      </defs>
      <use xlink:href="#DejaVuSans-41" transform="translate(0 0.765625)"/>
      <use xlink:href="#DejaVuSans-6d" transform="translate(68.408203 0.765625)"/>
      <use xlink:href="#DejaVuSans-70" transform="translate(165.820312 0.765625)"/>
      <use xlink:href="#DejaVuSans-6c" transform="translate(229.296875 0.765625)"/>
      <use xlink:href="#DejaVuSans-69" transform="translate(257.080078 0.765625)"/>
      <use xlink:href="#DejaVuSans-74" transform="translate(284.863281 0.765625)"/>
      <use xlink:href="#DejaVuSans-75" transform="translate(324.072266 0.765625)"/>
      <use xlink:href="#DejaVuSans-64" transform="translate(387.451172 0.765625)"/>
      <use xlink:href="#DejaVuSans-20" transform="translate(450.927734 0.765625)"/>
      <use xlink:href="#DejaVuSans-65" transform="translate(482.714844 0.765625)"/>
      <use xlink:href="#DejaVuSans-6e" transform="translate(544.238281 0.765625)"/>
      <use xlink:href="#DejaVuSans-20" transform="translate(607.617188 0.765625)"/>
      <use xlink:href="#DejaVuSans-75" transform="translate(639.404297 0.765625)"/>
      <use xlink:href="#DejaVuSans-6e" transform="translate(702.783203 0.765625)"/>
      <use xlink:href="#DejaVuSans-69" transform="translate(766.162109 0.765625)"/>
      <use xlink:href="#DejaVuSans-64" transform="translate(793.945312 0.765625)"/>
      <use xlink:href="#DejaVuSans-61" transform="translate(857.421875 0.765625)"/>
      <use xlink:href="#DejaVuSans-64" transform="translate(918.701172 0.765625)"/>
      <use xlink:href="#DejaVuSans-65" transform="translate(982.177734 0.765625)"/>
      <use xlink:href="#DejaVuSans-73" transform="translate(1043.701172 0.765625)"/>
      <use xlink:href="#DejaVuSans-20" transform="translate(1095.800781 0.765625)"/>
      <use xlink:href="#DejaVuSans-61" transform="translate(1127.587891 0.765625)"/>
      <use xlink:href="#DejaVuSans-72" transform="translate(1188.867188 0.765625)"/>
      <use xlink:href="#DejaVuSans-62" transform="translate(1229.980469 0.765625)"/>
      <use xlink:href="#DejaVuSans-69" transform="translate(1293.457031 0.765625)"/>
      <use xlink:href="#DejaVuSans-74" transform="translate(1321.240234 0.765625)"/>
      <use xlink:href="#DejaVuSans-72" transform="translate(1360.449219 0.765625)"/>
      <use xlink:href="#DejaVuSans-61" transform="translate(1401.5625 0.765625)"/>
      <use xlink:href="#DejaVuSans-72" transform="translate(1462.841797 0.765625)"/>
      <use xlink:href="#DejaVuSans-69" transform="translate(1503.955078 0.765625)"/>
      <use xlink:href="#DejaVuSans-61" transform="translate(1531.738281 0.765625)"/>
      <use xlink:href="#DejaVuSans-73" transform="translate(1593.017578 0.765625)"/>
      <use xlink:href="#DejaVuSans-2f" transform="translate(1645.117188 0.765625)"/>
      <use xlink:href="#DejaVuSans-31" transform="translate(1678.808594 0.765625)"/>
      <use xlink:href="#DejaVuSans-30" transform="translate(1742.431641 0.765625)"/>
      <use xlink:href="#DejaVuSans-33" transform="translate(1807.011719 39.046875) scale(0.7)"/>
     </g>
    </g>
   </g>
   <g id="matplotlib.axis_2">
    <g id="ytick_1">
     <g id="line2d_11">
      <path d="M 144 512.64 
L 1036.8 512.64 
" clip-path="url(#p55d30ca096)" style="fill: none; stroke: #b0b0b0; stroke-width: 0.8; stroke-linecap: square"/>
     </g>
     <g id="line2d_12">
      <defs>
       <path id="mdda358ceef" d="M 0 0 
L -3.5 0 
" style="stroke: #000000; stroke-width: 0.8"/>
      </defs>
      <g>
       <use xlink:href="#mdda358ceef" x="144" y="512.64" style="stroke: #000000; stroke-width: 0.8"/>
      </g>
     </g>
     <g id="text_7">
      <!-- 0.00 -->
      <g transform="translate(96.921875 519.478594) scale(0.18 -0.18)">
       <defs>
        <path id="DejaVuSans-2e" d="M 684 794 
L 1344 794 
L 1344 0 
L 684 0 
L 684 794 
z
" transform="scale(0.015625)"/>
       </defs>
       <use xlink:href="#DejaVuSans-30"/>
       <use xlink:href="#DejaVuSans-2e" x="63.623047"/>
       <use xlink:href="#DejaVuSans-30" x="95.410156"/>
       <use xlink:href="#DejaVuSans-30" x="159.033203"/>
      </g>
     </g>
    </g>
    <g id="ytick_2">
     <g id="line2d_13">
      <path d="M 144 447.794616 
L 1036.8 447.794616 
" clip-path="url(#p55d30ca096)" style="fill: none; stroke: #b0b0b0; stroke-width: 0.8; stroke-linecap: square"/>
     </g>
     <g id="line2d_14">
      <g>
       <use xlink:href="#mdda358ceef" x="144" y="447.794616" style="stroke: #000000; stroke-width: 0.8"/>
      </g>
     </g>
     <g id="text_8">
      <!-- 0.05 -->
      <g transform="translate(96.921875 454.63321) scale(0.18 -0.18)">
       <defs>
        <path id="DejaVuSans-35" d="M 691 4666 
L 3169 4666 
L 3169 4134 
L 1269 4134 
L 1269 2991 
Q 1406 3038 1543 3061 
Q 1681 3084 1819 3084 
Q 2600 3084 3056 2656 
Q 3513 2228 3513 1497 
Q 3513 744 3044 326 
Q 2575 -91 1722 -91 
Q 1428 -91 1123 -41 
Q 819 9 494 109 
L 494 744 
Q 775 591 1075 516 
Q 1375 441 1709 441 
Q 2250 441 2565 725 
Q 2881 1009 2881 1497 
Q 2881 1984 2565 2268 
Q 2250 2553 1709 2553 
Q 1456 2553 1204 2497 
Q 953 2441 691 2322 
L 691 4666 
z
" transform="scale(0.015625)"/>
       </defs>
       <use xlink:href="#DejaVuSans-30"/>
       <use xlink:href="#DejaVuSans-2e" x="63.623047"/>
       <use xlink:href="#DejaVuSans-30" x="95.410156"/>
       <use xlink:href="#DejaVuSans-35" x="159.033203"/>
      </g>
     </g>
    </g>
    <g id="ytick_3">
     <g id="line2d_15">
      <path d="M 144 382.949232 
L 1036.8 382.949232 
" clip-path="url(#p55d30ca096)" style="fill: none; stroke: #b0b0b0; stroke-width: 0.8; stroke-linecap: square"/>
     </g>
     <g id="line2d_16">
      <g>
       <use xlink:href="#mdda358ceef" x="144" y="382.949232" style="stroke: #000000; stroke-width: 0.8"/>
      </g>
     </g>
     <g id="text_9">
      <!-- 0.10 -->
      <g transform="translate(96.921875 389.787826) scale(0.18 -0.18)">
       <use xlink:href="#DejaVuSans-30"/>
       <use xlink:href="#DejaVuSans-2e" x="63.623047"/>
       <use xlink:href="#DejaVuSans-31" x="95.410156"/>
       <use xlink:href="#DejaVuSans-30" x="159.033203"/>
      </g>
     </g>
    </g>
    <g id="ytick_4">
     <g id="line2d_17">
      <path d="M 144 318.103849 
L 1036.8 318.103849 
" clip-path="url(#p55d30ca096)" style="fill: none; stroke: #b0b0b0; stroke-width: 0.8; stroke-linecap: square"/>
     </g>
     <g id="line2d_18">
      <g>
       <use xlink:href="#mdda358ceef" x="144" y="318.103849" style="stroke: #000000; stroke-width: 0.8"/>
      </g>
     </g>
     <g id="text_10">
      <!-- 0.15 -->
      <g transform="translate(96.921875 324.942442) scale(0.18 -0.18)">
       <use xlink:href="#DejaVuSans-30"/>
       <use xlink:href="#DejaVuSans-2e" x="63.623047"/>
       <use xlink:href="#DejaVuSans-31" x="95.410156"/>
       <use xlink:href="#DejaVuSans-35" x="159.033203"/>
      </g>
     </g>
    </g>
    <g id="ytick_5">
     <g id="line2d_19">
      <path d="M 144 253.258465 
L 1036.8 253.258465 
" clip-path="url(#p55d30ca096)" style="fill: none; stroke: #b0b0b0; stroke-width: 0.8; stroke-linecap: square"/>
     </g>
     <g id="line2d_20">
      <g>
       <use xlink:href="#mdda358ceef" x="144" y="253.258465" style="stroke: #000000; stroke-width: 0.8"/>
      </g>
     </g>
     <g id="text_11">
      <!-- 0.20 -->
      <g transform="translate(96.921875 260.097058) scale(0.18 -0.18)">
       <use xlink:href="#DejaVuSans-30"/>
       <use xlink:href="#DejaVuSans-2e" x="63.623047"/>
       <use xlink:href="#DejaVuSans-32" x="95.410156"/>
       <use xlink:href="#DejaVuSans-30" x="159.033203"/>
      </g>
     </g>
    </g>
    <g id="ytick_6">
     <g id="line2d_21">
      <path d="M 144 188.413081 
L 1036.8 188.413081 
" clip-path="url(#p55d30ca096)" style="fill: none; stroke: #b0b0b0; stroke-width: 0.8; stroke-linecap: square"/>
     </g>
     <g id="line2d_22">
      <g>
       <use xlink:href="#mdda358ceef" x="144" y="188.413081" style="stroke: #000000; stroke-width: 0.8"/>
      </g>
     </g>
     <g id="text_12">
      <!-- 0.25 -->
      <g transform="translate(96.921875 195.251675) scale(0.18 -0.18)">
       <use xlink:href="#DejaVuSans-30"/>
       <use xlink:href="#DejaVuSans-2e" x="63.623047"/>
       <use xlink:href="#DejaVuSans-32" x="95.410156"/>
       <use xlink:href="#DejaVuSans-35" x="159.033203"/>
      </g>
     </g>
    </g>
    <g id="ytick_7">
     <g id="line2d_23">
      <path d="M 144 123.567697 
L 1036.8 123.567697 
" clip-path="url(#p55d30ca096)" style="fill: none; stroke: #b0b0b0; stroke-width: 0.8; stroke-linecap: square"/>
     </g>
     <g id="line2d_24">
      <g>
       <use xlink:href="#mdda358ceef" x="144" y="123.567697" style="stroke: #000000; stroke-width: 0.8"/>
      </g>
     </g>
     <g id="text_13">
      <!-- 0.30 -->
      <g transform="translate(96.921875 130.406291) scale(0.18 -0.18)">
       <use xlink:href="#DejaVuSans-30"/>
       <use xlink:href="#DejaVuSans-2e" x="63.623047"/>
       <use xlink:href="#DejaVuSans-33" x="95.410156"/>
       <use xlink:href="#DejaVuSans-30" x="159.033203"/>
      </g>
     </g>
    </g>
    <g id="text_14">
     <!-- $f_i$ -->
     <g transform="translate(89.178438 296.1) rotate(-90) scale(0.18 -0.18)">
      <defs>
       <path id="DejaVuSans-Oblique-66" d="M 3059 4863 
L 2969 4384 
L 2419 4384 
Q 2106 4384 1964 4261 
Q 1822 4138 1753 3809 
L 1691 3500 
L 2638 3500 
L 2553 3053 
L 1606 3053 
L 1013 0 
L 434 0 
L 1031 3053 
L 481 3053 
L 563 3500 
L 1113 3500 
L 1159 3744 
Q 1278 4363 1576 4613 
Q 1875 4863 2516 4863 
L 3059 4863 
z
" transform="scale(0.015625)"/>
       <path id="DejaVuSans-Oblique-69" d="M 1172 4863 
L 1747 4863 
L 1606 4134 
L 1031 4134 
L 1172 4863 
z
M 909 3500 
L 1484 3500 
L 800 0 
L 225 0 
L 909 3500 
z
" transform="scale(0.015625)"/>
      </defs>
      <use xlink:href="#DejaVuSans-Oblique-66" transform="translate(0 0.015625)"/>
      <use xlink:href="#DejaVuSans-Oblique-69" transform="translate(35.205078 -16.390625) scale(0.7)"/>
     </g>
    </g>
   </g>
   <g id="line2d_25">
    <path d="M 184.581818 512.538892 
L 211.636364 512.344829 
L 238.690909 511.83952 
L 265.745455 510.623401 
L 292.8 507.920674 
L 319.854545 502.380362 
L 346.909091 491.920678 
L 373.963636 473.770354 
L 401.018182 444.901255 
L 428.072727 402.978237 
L 455.127273 347.723231 
L 482.181818 282.248777 
L 509.236364 213.648695 
L 536.290909 152.19193 
L 563.345455 108.977535 
L 590.4 92.70164 
L 617.454545 106.809909 
L 644.509091 148.310398 
L 671.563636 208.806126 
L 698.618182 277.260064 
L 725.672727 343.247489 
L 752.727273 399.397229 
L 779.781818 442.313616 
L 806.836364 472.068823 
L 833.890909 490.897552 
L 860.945455 501.815925 
L 888 507.634302 
L 915.054545 510.489547 
L 942.109091 511.781803 
L 969.163636 512.321847 
L 996.218182 512.530434 
" clip-path="url(#p55d30ca096)" style="fill: none; stroke-dasharray: 3.7,1.6; stroke-dashoffset: 0; stroke: #ff0000"/>
   </g>
   <g id="patch_33">
    <path d="M 144 512.64 
L 144 69.12 
" style="fill: none; stroke: #000000; stroke-width: 0.8; stroke-linejoin: miter; stroke-linecap: square"/>
   </g>
   <g id="patch_34">
    <path d="M 1036.8 512.64 
L 1036.8 69.12 
" style="fill: none; stroke: #000000; stroke-width: 0.8; stroke-linejoin: miter; stroke-linecap: square"/>
   </g>
   <g id="patch_35">
    <path d="M 144 512.64 
L 1036.8 512.64 
" style="fill: none; stroke: #000000; stroke-width: 0.8; stroke-linejoin: miter; stroke-linecap: square"/>
   </g>
   <g id="patch_36">
    <path d="M 144 69.12 
L 1036.8 69.12 
" style="fill: none; stroke: #000000; stroke-width: 0.8; stroke-linejoin: miter; stroke-linecap: square"/>
   </g>
   <g id="text_15">
    <!-- $\bar x$ = -3   $s$ = 1 232 -->
    <g transform="translate(494.172 63.12) scale(0.216 -0.216)">
     <defs>
      <path id="DejaVuSans-304" d="M -2518 4769 
L -650 4769 
L -650 4306 
L -2518 4306 
L -2518 4769 
z
" transform="scale(0.015625)"/>
      <path id="DejaVuSans-Oblique-78" d="M 3841 3500 
L 2234 1784 
L 3219 0 
L 2559 0 
L 1819 1388 
L 531 0 
L -166 0 
L 1556 1844 
L 641 3500 
L 1300 3500 
L 1972 2234 
L 3144 3500 
L 3841 3500 
z
" transform="scale(0.015625)"/>
      <path id="DejaVuSans-3d" d="M 678 2906 
L 4684 2906 
L 4684 2381 
L 678 2381 
L 678 2906 
z
M 678 1631 
L 4684 1631 
L 4684 1100 
L 678 1100 
L 678 1631 
z
" transform="scale(0.015625)"/>
      <path id="DejaVuSans-2d" d="M 313 2009 
L 1997 2009 
L 1997 1497 
L 313 1497 
L 313 2009 
z
" transform="scale(0.015625)"/>
      <path id="DejaVuSans-Oblique-73" d="M 3200 3397 
L 3091 2853 
Q 2863 2978 2609 3040 
Q 2356 3103 2088 3103 
Q 1634 3103 1373 2948 
Q 1113 2794 1113 2528 
Q 1113 2219 1719 2053 
Q 1766 2041 1788 2034 
L 1972 1978 
Q 2547 1819 2739 1644 
Q 2931 1469 2931 1166 
Q 2931 609 2489 259 
Q 2047 -91 1331 -91 
Q 1053 -91 747 -37 
Q 441 16 72 128 
L 184 722 
Q 500 559 806 475 
Q 1113 391 1394 391 
Q 1816 391 2080 572 
Q 2344 753 2344 1031 
Q 2344 1331 1650 1516 
L 1591 1531 
L 1394 1581 
Q 956 1697 753 1886 
Q 550 2075 550 2369 
Q 550 2928 970 3256 
Q 1391 3584 2113 3584 
Q 2397 3584 2667 3537 
Q 2938 3491 3200 3397 
z
" transform="scale(0.015625)"/>
     </defs>
     <use xlink:href="#DejaVuSans-304" transform="translate(63.992188 0.484375)"/>
     <use xlink:href="#DejaVuSans-Oblique-78" transform="translate(0 0.578125)"/>
     <use xlink:href="#DejaVuSans-20" transform="translate(62.59375 0.578125)"/>
     <use xlink:href="#DejaVuSans-3d" transform="translate(94.380859 0.578125)"/>
     <use xlink:href="#DejaVuSans-20" transform="translate(178.169922 0.578125)"/>
     <use xlink:href="#DejaVuSans-2d" transform="translate(209.957031 0.578125)"/>
     <use xlink:href="#DejaVuSans-33" transform="translate(246.041016 0.578125)"/>
     <use xlink:href="#DejaVuSans-20" transform="translate(309.664062 0.578125)"/>
     <use xlink:href="#DejaVuSans-20" transform="translate(341.451172 0.578125)"/>
     <use xlink:href="#DejaVuSans-20" transform="translate(373.238281 0.578125)"/>
     <use xlink:href="#DejaVuSans-Oblique-73" transform="translate(405.025391 0.578125)"/>
     <use xlink:href="#DejaVuSans-20" transform="translate(457.125 0.578125)"/>
     <use xlink:href="#DejaVuSans-3d" transform="translate(488.912109 0.578125)"/>
     <use xlink:href="#DejaVuSans-20" transform="translate(572.701172 0.578125)"/>
     <use xlink:href="#DejaVuSans-31" transform="translate(604.488281 0.578125)"/>
     <use xlink:href="#DejaVuSans-20" transform="translate(668.111328 0.578125)"/>
     <use xlink:href="#DejaVuSans-32" transform="translate(699.898438 0.578125)"/>
     <use xlink:href="#DejaVuSans-33" transform="translate(763.521484 0.578125)"/>
     <use xlink:href="#DejaVuSans-32" transform="translate(827.144531 0.578125)"/>
    </g>
   </g>
  </g>
 </g>
 <defs>
  <clipPath id="p55d30ca096">
   <rect x="144" y="69.12" width="892.8" height="443.52"/>
  </clipPath>
 </defs>
</svg>
