<?xml version="1.0" encoding="utf-8" standalone="no"?>
<!DOCTYPE svg PUBLIC "-//W3C//DTD SVG 1.1//EN"
  "http://www.w3.org/Graphics/SVG/1.1/DTD/svg11.dtd">
<svg xmlns:xlink="http://www.w3.org/1999/xlink" width="1152pt" height="576pt" viewBox="0 0 1152 576" xmlns="http://www.w3.org/2000/svg" version="1.1">
 <metadata>
  <rdf:RDF xmlns:dc="http://purl.org/dc/elements/1.1/" xmlns:cc="http://creativecommons.org/ns#" xmlns:rdf="http://www.w3.org/1999/02/22-rdf-syntax-ns#">
   <cc:Work>
    <dc:type rdf:resource="http://purl.org/dc/dcmitype/StillImage"/>
    <dc:date>2023-04-27T16:25:04.365749</dc:date>
    <dc:format>image/svg+xml</dc:format>
    <dc:creator>
     <cc:Agent>
      <dc:title>Matplotlib v3.5.1, https://matplotlib.org/</dc:title>
     </cc:Agent>
    </dc:creator>
   </cc:Work>
  </rdf:RDF>
 </metadata>
 <defs>
  <style type="text/css">*{stroke-linejoin: round; stroke-linecap: butt}</style>
 </defs>
 <g id="figure_1">
  <g id="patch_1">
   <path d="M 0 576 
L 1152 576 
L 1152 0 
L 0 0 
L 0 576 
z
" style="fill: none"/>
  </g>
  <g id="axes_1">
   <g id="patch_2">
    <path d="M 144 504 
L 1036.8 504 
L 1036.8 69.12 
L 144 69.12 
z
" style="fill: #ffffff"/>
   </g>
   <g id="matplotlib.axis_1">
    <g id="xtick_1">
     <g id="line2d_1">
      <defs>
       <path id="m26c4ec282c" d="M 0 0 
L 0 3.5 
" style="stroke: #000000; stroke-width: 0.8"/>
      </defs>
      <g>
       <use xlink:href="#m26c4ec282c" x="144" y="504" style="stroke: #000000; stroke-width: 0.8"/>
      </g>
     </g>
     <g id="text_1">
      <!-- 0 -->
      <g transform="translate(138.27375 524.677187)scale(0.18 -0.18)">
       <defs>
        <path id="DejaVuSans-30" d="M 2034 4250 
Q 1547 4250 1301 3770 
Q 1056 3291 1056 2328 
Q 1056 1369 1301 889 
Q 1547 409 2034 409 
Q 2525 409 2770 889 
Q 3016 1369 3016 2328 
Q 3016 3291 2770 3770 
Q 2525 4250 2034 4250 
z
M 2034 4750 
Q 2819 4750 3233 4129 
Q 3647 3509 3647 2328 
Q 3647 1150 3233 529 
Q 2819 -91 2034 -91 
Q 1250 -91 836 529 
Q 422 1150 422 2328 
Q 422 3509 836 4129 
Q 1250 4750 2034 4750 
z
" transform="scale(0.015625)"/>
       </defs>
       <use xlink:href="#DejaVuSans-30"/>
      </g>
     </g>
    </g>
    <g id="xtick_2">
     <g id="line2d_2">
      <g>
       <use xlink:href="#m26c4ec282c" x="292.8" y="504" style="stroke: #000000; stroke-width: 0.8"/>
      </g>
     </g>
     <g id="text_2">
      <!-- 5 -->
      <g transform="translate(287.07375 524.677187)scale(0.18 -0.18)">
       <defs>
        <path id="DejaVuSans-35" d="M 691 4666 
L 3169 4666 
L 3169 4134 
L 1269 4134 
L 1269 2991 
Q 1406 3038 1543 3061 
Q 1681 3084 1819 3084 
Q 2600 3084 3056 2656 
Q 3513 2228 3513 1497 
Q 3513 744 3044 326 
Q 2575 -91 1722 -91 
Q 1428 -91 1123 -41 
Q 819 9 494 109 
L 494 744 
Q 775 591 1075 516 
Q 1375 441 1709 441 
Q 2250 441 2565 725 
Q 2881 1009 2881 1497 
Q 2881 1984 2565 2268 
Q 2250 2553 1709 2553 
Q 1456 2553 1204 2497 
Q 953 2441 691 2322 
L 691 4666 
z
" transform="scale(0.015625)"/>
       </defs>
       <use xlink:href="#DejaVuSans-35"/>
      </g>
     </g>
    </g>
    <g id="xtick_3">
     <g id="line2d_3">
      <g>
       <use xlink:href="#m26c4ec282c" x="441.6" y="504" style="stroke: #000000; stroke-width: 0.8"/>
      </g>
     </g>
     <g id="text_3">
      <!-- 10 -->
      <g transform="translate(430.1475 524.677187)scale(0.18 -0.18)">
       <defs>
        <path id="DejaVuSans-31" d="M 794 531 
L 1825 531 
L 1825 4091 
L 703 3866 
L 703 4441 
L 1819 4666 
L 2450 4666 
L 2450 531 
L 3481 531 
L 3481 0 
L 794 0 
L 794 531 
z
" transform="scale(0.015625)"/>
       </defs>
       <use xlink:href="#DejaVuSans-31"/>
       <use xlink:href="#DejaVuSans-30" x="63.623047"/>
      </g>
     </g>
    </g>
    <g id="xtick_4">
     <g id="line2d_4">
      <g>
       <use xlink:href="#m26c4ec282c" x="590.4" y="504" style="stroke: #000000; stroke-width: 0.8"/>
      </g>
     </g>
     <g id="text_4">
      <!-- 15 -->
      <g transform="translate(578.9475 524.677187)scale(0.18 -0.18)">
       <use xlink:href="#DejaVuSans-31"/>
       <use xlink:href="#DejaVuSans-35" x="63.623047"/>
      </g>
     </g>
    </g>
    <g id="xtick_5">
     <g id="line2d_5">
      <g>
       <use xlink:href="#m26c4ec282c" x="739.2" y="504" style="stroke: #000000; stroke-width: 0.8"/>
      </g>
     </g>
     <g id="text_5">
      <!-- 20 -->
      <g transform="translate(727.7475 524.677187)scale(0.18 -0.18)">
       <defs>
        <path id="DejaVuSans-32" d="M 1228 531 
L 3431 531 
L 3431 0 
L 469 0 
L 469 531 
Q 828 903 1448 1529 
Q 2069 2156 2228 2338 
Q 2531 2678 2651 2914 
Q 2772 3150 2772 3378 
Q 2772 3750 2511 3984 
Q 2250 4219 1831 4219 
Q 1534 4219 1204 4116 
Q 875 4013 500 3803 
L 500 4441 
Q 881 4594 1212 4672 
Q 1544 4750 1819 4750 
Q 2544 4750 2975 4387 
Q 3406 4025 3406 3419 
Q 3406 3131 3298 2873 
Q 3191 2616 2906 2266 
Q 2828 2175 2409 1742 
Q 1991 1309 1228 531 
z
" transform="scale(0.015625)"/>
       </defs>
       <use xlink:href="#DejaVuSans-32"/>
       <use xlink:href="#DejaVuSans-30" x="63.623047"/>
      </g>
     </g>
    </g>
    <g id="xtick_6">
     <g id="line2d_6">
      <g>
       <use xlink:href="#m26c4ec282c" x="888" y="504" style="stroke: #000000; stroke-width: 0.8"/>
      </g>
     </g>
     <g id="text_6">
      <!-- 25 -->
      <g transform="translate(876.5475 524.677187)scale(0.18 -0.18)">
       <use xlink:href="#DejaVuSans-32"/>
       <use xlink:href="#DejaVuSans-35" x="63.623047"/>
      </g>
     </g>
    </g>
    <g id="xtick_7">
     <g id="line2d_7">
      <g>
       <use xlink:href="#m26c4ec282c" x="1036.8" y="504" style="stroke: #000000; stroke-width: 0.8"/>
      </g>
     </g>
     <g id="text_7">
      <!-- 30 -->
      <g transform="translate(1025.3475 524.677187)scale(0.18 -0.18)">
       <defs>
        <path id="DejaVuSans-33" d="M 2597 2516 
Q 3050 2419 3304 2112 
Q 3559 1806 3559 1356 
Q 3559 666 3084 287 
Q 2609 -91 1734 -91 
Q 1441 -91 1130 -33 
Q 819 25 488 141 
L 488 750 
Q 750 597 1062 519 
Q 1375 441 1716 441 
Q 2309 441 2620 675 
Q 2931 909 2931 1356 
Q 2931 1769 2642 2001 
Q 2353 2234 1838 2234 
L 1294 2234 
L 1294 2753 
L 1863 2753 
Q 2328 2753 2575 2939 
Q 2822 3125 2822 3475 
Q 2822 3834 2567 4026 
Q 2313 4219 1838 4219 
Q 1578 4219 1281 4162 
Q 984 4106 628 3988 
L 628 4550 
Q 988 4650 1302 4700 
Q 1616 4750 1894 4750 
Q 2613 4750 3031 4423 
Q 3450 4097 3450 3541 
Q 3450 3153 3228 2886 
Q 3006 2619 2597 2516 
z
" transform="scale(0.015625)"/>
       </defs>
       <use xlink:href="#DejaVuSans-33"/>
       <use xlink:href="#DejaVuSans-30" x="63.623047"/>
      </g>
     </g>
    </g>
    <g id="text_8">
     <!-- $\chi^2_{min}$ -->
     <g transform="translate(572.94 548.800625)scale(0.18 -0.18)">
      <defs>
       <path id="DejaVuSans-Oblique-3c7" d="M 1922 -781 
L 1691 416 
L 394 -1334 
L -284 -1334 
L 1553 1141 
L 1269 2613 
Q 1194 3006 713 3006 
L 559 3006 
L 653 3500 
L 872 3494 
Q 1675 3472 1775 2950 
L 2006 1753 
L 3303 3503 
L 3981 3503 
L 2144 1028 
L 2428 -444 
Q 2503 -838 2984 -838 
L 3138 -838 
L 3044 -1331 
L 2825 -1325 
Q 2022 -1303 1922 -781 
z
" transform="scale(0.015625)"/>
       <path id="DejaVuSans-Oblique-6d" d="M 5747 2113 
L 5338 0 
L 4763 0 
L 5166 2094 
Q 5191 2228 5203 2325 
Q 5216 2422 5216 2491 
Q 5216 2772 5059 2928 
Q 4903 3084 4622 3084 
Q 4203 3084 3875 2770 
Q 3547 2456 3450 1953 
L 3066 0 
L 2491 0 
L 2900 2094 
Q 2925 2209 2937 2307 
Q 2950 2406 2950 2484 
Q 2950 2769 2794 2926 
Q 2638 3084 2363 3084 
Q 1938 3084 1609 2770 
Q 1281 2456 1184 1953 
L 800 0 
L 225 0 
L 909 3500 
L 1484 3500 
L 1375 2956 
Q 1609 3263 1923 3423 
Q 2238 3584 2597 3584 
Q 2978 3584 3223 3384 
Q 3469 3184 3519 2828 
Q 3781 3197 4126 3390 
Q 4472 3584 4856 3584 
Q 5306 3584 5551 3325 
Q 5797 3066 5797 2591 
Q 5797 2488 5784 2364 
Q 5772 2241 5747 2113 
z
" transform="scale(0.015625)"/>
       <path id="DejaVuSans-Oblique-69" d="M 1172 4863 
L 1747 4863 
L 1606 4134 
L 1031 4134 
L 1172 4863 
z
M 909 3500 
L 1484 3500 
L 800 0 
L 225 0 
L 909 3500 
z
" transform="scale(0.015625)"/>
       <path id="DejaVuSans-Oblique-6e" d="M 3566 2113 
L 3156 0 
L 2578 0 
L 2988 2091 
Q 3016 2238 3031 2350 
Q 3047 2463 3047 2528 
Q 3047 2791 2881 2937 
Q 2716 3084 2419 3084 
Q 1956 3084 1622 2776 
Q 1288 2469 1184 1941 
L 800 0 
L 225 0 
L 903 3500 
L 1478 3500 
L 1363 2950 
Q 1603 3253 1940 3418 
Q 2278 3584 2650 3584 
Q 3113 3584 3367 3334 
Q 3622 3084 3622 2631 
Q 3622 2519 3608 2391 
Q 3594 2263 3566 2113 
z
" transform="scale(0.015625)"/>
      </defs>
      <use xlink:href="#DejaVuSans-Oblique-3c7" transform="translate(0 0.701562)"/>
      <use xlink:href="#DejaVuSans-32" transform="translate(63.652396 39.046875)scale(0.7)"/>
      <use xlink:href="#DejaVuSans-Oblique-6d" transform="translate(59.179688 -26.642188)scale(0.7)"/>
      <use xlink:href="#DejaVuSans-Oblique-69" transform="translate(127.368164 -26.642188)scale(0.7)"/>
      <use xlink:href="#DejaVuSans-Oblique-6e" transform="translate(146.816406 -26.642188)scale(0.7)"/>
     </g>
    </g>
   </g>
   <g id="matplotlib.axis_2">
    <g id="ytick_1">
     <g id="line2d_8">
      <defs>
       <path id="mbeb84ed7e0" d="M 0 0 
L -3.5 0 
" style="stroke: #000000; stroke-width: 0.8"/>
      </defs>
      <g>
       <use xlink:href="#mbeb84ed7e0" x="144" y="504" style="stroke: #000000; stroke-width: 0.8"/>
      </g>
     </g>
     <g id="text_9">
      <!-- 0.0 -->
      <g transform="translate(108.374375 510.838594)scale(0.18 -0.18)">
       <defs>
        <path id="DejaVuSans-2e" d="M 684 794 
L 1344 794 
L 1344 0 
L 684 0 
L 684 794 
z
" transform="scale(0.015625)"/>
       </defs>
       <use xlink:href="#DejaVuSans-30"/>
       <use xlink:href="#DejaVuSans-2e" x="63.623047"/>
       <use xlink:href="#DejaVuSans-30" x="95.410156"/>
      </g>
     </g>
    </g>
    <g id="ytick_2">
     <g id="line2d_9">
      <g>
       <use xlink:href="#mbeb84ed7e0" x="144" y="417.024" style="stroke: #000000; stroke-width: 0.8"/>
      </g>
     </g>
     <g id="text_10">
      <!-- 0.2 -->
      <g transform="translate(108.374375 423.862594)scale(0.18 -0.18)">
       <use xlink:href="#DejaVuSans-30"/>
       <use xlink:href="#DejaVuSans-2e" x="63.623047"/>
       <use xlink:href="#DejaVuSans-32" x="95.410156"/>
      </g>
     </g>
    </g>
    <g id="ytick_3">
     <g id="line2d_10">
      <g>
       <use xlink:href="#mbeb84ed7e0" x="144" y="330.048" style="stroke: #000000; stroke-width: 0.8"/>
      </g>
     </g>
     <g id="text_11">
      <!-- 0.4 -->
      <g transform="translate(108.374375 336.886594)scale(0.18 -0.18)">
       <defs>
        <path id="DejaVuSans-34" d="M 2419 4116 
L 825 1625 
L 2419 1625 
L 2419 4116 
z
M 2253 4666 
L 3047 4666 
L 3047 1625 
L 3713 1625 
L 3713 1100 
L 3047 1100 
L 3047 0 
L 2419 0 
L 2419 1100 
L 313 1100 
L 313 1709 
L 2253 4666 
z
" transform="scale(0.015625)"/>
       </defs>
       <use xlink:href="#DejaVuSans-30"/>
       <use xlink:href="#DejaVuSans-2e" x="63.623047"/>
       <use xlink:href="#DejaVuSans-34" x="95.410156"/>
      </g>
     </g>
    </g>
    <g id="ytick_4">
     <g id="line2d_11">
      <g>
       <use xlink:href="#mbeb84ed7e0" x="144" y="243.072" style="stroke: #000000; stroke-width: 0.8"/>
      </g>
     </g>
     <g id="text_12">
      <!-- 0.6 -->
      <g transform="translate(108.374375 249.910594)scale(0.18 -0.18)">
       <defs>
        <path id="DejaVuSans-36" d="M 2113 2584 
Q 1688 2584 1439 2293 
Q 1191 2003 1191 1497 
Q 1191 994 1439 701 
Q 1688 409 2113 409 
Q 2538 409 2786 701 
Q 3034 994 3034 1497 
Q 3034 2003 2786 2293 
Q 2538 2584 2113 2584 
z
M 3366 4563 
L 3366 3988 
Q 3128 4100 2886 4159 
Q 2644 4219 2406 4219 
Q 1781 4219 1451 3797 
Q 1122 3375 1075 2522 
Q 1259 2794 1537 2939 
Q 1816 3084 2150 3084 
Q 2853 3084 3261 2657 
Q 3669 2231 3669 1497 
Q 3669 778 3244 343 
Q 2819 -91 2113 -91 
Q 1303 -91 875 529 
Q 447 1150 447 2328 
Q 447 3434 972 4092 
Q 1497 4750 2381 4750 
Q 2619 4750 2861 4703 
Q 3103 4656 3366 4563 
z
" transform="scale(0.015625)"/>
       </defs>
       <use xlink:href="#DejaVuSans-30"/>
       <use xlink:href="#DejaVuSans-2e" x="63.623047"/>
       <use xlink:href="#DejaVuSans-36" x="95.410156"/>
      </g>
     </g>
    </g>
    <g id="ytick_5">
     <g id="line2d_12">
      <g>
       <use xlink:href="#mbeb84ed7e0" x="144" y="156.096" style="stroke: #000000; stroke-width: 0.8"/>
      </g>
     </g>
     <g id="text_13">
      <!-- 0.8 -->
      <g transform="translate(108.374375 162.934594)scale(0.18 -0.18)">
       <defs>
        <path id="DejaVuSans-38" d="M 2034 2216 
Q 1584 2216 1326 1975 
Q 1069 1734 1069 1313 
Q 1069 891 1326 650 
Q 1584 409 2034 409 
Q 2484 409 2743 651 
Q 3003 894 3003 1313 
Q 3003 1734 2745 1975 
Q 2488 2216 2034 2216 
z
M 1403 2484 
Q 997 2584 770 2862 
Q 544 3141 544 3541 
Q 544 4100 942 4425 
Q 1341 4750 2034 4750 
Q 2731 4750 3128 4425 
Q 3525 4100 3525 3541 
Q 3525 3141 3298 2862 
Q 3072 2584 2669 2484 
Q 3125 2378 3379 2068 
Q 3634 1759 3634 1313 
Q 3634 634 3220 271 
Q 2806 -91 2034 -91 
Q 1263 -91 848 271 
Q 434 634 434 1313 
Q 434 1759 690 2068 
Q 947 2378 1403 2484 
z
M 1172 3481 
Q 1172 3119 1398 2916 
Q 1625 2713 2034 2713 
Q 2441 2713 2670 2916 
Q 2900 3119 2900 3481 
Q 2900 3844 2670 4047 
Q 2441 4250 2034 4250 
Q 1625 4250 1398 4047 
Q 1172 3844 1172 3481 
z
" transform="scale(0.015625)"/>
       </defs>
       <use xlink:href="#DejaVuSans-30"/>
       <use xlink:href="#DejaVuSans-2e" x="63.623047"/>
       <use xlink:href="#DejaVuSans-38" x="95.410156"/>
      </g>
     </g>
    </g>
    <g id="ytick_6">
     <g id="line2d_13">
      <g>
       <use xlink:href="#mbeb84ed7e0" x="144" y="69.12" style="stroke: #000000; stroke-width: 0.8"/>
      </g>
     </g>
     <g id="text_14">
      <!-- 1.0 -->
      <g transform="translate(108.374375 75.958594)scale(0.18 -0.18)">
       <use xlink:href="#DejaVuSans-31"/>
       <use xlink:href="#DejaVuSans-2e" x="63.623047"/>
       <use xlink:href="#DejaVuSans-30" x="95.410156"/>
      </g>
     </g>
    </g>
    <g id="text_15">
     <!-- $P(\chi^2_{min} \leq \chi^2)$ -->
     <g transform="translate(99.334375 337.5)rotate(-90)scale(0.18 -0.18)">
      <defs>
       <path id="DejaVuSans-Oblique-50" d="M 1081 4666 
L 2541 4666 
Q 3178 4666 3512 4369 
Q 3847 4072 3847 3500 
Q 3847 2731 3353 2303 
Q 2859 1875 1966 1875 
L 1172 1875 
L 806 0 
L 172 0 
L 1081 4666 
z
M 1613 4147 
L 1275 2394 
L 2069 2394 
Q 2606 2394 2893 2669 
Q 3181 2944 3181 3456 
Q 3181 3784 2986 3965 
Q 2791 4147 2438 4147 
L 1613 4147 
z
" transform="scale(0.015625)"/>
       <path id="DejaVuSans-28" d="M 1984 4856 
Q 1566 4138 1362 3434 
Q 1159 2731 1159 2009 
Q 1159 1288 1364 580 
Q 1569 -128 1984 -844 
L 1484 -844 
Q 1016 -109 783 600 
Q 550 1309 550 2009 
Q 550 2706 781 3412 
Q 1013 4119 1484 4856 
L 1984 4856 
z
" transform="scale(0.015625)"/>
       <path id="DejaVuSans-2264" d="M 4684 3175 
L 1684 2309 
L 4684 1453 
L 4684 897 
L 678 2047 
L 678 2578 
L 4684 3725 
L 4684 3175 
z
M 678 531 
L 4684 531 
L 4684 0 
L 678 0 
L 678 531 
z
" transform="scale(0.015625)"/>
       <path id="DejaVuSans-29" d="M 513 4856 
L 1013 4856 
Q 1481 4119 1714 3412 
Q 1947 2706 1947 2009 
Q 1947 1309 1714 600 
Q 1481 -109 1013 -844 
L 513 -844 
Q 928 -128 1133 580 
Q 1338 1288 1338 2009 
Q 1338 2731 1133 3434 
Q 928 4138 513 4856 
z
" transform="scale(0.015625)"/>
      </defs>
      <use xlink:href="#DejaVuSans-Oblique-50" transform="translate(0 0.701562)"/>
      <use xlink:href="#DejaVuSans-28" transform="translate(60.302734 0.701562)"/>
      <use xlink:href="#DejaVuSans-Oblique-3c7" transform="translate(99.316406 0.701562)"/>
      <use xlink:href="#DejaVuSans-32" transform="translate(162.968802 39.046875)scale(0.7)"/>
      <use xlink:href="#DejaVuSans-Oblique-6d" transform="translate(158.496094 -26.642188)scale(0.7)"/>
      <use xlink:href="#DejaVuSans-Oblique-69" transform="translate(226.68457 -26.642188)scale(0.7)"/>
      <use xlink:href="#DejaVuSans-Oblique-6e" transform="translate(246.132812 -26.642188)scale(0.7)"/>
      <use xlink:href="#DejaVuSans-2264" transform="translate(312.714844 0.701562)"/>
      <use xlink:href="#DejaVuSans-Oblique-3c7" transform="translate(415.986328 0.701562)"/>
      <use xlink:href="#DejaVuSans-32" transform="translate(479.638724 38.982812)scale(0.7)"/>
      <use xlink:href="#DejaVuSans-29" transform="translate(526.909232 0.701562)"/>
     </g>
    </g>
   </g>
   <g id="line2d_14">
    <path d="M 144 69.12 
L 153.018182 250.904667 
L 162.036364 314.272759 
L 171.054545 355.986095 
L 180.072727 386.185603 
L 189.090909 409.041912 
L 198.109091 426.795818 
L 207.127273 440.824316 
L 216.145455 452.044457 
L 225.163636 461.100127 
L 234.181818 468.460409 
L 243.2 474.476364 
L 252.218182 479.416113 
L 261.236364 483.487681 
L 270.254545 486.854494 
L 279.272727 489.646239 
L 288.290909 491.966684 
L 297.309091 493.899434 
L 306.327273 495.512238 
L 315.345455 496.860267 
L 324.363636 497.988643 
L 333.381818 498.934406 
L 342.4 499.728054 
L 351.418182 500.394778 
L 360.436364 500.95543 
L 369.454545 501.427315 
L 378.472727 501.824817 
L 387.490909 502.159921 
L 396.509091 502.442623 
L 405.527273 502.681276 
L 414.545455 502.882867 
L 423.563636 503.053249 
L 432.581818 503.197333 
L 441.6 503.319238 
L 450.618182 503.422427 
L 459.636364 503.509814 
L 468.654545 503.583848 
L 477.672727 503.646596 
L 486.690909 503.699797 
L 495.709091 503.744921 
L 504.727273 503.783206 
L 513.745455 503.815699 
L 522.763636 503.843286 
L 531.781818 503.866713 
L 540.8 503.886614 
L 549.818182 503.903523 
L 558.836364 503.917895 
L 567.854545 503.930112 
L 576.872727 503.9405 
L 585.890909 503.949336 
L 594.909091 503.956852 
L 603.927273 503.963247 
L 612.945455 503.968689 
L 621.963636 503.973321 
L 630.981818 503.977265 
L 640 503.980623 
L 649.018182 503.983483 
L 658.036364 503.985919 
L 667.054545 503.987994 
L 676.072727 503.989762 
L 685.090909 503.991268 
L 694.109091 503.992552 
L 703.127273 503.993647 
L 712.145455 503.99458 
L 721.163636 503.995375 
L 730.181818 503.996054 
L 739.2 503.996632 
L 748.218182 503.997126 
L 757.236364 503.997547 
L 766.254545 503.997906 
L 775.272727 503.998212 
L 784.290909 503.998473 
L 793.309091 503.998696 
L 802.327273 503.998887 
L 811.345455 503.999049 
L 820.363636 503.999188 
L 829.381818 503.999307 
L 838.4 503.999408 
L 847.418182 503.999494 
L 856.436364 503.999568 
L 865.454545 503.999631 
L 874.472727 503.999684 
L 883.490909 503.99973 
L 892.509091 503.99977 
L 901.527273 503.999803 
L 910.545455 503.999832 
L 919.563636 503.999856 
L 928.581818 503.999877 
L 937.6 503.999895 
L 946.618182 503.99991 
L 955.636364 503.999923 
L 964.654545 503.999934 
L 973.672727 503.999944 
L 982.690909 503.999952 
L 991.709091 503.999959 
L 1000.727273 503.999965 
L 1009.745455 503.99997 
L 1018.763636 503.999974 
L 1027.781818 503.999978 
L 1036.8 503.999981 
" clip-path="url(#p29f99df9ee)" style="fill: none; stroke: #1f77b4; stroke-width: 1.5; stroke-linecap: square"/>
   </g>
   <g id="line2d_15">
    <path d="M 144 69.12 
L 153.018182 73.635047 
L 162.036364 85.476776 
L 171.054545 102.495747 
L 180.072727 123.002095 
L 189.090909 145.678789 
L 198.109091 169.5102 
L 207.127273 193.723383 
L 216.145455 217.739911 
L 225.163636 241.136461 
L 234.181818 263.61263 
L 243.2 284.964741 
L 252.218182 305.064581 
L 261.236364 323.84221 
L 270.254545 341.272107 
L 279.272727 357.362065 
L 288.290909 372.144324 
L 297.309091 385.668546 
L 306.327273 397.996279 
L 315.345455 409.19663 
L 324.363636 419.342926 
L 333.381818 428.51016 
L 342.4 436.773073 
L 351.418182 444.204742 
L 360.436364 450.875572 
L 369.454545 456.852602 
L 378.472727 462.19906 
L 387.490909 466.974108 
L 396.509091 471.232738 
L 405.527273 475.025773 
L 414.545455 478.399953 
L 423.563636 481.398081 
L 432.581818 484.059199 
L 441.6 486.41881 
L 450.618182 488.50909 
L 459.636364 490.359131 
L 468.654545 491.995167 
L 477.672727 493.440805 
L 486.690909 494.717243 
L 495.709091 495.843483 
L 504.727273 496.836527 
L 513.745455 497.711566 
L 522.763636 498.482154 
L 531.781818 499.160363 
L 540.8 499.756937 
L 549.818182 500.281426 
L 558.836364 500.742306 
L 567.854545 501.147096 
L 576.872727 501.502458 
L 585.890909 501.814289 
L 594.909091 502.087805 
L 603.927273 502.327616 
L 612.945455 502.537792 
L 621.963636 502.721928 
L 630.981818 502.883189 
L 640 503.024369 
L 649.018182 503.147927 
L 658.036364 503.256026 
L 667.054545 503.350572 
L 676.072727 503.433239 
L 685.090909 503.505498 
L 694.109091 503.568642 
L 703.127273 503.623805 
L 712.145455 503.671983 
L 721.163636 503.71405 
L 730.181818 503.750773 
L 739.2 503.782821 
L 748.218182 503.810785 
L 757.236364 503.835178 
L 766.254545 503.856452 
L 775.272727 503.875003 
L 784.290909 503.891174 
L 793.309091 503.905269 
L 802.327273 503.917552 
L 811.345455 503.928254 
L 820.363636 503.937576 
L 829.381818 503.945695 
L 838.4 503.952765 
L 847.418182 503.958921 
L 856.436364 503.964279 
L 865.454545 503.968942 
L 874.472727 503.973001 
L 883.490909 503.976532 
L 892.509091 503.979604 
L 901.527273 503.982276 
L 910.545455 503.9846 
L 919.563636 503.98662 
L 928.581818 503.988377 
L 937.6 503.989905 
L 946.618182 503.991232 
L 955.636364 503.992386 
L 964.654545 503.993389 
L 973.672727 503.99426 
L 982.690909 503.995017 
L 991.709091 503.995675 
L 1000.727273 503.996246 
L 1009.745455 503.996742 
L 1018.763636 503.997173 
L 1027.781818 503.997547 
L 1036.8 503.997872 
" clip-path="url(#p29f99df9ee)" style="fill: none; stroke: #ff7f0e; stroke-width: 1.5; stroke-linecap: square"/>
   </g>
   <g id="line2d_16">
    <path d="M 144 69.12 
L 153.018182 69.165009 
L 162.036364 69.573111 
L 171.054545 70.787839 
L 180.072727 73.188247 
L 189.090909 77.043307 
L 198.109091 82.507815 
L 207.127273 89.634239 
L 216.145455 98.390537 
L 225.163636 108.67923 
L 234.181818 120.355445 
L 243.2 133.242838 
L 252.218182 147.147017 
L 261.236364 161.866416 
L 270.254545 177.200808 
L 279.272727 192.957693 
L 288.290909 208.956887 
L 297.309091 225.033588 
L 306.327273 241.040213 
L 315.345455 256.847263 
L 324.363636 272.343421 
L 333.381818 287.43509 
L 342.4 302.04552 
L 351.418182 316.113655 
L 360.436364 329.592803 
L 369.454545 342.449216 
L 378.472727 354.660634 
L 387.490909 366.214856 
L 396.509091 377.108357 
L 405.527273 387.344986 
L 414.545455 396.934761 
L 423.563636 405.89276 
L 432.581818 414.238125 
L 441.6 421.99317 
L 450.618182 429.182603 
L 459.636364 435.832831 
L 468.654545 441.971377 
L 477.672727 447.626373 
L 486.690909 452.826134 
L 495.709091 457.598809 
L 504.727273 461.97209 
L 513.745455 465.972978 
L 522.763636 469.627606 
L 531.781818 472.961094 
L 540.8 475.997454 
L 549.818182 478.759516 
L 558.836364 481.268888 
L 567.854545 483.545933 
L 576.872727 485.609774 
L 585.890909 487.478299 
L 594.909091 489.168195 
L 603.927273 490.694979 
L 612.945455 492.073043 
L 621.963636 493.3157 
L 630.981818 494.43524 
L 640 495.442978 
L 649.018182 496.349317 
L 658.036364 497.163797 
L 667.054545 497.895156 
L 676.072727 498.551379 
L 685.090909 499.139756 
L 694.109091 499.666928 
L 703.127273 500.13894 
L 712.145455 500.561283 
L 721.163636 500.938943 
L 730.181818 501.276437 
L 739.2 501.577856 
L 748.218182 501.8469 
L 757.236364 502.086909 
L 766.254545 502.3009 
L 775.272727 502.491591 
L 784.290909 502.661432 
L 793.309091 502.812626 
L 802.327273 502.947155 
L 811.345455 503.066798 
L 820.363636 503.173153 
L 829.381818 503.267654 
L 838.4 503.351586 
L 847.418182 503.426097 
L 856.436364 503.492219 
L 865.454545 503.550871 
L 874.472727 503.602878 
L 883.490909 503.648974 
L 892.509091 503.689815 
L 901.527273 503.725988 
L 910.545455 503.758014 
L 919.563636 503.78636 
L 928.581818 503.811439 
L 937.6 503.83362 
L 946.618182 503.853232 
L 955.636364 503.870567 
L 964.654545 503.885884 
L 973.672727 503.899415 
L 982.690909 503.911363 
L 991.709091 503.921912 
L 1000.727273 503.931221 
L 1009.745455 503.939436 
L 1018.763636 503.946681 
L 1027.781818 503.953071 
L 1036.8 503.958704 
" clip-path="url(#p29f99df9ee)" style="fill: none; stroke: #2ca02c; stroke-width: 1.5; stroke-linecap: square"/>
   </g>
   <g id="line2d_17">
    <path d="M 144 69.12 
L 153.018182 69.120255 
L 162.036364 69.1272 
L 171.054545 69.168248 
L 180.072727 69.2995 
L 189.090909 69.603863 
L 198.109091 70.184045 
L 207.127273 71.153552 
L 216.145455 72.627612 
L 225.163636 74.715152 
L 234.181818 77.512356 
L 243.2 81.098012 
L 252.218182 85.530572 
L 261.236364 90.846776 
L 270.254545 97.061562 
L 279.272727 104.16902 
L 288.290909 112.144108 
L 297.309091 120.944902 
L 306.327273 130.515156 
L 315.345455 140.787017 
L 324.363636 151.683738 
L 333.381818 163.122294 
L 342.4 175.015807 
L 351.418182 187.275758 
L 360.436364 199.813914 
L 369.454545 212.543991 
L 378.472727 225.383029 
L 387.490909 238.252503 
L 396.509091 251.079172 
L 405.527273 263.7957 
L 414.545455 276.341064 
L 423.563636 288.660778 
L 432.581818 300.706964 
L 441.6 312.43828 
L 450.618182 323.819751 
L 459.636364 334.822502 
L 468.654545 345.42343 
L 477.672727 355.604826 
L 486.690909 365.353964 
L 495.709091 374.662667 
L 504.727273 383.526866 
L 513.745455 391.946165 
L 522.763636 399.923408 
L 531.781818 407.464262 
L 540.8 414.576823 
L 549.818182 421.271245 
L 558.836364 427.559389 
L 567.854545 433.454506 
L 576.872727 438.970942 
L 585.890909 444.123876 
L 594.909091 448.929077 
L 603.927273 453.402701 
L 612.945455 457.561096 
L 621.963636 461.420649 
L 630.981818 464.997637 
L 640 468.308117 
L 649.018182 471.367821 
L 658.036364 474.192074 
L 667.054545 476.795728 
L 676.072727 479.193112 
L 685.090909 481.397986 
L 694.109091 483.42352 
L 703.127273 485.282267 
L 712.145455 486.986156 
L 721.163636 488.546492 
L 730.181818 489.97395 
L 739.2 491.278591 
L 748.218182 492.469871 
L 757.236364 493.556656 
L 766.254545 494.547241 
L 775.272727 495.449373 
L 784.290909 496.270269 
L 793.309091 497.016644 
L 802.327273 497.694731 
L 811.345455 498.31031 
L 820.363636 498.86873 
L 829.381818 499.374931 
L 838.4 499.833476 
L 847.418182 500.248568 
L 856.436364 500.624073 
L 865.454545 500.963547 
L 874.472727 501.270253 
L 883.490909 501.547182 
L 892.509091 501.797076 
L 901.527273 502.02244 
L 910.545455 502.225566 
L 919.563636 502.408546 
L 928.581818 502.573288 
L 937.6 502.72153 
L 946.618182 502.854856 
L 955.636364 502.974704 
L 964.654545 503.082384 
L 973.672727 503.179083 
L 982.690909 503.26588 
L 991.709091 503.343753 
L 1000.727273 503.413587 
L 1009.745455 503.476184 
L 1018.763636 503.532269 
L 1027.781818 503.582498 
L 1036.8 503.627464 
" clip-path="url(#p29f99df9ee)" style="fill: none; stroke: #d62728; stroke-width: 1.5; stroke-linecap: square"/>
   </g>
   <g id="patch_3">
    <path d="M 144 504 
L 144 69.12 
" style="fill: none; stroke: #000000; stroke-width: 0.8; stroke-linejoin: miter; stroke-linecap: square"/>
   </g>
   <g id="patch_4">
    <path d="M 1036.8 504 
L 1036.8 69.12 
" style="fill: none; stroke: #000000; stroke-width: 0.8; stroke-linejoin: miter; stroke-linecap: square"/>
   </g>
   <g id="patch_5">
    <path d="M 144 504 
L 1036.8 504 
" style="fill: none; stroke: #000000; stroke-width: 0.8; stroke-linejoin: miter; stroke-linecap: square"/>
   </g>
   <g id="patch_6">
    <path d="M 144 69.12 
L 1036.8 69.12 
" style="fill: none; stroke: #000000; stroke-width: 0.8; stroke-linejoin: miter; stroke-linecap: square"/>
   </g>
   <g id="legend_1">
    <g id="patch_7">
     <path d="M 907.02 189.2025 
L 1024.2 189.2025 
Q 1027.8 189.2025 1027.8 185.6025 
L 1027.8 81.72 
Q 1027.8 78.12 1024.2 78.12 
L 907.02 78.12 
Q 903.42 78.12 903.42 81.72 
L 903.42 185.6025 
Q 903.42 189.2025 907.02 189.2025 
z
" style="fill: #ffffff; opacity: 0.8; stroke: #cccccc; stroke-linejoin: miter"/>
    </g>
    <g id="line2d_18">
     <path d="M 910.62 92.697187 
L 928.62 92.697187 
L 946.62 92.697187 
" style="fill: none; stroke: #1f77b4; stroke-width: 1.5; stroke-linecap: square"/>
    </g>
    <g id="text_16">
     <!-- $\nu$ = 1 -->
     <g transform="translate(961.02 98.997187)scale(0.18 -0.18)">
      <defs>
       <path id="DejaVuSans-Oblique-3bd" d="M 959 0 
L 572 3500 
L 1191 3500 
L 1522 563 
Q 1972 950 2391 1488 
Q 2706 1891 2788 2241 
Q 2825 2406 2809 2719 
Q 2794 3091 2544 3500 
L 3125 3500 
L 3125 3500 
Q 3288 3222 3353 2834 
Q 3416 2478 3369 2234 
Q 3250 1622 2719 1075 
Q 2025 363 1572 0 
L 959 0 
z
" transform="scale(0.015625)"/>
       <path id="DejaVuSans-20" transform="scale(0.015625)"/>
       <path id="DejaVuSans-3d" d="M 678 2906 
L 4684 2906 
L 4684 2381 
L 678 2381 
L 678 2906 
z
M 678 1631 
L 4684 1631 
L 4684 1100 
L 678 1100 
L 678 1631 
z
" transform="scale(0.015625)"/>
      </defs>
      <use xlink:href="#DejaVuSans-Oblique-3bd" transform="translate(0 0.09375)"/>
      <use xlink:href="#DejaVuSans-20" transform="translate(55.859375 0.09375)"/>
      <use xlink:href="#DejaVuSans-3d" transform="translate(87.646484 0.09375)"/>
      <use xlink:href="#DejaVuSans-20" transform="translate(171.435547 0.09375)"/>
      <use xlink:href="#DejaVuSans-31" transform="translate(203.222656 0.09375)"/>
     </g>
    </g>
    <g id="line2d_19">
     <path d="M 910.62 119.117812 
L 928.62 119.117812 
L 946.62 119.117812 
" style="fill: none; stroke: #ff7f0e; stroke-width: 1.5; stroke-linecap: square"/>
    </g>
    <g id="text_17">
     <!-- $\nu$ = 4 -->
     <g transform="translate(961.02 125.417812)scale(0.18 -0.18)">
      <use xlink:href="#DejaVuSans-Oblique-3bd" transform="translate(0 0.09375)"/>
      <use xlink:href="#DejaVuSans-20" transform="translate(55.859375 0.09375)"/>
      <use xlink:href="#DejaVuSans-3d" transform="translate(87.646484 0.09375)"/>
      <use xlink:href="#DejaVuSans-20" transform="translate(171.435547 0.09375)"/>
      <use xlink:href="#DejaVuSans-34" transform="translate(203.222656 0.09375)"/>
     </g>
    </g>
    <g id="line2d_20">
     <path d="M 910.62 145.538437 
L 928.62 145.538437 
L 946.62 145.538437 
" style="fill: none; stroke: #2ca02c; stroke-width: 1.5; stroke-linecap: square"/>
    </g>
    <g id="text_18">
     <!-- $\nu$ = 7 -->
     <g transform="translate(961.02 151.838437)scale(0.18 -0.18)">
      <defs>
       <path id="DejaVuSans-37" d="M 525 4666 
L 3525 4666 
L 3525 4397 
L 1831 0 
L 1172 0 
L 2766 4134 
L 525 4134 
L 525 4666 
z
" transform="scale(0.015625)"/>
      </defs>
      <use xlink:href="#DejaVuSans-Oblique-3bd" transform="translate(0 0.09375)"/>
      <use xlink:href="#DejaVuSans-20" transform="translate(55.859375 0.09375)"/>
      <use xlink:href="#DejaVuSans-3d" transform="translate(87.646484 0.09375)"/>
      <use xlink:href="#DejaVuSans-20" transform="translate(171.435547 0.09375)"/>
      <use xlink:href="#DejaVuSans-37" transform="translate(203.222656 0.09375)"/>
     </g>
    </g>
    <g id="line2d_21">
     <path d="M 910.62 171.959062 
L 928.62 171.959062 
L 946.62 171.959062 
" style="fill: none; stroke: #d62728; stroke-width: 1.5; stroke-linecap: square"/>
    </g>
    <g id="text_19">
     <!-- $\nu$ = 10 -->
     <g transform="translate(961.02 178.259062)scale(0.18 -0.18)">
      <use xlink:href="#DejaVuSans-Oblique-3bd" transform="translate(0 0.78125)"/>
      <use xlink:href="#DejaVuSans-20" transform="translate(55.859375 0.78125)"/>
      <use xlink:href="#DejaVuSans-3d" transform="translate(87.646484 0.78125)"/>
      <use xlink:href="#DejaVuSans-20" transform="translate(171.435547 0.78125)"/>
      <use xlink:href="#DejaVuSans-31" transform="translate(203.222656 0.78125)"/>
      <use xlink:href="#DejaVuSans-30" transform="translate(266.845703 0.78125)"/>
     </g>
    </g>
   </g>
  </g>
 </g>
 <defs>
  <clipPath id="p29f99df9ee">
   <rect x="144" y="69.12" width="892.8" height="434.88"/>
  </clipPath>
 </defs>
</svg>
