<svg width="1280" height="720" xmlns="http://www.w3.org/2000/svg" xmlns:xlink="http://www.w3.org/1999/xlink" overflow="hidden"><defs><clipPath id="clip0"><rect x="0" y="0" width="1280" height="720"/></clipPath></defs><g clip-path="url(#clip0)"><rect x="0" y="0" width="1280" height="720" fill="#FFFFFF"/><path d="M838.431 260.021C837.412 261.723 836.775 263.723 835.376 265.127 822.863 277.673 824.363 274.485 813.99 282.487 803.538 290.549 812.553 285.25 799.733 291.677 798.714 293.039 797.982 294.672 796.678 295.762 786.022 304.666 784.906 301.235 771.219 310.058 755.534 320.169 761.481 315.849 752.888 322.312 752.209 323.333 751.468 324.315 750.851 325.376 746.955 332.073 745.607 335.936 740.668 341.714 738.481 344.273 735.691 346.274 733.539 348.862 732.272 350.387 731.533 352.285 730.484 353.968 729.835 355.009 729.126 356.011 728.447 357.032 726.113 368.736 727.959 364.138 724.374 371.328 723.695 375.072 722.929 378.802 722.337 382.561 720.666 393.172 722.8 387.759 719.282 394.815 718.603 397.538 718.068 400.301 717.245 402.984 716.708 404.736 715.734 406.334 715.209 408.09 714.711 409.752 714.61 411.512 714.19 413.196 713.024 417.873 712.429 419.516 711.135 423.407 710.382 430.201 709.009 437.01 711.135 443.831 711.783 445.911 713.558 447.518 715.209 448.937 716.024 449.637 717.259 449.58 718.264 449.958 719.975 450.601 721.658 451.319 723.356 452 726.071 451.66 728.961 451.998 731.502 450.979 734.214 449.891 736.566 447.944 738.631 445.873 739.704 444.797 740.157 443.222 740.668 441.788 741.86 438.442 742.543 434.928 743.723 431.577 747.055 422.11 746.262 426.117 751.87 417.28 752.685 415.996 753.125 414.501 753.906 413.196 755.166 411.091 756.885 409.264 757.98 407.069 758.998 405.026 760.11 403.028 761.035 400.942 761.471 399.958 761.521 398.813 762.053 397.878 762.895 396.401 764.235 395.253 765.108 393.794 766.28 391.836 766.757 389.462 768.164 387.667 770.536 384.639 773.852 382.456 776.31 379.497 778.008 377.455 779.641 375.357 781.402 373.37 782.359 372.291 783.509 371.394 784.457 370.307 790.645 363.216 788.948 362.824 798.714 354.989 800.412 353.628 802.209 352.383 803.806 350.905 806.628 348.293 808.828 344.974 811.953 342.735 813.7 341.484 816.027 341.374 818.063 340.693 830.422 328.301 811.811 346.716 828.247 331.503 842.362 318.438 830.437 329.431 838.431 320.27 849.133 308.005 833.258 329.228 850.651 305.974 852.32 303.742 856.297 297.466 857.78 294.741 858.87 292.736 859.687 290.586 860.835 288.614 862.068 286.494 863.55 284.529 864.908 282.487 865.248 281.125 865.435 279.716 865.927 278.402 866.46 276.977 867.546 275.781 867.963 274.317 868.914 270.98 870 264.106 870 264.106 869.661 263.085 870.037 261.238 868.982 261.042 860.278 259.426 851.092 261.153 842.504 259L838.431 260.021Z" fill="#92D050" fill-rule="evenodd"/><path d="M512.053 273.311C511.542 274.672 514.852 277.346 516.138 279.435 517.577 281.771 518.662 284.325 520.224 286.58 521.737 288.765 523.758 290.562 525.331 292.705 527.508 295.672 528.922 299.223 531.459 301.891 535.452 306.092 540.319 309.367 544.736 313.119 547.128 315.151 549.142 317.72 551.886 319.243 554.95 320.945 558.196 322.353 561.078 324.347 562.661 325.443 563.677 327.206 565.164 328.43 577.729 338.772 573.446 336.973 581.505 339.658 583.872 341.432 586.826 343.345 588.655 345.782 589.846 347.37 590.697 349.185 591.719 350.886 592.059 354.629 592.208 358.394 592.74 362.114 592.892 363.179 593.5 364.132 593.761 365.176 594.182 366.859 594.442 368.579 594.783 370.28 594.102 374.363 593.807 378.529 592.74 382.528 592.424 383.714 591.411 384.592 590.697 385.591 585.977 392.195 586.435 390.871 578.441 398.86 575.278 402.021 570.803 406.205 569.249 410.088 566.641 416.604 568.026 413.553 565.164 419.275 564.823 420.976 564.519 422.685 564.142 424.378 563.838 425.748 563.121 427.058 563.121 428.461 563.121 433.916 563.333 439.399 564.142 444.793 564.428 446.695 568.087 451.797 569.249 452.959 570.117 453.826 571.292 454.32 572.313 455 576.398 454.66 580.703 455.343 584.569 453.979 586.839 453.179 587.808 450.393 589.676 448.876 593.27 445.957 597.637 443.982 600.911 440.71 604.859 436.764 607.176 431.386 611.124 427.44 617.983 420.586 619.667 419.321 625.424 412.13 637.386 397.186 627.825 408.885 633.594 400.902 637.302 395.771 644.829 385.591 644.829 385.591 645.17 384.57 645.399 383.505 645.851 382.528 647.446 379.075 649.621 375.883 650.957 372.321 651.684 370.383 651.529 368.217 651.979 366.197 652.212 365.147 652.66 364.155 653 363.135 652.319 352.247 652.197 341.31 650.957 330.472 650.661 327.883 642.879 322.38 642.786 322.306 636.897 317.597 639.854 320.053 631.552 316.181 628.792 314.894 626.146 313.374 623.381 312.098 621.716 311.331 619.877 310.947 618.274 310.057 616.786 309.231 615.638 307.886 614.189 306.995 611.203 305.159 608.094 303.53 604.996 301.891 598.455 298.43 595.788 297.652 589.676 293.725 587.213 292.143 585.038 290.128 582.527 288.622 581.603 288.068 580.408 288.116 579.463 287.601 570.102 282.498 570.902 281.489 561.078 275.352 559.141 274.143 556.993 273.311 554.95 272.29 553.588 270.929 552.327 269.46 550.865 268.207 549.933 267.409 548.733 266.964 547.801 266.166 543.845 262.778 544.077 261.56 539.63 259.021 538.695 258.487 537.587 258.34 536.566 258 529.863 259.489 527.798 258.222 524.309 263.104 523.424 264.342 523.074 265.896 522.267 267.187 521.364 268.629 520.406 270.066 519.203 271.269 518.335 272.137 512.564 271.95 512.053 273.311Z" fill="#FFC000" fill-rule="evenodd"/><path d="M543.209 247.069C539.808 248.092 531.872 248.589 526.884 251.16 519.747 254.841 513.556 260.201 507.499 265.482 499.677 272.301 491.362 278.592 484.033 285.94 481.312 288.668 478.677 291.485 475.87 294.124 470.785 298.903 467.856 300.664 463.627 305.376 461.85 307.356 460.166 309.42 458.525 311.514 456.424 314.195 454.671 317.156 452.404 319.697 446.773 326.006 440.817 330.302 436.079 337.087 435.207 338.336 434.719 339.815 434.039 341.179 433.699 343.907 432.866 346.618 433.018 349.362 433.211 352.834 434.08 356.256 435.059 359.592 435.79 362.083 436.683 364.592 438.12 366.752 438.941 367.988 444.431 370.303 445.262 370.844 450.798 374.452 456.917 377.415 461.586 382.096 466.007 386.529 471.098 390.379 474.85 395.394 475.87 396.758 477.105 397.985 477.911 399.486 479.499 402.443 480.692 405.598 481.992 408.693 483.413 412.077 484.713 415.512 486.073 418.922 486.753 422.332 487.543 425.721 488.114 429.151 489.856 439.634 487.981 436.298 492.195 447.564 492.996 449.706 493.786 451.952 495.256 453.702 499.283 458.497 508.519 467 508.519 467 516.341 465.636 524.649 465.952 531.986 462.908 535.128 461.605 538.108 454.725 538.108 454.725 540.583 444.797 539.834 449.787 537.087 431.197 535.762 422.229 533.336 419.584 528.925 410.739 528.245 409.375 527.483 408.048 526.884 406.647 525.864 404.26 524.982 401.809 523.823 399.486 517.556 386.918 522.221 396.961 516.682 388.234 515.21 385.915 513.827 383.532 512.6 381.073 507.609 371.064 513.247 380 508.519 372.89 507.839 370.503 507.13 368.124 506.479 365.729 506.11 364.373 505.902 362.971 505.458 361.638 504.879 359.896 504.098 358.228 503.418 356.523 501.232 345.565 500.313 345.865 502.398 334.018 502.716 332.21 503.496 330.478 504.438 328.904 505.559 327.031 507.062 325.412 508.519 323.789 510.128 321.997 511.92 320.379 513.621 318.674L516.682 315.605C521.983 310.29 514.314 317.786 522.803 310.491 523.899 309.549 524.532 307.978 525.864 307.422 528.758 306.213 532.005 306.139 535.047 305.376 550.735 301.444 532.12 304.772 556.473 301.284 558.513 300.261 560.66 299.428 562.594 298.216 563.41 297.704 563.911 296.805 564.635 296.17 566.634 294.416 568.815 292.872 570.757 291.055 580.379 282.051 578.153 284.833 583 276.734 582.32 272.983 582.238 269.072 580.959 265.482 580.474 264.119 578.838 263.511 577.898 262.413 576.792 261.118 575.987 259.578 574.838 258.321 569.841 252.856 566.754 249.436 560.554 246.046 558.946 245.167 557.153 244.682 555.452 244 552.732 244.341 549.867 244.083 547.29 245.023 538.211 248.333 546.61 246.046 543.209 247.069Z" fill="#FF0000" fill-rule="evenodd"/><path d="M398.5 310.5 1008.2 310.5" stroke="#4472C4" stroke-width="0.666667" stroke-miterlimit="8" fill="none" fill-rule="evenodd"/><path d="M398.5 387.5 1008.2 387.5" stroke="#4472C4" stroke-width="0.666667" stroke-miterlimit="8" fill="none" fill-rule="evenodd"/><text font-family="Calibri,Calibri_MSFontService,sans-serif" font-weight="400" font-size="24" transform="translate(281.43 304)">Dado 1</text><text font-family="Calibri,Calibri_MSFontService,sans-serif" font-weight="400" font-size="24" transform="translate(281.43 375)">Dado 2</text><text font-family="Calibri,Calibri_MSFontService,sans-serif" font-weight="400" font-size="24" transform="translate(281.43 451)">Dado 3</text><text font-family="Calibri,Calibri_MSFontService,sans-serif" font-weight="400" font-size="24" transform="translate(536.922 285)">A</text><text font-family="Calibri,Calibri_MSFontService,sans-serif" font-weight="400" font-size="24" transform="translate(841.773 284)">D</text><text font-family="Calibri,Calibri_MSFontService,sans-serif" font-weight="400" font-size="24" transform="translate(459.47 359)">A</text><text font-family="Calibri,Calibri_MSFontService,sans-serif" font-weight="400" font-size="24" transform="translate(423.516 435)">A</text><text font-family="Calibri,Calibri_MSFontService,sans-serif" font-weight="400" font-size="24" transform="translate(761.265 359)">A</text><text font-family="Calibri,Calibri_MSFontService,sans-serif" font-weight="400" font-size="24" transform="translate(721.606 434)">A</text><text font-family="Calibri,Calibri_MSFontService,sans-serif" font-weight="400" font-size="24" transform="translate(616.335 359)">D</text><text font-family="Calibri,Calibri_MSFontService,sans-serif" font-weight="400" font-size="24" transform="translate(921.776 360)">D</text><text font-family="Calibri,Calibri_MSFontService,sans-serif" font-weight="400" font-size="24" transform="translate(500.62 434)">D</text><text font-family="Calibri,Calibri_MSFontService,sans-serif" font-weight="400" font-size="24" transform="translate(646.426 435)">D</text><text font-family="Calibri,Calibri_MSFontService,sans-serif" font-weight="400" font-size="24" transform="translate(960.502 432)">D</text><text font-family="Calibri,Calibri_MSFontService,sans-serif" font-weight="400" font-size="24" transform="translate(799.824 435)">D</text><text font-family="Calibri,Calibri_MSFontService,sans-serif" font-weight="400" font-size="24" transform="translate(573.312 434)">A</text><text font-family="Calibri,Calibri_MSFontService,sans-serif" font-weight="400" font-size="24" transform="translate(880.945 434)">A</text><path d="M0.139183-0.302885 71.534 32.5047 71.2556 33.1105-0.139183 0.302885ZM71.8534 28.6163 77.4525 35.5913 68.5131 35.8855Z" fill="#4472C4" transform="matrix(-1 0 0 1 544.953 296.5)"/><path d="M544.638 296.196 618.482 329.619 618.207 330.226 544.363 296.804ZM618.779 325.729 624.418 332.671 615.48 333.017Z" fill="#4472C4"/><path d="M0.238721-0.232645 31.5397 31.8858 31.0622 32.3511-0.238721 0.232645ZM33.235 28.3718 35.9538 36.8928 27.5057 33.9552Z" fill="#4472C4" transform="matrix(-1 0 0 1 467.454 371.5)"/><path d="M467.721 371.25 504.378 403.608 503.936 404.108 467.279 371.75ZM505.805 399.977 509.155 408.27 500.51 405.974Z" fill="#4472C4"/><path d="M0.216679-0.253301 35.1095 29.5947 34.6761 30.1013-0.216679 0.253301ZM36.4798 25.9417 39.9588 34.1816 31.2795 32.0209Z" fill="#4472C4" transform="matrix(-1 0 0 1 624.459 371.5)"/><path d="M624.757 371.287 650.977 402.952 650.463 403.377 624.243 371.713ZM652.95 399.587 654.972 408.299 646.789 404.689Z" fill="#4472C4"/><path d="M0.135948-0.30435 75.0615 33.1636 74.7896 33.7723-0.135948 0.30435ZM75.3396 29.272 81.0126 36.187 72.0768 36.5764Z" fill="#4472C4" transform="matrix(-1 0 0 1 849.513 296.5)"/><path d="M0.224716-0.246199 34.9604 31.4584 34.5109 31.9508-0.224716 0.246199ZM36.4474 27.8514 39.6596 36.1989 31.0543 33.7602Z" fill="#4472C4" transform="matrix(-1 0 0 1 769.16 371.5)"/><path d="M768.73 371.258 802.961 403.79 802.502 404.273 768.27 371.742ZM804.52 400.214 807.564 408.624 799.009 406.013Z" fill="#4472C4"/><path d="M849.639 296.197 923.582 330.095 923.304 330.701 849.361 296.803ZM923.898 326.206 929.503 333.176 920.564 333.478Z" fill="#4472C4"/><path d="M0.21791-0.252242 36.509 31.0994 36.0732 31.6039-0.21791 0.252242ZM37.8971 27.4531 41.336 35.7098 32.6672 33.5069Z" fill="#4472C4" transform="matrix(-1 0 0 1 929.836 372.5)"/><path d="M929.72 372.25 963.438 401.867 962.998 402.368 929.28 372.75ZM964.856 398.233 968.226 406.517 959.576 404.243Z" fill="#4472C4"/></g></svg>