<?xml version="1.0" encoding="UTF-8" standalone="no"?>
<svg
   width="743.09521pt"
   height="373.94913pt"
   viewBox="0 0 743.09521 373.94913"
   version="1.1"
   id="svg384"
   sodipodi:docname="sonido-chauvenet.svg"
   inkscape:version="1.1.1 (3bf5ae0d25, 2021-09-20)"
   xmlns:inkscape="http://www.inkscape.org/namespaces/inkscape"
   xmlns:sodipodi="http://sodipodi.sourceforge.net/DTD/sodipodi-0.dtd"
   xmlns:xlink="http://www.w3.org/1999/xlink"
   xmlns="http://www.w3.org/2000/svg"
   xmlns:svg="http://www.w3.org/2000/svg"
   xmlns:rdf="http://www.w3.org/1999/02/22-rdf-syntax-ns#"
   xmlns:cc="http://creativecommons.org/ns#"
   xmlns:dc="http://purl.org/dc/elements/1.1/">
  <sodipodi:namedview
     id="namedview386"
     pagecolor="#ffffff"
     bordercolor="#666666"
     borderopacity="1.0"
     inkscape:pageshadow="2"
     inkscape:pageopacity="0.0"
     inkscape:pagecheckerboard="0"
     inkscape:document-units="pt"
     showgrid="false"
     inkscape:zoom="1.0868056"
     inkscape:cx="548.85623"
     inkscape:cy="218.53035"
     inkscape:window-width="1920"
     inkscape:window-height="991"
     inkscape:window-x="-9"
     inkscape:window-y="-9"
     inkscape:window-maximized="1"
     inkscape:current-layer="svg384" />
  <metadata
     id="metadata2">
    <rdf:RDF>
      <cc:Work>
        <dc:type
           rdf:resource="http://purl.org/dc/dcmitype/StillImage" />
        <dc:date>2023-04-05T15:05:32.008491</dc:date>
        <dc:format>image/svg+xml</dc:format>
        <dc:creator>
          <cc:Agent>
            <dc:title>Matplotlib v3.5.1, https://matplotlib.org/</dc:title>
          </cc:Agent>
        </dc:creator>
      </cc:Work>
    </rdf:RDF>
  </metadata>
  <defs
     id="defs6">
    <style
       type="text/css"
       id="style4">*{stroke-linejoin: round; stroke-linecap: butt}</style>
    <clipPath
       clipPathUnits="userSpaceOnUse"
       id="clipPath1307">
      <rect
         style="font-variation-settings:normal;opacity:1;vector-effect:none;fill:#0000ff;fill-opacity:1;fill-rule:evenodd;stroke-width:0.749999;stroke-linecap:butt;stroke-linejoin:round;stroke-miterlimit:4;stroke-dasharray:none;stroke-dashoffset:0;stroke-opacity:1;-inkscape-stroke:none;stop-color:#000000;stop-opacity:1"
         id="rect1309"
         width="743.09521"
         height="373.94913"
         x="34.504791"
         y="51.840004" />
    </clipPath>
  </defs>
  <g
     id="figure_1"
     clip-path="url(#clipPath1307)"
     transform="translate(-34.504791,-51.840004)">
    <g
       id="patch_1">
      <path
         d="M 0,432 H 864 V 0 H 0 Z"
         style="fill:none"
         id="path8" />
    </g>
    <g
       id="axes_1">
      <g
         id="patch_2">
        <path
           d="M 108,378 H 777.6 V 51.84 H 108 Z"
           style="fill:#ffffff"
           id="path11" />
      </g>
      <g
         id="matplotlib.axis_1">
        <g
           id="xtick_1">
          <g
             id="line2d_1">
            <defs
               id="defs15">
              <path
                 id="m42f2fbe953"
                 d="M 0,0 V 3.5"
                 style="stroke:#000000;stroke-width:0.8" />
            </defs>
            <g
               id="g19">
              <use
                 xlink:href="#m42f2fbe953"
                 x="168.33624"
                 y="378"
                 style="stroke:#000000;stroke-width:0.8"
                 id="use17"
                 width="100%"
                 height="100%" />
            </g>
          </g>
          <g
             id="text_1">
            <!-- 29 -->
            <g
               transform="matrix(0.18,0,0,-0.18,156.88375,398.67719)"
               id="g30">
              <defs
                 id="defs24">
                <path
                   id="DejaVuSans-32"
                   d="M 1228,531 H 3431 V 0 H 469 v 531 q 359,372 979,998 621,627 780,809 303,340 423,576 121,236 121,464 0,372 -261,606 -261,235 -680,235 -297,0 -627,-103 -329,-103 -704,-313 v 638 q 381,153 712,231 332,78 607,78 725,0 1156,-363 431,-362 431,-968 0,-288 -108,-546 -107,-257 -392,-607 -78,-91 -497,-524 Q 1991,1309 1228,531 Z"
                   transform="scale(0.015625)" />
                <path
                   id="DejaVuSans-39"
                   d="m 703,97 v 575 q 238,-113 481,-172 244,-59 479,-59 625,0 954,420 330,420 377,1277 -181,-269 -460,-413 -278,-144 -615,-144 -700,0 -1108,423 -408,424 -408,1159 0,718 425,1152 425,435 1131,435 810,0 1236,-621 427,-620 427,-1801 Q 3622,1225 3098,567 2575,-91 1691,-91 1453,-91 1209,-44 966,3 703,97 Z m 1256,1978 q 425,0 673,290 249,291 249,798 0,503 -249,795 -248,292 -673,292 -425,0 -673,-292 -248,-292 -248,-795 0,-507 248,-798 248,-290 673,-290 z"
                   transform="scale(0.015625)" />
              </defs>
              <use
                 xlink:href="#DejaVuSans-32"
                 id="use26"
                 x="0"
                 y="0"
                 width="100%"
                 height="100%" />
              <use
                 xlink:href="#DejaVuSans-39"
                 x="63.623047"
                 id="use28"
                 y="0"
                 width="100%"
                 height="100%" />
            </g>
          </g>
        </g>
        <g
           id="xtick_2">
          <g
             id="line2d_2">
            <g
               id="g36">
              <use
                 xlink:href="#m42f2fbe953"
                 x="311.39789"
                 y="378"
                 style="stroke:#000000;stroke-width:0.8"
                 id="use34"
                 width="100%"
                 height="100%" />
            </g>
          </g>
          <g
             id="text_2">
            <!-- 30 -->
            <g
               transform="matrix(0.18,0,0,-0.18,299.94538,398.67719)"
               id="g47">
              <defs
                 id="defs41">
                <path
                   id="DejaVuSans-33"
                   d="m 2597,2516 q 453,-97 707,-404 255,-306 255,-756 0,-690 -475,-1069 -475,-378 -1350,-378 -293,0 -604,58 -311,58 -642,174 v 609 q 262,-153 574,-231 313,-78 654,-78 593,0 904,234 311,234 311,681 0,413 -289,645 -289,233 -804,233 h -544 v 519 h 569 q 465,0 712,186 247,186 247,536 0,359 -255,551 -254,193 -729,193 -260,0 -557,-57 -297,-56 -653,-174 v 562 q 360,100 674,150 314,50 592,50 719,0 1137,-327 419,-326 419,-882 0,-388 -222,-655 -222,-267 -631,-370 z"
                   transform="scale(0.015625)" />
                <path
                   id="DejaVuSans-30"
                   d="m 2034,4250 q -487,0 -733,-480 -245,-479 -245,-1442 0,-959 245,-1439 246,-480 733,-480 491,0 736,480 246,480 246,1439 0,963 -246,1442 -245,480 -736,480 z m 0,500 q 785,0 1199,-621 414,-620 414,-1801 0,-1178 -414,-1799 -414,-620 -1199,-620 -784,0 -1198,620 -414,621 -414,1799 0,1181 414,1801 414,621 1198,621 z"
                   transform="scale(0.015625)" />
              </defs>
              <use
                 xlink:href="#DejaVuSans-33"
                 id="use43"
                 x="0"
                 y="0"
                 width="100%"
                 height="100%" />
              <use
                 xlink:href="#DejaVuSans-30"
                 x="63.623047"
                 id="use45"
                 y="0"
                 width="100%"
                 height="100%" />
            </g>
          </g>
        </g>
        <g
           id="xtick_3">
          <g
             id="line2d_3">
            <g
               id="g53">
              <use
                 xlink:href="#m42f2fbe953"
                 x="454.45953"
                 y="378"
                 style="stroke:#000000;stroke-width:0.8"
                 id="use51"
                 width="100%"
                 height="100%" />
            </g>
          </g>
          <g
             id="text_3">
            <!-- 31 -->
            <g
               transform="matrix(0.18,0,0,-0.18,443.00702,398.67719)"
               id="g63">
              <defs
                 id="defs57">
                <path
                   id="DejaVuSans-31"
                   d="M 794,531 H 1825 V 4091 L 703,3866 v 575 l 1116,225 h 631 V 531 H 3481 V 0 H 794 Z"
                   transform="scale(0.015625)" />
              </defs>
              <use
                 xlink:href="#DejaVuSans-33"
                 id="use59"
                 x="0"
                 y="0"
                 width="100%"
                 height="100%" />
              <use
                 xlink:href="#DejaVuSans-31"
                 x="63.623047"
                 id="use61"
                 y="0"
                 width="100%"
                 height="100%" />
            </g>
          </g>
        </g>
        <g
           id="xtick_4">
          <g
             id="line2d_4">
            <g
               id="g69">
              <use
                 xlink:href="#m42f2fbe953"
                 x="597.52118"
                 y="378"
                 style="stroke:#000000;stroke-width:0.8"
                 id="use67"
                 width="100%"
                 height="100%" />
            </g>
          </g>
          <g
             id="text_4">
            <!-- 32 -->
            <g
               transform="matrix(0.18,0,0,-0.18,586.06866,398.67719)"
               id="g76">
              <use
                 xlink:href="#DejaVuSans-33"
                 id="use72"
                 x="0"
                 y="0"
                 width="100%"
                 height="100%" />
              <use
                 xlink:href="#DejaVuSans-32"
                 x="63.623047"
                 id="use74"
                 y="0"
                 width="100%"
                 height="100%" />
            </g>
          </g>
        </g>
        <g
           id="xtick_5">
          <g
             id="line2d_5">
            <g
               id="g82">
              <use
                 xlink:href="#m42f2fbe953"
                 x="740.58282"
                 y="378"
                 style="stroke:#000000;stroke-width:0.8"
                 id="use80"
                 width="100%"
                 height="100%" />
            </g>
          </g>
          <g
             id="text_5">
            <!-- 33 -->
            <g
               transform="matrix(0.18,0,0,-0.18,729.1303,398.67719)"
               id="g89">
              <use
                 xlink:href="#DejaVuSans-33"
                 id="use85"
                 x="0"
                 y="0"
                 width="100%"
                 height="100%" />
              <use
                 xlink:href="#DejaVuSans-33"
                 x="63.623047"
                 id="use87"
                 y="0"
                 width="100%"
                 height="100%" />
            </g>
          </g>
        </g>
        <g
           id="text_6">
          <!-- tiempo/s -->
          <g
             transform="matrix(0.18,0,0,-0.18,403.52625,420.09781)"
             id="g119">
            <defs
               id="defs101">
              <path
                 id="DejaVuSans-74"
                 d="M 1172,4494 V 3500 H 2356 V 3053 H 1172 V 1153 q 0,-428 117,-550 117,-122 477,-122 h 590 V 0 H 1766 Q 1100,0 847,248 594,497 594,1153 V 3053 H 172 v 447 h 422 v 994 z"
                 transform="scale(0.015625)" />
              <path
                 id="DejaVuSans-69"
                 d="m 603,3500 h 575 V 0 H 603 Z m 0,1363 h 575 V 4134 H 603 Z"
                 transform="scale(0.015625)" />
              <path
                 id="DejaVuSans-65"
                 d="M 3597,1894 V 1613 H 953 q 38,-594 358,-905 320,-311 892,-311 331,0 642,81 311,81 618,244 V 178 Q 3153,47 2828,-22 2503,-91 2169,-91 1331,-91 842,396 353,884 353,1716 q 0,859 464,1363 464,505 1252,505 706,0 1117,-455 411,-454 411,-1235 z m -575,169 q -6,471 -264,752 -258,282 -683,282 -481,0 -770,-272 -289,-272 -333,-766 z"
                 transform="scale(0.015625)" />
              <path
                 id="DejaVuSans-6d"
                 d="m 3328,2828 q 216,388 516,572 300,184 706,184 547,0 844,-383 297,-382 297,-1088 V 0 h -578 v 2094 q 0,503 -179,746 -178,244 -543,244 -447,0 -707,-297 -259,-296 -259,-809 V 0 h -578 v 2094 q 0,506 -178,748 -178,242 -550,242 -441,0 -701,-298 -259,-298 -259,-808 V 0 H 581 v 3500 h 578 v -544 q 197,322 472,475 275,153 653,153 382,0 649,-194 267,-193 395,-562 z"
                 transform="scale(0.015625)" />
              <path
                 id="DejaVuSans-70"
                 d="M 1159,525 V -1331 H 581 v 4831 h 578 v -531 q 182,312 458,463 277,152 661,152 638,0 1036,-506 399,-506 399,-1331 0,-825 -399,-1332 -398,-506 -1036,-506 -384,0 -661,152 -276,152 -458,464 z m 1957,1222 q 0,634 -261,995 -261,361 -717,361 -457,0 -718,-361 -261,-361 -261,-995 0,-634 261,-995 261,-361 718,-361 456,0 717,361 261,361 261,995 z"
                 transform="scale(0.015625)" />
              <path
                 id="DejaVuSans-6f"
                 d="m 1959,3097 q -462,0 -731,-361 -269,-361 -269,-989 0,-628 267,-989 268,-361 733,-361 460,0 728,362 269,363 269,988 0,622 -269,986 -268,364 -728,364 z m 0,487 q 750,0 1178,-488 429,-487 429,-1349 Q 3566,888 3137,398 2709,-91 1959,-91 1206,-91 779,398 353,888 353,1747 q 0,862 426,1349 427,488 1180,488 z"
                 transform="scale(0.015625)" />
              <path
                 id="DejaVuSans-2f"
                 d="m 1625,4666 h 531 L 531,-594 H 0 Z"
                 transform="scale(0.015625)" />
              <path
                 id="DejaVuSans-73"
                 d="m 2834,3397 v -544 q -243,125 -506,187 -262,63 -544,63 -428,0 -642,-131 -214,-131 -214,-394 0,-200 153,-314 153,-114 616,-217 l 197,-44 q 612,-131 870,-370 258,-239 258,-667 0,-488 -386,-773 Q 2250,-91 1575,-91 1294,-91 989,-36 684,19 347,128 v 594 q 319,-166 628,-249 309,-82 613,-82 406,0 624,139 219,139 219,392 0,234 -158,359 -157,125 -692,241 l -200,47 q -534,112 -772,345 -237,233 -237,639 0,494 350,762 350,269 994,269 318,0 599,-47 282,-46 519,-140 z"
                 transform="scale(0.015625)" />
            </defs>
            <use
               xlink:href="#DejaVuSans-74"
               id="use103"
               x="0"
               y="0"
               width="100%"
               height="100%" />
            <use
               xlink:href="#DejaVuSans-69"
               x="39.208984"
               id="use105"
               y="0"
               width="100%"
               height="100%" />
            <use
               xlink:href="#DejaVuSans-65"
               x="66.992188"
               id="use107"
               y="0"
               width="100%"
               height="100%" />
            <use
               xlink:href="#DejaVuSans-6d"
               x="128.51562"
               id="use109"
               y="0"
               width="100%"
               height="100%" />
            <use
               xlink:href="#DejaVuSans-70"
               x="225.92773"
               id="use111"
               y="0"
               width="100%"
               height="100%" />
            <use
               xlink:href="#DejaVuSans-6f"
               x="289.4043"
               id="use113"
               y="0"
               width="100%"
               height="100%" />
            <use
               xlink:href="#DejaVuSans-2f"
               x="350.58594"
               id="use115"
               y="0"
               width="100%"
               height="100%" />
            <use
               xlink:href="#DejaVuSans-73"
               x="384.27734"
               id="use117"
               y="0"
               width="100%"
               height="100%" />
          </g>
        </g>
      </g>
      <g
         id="matplotlib.axis_2">
        <g
           id="ytick_1">
          <g
             id="line2d_6">
            <defs
               id="defs124">
              <path
                 id="m81b8d0e51b"
                 d="M 0,0 H -3.5"
                 style="stroke:#000000;stroke-width:0.8" />
            </defs>
            <g
               id="g128">
              <use
                 xlink:href="#m81b8d0e51b"
                 x="108"
                 y="326.4389"
                 style="stroke:#000000;stroke-width:0.8"
                 id="use126"
                 width="100%"
                 height="100%" />
            </g>
          </g>
          <g
             id="text_7">
            <!-- 72.0 -->
            <g
               transform="matrix(0.18,0,0,-0.18,60.921875,333.2775)"
               id="g143">
              <defs
                 id="defs133">
                <path
                   id="DejaVuSans-37"
                   d="M 525,4666 H 3525 V 4397 L 1831,0 H 1172 L 2766,4134 H 525 Z"
                   transform="scale(0.015625)" />
                <path
                   id="DejaVuSans-2e"
                   d="m 684,794 h 660 V 0 H 684 Z"
                   transform="scale(0.015625)" />
              </defs>
              <use
                 xlink:href="#DejaVuSans-37"
                 id="use135"
                 x="0"
                 y="0"
                 width="100%"
                 height="100%" />
              <use
                 xlink:href="#DejaVuSans-32"
                 x="63.623047"
                 id="use137"
                 y="0"
                 width="100%"
                 height="100%" />
              <use
                 xlink:href="#DejaVuSans-2e"
                 x="127.24609"
                 id="use139"
                 y="0"
                 width="100%"
                 height="100%" />
              <use
                 xlink:href="#DejaVuSans-30"
                 x="159.0332"
                 id="use141"
                 y="0"
                 width="100%"
                 height="100%" />
            </g>
          </g>
        </g>
        <g
           id="ytick_2">
          <g
             id="line2d_7">
            <g
               id="g149">
              <use
                 xlink:href="#m81b8d0e51b"
                 x="108"
                 y="260.83954"
                 style="stroke:#000000;stroke-width:0.8"
                 id="use147"
                 width="100%"
                 height="100%" />
            </g>
          </g>
          <g
             id="text_8">
            <!-- 72.5 -->
            <g
               transform="matrix(0.18,0,0,-0.18,60.921875,267.67814)"
               id="g163">
              <defs
                 id="defs153">
                <path
                   id="DejaVuSans-35"
                   d="M 691,4666 H 3169 V 4134 H 1269 V 2991 q 137,47 274,70 138,23 276,23 781,0 1237,-428 457,-428 457,-1159 Q 3513,744 3044,326 2575,-91 1722,-91 1428,-91 1123,-41 819,9 494,109 v 635 q 281,-153 581,-228 300,-75 634,-75 541,0 856,284 316,284 316,772 0,487 -316,771 -315,285 -856,285 -253,0 -505,-56 -251,-56 -513,-175 z"
                   transform="scale(0.015625)" />
              </defs>
              <use
                 xlink:href="#DejaVuSans-37"
                 id="use155"
                 x="0"
                 y="0"
                 width="100%"
                 height="100%" />
              <use
                 xlink:href="#DejaVuSans-32"
                 x="63.623047"
                 id="use157"
                 y="0"
                 width="100%"
                 height="100%" />
              <use
                 xlink:href="#DejaVuSans-2e"
                 x="127.24609"
                 id="use159"
                 y="0"
                 width="100%"
                 height="100%" />
              <use
                 xlink:href="#DejaVuSans-35"
                 x="159.0332"
                 id="use161"
                 y="0"
                 width="100%"
                 height="100%" />
            </g>
          </g>
        </g>
        <g
           id="ytick_3">
          <g
             id="line2d_8">
            <g
               id="g169">
              <use
                 xlink:href="#m81b8d0e51b"
                 x="108"
                 y="195.24019"
                 style="stroke:#000000;stroke-width:0.8"
                 id="use167"
                 width="100%"
                 height="100%" />
            </g>
          </g>
          <g
             id="text_9">
            <!-- 73.0 -->
            <g
               transform="matrix(0.18,0,0,-0.18,60.921875,202.07879)"
               id="g180">
              <use
                 xlink:href="#DejaVuSans-37"
                 id="use172"
                 x="0"
                 y="0"
                 width="100%"
                 height="100%" />
              <use
                 xlink:href="#DejaVuSans-33"
                 x="63.623047"
                 id="use174"
                 y="0"
                 width="100%"
                 height="100%" />
              <use
                 xlink:href="#DejaVuSans-2e"
                 x="127.24609"
                 id="use176"
                 y="0"
                 width="100%"
                 height="100%" />
              <use
                 xlink:href="#DejaVuSans-30"
                 x="159.0332"
                 id="use178"
                 y="0"
                 width="100%"
                 height="100%" />
            </g>
          </g>
        </g>
        <g
           id="ytick_4">
          <g
             id="line2d_9">
            <g
               id="g186">
              <use
                 xlink:href="#m81b8d0e51b"
                 x="108"
                 y="129.64084"
                 style="stroke:#000000;stroke-width:0.8"
                 id="use184"
                 width="100%"
                 height="100%" />
            </g>
          </g>
          <g
             id="text_10">
            <!-- 73.5 -->
            <g
               transform="matrix(0.18,0,0,-0.18,60.921875,136.47943)"
               id="g197">
              <use
                 xlink:href="#DejaVuSans-37"
                 id="use189"
                 x="0"
                 y="0"
                 width="100%"
                 height="100%" />
              <use
                 xlink:href="#DejaVuSans-33"
                 x="63.623047"
                 id="use191"
                 y="0"
                 width="100%"
                 height="100%" />
              <use
                 xlink:href="#DejaVuSans-2e"
                 x="127.24609"
                 id="use193"
                 y="0"
                 width="100%"
                 height="100%" />
              <use
                 xlink:href="#DejaVuSans-35"
                 x="159.0332"
                 id="use195"
                 y="0"
                 width="100%"
                 height="100%" />
            </g>
          </g>
        </g>
        <g
           id="ytick_5">
          <g
             id="line2d_10">
            <g
               id="g203">
              <use
                 xlink:href="#m81b8d0e51b"
                 x="108"
                 y="64.041481"
                 style="stroke:#000000;stroke-width:0.8"
                 id="use201"
                 width="100%"
                 height="100%" />
            </g>
          </g>
          <g
             id="text_11">
            <!-- 74.0 -->
            <g
               transform="matrix(0.18,0,0,-0.18,60.921875,70.880074)"
               id="g217">
              <defs
                 id="defs207">
                <path
                   id="DejaVuSans-34"
                   d="M 2419,4116 825,1625 h 1594 z m -166,550 h 794 V 1625 h 666 V 1100 H 3047 V 0 H 2419 V 1100 H 313 v 609 z"
                   transform="scale(0.015625)" />
              </defs>
              <use
                 xlink:href="#DejaVuSans-37"
                 id="use209"
                 x="0"
                 y="0"
                 width="100%"
                 height="100%" />
              <use
                 xlink:href="#DejaVuSans-34"
                 x="63.623047"
                 id="use211"
                 y="0"
                 width="100%"
                 height="100%" />
              <use
                 xlink:href="#DejaVuSans-2e"
                 x="127.24609"
                 id="use213"
                 y="0"
                 width="100%"
                 height="100%" />
              <use
                 xlink:href="#DejaVuSans-30"
                 x="159.0332"
                 id="use215"
                 y="0"
                 width="100%"
                 height="100%" />
            </g>
          </g>
        </g>
        <g
           id="text_12">
          <!-- Intensidad sonido/dB -->
          <g
             transform="matrix(0,-0.18,-0.18,0,53.178437,309.58031)"
             id="g269">
            <defs
               id="defs227">
              <path
                 id="DejaVuSans-49"
                 d="m 628,4666 h 631 V 0 H 628 Z"
                 transform="scale(0.015625)" />
              <path
                 id="DejaVuSans-6e"
                 d="M 3513,2113 V 0 h -575 v 2094 q 0,497 -194,743 -194,247 -581,247 -466,0 -735,-297 -269,-296 -269,-809 V 0 H 581 v 3500 h 578 v -544 q 207,316 486,472 280,156 646,156 603,0 912,-373 310,-373 310,-1098 z"
                 transform="scale(0.015625)" />
              <path
                 id="DejaVuSans-64"
                 d="m 2906,2969 v 1894 h 575 V 0 H 2906 V 525 Q 2725,213 2448,61 2172,-91 1784,-91 1150,-91 751,415 353,922 353,1747 q 0,825 398,1331 399,506 1033,506 388,0 664,-152 277,-151 458,-463 z M 947,1747 q 0,-634 261,-995 261,-361 717,-361 456,0 718,361 263,361 263,995 0,634 -263,995 -262,361 -718,361 -456,0 -717,-361 -261,-361 -261,-995 z"
                 transform="scale(0.015625)" />
              <path
                 id="DejaVuSans-61"
                 d="m 2194,1759 q -697,0 -966,-159 -269,-159 -269,-544 0,-306 202,-486 202,-179 548,-179 479,0 768,339 289,339 289,901 v 128 z m 1147,238 V 0 H 2766 V 531 Q 2569,213 2275,61 1981,-91 1556,-91 q -537,0 -855,302 -317,302 -317,808 0,590 395,890 396,300 1180,300 h 807 v 57 q 0,397 -261,614 -261,217 -733,217 -300,0 -585,-72 -284,-72 -546,-216 v 532 q 315,122 612,182 297,61 578,61 760,0 1135,-394 375,-393 375,-1193 z"
                 transform="scale(0.015625)" />
              <path
                 id="DejaVuSans-20"
                 transform="scale(0.015625)"
                 d="" />
              <path
                 id="DejaVuSans-42"
                 d="M 1259,2228 V 519 h 1013 q 509,0 754,211 246,211 246,645 0,438 -246,645 -245,208 -754,208 z m 0,1919 V 2741 h 935 q 462,0 688,173 227,174 227,530 0,353 -227,528 -226,175 -688,175 z m -631,519 h 1613 q 722,0 1112,-300 391,-300 391,-853 0,-429 -200,-682 -200,-253 -588,-315 466,-100 724,-418 258,-317 258,-792 0,-625 -425,-966 Q 3088,0 2303,0 H 628 Z"
                 transform="scale(0.015625)" />
            </defs>
            <use
               xlink:href="#DejaVuSans-49"
               id="use229"
               x="0"
               y="0"
               width="100%"
               height="100%" />
            <use
               xlink:href="#DejaVuSans-6e"
               x="29.492188"
               id="use231"
               y="0"
               width="100%"
               height="100%" />
            <use
               xlink:href="#DejaVuSans-74"
               x="92.871094"
               id="use233"
               y="0"
               width="100%"
               height="100%" />
            <use
               xlink:href="#DejaVuSans-65"
               x="132.08008"
               id="use235"
               y="0"
               width="100%"
               height="100%" />
            <use
               xlink:href="#DejaVuSans-6e"
               x="193.60352"
               id="use237"
               y="0"
               width="100%"
               height="100%" />
            <use
               xlink:href="#DejaVuSans-73"
               x="256.98242"
               id="use239"
               y="0"
               width="100%"
               height="100%" />
            <use
               xlink:href="#DejaVuSans-69"
               x="309.08203"
               id="use241"
               y="0"
               width="100%"
               height="100%" />
            <use
               xlink:href="#DejaVuSans-64"
               x="336.86523"
               id="use243"
               y="0"
               width="100%"
               height="100%" />
            <use
               xlink:href="#DejaVuSans-61"
               x="400.3418"
               id="use245"
               y="0"
               width="100%"
               height="100%" />
            <use
               xlink:href="#DejaVuSans-64"
               x="461.62109"
               id="use247"
               y="0"
               width="100%"
               height="100%" />
            <use
               xlink:href="#DejaVuSans-20"
               x="525.09766"
               id="use249"
               y="0"
               width="100%"
               height="100%" />
            <use
               xlink:href="#DejaVuSans-73"
               x="556.88477"
               id="use251"
               y="0"
               width="100%"
               height="100%" />
            <use
               xlink:href="#DejaVuSans-6f"
               x="608.98438"
               id="use253"
               y="0"
               width="100%"
               height="100%" />
            <use
               xlink:href="#DejaVuSans-6e"
               x="670.16602"
               id="use255"
               y="0"
               width="100%"
               height="100%" />
            <use
               xlink:href="#DejaVuSans-69"
               x="733.54492"
               id="use257"
               y="0"
               width="100%"
               height="100%" />
            <use
               xlink:href="#DejaVuSans-64"
               x="761.32812"
               id="use259"
               y="0"
               width="100%"
               height="100%" />
            <use
               xlink:href="#DejaVuSans-6f"
               x="824.80469"
               id="use261"
               y="0"
               width="100%"
               height="100%" />
            <use
               xlink:href="#DejaVuSans-2f"
               x="885.98633"
               id="use263"
               y="0"
               width="100%"
               height="100%" />
            <use
               xlink:href="#DejaVuSans-64"
               x="919.67773"
               id="use265"
               y="0"
               width="100%"
               height="100%" />
            <use
               xlink:href="#DejaVuSans-42"
               x="983.1543"
               id="use267"
               y="0"
               width="100%"
               height="100%" />
          </g>
        </g>
      </g>
      <g
         id="line2d_11">
        <path
           d="m 138.43636,91.59321 29.04152,77.40724 14.59228,-31.48769 14.44923,22.30378 14.59229,52.47949 14.44922,-114.142884 14.44923,24.927754 14.44922,-11.80788 14.44923,-22.303784 14.44922,43.295574 14.59229,-60.351407 14.44923,48.543527 h 14.44922 l 14.59229,-35.423656 14.44922,-7.871922 14.59229,24.927758 14.59229,5.24795 14.44922,56.41544 14.44923,-5.24795 14.44922,68.22333 14.59229,-160.062425 14.44923,43.295575 14.44922,-20.991794 14.59229,-7.871923 14.44923,15.743845 14.44922,-20.991794 14.59229,24.927756 14.44922,27.55173 14.44923,-26.23974 14.59229,17.05583 14.44922,18.36782 14.44923,18.36782 14.59228,13.11987 14.30617,-10.4959 14.59229,-11.80788 14.44922,27.55173 14.44923,10.4959 14.59228,19.6798 14.44923,158.75045 14.44922,-137.75865 14.44923,-49.85551 h 14.44923"
           clip-path="url(#p3a3c9c1076)"
           style="fill:none;stroke:#808080;stroke-width:1.5;stroke-linecap:square"
           id="path273" />
        <defs
           id="defs276">
          <path
             id="m90979a4883"
             d="M 0,2.5 C 0.663008,2.5 1.29895,2.236584 1.767767,1.767767 2.236584,1.29895 2.5,0.663008 2.5,0 2.5,-0.663008 2.236584,-1.29895 1.767767,-1.767767 1.29895,-2.236584 0.663008,-2.5 0,-2.5 c -0.663008,0 -1.29895,0.263416 -1.767767,0.732233 C -2.236584,-1.29895 -2.5,-0.663008 -2.5,0 c 0,0.663008 0.263416,1.29895 0.732233,1.767767 C -1.29895,2.236584 -0.663008,2.5 0,2.5 Z"
             style="stroke:#808080" />
        </defs>
        <g
           clip-path="url(#p3a3c9c1076)"
           id="g362">
          <use
             xlink:href="#m90979a4883"
             x="138.43637"
             y="91.593208"
             style="stroke:#808080"
             id="use278"
             width="100%"
             height="100%" />
          <use
             xlink:href="#m90979a4883"
             x="167.47787"
             y="169.00046"
             style="stroke:#808080"
             id="use280"
             width="100%"
             height="100%" />
          <use
             xlink:href="#m90979a4883"
             x="182.07016"
             y="137.51276"
             style="stroke:#808080"
             id="use282"
             width="100%"
             height="100%" />
          <use
             xlink:href="#m90979a4883"
             x="196.51939"
             y="159.81654"
             style="stroke:#808080"
             id="use284"
             width="100%"
             height="100%" />
          <use
             xlink:href="#m90979a4883"
             x="211.11168"
             y="212.29602"
             style="stroke:#808080"
             id="use286"
             width="100%"
             height="100%" />
          <use
             xlink:href="#m90979a4883"
             x="225.5609"
             y="98.153145"
             style="stroke:#808080"
             id="use288"
             width="100%"
             height="100%" />
          <use
             xlink:href="#m90979a4883"
             x="240.01013"
             y="123.0809"
             style="stroke:#808080"
             id="use290"
             width="100%"
             height="100%" />
          <use
             xlink:href="#m90979a4883"
             x="254.45935"
             y="111.27302"
             style="stroke:#808080"
             id="use292"
             width="100%"
             height="100%" />
          <use
             xlink:href="#m90979a4883"
             x="268.90857"
             y="88.969238"
             style="stroke:#808080"
             id="use294"
             width="100%"
             height="100%" />
          <use
             xlink:href="#m90979a4883"
             x="283.35782"
             y="132.26482"
             style="stroke:#808080"
             id="use296"
             width="100%"
             height="100%" />
          <use
             xlink:href="#m90979a4883"
             x="297.9501"
             y="71.913406"
             style="stroke:#808080"
             id="use298"
             width="100%"
             height="100%" />
          <use
             xlink:href="#m90979a4883"
             x="312.39932"
             y="120.45692"
             style="stroke:#808080"
             id="use300"
             width="100%"
             height="100%" />
          <use
             xlink:href="#m90979a4883"
             x="326.84854"
             y="120.45692"
             style="stroke:#808080"
             id="use302"
             width="100%"
             height="100%" />
          <use
             xlink:href="#m90979a4883"
             x="341.44083"
             y="85.033272"
             style="stroke:#808080"
             id="use304"
             width="100%"
             height="100%" />
          <use
             xlink:href="#m90979a4883"
             x="355.89005"
             y="77.161354"
             style="stroke:#808080"
             id="use306"
             width="100%"
             height="100%" />
          <use
             xlink:href="#m90979a4883"
             x="370.48233"
             y="102.0891"
             style="stroke:#808080"
             id="use308"
             width="100%"
             height="100%" />
          <use
             xlink:href="#m90979a4883"
             x="385.07462"
             y="107.33706"
             style="stroke:#808080"
             id="use310"
             width="100%"
             height="100%" />
          <use
             xlink:href="#m90979a4883"
             x="399.52386"
             y="163.7525"
             style="stroke:#808080"
             id="use312"
             width="100%"
             height="100%" />
          <use
             xlink:href="#m90979a4883"
             x="413.97308"
             y="158.50455"
             style="stroke:#808080"
             id="use314"
             width="100%"
             height="100%" />
          <use
             xlink:href="#m90979a4883"
             x="428.4223"
             y="226.72789"
             style="stroke:#808080"
             id="use316"
             width="100%"
             height="100%" />
          <use
             xlink:href="#m90979a4883"
             x="443.01459"
             y="66.665459"
             style="stroke:#808080"
             id="use318"
             width="100%"
             height="100%" />
          <use
             xlink:href="#m90979a4883"
             x="457.46381"
             y="109.96103"
             style="stroke:#808080"
             id="use320"
             width="100%"
             height="100%" />
          <use
             xlink:href="#m90979a4883"
             x="471.91306"
             y="88.969238"
             style="stroke:#808080"
             id="use322"
             width="100%"
             height="100%" />
          <use
             xlink:href="#m90979a4883"
             x="486.50534"
             y="81.097313"
             style="stroke:#808080"
             id="use324"
             width="100%"
             height="100%" />
          <use
             xlink:href="#m90979a4883"
             x="500.95456"
             y="96.841156"
             style="stroke:#808080"
             id="use326"
             width="100%"
             height="100%" />
          <use
             xlink:href="#m90979a4883"
             x="515.40381"
             y="75.849365"
             style="stroke:#808080"
             id="use328"
             width="100%"
             height="100%" />
          <use
             xlink:href="#m90979a4883"
             x="529.99609"
             y="100.77712"
             style="stroke:#808080"
             id="use330"
             width="100%"
             height="100%" />
          <use
             xlink:href="#m90979a4883"
             x="544.44531"
             y="128.32886"
             style="stroke:#808080"
             id="use332"
             width="100%"
             height="100%" />
          <use
             xlink:href="#m90979a4883"
             x="558.89453"
             y="102.0891"
             style="stroke:#808080"
             id="use334"
             width="100%"
             height="100%" />
          <use
             xlink:href="#m90979a4883"
             x="573.48682"
             y="119.14494"
             style="stroke:#808080"
             id="use336"
             width="100%"
             height="100%" />
          <use
             xlink:href="#m90979a4883"
             x="587.93604"
             y="137.51276"
             style="stroke:#808080"
             id="use338"
             width="100%"
             height="100%" />
          <use
             xlink:href="#m90979a4883"
             x="602.38525"
             y="155.88058"
             style="stroke:#808080"
             id="use340"
             width="100%"
             height="100%" />
          <use
             xlink:href="#m90979a4883"
             x="616.97754"
             y="169.00046"
             style="stroke:#808080"
             id="use342"
             width="100%"
             height="100%" />
          <use
             xlink:href="#m90979a4883"
             x="631.28369"
             y="158.50455"
             style="stroke:#808080"
             id="use344"
             width="100%"
             height="100%" />
          <use
             xlink:href="#m90979a4883"
             x="645.87598"
             y="146.69667"
             style="stroke:#808080"
             id="use346"
             width="100%"
             height="100%" />
          <use
             xlink:href="#m90979a4883"
             x="660.3252"
             y="174.2484"
             style="stroke:#808080"
             id="use348"
             width="100%"
             height="100%" />
          <use
             xlink:href="#m90979a4883"
             x="674.77448"
             y="184.74429"
             style="stroke:#808080"
             id="use350"
             width="100%"
             height="100%" />
          <use
             xlink:href="#m90979a4883"
             x="689.36676"
             y="204.4241"
             style="stroke:#808080"
             id="use352"
             width="100%"
             height="100%" />
          <use
             xlink:href="#m90979a4883"
             x="703.81598"
             y="363.17453"
             style="stroke:#808080"
             id="use354"
             width="100%"
             height="100%" />
          <use
             xlink:href="#m90979a4883"
             x="718.2652"
             y="225.41589"
             style="stroke:#808080"
             id="use356"
             width="100%"
             height="100%" />
          <use
             xlink:href="#m90979a4883"
             x="732.71442"
             y="175.56038"
             style="stroke:#808080"
             id="use358"
             width="100%"
             height="100%" />
          <use
             xlink:href="#m90979a4883"
             x="747.16364"
             y="175.56038"
             style="stroke:#808080"
             id="use360"
             width="100%"
             height="100%" />
        </g>
      </g>
      <g
         id="patch_3">
        <path
           d="M 108,378 V 51.84"
           style="fill:none;stroke:#000000;stroke-width:0.8;stroke-linecap:square;stroke-linejoin:miter"
           id="path365" />
      </g>
      <g
         id="patch_4">
        <path
           d="M 777.6,378 V 51.84"
           style="fill:none;stroke:#000000;stroke-width:0.8;stroke-linecap:square;stroke-linejoin:miter"
           id="path368" />
      </g>
      <g
         id="patch_5">
        <path
           d="M 108,378 H 777.6"
           style="fill:none;stroke:#000000;stroke-width:0.8;stroke-linecap:square;stroke-linejoin:miter"
           id="path371" />
      </g>
      <g
         id="patch_6">
        <path
           d="M 108,51.84 H 777.6"
           style="fill:none;stroke:#000000;stroke-width:0.8;stroke-linecap:square;stroke-linejoin:miter"
           id="path374" />
      </g>
    </g>
  </g>
  <defs
     id="defs382">
    <clipPath
       id="p3a3c9c1076">
      <rect
         x="108"
         y="51.84"
         width="669.59998"
         height="326.16"
         id="rect379" />
    </clipPath>
  </defs>
</svg>
