<?xml version="1.0" encoding="utf-8" standalone="no"?>
<!DOCTYPE svg PUBLIC "-//W3C//DTD SVG 1.1//EN"
  "http://www.w3.org/Graphics/SVG/1.1/DTD/svg11.dtd">
<svg xmlns:xlink="http://www.w3.org/1999/xlink" width="1152pt" height="576pt" viewBox="0 0 1152 576" xmlns="http://www.w3.org/2000/svg" version="1.1">
 <metadata>
  <rdf:RDF xmlns:dc="http://purl.org/dc/elements/1.1/" xmlns:cc="http://creativecommons.org/ns#" xmlns:rdf="http://www.w3.org/1999/02/22-rdf-syntax-ns#">
   <cc:Work>
    <dc:type rdf:resource="http://purl.org/dc/dcmitype/StillImage"/>
    <dc:date>2023-02-09T19:26:19.964197</dc:date>
    <dc:format>image/svg+xml</dc:format>
    <dc:creator>
     <cc:Agent>
      <dc:title>Matplotlib v3.5.1, https://matplotlib.org/</dc:title>
     </cc:Agent>
    </dc:creator>
   </cc:Work>
  </rdf:RDF>
 </metadata>
 <defs>
  <style type="text/css">*{stroke-linejoin: round; stroke-linecap: butt}</style>
 </defs>
 <g id="figure_1">
  <g id="patch_1">
   <path d="M 0 576 
L 1152 576 
L 1152 0 
L 0 0 
L 0 576 
z
" style="fill: none"/>
  </g>
  <g id="axes_1">
   <g id="patch_2">
    <path d="M 144 504 
L 1036.8 504 
L 1036.8 69.12 
L 144 69.12 
z
" style="fill: #ffffff"/>
   </g>
   <g id="matplotlib.axis_1">
    <g id="xtick_1">
     <g id="line2d_1">
      <defs>
       <path id="m58a1098b31" d="M 0 0 
L 0 3.5 
" style="stroke: #000000; stroke-width: 0.8"/>
      </defs>
      <g>
       <use xlink:href="#m58a1098b31" x="184.581818" y="504" style="stroke: #000000; stroke-width: 0.8"/>
      </g>
     </g>
     <g id="text_1">
      <!-- 0 -->
      <g transform="translate(178.855568 524.677187)scale(0.18 -0.18)">
       <defs>
        <path id="DejaVuSans-30" d="M 2034 4250 
Q 1547 4250 1301 3770 
Q 1056 3291 1056 2328 
Q 1056 1369 1301 889 
Q 1547 409 2034 409 
Q 2525 409 2770 889 
Q 3016 1369 3016 2328 
Q 3016 3291 2770 3770 
Q 2525 4250 2034 4250 
z
M 2034 4750 
Q 2819 4750 3233 4129 
Q 3647 3509 3647 2328 
Q 3647 1150 3233 529 
Q 2819 -91 2034 -91 
Q 1250 -91 836 529 
Q 422 1150 422 2328 
Q 422 3509 836 4129 
Q 1250 4750 2034 4750 
z
" transform="scale(0.015625)"/>
       </defs>
       <use xlink:href="#DejaVuSans-30"/>
      </g>
     </g>
    </g>
    <g id="xtick_2">
     <g id="line2d_2">
      <g>
       <use xlink:href="#m58a1098b31" x="346.909091" y="504" style="stroke: #000000; stroke-width: 0.8"/>
      </g>
     </g>
     <g id="text_2">
      <!-- 2 -->
      <g transform="translate(341.182841 524.677187)scale(0.18 -0.18)">
       <defs>
        <path id="DejaVuSans-32" d="M 1228 531 
L 3431 531 
L 3431 0 
L 469 0 
L 469 531 
Q 828 903 1448 1529 
Q 2069 2156 2228 2338 
Q 2531 2678 2651 2914 
Q 2772 3150 2772 3378 
Q 2772 3750 2511 3984 
Q 2250 4219 1831 4219 
Q 1534 4219 1204 4116 
Q 875 4013 500 3803 
L 500 4441 
Q 881 4594 1212 4672 
Q 1544 4750 1819 4750 
Q 2544 4750 2975 4387 
Q 3406 4025 3406 3419 
Q 3406 3131 3298 2873 
Q 3191 2616 2906 2266 
Q 2828 2175 2409 1742 
Q 1991 1309 1228 531 
z
" transform="scale(0.015625)"/>
       </defs>
       <use xlink:href="#DejaVuSans-32"/>
      </g>
     </g>
    </g>
    <g id="xtick_3">
     <g id="line2d_3">
      <g>
       <use xlink:href="#m58a1098b31" x="509.236364" y="504" style="stroke: #000000; stroke-width: 0.8"/>
      </g>
     </g>
     <g id="text_3">
      <!-- 4 -->
      <g transform="translate(503.510114 524.677187)scale(0.18 -0.18)">
       <defs>
        <path id="DejaVuSans-34" d="M 2419 4116 
L 825 1625 
L 2419 1625 
L 2419 4116 
z
M 2253 4666 
L 3047 4666 
L 3047 1625 
L 3713 1625 
L 3713 1100 
L 3047 1100 
L 3047 0 
L 2419 0 
L 2419 1100 
L 313 1100 
L 313 1709 
L 2253 4666 
z
" transform="scale(0.015625)"/>
       </defs>
       <use xlink:href="#DejaVuSans-34"/>
      </g>
     </g>
    </g>
    <g id="xtick_4">
     <g id="line2d_4">
      <g>
       <use xlink:href="#m58a1098b31" x="671.563636" y="504" style="stroke: #000000; stroke-width: 0.8"/>
      </g>
     </g>
     <g id="text_4">
      <!-- 6 -->
      <g transform="translate(665.837386 524.677187)scale(0.18 -0.18)">
       <defs>
        <path id="DejaVuSans-36" d="M 2113 2584 
Q 1688 2584 1439 2293 
Q 1191 2003 1191 1497 
Q 1191 994 1439 701 
Q 1688 409 2113 409 
Q 2538 409 2786 701 
Q 3034 994 3034 1497 
Q 3034 2003 2786 2293 
Q 2538 2584 2113 2584 
z
M 3366 4563 
L 3366 3988 
Q 3128 4100 2886 4159 
Q 2644 4219 2406 4219 
Q 1781 4219 1451 3797 
Q 1122 3375 1075 2522 
Q 1259 2794 1537 2939 
Q 1816 3084 2150 3084 
Q 2853 3084 3261 2657 
Q 3669 2231 3669 1497 
Q 3669 778 3244 343 
Q 2819 -91 2113 -91 
Q 1303 -91 875 529 
Q 447 1150 447 2328 
Q 447 3434 972 4092 
Q 1497 4750 2381 4750 
Q 2619 4750 2861 4703 
Q 3103 4656 3366 4563 
z
" transform="scale(0.015625)"/>
       </defs>
       <use xlink:href="#DejaVuSans-36"/>
      </g>
     </g>
    </g>
    <g id="xtick_5">
     <g id="line2d_5">
      <g>
       <use xlink:href="#m58a1098b31" x="833.890909" y="504" style="stroke: #000000; stroke-width: 0.8"/>
      </g>
     </g>
     <g id="text_5">
      <!-- 8 -->
      <g transform="translate(828.164659 524.677187)scale(0.18 -0.18)">
       <defs>
        <path id="DejaVuSans-38" d="M 2034 2216 
Q 1584 2216 1326 1975 
Q 1069 1734 1069 1313 
Q 1069 891 1326 650 
Q 1584 409 2034 409 
Q 2484 409 2743 651 
Q 3003 894 3003 1313 
Q 3003 1734 2745 1975 
Q 2488 2216 2034 2216 
z
M 1403 2484 
Q 997 2584 770 2862 
Q 544 3141 544 3541 
Q 544 4100 942 4425 
Q 1341 4750 2034 4750 
Q 2731 4750 3128 4425 
Q 3525 4100 3525 3541 
Q 3525 3141 3298 2862 
Q 3072 2584 2669 2484 
Q 3125 2378 3379 2068 
Q 3634 1759 3634 1313 
Q 3634 634 3220 271 
Q 2806 -91 2034 -91 
Q 1263 -91 848 271 
Q 434 634 434 1313 
Q 434 1759 690 2068 
Q 947 2378 1403 2484 
z
M 1172 3481 
Q 1172 3119 1398 2916 
Q 1625 2713 2034 2713 
Q 2441 2713 2670 2916 
Q 2900 3119 2900 3481 
Q 2900 3844 2670 4047 
Q 2441 4250 2034 4250 
Q 1625 4250 1398 4047 
Q 1172 3844 1172 3481 
z
" transform="scale(0.015625)"/>
       </defs>
       <use xlink:href="#DejaVuSans-38"/>
      </g>
     </g>
    </g>
    <g id="xtick_6">
     <g id="line2d_6">
      <g>
       <use xlink:href="#m58a1098b31" x="996.218182" y="504" style="stroke: #000000; stroke-width: 0.8"/>
      </g>
     </g>
     <g id="text_6">
      <!-- 10 -->
      <g transform="translate(984.765682 524.677187)scale(0.18 -0.18)">
       <defs>
        <path id="DejaVuSans-31" d="M 794 531 
L 1825 531 
L 1825 4091 
L 703 3866 
L 703 4441 
L 1819 4666 
L 2450 4666 
L 2450 531 
L 3481 531 
L 3481 0 
L 794 0 
L 794 531 
z
" transform="scale(0.015625)"/>
       </defs>
       <use xlink:href="#DejaVuSans-31"/>
       <use xlink:href="#DejaVuSans-30" x="63.623047"/>
      </g>
     </g>
    </g>
    <g id="text_7">
     <!-- $x$ -->
     <g transform="translate(585 546.097813)scale(0.18 -0.18)">
      <defs>
       <path id="DejaVuSans-Oblique-78" d="M 3841 3500 
L 2234 1784 
L 3219 0 
L 2559 0 
L 1819 1388 
L 531 0 
L -166 0 
L 1556 1844 
L 641 3500 
L 1300 3500 
L 1972 2234 
L 3144 3500 
L 3841 3500 
z
" transform="scale(0.015625)"/>
      </defs>
      <use xlink:href="#DejaVuSans-Oblique-78" transform="translate(0 0.3125)"/>
     </g>
    </g>
   </g>
   <g id="matplotlib.axis_2">
    <g id="ytick_1">
     <g id="line2d_7">
      <defs>
       <path id="ma7e42d58c8" d="M 0 0 
L -3.5 0 
" style="stroke: #000000; stroke-width: 0.8"/>
      </defs>
      <g>
       <use xlink:href="#ma7e42d58c8" x="144" y="484.232727" style="stroke: #000000; stroke-width: 0.8"/>
      </g>
     </g>
     <g id="text_8">
      <!-- 0.00 -->
      <g transform="translate(96.921875 491.071321)scale(0.18 -0.18)">
       <defs>
        <path id="DejaVuSans-2e" d="M 684 794 
L 1344 794 
L 1344 0 
L 684 0 
L 684 794 
z
" transform="scale(0.015625)"/>
       </defs>
       <use xlink:href="#DejaVuSans-30"/>
       <use xlink:href="#DejaVuSans-2e" x="63.623047"/>
       <use xlink:href="#DejaVuSans-30" x="95.410156"/>
       <use xlink:href="#DejaVuSans-30" x="159.033203"/>
      </g>
     </g>
    </g>
    <g id="ytick_2">
     <g id="line2d_8">
      <g>
       <use xlink:href="#ma7e42d58c8" x="144" y="425.172214" style="stroke: #000000; stroke-width: 0.8"/>
      </g>
     </g>
     <g id="text_9">
      <!-- 0.05 -->
      <g transform="translate(96.921875 432.010808)scale(0.18 -0.18)">
       <defs>
        <path id="DejaVuSans-35" d="M 691 4666 
L 3169 4666 
L 3169 4134 
L 1269 4134 
L 1269 2991 
Q 1406 3038 1543 3061 
Q 1681 3084 1819 3084 
Q 2600 3084 3056 2656 
Q 3513 2228 3513 1497 
Q 3513 744 3044 326 
Q 2575 -91 1722 -91 
Q 1428 -91 1123 -41 
Q 819 9 494 109 
L 494 744 
Q 775 591 1075 516 
Q 1375 441 1709 441 
Q 2250 441 2565 725 
Q 2881 1009 2881 1497 
Q 2881 1984 2565 2268 
Q 2250 2553 1709 2553 
Q 1456 2553 1204 2497 
Q 953 2441 691 2322 
L 691 4666 
z
" transform="scale(0.015625)"/>
       </defs>
       <use xlink:href="#DejaVuSans-30"/>
       <use xlink:href="#DejaVuSans-2e" x="63.623047"/>
       <use xlink:href="#DejaVuSans-30" x="95.410156"/>
       <use xlink:href="#DejaVuSans-35" x="159.033203"/>
      </g>
     </g>
    </g>
    <g id="ytick_3">
     <g id="line2d_9">
      <g>
       <use xlink:href="#ma7e42d58c8" x="144" y="366.1117" style="stroke: #000000; stroke-width: 0.8"/>
      </g>
     </g>
     <g id="text_10">
      <!-- 0.10 -->
      <g transform="translate(96.921875 372.950294)scale(0.18 -0.18)">
       <use xlink:href="#DejaVuSans-30"/>
       <use xlink:href="#DejaVuSans-2e" x="63.623047"/>
       <use xlink:href="#DejaVuSans-31" x="95.410156"/>
       <use xlink:href="#DejaVuSans-30" x="159.033203"/>
      </g>
     </g>
    </g>
    <g id="ytick_4">
     <g id="line2d_10">
      <g>
       <use xlink:href="#ma7e42d58c8" x="144" y="307.051187" style="stroke: #000000; stroke-width: 0.8"/>
      </g>
     </g>
     <g id="text_11">
      <!-- 0.15 -->
      <g transform="translate(96.921875 313.889781)scale(0.18 -0.18)">
       <use xlink:href="#DejaVuSans-30"/>
       <use xlink:href="#DejaVuSans-2e" x="63.623047"/>
       <use xlink:href="#DejaVuSans-31" x="95.410156"/>
       <use xlink:href="#DejaVuSans-35" x="159.033203"/>
      </g>
     </g>
    </g>
    <g id="ytick_5">
     <g id="line2d_11">
      <g>
       <use xlink:href="#ma7e42d58c8" x="144" y="247.990674" style="stroke: #000000; stroke-width: 0.8"/>
      </g>
     </g>
     <g id="text_12">
      <!-- 0.20 -->
      <g transform="translate(96.921875 254.829267)scale(0.18 -0.18)">
       <use xlink:href="#DejaVuSans-30"/>
       <use xlink:href="#DejaVuSans-2e" x="63.623047"/>
       <use xlink:href="#DejaVuSans-32" x="95.410156"/>
       <use xlink:href="#DejaVuSans-30" x="159.033203"/>
      </g>
     </g>
    </g>
    <g id="ytick_6">
     <g id="line2d_12">
      <g>
       <use xlink:href="#ma7e42d58c8" x="144" y="188.93016" style="stroke: #000000; stroke-width: 0.8"/>
      </g>
     </g>
     <g id="text_13">
      <!-- 0.25 -->
      <g transform="translate(96.921875 195.768754)scale(0.18 -0.18)">
       <use xlink:href="#DejaVuSans-30"/>
       <use xlink:href="#DejaVuSans-2e" x="63.623047"/>
       <use xlink:href="#DejaVuSans-32" x="95.410156"/>
       <use xlink:href="#DejaVuSans-35" x="159.033203"/>
      </g>
     </g>
    </g>
    <g id="ytick_7">
     <g id="line2d_13">
      <g>
       <use xlink:href="#ma7e42d58c8" x="144" y="129.869647" style="stroke: #000000; stroke-width: 0.8"/>
      </g>
     </g>
     <g id="text_14">
      <!-- 0.30 -->
      <g transform="translate(96.921875 136.70824)scale(0.18 -0.18)">
       <defs>
        <path id="DejaVuSans-33" d="M 2597 2516 
Q 3050 2419 3304 2112 
Q 3559 1806 3559 1356 
Q 3559 666 3084 287 
Q 2609 -91 1734 -91 
Q 1441 -91 1130 -33 
Q 819 25 488 141 
L 488 750 
Q 750 597 1062 519 
Q 1375 441 1716 441 
Q 2309 441 2620 675 
Q 2931 909 2931 1356 
Q 2931 1769 2642 2001 
Q 2353 2234 1838 2234 
L 1294 2234 
L 1294 2753 
L 1863 2753 
Q 2328 2753 2575 2939 
Q 2822 3125 2822 3475 
Q 2822 3834 2567 4026 
Q 2313 4219 1838 4219 
Q 1578 4219 1281 4162 
Q 984 4106 628 3988 
L 628 4550 
Q 988 4650 1302 4700 
Q 1616 4750 1894 4750 
Q 2613 4750 3031 4423 
Q 3450 4097 3450 3541 
Q 3450 3153 3228 2886 
Q 3006 2619 2597 2516 
z
" transform="scale(0.015625)"/>
       </defs>
       <use xlink:href="#DejaVuSans-30"/>
       <use xlink:href="#DejaVuSans-2e" x="63.623047"/>
       <use xlink:href="#DejaVuSans-33" x="95.410156"/>
       <use xlink:href="#DejaVuSans-30" x="159.033203"/>
      </g>
     </g>
    </g>
    <g id="ytick_8">
     <g id="line2d_14">
      <g>
       <use xlink:href="#ma7e42d58c8" x="144" y="70.809133" style="stroke: #000000; stroke-width: 0.8"/>
      </g>
     </g>
     <g id="text_15">
      <!-- 0.35 -->
      <g transform="translate(96.921875 77.647727)scale(0.18 -0.18)">
       <use xlink:href="#DejaVuSans-30"/>
       <use xlink:href="#DejaVuSans-2e" x="63.623047"/>
       <use xlink:href="#DejaVuSans-33" x="95.410156"/>
       <use xlink:href="#DejaVuSans-35" x="159.033203"/>
      </g>
     </g>
    </g>
    <g id="text_16">
     <!-- $\wp(x,\mu)$ -->
     <g transform="translate(88.781875 315.54)rotate(-90)scale(0.18 -0.18)">
      <defs>
       <path id="DejaVuSans-2118" d="M 1766 3019 
Q 1341 2613 1341 2019 
Q 1341 1778 1438 1444 
Q 1722 1759 2256 2222 
Q 2941 2813 3353 2813 
Q 3763 2813 3981 2575 
Q 4209 2325 4209 1791 
Q 4209 1109 3722 438 
Q 3344 -84 2800 -84 
Q 2484 -84 2247 103 
Q 2303 238 2331 328 
Q 2459 203 2813 203 
Q 3194 203 3484 641 
Q 3700 966 3700 1575 
Q 3700 1963 3581 2188 
Q 3481 2378 3250 2378 
Q 2659 2378 1556 1156 
Q 1978 250 1978 -138 
Q 1978 -628 1763 -972 
Q 1484 -1416 1075 -1416 
Q 722 -1416 541 -1225 
Q 344 -1019 344 -600 
Q 344 234 1041 1022 
Q 897 1516 897 1913 
Q 897 2656 1622 3169 
L 1766 3019 
z
M 1159 716 
Q 756 97 756 -288 
Q 756 -653 853 -797 
Q 1003 -1016 1147 -1019 
Q 1350 -1019 1438 -872 
Q 1538 -709 1538 -413 
Q 1538 -169 1159 716 
z
" transform="scale(0.015625)"/>
       <path id="DejaVuSans-28" d="M 1984 4856 
Q 1566 4138 1362 3434 
Q 1159 2731 1159 2009 
Q 1159 1288 1364 580 
Q 1569 -128 1984 -844 
L 1484 -844 
Q 1016 -109 783 600 
Q 550 1309 550 2009 
Q 550 2706 781 3412 
Q 1013 4119 1484 4856 
L 1984 4856 
z
" transform="scale(0.015625)"/>
       <path id="DejaVuSans-2c" d="M 750 794 
L 1409 794 
L 1409 256 
L 897 -744 
L 494 -744 
L 750 256 
L 750 794 
z
" transform="scale(0.015625)"/>
       <path id="DejaVuSans-Oblique-3bc" d="M -84 -1331 
L 856 3500 
L 1434 3500 
L 1009 1322 
Q 997 1256 987 1175 
Q 978 1094 978 1013 
Q 978 722 1161 565 
Q 1344 409 1684 409 
Q 2147 409 2431 671 
Q 2716 934 2816 1459 
L 3213 3500 
L 3788 3500 
L 3266 809 
Q 3253 750 3248 706 
Q 3244 663 3244 628 
Q 3244 531 3283 486 
Q 3322 441 3406 441 
Q 3438 441 3492 456 
Q 3547 472 3647 513 
L 3559 50 
Q 3422 -19 3297 -55 
Q 3172 -91 3053 -91 
Q 2847 -91 2730 40 
Q 2613 172 2613 403 
Q 2438 153 2195 31 
Q 1953 -91 1625 -91 
Q 1334 -91 1117 43 
Q 900 178 831 397 
L 494 -1331 
L -84 -1331 
z
" transform="scale(0.015625)"/>
       <path id="DejaVuSans-29" d="M 513 4856 
L 1013 4856 
Q 1481 4119 1714 3412 
Q 1947 2706 1947 2009 
Q 1947 1309 1714 600 
Q 1481 -109 1013 -844 
L 513 -844 
Q 928 -128 1133 580 
Q 1338 1288 1338 2009 
Q 1338 2731 1133 3434 
Q 928 4138 513 4856 
z
" transform="scale(0.015625)"/>
      </defs>
      <use xlink:href="#DejaVuSans-2118" transform="translate(0 0.125)"/>
      <use xlink:href="#DejaVuSans-28" transform="translate(69.726562 0.125)"/>
      <use xlink:href="#DejaVuSans-Oblique-78" transform="translate(108.740234 0.125)"/>
      <use xlink:href="#DejaVuSans-2c" transform="translate(167.919922 0.125)"/>
      <use xlink:href="#DejaVuSans-Oblique-3bc" transform="translate(219.189453 0.125)"/>
      <use xlink:href="#DejaVuSans-29" transform="translate(282.8125 0.125)"/>
     </g>
    </g>
   </g>
   <g id="line2d_15">
    <defs>
     <path id="med21f066df" d="M 0 3.75 
C 0.994512 3.75 1.948425 3.354876 2.65165 2.65165 
C 3.354876 1.948425 3.75 0.994512 3.75 0 
C 3.75 -0.994512 3.354876 -1.948425 2.65165 -2.65165 
C 1.948425 -3.354876 0.994512 -3.75 0 -3.75 
C -0.994512 -3.75 -1.948425 -3.354876 -2.65165 -2.65165 
C -3.354876 -1.948425 -3.75 -0.994512 -3.75 0 
C -3.75 0.994512 -3.354876 1.948425 -2.65165 2.65165 
C -1.948425 3.354876 -0.994512 3.75 0 3.75 
z
" style="stroke: #000000"/>
    </defs>
    <g clip-path="url(#p64ee2cdbed)">
     <use xlink:href="#med21f066df" x="184.581818" y="220.669091" style="stroke: #000000"/>
     <use xlink:href="#med21f066df" x="265.745455" y="88.887273" style="stroke: #000000"/>
     <use xlink:href="#med21f066df" x="346.909091" y="187.723636" style="stroke: #000000"/>
     <use xlink:href="#med21f066df" x="428.072727" y="335.978182" style="stroke: #000000"/>
     <use xlink:href="#med21f066df" x="509.236364" y="428.637273" style="stroke: #000000"/>
     <use xlink:href="#med21f066df" x="590.4" y="467.554091" style="stroke: #000000"/>
     <use xlink:href="#med21f066df" x="671.563636" y="480.063068" style="stroke: #000000"/>
     <use xlink:href="#med21f066df" x="752.727273" y="483.339229" style="stroke: #000000"/>
     <use xlink:href="#med21f066df" x="833.890909" y="484.065196" style="stroke: #000000"/>
     <use xlink:href="#med21f066df" x="915.054545" y="484.204805" style="stroke: #000000"/>
     <use xlink:href="#med21f066df" x="996.218182" y="484.228539" style="stroke: #000000"/>
    </g>
   </g>
   <g id="line2d_16">
    <path d="M 184.581818 220.669091 
L 192.698182 195.72733 
L 200.814545 172.931209 
L 208.930909 152.573113 
L 217.047273 134.875909 
L 225.163636 119.99395 
L 233.28 108.015889 
L 241.396364 98.968996 
L 249.512727 92.824607 
L 257.629091 89.504413 
L 265.745455 88.887273 
L 273.861818 90.816276 
L 281.978182 95.105829 
L 290.094545 101.548557 
L 298.210909 109.921851 
L 306.327273 119.99395 
L 314.443636 131.529442 
L 322.56 144.294141 
L 330.676364 158.059293 
L 338.792727 172.605111 
L 346.909091 187.723636 
L 355.025455 203.220976 
L 363.141818 218.918933 
L 371.258182 234.656094 
L 379.374545 250.28843 
L 387.490909 265.689461 
L 395.607273 280.750063 
L 403.723636 295.377957 
L 411.84 309.496959 
L 419.956364 323.046029 
L 428.072727 335.978182 
L 436.189091 348.259299 
L 444.305455 359.866886 
L 452.421818 370.788803 
L 460.538182 381.022008 
L 468.654545 390.571327 
L 476.770909 399.448284 
L 484.887273 407.669983 
L 493.003636 415.258082 
L 501.12 422.237843 
L 509.236364 428.637273 
L 517.352727 434.486351 
L 525.469091 439.816356 
L 533.585455 444.659265 
L 541.701818 449.047255 
L 549.818182 453.012261 
L 557.934545 456.585626 
L 566.050909 459.797809 
L 574.167273 462.678151 
L 582.283636 465.254702 
L 590.4 467.554091 
L 598.516364 469.60144 
L 606.632727 471.420312 
L 614.749091 473.032691 
L 622.865455 474.458985 
L 630.981818 475.718055 
L 639.098182 476.827254 
L 647.214545 477.802486 
L 655.330909 478.658268 
L 663.447273 479.407805 
L 671.563636 480.063068 
L 679.68 480.63487 
L 687.796364 481.132949 
L 695.912727 481.566052 
L 704.029091 481.942006 
L 712.145455 482.267803 
L 720.261818 482.549665 
L 728.378182 482.793121 
L 736.494545 483.003067 
L 744.610909 483.183831 
L 752.727273 483.339229 
L 760.843636 483.472617 
L 768.96 483.58694 
L 777.076364 483.68478 
L 785.192727 483.768392 
L 793.309091 483.839742 
L 801.425455 483.900544 
L 809.541818 483.952284 
L 817.658182 483.996254 
L 825.774545 484.03357 
L 833.890909 484.065196 
L 842.007273 484.091966 
L 850.123636 484.114595 
L 858.24 484.133701 
L 866.356364 484.14981 
L 874.472727 484.163377 
L 882.589091 484.174788 
L 890.705455 484.184375 
L 898.821818 484.192419 
L 906.938182 484.199161 
L 915.054545 484.204805 
L 923.170909 484.209525 
L 931.287273 484.213467 
L 939.403636 484.216755 
L 947.52 484.219496 
L 955.636364 484.221777 
L 963.752727 484.223674 
L 971.869091 484.22525 
L 979.985455 484.226558 
L 988.101818 484.227642 
" clip-path="url(#p64ee2cdbed)" style="fill: none; stroke: #1f77b4; stroke-width: 1.5; stroke-linecap: square"/>
   </g>
   <g id="LineCollection_1">
    <path d="M 184.581818 484.232727 
L 184.581818 220.669091 
" clip-path="url(#p64ee2cdbed)" style="fill: none; stroke: #000000; stroke-opacity: 0.5; stroke-width: 5"/>
    <path d="M 265.745455 484.232727 
L 265.745455 88.887273 
" clip-path="url(#p64ee2cdbed)" style="fill: none; stroke: #000000; stroke-opacity: 0.5; stroke-width: 5"/>
    <path d="M 346.909091 484.232727 
L 346.909091 187.723636 
" clip-path="url(#p64ee2cdbed)" style="fill: none; stroke: #000000; stroke-opacity: 0.5; stroke-width: 5"/>
    <path d="M 428.072727 484.232727 
L 428.072727 335.978182 
" clip-path="url(#p64ee2cdbed)" style="fill: none; stroke: #000000; stroke-opacity: 0.5; stroke-width: 5"/>
    <path d="M 509.236364 484.232727 
L 509.236364 428.637273 
" clip-path="url(#p64ee2cdbed)" style="fill: none; stroke: #000000; stroke-opacity: 0.5; stroke-width: 5"/>
    <path d="M 590.4 484.232727 
L 590.4 467.554091 
" clip-path="url(#p64ee2cdbed)" style="fill: none; stroke: #000000; stroke-opacity: 0.5; stroke-width: 5"/>
    <path d="M 671.563636 484.232727 
L 671.563636 480.063068 
" clip-path="url(#p64ee2cdbed)" style="fill: none; stroke: #000000; stroke-opacity: 0.5; stroke-width: 5"/>
    <path d="M 752.727273 484.232727 
L 752.727273 483.339229 
" clip-path="url(#p64ee2cdbed)" style="fill: none; stroke: #000000; stroke-opacity: 0.5; stroke-width: 5"/>
    <path d="M 833.890909 484.232727 
L 833.890909 484.065196 
" clip-path="url(#p64ee2cdbed)" style="fill: none; stroke: #000000; stroke-opacity: 0.5; stroke-width: 5"/>
    <path d="M 915.054545 484.232727 
L 915.054545 484.204805 
" clip-path="url(#p64ee2cdbed)" style="fill: none; stroke: #000000; stroke-opacity: 0.5; stroke-width: 5"/>
    <path d="M 996.218182 484.232727 
L 996.218182 484.228539 
" clip-path="url(#p64ee2cdbed)" style="fill: none; stroke: #000000; stroke-opacity: 0.5; stroke-width: 5"/>
   </g>
   <g id="line2d_17">
    <path d="M 306.327273 504 
L 306.327273 69.12 
" clip-path="url(#p64ee2cdbed)" style="fill: none; stroke-dasharray: 7.4,3.2; stroke-dashoffset: 0; stroke: #008000; stroke-width: 2"/>
   </g>
   <g id="line2d_18">
    <path d="M 206.922525 250.863059 
L 405.73202 250.863059 
" clip-path="url(#p64ee2cdbed)" style="fill: none; stroke-dasharray: 11.1,4.8; stroke-dashoffset: 0; stroke: #ff0000; stroke-width: 3"/>
   </g>
   <g id="patch_3">
    <path d="M 144 504 
L 144 69.12 
" style="fill: none; stroke: #000000; stroke-width: 0.8; stroke-linejoin: miter; stroke-linecap: square"/>
   </g>
   <g id="patch_4">
    <path d="M 1036.8 504 
L 1036.8 69.12 
" style="fill: none; stroke: #000000; stroke-width: 0.8; stroke-linejoin: miter; stroke-linecap: square"/>
   </g>
   <g id="patch_5">
    <path d="M 144 504 
L 1036.8 504 
" style="fill: none; stroke: #000000; stroke-width: 0.8; stroke-linejoin: miter; stroke-linecap: square"/>
   </g>
   <g id="patch_6">
    <path d="M 144 69.12 
L 1036.8 69.12 
" style="fill: none; stroke: #000000; stroke-width: 0.8; stroke-linejoin: miter; stroke-linecap: square"/>
   </g>
   <g id="legend_1">
    <g id="patch_7">
     <path d="M 900 136.397812 
L 1024.2 136.397812 
Q 1027.8 136.397812 1027.8 132.797812 
L 1027.8 81.72 
Q 1027.8 78.12 1024.2 78.12 
L 900 78.12 
Q 896.4 78.12 896.4 81.72 
L 896.4 132.797812 
Q 896.4 136.397812 900 136.397812 
z
" style="fill: #ffffff; opacity: 0.8; stroke: #cccccc; stroke-linejoin: miter"/>
    </g>
    <g id="line2d_19">
     <path d="M 903.6 92.697187 
L 921.6 92.697187 
L 939.6 92.697187 
" style="fill: none; stroke-dasharray: 7.4,3.2; stroke-dashoffset: 0; stroke: #008000; stroke-width: 2"/>
    </g>
    <g id="text_17">
     <!-- $\mu$=1.5 -->
     <g transform="translate(954 98.997187)scale(0.18 -0.18)">
      <defs>
       <path id="DejaVuSans-3d" d="M 678 2906 
L 4684 2906 
L 4684 2381 
L 678 2381 
L 678 2906 
z
M 678 1631 
L 4684 1631 
L 4684 1100 
L 678 1100 
L 678 1631 
z
" transform="scale(0.015625)"/>
      </defs>
      <use xlink:href="#DejaVuSans-Oblique-3bc" transform="translate(0 0.09375)"/>
      <use xlink:href="#DejaVuSans-3d" transform="translate(63.623047 0.09375)"/>
      <use xlink:href="#DejaVuSans-31" transform="translate(147.412109 0.09375)"/>
      <use xlink:href="#DejaVuSans-2e" transform="translate(211.035156 0.09375)"/>
      <use xlink:href="#DejaVuSans-35" transform="translate(242.822266 0.09375)"/>
     </g>
    </g>
    <g id="line2d_20">
     <path d="M 903.6 119.154375 
L 921.6 119.154375 
L 939.6 119.154375 
" style="fill: none; stroke-dasharray: 11.1,4.8; stroke-dashoffset: 0; stroke: #ff0000; stroke-width: 3"/>
    </g>
    <g id="text_18">
     <!-- $2\sigma$=2.4 -->
     <g transform="translate(954 125.454375)scale(0.18 -0.18)">
      <defs>
       <path id="DejaVuSans-Oblique-3c3" d="M 2219 3044 
Q 1744 3044 1422 2700 
Q 1081 2341 969 1747 
Q 844 1119 1044 756 
Q 1241 397 1706 397 
Q 2166 397 2503 759 
Q 2844 1122 2966 1747 
Q 3075 2319 2881 2700 
Q 2700 3044 2219 3044 
z
M 2309 3503 
L 4219 3500 
L 4106 2925 
L 3463 2925 
Q 3706 2438 3575 1747 
Q 3406 888 2884 400 
Q 2359 -91 1609 -91 
Q 856 -91 525 400 
Q 194 888 363 1747 
Q 528 2609 1050 3097 
Q 1484 3503 2309 3503 
z
" transform="scale(0.015625)"/>
      </defs>
      <use xlink:href="#DejaVuSans-32" transform="translate(0 0.78125)"/>
      <use xlink:href="#DejaVuSans-Oblique-3c3" transform="translate(63.623047 0.78125)"/>
      <use xlink:href="#DejaVuSans-3d" transform="translate(127.001953 0.78125)"/>
      <use xlink:href="#DejaVuSans-32" transform="translate(210.791016 0.78125)"/>
      <use xlink:href="#DejaVuSans-2e" transform="translate(274.414062 0.78125)"/>
      <use xlink:href="#DejaVuSans-34" transform="translate(306.201172 0.78125)"/>
     </g>
    </g>
   </g>
  </g>
 </g>
 <defs>
  <clipPath id="p64ee2cdbed">
   <rect x="144" y="69.12" width="892.8" height="434.88"/>
  </clipPath>
 </defs>
</svg>
