<svg width="960" height="384" xmlns="http://www.w3.org/2000/svg" xmlns:xlink="http://www.w3.org/1999/xlink" overflow="hidden"><defs><clipPath id="clip0"><rect x="0" y="0" width="960" height="384"/></clipPath></defs><g clip-path="url(#clip0)"><rect x="0" y="0" width="960" height="384" fill="#FFFFFF"/><path d="M183.5 144.5 914.241 144.5" stroke="#4472C4" stroke-width="0.666667" stroke-miterlimit="8" fill="none" fill-rule="evenodd"/><path d="M183.5 228.5 914.241 228.5" stroke="#4472C4" stroke-width="0.666667" stroke-miterlimit="8" fill="none" fill-rule="evenodd"/><text font-family="Calibri,Calibri_MSFontService,sans-serif" font-weight="400" font-size="16" transform="translate(40.3525 128)">Dado 1</text><text font-family="Calibri,Calibri_MSFontService,sans-serif" font-weight="400" font-size="16" transform="translate(40.3525 206)">Dado 2</text><text font-family="Calibri,Calibri_MSFontService,sans-serif" font-weight="400" font-size="16" transform="translate(40.3523 288)">Dado 3</text><text font-family="Calibri,Calibri_MSFontService,sans-serif" font-weight="400" font-size="16" transform="translate(346.565 107)">A</text><text font-family="Calibri,Calibri_MSFontService,sans-serif" font-weight="400" font-size="16" transform="translate(711.936 106)">D</text><text font-family="Calibri,Calibri_MSFontService,sans-serif" font-weight="400" font-size="16" transform="translate(253.737 188)">A</text><text font-family="Calibri,Calibri_MSFontService,sans-serif" font-weight="400" font-size="16" transform="translate(210.645 270)">A</text><text font-family="Calibri,Calibri_MSFontService,sans-serif" font-weight="400" font-size="16" transform="translate(615.445 188)">A</text><text font-family="Calibri,Calibri_MSFontService,sans-serif" font-weight="400" font-size="16" transform="translate(567.912 270)">A</text><text font-family="Calibri,Calibri_MSFontService,sans-serif" font-weight="400" font-size="16" transform="translate(441.743 189)">D</text><text font-family="Calibri,Calibri_MSFontService,sans-serif" font-weight="400" font-size="16" transform="translate(807.821 189)">D</text><text font-family="Calibri,Calibri_MSFontService,sans-serif" font-weight="400" font-size="16" transform="translate(303.056 270)">D</text><text font-family="Calibri,Calibri_MSFontService,sans-serif" font-weight="400" font-size="16" transform="translate(477.809 271)">D</text><text font-family="Calibri,Calibri_MSFontService,sans-serif" font-weight="400" font-size="16" transform="translate(854.235 268)">D</text><text font-family="Calibri,Calibri_MSFontService,sans-serif" font-weight="400" font-size="16" transform="translate(661.659 271)">D</text><text font-family="Calibri,Calibri_MSFontService,sans-serif" font-weight="400" font-size="16" transform="translate(390.18 270)">A</text><text font-family="Calibri,Calibri_MSFontService,sans-serif" font-weight="400" font-size="16" transform="translate(758.884 270)">A</text><path d="M0.16265-0.290957 87.1718 48.3488 86.8465 48.9307-0.16265 0.290957ZM87.7972 44.4977 92.8283 51.8928 83.8936 51.4807Z" fill="#4472C4" transform="matrix(-1 0 0 1 352.328 116.5)"/><path d="M351.661 116.208 441.334 165.521 441.012 166.105 351.339 116.792ZM441.932 161.666 447.015 169.026 438.077 168.676Z" fill="#4472C4"/><path d="M0.259239-0.209538 39.1598 47.9181 38.6414 48.3372-0.259239 0.209538ZM41.1733 44.5762 43.0913 53.3124 34.9516 49.6051Z" fill="#4472C4" transform="matrix(-1 0 0 1 258.591 197.5)"/><path d="M259.744 197.273 304.85 245.578 304.362 246.033 259.256 197.728ZM306.62 242.101 309.156 250.678 300.772 247.561Z" fill="#4472C4"/><path d="M0.236384-0.235019 47.4361 47.2389 46.9633 47.7089-0.236384 0.235019ZM49.0962 43.7081 51.9001 52.2016 43.423 49.3486Z" fill="#4472C4" transform="matrix(-1 0 0 1 447.4 198.5)"/><path d="M447.761 198.292 485.98 246.288 485.459 246.703 447.239 198.708ZM488.018 242.961 489.873 251.711 481.76 247.945Z" fill="#4472C4"/><path d="M0.158983-0.292977 91.1264 49.07 90.8085 49.656-0.158983 0.292977ZM91.7033 45.2114 96.827 52.5427 87.8877 52.2428Z" fill="#4472C4" transform="matrix(-1 0 0 1 717.327 116.5)"/><path d="M0.24722-0.223592 43.3083 47.3878 42.8139 47.835-0.24722 0.223592ZM45.1333 43.9394 47.5329 52.5558 39.2001 49.3056Z" fill="#4472C4" transform="matrix(-1 0 0 1 621.033 198.5)"/><path d="M620.752 198.281 662.929 246.814 662.426 247.252 620.248 198.719ZM664.822 243.403 667.05 252.065 658.784 248.65Z" fill="#4472C4"/><path d="M717.661 116.208 807.714 166.056 807.391 166.639 717.339 116.792ZM808.323 162.202 813.385 169.576 804.449 169.202Z" fill="#4472C4"/><path d="M0.242009-0.229222 44.931 46.9527 44.4469 47.4112-0.242009 0.229222ZM46.6762 43.4633 49.2734 52.0222 40.868 48.9646Z" fill="#4472C4" transform="matrix(-1 0 0 1 813.773 198.5)"/><path d="M813.745 198.274 855.632 243.556 855.143 244.009 813.255 198.726ZM857.418 240.087 859.914 248.676 851.546 245.52Z" fill="#4472C4"/></g></svg>