<?xml version="1.0" encoding="utf-8" standalone="no"?>
<!DOCTYPE svg PUBLIC "-//W3C//DTD SVG 1.1//EN"
  "http://www.w3.org/Graphics/SVG/1.1/DTD/svg11.dtd">
<svg xmlns:xlink="http://www.w3.org/1999/xlink" width="864pt" height="432pt" viewBox="0 0 864 432" xmlns="http://www.w3.org/2000/svg" version="1.1">
 <metadata>
  <rdf:RDF xmlns:dc="http://purl.org/dc/elements/1.1/" xmlns:cc="http://creativecommons.org/ns#" xmlns:rdf="http://www.w3.org/1999/02/22-rdf-syntax-ns#">
   <cc:Work>
    <dc:type rdf:resource="http://purl.org/dc/dcmitype/StillImage"/>
    <dc:date>2023-04-04T15:01:53.189856</dc:date>
    <dc:format>image/svg+xml</dc:format>
    <dc:creator>
     <cc:Agent>
      <dc:title>Matplotlib v3.5.1, https://matplotlib.org/</dc:title>
     </cc:Agent>
    </dc:creator>
   </cc:Work>
  </rdf:RDF>
 </metadata>
 <defs>
  <style type="text/css">*{stroke-linejoin: round; stroke-linecap: butt}</style>
 </defs>
 <g id="figure_1">
  <g id="patch_1">
   <path d="M 0 432 
L 864 432 
L 864 0 
L 0 0 
L 0 432 
z
" style="fill: none"/>
  </g>
  <g id="axes_1">
   <g id="patch_2">
    <path d="M 108 378 
L 777.6 378 
L 777.6 51.84 
L 108 51.84 
z
" style="fill: #ffffff"/>
   </g>
   <g id="matplotlib.axis_1">
    <g id="xtick_1">
     <g id="line2d_1">
      <defs>
       <path id="m8b50ddfe91" d="M 0 0 
L 0 3.5 
" style="stroke: #000000; stroke-width: 0.8"/>
      </defs>
      <g>
       <use xlink:href="#m8b50ddfe91" x="137.671991" y="378" style="stroke: #000000; stroke-width: 0.8"/>
      </g>
     </g>
     <g id="text_1">
      <!-- 1.0 -->
      <g transform="translate(123.359178 398.677188)scale(0.18 -0.18)">
       <defs>
        <path id="DejaVuSans-31" d="M 794 531 
L 1825 531 
L 1825 4091 
L 703 3866 
L 703 4441 
L 1819 4666 
L 2450 4666 
L 2450 531 
L 3481 531 
L 3481 0 
L 794 0 
L 794 531 
z
" transform="scale(0.015625)"/>
        <path id="DejaVuSans-2e" d="M 684 794 
L 1344 794 
L 1344 0 
L 684 0 
L 684 794 
z
" transform="scale(0.015625)"/>
        <path id="DejaVuSans-30" d="M 2034 4250 
Q 1547 4250 1301 3770 
Q 1056 3291 1056 2328 
Q 1056 1369 1301 889 
Q 1547 409 2034 409 
Q 2525 409 2770 889 
Q 3016 1369 3016 2328 
Q 3016 3291 2770 3770 
Q 2525 4250 2034 4250 
z
M 2034 4750 
Q 2819 4750 3233 4129 
Q 3647 3509 3647 2328 
Q 3647 1150 3233 529 
Q 2819 -91 2034 -91 
Q 1250 -91 836 529 
Q 422 1150 422 2328 
Q 422 3509 836 4129 
Q 1250 4750 2034 4750 
z
" transform="scale(0.015625)"/>
       </defs>
       <use xlink:href="#DejaVuSans-31"/>
       <use xlink:href="#DejaVuSans-2e" x="63.623047"/>
       <use xlink:href="#DejaVuSans-30" x="95.410156"/>
      </g>
     </g>
    </g>
    <g id="xtick_2">
     <g id="line2d_2">
      <g>
       <use xlink:href="#m8b50ddfe91" x="213.95672" y="378" style="stroke: #000000; stroke-width: 0.8"/>
      </g>
     </g>
     <g id="text_2">
      <!-- 1.5 -->
      <g transform="translate(199.643908 398.677188)scale(0.18 -0.18)">
       <defs>
        <path id="DejaVuSans-35" d="M 691 4666 
L 3169 4666 
L 3169 4134 
L 1269 4134 
L 1269 2991 
Q 1406 3038 1543 3061 
Q 1681 3084 1819 3084 
Q 2600 3084 3056 2656 
Q 3513 2228 3513 1497 
Q 3513 744 3044 326 
Q 2575 -91 1722 -91 
Q 1428 -91 1123 -41 
Q 819 9 494 109 
L 494 744 
Q 775 591 1075 516 
Q 1375 441 1709 441 
Q 2250 441 2565 725 
Q 2881 1009 2881 1497 
Q 2881 1984 2565 2268 
Q 2250 2553 1709 2553 
Q 1456 2553 1204 2497 
Q 953 2441 691 2322 
L 691 4666 
z
" transform="scale(0.015625)"/>
       </defs>
       <use xlink:href="#DejaVuSans-31"/>
       <use xlink:href="#DejaVuSans-2e" x="63.623047"/>
       <use xlink:href="#DejaVuSans-35" x="95.410156"/>
      </g>
     </g>
    </g>
    <g id="xtick_3">
     <g id="line2d_3">
      <g>
       <use xlink:href="#m8b50ddfe91" x="290.24145" y="378" style="stroke: #000000; stroke-width: 0.8"/>
      </g>
     </g>
     <g id="text_3">
      <!-- 2.0 -->
      <g transform="translate(275.928637 398.677188)scale(0.18 -0.18)">
       <defs>
        <path id="DejaVuSans-32" d="M 1228 531 
L 3431 531 
L 3431 0 
L 469 0 
L 469 531 
Q 828 903 1448 1529 
Q 2069 2156 2228 2338 
Q 2531 2678 2651 2914 
Q 2772 3150 2772 3378 
Q 2772 3750 2511 3984 
Q 2250 4219 1831 4219 
Q 1534 4219 1204 4116 
Q 875 4013 500 3803 
L 500 4441 
Q 881 4594 1212 4672 
Q 1544 4750 1819 4750 
Q 2544 4750 2975 4387 
Q 3406 4025 3406 3419 
Q 3406 3131 3298 2873 
Q 3191 2616 2906 2266 
Q 2828 2175 2409 1742 
Q 1991 1309 1228 531 
z
" transform="scale(0.015625)"/>
       </defs>
       <use xlink:href="#DejaVuSans-32"/>
       <use xlink:href="#DejaVuSans-2e" x="63.623047"/>
       <use xlink:href="#DejaVuSans-30" x="95.410156"/>
      </g>
     </g>
    </g>
    <g id="xtick_4">
     <g id="line2d_4">
      <g>
       <use xlink:href="#m8b50ddfe91" x="366.526179" y="378" style="stroke: #000000; stroke-width: 0.8"/>
      </g>
     </g>
     <g id="text_4">
      <!-- 2.5 -->
      <g transform="translate(352.213367 398.677188)scale(0.18 -0.18)">
       <use xlink:href="#DejaVuSans-32"/>
       <use xlink:href="#DejaVuSans-2e" x="63.623047"/>
       <use xlink:href="#DejaVuSans-35" x="95.410156"/>
      </g>
     </g>
    </g>
    <g id="xtick_5">
     <g id="line2d_5">
      <g>
       <use xlink:href="#m8b50ddfe91" x="442.810909" y="378" style="stroke: #000000; stroke-width: 0.8"/>
      </g>
     </g>
     <g id="text_5">
      <!-- 3.0 -->
      <g transform="translate(428.498096 398.677188)scale(0.18 -0.18)">
       <defs>
        <path id="DejaVuSans-33" d="M 2597 2516 
Q 3050 2419 3304 2112 
Q 3559 1806 3559 1356 
Q 3559 666 3084 287 
Q 2609 -91 1734 -91 
Q 1441 -91 1130 -33 
Q 819 25 488 141 
L 488 750 
Q 750 597 1062 519 
Q 1375 441 1716 441 
Q 2309 441 2620 675 
Q 2931 909 2931 1356 
Q 2931 1769 2642 2001 
Q 2353 2234 1838 2234 
L 1294 2234 
L 1294 2753 
L 1863 2753 
Q 2328 2753 2575 2939 
Q 2822 3125 2822 3475 
Q 2822 3834 2567 4026 
Q 2313 4219 1838 4219 
Q 1578 4219 1281 4162 
Q 984 4106 628 3988 
L 628 4550 
Q 988 4650 1302 4700 
Q 1616 4750 1894 4750 
Q 2613 4750 3031 4423 
Q 3450 4097 3450 3541 
Q 3450 3153 3228 2886 
Q 3006 2619 2597 2516 
z
" transform="scale(0.015625)"/>
       </defs>
       <use xlink:href="#DejaVuSans-33"/>
       <use xlink:href="#DejaVuSans-2e" x="63.623047"/>
       <use xlink:href="#DejaVuSans-30" x="95.410156"/>
      </g>
     </g>
    </g>
    <g id="xtick_6">
     <g id="line2d_6">
      <g>
       <use xlink:href="#m8b50ddfe91" x="519.095638" y="378" style="stroke: #000000; stroke-width: 0.8"/>
      </g>
     </g>
     <g id="text_6">
      <!-- 3.5 -->
      <g transform="translate(504.782826 398.677188)scale(0.18 -0.18)">
       <use xlink:href="#DejaVuSans-33"/>
       <use xlink:href="#DejaVuSans-2e" x="63.623047"/>
       <use xlink:href="#DejaVuSans-35" x="95.410156"/>
      </g>
     </g>
    </g>
    <g id="xtick_7">
     <g id="line2d_7">
      <g>
       <use xlink:href="#m8b50ddfe91" x="595.380368" y="378" style="stroke: #000000; stroke-width: 0.8"/>
      </g>
     </g>
     <g id="text_7">
      <!-- 4.0 -->
      <g transform="translate(581.067555 398.677188)scale(0.18 -0.18)">
       <defs>
        <path id="DejaVuSans-34" d="M 2419 4116 
L 825 1625 
L 2419 1625 
L 2419 4116 
z
M 2253 4666 
L 3047 4666 
L 3047 1625 
L 3713 1625 
L 3713 1100 
L 3047 1100 
L 3047 0 
L 2419 0 
L 2419 1100 
L 313 1100 
L 313 1709 
L 2253 4666 
z
" transform="scale(0.015625)"/>
       </defs>
       <use xlink:href="#DejaVuSans-34"/>
       <use xlink:href="#DejaVuSans-2e" x="63.623047"/>
       <use xlink:href="#DejaVuSans-30" x="95.410156"/>
      </g>
     </g>
    </g>
    <g id="xtick_8">
     <g id="line2d_8">
      <g>
       <use xlink:href="#m8b50ddfe91" x="671.665097" y="378" style="stroke: #000000; stroke-width: 0.8"/>
      </g>
     </g>
     <g id="text_8">
      <!-- 4.5 -->
      <g transform="translate(657.352285 398.677188)scale(0.18 -0.18)">
       <use xlink:href="#DejaVuSans-34"/>
       <use xlink:href="#DejaVuSans-2e" x="63.623047"/>
       <use xlink:href="#DejaVuSans-35" x="95.410156"/>
      </g>
     </g>
    </g>
    <g id="xtick_9">
     <g id="line2d_9">
      <g>
       <use xlink:href="#m8b50ddfe91" x="747.949827" y="378" style="stroke: #000000; stroke-width: 0.8"/>
      </g>
     </g>
     <g id="text_9">
      <!-- 5.0 -->
      <g transform="translate(733.637014 398.677188)scale(0.18 -0.18)">
       <use xlink:href="#DejaVuSans-35"/>
       <use xlink:href="#DejaVuSans-2e" x="63.623047"/>
       <use xlink:href="#DejaVuSans-30" x="95.410156"/>
      </g>
     </g>
    </g>
    <g id="text_10">
     <!-- tiempo/s -->
     <g transform="translate(403.52625 420.097812)scale(0.18 -0.18)">
      <defs>
       <path id="DejaVuSans-74" d="M 1172 4494 
L 1172 3500 
L 2356 3500 
L 2356 3053 
L 1172 3053 
L 1172 1153 
Q 1172 725 1289 603 
Q 1406 481 1766 481 
L 2356 481 
L 2356 0 
L 1766 0 
Q 1100 0 847 248 
Q 594 497 594 1153 
L 594 3053 
L 172 3053 
L 172 3500 
L 594 3500 
L 594 4494 
L 1172 4494 
z
" transform="scale(0.015625)"/>
       <path id="DejaVuSans-69" d="M 603 3500 
L 1178 3500 
L 1178 0 
L 603 0 
L 603 3500 
z
M 603 4863 
L 1178 4863 
L 1178 4134 
L 603 4134 
L 603 4863 
z
" transform="scale(0.015625)"/>
       <path id="DejaVuSans-65" d="M 3597 1894 
L 3597 1613 
L 953 1613 
Q 991 1019 1311 708 
Q 1631 397 2203 397 
Q 2534 397 2845 478 
Q 3156 559 3463 722 
L 3463 178 
Q 3153 47 2828 -22 
Q 2503 -91 2169 -91 
Q 1331 -91 842 396 
Q 353 884 353 1716 
Q 353 2575 817 3079 
Q 1281 3584 2069 3584 
Q 2775 3584 3186 3129 
Q 3597 2675 3597 1894 
z
M 3022 2063 
Q 3016 2534 2758 2815 
Q 2500 3097 2075 3097 
Q 1594 3097 1305 2825 
Q 1016 2553 972 2059 
L 3022 2063 
z
" transform="scale(0.015625)"/>
       <path id="DejaVuSans-6d" d="M 3328 2828 
Q 3544 3216 3844 3400 
Q 4144 3584 4550 3584 
Q 5097 3584 5394 3201 
Q 5691 2819 5691 2113 
L 5691 0 
L 5113 0 
L 5113 2094 
Q 5113 2597 4934 2840 
Q 4756 3084 4391 3084 
Q 3944 3084 3684 2787 
Q 3425 2491 3425 1978 
L 3425 0 
L 2847 0 
L 2847 2094 
Q 2847 2600 2669 2842 
Q 2491 3084 2119 3084 
Q 1678 3084 1418 2786 
Q 1159 2488 1159 1978 
L 1159 0 
L 581 0 
L 581 3500 
L 1159 3500 
L 1159 2956 
Q 1356 3278 1631 3431 
Q 1906 3584 2284 3584 
Q 2666 3584 2933 3390 
Q 3200 3197 3328 2828 
z
" transform="scale(0.015625)"/>
       <path id="DejaVuSans-70" d="M 1159 525 
L 1159 -1331 
L 581 -1331 
L 581 3500 
L 1159 3500 
L 1159 2969 
Q 1341 3281 1617 3432 
Q 1894 3584 2278 3584 
Q 2916 3584 3314 3078 
Q 3713 2572 3713 1747 
Q 3713 922 3314 415 
Q 2916 -91 2278 -91 
Q 1894 -91 1617 61 
Q 1341 213 1159 525 
z
M 3116 1747 
Q 3116 2381 2855 2742 
Q 2594 3103 2138 3103 
Q 1681 3103 1420 2742 
Q 1159 2381 1159 1747 
Q 1159 1113 1420 752 
Q 1681 391 2138 391 
Q 2594 391 2855 752 
Q 3116 1113 3116 1747 
z
" transform="scale(0.015625)"/>
       <path id="DejaVuSans-6f" d="M 1959 3097 
Q 1497 3097 1228 2736 
Q 959 2375 959 1747 
Q 959 1119 1226 758 
Q 1494 397 1959 397 
Q 2419 397 2687 759 
Q 2956 1122 2956 1747 
Q 2956 2369 2687 2733 
Q 2419 3097 1959 3097 
z
M 1959 3584 
Q 2709 3584 3137 3096 
Q 3566 2609 3566 1747 
Q 3566 888 3137 398 
Q 2709 -91 1959 -91 
Q 1206 -91 779 398 
Q 353 888 353 1747 
Q 353 2609 779 3096 
Q 1206 3584 1959 3584 
z
" transform="scale(0.015625)"/>
       <path id="DejaVuSans-2f" d="M 1625 4666 
L 2156 4666 
L 531 -594 
L 0 -594 
L 1625 4666 
z
" transform="scale(0.015625)"/>
       <path id="DejaVuSans-73" d="M 2834 3397 
L 2834 2853 
Q 2591 2978 2328 3040 
Q 2066 3103 1784 3103 
Q 1356 3103 1142 2972 
Q 928 2841 928 2578 
Q 928 2378 1081 2264 
Q 1234 2150 1697 2047 
L 1894 2003 
Q 2506 1872 2764 1633 
Q 3022 1394 3022 966 
Q 3022 478 2636 193 
Q 2250 -91 1575 -91 
Q 1294 -91 989 -36 
Q 684 19 347 128 
L 347 722 
Q 666 556 975 473 
Q 1284 391 1588 391 
Q 1994 391 2212 530 
Q 2431 669 2431 922 
Q 2431 1156 2273 1281 
Q 2116 1406 1581 1522 
L 1381 1569 
Q 847 1681 609 1914 
Q 372 2147 372 2553 
Q 372 3047 722 3315 
Q 1072 3584 1716 3584 
Q 2034 3584 2315 3537 
Q 2597 3491 2834 3397 
z
" transform="scale(0.015625)"/>
      </defs>
      <use xlink:href="#DejaVuSans-74"/>
      <use xlink:href="#DejaVuSans-69" x="39.208984"/>
      <use xlink:href="#DejaVuSans-65" x="66.992188"/>
      <use xlink:href="#DejaVuSans-6d" x="128.515625"/>
      <use xlink:href="#DejaVuSans-70" x="225.927734"/>
      <use xlink:href="#DejaVuSans-6f" x="289.404297"/>
      <use xlink:href="#DejaVuSans-2f" x="350.585938"/>
      <use xlink:href="#DejaVuSans-73" x="384.277344"/>
     </g>
    </g>
   </g>
   <g id="matplotlib.axis_2">
    <g id="ytick_1">
     <g id="line2d_10">
      <defs>
       <path id="m5afbd14653" d="M 0 0 
L -3.5 0 
" style="stroke: #000000; stroke-width: 0.8"/>
      </defs>
      <g>
       <use xlink:href="#m5afbd14653" x="108" y="345.917403" style="stroke: #000000; stroke-width: 0.8"/>
      </g>
     </g>
     <g id="text_11">
      <!-- 29.75 -->
      <g transform="translate(49.469375 352.755996)scale(0.18 -0.18)">
       <defs>
        <path id="DejaVuSans-39" d="M 703 97 
L 703 672 
Q 941 559 1184 500 
Q 1428 441 1663 441 
Q 2288 441 2617 861 
Q 2947 1281 2994 2138 
Q 2813 1869 2534 1725 
Q 2256 1581 1919 1581 
Q 1219 1581 811 2004 
Q 403 2428 403 3163 
Q 403 3881 828 4315 
Q 1253 4750 1959 4750 
Q 2769 4750 3195 4129 
Q 3622 3509 3622 2328 
Q 3622 1225 3098 567 
Q 2575 -91 1691 -91 
Q 1453 -91 1209 -44 
Q 966 3 703 97 
z
M 1959 2075 
Q 2384 2075 2632 2365 
Q 2881 2656 2881 3163 
Q 2881 3666 2632 3958 
Q 2384 4250 1959 4250 
Q 1534 4250 1286 3958 
Q 1038 3666 1038 3163 
Q 1038 2656 1286 2365 
Q 1534 2075 1959 2075 
z
" transform="scale(0.015625)"/>
        <path id="DejaVuSans-37" d="M 525 4666 
L 3525 4666 
L 3525 4397 
L 1831 0 
L 1172 0 
L 2766 4134 
L 525 4134 
L 525 4666 
z
" transform="scale(0.015625)"/>
       </defs>
       <use xlink:href="#DejaVuSans-32"/>
       <use xlink:href="#DejaVuSans-39" x="63.623047"/>
       <use xlink:href="#DejaVuSans-2e" x="127.246094"/>
       <use xlink:href="#DejaVuSans-37" x="159.033203"/>
       <use xlink:href="#DejaVuSans-35" x="222.65625"/>
      </g>
     </g>
    </g>
    <g id="ytick_2">
     <g id="line2d_11">
      <g>
       <use xlink:href="#m5afbd14653" x="108" y="306.696623" style="stroke: #000000; stroke-width: 0.8"/>
      </g>
     </g>
     <g id="text_12">
      <!-- 30.00 -->
      <g transform="translate(49.469375 313.535217)scale(0.18 -0.18)">
       <use xlink:href="#DejaVuSans-33"/>
       <use xlink:href="#DejaVuSans-30" x="63.623047"/>
       <use xlink:href="#DejaVuSans-2e" x="127.246094"/>
       <use xlink:href="#DejaVuSans-30" x="159.033203"/>
       <use xlink:href="#DejaVuSans-30" x="222.65625"/>
      </g>
     </g>
    </g>
    <g id="ytick_3">
     <g id="line2d_12">
      <g>
       <use xlink:href="#m5afbd14653" x="108" y="267.475844" style="stroke: #000000; stroke-width: 0.8"/>
      </g>
     </g>
     <g id="text_13">
      <!-- 30.25 -->
      <g transform="translate(49.469375 274.314438)scale(0.18 -0.18)">
       <use xlink:href="#DejaVuSans-33"/>
       <use xlink:href="#DejaVuSans-30" x="63.623047"/>
       <use xlink:href="#DejaVuSans-2e" x="127.246094"/>
       <use xlink:href="#DejaVuSans-32" x="159.033203"/>
       <use xlink:href="#DejaVuSans-35" x="222.65625"/>
      </g>
     </g>
    </g>
    <g id="ytick_4">
     <g id="line2d_13">
      <g>
       <use xlink:href="#m5afbd14653" x="108" y="228.255065" style="stroke: #000000; stroke-width: 0.8"/>
      </g>
     </g>
     <g id="text_14">
      <!-- 30.50 -->
      <g transform="translate(49.469375 235.093659)scale(0.18 -0.18)">
       <use xlink:href="#DejaVuSans-33"/>
       <use xlink:href="#DejaVuSans-30" x="63.623047"/>
       <use xlink:href="#DejaVuSans-2e" x="127.246094"/>
       <use xlink:href="#DejaVuSans-35" x="159.033203"/>
       <use xlink:href="#DejaVuSans-30" x="222.65625"/>
      </g>
     </g>
    </g>
    <g id="ytick_5">
     <g id="line2d_14">
      <g>
       <use xlink:href="#m5afbd14653" x="108" y="189.034286" style="stroke: #000000; stroke-width: 0.8"/>
      </g>
     </g>
     <g id="text_15">
      <!-- 30.75 -->
      <g transform="translate(49.469375 195.872879)scale(0.18 -0.18)">
       <use xlink:href="#DejaVuSans-33"/>
       <use xlink:href="#DejaVuSans-30" x="63.623047"/>
       <use xlink:href="#DejaVuSans-2e" x="127.246094"/>
       <use xlink:href="#DejaVuSans-37" x="159.033203"/>
       <use xlink:href="#DejaVuSans-35" x="222.65625"/>
      </g>
     </g>
    </g>
    <g id="ytick_6">
     <g id="line2d_15">
      <g>
       <use xlink:href="#m5afbd14653" x="108" y="149.813506" style="stroke: #000000; stroke-width: 0.8"/>
      </g>
     </g>
     <g id="text_16">
      <!-- 31.00 -->
      <g transform="translate(49.469375 156.6521)scale(0.18 -0.18)">
       <use xlink:href="#DejaVuSans-33"/>
       <use xlink:href="#DejaVuSans-31" x="63.623047"/>
       <use xlink:href="#DejaVuSans-2e" x="127.246094"/>
       <use xlink:href="#DejaVuSans-30" x="159.033203"/>
       <use xlink:href="#DejaVuSans-30" x="222.65625"/>
      </g>
     </g>
    </g>
    <g id="ytick_7">
     <g id="line2d_16">
      <g>
       <use xlink:href="#m5afbd14653" x="108" y="110.592727" style="stroke: #000000; stroke-width: 0.8"/>
      </g>
     </g>
     <g id="text_17">
      <!-- 31.25 -->
      <g transform="translate(49.469375 117.431321)scale(0.18 -0.18)">
       <use xlink:href="#DejaVuSans-33"/>
       <use xlink:href="#DejaVuSans-31" x="63.623047"/>
       <use xlink:href="#DejaVuSans-2e" x="127.246094"/>
       <use xlink:href="#DejaVuSans-32" x="159.033203"/>
       <use xlink:href="#DejaVuSans-35" x="222.65625"/>
      </g>
     </g>
    </g>
    <g id="ytick_8">
     <g id="line2d_17">
      <g>
       <use xlink:href="#m5afbd14653" x="108" y="71.371948" style="stroke: #000000; stroke-width: 0.8"/>
      </g>
     </g>
     <g id="text_18">
      <!-- 31.50 -->
      <g transform="translate(49.469375 78.210542)scale(0.18 -0.18)">
       <use xlink:href="#DejaVuSans-33"/>
       <use xlink:href="#DejaVuSans-31" x="63.623047"/>
       <use xlink:href="#DejaVuSans-2e" x="127.246094"/>
       <use xlink:href="#DejaVuSans-35" x="159.033203"/>
       <use xlink:href="#DejaVuSans-30" x="222.65625"/>
      </g>
     </g>
    </g>
    <g id="text_19">
     <!-- B/$\mu$T -->
     <g transform="translate(41.689375 235.44)rotate(-90)scale(0.18 -0.18)">
      <defs>
       <path id="DejaVuSans-42" d="M 1259 2228 
L 1259 519 
L 2272 519 
Q 2781 519 3026 730 
Q 3272 941 3272 1375 
Q 3272 1813 3026 2020 
Q 2781 2228 2272 2228 
L 1259 2228 
z
M 1259 4147 
L 1259 2741 
L 2194 2741 
Q 2656 2741 2882 2914 
Q 3109 3088 3109 3444 
Q 3109 3797 2882 3972 
Q 2656 4147 2194 4147 
L 1259 4147 
z
M 628 4666 
L 2241 4666 
Q 2963 4666 3353 4366 
Q 3744 4066 3744 3513 
Q 3744 3084 3544 2831 
Q 3344 2578 2956 2516 
Q 3422 2416 3680 2098 
Q 3938 1781 3938 1306 
Q 3938 681 3513 340 
Q 3088 0 2303 0 
L 628 0 
L 628 4666 
z
" transform="scale(0.015625)"/>
       <path id="DejaVuSans-Oblique-3bc" d="M -84 -1331 
L 856 3500 
L 1434 3500 
L 1009 1322 
Q 997 1256 987 1175 
Q 978 1094 978 1013 
Q 978 722 1161 565 
Q 1344 409 1684 409 
Q 2147 409 2431 671 
Q 2716 934 2816 1459 
L 3213 3500 
L 3788 3500 
L 3266 809 
Q 3253 750 3248 706 
Q 3244 663 3244 628 
Q 3244 531 3283 486 
Q 3322 441 3406 441 
Q 3438 441 3492 456 
Q 3547 472 3647 513 
L 3559 50 
Q 3422 -19 3297 -55 
Q 3172 -91 3053 -91 
Q 2847 -91 2730 40 
Q 2613 172 2613 403 
Q 2438 153 2195 31 
Q 1953 -91 1625 -91 
Q 1334 -91 1117 43 
Q 900 178 831 397 
L 494 -1331 
L -84 -1331 
z
" transform="scale(0.015625)"/>
       <path id="DejaVuSans-54" d="M -19 4666 
L 3928 4666 
L 3928 4134 
L 2272 4134 
L 2272 0 
L 1638 0 
L 1638 4134 
L -19 4134 
L -19 4666 
z
" transform="scale(0.015625)"/>
      </defs>
      <use xlink:href="#DejaVuSans-42" transform="translate(0 0.09375)"/>
      <use xlink:href="#DejaVuSans-2f" transform="translate(68.603516 0.09375)"/>
      <use xlink:href="#DejaVuSans-Oblique-3bc" transform="translate(102.294922 0.09375)"/>
      <use xlink:href="#DejaVuSans-54" transform="translate(165.917969 0.09375)"/>
     </g>
    </g>
   </g>
   <g id="line2d_18">
    <path d="M 138.436364 236.099221 
L 139.880281 234.53039 
L 141.414214 253.356364 
L 144.48086 287.870649 
L 146.003351 317.678442 
L 147.522333 334.935584 
L 149.085254 347.486234 
L 150.533749 347.486234 
L 152.113453 327.091429 
L 153.594597 311.403117 
L 155.150195 287.870649 
L 156.645223 283.164156 
L 158.221419 287.870649 
L 159.734908 253.356364 
L 161.248091 242.374545 
L 162.767836 221.97974 
L 164.353948 247.081039 
L 165.783981 258.062857 
L 167.382299 265.907013 
L 169.068802 237.668052 
L 170.514398 189.034286 
L 172.077624 189.034286 
L 173.631544 193.740779 
L 175.053034 215.704416 
L 176.572473 212.566753 
L 178.057737 190.603117 
L 179.639424 209.429091 
L 181.034825 192.171948 
L 182.655875 236.099221 
L 184.16082 253.356364 
L 185.679039 229.823896 
L 187.154843 248.64987 
L 188.753314 275.32 
L 190.232322 289.439481 
L 191.770222 253.356364 
L 193.261283 297.283636 
L 195.106153 251.787532 
L 196.305349 253.356364 
L 197.893445 281.595325 
L 199.43699 283.164156 
L 200.950631 265.907013 
L 202.4362 229.823896 
L 203.96281 261.200519 
L 205.647787 237.668052 
L 207.147698 270.613506 
L 208.689412 287.870649 
L 210.855593 287.870649 
L 211.653532 259.631688 
L 213.149475 269.044675 
L 214.650911 300.421299 
L 216.195219 291.008312 
L 217.693909 325.522597 
L 219.280174 330.229091 
L 222.342395 283.164156 
L 223.792415 291.008312 
L 225.344047 297.283636 
L 226.84411 283.164156 
L 228.427781 292.577143 
L 229.925097 248.64987 
L 231.451402 248.64987 
L 232.976792 256.494026 
L 234.49318 267.475844 
L 236.033673 284.732987 
L 237.561657 232.961558 
L 239.207881 269.044675 
L 240.642797 258.062857 
L 242.264 259.631688 
L 243.805257 243.943377 
L 245.338885 231.392727 
L 246.812401 243.943377 
L 248.303462 228.255065 
L 249.760348 270.613506 
L 251.257664 251.787532 
L 252.80243 243.943377 
L 254.300662 231.392727 
L 256.205187 228.255065 
L 257.369597 237.668052 
L 258.925195 198.447273 
L 260.411679 206.291429 
L 262.000995 160.795325 
L 263.469324 157.657662 
L 265.020345 141.969351 
L 266.555346 168.639481 
L 268.059376 184.327792 
L 269.578052 203.153766 
L 271.693886 215.704416 
L 272.66911 190.603117 
L 274.238134 228.255065 
L 275.677779 232.961558 
L 277.208204 267.475844 
L 278.925525 240.805714 
L 281.941366 182.758961 
L 283.478198 160.795325 
L 284.857273 167.070649 
L 287.480095 154.52 
L 287.893101 143.538182 
L 289.407658 138.831688 
L 290.9184 163.932987 
L 292.466065 148.244675 
L 293.956516 160.795325 
L 295.531491 170.208312 
L 297.027587 204.722597 
L 298.579981 204.722597 
L 300.090571 212.566753 
L 301.82315 184.327792 
L 303.13128 207.86026 
L 304.721207 262.769351 
L 306.232407 259.631688 
L 307.746964 297.283636 
L 309.250841 287.870649 
L 312.331219 297.283636 
L 313.844708 298.852468 
L 315.487423 291.008312 
L 317.022425 264.338182 
L 318.546746 229.823896 
L 320.079611 215.704416 
L 321.494235 207.86026 
L 322.979957 204.722597 
L 324.498633 174.914805 
L 326.044162 226.686234 
L 327.545293 200.016104 
L 329.139949 200.016104 
L 330.717364 251.787532 
L 332.466573 287.870649 
L 333.648834 281.595325 
L 335.22091 270.613506 
L 336.699155 301.99013 
L 338.255669 232.961558 
L 339.744441 256.494026 
L 341.276391 311.403117 
L 342.838092 283.164156 
L 344.352649 251.787532 
L 345.847678 273.751169 
L 347.830318 311.403117 
L 349.006323 301.99013 
L 350.429186 316.10961 
L 352.07419 317.678442 
L 353.672813 265.907013 
L 355.151668 273.751169 
L 356.67004 259.631688 
L 358.133181 258.062857 
L 359.610663 242.374545 
L 361.098978 251.787532 
L 363.500269 259.631688 
L 364.163946 264.338182 
L 365.729004 308.265455 
L 367.247985 334.935584 
L 368.761474 323.953766 
L 370.267335 338.073247 
L 371.841852 323.953766 
L 373.31552 308.265455 
L 374.861506 341.210909 
L 376.379878 336.504416 
L 378.008862 323.953766 
L 379.436912 325.522597 
L 381.014633 328.66026 
L 382.472129 292.577143 
L 384.025896 298.852468 
L 385.51177 278.457662 
L 387.09361 248.64987 
L 388.747616 276.888831 
L 390.235931 284.732987 
L 391.766813 254.925195 
L 393.344228 256.494026 
L 394.695994 276.888831 
L 396.250982 281.595325 
L 397.746162 328.66026 
L 399.262398 323.953766 
L 400.775429 264.338182 
L 402.313634 212.566753 
L 403.850467 237.668052 
L 405.384858 247.081039 
L 406.861425 232.961558 
L 408.610176 190.603117 
L 409.938446 154.52 
L 411.47955 185.896623 
L 412.991666 192.171948 
L 414.543602 214.135584 
L 416.061821 189.034286 
L 417.622301 201.584935 
L 419.078729 217.273247 
L 420.728005 270.613506 
L 422.2151 272.182338 
L 423.891228 267.475844 
L 425.331789 272.182338 
L 426.866027 292.577143 
L 428.400266 298.852468 
L 429.904753 289.439481 
L 431.315105 272.182338 
L 432.821271 247.081039 
L 434.344067 287.870649 
L 435.889443 256.494026 
L 437.380351 253.356364 
L 439.580403 226.686234 
L 440.415721 243.943377 
L 441.970251 226.686234 
L 443.480384 237.668052 
L 445.048798 240.805714 
L 446.558472 225.117403 
L 448.110256 265.907013 
L 449.647851 272.182338 
L 451.130216 270.613506 
L 453.649596 278.457662 
L 454.460045 258.062857 
L 455.673887 265.907013 
L 457.274951 245.512208 
L 458.753349 259.631688 
L 460.322374 243.943377 
L 461.926947 273.751169 
L 463.475221 265.907013 
L 465.022428 210.997922 
L 466.646225 220.410909 
L 468.015078 204.722597 
L 469.66176 176.483636 
L 470.940598 149.813506 
L 472.512063 120.005714 
L 474.013957 77.647273 
L 475.551399 90.197922 
L 477.06382 112.161558 
L 478.624453 138.831688 
L 480.105292 146.675844 
L 481.650211 178.052468 
L 483.163547 154.52 
L 484.706787 160.795325 
L 486.351334 149.813506 
L 487.758176 118.436883 
L 489.25946 112.161558 
L 492.315884 66.665455 
L 493.858819 80.784935 
L 495.374749 96.473247 
L 496.917531 124.712208 
L 498.571384 145.107013 
L 500.282909 168.639481 
L 501.589513 152.951169 
L 503.123142 129.418701 
L 504.536392 140.400519 
L 506.045762 138.831688 
L 507.553454 146.675844 
L 509.114849 143.538182 
L 510.645426 160.795325 
L 512.343067 170.208312 
L 513.781491 215.704416 
L 515.225866 243.943377 
L 517.035188 214.135584 
L 518.300904 231.392727 
L 519.775335 256.494026 
L 521.332612 258.062857 
L 522.812383 248.64987 
L 524.36554 273.751169 
L 525.869875 280.026494 
L 527.414488 297.283636 
L 528.90616 339.642078 
L 530.653538 316.10961 
L 531.978451 309.834286 
L 533.875042 278.457662 
L 535.176307 294.145974 
L 536.68293 278.457662 
L 538.229374 270.613506 
L 539.707925 256.494026 
L 541.168777 259.631688 
L 544.185838 259.631688 
L 546.656701 262.769351 
L 547.870086 261.200519 
L 548.786876 232.961558 
L 551.850928 220.410909 
L 553.346872 201.584935 
L 554.90308 195.30961 
L 556.407262 163.932987 
L 557.938297 214.135584 
L 559.440953 206.291429 
L 561.002197 225.117403 
L 562.523619 220.410909 
L 564.054806 221.97974 
L 565.546325 226.686234 
L 567.116265 264.338182 
L 568.608089 303.558961 
L 570.156822 275.32 
L 571.809912 264.338182 
L 573.332555 270.613506 
L 574.838111 281.595325 
L 576.356024 317.678442 
L 577.837169 322.384935 
L 579.280781 300.421299 
L 580.804644 292.577143 
L 582.331865 258.062857 
L 583.853898 300.421299 
L 585.392408 297.283636 
L 586.928172 308.265455 
L 588.461648 300.421299 
L 589.97178 306.696623 
L 591.497017 317.678442 
L 593.76008 312.971948 
L 594.550848 336.504416 
L 596.02833 327.091429 
L 597.619477 333.366753 
L 599.10291 301.99013 
L 600.649049 308.265455 
L 602.172302 305.127792 
L 603.710813 280.026494 
L 605.209503 264.338182 
L 606.908821 284.732987 
L 609.922678 234.53039 
L 611.486363 253.356364 
L 612.960031 236.099221 
L 614.455975 231.392727 
L 615.875023 243.943377 
L 617.425892 248.64987 
L 618.96608 215.704416 
L 620.467364 214.135584 
L 622.055612 218.842078 
L 624.288619 236.099221 
L 625.082437 221.97974 
L 626.554428 262.769351 
L 628.142065 264.338182 
L 629.624888 228.255065 
L 631.199405 253.356364 
L 632.691687 258.062857 
L 634.208532 223.548571 
L 635.821191 178.052468 
L 637.288147 209.429091 
L 639.143086 170.208312 
L 640.353115 170.208312 
L 641.8248 218.842078 
L 643.400537 193.740779 
L 645.018841 196.878442 
L 646.518904 236.099221 
L 648.120426 265.907013 
L 649.556867 261.200519 
L 651.00643 267.475844 
L 652.544177 258.062857 
L 654.041952 281.595325 
L 655.569019 316.10961 
L 657.068625 319.247273 
L 658.631546 344.348571 
L 660.158309 363.174545 
L 661.691174 341.210909 
L 663.181625 327.091429 
L 664.739817 323.953766 
L 666.232404 298.852468 
L 667.884274 281.595325 
L 669.466724 253.356364 
L 670.826576 223.548571 
L 672.369205 176.483636 
L 673.903291 181.19013 
L 675.386114 214.135584 
L 676.921268 209.429091 
L 678.464355 201.584935 
L 680.166878 215.704416 
L 681.703252 236.099221 
L 683.171886 231.392727 
L 685.222572 218.842078 
L 686.185896 223.548571 
L 687.620964 195.30961 
L 689.117975 210.997922 
L 690.632838 210.997922 
L 692.194844 237.668052 
L 693.702688 234.53039 
L 695.254929 223.548571 
L 696.748279 262.769351 
L 698.318066 272.182338 
L 700.426881 292.577143 
L 701.661473 284.732987 
L 702.835495 301.99013 
L 704.412453 245.512208 
L 705.912364 254.925195 
L 707.438669 286.301818 
L 710.508214 298.852468 
L 712.004462 267.475844 
L 714.637811 251.787532 
L 715.488233 236.099221 
L 716.745558 276.888831 
L 718.271405 251.787532 
L 719.776503 242.374545 
L 721.314708 214.135584 
L 722.82301 178.052468 
L 724.252281 200.016104 
L 725.744257 214.135584 
L 727.285972 234.53039 
L 728.83501 250.218701 
L 730.498779 283.164156 
L 731.85146 254.925195 
L 733.381885 245.512208 
L 734.938246 275.32 
L 736.418169 254.925195 
L 737.976972 284.732987 
L 739.496411 232.961558 
L 741.066198 206.291429 
L 742.523084 184.327792 
L 744.067849 229.823896 
L 745.655945 242.374545 
L 747.163636 223.548571 
L 747.163636 223.548571 
" clip-path="url(#pe38b6e41a8)" style="fill: none; stroke: #808080; stroke-width: 1.5; stroke-linecap: square"/>
    <defs>
     <path id="me9b4d08a7a" d="M 0 2.5 
C 0.663008 2.5 1.29895 2.236584 1.767767 1.767767 
C 2.236584 1.29895 2.5 0.663008 2.5 0 
C 2.5 -0.663008 2.236584 -1.29895 1.767767 -1.767767 
C 1.29895 -2.236584 0.663008 -2.5 0 -2.5 
C -0.663008 -2.5 -1.29895 -2.236584 -1.767767 -1.767767 
C -2.236584 -1.29895 -2.5 -0.663008 -2.5 0 
C -2.5 0.663008 -2.236584 1.29895 -1.767767 1.767767 
C -1.29895 2.236584 -0.663008 2.5 0 2.5 
z
" style="stroke: #808080"/>
    </defs>
    <g clip-path="url(#pe38b6e41a8)">
     <use xlink:href="#me9b4d08a7a" x="138.436364" y="236.099221" style="stroke: #808080"/>
     <use xlink:href="#me9b4d08a7a" x="139.880281" y="234.53039" style="stroke: #808080"/>
     <use xlink:href="#me9b4d08a7a" x="141.414214" y="253.356364" style="stroke: #808080"/>
     <use xlink:href="#me9b4d08a7a" x="142.968745" y="270.613506" style="stroke: #808080"/>
     <use xlink:href="#me9b4d08a7a" x="144.48086" y="287.870649" style="stroke: #808080"/>
     <use xlink:href="#me9b4d08a7a" x="146.003351" y="317.678442" style="stroke: #808080"/>
     <use xlink:href="#me9b4d08a7a" x="147.522333" y="334.935584" style="stroke: #808080"/>
     <use xlink:href="#me9b4d08a7a" x="149.085254" y="347.486234" style="stroke: #808080"/>
     <use xlink:href="#me9b4d08a7a" x="150.533749" y="347.486234" style="stroke: #808080"/>
     <use xlink:href="#me9b4d08a7a" x="152.113453" y="327.091429" style="stroke: #808080"/>
     <use xlink:href="#me9b4d08a7a" x="153.594597" y="311.403117" style="stroke: #808080"/>
     <use xlink:href="#me9b4d08a7a" x="155.150195" y="287.870649" style="stroke: #808080"/>
     <use xlink:href="#me9b4d08a7a" x="156.645223" y="283.164156" style="stroke: #808080"/>
     <use xlink:href="#me9b4d08a7a" x="158.221419" y="287.870649" style="stroke: #808080"/>
     <use xlink:href="#me9b4d08a7a" x="159.734908" y="253.356364" style="stroke: #808080"/>
     <use xlink:href="#me9b4d08a7a" x="161.248091" y="242.374545" style="stroke: #808080"/>
     <use xlink:href="#me9b4d08a7a" x="162.767836" y="221.97974" style="stroke: #808080"/>
     <use xlink:href="#me9b4d08a7a" x="164.353948" y="247.081039" style="stroke: #808080"/>
     <use xlink:href="#me9b4d08a7a" x="165.783981" y="258.062857" style="stroke: #808080"/>
     <use xlink:href="#me9b4d08a7a" x="167.382299" y="265.907013" style="stroke: #808080"/>
     <use xlink:href="#me9b4d08a7a" x="169.068802" y="237.668052" style="stroke: #808080"/>
     <use xlink:href="#me9b4d08a7a" x="170.514398" y="189.034286" style="stroke: #808080"/>
     <use xlink:href="#me9b4d08a7a" x="172.077624" y="189.034286" style="stroke: #808080"/>
     <use xlink:href="#me9b4d08a7a" x="173.631544" y="193.740779" style="stroke: #808080"/>
     <use xlink:href="#me9b4d08a7a" x="175.053034" y="215.704416" style="stroke: #808080"/>
     <use xlink:href="#me9b4d08a7a" x="176.572473" y="212.566753" style="stroke: #808080"/>
     <use xlink:href="#me9b4d08a7a" x="178.057737" y="190.603117" style="stroke: #808080"/>
     <use xlink:href="#me9b4d08a7a" x="179.639424" y="209.429091" style="stroke: #808080"/>
     <use xlink:href="#me9b4d08a7a" x="181.034825" y="192.171948" style="stroke: #808080"/>
     <use xlink:href="#me9b4d08a7a" x="182.655875" y="236.099221" style="stroke: #808080"/>
     <use xlink:href="#me9b4d08a7a" x="184.16082" y="253.356364" style="stroke: #808080"/>
     <use xlink:href="#me9b4d08a7a" x="185.679039" y="229.823896" style="stroke: #808080"/>
     <use xlink:href="#me9b4d08a7a" x="187.154843" y="248.64987" style="stroke: #808080"/>
     <use xlink:href="#me9b4d08a7a" x="188.753314" y="275.32" style="stroke: #808080"/>
     <use xlink:href="#me9b4d08a7a" x="190.232322" y="289.439481" style="stroke: #808080"/>
     <use xlink:href="#me9b4d08a7a" x="191.770222" y="253.356364" style="stroke: #808080"/>
     <use xlink:href="#me9b4d08a7a" x="193.261283" y="297.283636" style="stroke: #808080"/>
     <use xlink:href="#me9b4d08a7a" x="195.106153" y="251.787532" style="stroke: #808080"/>
     <use xlink:href="#me9b4d08a7a" x="196.305349" y="253.356364" style="stroke: #808080"/>
     <use xlink:href="#me9b4d08a7a" x="197.893445" y="281.595325" style="stroke: #808080"/>
     <use xlink:href="#me9b4d08a7a" x="199.43699" y="283.164156" style="stroke: #808080"/>
     <use xlink:href="#me9b4d08a7a" x="200.950631" y="265.907013" style="stroke: #808080"/>
     <use xlink:href="#me9b4d08a7a" x="202.4362" y="229.823896" style="stroke: #808080"/>
     <use xlink:href="#me9b4d08a7a" x="203.96281" y="261.200519" style="stroke: #808080"/>
     <use xlink:href="#me9b4d08a7a" x="205.647787" y="237.668052" style="stroke: #808080"/>
     <use xlink:href="#me9b4d08a7a" x="207.147698" y="270.613506" style="stroke: #808080"/>
     <use xlink:href="#me9b4d08a7a" x="208.689412" y="287.870649" style="stroke: #808080"/>
     <use xlink:href="#me9b4d08a7a" x="210.855593" y="287.870649" style="stroke: #808080"/>
     <use xlink:href="#me9b4d08a7a" x="211.653532" y="259.631688" style="stroke: #808080"/>
     <use xlink:href="#me9b4d08a7a" x="213.149475" y="269.044675" style="stroke: #808080"/>
     <use xlink:href="#me9b4d08a7a" x="214.650911" y="300.421299" style="stroke: #808080"/>
     <use xlink:href="#me9b4d08a7a" x="216.195219" y="291.008312" style="stroke: #808080"/>
     <use xlink:href="#me9b4d08a7a" x="217.693909" y="325.522597" style="stroke: #808080"/>
     <use xlink:href="#me9b4d08a7a" x="219.280174" y="330.229091" style="stroke: #808080"/>
     <use xlink:href="#me9b4d08a7a" x="220.772608" y="306.696623" style="stroke: #808080"/>
     <use xlink:href="#me9b4d08a7a" x="222.342395" y="283.164156" style="stroke: #808080"/>
     <use xlink:href="#me9b4d08a7a" x="223.792415" y="291.008312" style="stroke: #808080"/>
     <use xlink:href="#me9b4d08a7a" x="225.344047" y="297.283636" style="stroke: #808080"/>
     <use xlink:href="#me9b4d08a7a" x="226.84411" y="283.164156" style="stroke: #808080"/>
     <use xlink:href="#me9b4d08a7a" x="228.427781" y="292.577143" style="stroke: #808080"/>
     <use xlink:href="#me9b4d08a7a" x="229.925097" y="248.64987" style="stroke: #808080"/>
     <use xlink:href="#me9b4d08a7a" x="231.451402" y="248.64987" style="stroke: #808080"/>
     <use xlink:href="#me9b4d08a7a" x="232.976792" y="256.494026" style="stroke: #808080"/>
     <use xlink:href="#me9b4d08a7a" x="234.49318" y="267.475844" style="stroke: #808080"/>
     <use xlink:href="#me9b4d08a7a" x="236.033673" y="284.732987" style="stroke: #808080"/>
     <use xlink:href="#me9b4d08a7a" x="237.561657" y="232.961558" style="stroke: #808080"/>
     <use xlink:href="#me9b4d08a7a" x="239.207881" y="269.044675" style="stroke: #808080"/>
     <use xlink:href="#me9b4d08a7a" x="240.642797" y="258.062857" style="stroke: #808080"/>
     <use xlink:href="#me9b4d08a7a" x="242.264" y="259.631688" style="stroke: #808080"/>
     <use xlink:href="#me9b4d08a7a" x="243.805257" y="243.943377" style="stroke: #808080"/>
     <use xlink:href="#me9b4d08a7a" x="245.338885" y="231.392727" style="stroke: #808080"/>
     <use xlink:href="#me9b4d08a7a" x="246.812401" y="243.943377" style="stroke: #808080"/>
     <use xlink:href="#me9b4d08a7a" x="248.303462" y="228.255065" style="stroke: #808080"/>
     <use xlink:href="#me9b4d08a7a" x="249.760348" y="270.613506" style="stroke: #808080"/>
     <use xlink:href="#me9b4d08a7a" x="251.257664" y="251.787532" style="stroke: #808080"/>
     <use xlink:href="#me9b4d08a7a" x="252.80243" y="243.943377" style="stroke: #808080"/>
     <use xlink:href="#me9b4d08a7a" x="254.300662" y="231.392727" style="stroke: #808080"/>
     <use xlink:href="#me9b4d08a7a" x="256.205187" y="228.255065" style="stroke: #808080"/>
     <use xlink:href="#me9b4d08a7a" x="257.369597" y="237.668052" style="stroke: #808080"/>
     <use xlink:href="#me9b4d08a7a" x="258.925195" y="198.447273" style="stroke: #808080"/>
     <use xlink:href="#me9b4d08a7a" x="260.411679" y="206.291429" style="stroke: #808080"/>
     <use xlink:href="#me9b4d08a7a" x="262.000995" y="160.795325" style="stroke: #808080"/>
     <use xlink:href="#me9b4d08a7a" x="263.469324" y="157.657662" style="stroke: #808080"/>
     <use xlink:href="#me9b4d08a7a" x="265.020345" y="141.969351" style="stroke: #808080"/>
     <use xlink:href="#me9b4d08a7a" x="266.555346" y="168.639481" style="stroke: #808080"/>
     <use xlink:href="#me9b4d08a7a" x="268.059376" y="184.327792" style="stroke: #808080"/>
     <use xlink:href="#me9b4d08a7a" x="269.578052" y="203.153766" style="stroke: #808080"/>
     <use xlink:href="#me9b4d08a7a" x="271.693886" y="215.704416" style="stroke: #808080"/>
     <use xlink:href="#me9b4d08a7a" x="272.66911" y="190.603117" style="stroke: #808080"/>
     <use xlink:href="#me9b4d08a7a" x="274.238134" y="228.255065" style="stroke: #808080"/>
     <use xlink:href="#me9b4d08a7a" x="275.677779" y="232.961558" style="stroke: #808080"/>
     <use xlink:href="#me9b4d08a7a" x="277.208204" y="267.475844" style="stroke: #808080"/>
     <use xlink:href="#me9b4d08a7a" x="278.925525" y="240.805714" style="stroke: #808080"/>
     <use xlink:href="#me9b4d08a7a" x="280.398736" y="212.566753" style="stroke: #808080"/>
     <use xlink:href="#me9b4d08a7a" x="281.941366" y="182.758961" style="stroke: #808080"/>
     <use xlink:href="#me9b4d08a7a" x="283.478198" y="160.795325" style="stroke: #808080"/>
     <use xlink:href="#me9b4d08a7a" x="284.857273" y="167.070649" style="stroke: #808080"/>
     <use xlink:href="#me9b4d08a7a" x="287.480095" y="154.52" style="stroke: #808080"/>
     <use xlink:href="#me9b4d08a7a" x="287.893101" y="143.538182" style="stroke: #808080"/>
     <use xlink:href="#me9b4d08a7a" x="289.407658" y="138.831688" style="stroke: #808080"/>
     <use xlink:href="#me9b4d08a7a" x="290.9184" y="163.932987" style="stroke: #808080"/>
     <use xlink:href="#me9b4d08a7a" x="292.466065" y="148.244675" style="stroke: #808080"/>
     <use xlink:href="#me9b4d08a7a" x="293.956516" y="160.795325" style="stroke: #808080"/>
     <use xlink:href="#me9b4d08a7a" x="295.531491" y="170.208312" style="stroke: #808080"/>
     <use xlink:href="#me9b4d08a7a" x="297.027587" y="204.722597" style="stroke: #808080"/>
     <use xlink:href="#me9b4d08a7a" x="298.579981" y="204.722597" style="stroke: #808080"/>
     <use xlink:href="#me9b4d08a7a" x="300.090571" y="212.566753" style="stroke: #808080"/>
     <use xlink:href="#me9b4d08a7a" x="301.82315" y="184.327792" style="stroke: #808080"/>
     <use xlink:href="#me9b4d08a7a" x="303.13128" y="207.86026" style="stroke: #808080"/>
     <use xlink:href="#me9b4d08a7a" x="304.721207" y="262.769351" style="stroke: #808080"/>
     <use xlink:href="#me9b4d08a7a" x="306.232407" y="259.631688" style="stroke: #808080"/>
     <use xlink:href="#me9b4d08a7a" x="307.746964" y="297.283636" style="stroke: #808080"/>
     <use xlink:href="#me9b4d08a7a" x="309.250841" y="287.870649" style="stroke: #808080"/>
     <use xlink:href="#me9b4d08a7a" x="310.791946" y="292.577143" style="stroke: #808080"/>
     <use xlink:href="#me9b4d08a7a" x="312.331219" y="297.283636" style="stroke: #808080"/>
     <use xlink:href="#me9b4d08a7a" x="313.844708" y="298.852468" style="stroke: #808080"/>
     <use xlink:href="#me9b4d08a7a" x="315.487423" y="291.008312" style="stroke: #808080"/>
     <use xlink:href="#me9b4d08a7a" x="317.022425" y="264.338182" style="stroke: #808080"/>
     <use xlink:href="#me9b4d08a7a" x="318.546746" y="229.823896" style="stroke: #808080"/>
     <use xlink:href="#me9b4d08a7a" x="320.079611" y="215.704416" style="stroke: #808080"/>
     <use xlink:href="#me9b4d08a7a" x="321.494235" y="207.86026" style="stroke: #808080"/>
     <use xlink:href="#me9b4d08a7a" x="322.979957" y="204.722597" style="stroke: #808080"/>
     <use xlink:href="#me9b4d08a7a" x="324.498633" y="174.914805" style="stroke: #808080"/>
     <use xlink:href="#me9b4d08a7a" x="326.044162" y="226.686234" style="stroke: #808080"/>
     <use xlink:href="#me9b4d08a7a" x="327.545293" y="200.016104" style="stroke: #808080"/>
     <use xlink:href="#me9b4d08a7a" x="329.139949" y="200.016104" style="stroke: #808080"/>
     <use xlink:href="#me9b4d08a7a" x="330.717364" y="251.787532" style="stroke: #808080"/>
     <use xlink:href="#me9b4d08a7a" x="332.466573" y="287.870649" style="stroke: #808080"/>
     <use xlink:href="#me9b4d08a7a" x="333.648834" y="281.595325" style="stroke: #808080"/>
     <use xlink:href="#me9b4d08a7a" x="335.22091" y="270.613506" style="stroke: #808080"/>
     <use xlink:href="#me9b4d08a7a" x="336.699155" y="301.99013" style="stroke: #808080"/>
     <use xlink:href="#me9b4d08a7a" x="338.255669" y="232.961558" style="stroke: #808080"/>
     <use xlink:href="#me9b4d08a7a" x="339.744441" y="256.494026" style="stroke: #808080"/>
     <use xlink:href="#me9b4d08a7a" x="341.276391" y="311.403117" style="stroke: #808080"/>
     <use xlink:href="#me9b4d08a7a" x="342.838092" y="283.164156" style="stroke: #808080"/>
     <use xlink:href="#me9b4d08a7a" x="344.352649" y="251.787532" style="stroke: #808080"/>
     <use xlink:href="#me9b4d08a7a" x="345.847678" y="273.751169" style="stroke: #808080"/>
     <use xlink:href="#me9b4d08a7a" x="347.830318" y="311.403117" style="stroke: #808080"/>
     <use xlink:href="#me9b4d08a7a" x="349.006323" y="301.99013" style="stroke: #808080"/>
     <use xlink:href="#me9b4d08a7a" x="350.429186" y="316.10961" style="stroke: #808080"/>
     <use xlink:href="#me9b4d08a7a" x="352.07419" y="317.678442" style="stroke: #808080"/>
     <use xlink:href="#me9b4d08a7a" x="353.672813" y="265.907013" style="stroke: #808080"/>
     <use xlink:href="#me9b4d08a7a" x="355.151668" y="273.751169" style="stroke: #808080"/>
     <use xlink:href="#me9b4d08a7a" x="356.67004" y="259.631688" style="stroke: #808080"/>
     <use xlink:href="#me9b4d08a7a" x="358.133181" y="258.062857" style="stroke: #808080"/>
     <use xlink:href="#me9b4d08a7a" x="359.610663" y="242.374545" style="stroke: #808080"/>
     <use xlink:href="#me9b4d08a7a" x="361.098978" y="251.787532" style="stroke: #808080"/>
     <use xlink:href="#me9b4d08a7a" x="363.500269" y="259.631688" style="stroke: #808080"/>
     <use xlink:href="#me9b4d08a7a" x="364.163946" y="264.338182" style="stroke: #808080"/>
     <use xlink:href="#me9b4d08a7a" x="365.729004" y="308.265455" style="stroke: #808080"/>
     <use xlink:href="#me9b4d08a7a" x="367.247985" y="334.935584" style="stroke: #808080"/>
     <use xlink:href="#me9b4d08a7a" x="368.761474" y="323.953766" style="stroke: #808080"/>
     <use xlink:href="#me9b4d08a7a" x="370.267335" y="338.073247" style="stroke: #808080"/>
     <use xlink:href="#me9b4d08a7a" x="371.841852" y="323.953766" style="stroke: #808080"/>
     <use xlink:href="#me9b4d08a7a" x="373.31552" y="308.265455" style="stroke: #808080"/>
     <use xlink:href="#me9b4d08a7a" x="374.861506" y="341.210909" style="stroke: #808080"/>
     <use xlink:href="#me9b4d08a7a" x="376.379878" y="336.504416" style="stroke: #808080"/>
     <use xlink:href="#me9b4d08a7a" x="378.008862" y="323.953766" style="stroke: #808080"/>
     <use xlink:href="#me9b4d08a7a" x="379.436912" y="325.522597" style="stroke: #808080"/>
     <use xlink:href="#me9b4d08a7a" x="381.014633" y="328.66026" style="stroke: #808080"/>
     <use xlink:href="#me9b4d08a7a" x="382.472129" y="292.577143" style="stroke: #808080"/>
     <use xlink:href="#me9b4d08a7a" x="384.025896" y="298.852468" style="stroke: #808080"/>
     <use xlink:href="#me9b4d08a7a" x="385.51177" y="278.457662" style="stroke: #808080"/>
     <use xlink:href="#me9b4d08a7a" x="387.09361" y="248.64987" style="stroke: #808080"/>
     <use xlink:href="#me9b4d08a7a" x="388.747616" y="276.888831" style="stroke: #808080"/>
     <use xlink:href="#me9b4d08a7a" x="390.235931" y="284.732987" style="stroke: #808080"/>
     <use xlink:href="#me9b4d08a7a" x="391.766813" y="254.925195" style="stroke: #808080"/>
     <use xlink:href="#me9b4d08a7a" x="393.344228" y="256.494026" style="stroke: #808080"/>
     <use xlink:href="#me9b4d08a7a" x="394.695994" y="276.888831" style="stroke: #808080"/>
     <use xlink:href="#me9b4d08a7a" x="396.250982" y="281.595325" style="stroke: #808080"/>
     <use xlink:href="#me9b4d08a7a" x="397.746162" y="328.66026" style="stroke: #808080"/>
     <use xlink:href="#me9b4d08a7a" x="399.262398" y="323.953766" style="stroke: #808080"/>
     <use xlink:href="#me9b4d08a7a" x="400.775429" y="264.338182" style="stroke: #808080"/>
     <use xlink:href="#me9b4d08a7a" x="402.313634" y="212.566753" style="stroke: #808080"/>
     <use xlink:href="#me9b4d08a7a" x="403.850467" y="237.668052" style="stroke: #808080"/>
     <use xlink:href="#me9b4d08a7a" x="405.384858" y="247.081039" style="stroke: #808080"/>
     <use xlink:href="#me9b4d08a7a" x="406.861425" y="232.961558" style="stroke: #808080"/>
     <use xlink:href="#me9b4d08a7a" x="408.610176" y="190.603117" style="stroke: #808080"/>
     <use xlink:href="#me9b4d08a7a" x="409.938446" y="154.52" style="stroke: #808080"/>
     <use xlink:href="#me9b4d08a7a" x="411.47955" y="185.896623" style="stroke: #808080"/>
     <use xlink:href="#me9b4d08a7a" x="412.991666" y="192.171948" style="stroke: #808080"/>
     <use xlink:href="#me9b4d08a7a" x="414.543602" y="214.135584" style="stroke: #808080"/>
     <use xlink:href="#me9b4d08a7a" x="416.061821" y="189.034286" style="stroke: #808080"/>
     <use xlink:href="#me9b4d08a7a" x="417.622301" y="201.584935" style="stroke: #808080"/>
     <use xlink:href="#me9b4d08a7a" x="419.078729" y="217.273247" style="stroke: #808080"/>
     <use xlink:href="#me9b4d08a7a" x="420.728005" y="270.613506" style="stroke: #808080"/>
     <use xlink:href="#me9b4d08a7a" x="422.2151" y="272.182338" style="stroke: #808080"/>
     <use xlink:href="#me9b4d08a7a" x="423.891228" y="267.475844" style="stroke: #808080"/>
     <use xlink:href="#me9b4d08a7a" x="425.331789" y="272.182338" style="stroke: #808080"/>
     <use xlink:href="#me9b4d08a7a" x="426.866027" y="292.577143" style="stroke: #808080"/>
     <use xlink:href="#me9b4d08a7a" x="428.400266" y="298.852468" style="stroke: #808080"/>
     <use xlink:href="#me9b4d08a7a" x="429.904753" y="289.439481" style="stroke: #808080"/>
     <use xlink:href="#me9b4d08a7a" x="431.315105" y="272.182338" style="stroke: #808080"/>
     <use xlink:href="#me9b4d08a7a" x="432.821271" y="247.081039" style="stroke: #808080"/>
     <use xlink:href="#me9b4d08a7a" x="434.344067" y="287.870649" style="stroke: #808080"/>
     <use xlink:href="#me9b4d08a7a" x="435.889443" y="256.494026" style="stroke: #808080"/>
     <use xlink:href="#me9b4d08a7a" x="437.380351" y="253.356364" style="stroke: #808080"/>
     <use xlink:href="#me9b4d08a7a" x="439.580403" y="226.686234" style="stroke: #808080"/>
     <use xlink:href="#me9b4d08a7a" x="440.415721" y="243.943377" style="stroke: #808080"/>
     <use xlink:href="#me9b4d08a7a" x="441.970251" y="226.686234" style="stroke: #808080"/>
     <use xlink:href="#me9b4d08a7a" x="443.480384" y="237.668052" style="stroke: #808080"/>
     <use xlink:href="#me9b4d08a7a" x="445.048798" y="240.805714" style="stroke: #808080"/>
     <use xlink:href="#me9b4d08a7a" x="446.558472" y="225.117403" style="stroke: #808080"/>
     <use xlink:href="#me9b4d08a7a" x="448.110256" y="265.907013" style="stroke: #808080"/>
     <use xlink:href="#me9b4d08a7a" x="449.647851" y="272.182338" style="stroke: #808080"/>
     <use xlink:href="#me9b4d08a7a" x="451.130216" y="270.613506" style="stroke: #808080"/>
     <use xlink:href="#me9b4d08a7a" x="453.649596" y="278.457662" style="stroke: #808080"/>
     <use xlink:href="#me9b4d08a7a" x="454.460045" y="258.062857" style="stroke: #808080"/>
     <use xlink:href="#me9b4d08a7a" x="455.673887" y="265.907013" style="stroke: #808080"/>
     <use xlink:href="#me9b4d08a7a" x="457.274951" y="245.512208" style="stroke: #808080"/>
     <use xlink:href="#me9b4d08a7a" x="458.753349" y="259.631688" style="stroke: #808080"/>
     <use xlink:href="#me9b4d08a7a" x="460.322374" y="243.943377" style="stroke: #808080"/>
     <use xlink:href="#me9b4d08a7a" x="461.926947" y="273.751169" style="stroke: #808080"/>
     <use xlink:href="#me9b4d08a7a" x="463.475221" y="265.907013" style="stroke: #808080"/>
     <use xlink:href="#me9b4d08a7a" x="465.022428" y="210.997922" style="stroke: #808080"/>
     <use xlink:href="#me9b4d08a7a" x="466.646225" y="220.410909" style="stroke: #808080"/>
     <use xlink:href="#me9b4d08a7a" x="468.015078" y="204.722597" style="stroke: #808080"/>
     <use xlink:href="#me9b4d08a7a" x="469.66176" y="176.483636" style="stroke: #808080"/>
     <use xlink:href="#me9b4d08a7a" x="470.940598" y="149.813506" style="stroke: #808080"/>
     <use xlink:href="#me9b4d08a7a" x="472.512063" y="120.005714" style="stroke: #808080"/>
     <use xlink:href="#me9b4d08a7a" x="474.013957" y="77.647273" style="stroke: #808080"/>
     <use xlink:href="#me9b4d08a7a" x="475.551399" y="90.197922" style="stroke: #808080"/>
     <use xlink:href="#me9b4d08a7a" x="477.06382" y="112.161558" style="stroke: #808080"/>
     <use xlink:href="#me9b4d08a7a" x="478.624453" y="138.831688" style="stroke: #808080"/>
     <use xlink:href="#me9b4d08a7a" x="480.105292" y="146.675844" style="stroke: #808080"/>
     <use xlink:href="#me9b4d08a7a" x="481.650211" y="178.052468" style="stroke: #808080"/>
     <use xlink:href="#me9b4d08a7a" x="483.163547" y="154.52" style="stroke: #808080"/>
     <use xlink:href="#me9b4d08a7a" x="484.706787" y="160.795325" style="stroke: #808080"/>
     <use xlink:href="#me9b4d08a7a" x="486.351334" y="149.813506" style="stroke: #808080"/>
     <use xlink:href="#me9b4d08a7a" x="487.758176" y="118.436883" style="stroke: #808080"/>
     <use xlink:href="#me9b4d08a7a" x="489.25946" y="112.161558" style="stroke: #808080"/>
     <use xlink:href="#me9b4d08a7a" x="490.827721" y="88.629091" style="stroke: #808080"/>
     <use xlink:href="#me9b4d08a7a" x="492.315884" y="66.665455" style="stroke: #808080"/>
     <use xlink:href="#me9b4d08a7a" x="493.858819" y="80.784935" style="stroke: #808080"/>
     <use xlink:href="#me9b4d08a7a" x="495.374749" y="96.473247" style="stroke: #808080"/>
     <use xlink:href="#me9b4d08a7a" x="496.917531" y="124.712208" style="stroke: #808080"/>
     <use xlink:href="#me9b4d08a7a" x="498.571384" y="145.107013" style="stroke: #808080"/>
     <use xlink:href="#me9b4d08a7a" x="500.282909" y="168.639481" style="stroke: #808080"/>
     <use xlink:href="#me9b4d08a7a" x="501.589513" y="152.951169" style="stroke: #808080"/>
     <use xlink:href="#me9b4d08a7a" x="503.123142" y="129.418701" style="stroke: #808080"/>
     <use xlink:href="#me9b4d08a7a" x="504.536392" y="140.400519" style="stroke: #808080"/>
     <use xlink:href="#me9b4d08a7a" x="506.045762" y="138.831688" style="stroke: #808080"/>
     <use xlink:href="#me9b4d08a7a" x="507.553454" y="146.675844" style="stroke: #808080"/>
     <use xlink:href="#me9b4d08a7a" x="509.114849" y="143.538182" style="stroke: #808080"/>
     <use xlink:href="#me9b4d08a7a" x="510.645426" y="160.795325" style="stroke: #808080"/>
     <use xlink:href="#me9b4d08a7a" x="512.343067" y="170.208312" style="stroke: #808080"/>
     <use xlink:href="#me9b4d08a7a" x="513.781491" y="215.704416" style="stroke: #808080"/>
     <use xlink:href="#me9b4d08a7a" x="515.225866" y="243.943377" style="stroke: #808080"/>
     <use xlink:href="#me9b4d08a7a" x="517.035188" y="214.135584" style="stroke: #808080"/>
     <use xlink:href="#me9b4d08a7a" x="518.300904" y="231.392727" style="stroke: #808080"/>
     <use xlink:href="#me9b4d08a7a" x="519.775335" y="256.494026" style="stroke: #808080"/>
     <use xlink:href="#me9b4d08a7a" x="521.332612" y="258.062857" style="stroke: #808080"/>
     <use xlink:href="#me9b4d08a7a" x="522.812383" y="248.64987" style="stroke: #808080"/>
     <use xlink:href="#me9b4d08a7a" x="524.36554" y="273.751169" style="stroke: #808080"/>
     <use xlink:href="#me9b4d08a7a" x="525.869875" y="280.026494" style="stroke: #808080"/>
     <use xlink:href="#me9b4d08a7a" x="527.414488" y="297.283636" style="stroke: #808080"/>
     <use xlink:href="#me9b4d08a7a" x="528.90616" y="339.642078" style="stroke: #808080"/>
     <use xlink:href="#me9b4d08a7a" x="530.653538" y="316.10961" style="stroke: #808080"/>
     <use xlink:href="#me9b4d08a7a" x="531.978451" y="309.834286" style="stroke: #808080"/>
     <use xlink:href="#me9b4d08a7a" x="533.875042" y="278.457662" style="stroke: #808080"/>
     <use xlink:href="#me9b4d08a7a" x="535.176307" y="294.145974" style="stroke: #808080"/>
     <use xlink:href="#me9b4d08a7a" x="536.68293" y="278.457662" style="stroke: #808080"/>
     <use xlink:href="#me9b4d08a7a" x="538.229374" y="270.613506" style="stroke: #808080"/>
     <use xlink:href="#me9b4d08a7a" x="539.707925" y="256.494026" style="stroke: #808080"/>
     <use xlink:href="#me9b4d08a7a" x="541.168777" y="259.631688" style="stroke: #808080"/>
     <use xlink:href="#me9b4d08a7a" x="542.671129" y="259.631688" style="stroke: #808080"/>
     <use xlink:href="#me9b4d08a7a" x="544.185838" y="259.631688" style="stroke: #808080"/>
     <use xlink:href="#me9b4d08a7a" x="546.656701" y="262.769351" style="stroke: #808080"/>
     <use xlink:href="#me9b4d08a7a" x="547.870086" y="261.200519" style="stroke: #808080"/>
     <use xlink:href="#me9b4d08a7a" x="548.786876" y="232.961558" style="stroke: #808080"/>
     <use xlink:href="#me9b4d08a7a" x="550.281904" y="226.686234" style="stroke: #808080"/>
     <use xlink:href="#me9b4d08a7a" x="551.850928" y="220.410909" style="stroke: #808080"/>
     <use xlink:href="#me9b4d08a7a" x="553.346872" y="201.584935" style="stroke: #808080"/>
     <use xlink:href="#me9b4d08a7a" x="554.90308" y="195.30961" style="stroke: #808080"/>
     <use xlink:href="#me9b4d08a7a" x="556.407262" y="163.932987" style="stroke: #808080"/>
     <use xlink:href="#me9b4d08a7a" x="557.938297" y="214.135584" style="stroke: #808080"/>
     <use xlink:href="#me9b4d08a7a" x="559.440953" y="206.291429" style="stroke: #808080"/>
     <use xlink:href="#me9b4d08a7a" x="561.002197" y="225.117403" style="stroke: #808080"/>
     <use xlink:href="#me9b4d08a7a" x="562.523619" y="220.410909" style="stroke: #808080"/>
     <use xlink:href="#me9b4d08a7a" x="564.054806" y="221.97974" style="stroke: #808080"/>
     <use xlink:href="#me9b4d08a7a" x="565.546325" y="226.686234" style="stroke: #808080"/>
     <use xlink:href="#me9b4d08a7a" x="567.116265" y="264.338182" style="stroke: #808080"/>
     <use xlink:href="#me9b4d08a7a" x="568.608089" y="303.558961" style="stroke: #808080"/>
     <use xlink:href="#me9b4d08a7a" x="570.156822" y="275.32" style="stroke: #808080"/>
     <use xlink:href="#me9b4d08a7a" x="571.809912" y="264.338182" style="stroke: #808080"/>
     <use xlink:href="#me9b4d08a7a" x="573.332555" y="270.613506" style="stroke: #808080"/>
     <use xlink:href="#me9b4d08a7a" x="574.838111" y="281.595325" style="stroke: #808080"/>
     <use xlink:href="#me9b4d08a7a" x="576.356024" y="317.678442" style="stroke: #808080"/>
     <use xlink:href="#me9b4d08a7a" x="577.837169" y="322.384935" style="stroke: #808080"/>
     <use xlink:href="#me9b4d08a7a" x="579.280781" y="300.421299" style="stroke: #808080"/>
     <use xlink:href="#me9b4d08a7a" x="580.804644" y="292.577143" style="stroke: #808080"/>
     <use xlink:href="#me9b4d08a7a" x="582.331865" y="258.062857" style="stroke: #808080"/>
     <use xlink:href="#me9b4d08a7a" x="583.853898" y="300.421299" style="stroke: #808080"/>
     <use xlink:href="#me9b4d08a7a" x="585.392408" y="297.283636" style="stroke: #808080"/>
     <use xlink:href="#me9b4d08a7a" x="586.928172" y="308.265455" style="stroke: #808080"/>
     <use xlink:href="#me9b4d08a7a" x="588.461648" y="300.421299" style="stroke: #808080"/>
     <use xlink:href="#me9b4d08a7a" x="589.97178" y="306.696623" style="stroke: #808080"/>
     <use xlink:href="#me9b4d08a7a" x="591.497017" y="317.678442" style="stroke: #808080"/>
     <use xlink:href="#me9b4d08a7a" x="593.76008" y="312.971948" style="stroke: #808080"/>
     <use xlink:href="#me9b4d08a7a" x="594.550848" y="336.504416" style="stroke: #808080"/>
     <use xlink:href="#me9b4d08a7a" x="596.02833" y="327.091429" style="stroke: #808080"/>
     <use xlink:href="#me9b4d08a7a" x="597.619477" y="333.366753" style="stroke: #808080"/>
     <use xlink:href="#me9b4d08a7a" x="599.10291" y="301.99013" style="stroke: #808080"/>
     <use xlink:href="#me9b4d08a7a" x="600.649049" y="308.265455" style="stroke: #808080"/>
     <use xlink:href="#me9b4d08a7a" x="602.172302" y="305.127792" style="stroke: #808080"/>
     <use xlink:href="#me9b4d08a7a" x="603.710813" y="280.026494" style="stroke: #808080"/>
     <use xlink:href="#me9b4d08a7a" x="605.209503" y="264.338182" style="stroke: #808080"/>
     <use xlink:href="#me9b4d08a7a" x="606.908821" y="284.732987" style="stroke: #808080"/>
     <use xlink:href="#me9b4d08a7a" x="608.840503" y="251.787532" style="stroke: #808080"/>
     <use xlink:href="#me9b4d08a7a" x="609.922678" y="234.53039" style="stroke: #808080"/>
     <use xlink:href="#me9b4d08a7a" x="611.486363" y="253.356364" style="stroke: #808080"/>
     <use xlink:href="#me9b4d08a7a" x="612.960031" y="236.099221" style="stroke: #808080"/>
     <use xlink:href="#me9b4d08a7a" x="614.455975" y="231.392727" style="stroke: #808080"/>
     <use xlink:href="#me9b4d08a7a" x="615.875023" y="243.943377" style="stroke: #808080"/>
     <use xlink:href="#me9b4d08a7a" x="617.425892" y="248.64987" style="stroke: #808080"/>
     <use xlink:href="#me9b4d08a7a" x="618.96608" y="215.704416" style="stroke: #808080"/>
     <use xlink:href="#me9b4d08a7a" x="620.467364" y="214.135584" style="stroke: #808080"/>
     <use xlink:href="#me9b4d08a7a" x="622.055612" y="218.842078" style="stroke: #808080"/>
     <use xlink:href="#me9b4d08a7a" x="624.288619" y="236.099221" style="stroke: #808080"/>
     <use xlink:href="#me9b4d08a7a" x="625.082437" y="221.97974" style="stroke: #808080"/>
     <use xlink:href="#me9b4d08a7a" x="626.554428" y="262.769351" style="stroke: #808080"/>
     <use xlink:href="#me9b4d08a7a" x="628.142065" y="264.338182" style="stroke: #808080"/>
     <use xlink:href="#me9b4d08a7a" x="629.624888" y="228.255065" style="stroke: #808080"/>
     <use xlink:href="#me9b4d08a7a" x="631.199405" y="253.356364" style="stroke: #808080"/>
     <use xlink:href="#me9b4d08a7a" x="632.691687" y="258.062857" style="stroke: #808080"/>
     <use xlink:href="#me9b4d08a7a" x="634.208532" y="223.548571" style="stroke: #808080"/>
     <use xlink:href="#me9b4d08a7a" x="635.821191" y="178.052468" style="stroke: #808080"/>
     <use xlink:href="#me9b4d08a7a" x="637.288147" y="209.429091" style="stroke: #808080"/>
     <use xlink:href="#me9b4d08a7a" x="639.143086" y="170.208312" style="stroke: #808080"/>
     <use xlink:href="#me9b4d08a7a" x="640.353115" y="170.208312" style="stroke: #808080"/>
     <use xlink:href="#me9b4d08a7a" x="641.8248" y="218.842078" style="stroke: #808080"/>
     <use xlink:href="#me9b4d08a7a" x="643.400537" y="193.740779" style="stroke: #808080"/>
     <use xlink:href="#me9b4d08a7a" x="645.018841" y="196.878442" style="stroke: #808080"/>
     <use xlink:href="#me9b4d08a7a" x="646.518904" y="236.099221" style="stroke: #808080"/>
     <use xlink:href="#me9b4d08a7a" x="648.120426" y="265.907013" style="stroke: #808080"/>
     <use xlink:href="#me9b4d08a7a" x="649.556867" y="261.200519" style="stroke: #808080"/>
     <use xlink:href="#me9b4d08a7a" x="651.00643" y="267.475844" style="stroke: #808080"/>
     <use xlink:href="#me9b4d08a7a" x="652.544177" y="258.062857" style="stroke: #808080"/>
     <use xlink:href="#me9b4d08a7a" x="654.041952" y="281.595325" style="stroke: #808080"/>
     <use xlink:href="#me9b4d08a7a" x="655.569019" y="316.10961" style="stroke: #808080"/>
     <use xlink:href="#me9b4d08a7a" x="657.068625" y="319.247273" style="stroke: #808080"/>
     <use xlink:href="#me9b4d08a7a" x="658.631546" y="344.348571" style="stroke: #808080"/>
     <use xlink:href="#me9b4d08a7a" x="660.158309" y="363.174545" style="stroke: #808080"/>
     <use xlink:href="#me9b4d08a7a" x="661.691174" y="341.210909" style="stroke: #808080"/>
     <use xlink:href="#me9b4d08a7a" x="663.181625" y="327.091429" style="stroke: #808080"/>
     <use xlink:href="#me9b4d08a7a" x="664.739817" y="323.953766" style="stroke: #808080"/>
     <use xlink:href="#me9b4d08a7a" x="666.232404" y="298.852468" style="stroke: #808080"/>
     <use xlink:href="#me9b4d08a7a" x="667.884274" y="281.595325" style="stroke: #808080"/>
     <use xlink:href="#me9b4d08a7a" x="669.466724" y="253.356364" style="stroke: #808080"/>
     <use xlink:href="#me9b4d08a7a" x="670.826576" y="223.548571" style="stroke: #808080"/>
     <use xlink:href="#me9b4d08a7a" x="672.369205" y="176.483636" style="stroke: #808080"/>
     <use xlink:href="#me9b4d08a7a" x="673.903291" y="181.19013" style="stroke: #808080"/>
     <use xlink:href="#me9b4d08a7a" x="675.386114" y="214.135584" style="stroke: #808080"/>
     <use xlink:href="#me9b4d08a7a" x="676.921268" y="209.429091" style="stroke: #808080"/>
     <use xlink:href="#me9b4d08a7a" x="678.464355" y="201.584935" style="stroke: #808080"/>
     <use xlink:href="#me9b4d08a7a" x="680.166878" y="215.704416" style="stroke: #808080"/>
     <use xlink:href="#me9b4d08a7a" x="681.703252" y="236.099221" style="stroke: #808080"/>
     <use xlink:href="#me9b4d08a7a" x="683.171886" y="231.392727" style="stroke: #808080"/>
     <use xlink:href="#me9b4d08a7a" x="685.222572" y="218.842078" style="stroke: #808080"/>
     <use xlink:href="#me9b4d08a7a" x="686.185896" y="223.548571" style="stroke: #808080"/>
     <use xlink:href="#me9b4d08a7a" x="687.620964" y="195.30961" style="stroke: #808080"/>
     <use xlink:href="#me9b4d08a7a" x="689.117975" y="210.997922" style="stroke: #808080"/>
     <use xlink:href="#me9b4d08a7a" x="690.632838" y="210.997922" style="stroke: #808080"/>
     <use xlink:href="#me9b4d08a7a" x="692.194844" y="237.668052" style="stroke: #808080"/>
     <use xlink:href="#me9b4d08a7a" x="693.702688" y="234.53039" style="stroke: #808080"/>
     <use xlink:href="#me9b4d08a7a" x="695.254929" y="223.548571" style="stroke: #808080"/>
     <use xlink:href="#me9b4d08a7a" x="696.748279" y="262.769351" style="stroke: #808080"/>
     <use xlink:href="#me9b4d08a7a" x="698.318066" y="272.182338" style="stroke: #808080"/>
     <use xlink:href="#me9b4d08a7a" x="700.426881" y="292.577143" style="stroke: #808080"/>
     <use xlink:href="#me9b4d08a7a" x="701.661473" y="284.732987" style="stroke: #808080"/>
     <use xlink:href="#me9b4d08a7a" x="702.835495" y="301.99013" style="stroke: #808080"/>
     <use xlink:href="#me9b4d08a7a" x="704.412453" y="245.512208" style="stroke: #808080"/>
     <use xlink:href="#me9b4d08a7a" x="705.912364" y="254.925195" style="stroke: #808080"/>
     <use xlink:href="#me9b4d08a7a" x="707.438669" y="286.301818" style="stroke: #808080"/>
     <use xlink:href="#me9b4d08a7a" x="708.96238" y="292.577143" style="stroke: #808080"/>
     <use xlink:href="#me9b4d08a7a" x="710.508214" y="298.852468" style="stroke: #808080"/>
     <use xlink:href="#me9b4d08a7a" x="712.004462" y="267.475844" style="stroke: #808080"/>
     <use xlink:href="#me9b4d08a7a" x="714.637811" y="251.787532" style="stroke: #808080"/>
     <use xlink:href="#me9b4d08a7a" x="715.488233" y="236.099221" style="stroke: #808080"/>
     <use xlink:href="#me9b4d08a7a" x="716.745558" y="276.888831" style="stroke: #808080"/>
     <use xlink:href="#me9b4d08a7a" x="718.271405" y="251.787532" style="stroke: #808080"/>
     <use xlink:href="#me9b4d08a7a" x="719.776503" y="242.374545" style="stroke: #808080"/>
     <use xlink:href="#me9b4d08a7a" x="721.314708" y="214.135584" style="stroke: #808080"/>
     <use xlink:href="#me9b4d08a7a" x="722.82301" y="178.052468" style="stroke: #808080"/>
     <use xlink:href="#me9b4d08a7a" x="724.252281" y="200.016104" style="stroke: #808080"/>
     <use xlink:href="#me9b4d08a7a" x="725.744257" y="214.135584" style="stroke: #808080"/>
     <use xlink:href="#me9b4d08a7a" x="727.285972" y="234.53039" style="stroke: #808080"/>
     <use xlink:href="#me9b4d08a7a" x="728.83501" y="250.218701" style="stroke: #808080"/>
     <use xlink:href="#me9b4d08a7a" x="730.498779" y="283.164156" style="stroke: #808080"/>
     <use xlink:href="#me9b4d08a7a" x="731.85146" y="254.925195" style="stroke: #808080"/>
     <use xlink:href="#me9b4d08a7a" x="733.381885" y="245.512208" style="stroke: #808080"/>
     <use xlink:href="#me9b4d08a7a" x="734.938246" y="275.32" style="stroke: #808080"/>
     <use xlink:href="#me9b4d08a7a" x="736.418169" y="254.925195" style="stroke: #808080"/>
     <use xlink:href="#me9b4d08a7a" x="737.976972" y="284.732987" style="stroke: #808080"/>
     <use xlink:href="#me9b4d08a7a" x="739.496411" y="232.961558" style="stroke: #808080"/>
     <use xlink:href="#me9b4d08a7a" x="741.066198" y="206.291429" style="stroke: #808080"/>
     <use xlink:href="#me9b4d08a7a" x="742.523084" y="184.327792" style="stroke: #808080"/>
     <use xlink:href="#me9b4d08a7a" x="744.067849" y="229.823896" style="stroke: #808080"/>
     <use xlink:href="#me9b4d08a7a" x="745.655945" y="242.374545" style="stroke: #808080"/>
     <use xlink:href="#me9b4d08a7a" x="747.163636" y="223.548571" style="stroke: #808080"/>
    </g>
   </g>
   <g id="patch_3">
    <path d="M 108 378 
L 108 51.84 
" style="fill: none; stroke: #000000; stroke-width: 0.8; stroke-linejoin: miter; stroke-linecap: square"/>
   </g>
   <g id="patch_4">
    <path d="M 777.6 378 
L 777.6 51.84 
" style="fill: none; stroke: #000000; stroke-width: 0.8; stroke-linejoin: miter; stroke-linecap: square"/>
   </g>
   <g id="patch_5">
    <path d="M 108 378 
L 777.6 378 
" style="fill: none; stroke: #000000; stroke-width: 0.8; stroke-linejoin: miter; stroke-linecap: square"/>
   </g>
   <g id="patch_6">
    <path d="M 108 51.84 
L 777.6 51.84 
" style="fill: none; stroke: #000000; stroke-width: 0.8; stroke-linejoin: miter; stroke-linecap: square"/>
   </g>
  </g>
 </g>
 <defs>
  <clipPath id="pe38b6e41a8">
   <rect x="108" y="51.84" width="669.6" height="326.16"/>
  </clipPath>
 </defs>
</svg>
