<?xml version="1.0" encoding="utf-8" standalone="no"?>
<!DOCTYPE svg PUBLIC "-//W3C//DTD SVG 1.1//EN"
  "http://www.w3.org/Graphics/SVG/1.1/DTD/svg11.dtd">
<svg xmlns:xlink="http://www.w3.org/1999/xlink" width="864pt" height="576pt" viewBox="0 0 864 576" xmlns="http://www.w3.org/2000/svg" version="1.1">
 <metadata>
  <rdf:RDF xmlns:dc="http://purl.org/dc/elements/1.1/" xmlns:cc="http://creativecommons.org/ns#" xmlns:rdf="http://www.w3.org/1999/02/22-rdf-syntax-ns#">
   <cc:Work>
    <dc:type rdf:resource="http://purl.org/dc/dcmitype/StillImage"/>
    <dc:date>2023-02-27T14:25:51.144191</dc:date>
    <dc:format>image/svg+xml</dc:format>
    <dc:creator>
     <cc:Agent>
      <dc:title>Matplotlib v3.5.1, https://matplotlib.org/</dc:title>
     </cc:Agent>
    </dc:creator>
   </cc:Work>
  </rdf:RDF>
 </metadata>
 <defs>
  <style type="text/css">*{stroke-linejoin: round; stroke-linecap: butt}</style>
 </defs>
 <g id="figure_1">
  <g id="patch_1">
   <path d="M 0 576 
L 864 576 
L 864 0 
L 0 0 
L 0 576 
z
" style="fill: none"/>
  </g>
  <g id="axes_1">
   <g id="patch_2">
    <path d="M 108 504 
L 777.6 504 
L 777.6 69.12 
L 108 69.12 
z
" style="fill: #ffffff"/>
   </g>
   <g id="PolyCollection_1">
    <defs>
     <path id="m9469cb4824" d="M 344.853701 -91.767273 
L 344.853701 -332.935 
L 348.851509 -342.662151 
L 352.849317 -352.35195 
L 356.847125 -361.970436 
L 360.844933 -371.482725 
L 364.842742 -380.853208 
L 368.84055 -390.045766 
L 372.838358 -399.023996 
L 376.836166 -407.75144 
L 380.833974 -416.191834 
L 384.831782 -424.309349 
L 388.82959 -432.068846 
L 392.827398 -439.436125 
L 396.825207 -446.378178 
L 400.823015 -452.863428 
L 404.820823 -458.861974 
L 408.818631 -464.345818 
L 412.816439 -469.289081 
L 416.814247 -473.668207 
L 420.812055 -477.462151 
L 424.809863 -480.652547 
L 428.807672 -483.223854 
L 432.80548 -485.163485 
L 436.803288 -486.461909 
L 440.801096 -487.112727 
L 444.798904 -487.112727 
L 448.796712 -486.461909 
L 452.79452 -485.163485 
L 456.792328 -483.223854 
L 460.790137 -480.652547 
L 464.787945 -477.462151 
L 468.785753 -473.668207 
L 472.783561 -469.289081 
L 476.781369 -464.345818 
L 480.779177 -458.861974 
L 484.776985 -452.863428 
L 488.774793 -446.378178 
L 492.772602 -439.436125 
L 496.77041 -432.068846 
L 500.768218 -424.309349 
L 504.766026 -416.191834 
L 508.763834 -407.75144 
L 512.761642 -399.023996 
L 516.75945 -390.045766 
L 520.757258 -380.853208 
L 524.755067 -371.482725 
L 528.752875 -361.970436 
L 532.750683 -352.35195 
L 536.748491 -342.662151 
L 540.746299 -332.935 
L 540.746299 -91.767273 
L 540.746299 -91.767273 
L 536.748491 -91.767273 
L 532.750683 -91.767273 
L 528.752875 -91.767273 
L 524.755067 -91.767273 
L 520.757258 -91.767273 
L 516.75945 -91.767273 
L 512.761642 -91.767273 
L 508.763834 -91.767273 
L 504.766026 -91.767273 
L 500.768218 -91.767273 
L 496.77041 -91.767273 
L 492.772602 -91.767273 
L 488.774793 -91.767273 
L 484.776985 -91.767273 
L 480.779177 -91.767273 
L 476.781369 -91.767273 
L 472.783561 -91.767273 
L 468.785753 -91.767273 
L 464.787945 -91.767273 
L 460.790137 -91.767273 
L 456.792328 -91.767273 
L 452.79452 -91.767273 
L 448.796712 -91.767273 
L 444.798904 -91.767273 
L 440.801096 -91.767273 
L 436.803288 -91.767273 
L 432.80548 -91.767273 
L 428.807672 -91.767273 
L 424.809863 -91.767273 
L 420.812055 -91.767273 
L 416.814247 -91.767273 
L 412.816439 -91.767273 
L 408.818631 -91.767273 
L 404.820823 -91.767273 
L 400.823015 -91.767273 
L 396.825207 -91.767273 
L 392.827398 -91.767273 
L 388.82959 -91.767273 
L 384.831782 -91.767273 
L 380.833974 -91.767273 
L 376.836166 -91.767273 
L 372.838358 -91.767273 
L 368.84055 -91.767273 
L 364.842742 -91.767273 
L 360.844933 -91.767273 
L 356.847125 -91.767273 
L 352.849317 -91.767273 
L 348.851509 -91.767273 
L 344.853701 -91.767273 
z
" style="stroke: #add8e6; stroke-opacity: 0.8"/>
    </defs>
    <g clip-path="url(#p51f6ebac7d)">
     <use xlink:href="#m9469cb4824" x="0" y="576" style="fill: #add8e6; fill-opacity: 0.8; stroke: #add8e6; stroke-opacity: 0.8"/>
    </g>
   </g>
   <g id="PolyCollection_2">
    <defs>
     <path id="m3eb2c7f0f5" d="M 249.758925 -91.767273 
L 249.758925 -149.697336 
L 251.699635 -151.966643 
L 253.640345 -154.300562 
L 255.581054 -156.699751 
L 257.521764 -159.164817 
L 259.462474 -161.696309 
L 261.403184 -164.294721 
L 263.343893 -166.960485 
L 265.284603 -169.693968 
L 267.225313 -172.495471 
L 269.166022 -175.365226 
L 271.106732 -178.303392 
L 273.047442 -181.310051 
L 274.988151 -184.385209 
L 276.928861 -187.52879 
L 278.869571 -190.740633 
L 280.810281 -194.020494 
L 282.75099 -197.368038 
L 284.6917 -200.782838 
L 286.63241 -204.264377 
L 288.573119 -207.812038 
L 290.513829 -211.42511 
L 292.454539 -215.102781 
L 294.395249 -218.844137 
L 296.335958 -222.648161 
L 298.276668 -226.513731 
L 300.217378 -230.43962 
L 302.158087 -234.424494 
L 304.098797 -238.466908 
L 306.039507 -242.565311 
L 307.980217 -246.71804 
L 309.920926 -250.923323 
L 311.861636 -255.179277 
L 313.802346 -259.48391 
L 315.743055 -263.835116 
L 317.683765 -268.230683 
L 319.624475 -272.668288 
L 321.565184 -277.145499 
L 323.505894 -281.659778 
L 325.446604 -286.208479 
L 327.387314 -290.788854 
L 329.328023 -295.398052 
L 331.268733 -300.033118 
L 333.209443 -304.691004 
L 335.150152 -309.368563 
L 337.090862 -314.062555 
L 339.031572 -318.769651 
L 340.972282 -323.486436 
L 342.912991 -328.209412 
L 344.853701 -332.935 
L 344.853701 -91.767273 
L 344.853701 -91.767273 
L 342.912991 -91.767273 
L 340.972282 -91.767273 
L 339.031572 -91.767273 
L 337.090862 -91.767273 
L 335.150152 -91.767273 
L 333.209443 -91.767273 
L 331.268733 -91.767273 
L 329.328023 -91.767273 
L 327.387314 -91.767273 
L 325.446604 -91.767273 
L 323.505894 -91.767273 
L 321.565184 -91.767273 
L 319.624475 -91.767273 
L 317.683765 -91.767273 
L 315.743055 -91.767273 
L 313.802346 -91.767273 
L 311.861636 -91.767273 
L 309.920926 -91.767273 
L 307.980217 -91.767273 
L 306.039507 -91.767273 
L 304.098797 -91.767273 
L 302.158087 -91.767273 
L 300.217378 -91.767273 
L 298.276668 -91.767273 
L 296.335958 -91.767273 
L 294.395249 -91.767273 
L 292.454539 -91.767273 
L 290.513829 -91.767273 
L 288.573119 -91.767273 
L 286.63241 -91.767273 
L 284.6917 -91.767273 
L 282.75099 -91.767273 
L 280.810281 -91.767273 
L 278.869571 -91.767273 
L 276.928861 -91.767273 
L 274.988151 -91.767273 
L 273.047442 -91.767273 
L 271.106732 -91.767273 
L 269.166022 -91.767273 
L 267.225313 -91.767273 
L 265.284603 -91.767273 
L 263.343893 -91.767273 
L 261.403184 -91.767273 
L 259.462474 -91.767273 
L 257.521764 -91.767273 
L 255.581054 -91.767273 
L 253.640345 -91.767273 
L 251.699635 -91.767273 
L 249.758925 -91.767273 
z
" style="stroke: #f08080; stroke-opacity: 0.8"/>
    </defs>
    <g clip-path="url(#p51f6ebac7d)">
     <use xlink:href="#m3eb2c7f0f5" x="0" y="576" style="fill: #f08080; fill-opacity: 0.8; stroke: #f08080; stroke-opacity: 0.8"/>
    </g>
   </g>
   <g id="PolyCollection_3">
    <defs>
     <path id="m89e6b812c1" d="M 540.746299 -91.767273 
L 540.746299 -332.935 
L 542.687009 -328.209412 
L 544.627718 -323.486436 
L 546.568428 -318.769651 
L 548.509138 -314.062555 
L 550.449848 -309.368563 
L 552.390557 -304.691004 
L 554.331267 -300.033118 
L 556.271977 -295.398052 
L 558.212686 -290.788854 
L 560.153396 -286.208479 
L 562.094106 -281.659778 
L 564.034816 -277.145499 
L 565.975525 -272.668288 
L 567.916235 -268.230683 
L 569.856945 -263.835116 
L 571.797654 -259.48391 
L 573.738364 -255.179277 
L 575.679074 -250.923323 
L 577.619783 -246.71804 
L 579.560493 -242.565311 
L 581.501203 -238.466908 
L 583.441913 -234.424494 
L 585.382622 -230.43962 
L 587.323332 -226.513731 
L 589.264042 -222.648161 
L 591.204751 -218.844137 
L 593.145461 -215.102781 
L 595.086171 -211.42511 
L 597.026881 -207.812038 
L 598.96759 -204.264377 
L 600.9083 -200.782838 
L 602.84901 -197.368038 
L 604.789719 -194.020494 
L 606.730429 -190.740633 
L 608.671139 -187.52879 
L 610.611849 -184.385209 
L 612.552558 -181.310051 
L 614.493268 -178.303392 
L 616.433978 -175.365226 
L 618.374687 -172.495471 
L 620.315397 -169.693968 
L 622.256107 -166.960485 
L 624.196816 -164.294721 
L 626.137526 -161.696309 
L 628.078236 -159.164817 
L 630.018946 -156.699751 
L 631.959655 -154.300562 
L 633.900365 -151.966643 
L 635.841075 -149.697336 
L 635.841075 -91.767273 
L 635.841075 -91.767273 
L 633.900365 -91.767273 
L 631.959655 -91.767273 
L 630.018946 -91.767273 
L 628.078236 -91.767273 
L 626.137526 -91.767273 
L 624.196816 -91.767273 
L 622.256107 -91.767273 
L 620.315397 -91.767273 
L 618.374687 -91.767273 
L 616.433978 -91.767273 
L 614.493268 -91.767273 
L 612.552558 -91.767273 
L 610.611849 -91.767273 
L 608.671139 -91.767273 
L 606.730429 -91.767273 
L 604.789719 -91.767273 
L 602.84901 -91.767273 
L 600.9083 -91.767273 
L 598.96759 -91.767273 
L 597.026881 -91.767273 
L 595.086171 -91.767273 
L 593.145461 -91.767273 
L 591.204751 -91.767273 
L 589.264042 -91.767273 
L 587.323332 -91.767273 
L 585.382622 -91.767273 
L 583.441913 -91.767273 
L 581.501203 -91.767273 
L 579.560493 -91.767273 
L 577.619783 -91.767273 
L 575.679074 -91.767273 
L 573.738364 -91.767273 
L 571.797654 -91.767273 
L 569.856945 -91.767273 
L 567.916235 -91.767273 
L 565.975525 -91.767273 
L 564.034816 -91.767273 
L 562.094106 -91.767273 
L 560.153396 -91.767273 
L 558.212686 -91.767273 
L 556.271977 -91.767273 
L 554.331267 -91.767273 
L 552.390557 -91.767273 
L 550.449848 -91.767273 
L 548.509138 -91.767273 
L 546.568428 -91.767273 
L 544.627718 -91.767273 
L 542.687009 -91.767273 
L 540.746299 -91.767273 
z
" style="stroke: #f08080; stroke-opacity: 0.8"/>
    </defs>
    <g clip-path="url(#p51f6ebac7d)">
     <use xlink:href="#m89e6b812c1" x="0" y="576" style="fill: #f08080; fill-opacity: 0.8; stroke: #f08080; stroke-opacity: 0.8"/>
    </g>
   </g>
   <g id="PolyCollection_4">
    <defs>
     <path id="me33888c7b3" d="M 150.501099 -91.767273 
L 150.501099 -96.603968 
L 152.526769 -96.907293 
L 154.552439 -97.227331 
L 156.578109 -97.564843 
L 158.603779 -97.920615 
L 160.629449 -98.295457 
L 162.655119 -98.690204 
L 164.680789 -99.105716 
L 166.706458 -99.542877 
L 168.732128 -100.002597 
L 170.757798 -100.485807 
L 172.783468 -100.993467 
L 174.809138 -101.526558 
L 176.834808 -102.086085 
L 178.860478 -102.673077 
L 180.886148 -103.288586 
L 182.911818 -103.933686 
L 184.937488 -104.609473 
L 186.963158 -105.317065 
L 188.988828 -106.057598 
L 191.014498 -106.832229 
L 193.040167 -107.642134 
L 195.065837 -108.488506 
L 197.091507 -109.372554 
L 199.117177 -110.295502 
L 201.142847 -111.258589 
L 203.168517 -112.263065 
L 205.194187 -113.310192 
L 207.219857 -114.401241 
L 209.245527 -115.537489 
L 211.271197 -116.720221 
L 213.296867 -117.950724 
L 215.322537 -119.230287 
L 217.348207 -120.560201 
L 219.373876 -121.941749 
L 221.399546 -123.376215 
L 223.425216 -124.86487 
L 225.450886 -126.408978 
L 227.476556 -128.009791 
L 229.502226 -129.668543 
L 231.527896 -131.38645 
L 233.553566 -133.164709 
L 235.579236 -135.004489 
L 237.604906 -136.906935 
L 239.630576 -138.873159 
L 241.656246 -140.904241 
L 243.681916 -143.001221 
L 245.707585 -145.1651 
L 247.733255 -147.396836 
L 249.758925 -149.697336 
L 249.758925 -91.767273 
L 249.758925 -91.767273 
L 247.733255 -91.767273 
L 245.707585 -91.767273 
L 243.681916 -91.767273 
L 241.656246 -91.767273 
L 239.630576 -91.767273 
L 237.604906 -91.767273 
L 235.579236 -91.767273 
L 233.553566 -91.767273 
L 231.527896 -91.767273 
L 229.502226 -91.767273 
L 227.476556 -91.767273 
L 225.450886 -91.767273 
L 223.425216 -91.767273 
L 221.399546 -91.767273 
L 219.373876 -91.767273 
L 217.348207 -91.767273 
L 215.322537 -91.767273 
L 213.296867 -91.767273 
L 211.271197 -91.767273 
L 209.245527 -91.767273 
L 207.219857 -91.767273 
L 205.194187 -91.767273 
L 203.168517 -91.767273 
L 201.142847 -91.767273 
L 199.117177 -91.767273 
L 197.091507 -91.767273 
L 195.065837 -91.767273 
L 193.040167 -91.767273 
L 191.014498 -91.767273 
L 188.988828 -91.767273 
L 186.963158 -91.767273 
L 184.937488 -91.767273 
L 182.911818 -91.767273 
L 180.886148 -91.767273 
L 178.860478 -91.767273 
L 176.834808 -91.767273 
L 174.809138 -91.767273 
L 172.783468 -91.767273 
L 170.757798 -91.767273 
L 168.732128 -91.767273 
L 166.706458 -91.767273 
L 164.680789 -91.767273 
L 162.655119 -91.767273 
L 160.629449 -91.767273 
L 158.603779 -91.767273 
L 156.578109 -91.767273 
L 154.552439 -91.767273 
L 152.526769 -91.767273 
L 150.501099 -91.767273 
z
" style="stroke: #d3d3d3; stroke-opacity: 0.8"/>
    </defs>
    <g clip-path="url(#p51f6ebac7d)">
     <use xlink:href="#me33888c7b3" x="0" y="576" style="fill: #d3d3d3; fill-opacity: 0.8; stroke: #d3d3d3; stroke-opacity: 0.8"/>
    </g>
   </g>
   <g id="PolyCollection_5">
    <defs>
     <path id="m1fb4f3837e" d="M 635.841075 -91.767273 
L 635.841075 -149.697336 
L 637.866745 -147.396836 
L 639.892415 -145.1651 
L 641.918084 -143.001221 
L 643.943754 -140.904241 
L 645.969424 -138.873159 
L 647.995094 -136.906935 
L 650.020764 -135.004489 
L 652.046434 -133.164709 
L 654.072104 -131.38645 
L 656.097774 -129.668543 
L 658.123444 -128.009791 
L 660.149114 -126.408978 
L 662.174784 -124.86487 
L 664.200454 -123.376215 
L 666.226124 -121.941749 
L 668.251793 -120.560201 
L 670.277463 -119.230287 
L 672.303133 -117.950724 
L 674.328803 -116.720221 
L 676.354473 -115.537489 
L 678.380143 -114.401241 
L 680.405813 -113.310192 
L 682.431483 -112.263065 
L 684.457153 -111.258589 
L 686.482823 -110.295502 
L 688.508493 -109.372554 
L 690.534163 -108.488506 
L 692.559833 -107.642134 
L 694.585502 -106.832229 
L 696.611172 -106.057598 
L 698.636842 -105.317065 
L 700.662512 -104.609473 
L 702.688182 -103.933686 
L 704.713852 -103.288586 
L 706.739522 -102.673077 
L 708.765192 -102.086085 
L 710.790862 -101.526558 
L 712.816532 -100.993467 
L 714.842202 -100.485807 
L 716.867872 -100.002597 
L 718.893542 -99.542877 
L 720.919211 -99.105716 
L 722.944881 -98.690204 
L 724.970551 -98.295457 
L 726.996221 -97.920615 
L 729.021891 -97.564843 
L 731.047561 -97.227331 
L 733.073231 -96.907293 
L 735.098901 -96.603968 
L 735.098901 -91.767273 
L 735.098901 -91.767273 
L 733.073231 -91.767273 
L 731.047561 -91.767273 
L 729.021891 -91.767273 
L 726.996221 -91.767273 
L 724.970551 -91.767273 
L 722.944881 -91.767273 
L 720.919211 -91.767273 
L 718.893542 -91.767273 
L 716.867872 -91.767273 
L 714.842202 -91.767273 
L 712.816532 -91.767273 
L 710.790862 -91.767273 
L 708.765192 -91.767273 
L 706.739522 -91.767273 
L 704.713852 -91.767273 
L 702.688182 -91.767273 
L 700.662512 -91.767273 
L 698.636842 -91.767273 
L 696.611172 -91.767273 
L 694.585502 -91.767273 
L 692.559833 -91.767273 
L 690.534163 -91.767273 
L 688.508493 -91.767273 
L 686.482823 -91.767273 
L 684.457153 -91.767273 
L 682.431483 -91.767273 
L 680.405813 -91.767273 
L 678.380143 -91.767273 
L 676.354473 -91.767273 
L 674.328803 -91.767273 
L 672.303133 -91.767273 
L 670.277463 -91.767273 
L 668.251793 -91.767273 
L 666.226124 -91.767273 
L 664.200454 -91.767273 
L 662.174784 -91.767273 
L 660.149114 -91.767273 
L 658.123444 -91.767273 
L 656.097774 -91.767273 
L 654.072104 -91.767273 
L 652.046434 -91.767273 
L 650.020764 -91.767273 
L 647.995094 -91.767273 
L 645.969424 -91.767273 
L 643.943754 -91.767273 
L 641.918084 -91.767273 
L 639.892415 -91.767273 
L 637.866745 -91.767273 
L 635.841075 -91.767273 
z
" style="stroke: #d3d3d3; stroke-opacity: 0.8"/>
    </defs>
    <g clip-path="url(#p51f6ebac7d)">
     <use xlink:href="#m1fb4f3837e" x="0" y="576" style="fill: #d3d3d3; fill-opacity: 0.8; stroke: #d3d3d3; stroke-opacity: 0.8"/>
    </g>
   </g>
   <g id="matplotlib.axis_1">
    <g id="xtick_1">
     <g id="line2d_1">
      <defs>
       <path id="m380c8ce686" d="M 0 0 
L 0 3.5 
" style="stroke: #000000; stroke-width: 0.8"/>
      </defs>
      <g>
       <use xlink:href="#m380c8ce686" x="147.323538" y="504" style="stroke: #000000; stroke-width: 0.8"/>
      </g>
     </g>
     <g id="text_1">
      <!-- −3 -->
      <g transform="translate(134.055569 524.677187)scale(0.18 -0.18)">
       <defs>
        <path id="DejaVuSans-2212" d="M 678 2272 
L 4684 2272 
L 4684 1741 
L 678 1741 
L 678 2272 
z
" transform="scale(0.015625)"/>
        <path id="DejaVuSans-33" d="M 2597 2516 
Q 3050 2419 3304 2112 
Q 3559 1806 3559 1356 
Q 3559 666 3084 287 
Q 2609 -91 1734 -91 
Q 1441 -91 1130 -33 
Q 819 25 488 141 
L 488 750 
Q 750 597 1062 519 
Q 1375 441 1716 441 
Q 2309 441 2620 675 
Q 2931 909 2931 1356 
Q 2931 1769 2642 2001 
Q 2353 2234 1838 2234 
L 1294 2234 
L 1294 2753 
L 1863 2753 
Q 2328 2753 2575 2939 
Q 2822 3125 2822 3475 
Q 2822 3834 2567 4026 
Q 2313 4219 1838 4219 
Q 1578 4219 1281 4162 
Q 984 4106 628 3988 
L 628 4550 
Q 988 4650 1302 4700 
Q 1616 4750 1894 4750 
Q 2613 4750 3031 4423 
Q 3450 4097 3450 3541 
Q 3450 3153 3228 2886 
Q 3006 2619 2597 2516 
z
" transform="scale(0.015625)"/>
       </defs>
       <use xlink:href="#DejaVuSans-2212"/>
       <use xlink:href="#DejaVuSans-33" x="83.789062"/>
      </g>
     </g>
    </g>
    <g id="xtick_2">
     <g id="line2d_2">
      <g>
       <use xlink:href="#m380c8ce686" x="245.815692" y="504" style="stroke: #000000; stroke-width: 0.8"/>
      </g>
     </g>
     <g id="text_2">
      <!-- −2 -->
      <g transform="translate(232.547723 524.677187)scale(0.18 -0.18)">
       <defs>
        <path id="DejaVuSans-32" d="M 1228 531 
L 3431 531 
L 3431 0 
L 469 0 
L 469 531 
Q 828 903 1448 1529 
Q 2069 2156 2228 2338 
Q 2531 2678 2651 2914 
Q 2772 3150 2772 3378 
Q 2772 3750 2511 3984 
Q 2250 4219 1831 4219 
Q 1534 4219 1204 4116 
Q 875 4013 500 3803 
L 500 4441 
Q 881 4594 1212 4672 
Q 1544 4750 1819 4750 
Q 2544 4750 2975 4387 
Q 3406 4025 3406 3419 
Q 3406 3131 3298 2873 
Q 3191 2616 2906 2266 
Q 2828 2175 2409 1742 
Q 1991 1309 1228 531 
z
" transform="scale(0.015625)"/>
       </defs>
       <use xlink:href="#DejaVuSans-2212"/>
       <use xlink:href="#DejaVuSans-32" x="83.789062"/>
      </g>
     </g>
    </g>
    <g id="xtick_3">
     <g id="line2d_3">
      <g>
       <use xlink:href="#m380c8ce686" x="344.307846" y="504" style="stroke: #000000; stroke-width: 0.8"/>
      </g>
     </g>
     <g id="text_3">
      <!-- −1 -->
      <g transform="translate(331.039877 524.677187)scale(0.18 -0.18)">
       <defs>
        <path id="DejaVuSans-31" d="M 794 531 
L 1825 531 
L 1825 4091 
L 703 3866 
L 703 4441 
L 1819 4666 
L 2450 4666 
L 2450 531 
L 3481 531 
L 3481 0 
L 794 0 
L 794 531 
z
" transform="scale(0.015625)"/>
       </defs>
       <use xlink:href="#DejaVuSans-2212"/>
       <use xlink:href="#DejaVuSans-31" x="83.789062"/>
      </g>
     </g>
    </g>
    <g id="xtick_4">
     <g id="line2d_4">
      <g>
       <use xlink:href="#m380c8ce686" x="442.8" y="504" style="stroke: #000000; stroke-width: 0.8"/>
      </g>
     </g>
     <g id="text_4">
      <!-- 0 -->
      <g transform="translate(437.07375 524.677187)scale(0.18 -0.18)">
       <defs>
        <path id="DejaVuSans-30" d="M 2034 4250 
Q 1547 4250 1301 3770 
Q 1056 3291 1056 2328 
Q 1056 1369 1301 889 
Q 1547 409 2034 409 
Q 2525 409 2770 889 
Q 3016 1369 3016 2328 
Q 3016 3291 2770 3770 
Q 2525 4250 2034 4250 
z
M 2034 4750 
Q 2819 4750 3233 4129 
Q 3647 3509 3647 2328 
Q 3647 1150 3233 529 
Q 2819 -91 2034 -91 
Q 1250 -91 836 529 
Q 422 1150 422 2328 
Q 422 3509 836 4129 
Q 1250 4750 2034 4750 
z
" transform="scale(0.015625)"/>
       </defs>
       <use xlink:href="#DejaVuSans-30"/>
      </g>
     </g>
    </g>
    <g id="xtick_5">
     <g id="line2d_5">
      <g>
       <use xlink:href="#m380c8ce686" x="541.292154" y="504" style="stroke: #000000; stroke-width: 0.8"/>
      </g>
     </g>
     <g id="text_5">
      <!-- 1 -->
      <g transform="translate(535.565904 524.677187)scale(0.18 -0.18)">
       <use xlink:href="#DejaVuSans-31"/>
      </g>
     </g>
    </g>
    <g id="xtick_6">
     <g id="line2d_6">
      <g>
       <use xlink:href="#m380c8ce686" x="639.784308" y="504" style="stroke: #000000; stroke-width: 0.8"/>
      </g>
     </g>
     <g id="text_6">
      <!-- 2 -->
      <g transform="translate(634.058058 524.677187)scale(0.18 -0.18)">
       <use xlink:href="#DejaVuSans-32"/>
      </g>
     </g>
    </g>
    <g id="xtick_7">
     <g id="line2d_7">
      <g>
       <use xlink:href="#m380c8ce686" x="738.276462" y="504" style="stroke: #000000; stroke-width: 0.8"/>
      </g>
     </g>
     <g id="text_7">
      <!-- 3 -->
      <g transform="translate(732.550212 524.677187)scale(0.18 -0.18)">
       <use xlink:href="#DejaVuSans-33"/>
      </g>
     </g>
    </g>
    <g id="text_8">
     <!-- $x/\sigma_m$ -->
     <g transform="translate(422.28 546.097813)scale(0.18 -0.18)">
      <defs>
       <path id="DejaVuSans-Oblique-78" d="M 3841 3500 
L 2234 1784 
L 3219 0 
L 2559 0 
L 1819 1388 
L 531 0 
L -166 0 
L 1556 1844 
L 641 3500 
L 1300 3500 
L 1972 2234 
L 3144 3500 
L 3841 3500 
z
" transform="scale(0.015625)"/>
       <path id="DejaVuSans-2f" d="M 1625 4666 
L 2156 4666 
L 531 -594 
L 0 -594 
L 1625 4666 
z
" transform="scale(0.015625)"/>
       <path id="DejaVuSans-Oblique-3c3" d="M 2219 3044 
Q 1744 3044 1422 2700 
Q 1081 2341 969 1747 
Q 844 1119 1044 756 
Q 1241 397 1706 397 
Q 2166 397 2503 759 
Q 2844 1122 2966 1747 
Q 3075 2319 2881 2700 
Q 2700 3044 2219 3044 
z
M 2309 3503 
L 4219 3500 
L 4106 2925 
L 3463 2925 
Q 3706 2438 3575 1747 
Q 3406 888 2884 400 
Q 2359 -91 1609 -91 
Q 856 -91 525 400 
Q 194 888 363 1747 
Q 528 2609 1050 3097 
Q 1484 3503 2309 3503 
z
" transform="scale(0.015625)"/>
       <path id="DejaVuSans-Oblique-6d" d="M 5747 2113 
L 5338 0 
L 4763 0 
L 5166 2094 
Q 5191 2228 5203 2325 
Q 5216 2422 5216 2491 
Q 5216 2772 5059 2928 
Q 4903 3084 4622 3084 
Q 4203 3084 3875 2770 
Q 3547 2456 3450 1953 
L 3066 0 
L 2491 0 
L 2900 2094 
Q 2925 2209 2937 2307 
Q 2950 2406 2950 2484 
Q 2950 2769 2794 2926 
Q 2638 3084 2363 3084 
Q 1938 3084 1609 2770 
Q 1281 2456 1184 1953 
L 800 0 
L 225 0 
L 909 3500 
L 1484 3500 
L 1375 2956 
Q 1609 3263 1923 3423 
Q 2238 3584 2597 3584 
Q 2978 3584 3223 3384 
Q 3469 3184 3519 2828 
Q 3781 3197 4126 3390 
Q 4472 3584 4856 3584 
Q 5306 3584 5551 3325 
Q 5797 3066 5797 2591 
Q 5797 2488 5784 2364 
Q 5772 2241 5747 2113 
z
" transform="scale(0.015625)"/>
      </defs>
      <use xlink:href="#DejaVuSans-Oblique-78" transform="translate(0 0.09375)"/>
      <use xlink:href="#DejaVuSans-2f" transform="translate(59.179688 0.09375)"/>
      <use xlink:href="#DejaVuSans-Oblique-3c3" transform="translate(92.871094 0.09375)"/>
      <use xlink:href="#DejaVuSans-Oblique-6d" transform="translate(156.25 -16.3125)scale(0.7)"/>
     </g>
    </g>
   </g>
   <g id="matplotlib.axis_2">
    <g id="ytick_1">
     <g id="line2d_8">
      <defs>
       <path id="mb74928880d" d="M 0 0 
L -3.5 0 
" style="stroke: #000000; stroke-width: 0.8"/>
      </defs>
      <g>
       <use xlink:href="#mb74928880d" x="108" y="484.232727" style="stroke: #000000; stroke-width: 0.8"/>
      </g>
     </g>
     <g id="text_9">
      <!-- 0.00 -->
      <g transform="translate(60.921875 491.071321)scale(0.18 -0.18)">
       <defs>
        <path id="DejaVuSans-2e" d="M 684 794 
L 1344 794 
L 1344 0 
L 684 0 
L 684 794 
z
" transform="scale(0.015625)"/>
       </defs>
       <use xlink:href="#DejaVuSans-30"/>
       <use xlink:href="#DejaVuSans-2e" x="63.623047"/>
       <use xlink:href="#DejaVuSans-30" x="95.410156"/>
       <use xlink:href="#DejaVuSans-30" x="159.033203"/>
      </g>
     </g>
    </g>
    <g id="ytick_2">
     <g id="line2d_9">
      <g>
       <use xlink:href="#mb74928880d" x="108" y="434.673317" style="stroke: #000000; stroke-width: 0.8"/>
      </g>
     </g>
     <g id="text_10">
      <!-- 0.05 -->
      <g transform="translate(60.921875 441.511911)scale(0.18 -0.18)">
       <defs>
        <path id="DejaVuSans-35" d="M 691 4666 
L 3169 4666 
L 3169 4134 
L 1269 4134 
L 1269 2991 
Q 1406 3038 1543 3061 
Q 1681 3084 1819 3084 
Q 2600 3084 3056 2656 
Q 3513 2228 3513 1497 
Q 3513 744 3044 326 
Q 2575 -91 1722 -91 
Q 1428 -91 1123 -41 
Q 819 9 494 109 
L 494 744 
Q 775 591 1075 516 
Q 1375 441 1709 441 
Q 2250 441 2565 725 
Q 2881 1009 2881 1497 
Q 2881 1984 2565 2268 
Q 2250 2553 1709 2553 
Q 1456 2553 1204 2497 
Q 953 2441 691 2322 
L 691 4666 
z
" transform="scale(0.015625)"/>
       </defs>
       <use xlink:href="#DejaVuSans-30"/>
       <use xlink:href="#DejaVuSans-2e" x="63.623047"/>
       <use xlink:href="#DejaVuSans-30" x="95.410156"/>
       <use xlink:href="#DejaVuSans-35" x="159.033203"/>
      </g>
     </g>
    </g>
    <g id="ytick_3">
     <g id="line2d_10">
      <g>
       <use xlink:href="#mb74928880d" x="108" y="385.113907" style="stroke: #000000; stroke-width: 0.8"/>
      </g>
     </g>
     <g id="text_11">
      <!-- 0.10 -->
      <g transform="translate(60.921875 391.952501)scale(0.18 -0.18)">
       <use xlink:href="#DejaVuSans-30"/>
       <use xlink:href="#DejaVuSans-2e" x="63.623047"/>
       <use xlink:href="#DejaVuSans-31" x="95.410156"/>
       <use xlink:href="#DejaVuSans-30" x="159.033203"/>
      </g>
     </g>
    </g>
    <g id="ytick_4">
     <g id="line2d_11">
      <g>
       <use xlink:href="#mb74928880d" x="108" y="335.554497" style="stroke: #000000; stroke-width: 0.8"/>
      </g>
     </g>
     <g id="text_12">
      <!-- 0.15 -->
      <g transform="translate(60.921875 342.39309)scale(0.18 -0.18)">
       <use xlink:href="#DejaVuSans-30"/>
       <use xlink:href="#DejaVuSans-2e" x="63.623047"/>
       <use xlink:href="#DejaVuSans-31" x="95.410156"/>
       <use xlink:href="#DejaVuSans-35" x="159.033203"/>
      </g>
     </g>
    </g>
    <g id="ytick_5">
     <g id="line2d_12">
      <g>
       <use xlink:href="#mb74928880d" x="108" y="285.995087" style="stroke: #000000; stroke-width: 0.8"/>
      </g>
     </g>
     <g id="text_13">
      <!-- 0.20 -->
      <g transform="translate(60.921875 292.83368)scale(0.18 -0.18)">
       <use xlink:href="#DejaVuSans-30"/>
       <use xlink:href="#DejaVuSans-2e" x="63.623047"/>
       <use xlink:href="#DejaVuSans-32" x="95.410156"/>
       <use xlink:href="#DejaVuSans-30" x="159.033203"/>
      </g>
     </g>
    </g>
    <g id="ytick_6">
     <g id="line2d_13">
      <g>
       <use xlink:href="#mb74928880d" x="108" y="236.435676" style="stroke: #000000; stroke-width: 0.8"/>
      </g>
     </g>
     <g id="text_14">
      <!-- 0.25 -->
      <g transform="translate(60.921875 243.27427)scale(0.18 -0.18)">
       <use xlink:href="#DejaVuSans-30"/>
       <use xlink:href="#DejaVuSans-2e" x="63.623047"/>
       <use xlink:href="#DejaVuSans-32" x="95.410156"/>
       <use xlink:href="#DejaVuSans-35" x="159.033203"/>
      </g>
     </g>
    </g>
    <g id="ytick_7">
     <g id="line2d_14">
      <g>
       <use xlink:href="#mb74928880d" x="108" y="186.876266" style="stroke: #000000; stroke-width: 0.8"/>
      </g>
     </g>
     <g id="text_15">
      <!-- 0.30 -->
      <g transform="translate(60.921875 193.71486)scale(0.18 -0.18)">
       <use xlink:href="#DejaVuSans-30"/>
       <use xlink:href="#DejaVuSans-2e" x="63.623047"/>
       <use xlink:href="#DejaVuSans-33" x="95.410156"/>
       <use xlink:href="#DejaVuSans-30" x="159.033203"/>
      </g>
     </g>
    </g>
    <g id="ytick_8">
     <g id="line2d_15">
      <g>
       <use xlink:href="#mb74928880d" x="108" y="137.316856" style="stroke: #000000; stroke-width: 0.8"/>
      </g>
     </g>
     <g id="text_16">
      <!-- 0.35 -->
      <g transform="translate(60.921875 144.15545)scale(0.18 -0.18)">
       <use xlink:href="#DejaVuSans-30"/>
       <use xlink:href="#DejaVuSans-2e" x="63.623047"/>
       <use xlink:href="#DejaVuSans-33" x="95.410156"/>
       <use xlink:href="#DejaVuSans-35" x="159.033203"/>
      </g>
     </g>
    </g>
    <g id="ytick_9">
     <g id="line2d_16">
      <g>
       <use xlink:href="#mb74928880d" x="108" y="87.757446" style="stroke: #000000; stroke-width: 0.8"/>
      </g>
     </g>
     <g id="text_17">
      <!-- 0.40 -->
      <g transform="translate(60.921875 94.59604)scale(0.18 -0.18)">
       <defs>
        <path id="DejaVuSans-34" d="M 2419 4116 
L 825 1625 
L 2419 1625 
L 2419 4116 
z
M 2253 4666 
L 3047 4666 
L 3047 1625 
L 3713 1625 
L 3713 1100 
L 3047 1100 
L 3047 0 
L 2419 0 
L 2419 1100 
L 313 1100 
L 313 1709 
L 2253 4666 
z
" transform="scale(0.015625)"/>
       </defs>
       <use xlink:href="#DejaVuSans-30"/>
       <use xlink:href="#DejaVuSans-2e" x="63.623047"/>
       <use xlink:href="#DejaVuSans-34" x="95.410156"/>
       <use xlink:href="#DejaVuSans-30" x="159.033203"/>
      </g>
     </g>
    </g>
    <g id="text_18">
     <!-- $G(x;\mu,\sigma_m)$ -->
     <g transform="translate(53.141875 333.18)rotate(-90)scale(0.18 -0.18)">
      <defs>
       <path id="DejaVuSans-Oblique-47" d="M 3494 697 
L 3738 1919 
L 2700 1919 
L 2797 2438 
L 4453 2438 
L 4050 384 
Q 3634 156 3143 32 
Q 2653 -91 2156 -91 
Q 1278 -91 783 396 
Q 288 884 288 1753 
Q 288 2475 589 3126 
Q 891 3778 1422 4213 
Q 1756 4484 2153 4617 
Q 2550 4750 3034 4750 
Q 3472 4750 3873 4639 
Q 4275 4528 4641 4306 
L 4513 3634 
Q 4231 3928 3853 4083 
Q 3475 4238 3047 4238 
Q 2550 4238 2172 4048 
Q 1794 3859 1497 3463 
Q 1244 3125 1098 2667 
Q 953 2209 953 1734 
Q 953 1081 1287 751 
Q 1622 422 2284 422 
Q 2616 422 2925 492 
Q 3234 563 3494 697 
z
" transform="scale(0.015625)"/>
       <path id="DejaVuSans-28" d="M 1984 4856 
Q 1566 4138 1362 3434 
Q 1159 2731 1159 2009 
Q 1159 1288 1364 580 
Q 1569 -128 1984 -844 
L 1484 -844 
Q 1016 -109 783 600 
Q 550 1309 550 2009 
Q 550 2706 781 3412 
Q 1013 4119 1484 4856 
L 1984 4856 
z
" transform="scale(0.015625)"/>
       <path id="DejaVuSans-3b" d="M 750 3309 
L 1409 3309 
L 1409 2516 
L 750 2516 
L 750 3309 
z
M 750 794 
L 1409 794 
L 1409 256 
L 897 -744 
L 494 -744 
L 750 256 
L 750 794 
z
" transform="scale(0.015625)"/>
       <path id="DejaVuSans-Oblique-3bc" d="M -84 -1331 
L 856 3500 
L 1434 3500 
L 1009 1322 
Q 997 1256 987 1175 
Q 978 1094 978 1013 
Q 978 722 1161 565 
Q 1344 409 1684 409 
Q 2147 409 2431 671 
Q 2716 934 2816 1459 
L 3213 3500 
L 3788 3500 
L 3266 809 
Q 3253 750 3248 706 
Q 3244 663 3244 628 
Q 3244 531 3283 486 
Q 3322 441 3406 441 
Q 3438 441 3492 456 
Q 3547 472 3647 513 
L 3559 50 
Q 3422 -19 3297 -55 
Q 3172 -91 3053 -91 
Q 2847 -91 2730 40 
Q 2613 172 2613 403 
Q 2438 153 2195 31 
Q 1953 -91 1625 -91 
Q 1334 -91 1117 43 
Q 900 178 831 397 
L 494 -1331 
L -84 -1331 
z
" transform="scale(0.015625)"/>
       <path id="DejaVuSans-2c" d="M 750 794 
L 1409 794 
L 1409 256 
L 897 -744 
L 494 -744 
L 750 256 
L 750 794 
z
" transform="scale(0.015625)"/>
       <path id="DejaVuSans-29" d="M 513 4856 
L 1013 4856 
Q 1481 4119 1714 3412 
Q 1947 2706 1947 2009 
Q 1947 1309 1714 600 
Q 1481 -109 1013 -844 
L 513 -844 
Q 928 -128 1133 580 
Q 1338 1288 1338 2009 
Q 1338 2731 1133 3434 
Q 928 4138 513 4856 
z
" transform="scale(0.015625)"/>
      </defs>
      <use xlink:href="#DejaVuSans-Oblique-47" transform="translate(0 0.125)"/>
      <use xlink:href="#DejaVuSans-28" transform="translate(77.490234 0.125)"/>
      <use xlink:href="#DejaVuSans-Oblique-78" transform="translate(116.503906 0.125)"/>
      <use xlink:href="#DejaVuSans-3b" transform="translate(175.683594 0.125)"/>
      <use xlink:href="#DejaVuSans-Oblique-3bc" transform="translate(228.857422 0.125)"/>
      <use xlink:href="#DejaVuSans-2c" transform="translate(292.480469 0.125)"/>
      <use xlink:href="#DejaVuSans-Oblique-3c3" transform="translate(343.75 0.125)"/>
      <use xlink:href="#DejaVuSans-Oblique-6d" transform="translate(407.128906 -16.28125)scale(0.7)"/>
      <use xlink:href="#DejaVuSans-29" transform="translate(478.051758 0.125)"/>
     </g>
    </g>
   </g>
   <g id="line2d_17">
    <path d="M 138.436364 480.895307 
L 144.585124 480.193032 
L 150.733884 479.362001 
L 156.882645 478.382856 
L 163.031405 477.234207 
L 169.180165 475.892583 
L 175.328926 474.33243 
L 181.477686 472.526139 
L 187.626446 470.444137 
L 193.775207 468.055028 
L 199.923967 465.325796 
L 206.072727 462.222085 
L 212.221488 458.708548 
L 218.370248 454.74928 
L 224.519008 450.308332 
L 230.667769 445.350301 
L 236.816529 439.841004 
L 242.965289 433.748229 
L 249.11405 427.042546 
L 255.26281 419.698176 
L 261.41157 411.693904 
L 267.560331 403.014012 
L 273.709091 393.649224 
L 279.857851 383.597622 
L 286.006612 372.86553 
L 292.155372 361.46832 
L 298.304132 349.431129 
L 304.452893 336.789439 
L 310.601653 323.589521 
L 316.750413 309.888684 
L 322.899174 295.755338 
L 329.047934 281.26883 
L 335.196694 266.519046 
L 341.345455 251.605769 
L 347.494215 236.637792 
L 353.642975 221.731786 
L 359.791736 207.010937 
L 365.940496 192.603359 
L 372.089256 178.640332 
L 378.238017 165.254367 
L 384.386777 152.577159 
L 390.535537 140.73746 
L 396.684298 129.85892 
L 402.833058 120.057949 
L 408.981818 111.441651 
L 415.130579 104.10588 
L 421.279339 98.133465 
L 427.428099 93.592654 
L 433.57686 90.535816 
L 439.72562 88.998439 
L 445.87438 88.998439 
L 452.02314 90.535816 
L 458.171901 93.592654 
L 464.320661 98.133465 
L 470.469421 104.10588 
L 476.618182 111.441651 
L 482.766942 120.057949 
L 488.915702 129.85892 
L 495.064463 140.73746 
L 501.213223 152.577159 
L 507.361983 165.254367 
L 513.510744 178.640332 
L 519.659504 192.603359 
L 525.808264 207.010937 
L 531.957025 221.731786 
L 538.105785 236.637792 
L 544.254545 251.605769 
L 550.403306 266.519046 
L 556.552066 281.26883 
L 562.700826 295.755338 
L 568.849587 309.888684 
L 574.998347 323.589521 
L 581.147107 336.789439 
L 587.295868 349.431129 
L 593.444628 361.46832 
L 599.593388 372.86553 
L 605.742149 383.597622 
L 611.890909 393.649224 
L 618.039669 403.014012 
L 624.18843 411.693904 
L 630.33719 419.698176 
L 636.48595 427.042546 
L 642.634711 433.748229 
L 648.783471 439.841004 
L 654.932231 445.350301 
L 661.080992 450.308332 
L 667.229752 454.74928 
L 673.378512 458.708548 
L 679.527273 462.222085 
L 685.676033 465.325796 
L 691.824793 468.055028 
L 697.973554 470.444137 
L 704.122314 472.526139 
L 710.271074 474.33243 
L 716.419835 475.892583 
L 722.568595 477.234207 
L 728.717355 478.382856 
L 734.866116 479.362001 
L 741.014876 480.193032 
L 747.163636 480.895307 
" clip-path="url(#p51f6ebac7d)" style="fill: none; stroke: #0000ff; stroke-opacity: 0.4; stroke-width: 5; stroke-linecap: square"/>
   </g>
   <g id="patch_3">
    <path d="M 108 504 
L 108 69.12 
" style="fill: none; stroke: #000000; stroke-width: 0.8; stroke-linejoin: miter; stroke-linecap: square"/>
   </g>
   <g id="patch_4">
    <path d="M 777.6 504 
L 777.6 69.12 
" style="fill: none; stroke: #000000; stroke-width: 0.8; stroke-linejoin: miter; stroke-linecap: square"/>
   </g>
   <g id="patch_5">
    <path d="M 108 504 
L 777.6 504 
" style="fill: none; stroke: #000000; stroke-width: 0.8; stroke-linejoin: miter; stroke-linecap: square"/>
   </g>
   <g id="patch_6">
    <path d="M 108 69.12 
L 777.6 69.12 
" style="fill: none; stroke: #000000; stroke-width: 0.8; stroke-linejoin: miter; stroke-linecap: square"/>
   </g>
   <g id="text_19">
    <!-- 68 % -->
    <g transform="translate(432.950785 385.113907)scale(0.18 -0.18)">
     <defs>
      <path id="DejaVuSans-36" d="M 2113 2584 
Q 1688 2584 1439 2293 
Q 1191 2003 1191 1497 
Q 1191 994 1439 701 
Q 1688 409 2113 409 
Q 2538 409 2786 701 
Q 3034 994 3034 1497 
Q 3034 2003 2786 2293 
Q 2538 2584 2113 2584 
z
M 3366 4563 
L 3366 3988 
Q 3128 4100 2886 4159 
Q 2644 4219 2406 4219 
Q 1781 4219 1451 3797 
Q 1122 3375 1075 2522 
Q 1259 2794 1537 2939 
Q 1816 3084 2150 3084 
Q 2853 3084 3261 2657 
Q 3669 2231 3669 1497 
Q 3669 778 3244 343 
Q 2819 -91 2113 -91 
Q 1303 -91 875 529 
Q 447 1150 447 2328 
Q 447 3434 972 4092 
Q 1497 4750 2381 4750 
Q 2619 4750 2861 4703 
Q 3103 4656 3366 4563 
z
" transform="scale(0.015625)"/>
      <path id="DejaVuSans-38" d="M 2034 2216 
Q 1584 2216 1326 1975 
Q 1069 1734 1069 1313 
Q 1069 891 1326 650 
Q 1584 409 2034 409 
Q 2484 409 2743 651 
Q 3003 894 3003 1313 
Q 3003 1734 2745 1975 
Q 2488 2216 2034 2216 
z
M 1403 2484 
Q 997 2584 770 2862 
Q 544 3141 544 3541 
Q 544 4100 942 4425 
Q 1341 4750 2034 4750 
Q 2731 4750 3128 4425 
Q 3525 4100 3525 3541 
Q 3525 3141 3298 2862 
Q 3072 2584 2669 2484 
Q 3125 2378 3379 2068 
Q 3634 1759 3634 1313 
Q 3634 634 3220 271 
Q 2806 -91 2034 -91 
Q 1263 -91 848 271 
Q 434 634 434 1313 
Q 434 1759 690 2068 
Q 947 2378 1403 2484 
z
M 1172 3481 
Q 1172 3119 1398 2916 
Q 1625 2713 2034 2713 
Q 2441 2713 2670 2916 
Q 2900 3119 2900 3481 
Q 2900 3844 2670 4047 
Q 2441 4250 2034 4250 
Q 1625 4250 1398 4047 
Q 1172 3844 1172 3481 
z
" transform="scale(0.015625)"/>
      <path id="DejaVuSans-20" transform="scale(0.015625)"/>
      <path id="DejaVuSans-25" d="M 4653 2053 
Q 4381 2053 4226 1822 
Q 4072 1591 4072 1178 
Q 4072 772 4226 539 
Q 4381 306 4653 306 
Q 4919 306 5073 539 
Q 5228 772 5228 1178 
Q 5228 1588 5073 1820 
Q 4919 2053 4653 2053 
z
M 4653 2450 
Q 5147 2450 5437 2106 
Q 5728 1763 5728 1178 
Q 5728 594 5436 251 
Q 5144 -91 4653 -91 
Q 4153 -91 3862 251 
Q 3572 594 3572 1178 
Q 3572 1766 3864 2108 
Q 4156 2450 4653 2450 
z
M 1428 4353 
Q 1159 4353 1004 4120 
Q 850 3888 850 3481 
Q 850 3069 1003 2837 
Q 1156 2606 1428 2606 
Q 1700 2606 1854 2837 
Q 2009 3069 2009 3481 
Q 2009 3884 1853 4118 
Q 1697 4353 1428 4353 
z
M 4250 4750 
L 4750 4750 
L 1831 -91 
L 1331 -91 
L 4250 4750 
z
M 1428 4750 
Q 1922 4750 2215 4408 
Q 2509 4066 2509 3481 
Q 2509 2891 2217 2550 
Q 1925 2209 1428 2209 
Q 931 2209 642 2551 
Q 353 2894 353 3481 
Q 353 4063 643 4406 
Q 934 4750 1428 4750 
z
" transform="scale(0.015625)"/>
     </defs>
     <use xlink:href="#DejaVuSans-36"/>
     <use xlink:href="#DejaVuSans-38" x="63.623047"/>
     <use xlink:href="#DejaVuSans-20" x="127.246094"/>
     <use xlink:href="#DejaVuSans-25" x="159.033203"/>
    </g>
   </g>
   <g id="text_20">
    <!-- 13.5 % -->
    <g transform="translate(265.514123 434.673317)scale(0.18 -0.18)">
     <use xlink:href="#DejaVuSans-31"/>
     <use xlink:href="#DejaVuSans-33" x="63.623047"/>
     <use xlink:href="#DejaVuSans-2e" x="127.246094"/>
     <use xlink:href="#DejaVuSans-35" x="159.033203"/>
     <use xlink:href="#DejaVuSans-20" x="222.65625"/>
     <use xlink:href="#DejaVuSans-25" x="254.443359"/>
    </g>
   </g>
   <g id="text_21">
    <!-- 13.5 % -->
    <g transform="translate(560.990585 434.673317)scale(0.18 -0.18)">
     <use xlink:href="#DejaVuSans-31"/>
     <use xlink:href="#DejaVuSans-33" x="63.623047"/>
     <use xlink:href="#DejaVuSans-2e" x="127.246094"/>
     <use xlink:href="#DejaVuSans-35" x="159.033203"/>
     <use xlink:href="#DejaVuSans-20" x="222.65625"/>
     <use xlink:href="#DejaVuSans-25" x="254.443359"/>
    </g>
   </g>
   <g id="text_22">
    <!-- 2.35 % -->
    <g transform="translate(186.720399 484.232727)scale(0.18 -0.18)">
     <use xlink:href="#DejaVuSans-32"/>
     <use xlink:href="#DejaVuSans-2e" x="63.623047"/>
     <use xlink:href="#DejaVuSans-33" x="95.410156"/>
     <use xlink:href="#DejaVuSans-35" x="159.033203"/>
     <use xlink:href="#DejaVuSans-20" x="222.65625"/>
     <use xlink:href="#DejaVuSans-25" x="254.443359"/>
    </g>
   </g>
   <g id="text_23">
    <!-- 2.35 % -->
    <g transform="translate(641.754151 484.232727)scale(0.18 -0.18)">
     <use xlink:href="#DejaVuSans-32"/>
     <use xlink:href="#DejaVuSans-2e" x="63.623047"/>
     <use xlink:href="#DejaVuSans-33" x="95.410156"/>
     <use xlink:href="#DejaVuSans-35" x="159.033203"/>
     <use xlink:href="#DejaVuSans-20" x="222.65625"/>
     <use xlink:href="#DejaVuSans-25" x="254.443359"/>
    </g>
   </g>
  </g>
 </g>
 <defs>
  <clipPath id="p51f6ebac7d">
   <rect x="108" y="69.12" width="669.6" height="434.88"/>
  </clipPath>
 </defs>
</svg>
