<?xml version="1.0" encoding="utf-8" standalone="no"?>
<!DOCTYPE svg PUBLIC "-//W3C//DTD SVG 1.1//EN"
  "http://www.w3.org/Graphics/SVG/1.1/DTD/svg11.dtd">
<svg xmlns:xlink="http://www.w3.org/1999/xlink" width="1584pt" height="1296pt" viewBox="0 0 1584 1296" xmlns="http://www.w3.org/2000/svg" version="1.1">
 <metadata>
  <rdf:RDF xmlns:dc="http://purl.org/dc/elements/1.1/" xmlns:cc="http://creativecommons.org/ns#" xmlns:rdf="http://www.w3.org/1999/02/22-rdf-syntax-ns#">
   <cc:Work>
    <dc:type rdf:resource="http://purl.org/dc/dcmitype/StillImage"/>
    <dc:date>2023-02-16T17:40:02.112265</dc:date>
    <dc:format>image/svg+xml</dc:format>
    <dc:creator>
     <cc:Agent>
      <dc:title>Matplotlib v3.5.1, https://matplotlib.org/</dc:title>
     </cc:Agent>
    </dc:creator>
   </cc:Work>
  </rdf:RDF>
 </metadata>
 <defs>
  <style type="text/css">*{stroke-linejoin: round; stroke-linecap: butt}</style>
 </defs>
 <g id="figure_1">
  <g id="patch_1">
   <path d="M 0 1296 
L 1584 1296 
L 1584 0 
L 0 0 
L 0 1296 
z
" style="fill: none"/>
  </g>
  <g id="axes_1">
   <g id="patch_2">
    <path d="M 198 443.308235 
L 559.058824 443.308235 
L 559.058824 155.52 
L 198 155.52 
z
" style="fill: #ffffff"/>
   </g>
   <g id="patch_3">
    <path d="M 215.043271 443.308235 
L 215.043271 260.585546 
L 231.398896 260.585546 
L 231.398896 223.210451 
L 247.754521 223.210451 
L 247.754521 256.432758 
L 264.110146 256.432758 
L 264.110146 214.904874 
L 280.465772 214.904874 
L 280.465772 198.29372 
L 296.821397 198.29372 
L 296.821397 210.752086 
L 313.177022 210.752086 
L 313.177022 214.904874 
L 329.532647 214.904874 
L 329.532647 235.668816 
L 345.888273 235.668816 
L 345.888273 169.224202 
L 362.243898 169.224202 
L 362.243898 227.363239 
L 378.599523 227.363239 
L 378.599523 206.599297 
L 394.955149 206.599297 
L 394.955149 252.279969 
L 411.310774 252.279969 
L 411.310774 239.821604 
L 427.666399 239.821604 
L 427.666399 273.043911 
L 444.022024 273.043911 
L 444.022024 243.974393 
L 460.37765 243.974393 
L 460.37765 314.571795 
L 476.733275 314.571795 
L 476.733275 260.585546 
L 493.0889 260.585546 
L 493.0889 264.738335 
L 509.444526 264.738335 
L 509.444526 202.446509 
L 525.800151 202.446509 
L 525.800151 243.974393 
L 542.155776 243.974393 
L 542.155776 443.308235 
L 525.800151 443.308235 
L 525.800151 443.308235 
L 509.444526 443.308235 
L 509.444526 443.308235 
L 493.0889 443.308235 
L 493.0889 443.308235 
L 476.733275 443.308235 
L 476.733275 443.308235 
L 460.37765 443.308235 
L 460.37765 443.308235 
L 444.022024 443.308235 
L 444.022024 443.308235 
L 427.666399 443.308235 
L 427.666399 443.308235 
L 411.310774 443.308235 
L 411.310774 443.308235 
L 394.955149 443.308235 
L 394.955149 443.308235 
L 378.599523 443.308235 
L 378.599523 443.308235 
L 362.243898 443.308235 
L 362.243898 443.308235 
L 345.888273 443.308235 
L 345.888273 443.308235 
L 329.532647 443.308235 
L 329.532647 443.308235 
L 313.177022 443.308235 
L 313.177022 443.308235 
L 296.821397 443.308235 
L 296.821397 443.308235 
L 280.465772 443.308235 
L 280.465772 443.308235 
L 264.110146 443.308235 
L 264.110146 443.308235 
L 247.754521 443.308235 
L 247.754521 443.308235 
L 231.398896 443.308235 
L 231.398896 443.308235 
z
" clip-path="url(#p77457ed219)" style="fill: #c0c0c0; opacity: 0.5"/>
   </g>
   <g id="matplotlib.axis_1">
    <g id="xtick_1">
     <g id="line2d_1">
      <defs>
       <path id="m8de48e0731" d="M 0 0 
L 0 3.5 
" style="stroke: #000000; stroke-width: 0.8"/>
      </defs>
      <g>
       <use xlink:href="#m8de48e0731" x="264.825371" y="443.308235" style="stroke: #000000; stroke-width: 0.8"/>
      </g>
     </g>
     <g id="text_1">
      <!-- 1.5 -->
      <g transform="translate(248.922246 465.50511)scale(0.2 -0.2)">
       <defs>
        <path id="DejaVuSans-31" d="M 794 531 
L 1825 531 
L 1825 4091 
L 703 3866 
L 703 4441 
L 1819 4666 
L 2450 4666 
L 2450 531 
L 3481 531 
L 3481 0 
L 794 0 
L 794 531 
z
" transform="scale(0.015625)"/>
        <path id="DejaVuSans-2e" d="M 684 794 
L 1344 794 
L 1344 0 
L 684 0 
L 684 794 
z
" transform="scale(0.015625)"/>
        <path id="DejaVuSans-35" d="M 691 4666 
L 3169 4666 
L 3169 4134 
L 1269 4134 
L 1269 2991 
Q 1406 3038 1543 3061 
Q 1681 3084 1819 3084 
Q 2600 3084 3056 2656 
Q 3513 2228 3513 1497 
Q 3513 744 3044 326 
Q 2575 -91 1722 -91 
Q 1428 -91 1123 -41 
Q 819 9 494 109 
L 494 744 
Q 775 591 1075 516 
Q 1375 441 1709 441 
Q 2250 441 2565 725 
Q 2881 1009 2881 1497 
Q 2881 1984 2565 2268 
Q 2250 2553 1709 2553 
Q 1456 2553 1204 2497 
Q 953 2441 691 2322 
L 691 4666 
z
" transform="scale(0.015625)"/>
       </defs>
       <use xlink:href="#DejaVuSans-31"/>
       <use xlink:href="#DejaVuSans-2e" x="63.623047"/>
       <use xlink:href="#DejaVuSans-35" x="95.410156"/>
      </g>
     </g>
    </g>
    <g id="xtick_2">
     <g id="line2d_2">
      <g>
       <use xlink:href="#m8de48e0731" x="359.578738" y="443.308235" style="stroke: #000000; stroke-width: 0.8"/>
      </g>
     </g>
     <g id="text_2">
      <!-- 2.0 -->
      <g transform="translate(343.675613 465.50511)scale(0.2 -0.2)">
       <defs>
        <path id="DejaVuSans-32" d="M 1228 531 
L 3431 531 
L 3431 0 
L 469 0 
L 469 531 
Q 828 903 1448 1529 
Q 2069 2156 2228 2338 
Q 2531 2678 2651 2914 
Q 2772 3150 2772 3378 
Q 2772 3750 2511 3984 
Q 2250 4219 1831 4219 
Q 1534 4219 1204 4116 
Q 875 4013 500 3803 
L 500 4441 
Q 881 4594 1212 4672 
Q 1544 4750 1819 4750 
Q 2544 4750 2975 4387 
Q 3406 4025 3406 3419 
Q 3406 3131 3298 2873 
Q 3191 2616 2906 2266 
Q 2828 2175 2409 1742 
Q 1991 1309 1228 531 
z
" transform="scale(0.015625)"/>
        <path id="DejaVuSans-30" d="M 2034 4250 
Q 1547 4250 1301 3770 
Q 1056 3291 1056 2328 
Q 1056 1369 1301 889 
Q 1547 409 2034 409 
Q 2525 409 2770 889 
Q 3016 1369 3016 2328 
Q 3016 3291 2770 3770 
Q 2525 4250 2034 4250 
z
M 2034 4750 
Q 2819 4750 3233 4129 
Q 3647 3509 3647 2328 
Q 3647 1150 3233 529 
Q 2819 -91 2034 -91 
Q 1250 -91 836 529 
Q 422 1150 422 2328 
Q 422 3509 836 4129 
Q 1250 4750 2034 4750 
z
" transform="scale(0.015625)"/>
       </defs>
       <use xlink:href="#DejaVuSans-32"/>
       <use xlink:href="#DejaVuSans-2e" x="63.623047"/>
       <use xlink:href="#DejaVuSans-30" x="95.410156"/>
      </g>
     </g>
    </g>
    <g id="xtick_3">
     <g id="line2d_3">
      <g>
       <use xlink:href="#m8de48e0731" x="454.332106" y="443.308235" style="stroke: #000000; stroke-width: 0.8"/>
      </g>
     </g>
     <g id="text_3">
      <!-- 2.5 -->
      <g transform="translate(438.428981 465.50511)scale(0.2 -0.2)">
       <use xlink:href="#DejaVuSans-32"/>
       <use xlink:href="#DejaVuSans-2e" x="63.623047"/>
       <use xlink:href="#DejaVuSans-35" x="95.410156"/>
      </g>
     </g>
    </g>
    <g id="xtick_4">
     <g id="line2d_4">
      <g>
       <use xlink:href="#m8de48e0731" x="549.085474" y="443.308235" style="stroke: #000000; stroke-width: 0.8"/>
      </g>
     </g>
     <g id="text_4">
      <!-- 3.0 -->
      <g transform="translate(533.182349 465.50511)scale(0.2 -0.2)">
       <defs>
        <path id="DejaVuSans-33" d="M 2597 2516 
Q 3050 2419 3304 2112 
Q 3559 1806 3559 1356 
Q 3559 666 3084 287 
Q 2609 -91 1734 -91 
Q 1441 -91 1130 -33 
Q 819 25 488 141 
L 488 750 
Q 750 597 1062 519 
Q 1375 441 1716 441 
Q 2309 441 2620 675 
Q 2931 909 2931 1356 
Q 2931 1769 2642 2001 
Q 2353 2234 1838 2234 
L 1294 2234 
L 1294 2753 
L 1863 2753 
Q 2328 2753 2575 2939 
Q 2822 3125 2822 3475 
Q 2822 3834 2567 4026 
Q 2313 4219 1838 4219 
Q 1578 4219 1281 4162 
Q 984 4106 628 3988 
L 628 4550 
Q 988 4650 1302 4700 
Q 1616 4750 1894 4750 
Q 2613 4750 3031 4423 
Q 3450 4097 3450 3541 
Q 3450 3153 3228 2886 
Q 3006 2619 2597 2516 
z
" transform="scale(0.015625)"/>
       </defs>
       <use xlink:href="#DejaVuSans-33"/>
       <use xlink:href="#DejaVuSans-2e" x="63.623047"/>
       <use xlink:href="#DejaVuSans-30" x="95.410156"/>
      </g>
     </g>
    </g>
    <g id="text_5">
     <!-- $x$ -->
     <g transform="translate(372.529412 488.86136)scale(0.2 -0.2)">
      <defs>
       <path id="DejaVuSans-Oblique-78" d="M 3841 3500 
L 2234 1784 
L 3219 0 
L 2559 0 
L 1819 1388 
L 531 0 
L -166 0 
L 1556 1844 
L 641 3500 
L 1300 3500 
L 1972 2234 
L 3144 3500 
L 3841 3500 
z
" transform="scale(0.015625)"/>
      </defs>
      <use xlink:href="#DejaVuSans-Oblique-78" transform="translate(0 0.3125)"/>
     </g>
    </g>
   </g>
   <g id="matplotlib.axis_2">
    <g id="ytick_1">
     <g id="line2d_5">
      <defs>
       <path id="mc04a483fc7" d="M 0 0 
L -3.5 0 
" style="stroke: #000000; stroke-width: 0.8"/>
      </defs>
      <g>
       <use xlink:href="#mc04a483fc7" x="198" y="443.308235" style="stroke: #000000; stroke-width: 0.8"/>
      </g>
     </g>
     <g id="text_6">
      <!-- 0 -->
      <g transform="translate(178.275 450.906673)scale(0.2 -0.2)">
       <use xlink:href="#DejaVuSans-30"/>
      </g>
     </g>
    </g>
    <g id="ytick_2">
     <g id="line2d_6">
      <g>
       <use xlink:href="#mc04a483fc7" x="198" y="401.780351" style="stroke: #000000; stroke-width: 0.8"/>
      </g>
     </g>
     <g id="text_7">
      <!-- 10 -->
      <g transform="translate(165.55 409.378789)scale(0.2 -0.2)">
       <use xlink:href="#DejaVuSans-31"/>
       <use xlink:href="#DejaVuSans-30" x="63.623047"/>
      </g>
     </g>
    </g>
    <g id="ytick_3">
     <g id="line2d_7">
      <g>
       <use xlink:href="#mc04a483fc7" x="198" y="360.252468" style="stroke: #000000; stroke-width: 0.8"/>
      </g>
     </g>
     <g id="text_8">
      <!-- 20 -->
      <g transform="translate(165.55 367.850905)scale(0.2 -0.2)">
       <use xlink:href="#DejaVuSans-32"/>
       <use xlink:href="#DejaVuSans-30" x="63.623047"/>
      </g>
     </g>
    </g>
    <g id="ytick_4">
     <g id="line2d_8">
      <g>
       <use xlink:href="#mc04a483fc7" x="198" y="318.724584" style="stroke: #000000; stroke-width: 0.8"/>
      </g>
     </g>
     <g id="text_9">
      <!-- 30 -->
      <g transform="translate(165.55 326.323021)scale(0.2 -0.2)">
       <use xlink:href="#DejaVuSans-33"/>
       <use xlink:href="#DejaVuSans-30" x="63.623047"/>
      </g>
     </g>
    </g>
    <g id="ytick_5">
     <g id="line2d_9">
      <g>
       <use xlink:href="#mc04a483fc7" x="198" y="277.1967" style="stroke: #000000; stroke-width: 0.8"/>
      </g>
     </g>
     <g id="text_10">
      <!-- 40 -->
      <g transform="translate(165.55 284.795137)scale(0.2 -0.2)">
       <defs>
        <path id="DejaVuSans-34" d="M 2419 4116 
L 825 1625 
L 2419 1625 
L 2419 4116 
z
M 2253 4666 
L 3047 4666 
L 3047 1625 
L 3713 1625 
L 3713 1100 
L 3047 1100 
L 3047 0 
L 2419 0 
L 2419 1100 
L 313 1100 
L 313 1709 
L 2253 4666 
z
" transform="scale(0.015625)"/>
       </defs>
       <use xlink:href="#DejaVuSans-34"/>
       <use xlink:href="#DejaVuSans-30" x="63.623047"/>
      </g>
     </g>
    </g>
    <g id="ytick_6">
     <g id="line2d_10">
      <g>
       <use xlink:href="#mc04a483fc7" x="198" y="235.668816" style="stroke: #000000; stroke-width: 0.8"/>
      </g>
     </g>
     <g id="text_11">
      <!-- 50 -->
      <g transform="translate(165.55 243.267253)scale(0.2 -0.2)">
       <use xlink:href="#DejaVuSans-35"/>
       <use xlink:href="#DejaVuSans-30" x="63.623047"/>
      </g>
     </g>
    </g>
    <g id="ytick_7">
     <g id="line2d_11">
      <g>
       <use xlink:href="#mc04a483fc7" x="198" y="194.140932" style="stroke: #000000; stroke-width: 0.8"/>
      </g>
     </g>
     <g id="text_12">
      <!-- 60 -->
      <g transform="translate(165.55 201.73937)scale(0.2 -0.2)">
       <defs>
        <path id="DejaVuSans-36" d="M 2113 2584 
Q 1688 2584 1439 2293 
Q 1191 2003 1191 1497 
Q 1191 994 1439 701 
Q 1688 409 2113 409 
Q 2538 409 2786 701 
Q 3034 994 3034 1497 
Q 3034 2003 2786 2293 
Q 2538 2584 2113 2584 
z
M 3366 4563 
L 3366 3988 
Q 3128 4100 2886 4159 
Q 2644 4219 2406 4219 
Q 1781 4219 1451 3797 
Q 1122 3375 1075 2522 
Q 1259 2794 1537 2939 
Q 1816 3084 2150 3084 
Q 2853 3084 3261 2657 
Q 3669 2231 3669 1497 
Q 3669 778 3244 343 
Q 2819 -91 2113 -91 
Q 1303 -91 875 529 
Q 447 1150 447 2328 
Q 447 3434 972 4092 
Q 1497 4750 2381 4750 
Q 2619 4750 2861 4703 
Q 3103 4656 3366 4563 
z
" transform="scale(0.015625)"/>
       </defs>
       <use xlink:href="#DejaVuSans-36"/>
       <use xlink:href="#DejaVuSans-30" x="63.623047"/>
      </g>
     </g>
    </g>
    <g id="text_13">
     <!-- Ocurrencia -->
     <g transform="translate(157.390625 353.839118)rotate(-90)scale(0.2 -0.2)">
      <defs>
       <path id="DejaVuSans-4f" d="M 2522 4238 
Q 1834 4238 1429 3725 
Q 1025 3213 1025 2328 
Q 1025 1447 1429 934 
Q 1834 422 2522 422 
Q 3209 422 3611 934 
Q 4013 1447 4013 2328 
Q 4013 3213 3611 3725 
Q 3209 4238 2522 4238 
z
M 2522 4750 
Q 3503 4750 4090 4092 
Q 4678 3434 4678 2328 
Q 4678 1225 4090 567 
Q 3503 -91 2522 -91 
Q 1538 -91 948 565 
Q 359 1222 359 2328 
Q 359 3434 948 4092 
Q 1538 4750 2522 4750 
z
" transform="scale(0.015625)"/>
       <path id="DejaVuSans-63" d="M 3122 3366 
L 3122 2828 
Q 2878 2963 2633 3030 
Q 2388 3097 2138 3097 
Q 1578 3097 1268 2742 
Q 959 2388 959 1747 
Q 959 1106 1268 751 
Q 1578 397 2138 397 
Q 2388 397 2633 464 
Q 2878 531 3122 666 
L 3122 134 
Q 2881 22 2623 -34 
Q 2366 -91 2075 -91 
Q 1284 -91 818 406 
Q 353 903 353 1747 
Q 353 2603 823 3093 
Q 1294 3584 2113 3584 
Q 2378 3584 2631 3529 
Q 2884 3475 3122 3366 
z
" transform="scale(0.015625)"/>
       <path id="DejaVuSans-75" d="M 544 1381 
L 544 3500 
L 1119 3500 
L 1119 1403 
Q 1119 906 1312 657 
Q 1506 409 1894 409 
Q 2359 409 2629 706 
Q 2900 1003 2900 1516 
L 2900 3500 
L 3475 3500 
L 3475 0 
L 2900 0 
L 2900 538 
Q 2691 219 2414 64 
Q 2138 -91 1772 -91 
Q 1169 -91 856 284 
Q 544 659 544 1381 
z
M 1991 3584 
L 1991 3584 
z
" transform="scale(0.015625)"/>
       <path id="DejaVuSans-72" d="M 2631 2963 
Q 2534 3019 2420 3045 
Q 2306 3072 2169 3072 
Q 1681 3072 1420 2755 
Q 1159 2438 1159 1844 
L 1159 0 
L 581 0 
L 581 3500 
L 1159 3500 
L 1159 2956 
Q 1341 3275 1631 3429 
Q 1922 3584 2338 3584 
Q 2397 3584 2469 3576 
Q 2541 3569 2628 3553 
L 2631 2963 
z
" transform="scale(0.015625)"/>
       <path id="DejaVuSans-65" d="M 3597 1894 
L 3597 1613 
L 953 1613 
Q 991 1019 1311 708 
Q 1631 397 2203 397 
Q 2534 397 2845 478 
Q 3156 559 3463 722 
L 3463 178 
Q 3153 47 2828 -22 
Q 2503 -91 2169 -91 
Q 1331 -91 842 396 
Q 353 884 353 1716 
Q 353 2575 817 3079 
Q 1281 3584 2069 3584 
Q 2775 3584 3186 3129 
Q 3597 2675 3597 1894 
z
M 3022 2063 
Q 3016 2534 2758 2815 
Q 2500 3097 2075 3097 
Q 1594 3097 1305 2825 
Q 1016 2553 972 2059 
L 3022 2063 
z
" transform="scale(0.015625)"/>
       <path id="DejaVuSans-6e" d="M 3513 2113 
L 3513 0 
L 2938 0 
L 2938 2094 
Q 2938 2591 2744 2837 
Q 2550 3084 2163 3084 
Q 1697 3084 1428 2787 
Q 1159 2491 1159 1978 
L 1159 0 
L 581 0 
L 581 3500 
L 1159 3500 
L 1159 2956 
Q 1366 3272 1645 3428 
Q 1925 3584 2291 3584 
Q 2894 3584 3203 3211 
Q 3513 2838 3513 2113 
z
" transform="scale(0.015625)"/>
       <path id="DejaVuSans-69" d="M 603 3500 
L 1178 3500 
L 1178 0 
L 603 0 
L 603 3500 
z
M 603 4863 
L 1178 4863 
L 1178 4134 
L 603 4134 
L 603 4863 
z
" transform="scale(0.015625)"/>
       <path id="DejaVuSans-61" d="M 2194 1759 
Q 1497 1759 1228 1600 
Q 959 1441 959 1056 
Q 959 750 1161 570 
Q 1363 391 1709 391 
Q 2188 391 2477 730 
Q 2766 1069 2766 1631 
L 2766 1759 
L 2194 1759 
z
M 3341 1997 
L 3341 0 
L 2766 0 
L 2766 531 
Q 2569 213 2275 61 
Q 1981 -91 1556 -91 
Q 1019 -91 701 211 
Q 384 513 384 1019 
Q 384 1609 779 1909 
Q 1175 2209 1959 2209 
L 2766 2209 
L 2766 2266 
Q 2766 2663 2505 2880 
Q 2244 3097 1772 3097 
Q 1472 3097 1187 3025 
Q 903 2953 641 2809 
L 641 3341 
Q 956 3463 1253 3523 
Q 1550 3584 1831 3584 
Q 2591 3584 2966 3190 
Q 3341 2797 3341 1997 
z
" transform="scale(0.015625)"/>
      </defs>
      <use xlink:href="#DejaVuSans-4f"/>
      <use xlink:href="#DejaVuSans-63" x="78.710938"/>
      <use xlink:href="#DejaVuSans-75" x="133.691406"/>
      <use xlink:href="#DejaVuSans-72" x="197.070312"/>
      <use xlink:href="#DejaVuSans-72" x="236.433594"/>
      <use xlink:href="#DejaVuSans-65" x="275.296875"/>
      <use xlink:href="#DejaVuSans-6e" x="336.820312"/>
      <use xlink:href="#DejaVuSans-63" x="400.199219"/>
      <use xlink:href="#DejaVuSans-69" x="455.179688"/>
      <use xlink:href="#DejaVuSans-61" x="482.962891"/>
     </g>
    </g>
   </g>
   <g id="line2d_12">
    <path d="M 214.411765 235.668816 
L 231.687307 235.668816 
L 248.962848 235.668816 
L 266.23839 235.668816 
L 283.513932 235.668816 
L 300.789474 235.668816 
L 318.065015 235.668816 
L 335.340557 235.668816 
L 352.616099 235.668816 
L 369.891641 235.668816 
L 387.167183 235.668816 
L 404.442724 235.668816 
L 421.718266 235.668816 
L 438.993808 235.668816 
L 456.26935 235.668816 
L 473.544892 235.668816 
L 490.820433 235.668816 
L 508.095975 235.668816 
L 525.371517 235.668816 
L 542.647059 235.668816 
" clip-path="url(#p77457ed219)" style="fill: none; stroke: #ff0000; stroke-width: 1.5; stroke-linecap: square"/>
   </g>
   <g id="patch_4">
    <path d="M 198 443.308235 
L 198 155.52 
" style="fill: none; stroke: #000000; stroke-width: 0.8; stroke-linejoin: miter; stroke-linecap: square"/>
   </g>
   <g id="patch_5">
    <path d="M 559.058824 443.308235 
L 559.058824 155.52 
" style="fill: none; stroke: #000000; stroke-width: 0.8; stroke-linejoin: miter; stroke-linecap: square"/>
   </g>
   <g id="patch_6">
    <path d="M 198 443.308235 
L 559.058824 443.308235 
" style="fill: none; stroke: #000000; stroke-width: 0.8; stroke-linejoin: miter; stroke-linecap: square"/>
   </g>
   <g id="patch_7">
    <path d="M 198 155.52 
L 559.058824 155.52 
" style="fill: none; stroke: #000000; stroke-width: 0.8; stroke-linejoin: miter; stroke-linecap: square"/>
   </g>
  </g>
  <g id="axes_2">
   <g id="patch_8">
    <path d="M 631.270588 443.308235 
L 992.329412 443.308235 
L 992.329412 155.52 
L 631.270588 155.52 
z
" style="fill: #ffffff"/>
   </g>
   <g id="patch_9">
    <path d="M 647.682353 443.308235 
L 647.682353 443.308235 
L 664.957895 443.308235 
L 664.957895 443.308235 
L 682.233437 443.308235 
L 682.233437 441.616359 
L 699.508978 441.616359 
L 699.508978 426.389468 
L 716.78452 426.389468 
L 716.78452 417.930084 
L 734.060062 417.930084 
L 734.060062 341.79563 
L 751.335604 341.79563 
L 751.335604 299.498711 
L 768.611146 299.498711 
L 768.611146 265.661176 
L 785.886687 265.661176 
L 785.886687 184.451092 
L 803.162229 184.451092 
L 803.162229 196.29423 
L 820.437771 196.29423 
L 820.437771 169.224202 
L 837.713313 169.224202 
L 837.713313 231.823641 
L 854.988854 231.823641 
L 854.988854 321.493109 
L 872.264396 321.493109 
L 872.264396 367.173782 
L 889.539938 367.173782 
L 889.539938 421.313838 
L 906.81548 421.313838 
L 906.81548 433.156975 
L 924.091022 433.156975 
L 924.091022 439.924482 
L 941.366563 439.924482 
L 941.366563 443.308235 
L 958.642105 443.308235 
L 958.642105 443.308235 
L 975.917647 443.308235 
L 975.917647 443.308235 
L 958.642105 443.308235 
L 958.642105 443.308235 
L 941.366563 443.308235 
L 941.366563 443.308235 
L 924.091022 443.308235 
L 924.091022 443.308235 
L 906.81548 443.308235 
L 906.81548 443.308235 
L 889.539938 443.308235 
L 889.539938 443.308235 
L 872.264396 443.308235 
L 872.264396 443.308235 
L 854.988854 443.308235 
L 854.988854 443.308235 
L 837.713313 443.308235 
L 837.713313 443.308235 
L 820.437771 443.308235 
L 820.437771 443.308235 
L 803.162229 443.308235 
L 803.162229 443.308235 
L 785.886687 443.308235 
L 785.886687 443.308235 
L 768.611146 443.308235 
L 768.611146 443.308235 
L 751.335604 443.308235 
L 751.335604 443.308235 
L 734.060062 443.308235 
L 734.060062 443.308235 
L 716.78452 443.308235 
L 716.78452 443.308235 
L 699.508978 443.308235 
L 699.508978 443.308235 
L 682.233437 443.308235 
L 682.233437 443.308235 
L 664.957895 443.308235 
L 664.957895 443.308235 
z
" clip-path="url(#p77c1f5abb9)" style="fill: #c0c0c0; opacity: 0.5"/>
   </g>
   <g id="matplotlib.axis_3">
    <g id="xtick_5">
     <g id="line2d_13">
      <g>
       <use xlink:href="#m8de48e0731" x="698.095959" y="443.308235" style="stroke: #000000; stroke-width: 0.8"/>
      </g>
     </g>
     <g id="text_14">
      <!-- 1.5 -->
      <g transform="translate(682.192834 465.50511)scale(0.2 -0.2)">
       <use xlink:href="#DejaVuSans-31"/>
       <use xlink:href="#DejaVuSans-2e" x="63.623047"/>
       <use xlink:href="#DejaVuSans-35" x="95.410156"/>
      </g>
     </g>
    </g>
    <g id="xtick_6">
     <g id="line2d_14">
      <g>
       <use xlink:href="#m8de48e0731" x="792.849326" y="443.308235" style="stroke: #000000; stroke-width: 0.8"/>
      </g>
     </g>
     <g id="text_15">
      <!-- 2.0 -->
      <g transform="translate(776.946201 465.50511)scale(0.2 -0.2)">
       <use xlink:href="#DejaVuSans-32"/>
       <use xlink:href="#DejaVuSans-2e" x="63.623047"/>
       <use xlink:href="#DejaVuSans-30" x="95.410156"/>
      </g>
     </g>
    </g>
    <g id="xtick_7">
     <g id="line2d_15">
      <g>
       <use xlink:href="#m8de48e0731" x="887.602694" y="443.308235" style="stroke: #000000; stroke-width: 0.8"/>
      </g>
     </g>
     <g id="text_16">
      <!-- 2.5 -->
      <g transform="translate(871.699569 465.50511)scale(0.2 -0.2)">
       <use xlink:href="#DejaVuSans-32"/>
       <use xlink:href="#DejaVuSans-2e" x="63.623047"/>
       <use xlink:href="#DejaVuSans-35" x="95.410156"/>
      </g>
     </g>
    </g>
    <g id="xtick_8">
     <g id="line2d_16">
      <g>
       <use xlink:href="#m8de48e0731" x="982.356062" y="443.308235" style="stroke: #000000; stroke-width: 0.8"/>
      </g>
     </g>
     <g id="text_17">
      <!-- 3.0 -->
      <g transform="translate(966.452937 465.50511)scale(0.2 -0.2)">
       <use xlink:href="#DejaVuSans-33"/>
       <use xlink:href="#DejaVuSans-2e" x="63.623047"/>
       <use xlink:href="#DejaVuSans-30" x="95.410156"/>
      </g>
     </g>
    </g>
    <g id="text_18">
     <!-- $x$ -->
     <g transform="translate(805.8 488.86136)scale(0.2 -0.2)">
      <use xlink:href="#DejaVuSans-Oblique-78" transform="translate(0 0.3125)"/>
     </g>
    </g>
   </g>
   <g id="matplotlib.axis_4">
    <g id="ytick_8">
     <g id="line2d_17">
      <g>
       <use xlink:href="#mc04a483fc7" x="631.270588" y="443.308235" style="stroke: #000000; stroke-width: 0.8"/>
      </g>
     </g>
     <g id="text_19">
      <!-- 0 -->
      <g transform="translate(611.545588 450.906673)scale(0.2 -0.2)">
       <use xlink:href="#DejaVuSans-30"/>
      </g>
     </g>
    </g>
    <g id="ytick_9">
     <g id="line2d_18">
      <g>
       <use xlink:href="#mc04a483fc7" x="631.270588" y="401.011317" style="stroke: #000000; stroke-width: 0.8"/>
      </g>
     </g>
     <g id="text_20">
      <!-- 25 -->
      <g transform="translate(598.820588 408.609754)scale(0.2 -0.2)">
       <use xlink:href="#DejaVuSans-32"/>
       <use xlink:href="#DejaVuSans-35" x="63.623047"/>
      </g>
     </g>
    </g>
    <g id="ytick_10">
     <g id="line2d_19">
      <g>
       <use xlink:href="#mc04a483fc7" x="631.270588" y="358.714398" style="stroke: #000000; stroke-width: 0.8"/>
      </g>
     </g>
     <g id="text_21">
      <!-- 50 -->
      <g transform="translate(598.820588 366.312835)scale(0.2 -0.2)">
       <use xlink:href="#DejaVuSans-35"/>
       <use xlink:href="#DejaVuSans-30" x="63.623047"/>
      </g>
     </g>
    </g>
    <g id="ytick_11">
     <g id="line2d_20">
      <g>
       <use xlink:href="#mc04a483fc7" x="631.270588" y="316.417479" style="stroke: #000000; stroke-width: 0.8"/>
      </g>
     </g>
     <g id="text_22">
      <!-- 75 -->
      <g transform="translate(598.820588 324.015916)scale(0.2 -0.2)">
       <defs>
        <path id="DejaVuSans-37" d="M 525 4666 
L 3525 4666 
L 3525 4397 
L 1831 0 
L 1172 0 
L 2766 4134 
L 525 4134 
L 525 4666 
z
" transform="scale(0.015625)"/>
       </defs>
       <use xlink:href="#DejaVuSans-37"/>
       <use xlink:href="#DejaVuSans-35" x="63.623047"/>
      </g>
     </g>
    </g>
    <g id="ytick_12">
     <g id="line2d_21">
      <g>
       <use xlink:href="#mc04a483fc7" x="631.270588" y="274.12056" style="stroke: #000000; stroke-width: 0.8"/>
      </g>
     </g>
     <g id="text_23">
      <!-- 100 -->
      <g transform="translate(586.095588 281.718998)scale(0.2 -0.2)">
       <use xlink:href="#DejaVuSans-31"/>
       <use xlink:href="#DejaVuSans-30" x="63.623047"/>
       <use xlink:href="#DejaVuSans-30" x="127.246094"/>
      </g>
     </g>
    </g>
    <g id="ytick_13">
     <g id="line2d_22">
      <g>
       <use xlink:href="#mc04a483fc7" x="631.270588" y="231.823641" style="stroke: #000000; stroke-width: 0.8"/>
      </g>
     </g>
     <g id="text_24">
      <!-- 125 -->
      <g transform="translate(586.095588 239.422079)scale(0.2 -0.2)">
       <use xlink:href="#DejaVuSans-31"/>
       <use xlink:href="#DejaVuSans-32" x="63.623047"/>
       <use xlink:href="#DejaVuSans-35" x="127.246094"/>
      </g>
     </g>
    </g>
    <g id="ytick_14">
     <g id="line2d_23">
      <g>
       <use xlink:href="#mc04a483fc7" x="631.270588" y="189.526723" style="stroke: #000000; stroke-width: 0.8"/>
      </g>
     </g>
     <g id="text_25">
      <!-- 150 -->
      <g transform="translate(586.095588 197.12516)scale(0.2 -0.2)">
       <use xlink:href="#DejaVuSans-31"/>
       <use xlink:href="#DejaVuSans-35" x="63.623047"/>
       <use xlink:href="#DejaVuSans-30" x="127.246094"/>
      </g>
     </g>
    </g>
    <g id="text_26">
     <!-- Ocurrencia -->
     <g transform="translate(577.936213 353.839118)rotate(-90)scale(0.2 -0.2)">
      <use xlink:href="#DejaVuSans-4f"/>
      <use xlink:href="#DejaVuSans-63" x="78.710938"/>
      <use xlink:href="#DejaVuSans-75" x="133.691406"/>
      <use xlink:href="#DejaVuSans-72" x="197.070312"/>
      <use xlink:href="#DejaVuSans-72" x="236.433594"/>
      <use xlink:href="#DejaVuSans-65" x="275.296875"/>
      <use xlink:href="#DejaVuSans-6e" x="336.820312"/>
      <use xlink:href="#DejaVuSans-63" x="400.199219"/>
      <use xlink:href="#DejaVuSans-69" x="455.179688"/>
      <use xlink:href="#DejaVuSans-61" x="482.962891"/>
     </g>
    </g>
   </g>
   <g id="line2d_24">
    <path d="M 647.682353 443.138491 
L 653.245663 443.029781 
L 658.808973 442.859253 
L 664.372283 442.596665 
L 669.935593 442.199774 
L 675.498903 441.611016 
L 681.062213 440.753948 
L 686.625523 439.529768 
L 692.188833 437.814396 
L 697.752144 435.456773 
L 703.315454 432.279151 
L 708.878764 428.080241 
L 714.442074 422.642054 
L 720.005384 415.74107 
L 725.568694 407.164063 
L 731.132004 396.728311 
L 736.695314 384.305304 
L 742.258624 369.846242 
L 747.821934 353.406899 
L 753.385244 335.168848 
L 758.948554 315.453749 
L 764.511864 294.72755 
L 770.075174 273.59213 
L 775.638485 252.763009 
L 781.201795 233.033351 
L 786.765105 215.226217 
L 792.328415 200.138788 
L 797.891725 188.483675 
L 803.455035 180.833277 
L 809.018345 177.573222 
L 814.581655 178.870151 
L 820.144965 184.657607 
L 825.708275 194.641673 
L 831.271585 208.325715 
L 836.834895 225.051307 
L 842.398205 244.050663 
L 847.961515 264.504763 
L 853.524826 285.601088 
L 859.088136 306.585381 
L 864.651446 326.803071 
L 870.214756 345.727621 
L 875.778066 362.974819 
L 881.341376 378.303763 
L 886.904686 391.606567 
L 892.467996 402.889735 
L 898.031306 412.250475 
L 903.594616 419.851131 
L 909.157926 425.894458 
L 914.721236 430.601737 
L 920.284546 434.194989 
L 925.847856 436.883805 
L 931.411167 438.856694 
L 936.974477 440.276435 
L 942.537787 441.27866 
L 948.101097 441.972797 
L 953.664407 442.444547 
L 959.227717 442.759195 
L 964.791027 442.965178 
L 970.354337 443.097546 
L 975.917647 443.181051 
" clip-path="url(#p77c1f5abb9)" style="fill: none; stroke: #ff0000; stroke-width: 1.5; stroke-linecap: square"/>
   </g>
   <g id="patch_10">
    <path d="M 631.270588 443.308235 
L 631.270588 155.52 
" style="fill: none; stroke: #000000; stroke-width: 0.8; stroke-linejoin: miter; stroke-linecap: square"/>
   </g>
   <g id="patch_11">
    <path d="M 992.329412 443.308235 
L 992.329412 155.52 
" style="fill: none; stroke: #000000; stroke-width: 0.8; stroke-linejoin: miter; stroke-linecap: square"/>
   </g>
   <g id="patch_12">
    <path d="M 631.270588 443.308235 
L 992.329412 443.308235 
" style="fill: none; stroke: #000000; stroke-width: 0.8; stroke-linejoin: miter; stroke-linecap: square"/>
   </g>
   <g id="patch_13">
    <path d="M 631.270588 155.52 
L 992.329412 155.52 
" style="fill: none; stroke: #000000; stroke-width: 0.8; stroke-linejoin: miter; stroke-linecap: square"/>
   </g>
  </g>
  <g id="axes_3">
   <g id="patch_14">
    <path d="M 1064.541176 443.308235 
L 1425.6 443.308235 
L 1425.6 155.52 
L 1064.541176 155.52 
z
" style="fill: #ffffff"/>
   </g>
   <g id="patch_15">
    <path d="M 1080.952941 443.308235 
L 1080.952941 443.308235 
L 1098.228483 443.308235 
L 1098.228483 443.308235 
L 1115.504025 443.308235 
L 1115.504025 443.308235 
L 1132.779567 443.308235 
L 1132.779567 443.308235 
L 1150.055108 443.308235 
L 1150.055108 443.308235 
L 1167.33065 443.308235 
L 1167.33065 443.308235 
L 1184.606192 443.308235 
L 1184.606192 438.36342 
L 1201.881734 438.36342 
L 1201.881734 403.043313 
L 1219.157276 403.043313 
L 1219.157276 278.716535 
L 1236.432817 278.716535 
L 1236.432817 169.224202 
L 1253.708359 169.224202 
L 1253.708359 267.4141 
L 1270.983901 267.4141 
L 1270.983901 399.511302 
L 1288.259443 399.511302 
L 1288.259443 440.482627 
L 1305.534985 440.482627 
L 1305.534985 443.308235 
L 1322.810526 443.308235 
L 1322.810526 443.308235 
L 1340.086068 443.308235 
L 1340.086068 443.308235 
L 1357.36161 443.308235 
L 1357.36161 443.308235 
L 1374.637152 443.308235 
L 1374.637152 443.308235 
L 1391.912693 443.308235 
L 1391.912693 443.308235 
L 1409.188235 443.308235 
L 1409.188235 443.308235 
L 1391.912693 443.308235 
L 1391.912693 443.308235 
L 1374.637152 443.308235 
L 1374.637152 443.308235 
L 1357.36161 443.308235 
L 1357.36161 443.308235 
L 1340.086068 443.308235 
L 1340.086068 443.308235 
L 1322.810526 443.308235 
L 1322.810526 443.308235 
L 1305.534985 443.308235 
L 1305.534985 443.308235 
L 1288.259443 443.308235 
L 1288.259443 443.308235 
L 1270.983901 443.308235 
L 1270.983901 443.308235 
L 1253.708359 443.308235 
L 1253.708359 443.308235 
L 1236.432817 443.308235 
L 1236.432817 443.308235 
L 1219.157276 443.308235 
L 1219.157276 443.308235 
L 1201.881734 443.308235 
L 1201.881734 443.308235 
L 1184.606192 443.308235 
L 1184.606192 443.308235 
L 1167.33065 443.308235 
L 1167.33065 443.308235 
L 1150.055108 443.308235 
L 1150.055108 443.308235 
L 1132.779567 443.308235 
L 1132.779567 443.308235 
L 1115.504025 443.308235 
L 1115.504025 443.308235 
L 1098.228483 443.308235 
L 1098.228483 443.308235 
z
" clip-path="url(#pa055ef1445)" style="fill: #c0c0c0; opacity: 0.5"/>
   </g>
   <g id="matplotlib.axis_5">
    <g id="xtick_9">
     <g id="line2d_25">
      <g>
       <use xlink:href="#m8de48e0731" x="1131.366547" y="443.308235" style="stroke: #000000; stroke-width: 0.8"/>
      </g>
     </g>
     <g id="text_27">
      <!-- 1.5 -->
      <g transform="translate(1115.463422 465.50511)scale(0.2 -0.2)">
       <use xlink:href="#DejaVuSans-31"/>
       <use xlink:href="#DejaVuSans-2e" x="63.623047"/>
       <use xlink:href="#DejaVuSans-35" x="95.410156"/>
      </g>
     </g>
    </g>
    <g id="xtick_10">
     <g id="line2d_26">
      <g>
       <use xlink:href="#m8de48e0731" x="1226.119915" y="443.308235" style="stroke: #000000; stroke-width: 0.8"/>
      </g>
     </g>
     <g id="text_28">
      <!-- 2.0 -->
      <g transform="translate(1210.21679 465.50511)scale(0.2 -0.2)">
       <use xlink:href="#DejaVuSans-32"/>
       <use xlink:href="#DejaVuSans-2e" x="63.623047"/>
       <use xlink:href="#DejaVuSans-30" x="95.410156"/>
      </g>
     </g>
    </g>
    <g id="xtick_11">
     <g id="line2d_27">
      <g>
       <use xlink:href="#m8de48e0731" x="1320.873282" y="443.308235" style="stroke: #000000; stroke-width: 0.8"/>
      </g>
     </g>
     <g id="text_29">
      <!-- 2.5 -->
      <g transform="translate(1304.970157 465.50511)scale(0.2 -0.2)">
       <use xlink:href="#DejaVuSans-32"/>
       <use xlink:href="#DejaVuSans-2e" x="63.623047"/>
       <use xlink:href="#DejaVuSans-35" x="95.410156"/>
      </g>
     </g>
    </g>
    <g id="xtick_12">
     <g id="line2d_28">
      <g>
       <use xlink:href="#m8de48e0731" x="1415.62665" y="443.308235" style="stroke: #000000; stroke-width: 0.8"/>
      </g>
     </g>
     <g id="text_30">
      <!-- 3.0 -->
      <g transform="translate(1399.723525 465.50511)scale(0.2 -0.2)">
       <use xlink:href="#DejaVuSans-33"/>
       <use xlink:href="#DejaVuSans-2e" x="63.623047"/>
       <use xlink:href="#DejaVuSans-30" x="95.410156"/>
      </g>
     </g>
    </g>
    <g id="text_31">
     <!-- $x$ -->
     <g transform="translate(1239.070588 488.86136)scale(0.2 -0.2)">
      <use xlink:href="#DejaVuSans-Oblique-78" transform="translate(0 0.3125)"/>
     </g>
    </g>
   </g>
   <g id="matplotlib.axis_6">
    <g id="ytick_15">
     <g id="line2d_29">
      <g>
       <use xlink:href="#mc04a483fc7" x="1064.541176" y="443.308235" style="stroke: #000000; stroke-width: 0.8"/>
      </g>
     </g>
     <g id="text_32">
      <!-- 0 -->
      <g transform="translate(1044.816176 450.906673)scale(0.2 -0.2)">
       <use xlink:href="#DejaVuSans-30"/>
      </g>
     </g>
    </g>
    <g id="ytick_16">
     <g id="line2d_30">
      <g>
       <use xlink:href="#mc04a483fc7" x="1064.541176" y="372.66802" style="stroke: #000000; stroke-width: 0.8"/>
      </g>
     </g>
     <g id="text_33">
      <!-- 100 -->
      <g transform="translate(1019.366176 380.266458)scale(0.2 -0.2)">
       <use xlink:href="#DejaVuSans-31"/>
       <use xlink:href="#DejaVuSans-30" x="63.623047"/>
       <use xlink:href="#DejaVuSans-30" x="127.246094"/>
      </g>
     </g>
    </g>
    <g id="ytick_17">
     <g id="line2d_31">
      <g>
       <use xlink:href="#mc04a483fc7" x="1064.541176" y="302.027806" style="stroke: #000000; stroke-width: 0.8"/>
      </g>
     </g>
     <g id="text_34">
      <!-- 200 -->
      <g transform="translate(1019.366176 309.626243)scale(0.2 -0.2)">
       <use xlink:href="#DejaVuSans-32"/>
       <use xlink:href="#DejaVuSans-30" x="63.623047"/>
       <use xlink:href="#DejaVuSans-30" x="127.246094"/>
      </g>
     </g>
    </g>
    <g id="ytick_18">
     <g id="line2d_32">
      <g>
       <use xlink:href="#mc04a483fc7" x="1064.541176" y="231.387591" style="stroke: #000000; stroke-width: 0.8"/>
      </g>
     </g>
     <g id="text_35">
      <!-- 300 -->
      <g transform="translate(1019.366176 238.986028)scale(0.2 -0.2)">
       <use xlink:href="#DejaVuSans-33"/>
       <use xlink:href="#DejaVuSans-30" x="63.623047"/>
       <use xlink:href="#DejaVuSans-30" x="127.246094"/>
      </g>
     </g>
    </g>
    <g id="ytick_19">
     <g id="line2d_33">
      <g>
       <use xlink:href="#mc04a483fc7" x="1064.541176" y="160.747376" style="stroke: #000000; stroke-width: 0.8"/>
      </g>
     </g>
     <g id="text_36">
      <!-- 400 -->
      <g transform="translate(1019.366176 168.345813)scale(0.2 -0.2)">
       <use xlink:href="#DejaVuSans-34"/>
       <use xlink:href="#DejaVuSans-30" x="63.623047"/>
       <use xlink:href="#DejaVuSans-30" x="127.246094"/>
      </g>
     </g>
    </g>
    <g id="text_37">
     <!-- Ocurrencia -->
     <g transform="translate(1011.206801 353.839118)rotate(-90)scale(0.2 -0.2)">
      <use xlink:href="#DejaVuSans-4f"/>
      <use xlink:href="#DejaVuSans-63" x="78.710938"/>
      <use xlink:href="#DejaVuSans-75" x="133.691406"/>
      <use xlink:href="#DejaVuSans-72" x="197.070312"/>
      <use xlink:href="#DejaVuSans-72" x="236.433594"/>
      <use xlink:href="#DejaVuSans-65" x="275.296875"/>
      <use xlink:href="#DejaVuSans-6e" x="336.820312"/>
      <use xlink:href="#DejaVuSans-63" x="400.199219"/>
      <use xlink:href="#DejaVuSans-69" x="455.179688"/>
      <use xlink:href="#DejaVuSans-61" x="482.962891"/>
     </g>
    </g>
   </g>
   <g id="line2d_34">
    <path d="M 1080.952941 443.308235 
L 1085.107818 443.308235 
L 1089.262695 443.308235 
L 1093.417573 443.308235 
L 1097.57245 443.308235 
L 1101.727327 443.308235 
L 1105.882204 443.308235 
L 1110.037081 443.308235 
L 1114.191958 443.308235 
L 1118.346835 443.308235 
L 1122.501713 443.308235 
L 1126.65659 443.308235 
L 1130.811467 443.308235 
L 1134.966344 443.308235 
L 1139.121221 443.308234 
L 1143.276098 443.308228 
L 1147.430975 443.308205 
L 1151.585853 443.30812 
L 1155.74073 443.307824 
L 1159.895607 443.306851 
L 1164.050484 443.303834 
L 1168.205361 443.295026 
L 1172.360238 443.270812 
L 1176.515115 443.208153 
L 1180.669993 443.055588 
L 1184.82487 442.706202 
L 1188.979747 441.954057 
L 1193.134624 440.43296 
L 1197.289501 437.545459 
L 1201.444378 432.405573 
L 1205.599255 423.837518 
L 1209.754133 410.485113 
L 1213.90901 391.07747 
L 1218.063887 364.853084 
L 1222.218764 332.067181 
L 1226.373641 294.421059 
L 1230.528518 255.204226 
L 1234.683395 218.978224 
L 1238.838273 190.771091 
L 1242.99315 174.951983 
L 1247.148027 174.12579 
L 1251.302904 188.431431 
L 1255.457781 215.503652 
L 1259.612658 251.112758 
L 1263.767535 290.244455 
L 1267.922413 328.241373 
L 1272.07729 361.654385 
L 1276.232167 388.612731 
L 1280.387044 408.72424 
L 1284.541921 422.66645 
L 1288.696798 431.678552 
L 1292.851675 437.123272 
L 1297.006552 440.203283 
L 1301.16143 441.836868 
L 1305.316307 442.650068 
L 1309.471184 443.030328 
L 1313.626061 443.197468 
L 1317.780938 443.266561 
L 1321.935815 443.293435 
L 1326.090692 443.303273 
L 1330.24557 443.306665 
L 1334.400447 443.307766 
L 1338.555324 443.308103 
L 1342.710201 443.3082 
L 1346.865078 443.308226 
L 1351.019955 443.308233 
L 1355.174832 443.308235 
L 1359.32971 443.308235 
L 1363.484587 443.308235 
L 1367.639464 443.308235 
L 1371.794341 443.308235 
L 1375.949218 443.308235 
L 1380.104095 443.308235 
L 1384.258972 443.308235 
L 1388.41385 443.308235 
L 1392.568727 443.308235 
L 1396.723604 443.308235 
L 1400.878481 443.308235 
L 1405.033358 443.308235 
L 1409.188235 443.308235 
" clip-path="url(#pa055ef1445)" style="fill: none; stroke: #ff0000; stroke-width: 1.5; stroke-linecap: square"/>
   </g>
   <g id="patch_16">
    <path d="M 1064.541176 443.308235 
L 1064.541176 155.52 
" style="fill: none; stroke: #000000; stroke-width: 0.8; stroke-linejoin: miter; stroke-linecap: square"/>
   </g>
   <g id="patch_17">
    <path d="M 1425.6 443.308235 
L 1425.6 155.52 
" style="fill: none; stroke: #000000; stroke-width: 0.8; stroke-linejoin: miter; stroke-linecap: square"/>
   </g>
   <g id="patch_18">
    <path d="M 1064.541176 443.308235 
L 1425.6 443.308235 
" style="fill: none; stroke: #000000; stroke-width: 0.8; stroke-linejoin: miter; stroke-linecap: square"/>
   </g>
   <g id="patch_19">
    <path d="M 1064.541176 155.52 
L 1425.6 155.52 
" style="fill: none; stroke: #000000; stroke-width: 0.8; stroke-linejoin: miter; stroke-linecap: square"/>
   </g>
  </g>
  <g id="axes_4">
   <g id="patch_20">
    <path d="M 198 788.654118 
L 559.058824 788.654118 
L 559.058824 500.865882 
L 198 500.865882 
z
" style="fill: #ffffff"/>
   </g>
   <g id="patch_21">
    <path d="M 234.053327 788.654118 
L 234.053327 771.642005 
L 249.483014 771.642005 
L 249.483014 745.178719 
L 264.912701 745.178719 
L 264.912701 741.39825 
L 280.342387 741.39825 
L 280.342387 701.703321 
L 295.772074 701.703321 
L 295.772074 635.545106 
L 311.20176 635.545106 
L 311.20176 609.08182 
L 326.631447 609.08182 
L 326.631447 552.374778 
L 342.061133 552.374778 
L 342.061133 514.570084 
L 357.49082 514.570084 
L 357.49082 558.045482 
L 372.920507 558.045482 
L 372.920507 565.606421 
L 388.350193 565.606421 
L 388.350193 624.203697 
L 403.77988 624.203697 
L 403.77988 694.142382 
L 419.209566 694.142382 
L 419.209566 733.837311 
L 434.639253 733.837311 
L 434.639253 747.068954 
L 450.068939 747.068954 
L 450.068939 765.971301 
L 465.498626 765.971301 
L 465.498626 775.422475 
L 480.928313 775.422475 
L 480.928313 788.654118 
L 496.357999 788.654118 
L 496.357999 782.983414 
L 511.787686 782.983414 
L 511.787686 788.654118 
L 527.217372 788.654118 
L 527.217372 786.763883 
L 542.647059 786.763883 
L 542.647059 788.654118 
L 527.217372 788.654118 
L 527.217372 788.654118 
L 511.787686 788.654118 
L 511.787686 788.654118 
L 496.357999 788.654118 
L 496.357999 788.654118 
L 480.928313 788.654118 
L 480.928313 788.654118 
L 465.498626 788.654118 
L 465.498626 788.654118 
L 450.068939 788.654118 
L 450.068939 788.654118 
L 434.639253 788.654118 
L 434.639253 788.654118 
L 419.209566 788.654118 
L 419.209566 788.654118 
L 403.77988 788.654118 
L 403.77988 788.654118 
L 388.350193 788.654118 
L 388.350193 788.654118 
L 372.920507 788.654118 
L 372.920507 788.654118 
L 357.49082 788.654118 
L 357.49082 788.654118 
L 342.061133 788.654118 
L 342.061133 788.654118 
L 326.631447 788.654118 
L 326.631447 788.654118 
L 311.20176 788.654118 
L 311.20176 788.654118 
L 295.772074 788.654118 
L 295.772074 788.654118 
L 280.342387 788.654118 
L 280.342387 788.654118 
L 264.912701 788.654118 
L 264.912701 788.654118 
L 249.483014 788.654118 
L 249.483014 788.654118 
z
" clip-path="url(#p3ed1d30fec)" style="fill: #c0c0c0; opacity: 0.5"/>
   </g>
   <g id="matplotlib.axis_7">
    <g id="xtick_13">
     <g id="line2d_35">
      <g>
       <use xlink:href="#m8de48e0731" x="255.001945" y="788.654118" style="stroke: #000000; stroke-width: 0.8"/>
      </g>
     </g>
     <g id="text_38">
      <!-- 1 -->
      <g transform="translate(248.639445 810.850993)scale(0.2 -0.2)">
       <use xlink:href="#DejaVuSans-31"/>
      </g>
     </g>
    </g>
    <g id="xtick_14">
     <g id="line2d_36">
      <g>
       <use xlink:href="#m8de48e0731" x="346.192032" y="788.654118" style="stroke: #000000; stroke-width: 0.8"/>
      </g>
     </g>
     <g id="text_39">
      <!-- 2 -->
      <g transform="translate(339.829532 810.850993)scale(0.2 -0.2)">
       <use xlink:href="#DejaVuSans-32"/>
      </g>
     </g>
    </g>
    <g id="xtick_15">
     <g id="line2d_37">
      <g>
       <use xlink:href="#m8de48e0731" x="437.382119" y="788.654118" style="stroke: #000000; stroke-width: 0.8"/>
      </g>
     </g>
     <g id="text_40">
      <!-- 3 -->
      <g transform="translate(431.019619 810.850993)scale(0.2 -0.2)">
       <use xlink:href="#DejaVuSans-33"/>
      </g>
     </g>
    </g>
    <g id="xtick_16">
     <g id="line2d_38">
      <g>
       <use xlink:href="#m8de48e0731" x="528.572205" y="788.654118" style="stroke: #000000; stroke-width: 0.8"/>
      </g>
     </g>
     <g id="text_41">
      <!-- 4 -->
      <g transform="translate(522.209705 810.850993)scale(0.2 -0.2)">
       <use xlink:href="#DejaVuSans-34"/>
      </g>
     </g>
    </g>
    <g id="text_42">
     <!-- $x$ -->
     <g transform="translate(372.529412 834.207243)scale(0.2 -0.2)">
      <use xlink:href="#DejaVuSans-Oblique-78" transform="translate(0 0.3125)"/>
     </g>
    </g>
   </g>
   <g id="matplotlib.axis_8">
    <g id="ytick_20">
     <g id="line2d_39">
      <g>
       <use xlink:href="#mc04a483fc7" x="198" y="788.654118" style="stroke: #000000; stroke-width: 0.8"/>
      </g>
     </g>
     <g id="text_43">
      <!-- 0 -->
      <g transform="translate(178.275 796.252555)scale(0.2 -0.2)">
       <use xlink:href="#DejaVuSans-30"/>
      </g>
     </g>
    </g>
    <g id="ytick_21">
     <g id="line2d_40">
      <g>
       <use xlink:href="#mc04a483fc7" x="198" y="741.39825" style="stroke: #000000; stroke-width: 0.8"/>
      </g>
     </g>
     <g id="text_44">
      <!-- 25 -->
      <g transform="translate(165.55 748.996687)scale(0.2 -0.2)">
       <use xlink:href="#DejaVuSans-32"/>
       <use xlink:href="#DejaVuSans-35" x="63.623047"/>
      </g>
     </g>
    </g>
    <g id="ytick_22">
     <g id="line2d_41">
      <g>
       <use xlink:href="#mc04a483fc7" x="198" y="694.142382" style="stroke: #000000; stroke-width: 0.8"/>
      </g>
     </g>
     <g id="text_45">
      <!-- 50 -->
      <g transform="translate(165.55 701.740819)scale(0.2 -0.2)">
       <use xlink:href="#DejaVuSans-35"/>
       <use xlink:href="#DejaVuSans-30" x="63.623047"/>
      </g>
     </g>
    </g>
    <g id="ytick_23">
     <g id="line2d_42">
      <g>
       <use xlink:href="#mc04a483fc7" x="198" y="646.886514" style="stroke: #000000; stroke-width: 0.8"/>
      </g>
     </g>
     <g id="text_46">
      <!-- 75 -->
      <g transform="translate(165.55 654.484952)scale(0.2 -0.2)">
       <use xlink:href="#DejaVuSans-37"/>
       <use xlink:href="#DejaVuSans-35" x="63.623047"/>
      </g>
     </g>
    </g>
    <g id="ytick_24">
     <g id="line2d_43">
      <g>
       <use xlink:href="#mc04a483fc7" x="198" y="599.630646" style="stroke: #000000; stroke-width: 0.8"/>
      </g>
     </g>
     <g id="text_47">
      <!-- 100 -->
      <g transform="translate(152.825 607.229084)scale(0.2 -0.2)">
       <use xlink:href="#DejaVuSans-31"/>
       <use xlink:href="#DejaVuSans-30" x="63.623047"/>
       <use xlink:href="#DejaVuSans-30" x="127.246094"/>
      </g>
     </g>
    </g>
    <g id="ytick_25">
     <g id="line2d_44">
      <g>
       <use xlink:href="#mc04a483fc7" x="198" y="552.374778" style="stroke: #000000; stroke-width: 0.8"/>
      </g>
     </g>
     <g id="text_48">
      <!-- 125 -->
      <g transform="translate(152.825 559.973216)scale(0.2 -0.2)">
       <use xlink:href="#DejaVuSans-31"/>
       <use xlink:href="#DejaVuSans-32" x="63.623047"/>
       <use xlink:href="#DejaVuSans-35" x="127.246094"/>
      </g>
     </g>
    </g>
    <g id="ytick_26">
     <g id="line2d_45">
      <g>
       <use xlink:href="#mc04a483fc7" x="198" y="505.11891" style="stroke: #000000; stroke-width: 0.8"/>
      </g>
     </g>
     <g id="text_49">
      <!-- 150 -->
      <g transform="translate(152.825 512.717348)scale(0.2 -0.2)">
       <use xlink:href="#DejaVuSans-31"/>
       <use xlink:href="#DejaVuSans-35" x="63.623047"/>
       <use xlink:href="#DejaVuSans-30" x="127.246094"/>
      </g>
     </g>
    </g>
    <g id="text_50">
     <!-- Ocurrencia -->
     <g transform="translate(144.665625 699.185)rotate(-90)scale(0.2 -0.2)">
      <use xlink:href="#DejaVuSans-4f"/>
      <use xlink:href="#DejaVuSans-63" x="78.710938"/>
      <use xlink:href="#DejaVuSans-75" x="133.691406"/>
      <use xlink:href="#DejaVuSans-72" x="197.070312"/>
      <use xlink:href="#DejaVuSans-72" x="236.433594"/>
      <use xlink:href="#DejaVuSans-65" x="275.296875"/>
      <use xlink:href="#DejaVuSans-6e" x="336.820312"/>
      <use xlink:href="#DejaVuSans-63" x="400.199219"/>
      <use xlink:href="#DejaVuSans-69" x="455.179688"/>
      <use xlink:href="#DejaVuSans-61" x="482.962891"/>
     </g>
    </g>
   </g>
   <g id="line2d_46">
    <path d="M 214.411765 786.63688 
L 221.637369 785.403348 
L 228.862972 783.545439 
L 236.088576 780.824795 
L 243.31418 776.952848 
L 250.539784 771.599775 
L 257.765388 764.414254 
L 264.990992 755.05572 
L 272.216596 743.239029 
L 279.4422 728.788844 
L 286.667804 711.698032 
L 293.893408 692.181477 
L 301.119011 670.714812 
L 308.344615 648.047369 
L 315.570219 625.180767 
L 322.795823 603.309079 
L 330.021427 583.722879 
L 337.247031 567.686535 
L 344.472635 556.304392 
L 351.698239 550.39531 
L 358.923843 550.39531 
L 366.149446 556.304392 
L 373.37505 567.686535 
L 380.600654 583.722879 
L 387.826258 603.309079 
L 395.051862 625.180767 
L 402.277466 648.047369 
L 409.50307 670.714812 
L 416.728674 692.181477 
L 423.954278 711.698032 
L 431.179881 728.788844 
L 438.405485 743.239029 
L 445.631089 755.05572 
L 452.856693 764.414254 
L 460.082297 771.599775 
L 467.307901 776.952848 
L 474.533505 780.824795 
L 481.759109 783.545439 
L 488.984713 785.403348 
L 496.210317 786.63688 
" clip-path="url(#p3ed1d30fec)" style="fill: none; stroke: #ff0000; stroke-width: 1.5; stroke-linecap: square"/>
   </g>
   <g id="patch_22">
    <path d="M 198 788.654118 
L 198 500.865882 
" style="fill: none; stroke: #000000; stroke-width: 0.8; stroke-linejoin: miter; stroke-linecap: square"/>
   </g>
   <g id="patch_23">
    <path d="M 559.058824 788.654118 
L 559.058824 500.865882 
" style="fill: none; stroke: #000000; stroke-width: 0.8; stroke-linejoin: miter; stroke-linecap: square"/>
   </g>
   <g id="patch_24">
    <path d="M 198 788.654118 
L 559.058824 788.654118 
" style="fill: none; stroke: #000000; stroke-width: 0.8; stroke-linejoin: miter; stroke-linecap: square"/>
   </g>
   <g id="patch_25">
    <path d="M 198 500.865882 
L 559.058824 500.865882 
" style="fill: none; stroke: #000000; stroke-width: 0.8; stroke-linejoin: miter; stroke-linecap: square"/>
   </g>
  </g>
  <g id="axes_5">
   <g id="patch_26">
    <path d="M 631.270588 788.654118 
L 992.329412 788.654118 
L 992.329412 500.865882 
L 631.270588 500.865882 
z
" style="fill: #ffffff"/>
   </g>
   <g id="patch_27">
    <path d="M 647.682353 788.654118 
L 647.682353 788.654118 
L 664.957895 788.654118 
L 664.957895 788.654118 
L 682.233437 788.654118 
L 682.233437 788.654118 
L 699.508978 788.654118 
L 699.508978 788.654118 
L 716.78452 788.654118 
L 716.78452 787.70573 
L 734.060062 787.70573 
L 734.060062 784.860567 
L 751.335604 784.860567 
L 751.335604 765.892814 
L 768.611146 765.892814 
L 768.611146 691.918576 
L 785.886687 691.918576 
L 785.886687 583.802383 
L 803.162229 583.802383 
L 803.162229 514.570084 
L 820.437771 514.570084 
L 820.437771 572.421731 
L 837.713313 572.421731 
L 837.713313 687.176638 
L 854.988854 687.176638 
L 854.988854 763.047651 
L 872.264396 763.047651 
L 872.264396 786.757342 
L 889.539938 786.757342 
L 889.539938 788.654118 
L 906.81548 788.654118 
L 906.81548 788.654118 
L 924.091022 788.654118 
L 924.091022 788.654118 
L 941.366563 788.654118 
L 941.366563 788.654118 
L 958.642105 788.654118 
L 958.642105 788.654118 
L 975.917647 788.654118 
L 975.917647 788.654118 
L 958.642105 788.654118 
L 958.642105 788.654118 
L 941.366563 788.654118 
L 941.366563 788.654118 
L 924.091022 788.654118 
L 924.091022 788.654118 
L 906.81548 788.654118 
L 906.81548 788.654118 
L 889.539938 788.654118 
L 889.539938 788.654118 
L 872.264396 788.654118 
L 872.264396 788.654118 
L 854.988854 788.654118 
L 854.988854 788.654118 
L 837.713313 788.654118 
L 837.713313 788.654118 
L 820.437771 788.654118 
L 820.437771 788.654118 
L 803.162229 788.654118 
L 803.162229 788.654118 
L 785.886687 788.654118 
L 785.886687 788.654118 
L 768.611146 788.654118 
L 768.611146 788.654118 
L 751.335604 788.654118 
L 751.335604 788.654118 
L 734.060062 788.654118 
L 734.060062 788.654118 
L 716.78452 788.654118 
L 716.78452 788.654118 
L 699.508978 788.654118 
L 699.508978 788.654118 
L 682.233437 788.654118 
L 682.233437 788.654118 
L 664.957895 788.654118 
L 664.957895 788.654118 
z
" clip-path="url(#pec46a845a7)" style="fill: #c0c0c0; opacity: 0.5"/>
   </g>
   <g id="matplotlib.axis_9">
    <g id="xtick_17">
     <g id="line2d_47">
      <g>
       <use xlink:href="#m8de48e0731" x="694.961268" y="788.654118" style="stroke: #000000; stroke-width: 0.8"/>
      </g>
     </g>
     <g id="text_51">
      <!-- 1 -->
      <g transform="translate(688.598768 810.850993)scale(0.2 -0.2)">
       <use xlink:href="#DejaVuSans-31"/>
      </g>
     </g>
    </g>
    <g id="xtick_18">
     <g id="line2d_48">
      <g>
       <use xlink:href="#m8de48e0731" x="801.178297" y="788.654118" style="stroke: #000000; stroke-width: 0.8"/>
      </g>
     </g>
     <g id="text_52">
      <!-- 2 -->
      <g transform="translate(794.815797 810.850993)scale(0.2 -0.2)">
       <use xlink:href="#DejaVuSans-32"/>
      </g>
     </g>
    </g>
    <g id="xtick_19">
     <g id="line2d_49">
      <g>
       <use xlink:href="#m8de48e0731" x="907.395326" y="788.654118" style="stroke: #000000; stroke-width: 0.8"/>
      </g>
     </g>
     <g id="text_53">
      <!-- 3 -->
      <g transform="translate(901.032826 810.850993)scale(0.2 -0.2)">
       <use xlink:href="#DejaVuSans-33"/>
      </g>
     </g>
    </g>
    <g id="text_54">
     <!-- $x$ -->
     <g transform="translate(805.8 834.207243)scale(0.2 -0.2)">
      <use xlink:href="#DejaVuSans-Oblique-78" transform="translate(0 0.3125)"/>
     </g>
    </g>
   </g>
   <g id="matplotlib.axis_10">
    <g id="ytick_27">
     <g id="line2d_50">
      <g>
       <use xlink:href="#mc04a483fc7" x="631.270588" y="788.654118" style="stroke: #000000; stroke-width: 0.8"/>
      </g>
     </g>
     <g id="text_55">
      <!-- 0 -->
      <g transform="translate(611.545588 796.252555)scale(0.2 -0.2)">
       <use xlink:href="#DejaVuSans-30"/>
      </g>
     </g>
    </g>
    <g id="ytick_28">
     <g id="line2d_51">
      <g>
       <use xlink:href="#mc04a483fc7" x="631.270588" y="741.234735" style="stroke: #000000; stroke-width: 0.8"/>
      </g>
     </g>
     <g id="text_56">
      <!-- 50 -->
      <g transform="translate(598.820588 748.833172)scale(0.2 -0.2)">
       <use xlink:href="#DejaVuSans-35"/>
       <use xlink:href="#DejaVuSans-30" x="63.623047"/>
      </g>
     </g>
    </g>
    <g id="ytick_29">
     <g id="line2d_52">
      <g>
       <use xlink:href="#mc04a483fc7" x="631.270588" y="693.815352" style="stroke: #000000; stroke-width: 0.8"/>
      </g>
     </g>
     <g id="text_57">
      <!-- 100 -->
      <g transform="translate(586.095588 701.413789)scale(0.2 -0.2)">
       <use xlink:href="#DejaVuSans-31"/>
       <use xlink:href="#DejaVuSans-30" x="63.623047"/>
       <use xlink:href="#DejaVuSans-30" x="127.246094"/>
      </g>
     </g>
    </g>
    <g id="ytick_30">
     <g id="line2d_53">
      <g>
       <use xlink:href="#mc04a483fc7" x="631.270588" y="646.395969" style="stroke: #000000; stroke-width: 0.8"/>
      </g>
     </g>
     <g id="text_58">
      <!-- 150 -->
      <g transform="translate(586.095588 653.994406)scale(0.2 -0.2)">
       <use xlink:href="#DejaVuSans-31"/>
       <use xlink:href="#DejaVuSans-35" x="63.623047"/>
       <use xlink:href="#DejaVuSans-30" x="127.246094"/>
      </g>
     </g>
    </g>
    <g id="ytick_31">
     <g id="line2d_54">
      <g>
       <use xlink:href="#mc04a483fc7" x="631.270588" y="598.976586" style="stroke: #000000; stroke-width: 0.8"/>
      </g>
     </g>
     <g id="text_59">
      <!-- 200 -->
      <g transform="translate(586.095588 606.575023)scale(0.2 -0.2)">
       <use xlink:href="#DejaVuSans-32"/>
       <use xlink:href="#DejaVuSans-30" x="63.623047"/>
       <use xlink:href="#DejaVuSans-30" x="127.246094"/>
      </g>
     </g>
    </g>
    <g id="ytick_32">
     <g id="line2d_55">
      <g>
       <use xlink:href="#mc04a483fc7" x="631.270588" y="551.557203" style="stroke: #000000; stroke-width: 0.8"/>
      </g>
     </g>
     <g id="text_60">
      <!-- 250 -->
      <g transform="translate(586.095588 559.15564)scale(0.2 -0.2)">
       <use xlink:href="#DejaVuSans-32"/>
       <use xlink:href="#DejaVuSans-35" x="63.623047"/>
       <use xlink:href="#DejaVuSans-30" x="127.246094"/>
      </g>
     </g>
    </g>
    <g id="ytick_33">
     <g id="line2d_56">
      <g>
       <use xlink:href="#mc04a483fc7" x="631.270588" y="504.13782" style="stroke: #000000; stroke-width: 0.8"/>
      </g>
     </g>
     <g id="text_61">
      <!-- 300 -->
      <g transform="translate(586.095588 511.736257)scale(0.2 -0.2)">
       <use xlink:href="#DejaVuSans-33"/>
       <use xlink:href="#DejaVuSans-30" x="63.623047"/>
       <use xlink:href="#DejaVuSans-30" x="127.246094"/>
      </g>
     </g>
    </g>
    <g id="text_62">
     <!-- Ocurrencia -->
     <g transform="translate(577.936213 699.185)rotate(-90)scale(0.2 -0.2)">
      <use xlink:href="#DejaVuSans-4f"/>
      <use xlink:href="#DejaVuSans-63" x="78.710938"/>
      <use xlink:href="#DejaVuSans-75" x="133.691406"/>
      <use xlink:href="#DejaVuSans-72" x="197.070312"/>
      <use xlink:href="#DejaVuSans-72" x="236.433594"/>
      <use xlink:href="#DejaVuSans-65" x="275.296875"/>
      <use xlink:href="#DejaVuSans-6e" x="336.820312"/>
      <use xlink:href="#DejaVuSans-63" x="400.199219"/>
      <use xlink:href="#DejaVuSans-69" x="455.179688"/>
      <use xlink:href="#DejaVuSans-61" x="482.962891"/>
     </g>
    </g>
   </g>
   <g id="line2d_57">
    <path d="M 647.682353 788.654118 
L 653.245663 788.654118 
L 658.808973 788.654117 
L 664.372283 788.654117 
L 669.935593 788.654113 
L 675.498903 788.654101 
L 681.062213 788.654055 
L 686.625523 788.653896 
L 692.188833 788.653374 
L 697.752144 788.651753 
L 703.315454 788.646997 
L 708.878764 788.633821 
L 714.442074 788.599358 
L 720.005384 788.514262 
L 725.568694 788.315998 
L 731.132004 787.880312 
L 736.695314 786.977766 
L 742.258624 785.216399 
L 747.821934 781.980715 
L 753.385244 776.391137 
L 758.948554 767.32286 
L 764.511864 753.529742 
L 770.075174 733.905584 
L 775.638485 707.873326 
L 781.201795 675.826494 
L 786.765105 639.479647 
L 792.328415 601.953696 
L 797.891725 567.462929 
L 803.455035 540.591072 
L 809.018345 525.307314 
L 814.581655 524.007859 
L 820.144965 536.900804 
L 825.708275 561.951591 
L 831.271585 595.408678 
L 836.834895 632.722611 
L 842.398205 669.549054 
L 847.961515 702.535252 
L 853.524826 729.710321 
L 859.088136 750.464119 
L 864.651446 765.231636 
L 870.214756 775.055715 
L 875.778066 781.18078 
L 881.341376 784.766236 
L 886.904686 786.739495 
L 892.467996 787.761583 
L 898.031306 788.26026 
L 903.594616 788.489596 
L 909.157926 788.589063 
L 914.721236 788.629767 
L 920.284546 788.64549 
L 925.847856 788.651224 
L 931.411167 788.653199 
L 936.974477 788.653841 
L 942.537787 788.654039 
L 948.101097 788.654096 
L 953.664407 788.654112 
L 959.227717 788.654116 
L 964.791027 788.654117 
L 970.354337 788.654118 
L 975.917647 788.654118 
" clip-path="url(#pec46a845a7)" style="fill: none; stroke: #ff0000; stroke-width: 1.5; stroke-linecap: square"/>
   </g>
   <g id="patch_28">
    <path d="M 631.270588 788.654118 
L 631.270588 500.865882 
" style="fill: none; stroke: #000000; stroke-width: 0.8; stroke-linejoin: miter; stroke-linecap: square"/>
   </g>
   <g id="patch_29">
    <path d="M 992.329412 788.654118 
L 992.329412 500.865882 
" style="fill: none; stroke: #000000; stroke-width: 0.8; stroke-linejoin: miter; stroke-linecap: square"/>
   </g>
   <g id="patch_30">
    <path d="M 631.270588 788.654118 
L 992.329412 788.654118 
" style="fill: none; stroke: #000000; stroke-width: 0.8; stroke-linejoin: miter; stroke-linecap: square"/>
   </g>
   <g id="patch_31">
    <path d="M 631.270588 500.865882 
L 992.329412 500.865882 
" style="fill: none; stroke: #000000; stroke-width: 0.8; stroke-linejoin: miter; stroke-linecap: square"/>
   </g>
  </g>
  <g id="axes_6">
   <g id="patch_32">
    <path d="M 1064.541176 788.654118 
L 1425.6 788.654118 
L 1425.6 500.865882 
L 1064.541176 500.865882 
z
" style="fill: #ffffff"/>
   </g>
   <g id="patch_33">
    <path d="M 1080.952941 788.654118 
L 1080.952941 788.654118 
L 1098.228483 788.654118 
L 1098.228483 788.654118 
L 1115.504025 788.654118 
L 1115.504025 788.654118 
L 1132.779567 788.654118 
L 1132.779567 788.654118 
L 1150.055108 788.654118 
L 1150.055108 788.654118 
L 1167.33065 788.654118 
L 1167.33065 788.654118 
L 1184.606192 788.654118 
L 1184.606192 788.654118 
L 1201.881734 788.654118 
L 1201.881734 787.840423 
L 1219.157276 787.840423 
L 1219.157276 717.049001 
L 1236.432817 717.049001 
L 1236.432817 525.017098 
L 1253.708359 525.017098 
L 1253.708359 719.490085 
L 1270.983901 719.490085 
L 1270.983901 787.026729 
L 1288.259443 787.026729 
L 1288.259443 788.654118 
L 1305.534985 788.654118 
L 1305.534985 788.654118 
L 1322.810526 788.654118 
L 1322.810526 788.654118 
L 1340.086068 788.654118 
L 1340.086068 788.654118 
L 1357.36161 788.654118 
L 1357.36161 788.654118 
L 1374.637152 788.654118 
L 1374.637152 788.654118 
L 1391.912693 788.654118 
L 1391.912693 788.654118 
L 1409.188235 788.654118 
L 1409.188235 788.654118 
L 1391.912693 788.654118 
L 1391.912693 788.654118 
L 1374.637152 788.654118 
L 1374.637152 788.654118 
L 1357.36161 788.654118 
L 1357.36161 788.654118 
L 1340.086068 788.654118 
L 1340.086068 788.654118 
L 1322.810526 788.654118 
L 1322.810526 788.654118 
L 1305.534985 788.654118 
L 1305.534985 788.654118 
L 1288.259443 788.654118 
L 1288.259443 788.654118 
L 1270.983901 788.654118 
L 1270.983901 788.654118 
L 1253.708359 788.654118 
L 1253.708359 788.654118 
L 1236.432817 788.654118 
L 1236.432817 788.654118 
L 1219.157276 788.654118 
L 1219.157276 788.654118 
L 1201.881734 788.654118 
L 1201.881734 788.654118 
L 1184.606192 788.654118 
L 1184.606192 788.654118 
L 1167.33065 788.654118 
L 1167.33065 788.654118 
L 1150.055108 788.654118 
L 1150.055108 788.654118 
L 1132.779567 788.654118 
L 1132.779567 788.654118 
L 1115.504025 788.654118 
L 1115.504025 788.654118 
L 1098.228483 788.654118 
L 1098.228483 788.654118 
z
" clip-path="url(#pfcc2c6197c)" style="fill: #c0c0c0; opacity: 0.5"/>
   </g>
   <g id="matplotlib.axis_11">
    <g id="xtick_20">
     <g id="line2d_58">
      <g>
       <use xlink:href="#m8de48e0731" x="1128.231856" y="788.654118" style="stroke: #000000; stroke-width: 0.8"/>
      </g>
     </g>
     <g id="text_63">
      <!-- 1 -->
      <g transform="translate(1121.869356 810.850993)scale(0.2 -0.2)">
       <use xlink:href="#DejaVuSans-31"/>
      </g>
     </g>
    </g>
    <g id="xtick_21">
     <g id="line2d_59">
      <g>
       <use xlink:href="#m8de48e0731" x="1234.448885" y="788.654118" style="stroke: #000000; stroke-width: 0.8"/>
      </g>
     </g>
     <g id="text_64">
      <!-- 2 -->
      <g transform="translate(1228.086385 810.850993)scale(0.2 -0.2)">
       <use xlink:href="#DejaVuSans-32"/>
      </g>
     </g>
    </g>
    <g id="xtick_22">
     <g id="line2d_60">
      <g>
       <use xlink:href="#m8de48e0731" x="1340.665914" y="788.654118" style="stroke: #000000; stroke-width: 0.8"/>
      </g>
     </g>
     <g id="text_65">
      <!-- 3 -->
      <g transform="translate(1334.303414 810.850993)scale(0.2 -0.2)">
       <use xlink:href="#DejaVuSans-33"/>
      </g>
     </g>
    </g>
    <g id="text_66">
     <!-- $x$ -->
     <g transform="translate(1239.070588 834.207243)scale(0.2 -0.2)">
      <use xlink:href="#DejaVuSans-Oblique-78" transform="translate(0 0.3125)"/>
     </g>
    </g>
   </g>
   <g id="matplotlib.axis_12">
    <g id="ytick_34">
     <g id="line2d_61">
      <g>
       <use xlink:href="#mc04a483fc7" x="1064.541176" y="788.654118" style="stroke: #000000; stroke-width: 0.8"/>
      </g>
     </g>
     <g id="text_67">
      <!-- 0 -->
      <g transform="translate(1044.816176 796.252555)scale(0.2 -0.2)">
       <use xlink:href="#DejaVuSans-30"/>
      </g>
     </g>
    </g>
    <g id="ytick_35">
     <g id="line2d_62">
      <g>
       <use xlink:href="#mc04a483fc7" x="1064.541176" y="707.284667" style="stroke: #000000; stroke-width: 0.8"/>
      </g>
     </g>
     <g id="text_68">
      <!-- 200 -->
      <g transform="translate(1019.366176 714.883105)scale(0.2 -0.2)">
       <use xlink:href="#DejaVuSans-32"/>
       <use xlink:href="#DejaVuSans-30" x="63.623047"/>
       <use xlink:href="#DejaVuSans-30" x="127.246094"/>
      </g>
     </g>
    </g>
    <g id="ytick_36">
     <g id="line2d_63">
      <g>
       <use xlink:href="#mc04a483fc7" x="1064.541176" y="625.915217" style="stroke: #000000; stroke-width: 0.8"/>
      </g>
     </g>
     <g id="text_69">
      <!-- 400 -->
      <g transform="translate(1019.366176 633.513654)scale(0.2 -0.2)">
       <use xlink:href="#DejaVuSans-34"/>
       <use xlink:href="#DejaVuSans-30" x="63.623047"/>
       <use xlink:href="#DejaVuSans-30" x="127.246094"/>
      </g>
     </g>
    </g>
    <g id="ytick_37">
     <g id="line2d_64">
      <g>
       <use xlink:href="#mc04a483fc7" x="1064.541176" y="544.545766" style="stroke: #000000; stroke-width: 0.8"/>
      </g>
     </g>
     <g id="text_70">
      <!-- 600 -->
      <g transform="translate(1019.366176 552.144204)scale(0.2 -0.2)">
       <use xlink:href="#DejaVuSans-36"/>
       <use xlink:href="#DejaVuSans-30" x="63.623047"/>
       <use xlink:href="#DejaVuSans-30" x="127.246094"/>
      </g>
     </g>
    </g>
    <g id="text_71">
     <!-- Ocurrencia -->
     <g transform="translate(1011.206801 699.185)rotate(-90)scale(0.2 -0.2)">
      <use xlink:href="#DejaVuSans-4f"/>
      <use xlink:href="#DejaVuSans-63" x="78.710938"/>
      <use xlink:href="#DejaVuSans-75" x="133.691406"/>
      <use xlink:href="#DejaVuSans-72" x="197.070312"/>
      <use xlink:href="#DejaVuSans-72" x="236.433594"/>
      <use xlink:href="#DejaVuSans-65" x="275.296875"/>
      <use xlink:href="#DejaVuSans-6e" x="336.820312"/>
      <use xlink:href="#DejaVuSans-63" x="400.199219"/>
      <use xlink:href="#DejaVuSans-69" x="455.179688"/>
      <use xlink:href="#DejaVuSans-61" x="482.962891"/>
     </g>
    </g>
   </g>
   <g id="line2d_65">
    <path d="M 1080.952941 788.654118 
L 1084.268449 788.654118 
L 1087.583957 788.654118 
L 1090.899465 788.654118 
L 1094.214973 788.654118 
L 1097.530481 788.654118 
L 1100.845989 788.654118 
L 1104.161497 788.654118 
L 1107.477005 788.654118 
L 1110.792513 788.654118 
L 1114.108021 788.654118 
L 1117.423529 788.654118 
L 1120.739037 788.654118 
L 1124.054545 788.654118 
L 1127.370053 788.654118 
L 1130.685561 788.654118 
L 1134.00107 788.654118 
L 1137.316578 788.654118 
L 1140.632086 788.654118 
L 1143.947594 788.654118 
L 1147.263102 788.654118 
L 1150.57861 788.654118 
L 1153.894118 788.654118 
L 1157.209626 788.654118 
L 1160.525134 788.654118 
L 1163.840642 788.654118 
L 1167.15615 788.654118 
L 1170.471658 788.654118 
L 1173.787166 788.654118 
L 1177.102674 788.654118 
L 1180.418182 788.654118 
L 1183.73369 788.654117 
L 1187.049198 788.654113 
L 1190.364706 788.654081 
L 1193.680214 788.653881 
L 1196.995722 788.652754 
L 1200.31123 788.647145 
L 1203.626738 788.622385 
L 1206.942246 788.525643 
L 1210.257754 788.191363 
L 1213.573262 787.171237 
L 1216.88877 784.426621 
L 1220.204278 777.931963 
L 1223.519786 764.460397 
L 1226.835294 740.086696 
L 1230.150802 701.916155 
L 1233.46631 650.839537 
L 1236.781818 593.847859 
L 1240.097326 543.673103 
L 1243.412834 514.570084 
L 1246.728342 515.846288 
L 1250.04385 547.079272 
L 1253.359358 598.341152 
L 1256.674866 655.269169 
L 1259.990374 705.484048 
L 1263.305882 742.517146 
L 1266.62139 765.884649 
L 1269.936898 778.656915 
L 1273.252406 784.749074 
L 1276.567914 787.29707 
L 1279.883422 788.234565 
L 1283.19893 788.53872 
L 1286.514439 788.62588 
L 1289.829947 788.64797 
L 1293.145455 788.652927 
L 1296.460963 788.653912 
L 1299.776471 788.654086 
L 1303.091979 788.654113 
L 1306.407487 788.654117 
L 1309.722995 788.654118 
L 1313.038503 788.654118 
L 1316.354011 788.654118 
L 1319.669519 788.654118 
L 1322.985027 788.654118 
L 1326.300535 788.654118 
L 1329.616043 788.654118 
L 1332.931551 788.654118 
L 1336.247059 788.654118 
L 1339.562567 788.654118 
L 1342.878075 788.654118 
L 1346.193583 788.654118 
L 1349.509091 788.654118 
L 1352.824599 788.654118 
L 1356.140107 788.654118 
L 1359.455615 788.654118 
L 1362.771123 788.654118 
L 1366.086631 788.654118 
L 1369.402139 788.654118 
L 1372.717647 788.654118 
L 1376.033155 788.654118 
L 1379.348663 788.654118 
L 1382.664171 788.654118 
L 1385.979679 788.654118 
L 1389.295187 788.654118 
L 1392.610695 788.654118 
L 1395.926203 788.654118 
L 1399.241711 788.654118 
L 1402.557219 788.654118 
L 1405.872727 788.654118 
L 1409.188235 788.654118 
" clip-path="url(#pfcc2c6197c)" style="fill: none; stroke: #ff0000; stroke-width: 1.5; stroke-linecap: square"/>
   </g>
   <g id="patch_34">
    <path d="M 1064.541176 788.654118 
L 1064.541176 500.865882 
" style="fill: none; stroke: #000000; stroke-width: 0.8; stroke-linejoin: miter; stroke-linecap: square"/>
   </g>
   <g id="patch_35">
    <path d="M 1425.6 788.654118 
L 1425.6 500.865882 
" style="fill: none; stroke: #000000; stroke-width: 0.8; stroke-linejoin: miter; stroke-linecap: square"/>
   </g>
   <g id="patch_36">
    <path d="M 1064.541176 788.654118 
L 1425.6 788.654118 
" style="fill: none; stroke: #000000; stroke-width: 0.8; stroke-linejoin: miter; stroke-linecap: square"/>
   </g>
   <g id="patch_37">
    <path d="M 1064.541176 500.865882 
L 1425.6 500.865882 
" style="fill: none; stroke: #000000; stroke-width: 0.8; stroke-linejoin: miter; stroke-linecap: square"/>
   </g>
  </g>
  <g id="axes_7">
   <g id="patch_38">
    <path d="M 198 1134 
L 559.058824 1134 
L 559.058824 846.211765 
L 198 846.211765 
z
" style="fill: #ffffff"/>
   </g>
   <g id="patch_39">
    <path d="M 214.411765 1134 
L 214.411765 1006.409157 
L 258.176471 1006.409157 
L 258.176471 906.226717 
L 301.941176 906.226717 
L 301.941176 859.915966 
L 345.705882 859.915966 
L 345.705882 960.098406 
L 389.470588 960.098406 
L 389.470588 1047.049203 
L 433.235294 1047.049203 
L 433.235294 1093.359954 
L 477 1093.359954 
L 477 1119.82324 
L 520.764706 1119.82324 
L 520.764706 1134 
L 477 1134 
L 477 1134 
L 433.235294 1134 
L 433.235294 1134 
L 389.470588 1134 
L 389.470588 1134 
L 345.705882 1134 
L 345.705882 1134 
L 301.941176 1134 
L 301.941176 1134 
L 258.176471 1134 
L 258.176471 1134 
z
" clip-path="url(#p482a936658)" style="fill: #c0c0c0; opacity: 0.5"/>
   </g>
   <g id="matplotlib.axis_13">
    <g id="xtick_23">
     <g id="line2d_66">
      <g>
       <use xlink:href="#m8de48e0731" x="236.294118" y="1134" style="stroke: #000000; stroke-width: 0.8"/>
      </g>
     </g>
     <g id="text_72">
      <!-- 0 -->
      <g transform="translate(229.931618 1156.196875)scale(0.2 -0.2)">
       <use xlink:href="#DejaVuSans-30"/>
      </g>
     </g>
    </g>
    <g id="xtick_24">
     <g id="line2d_67">
      <g>
       <use xlink:href="#m8de48e0731" x="323.823529" y="1134" style="stroke: #000000; stroke-width: 0.8"/>
      </g>
     </g>
     <g id="text_73">
      <!-- 2 -->
      <g transform="translate(317.461029 1156.196875)scale(0.2 -0.2)">
       <use xlink:href="#DejaVuSans-32"/>
      </g>
     </g>
    </g>
    <g id="xtick_25">
     <g id="line2d_68">
      <g>
       <use xlink:href="#m8de48e0731" x="411.352941" y="1134" style="stroke: #000000; stroke-width: 0.8"/>
      </g>
     </g>
     <g id="text_74">
      <!-- 4 -->
      <g transform="translate(404.990441 1156.196875)scale(0.2 -0.2)">
       <use xlink:href="#DejaVuSans-34"/>
      </g>
     </g>
    </g>
    <g id="xtick_26">
     <g id="line2d_69">
      <g>
       <use xlink:href="#m8de48e0731" x="498.882353" y="1134" style="stroke: #000000; stroke-width: 0.8"/>
      </g>
     </g>
     <g id="text_75">
      <!-- 6 -->
      <g transform="translate(492.519853 1156.196875)scale(0.2 -0.2)">
       <use xlink:href="#DejaVuSans-36"/>
      </g>
     </g>
    </g>
    <g id="text_76">
     <!-- $x$ -->
     <g transform="translate(372.529412 1179.553125)scale(0.2 -0.2)">
      <use xlink:href="#DejaVuSans-Oblique-78" transform="translate(0 0.3125)"/>
     </g>
    </g>
   </g>
   <g id="matplotlib.axis_14">
    <g id="ytick_38">
     <g id="line2d_70">
      <g>
       <use xlink:href="#mc04a483fc7" x="198" y="1134" style="stroke: #000000; stroke-width: 0.8"/>
      </g>
     </g>
     <g id="text_77">
      <!-- 0 -->
      <g transform="translate(178.275 1141.598438)scale(0.2 -0.2)">
       <use xlink:href="#DejaVuSans-30"/>
      </g>
     </g>
    </g>
    <g id="ytick_39">
     <g id="line2d_71">
      <g>
       <use xlink:href="#mc04a483fc7" x="198" y="1086.744132" style="stroke: #000000; stroke-width: 0.8"/>
      </g>
     </g>
     <g id="text_78">
      <!-- 50 -->
      <g transform="translate(165.55 1094.34257)scale(0.2 -0.2)">
       <use xlink:href="#DejaVuSans-35"/>
       <use xlink:href="#DejaVuSans-30" x="63.623047"/>
      </g>
     </g>
    </g>
    <g id="ytick_40">
     <g id="line2d_72">
      <g>
       <use xlink:href="#mc04a483fc7" x="198" y="1039.488264" style="stroke: #000000; stroke-width: 0.8"/>
      </g>
     </g>
     <g id="text_79">
      <!-- 100 -->
      <g transform="translate(152.825 1047.086702)scale(0.2 -0.2)">
       <use xlink:href="#DejaVuSans-31"/>
       <use xlink:href="#DejaVuSans-30" x="63.623047"/>
       <use xlink:href="#DejaVuSans-30" x="127.246094"/>
      </g>
     </g>
    </g>
    <g id="ytick_41">
     <g id="line2d_73">
      <g>
       <use xlink:href="#mc04a483fc7" x="198" y="992.232396" style="stroke: #000000; stroke-width: 0.8"/>
      </g>
     </g>
     <g id="text_80">
      <!-- 150 -->
      <g transform="translate(152.825 999.830834)scale(0.2 -0.2)">
       <use xlink:href="#DejaVuSans-31"/>
       <use xlink:href="#DejaVuSans-35" x="63.623047"/>
       <use xlink:href="#DejaVuSans-30" x="127.246094"/>
      </g>
     </g>
    </g>
    <g id="ytick_42">
     <g id="line2d_74">
      <g>
       <use xlink:href="#mc04a483fc7" x="198" y="944.976529" style="stroke: #000000; stroke-width: 0.8"/>
      </g>
     </g>
     <g id="text_81">
      <!-- 200 -->
      <g transform="translate(152.825 952.574966)scale(0.2 -0.2)">
       <use xlink:href="#DejaVuSans-32"/>
       <use xlink:href="#DejaVuSans-30" x="63.623047"/>
       <use xlink:href="#DejaVuSans-30" x="127.246094"/>
      </g>
     </g>
    </g>
    <g id="ytick_43">
     <g id="line2d_75">
      <g>
       <use xlink:href="#mc04a483fc7" x="198" y="897.720661" style="stroke: #000000; stroke-width: 0.8"/>
      </g>
     </g>
     <g id="text_82">
      <!-- 250 -->
      <g transform="translate(152.825 905.319098)scale(0.2 -0.2)">
       <use xlink:href="#DejaVuSans-32"/>
       <use xlink:href="#DejaVuSans-35" x="63.623047"/>
       <use xlink:href="#DejaVuSans-30" x="127.246094"/>
      </g>
     </g>
    </g>
    <g id="ytick_44">
     <g id="line2d_76">
      <g>
       <use xlink:href="#mc04a483fc7" x="198" y="850.464793" style="stroke: #000000; stroke-width: 0.8"/>
      </g>
     </g>
     <g id="text_83">
      <!-- 300 -->
      <g transform="translate(152.825 858.06323)scale(0.2 -0.2)">
       <use xlink:href="#DejaVuSans-33"/>
       <use xlink:href="#DejaVuSans-30" x="63.623047"/>
       <use xlink:href="#DejaVuSans-30" x="127.246094"/>
      </g>
     </g>
    </g>
    <g id="text_84">
     <!-- Ocurrencia -->
     <g transform="translate(144.665625 1044.530882)rotate(-90)scale(0.2 -0.2)">
      <use xlink:href="#DejaVuSans-4f"/>
      <use xlink:href="#DejaVuSans-63" x="78.710938"/>
      <use xlink:href="#DejaVuSans-75" x="133.691406"/>
      <use xlink:href="#DejaVuSans-72" x="197.070312"/>
      <use xlink:href="#DejaVuSans-72" x="236.433594"/>
      <use xlink:href="#DejaVuSans-65" x="275.296875"/>
      <use xlink:href="#DejaVuSans-6e" x="336.820312"/>
      <use xlink:href="#DejaVuSans-63" x="400.199219"/>
      <use xlink:href="#DejaVuSans-69" x="455.179688"/>
      <use xlink:href="#DejaVuSans-61" x="482.962891"/>
     </g>
    </g>
   </g>
   <g id="line2d_77">
    <defs>
     <path id="m22c0936a4d" d="M 0 1.5 
C 0.397805 1.5 0.77937 1.341951 1.06066 1.06066 
C 1.341951 0.77937 1.5 0.397805 1.5 0 
C 1.5 -0.397805 1.341951 -0.77937 1.06066 -1.06066 
C 0.77937 -1.341951 0.397805 -1.5 0 -1.5 
C -0.397805 -1.5 -0.77937 -1.341951 -1.06066 -1.06066 
C -1.341951 -0.77937 -1.5 -0.397805 -1.5 0 
C -1.5 0.397805 -1.341951 0.77937 -1.06066 1.06066 
C -0.77937 1.341951 -0.397805 1.5 0 1.5 
z
" style="stroke: #ff0000"/>
    </defs>
    <g clip-path="url(#p482a936658)">
     <use xlink:href="#m22c0936a4d" x="236.294118" y="1018.264304" style="fill: #ff0000; stroke: #ff0000"/>
     <use xlink:href="#m22c0936a4d" x="280.058824" y="890.955039" style="fill: #ff0000; stroke: #ff0000"/>
     <use xlink:href="#m22c0936a4d" x="323.823529" y="878.802791" style="fill: #ff0000; stroke: #ff0000"/>
     <use xlink:href="#m22c0936a4d" x="367.588235" y="955.361953" style="fill: #ff0000; stroke: #ff0000"/>
     <use xlink:href="#m22c0936a4d" x="411.352941" y="1040.215026" style="fill: #ff0000; stroke: #ff0000"/>
     <use xlink:href="#m22c0936a4d" x="455.117647" y="1094.610311" style="fill: #ff0000; stroke: #ff0000"/>
     <use xlink:href="#m22c0936a4d" x="498.882353" y="1120.213609" style="fill: #ff0000; stroke: #ff0000"/>
     <use xlink:href="#m22c0936a4d" x="542.647059" y="1129.864083" style="fill: #ff0000; stroke: #ff0000"/>
    </g>
   </g>
   <g id="patch_40">
    <path d="M 198 1134 
L 198 846.211765 
" style="fill: none; stroke: #000000; stroke-width: 0.8; stroke-linejoin: miter; stroke-linecap: square"/>
   </g>
   <g id="patch_41">
    <path d="M 559.058824 1134 
L 559.058824 846.211765 
" style="fill: none; stroke: #000000; stroke-width: 0.8; stroke-linejoin: miter; stroke-linecap: square"/>
   </g>
   <g id="patch_42">
    <path d="M 198 1134 
L 559.058824 1134 
" style="fill: none; stroke: #000000; stroke-width: 0.8; stroke-linejoin: miter; stroke-linecap: square"/>
   </g>
   <g id="patch_43">
    <path d="M 198 846.211765 
L 559.058824 846.211765 
" style="fill: none; stroke: #000000; stroke-width: 0.8; stroke-linejoin: miter; stroke-linecap: square"/>
   </g>
  </g>
  <g id="axes_8">
   <g id="patch_44">
    <path d="M 631.270588 1134 
L 992.329412 1134 
L 992.329412 846.211765 
L 631.270588 846.211765 
z
" style="fill: #ffffff"/>
   </g>
   <g id="patch_45">
    <path d="M 647.682353 1134 
L 647.682353 1134 
L 664.957895 1134 
L 664.957895 1120.295798 
L 682.233437 1120.295798 
L 682.233437 1080.32521 
L 699.508978 1080.32521 
L 699.508978 1001.52605 
L 716.78452 1001.52605 
L 716.78452 896.460504 
L 734.060062 896.460504 
L 734.060062 859.915966 
L 751.335604 859.915966 
L 751.335604 1007.236134 
L 768.611146 1007.236134 
L 768.611146 963.839496 
L 785.886687 963.839496 
L 785.886687 1044.922689 
L 803.162229 1044.922689 
L 803.162229 1103.165546 
L 820.437771 1103.165546 
L 820.437771 1126.005882 
L 837.713313 1126.005882 
L 837.713313 1129.431933 
L 854.988854 1129.431933 
L 854.988854 1134 
L 872.264396 1134 
L 872.264396 1132.857983 
L 889.539938 1132.857983 
L 889.539938 1134 
L 906.81548 1134 
L 906.81548 1134 
L 924.091022 1134 
L 924.091022 1134 
L 941.366563 1134 
L 941.366563 1134 
L 958.642105 1134 
L 958.642105 1134 
L 975.917647 1134 
L 975.917647 1134 
L 958.642105 1134 
L 958.642105 1134 
L 941.366563 1134 
L 941.366563 1134 
L 924.091022 1134 
L 924.091022 1134 
L 906.81548 1134 
L 906.81548 1134 
L 889.539938 1134 
L 889.539938 1134 
L 872.264396 1134 
L 872.264396 1134 
L 854.988854 1134 
L 854.988854 1134 
L 837.713313 1134 
L 837.713313 1134 
L 820.437771 1134 
L 820.437771 1134 
L 803.162229 1134 
L 803.162229 1134 
L 785.886687 1134 
L 785.886687 1134 
L 768.611146 1134 
L 768.611146 1134 
L 751.335604 1134 
L 751.335604 1134 
L 734.060062 1134 
L 734.060062 1134 
L 716.78452 1134 
L 716.78452 1134 
L 699.508978 1134 
L 699.508978 1134 
L 682.233437 1134 
L 682.233437 1134 
L 664.957895 1134 
L 664.957895 1134 
z
" clip-path="url(#p7f9b9f377c)" style="fill: #c0c0c0; opacity: 0.5"/>
   </g>
   <g id="matplotlib.axis_15">
    <g id="xtick_27">
     <g id="line2d_78">
      <g>
       <use xlink:href="#m8de48e0731" x="647.682353" y="1134" style="stroke: #000000; stroke-width: 0.8"/>
      </g>
     </g>
     <g id="text_85">
      <!-- 0 -->
      <g transform="translate(641.319853 1156.196875)scale(0.2 -0.2)">
       <use xlink:href="#DejaVuSans-30"/>
      </g>
     </g>
    </g>
    <g id="xtick_28">
     <g id="line2d_79">
      <g>
       <use xlink:href="#m8de48e0731" x="741.463866" y="1134" style="stroke: #000000; stroke-width: 0.8"/>
      </g>
     </g>
     <g id="text_86">
      <!-- 2 -->
      <g transform="translate(735.101366 1156.196875)scale(0.2 -0.2)">
       <use xlink:href="#DejaVuSans-32"/>
      </g>
     </g>
    </g>
    <g id="xtick_29">
     <g id="line2d_80">
      <g>
       <use xlink:href="#m8de48e0731" x="835.245378" y="1134" style="stroke: #000000; stroke-width: 0.8"/>
      </g>
     </g>
     <g id="text_87">
      <!-- 4 -->
      <g transform="translate(828.882878 1156.196875)scale(0.2 -0.2)">
       <use xlink:href="#DejaVuSans-34"/>
      </g>
     </g>
    </g>
    <g id="xtick_30">
     <g id="line2d_81">
      <g>
       <use xlink:href="#m8de48e0731" x="929.026891" y="1134" style="stroke: #000000; stroke-width: 0.8"/>
      </g>
     </g>
     <g id="text_88">
      <!-- 6 -->
      <g transform="translate(922.664391 1156.196875)scale(0.2 -0.2)">
       <use xlink:href="#DejaVuSans-36"/>
      </g>
     </g>
    </g>
    <g id="text_89">
     <!-- $x$ -->
     <g transform="translate(805.8 1179.553125)scale(0.2 -0.2)">
      <use xlink:href="#DejaVuSans-Oblique-78" transform="translate(0 0.3125)"/>
     </g>
    </g>
   </g>
   <g id="matplotlib.axis_16">
    <g id="ytick_45">
     <g id="line2d_82">
      <g>
       <use xlink:href="#mc04a483fc7" x="631.270588" y="1134" style="stroke: #000000; stroke-width: 0.8"/>
      </g>
     </g>
     <g id="text_90">
      <!-- 0 -->
      <g transform="translate(611.545588 1141.598438)scale(0.2 -0.2)">
       <use xlink:href="#DejaVuSans-30"/>
      </g>
     </g>
    </g>
    <g id="ytick_46">
     <g id="line2d_83">
      <g>
       <use xlink:href="#mc04a483fc7" x="631.270588" y="1076.89916" style="stroke: #000000; stroke-width: 0.8"/>
      </g>
     </g>
     <g id="text_91">
      <!-- 50 -->
      <g transform="translate(598.820588 1084.497597)scale(0.2 -0.2)">
       <use xlink:href="#DejaVuSans-35"/>
       <use xlink:href="#DejaVuSans-30" x="63.623047"/>
      </g>
     </g>
    </g>
    <g id="ytick_47">
     <g id="line2d_84">
      <g>
       <use xlink:href="#mc04a483fc7" x="631.270588" y="1019.798319" style="stroke: #000000; stroke-width: 0.8"/>
      </g>
     </g>
     <g id="text_92">
      <!-- 100 -->
      <g transform="translate(586.095588 1027.396757)scale(0.2 -0.2)">
       <use xlink:href="#DejaVuSans-31"/>
       <use xlink:href="#DejaVuSans-30" x="63.623047"/>
       <use xlink:href="#DejaVuSans-30" x="127.246094"/>
      </g>
     </g>
    </g>
    <g id="ytick_48">
     <g id="line2d_85">
      <g>
       <use xlink:href="#mc04a483fc7" x="631.270588" y="962.697479" style="stroke: #000000; stroke-width: 0.8"/>
      </g>
     </g>
     <g id="text_93">
      <!-- 150 -->
      <g transform="translate(586.095588 970.295916)scale(0.2 -0.2)">
       <use xlink:href="#DejaVuSans-31"/>
       <use xlink:href="#DejaVuSans-35" x="63.623047"/>
       <use xlink:href="#DejaVuSans-30" x="127.246094"/>
      </g>
     </g>
    </g>
    <g id="ytick_49">
     <g id="line2d_86">
      <g>
       <use xlink:href="#mc04a483fc7" x="631.270588" y="905.596639" style="stroke: #000000; stroke-width: 0.8"/>
      </g>
     </g>
     <g id="text_94">
      <!-- 200 -->
      <g transform="translate(586.095588 913.195076)scale(0.2 -0.2)">
       <use xlink:href="#DejaVuSans-32"/>
       <use xlink:href="#DejaVuSans-30" x="63.623047"/>
       <use xlink:href="#DejaVuSans-30" x="127.246094"/>
      </g>
     </g>
    </g>
    <g id="ytick_50">
     <g id="line2d_87">
      <g>
       <use xlink:href="#mc04a483fc7" x="631.270588" y="848.495798" style="stroke: #000000; stroke-width: 0.8"/>
      </g>
     </g>
     <g id="text_95">
      <!-- 250 -->
      <g transform="translate(586.095588 856.094236)scale(0.2 -0.2)">
       <use xlink:href="#DejaVuSans-32"/>
       <use xlink:href="#DejaVuSans-35" x="63.623047"/>
       <use xlink:href="#DejaVuSans-30" x="127.246094"/>
      </g>
     </g>
    </g>
    <g id="text_96">
     <!-- Ocurrencia -->
     <g transform="translate(577.936213 1044.530882)rotate(-90)scale(0.2 -0.2)">
      <use xlink:href="#DejaVuSans-4f"/>
      <use xlink:href="#DejaVuSans-63" x="78.710938"/>
      <use xlink:href="#DejaVuSans-75" x="133.691406"/>
      <use xlink:href="#DejaVuSans-72" x="197.070312"/>
      <use xlink:href="#DejaVuSans-72" x="236.433594"/>
      <use xlink:href="#DejaVuSans-65" x="275.296875"/>
      <use xlink:href="#DejaVuSans-6e" x="336.820312"/>
      <use xlink:href="#DejaVuSans-63" x="400.199219"/>
      <use xlink:href="#DejaVuSans-69" x="455.179688"/>
      <use xlink:href="#DejaVuSans-61" x="482.962891"/>
     </g>
    </g>
   </g>
   <g id="line2d_88">
    <path d="M 647.682353 1132.770559 
L 652.405163 1131.984704 
L 654.766568 1131.443058 
L 657.127973 1130.775367 
L 659.489378 1129.957804 
L 661.850783 1128.963463 
L 664.212188 1127.762303 
L 666.573593 1126.321186 
L 668.934998 1124.604032 
L 671.296403 1122.572097 
L 673.657808 1120.184419 
L 676.019213 1117.398424 
L 678.380618 1114.170714 
L 680.742023 1110.458051 
L 683.103428 1106.218522 
L 685.464833 1101.41289 
L 687.826238 1096.006094 
L 690.187643 1089.968891 
L 692.549048 1083.279574 
L 694.910453 1075.925733 
L 697.271858 1067.905979 
L 699.633263 1059.231582 
L 701.994668 1049.92792 
L 704.356073 1040.035679 
L 709.078883 1018.729518 
L 713.801693 995.966794 
L 723.247313 949.903505 
L 725.608718 939.125521 
L 727.970123 928.958392 
L 730.331528 919.559596 
L 732.692933 911.080111 
L 735.054338 903.660402 
L 737.415743 897.426566 
L 739.777148 892.486769 
L 742.138553 888.928128 
L 744.499958 886.814158 
L 746.861363 886.182883 
L 749.222768 887.0457 
L 751.584173 889.387036 
L 753.945578 893.164817 
L 756.306983 898.311725 
L 758.668388 904.737191 
L 761.029793 912.330049 
L 763.391198 920.961731 
L 765.752603 930.489881 
L 768.114008 940.762247 
L 772.836818 962.905256 
L 784.643843 1020.445035 
L 789.366653 1041.60744 
L 791.728058 1051.411645 
L 794.089463 1060.619914 
L 796.450868 1069.194003 
L 798.812273 1077.110808 
L 801.173678 1084.361126 
L 803.535083 1090.948166 
L 805.896488 1096.885896 
L 808.257893 1102.197308 
L 810.619298 1106.912659 
L 812.980702 1111.067762 
L 815.342107 1114.702364 
L 817.703512 1117.858669 
L 820.064917 1120.58001 
L 822.426322 1122.909718 
L 824.787727 1124.890163 
L 827.149132 1126.562 
L 829.510537 1127.963582 
L 831.871942 1129.130548 
L 834.233347 1130.095563 
L 836.594752 1130.888181 
L 838.956157 1131.534824 
L 843.678967 1132.480686 
L 848.401777 1133.085976 
L 853.124587 1133.463242 
L 860.208802 1133.769144 
L 869.654422 1133.931128 
L 890.907067 1133.996818 
L 975.917647 1134 
L 975.917647 1134 
" clip-path="url(#p7f9b9f377c)" style="fill: none; stroke: #ff0000; stroke-width: 1.5; stroke-linecap: square"/>
   </g>
   <g id="patch_46">
    <path d="M 631.270588 1134 
L 631.270588 846.211765 
" style="fill: none; stroke: #000000; stroke-width: 0.8; stroke-linejoin: miter; stroke-linecap: square"/>
   </g>
   <g id="patch_47">
    <path d="M 992.329412 1134 
L 992.329412 846.211765 
" style="fill: none; stroke: #000000; stroke-width: 0.8; stroke-linejoin: miter; stroke-linecap: square"/>
   </g>
   <g id="patch_48">
    <path d="M 631.270588 1134 
L 992.329412 1134 
" style="fill: none; stroke: #000000; stroke-width: 0.8; stroke-linejoin: miter; stroke-linecap: square"/>
   </g>
   <g id="patch_49">
    <path d="M 631.270588 846.211765 
L 992.329412 846.211765 
" style="fill: none; stroke: #000000; stroke-width: 0.8; stroke-linejoin: miter; stroke-linecap: square"/>
   </g>
  </g>
  <g id="axes_9">
   <g id="patch_50">
    <path d="M 1064.541176 1134 
L 1425.6 1134 
L 1425.6 846.211765 
L 1064.541176 846.211765 
z
" style="fill: #ffffff"/>
   </g>
   <g id="patch_51">
    <path d="M 1080.952941 1134 
L 1080.952941 1134 
L 1098.228483 1134 
L 1098.228483 1134 
L 1115.504025 1134 
L 1115.504025 1134 
L 1132.779567 1134 
L 1132.779567 1130.903252 
L 1150.055108 1130.903252 
L 1150.055108 1052.968428 
L 1167.33065 1052.968428 
L 1167.33065 881.098915 
L 1184.606192 881.098915 
L 1184.606192 969.872357 
L 1201.881734 969.872357 
L 1201.881734 1119.032385 
L 1219.157276 1119.032385 
L 1219.157276 1134 
L 1236.432817 1134 
L 1236.432817 1134 
L 1253.708359 1134 
L 1253.708359 1134 
L 1270.983901 1134 
L 1270.983901 1134 
L 1288.259443 1134 
L 1288.259443 1134 
L 1305.534985 1134 
L 1305.534985 1134 
L 1322.810526 1134 
L 1322.810526 1134 
L 1340.086068 1134 
L 1340.086068 1134 
L 1357.36161 1134 
L 1357.36161 1134 
L 1374.637152 1134 
L 1374.637152 1134 
L 1391.912693 1134 
L 1391.912693 1134 
L 1409.188235 1134 
L 1409.188235 1134 
L 1391.912693 1134 
L 1391.912693 1134 
L 1374.637152 1134 
L 1374.637152 1134 
L 1357.36161 1134 
L 1357.36161 1134 
L 1340.086068 1134 
L 1340.086068 1134 
L 1322.810526 1134 
L 1322.810526 1134 
L 1305.534985 1134 
L 1305.534985 1134 
L 1288.259443 1134 
L 1288.259443 1134 
L 1270.983901 1134 
L 1270.983901 1134 
L 1253.708359 1134 
L 1253.708359 1134 
L 1236.432817 1134 
L 1236.432817 1134 
L 1219.157276 1134 
L 1219.157276 1134 
L 1201.881734 1134 
L 1201.881734 1134 
L 1184.606192 1134 
L 1184.606192 1134 
L 1167.33065 1134 
L 1167.33065 1134 
L 1150.055108 1134 
L 1150.055108 1134 
L 1132.779567 1134 
L 1132.779567 1134 
L 1115.504025 1134 
L 1115.504025 1134 
L 1098.228483 1134 
L 1098.228483 1134 
z
" clip-path="url(#pbeeb2d2741)" style="fill: #c0c0c0; opacity: 0.5"/>
   </g>
   <g id="matplotlib.axis_17">
    <g id="xtick_31">
     <g id="line2d_89">
      <g>
       <use xlink:href="#m8de48e0731" x="1080.952941" y="1134" style="stroke: #000000; stroke-width: 0.8"/>
      </g>
     </g>
     <g id="text_97">
      <!-- 0 -->
      <g transform="translate(1074.590441 1156.196875)scale(0.2 -0.2)">
       <use xlink:href="#DejaVuSans-30"/>
      </g>
     </g>
    </g>
    <g id="xtick_32">
     <g id="line2d_90">
      <g>
       <use xlink:href="#m8de48e0731" x="1174.734454" y="1134" style="stroke: #000000; stroke-width: 0.8"/>
      </g>
     </g>
     <g id="text_98">
      <!-- 2 -->
      <g transform="translate(1168.371954 1156.196875)scale(0.2 -0.2)">
       <use xlink:href="#DejaVuSans-32"/>
      </g>
     </g>
    </g>
    <g id="xtick_33">
     <g id="line2d_91">
      <g>
       <use xlink:href="#m8de48e0731" x="1268.515966" y="1134" style="stroke: #000000; stroke-width: 0.8"/>
      </g>
     </g>
     <g id="text_99">
      <!-- 4 -->
      <g transform="translate(1262.153466 1156.196875)scale(0.2 -0.2)">
       <use xlink:href="#DejaVuSans-34"/>
      </g>
     </g>
    </g>
    <g id="xtick_34">
     <g id="line2d_92">
      <g>
       <use xlink:href="#m8de48e0731" x="1362.297479" y="1134" style="stroke: #000000; stroke-width: 0.8"/>
      </g>
     </g>
     <g id="text_100">
      <!-- 6 -->
      <g transform="translate(1355.934979 1156.196875)scale(0.2 -0.2)">
       <use xlink:href="#DejaVuSans-36"/>
      </g>
     </g>
    </g>
    <g id="text_101">
     <!-- $x$ -->
     <g transform="translate(1239.070588 1179.553125)scale(0.2 -0.2)">
      <use xlink:href="#DejaVuSans-Oblique-78" transform="translate(0 0.3125)"/>
     </g>
    </g>
   </g>
   <g id="matplotlib.axis_18">
    <g id="ytick_51">
     <g id="line2d_93">
      <g>
       <use xlink:href="#mc04a483fc7" x="1064.541176" y="1134" style="stroke: #000000; stroke-width: 0.8"/>
      </g>
     </g>
     <g id="text_102">
      <!-- 0 -->
      <g transform="translate(1044.816176 1141.598438)scale(0.2 -0.2)">
       <use xlink:href="#DejaVuSans-30"/>
      </g>
     </g>
    </g>
    <g id="ytick_52">
     <g id="line2d_94">
      <g>
       <use xlink:href="#mc04a483fc7" x="1064.541176" y="1082.387534" style="stroke: #000000; stroke-width: 0.8"/>
      </g>
     </g>
     <g id="text_103">
      <!-- 100 -->
      <g transform="translate(1019.366176 1089.985971)scale(0.2 -0.2)">
       <use xlink:href="#DejaVuSans-31"/>
       <use xlink:href="#DejaVuSans-30" x="63.623047"/>
       <use xlink:href="#DejaVuSans-30" x="127.246094"/>
      </g>
     </g>
    </g>
    <g id="ytick_53">
     <g id="line2d_95">
      <g>
       <use xlink:href="#mc04a483fc7" x="1064.541176" y="1030.775067" style="stroke: #000000; stroke-width: 0.8"/>
      </g>
     </g>
     <g id="text_104">
      <!-- 200 -->
      <g transform="translate(1019.366176 1038.373505)scale(0.2 -0.2)">
       <use xlink:href="#DejaVuSans-32"/>
       <use xlink:href="#DejaVuSans-30" x="63.623047"/>
       <use xlink:href="#DejaVuSans-30" x="127.246094"/>
      </g>
     </g>
    </g>
    <g id="ytick_54">
     <g id="line2d_96">
      <g>
       <use xlink:href="#mc04a483fc7" x="1064.541176" y="979.162601" style="stroke: #000000; stroke-width: 0.8"/>
      </g>
     </g>
     <g id="text_105">
      <!-- 300 -->
      <g transform="translate(1019.366176 986.761038)scale(0.2 -0.2)">
       <use xlink:href="#DejaVuSans-33"/>
       <use xlink:href="#DejaVuSans-30" x="63.623047"/>
       <use xlink:href="#DejaVuSans-30" x="127.246094"/>
      </g>
     </g>
    </g>
    <g id="ytick_55">
     <g id="line2d_97">
      <g>
       <use xlink:href="#mc04a483fc7" x="1064.541176" y="927.550135" style="stroke: #000000; stroke-width: 0.8"/>
      </g>
     </g>
     <g id="text_106">
      <!-- 400 -->
      <g transform="translate(1019.366176 935.148572)scale(0.2 -0.2)">
       <use xlink:href="#DejaVuSans-34"/>
       <use xlink:href="#DejaVuSans-30" x="63.623047"/>
       <use xlink:href="#DejaVuSans-30" x="127.246094"/>
      </g>
     </g>
    </g>
    <g id="ytick_56">
     <g id="line2d_98">
      <g>
       <use xlink:href="#mc04a483fc7" x="1064.541176" y="875.937668" style="stroke: #000000; stroke-width: 0.8"/>
      </g>
     </g>
     <g id="text_107">
      <!-- 500 -->
      <g transform="translate(1019.366176 883.536106)scale(0.2 -0.2)">
       <use xlink:href="#DejaVuSans-35"/>
       <use xlink:href="#DejaVuSans-30" x="63.623047"/>
       <use xlink:href="#DejaVuSans-30" x="127.246094"/>
      </g>
     </g>
    </g>
    <g id="text_108">
     <!-- Ocurrencia -->
     <g transform="translate(1011.206801 1044.530882)rotate(-90)scale(0.2 -0.2)">
      <use xlink:href="#DejaVuSans-4f"/>
      <use xlink:href="#DejaVuSans-63" x="78.710938"/>
      <use xlink:href="#DejaVuSans-75" x="133.691406"/>
      <use xlink:href="#DejaVuSans-72" x="197.070312"/>
      <use xlink:href="#DejaVuSans-72" x="236.433594"/>
      <use xlink:href="#DejaVuSans-65" x="275.296875"/>
      <use xlink:href="#DejaVuSans-6e" x="336.820312"/>
      <use xlink:href="#DejaVuSans-63" x="400.199219"/>
      <use xlink:href="#DejaVuSans-69" x="455.179688"/>
      <use xlink:href="#DejaVuSans-61" x="482.962891"/>
     </g>
    </g>
   </g>
   <g id="line2d_99">
    <path d="M 1080.952941 1134 
L 1130.542446 1133.889299 
L 1132.903851 1133.76927 
L 1135.265256 1133.53621 
L 1137.626661 1133.10091 
L 1139.988066 1132.319065 
L 1142.349471 1130.969152 
L 1144.710876 1128.729609 
L 1147.072281 1125.161328 
L 1149.433686 1119.704587 
L 1151.795091 1111.701692 
L 1154.156496 1100.456174 
L 1156.517901 1085.334767 
L 1158.879306 1065.908874 
L 1161.240711 1042.118573 
L 1163.602116 1014.427734 
L 1170.686331 921.953222 
L 1173.047736 895.275808 
L 1175.409141 874.804956 
L 1177.770546 862.592114 
L 1180.131951 859.915966 
L 1182.493356 867.061928 
L 1184.854761 883.272016 
L 1187.216166 906.877267 
L 1189.577571 935.580702 
L 1194.300381 998.160199 
L 1196.661786 1027.549707 
L 1199.023191 1053.548861 
L 1201.384596 1075.361475 
L 1203.746001 1092.780817 
L 1206.107406 1106.056472 
L 1208.468811 1115.730419 
L 1210.830216 1122.480292 
L 1213.191621 1126.994811 
L 1215.553026 1129.891685 
L 1217.914431 1131.676337 
L 1220.275836 1132.7325 
L 1222.637241 1133.333211 
L 1224.998646 1133.661706 
L 1229.721456 1133.921891 
L 1239.167076 1133.997304 
L 1402.10402 1134 
L 1409.188235 1134 
L 1409.188235 1134 
" clip-path="url(#pbeeb2d2741)" style="fill: none; stroke: #ff0000; stroke-width: 1.5; stroke-linecap: square"/>
   </g>
   <g id="patch_52">
    <path d="M 1064.541176 1134 
L 1064.541176 846.211765 
" style="fill: none; stroke: #000000; stroke-width: 0.8; stroke-linejoin: miter; stroke-linecap: square"/>
   </g>
   <g id="patch_53">
    <path d="M 1425.6 1134 
L 1425.6 846.211765 
" style="fill: none; stroke: #000000; stroke-width: 0.8; stroke-linejoin: miter; stroke-linecap: square"/>
   </g>
   <g id="patch_54">
    <path d="M 1064.541176 1134 
L 1425.6 1134 
" style="fill: none; stroke: #000000; stroke-width: 0.8; stroke-linejoin: miter; stroke-linecap: square"/>
   </g>
   <g id="patch_55">
    <path d="M 1064.541176 846.211765 
L 1425.6 846.211765 
" style="fill: none; stroke: #000000; stroke-width: 0.8; stroke-linejoin: miter; stroke-linecap: square"/>
   </g>
  </g>
 </g>
 <defs>
  <clipPath id="p77457ed219">
   <rect x="198" y="155.52" width="361.058824" height="287.788235"/>
  </clipPath>
  <clipPath id="p77c1f5abb9">
   <rect x="631.270588" y="155.52" width="361.058824" height="287.788235"/>
  </clipPath>
  <clipPath id="pa055ef1445">
   <rect x="1064.541176" y="155.52" width="361.058824" height="287.788235"/>
  </clipPath>
  <clipPath id="p3ed1d30fec">
   <rect x="198" y="500.865882" width="361.058824" height="287.788235"/>
  </clipPath>
  <clipPath id="pec46a845a7">
   <rect x="631.270588" y="500.865882" width="361.058824" height="287.788235"/>
  </clipPath>
  <clipPath id="pfcc2c6197c">
   <rect x="1064.541176" y="500.865882" width="361.058824" height="287.788235"/>
  </clipPath>
  <clipPath id="p482a936658">
   <rect x="198" y="846.211765" width="361.058824" height="287.788235"/>
  </clipPath>
  <clipPath id="p7f9b9f377c">
   <rect x="631.270588" y="846.211765" width="361.058824" height="287.788235"/>
  </clipPath>
  <clipPath id="pbeeb2d2741">
   <rect x="1064.541176" y="846.211765" width="361.058824" height="287.788235"/>
  </clipPath>
 </defs>
</svg>
