<?xml version="1.0" encoding="UTF-8" standalone="no"?>
<svg
   width="921.66132"
   height="305.9425"
   overflow="hidden"
   version="1.1"
   id="svg79"
   sodipodi:docname="combinacion.svg"
   inkscape:version="1.1.1 (3bf5ae0d25, 2021-09-20)"
   xmlns:inkscape="http://www.inkscape.org/namespaces/inkscape"
   xmlns:sodipodi="http://sodipodi.sourceforge.net/DTD/sodipodi-0.dtd"
   xmlns="http://www.w3.org/2000/svg"
   xmlns:svg="http://www.w3.org/2000/svg">
  <sodipodi:namedview
     id="namedview81"
     pagecolor="#ffffff"
     bordercolor="#666666"
     borderopacity="1.0"
     inkscape:pageshadow="2"
     inkscape:pageopacity="0.0"
     inkscape:pagecheckerboard="0"
     showgrid="false"
     inkscape:zoom="1.3041667"
     inkscape:cx="498.01917"
     inkscape:cy="151.4377"
     inkscape:window-width="1920"
     inkscape:window-height="991"
     inkscape:window-x="-9"
     inkscape:window-y="-9"
     inkscape:window-maximized="1"
     inkscape:current-layer="svg79" />
  <defs
     id="defs5">
    <clipPath
       id="clip0">
      <rect
         x="0"
         y="0"
         width="960"
         height="384"
         id="rect2" />
    </clipPath>
    <clipPath
       clipPathUnits="userSpaceOnUse"
       id="clipPath922">
      <rect
         style="font-variation-settings:normal;opacity:1;vector-effect:none;fill:#0000ff;fill-opacity:1;fill-rule:evenodd;stroke-width:0.999999;stroke-linecap:butt;stroke-linejoin:round;stroke-miterlimit:4;stroke-dasharray:none;stroke-dashoffset:0;stroke-opacity:1;-inkscape-stroke:none;stop-color:#000000;stop-opacity:1"
         id="rect924"
         width="921.66132"
         height="305.9425"
         x="13.035144"
         y="39.105431" />
    </clipPath>
  </defs>
  <g
     clip-path="url(#clipPath922)"
     id="g77"
     transform="translate(-13.035144,-39.105431)">
    <rect
       x="0"
       y="0"
       width="960"
       height="384"
       fill="#ffffff"
       id="rect7" />
    <path
       d="m 705.314,79.2116 c -1.215,2.0194 -1.976,4.3929 -3.647,6.0581 -14.936,14.8873 -13.146,11.104 -25.529,20.5983 -12.478,9.566 -1.716,3.278 -17.019,10.904 -1.216,1.616 -2.091,3.554 -3.648,4.847 -12.72,10.565 -14.052,6.494 -30.391,16.963 -18.724,11.997 -11.624,6.872 -21.882,14.54 -0.811,1.211 -1.695,2.377 -2.432,3.635 -4.651,7.946 -6.26,12.53 -12.156,19.386 -2.611,3.036 -5.942,5.41 -8.51,8.481 -1.513,1.81 -2.395,4.062 -3.647,6.059 -0.774,1.234 -1.621,2.423 -2.432,3.634 -2.786,13.888 -0.583,8.433 -4.862,16.963 -0.811,4.443 -1.725,8.868 -2.432,13.328 -1.994,12.59 0.553,6.168 -3.647,14.54 -0.81,3.231 -1.448,6.51 -2.431,9.693 -0.642,2.079 -1.804,3.975 -2.431,6.058 -0.594,1.973 -0.715,4.061 -1.216,6.059 -1.392,5.549 -2.103,7.499 -3.647,12.116 -0.899,8.061 -2.538,16.14 0,24.233 0.774,2.468 2.893,4.375 4.863,6.058 0.973,0.831 2.447,0.763 3.647,1.212 2.043,0.763 4.052,1.615 6.078,2.423 3.242,-0.404 6.692,-0.002 9.725,-1.212 3.237,-1.29 6.045,-3.601 8.51,-6.058 1.282,-1.277 1.822,-3.145 2.432,-4.846 1.422,-3.971 2.239,-8.141 3.647,-12.117 3.977,-11.233 3.03,-6.477 9.725,-16.963 0.973,-1.524 1.499,-3.297 2.431,-4.846 1.504,-2.498 3.556,-4.665 4.863,-7.27 1.216,-2.423 2.543,-4.794 3.647,-7.27 0.52,-1.167 0.58,-2.526 1.216,-3.635 1.005,-1.753 2.604,-3.115 3.647,-4.846 1.398,-2.324 1.967,-5.14 3.647,-7.27 2.832,-3.593 6.79,-6.183 9.725,-9.694 2.026,-2.423 3.976,-4.912 6.079,-7.269 1.142,-1.281 2.514,-2.346 3.647,-3.635 7.386,-8.414 5.361,-8.879 17.019,-18.175 2.026,-1.615 4.172,-3.092 6.078,-4.846 3.369,-3.1 5.995,-7.038 9.726,-9.693 2.085,-1.485 4.862,-1.616 7.294,-2.424 14.753,-14.704 -7.464,7.147 12.156,-10.905 16.85,-15.502 2.615,-2.458 12.157,-13.328 12.775,-14.552 -6.175,10.63 14.588,-16.963 1.993,-2.647 6.74,-10.094 8.51,-13.328 1.302,-2.378 2.277,-4.929 3.647,-7.269 1.472,-2.516 3.242,-4.847 4.863,-7.27 0.405,-1.616 0.629,-3.288 1.215,-4.847 0.637,-1.6911 1.934,-3.1098 2.432,-4.8465 1.135,-3.9603 2.431,-12.1163 2.431,-12.1163 -0.405,-1.2117 0.044,-3.4024 -1.216,-3.635 C 731.394,78.5054 720.428,80.5545 710.177,78 Z"
       fill="#92d050"
       fill-rule="evenodd"
       id="path9" />
    <path
       d="m 316.063,95.1865 c -0.608,1.6166 3.335,4.7926 4.868,7.2745 1.714,2.775 3.006,5.808 4.868,8.487 1.803,2.595 4.211,4.729 6.084,7.275 2.595,3.525 4.28,7.742 7.302,10.912 4.758,4.989 10.557,8.879 15.82,13.336 2.85,2.414 5.249,5.466 8.519,7.275 3.65,2.021 7.518,3.694 10.952,6.062 1.887,1.302 3.097,3.397 4.868,4.85 14.972,12.284 9.868,10.148 19.471,13.337 2.82,2.107 6.339,4.38 8.518,7.274 1.419,1.886 2.434,4.042 3.651,6.063 0.406,4.445 0.583,8.917 1.217,13.336 0.181,1.266 0.906,2.398 1.217,3.638 0.502,1.999 0.811,4.041 1.217,6.062 -0.811,4.85 -1.162,9.798 -2.434,14.549 -0.377,1.408 -1.584,2.452 -2.434,3.637 -5.624,7.845 -5.079,6.273 -14.603,15.762 -3.769,3.755 -9.101,8.724 -10.953,13.337 -3.107,7.74 -1.456,4.115 -4.867,10.912 -0.406,2.021 -0.768,4.05 -1.217,6.062 -0.363,1.627 -1.217,3.183 -1.217,4.85 0,6.479 0.252,12.991 1.217,19.399 0.34,2.259 4.7,8.32 6.084,9.699 1.035,1.031 2.434,1.617 3.651,2.425 4.868,-0.404 9.997,0.407 14.603,-1.212 2.705,-0.951 3.859,-4.26 6.085,-6.063 4.282,-3.466 9.485,-5.812 13.386,-9.699 4.705,-4.687 7.465,-11.075 12.17,-15.762 8.172,-8.142 10.178,-9.644 17.037,-18.186 14.253,-17.75 2.862,-3.855 9.735,-13.337 4.418,-6.094 13.387,-18.187 13.387,-18.187 0.405,-1.212 0.679,-2.477 1.217,-3.637 1.9,-4.103 4.492,-7.894 6.084,-12.124 0.866,-2.302 0.682,-4.875 1.217,-7.275 0.278,-1.247 0.811,-2.425 1.217,-3.637 -0.811,-12.933 -0.957,-25.924 -2.434,-38.798 -0.353,-3.075 -9.625,-9.612 -9.735,-9.7 -7.017,-5.593 -3.495,-2.675 -13.386,-7.274 -3.288,-1.529 -6.442,-3.335 -9.736,-4.85 -1.983,-0.912 -4.175,-1.368 -6.085,-2.425 -1.773,-0.981 -3.14,-2.578 -4.867,-3.637 -3.557,-2.181 -7.262,-4.115 -10.953,-6.062 -7.794,-4.111 -10.972,-5.036 -18.254,-9.7 -2.935,-1.88 -5.526,-4.273 -8.518,-6.062 -1.1,-0.658 -2.525,-0.6 -3.651,-1.212 -11.153,-6.061 -10.2,-7.261 -21.905,-14.5496 -2.307,-1.4369 -4.868,-2.4249 -7.302,-3.6373 -1.622,-1.6166 -3.125,-3.362 -4.867,-4.8498 -1.111,-0.9484 -2.541,-1.4766 -3.651,-2.4249 -4.713,-4.0245 -4.437,-5.4702 -9.736,-8.4869 -1.113,-0.6341 -2.433,-0.8083 -3.65,-1.2125 -7.987,1.7681 -10.446,0.2635 -14.604,6.0621 -1.054,1.4708 -1.472,3.3172 -2.433,4.8498 -1.075,1.7136 -2.217,3.4208 -3.651,4.8497 -1.034,1.0304 -7.91,0.8084 -8.519,2.4249 z"
       fill="#ffc000"
       fill-rule="evenodd"
       id="path11" />
    <path
       d="m 354.516,63.633 c -4.059,1.2111 -13.528,1.7992 -19.481,4.844 -8.517,4.3571 -15.905,10.7028 -23.133,16.9541 -9.334,8.0734 -19.256,15.5199 -28.003,24.2199 -3.247,3.23 -6.391,6.565 -9.741,9.688 -6.068,5.659 -9.563,7.744 -14.61,13.321 -2.121,2.344 -4.129,4.787 -6.088,7.267 -2.507,3.174 -4.599,6.679 -7.305,9.688 -6.719,7.469 -13.827,12.554 -19.48,20.587 -1.041,1.479 -1.624,3.229 -2.436,4.844 -0.405,3.229 -1.399,6.439 -1.217,9.688 0.229,4.11 1.267,8.161 2.435,12.11 0.872,2.949 1.938,5.919 3.653,8.477 0.98,1.463 7.531,4.203 8.522,4.844 6.607,4.272 13.909,7.779 19.481,13.321 5.276,5.248 11.351,9.806 15.828,15.743 1.218,1.615 2.691,3.067 3.653,4.844 1.895,3.501 3.319,7.235 4.87,10.9 1.696,4.006 3.246,8.073 4.87,12.11 0.812,4.036 1.755,8.049 2.435,12.11 2.079,12.41 -0.158,8.461 4.87,21.798 0.956,2.535 1.899,5.195 3.653,7.266 4.806,5.677 15.828,15.743 15.828,15.743 9.334,-1.615 19.248,-1.241 28.003,-4.844 3.75,-1.543 7.305,-9.688 7.305,-9.688 2.954,-11.753 2.061,-5.846 -1.217,-27.853 -1.582,-10.617 -4.476,-13.748 -9.741,-24.22 -0.811,-1.615 -1.72,-3.185 -2.435,-4.844 -1.217,-2.826 -2.27,-5.728 -3.652,-8.478 -7.48,-14.879 -1.913,-2.989 -8.523,-13.321 -1.757,-2.745 -3.407,-5.566 -4.87,-8.477 -5.957,-11.85 0.771,-1.271 -4.87,-9.688 -0.812,-2.826 -1.658,-5.642 -2.435,-8.477 -0.441,-1.606 -0.689,-3.265 -1.218,-4.844 -0.691,-2.062 -1.623,-4.037 -2.435,-6.055 -2.608,-12.972 -3.706,-12.618 -1.217,-26.642 0.379,-2.141 1.31,-4.191 2.435,-6.055 1.337,-2.217 3.131,-4.134 4.87,-6.055 1.919,-2.122 4.058,-4.037 6.087,-6.055 l 3.653,-3.633 c 6.326,-6.293 -2.826,2.581 7.305,-6.055 1.308,-1.115 2.063,-2.975 3.653,-3.633 3.454,-1.432 7.328,-1.52 10.958,-2.423 18.721,-4.655 -3.493,-0.714 25.568,-4.843 2.435,-1.212 4.997,-2.198 7.305,-3.633 0.974,-0.606 1.571,-1.671 2.435,-2.423 2.386,-2.076 4.988,-3.903 7.306,-6.055 11.482,-10.659 8.826,-7.365 14.61,-16.9537 -0.812,-4.4404 -0.909,-9.0709 -2.435,-13.3212 -0.579,-1.6128 -2.532,-2.3326 -3.653,-3.6329 -1.32,-1.5325 -2.281,-3.3563 -3.652,-4.8441 -5.963,-6.4694 -9.647,-10.5181 -17.046,-14.5321 -1.919,-1.041 -4.058,-1.6147 -6.088,-2.422 -3.246,0.4036 -6.665,0.0987 -9.74,1.2109 -10.834,3.9185 -0.812,1.2111 -4.87,2.4221 z"
       fill="#ff0000"
       fill-rule="evenodd"
       fill-opacity="0.568627"
       id="path13" />
    <path
       d="M 182.5,133.5 H 908.177"
       stroke="#4472c4"
       stroke-width="0.666667"
       stroke-miterlimit="8"
       fill="none"
       fill-rule="evenodd"
       id="path15" />
    <path
       d="M 182.5,217.5 H 908.177"
       stroke="#4472c4"
       stroke-width="0.666667"
       stroke-miterlimit="8"
       fill="none"
       fill-rule="evenodd"
       id="path17" />
    <text
       font-family="Calibri, Calibri_MSFontService, sans-serif"
       font-weight="400"
       font-size="16px"
       transform="translate(40.6848,117)"
       id="text19">Dado 1</text>
    <text
       font-family="Calibri, Calibri_MSFontService, sans-serif"
       font-weight="400"
       font-size="16px"
       transform="translate(40.6848,195)"
       id="text21">Dado 2</text>
    <text
       font-family="Calibri, Calibri_MSFontService, sans-serif"
       font-weight="400"
       font-size="16px"
       transform="translate(40.6846,277)"
       id="text23">Dado 3</text>
    <text
       font-family="Calibri, Calibri_MSFontService, sans-serif"
       font-weight="400"
       font-size="16px"
       transform="translate(344.775,95)"
       id="text25">A</text>
    <text
       font-family="Calibri, Calibri_MSFontService, sans-serif"
       font-weight="400"
       font-size="16px"
       transform="translate(707.614,95)"
       id="text27">D</text>
    <text
       font-family="Calibri, Calibri_MSFontService, sans-serif"
       font-weight="400"
       font-size="16px"
       transform="translate(252.59,177)"
       id="text29">A</text>
    <text
       font-family="Calibri, Calibri_MSFontService, sans-serif"
       font-weight="400"
       font-size="16px"
       transform="translate(209.797,260)"
       id="text31">A</text>
    <text
       font-family="Calibri, Calibri_MSFontService, sans-serif"
       font-weight="400"
       font-size="16px"
       transform="translate(611.792,177)"
       id="text33">A</text>
    <text
       font-family="Calibri, Calibri_MSFontService, sans-serif"
       font-weight="400"
       font-size="16px"
       transform="translate(564.589,259)"
       id="text35">A</text>
    <text
       font-family="Calibri, Calibri_MSFontService, sans-serif"
       font-weight="400"
       font-size="16px"
       transform="translate(439.294,178)"
       id="text37">D</text>
    <text
       font-family="Calibri, Calibri_MSFontService, sans-serif"
       font-weight="400"
       font-size="16px"
       transform="translate(802.834,178)"
       id="text39">D</text>
    <text
       font-family="Calibri, Calibri_MSFontService, sans-serif"
       font-weight="400"
       font-size="16px"
       transform="translate(301.568,260)"
       id="text41">D</text>
    <text
       font-family="Calibri, Calibri_MSFontService, sans-serif"
       font-weight="400"
       font-size="16px"
       transform="translate(475.109,260)"
       id="text43">D</text>
    <text
       font-family="Calibri, Calibri_MSFontService, sans-serif"
       font-weight="400"
       font-size="16px"
       transform="translate(848.927,257)"
       id="text45">D</text>
    <text
       font-family="Calibri, Calibri_MSFontService, sans-serif"
       font-weight="400"
       font-size="16px"
       transform="translate(657.685,260)"
       id="text47">D</text>
    <text
       font-family="Calibri, Calibri_MSFontService, sans-serif"
       font-weight="400"
       font-size="16px"
       transform="translate(388.087,259)"
       id="text49">A</text>
    <text
       font-family="Calibri, Calibri_MSFontService, sans-serif"
       font-weight="400"
       font-size="16px"
       transform="translate(754.236,259)"
       id="text51">A</text>
    <path
       d="M 0.150371,-0.297489 86.3857,43.2917 86.0849,43.8867 -0.150371,0.297489 Z M 86.8498,39.4179 l 5.3353,7.1787 -8.9442,-0.039 z"
       fill="#4472c4"
       transform="matrix(-1,0,0,1,352.685,110.5)"
       id="path53" />
    <path
       d="m 352.649,110.202 88.95,44.261 -0.297,0.597 -88.95,-44.262 z m 89.39,40.385 5.38,7.145 -8.944,0.017 z"
       fill="#4472c4"
       id="path55" />
    <path
       d="M 0.24886,-0.221765 38.6063,42.8221 38.1086,43.2657 -0.24886,0.221765 Z M 40.4567,39.3873 l 2.3361,8.6338 -8.3087,-3.3115 z"
       fill="#4472c4"
       transform="matrix(-1,0,0,1,260.293,192.5)"
       id="path57" />
    <path
       d="m 260.732,192.261 44.592,43.245 -0.464,0.478 -44.592,-43.245 z m 46.188,39.684 2.958,8.441 -8.527,-2.698 z"
       fill="#4472c4"
       id="path59" />
    <path
       d="M 0.224199,-0.246669 46.8977,42.1752 46.4493,42.6685 -0.224199,0.246669 Z M 48.3772,38.565 l 3.2296,8.3408 -8.6104,-2.4207 z"
       fill="#4472c4"
       transform="matrix(-1,0,0,1,448.107,193.5)"
       id="path61" />
    <path
       d="m 447.758,193.289 34.953,42.757 -0.516,0.422 -34.953,-42.757 z m 36.948,39.404 1.966,8.726 -8.16,-3.662 z"
       fill="#4472c4"
       id="path63" />
    <path
       d="M 0.146922,-0.299207 90.3847,44.011 90.0908,44.6094 -0.146922,0.299207 Z M 90.804,40.1321 l 5.4179,7.1166 -8.944,0.0644 z"
       fill="#4472c4"
       transform="matrix(-1,0,0,1,715.722,110.5)"
       id="path65" />
    <path
       d="M 0.235846,-0.235558 42.7281,42.3087 42.2564,42.7798 -0.235846,0.235558 Z M 44.3802,38.7742 l 2.8233,8.487 -8.4836,-2.8336 z"
       fill="#4472c4"
       transform="matrix(-1,0,0,1,619.703,192.5)"
       id="path67" />
    <path
       d="m 619.741,192.269 41.679,43.463 -0.481,0.461 -41.68,-43.462 z m 43.403,39.963 2.65,8.542 -8.424,-3.005 z"
       fill="#4472c4"
       id="path69" />
    <path
       d="m 716.65,110.202 89.262,44.794 -0.299,0.596 -89.262,-44.794 z m 89.715,40.919 5.356,7.163 -8.945,-0.013 z"
       fill="#4472c4"
       id="path71" />
    <path
       d="M 0.230043,-0.241229 44.4038,41.884 43.9437,42.3665 -0.230043,0.241229 Z M 45.9693,38.3103 l 3.029,8.4158 -8.55,-2.6263 z"
       fill="#4472c4"
       transform="matrix(-1,0,0,1,811.498,193.5)"
       id="path73" />
    <path
       d="m 811.733,193.261 41.316,40.224 -0.466,0.477 -41.315,-40.223 z m 42.918,36.666 2.942,8.447 -8.523,-2.714 z"
       fill="#4472c4"
       id="path75" />
  </g>
</svg>
