<?xml version="1.0" encoding="UTF-8" standalone="no"?>
<svg
   width="988.21729pt"
   height="506.99045pt"
   viewBox="0 0 988.21729 506.99045"
   version="1.1"
   id="svg385"
   sodipodi:docname="pdfChiCum.svg"
   inkscape:version="1.1.1 (3bf5ae0d25, 2021-09-20)"
   xmlns:inkscape="http://www.inkscape.org/namespaces/inkscape"
   xmlns:sodipodi="http://sodipodi.sourceforge.net/DTD/sodipodi-0.dtd"
   xmlns:xlink="http://www.w3.org/1999/xlink"
   xmlns="http://www.w3.org/2000/svg"
   xmlns:svg="http://www.w3.org/2000/svg"
   xmlns:rdf="http://www.w3.org/1999/02/22-rdf-syntax-ns#"
   xmlns:cc="http://creativecommons.org/ns#"
   xmlns:dc="http://purl.org/dc/elements/1.1/">
  <sodipodi:namedview
     id="namedview387"
     pagecolor="#ffffff"
     bordercolor="#666666"
     borderopacity="1.0"
     inkscape:pageshadow="2"
     inkscape:pageopacity="0.0"
     inkscape:pagecheckerboard="0"
     inkscape:document-units="pt"
     showgrid="false"
     inkscape:zoom="0.81510417"
     inkscape:cx="679.05431"
     inkscape:cy="318.36422"
     inkscape:window-width="1920"
     inkscape:window-height="991"
     inkscape:window-x="-9"
     inkscape:window-y="-9"
     inkscape:window-maximized="1"
     inkscape:current-layer="svg385" />
  <metadata
     id="metadata2">
    <rdf:RDF>
      <cc:Work>
        <dc:type
           rdf:resource="http://purl.org/dc/dcmitype/StillImage" />
        <dc:date>2023-04-27T16:25:04.365749</dc:date>
        <dc:format>image/svg+xml</dc:format>
        <dc:creator>
          <cc:Agent>
            <dc:title>Matplotlib v3.5.1, https://matplotlib.org/</dc:title>
          </cc:Agent>
        </dc:creator>
      </cc:Work>
    </rdf:RDF>
  </metadata>
  <defs
     id="defs6">
    <style
       type="text/css"
       id="style4">*{stroke-linejoin: round; stroke-linecap: butt}</style>
    <clipPath
       clipPathUnits="userSpaceOnUse"
       id="clipPath1308">
      <rect
         style="font-variation-settings:normal;opacity:1;vector-effect:none;fill:#0000ff;fill-opacity:1;fill-rule:evenodd;stroke-width:0.749999;stroke-linecap:butt;stroke-linejoin:round;stroke-miterlimit:4;stroke-dasharray:none;stroke-dashoffset:0;stroke-opacity:1;-inkscape-stroke:none;stop-color:#000000;stop-opacity:1"
         id="rect1310"
         width="988.21729"
         height="506.99045"
         x="62.568691"
         y="48.766773" />
    </clipPath>
  </defs>
  <g
     id="figure_1"
     clip-path="url(#clipPath1308)"
     transform="translate(-62.568691,-48.766773)">
    <g
       id="patch_1">
      <path
         d="M 0,576 H 1152 V 0 H 0 Z"
         style="fill:none"
         id="path8" />
    </g>
    <g
       id="axes_1">
      <g
         id="patch_2">
        <path
           d="m 144,504 h 892.8 V 69.12 H 144 Z"
           style="fill:#ffffff"
           id="path11" />
      </g>
      <g
         id="matplotlib.axis_1">
        <g
           id="xtick_1">
          <g
             id="line2d_1">
            <defs
               id="defs15">
              <path
                 id="m26c4ec282c"
                 d="M 0,0 V 3.5"
                 style="stroke:#000000;stroke-width:0.8" />
            </defs>
            <g
               id="g19">
              <use
                 xlink:href="#m26c4ec282c"
                 x="144"
                 y="504"
                 style="stroke:#000000;stroke-width:0.8"
                 id="use17"
                 width="100%"
                 height="100%" />
            </g>
          </g>
          <g
             id="text_1">
            <!-- 0 -->
            <g
               transform="matrix(0.18,0,0,-0.18,138.27375,524.67719)"
               id="g27">
              <defs
                 id="defs23">
                <path
                   id="DejaVuSans-30"
                   d="m 2034,4250 q -487,0 -733,-480 -245,-479 -245,-1442 0,-959 245,-1439 246,-480 733,-480 491,0 736,480 246,480 246,1439 0,963 -246,1442 -245,480 -736,480 z m 0,500 q 785,0 1199,-621 414,-620 414,-1801 0,-1178 -414,-1799 -414,-620 -1199,-620 -784,0 -1198,620 -414,621 -414,1799 0,1181 414,1801 414,621 1198,621 z"
                   transform="scale(0.015625)" />
              </defs>
              <use
                 xlink:href="#DejaVuSans-30"
                 id="use25"
                 x="0"
                 y="0"
                 width="100%"
                 height="100%" />
            </g>
          </g>
        </g>
        <g
           id="xtick_2">
          <g
             id="line2d_2">
            <g
               id="g33">
              <use
                 xlink:href="#m26c4ec282c"
                 x="292.79999"
                 y="504"
                 style="stroke:#000000;stroke-width:0.8"
                 id="use31"
                 width="100%"
                 height="100%" />
            </g>
          </g>
          <g
             id="text_2">
            <!-- 5 -->
            <g
               transform="matrix(0.18,0,0,-0.18,287.07375,524.67719)"
               id="g41">
              <defs
                 id="defs37">
                <path
                   id="DejaVuSans-35"
                   d="M 691,4666 H 3169 V 4134 H 1269 V 2991 q 137,47 274,70 138,23 276,23 781,0 1237,-428 457,-428 457,-1159 Q 3513,744 3044,326 2575,-91 1722,-91 1428,-91 1123,-41 819,9 494,109 v 635 q 281,-153 581,-228 300,-75 634,-75 541,0 856,284 316,284 316,772 0,487 -316,771 -315,285 -856,285 -253,0 -505,-56 -251,-56 -513,-175 z"
                   transform="scale(0.015625)" />
              </defs>
              <use
                 xlink:href="#DejaVuSans-35"
                 id="use39"
                 x="0"
                 y="0"
                 width="100%"
                 height="100%" />
            </g>
          </g>
        </g>
        <g
           id="xtick_3">
          <g
             id="line2d_3">
            <g
               id="g47">
              <use
                 xlink:href="#m26c4ec282c"
                 x="441.60001"
                 y="504"
                 style="stroke:#000000;stroke-width:0.8"
                 id="use45"
                 width="100%"
                 height="100%" />
            </g>
          </g>
          <g
             id="text_3">
            <!-- 10 -->
            <g
               transform="matrix(0.18,0,0,-0.18,430.1475,524.67719)"
               id="g57">
              <defs
                 id="defs51">
                <path
                   id="DejaVuSans-31"
                   d="M 794,531 H 1825 V 4091 L 703,3866 v 575 l 1116,225 h 631 V 531 H 3481 V 0 H 794 Z"
                   transform="scale(0.015625)" />
              </defs>
              <use
                 xlink:href="#DejaVuSans-31"
                 id="use53"
                 x="0"
                 y="0"
                 width="100%"
                 height="100%" />
              <use
                 xlink:href="#DejaVuSans-30"
                 x="63.623047"
                 id="use55"
                 y="0"
                 width="100%"
                 height="100%" />
            </g>
          </g>
        </g>
        <g
           id="xtick_4">
          <g
             id="line2d_4">
            <g
               id="g63">
              <use
                 xlink:href="#m26c4ec282c"
                 x="590.40002"
                 y="504"
                 style="stroke:#000000;stroke-width:0.8"
                 id="use61"
                 width="100%"
                 height="100%" />
            </g>
          </g>
          <g
             id="text_4">
            <!-- 15 -->
            <g
               transform="matrix(0.18,0,0,-0.18,578.9475,524.67719)"
               id="g70">
              <use
                 xlink:href="#DejaVuSans-31"
                 id="use66"
                 x="0"
                 y="0"
                 width="100%"
                 height="100%" />
              <use
                 xlink:href="#DejaVuSans-35"
                 x="63.623047"
                 id="use68"
                 y="0"
                 width="100%"
                 height="100%" />
            </g>
          </g>
        </g>
        <g
           id="xtick_5">
          <g
             id="line2d_5">
            <g
               id="g76">
              <use
                 xlink:href="#m26c4ec282c"
                 x="739.20001"
                 y="504"
                 style="stroke:#000000;stroke-width:0.8"
                 id="use74"
                 width="100%"
                 height="100%" />
            </g>
          </g>
          <g
             id="text_5">
            <!-- 20 -->
            <g
               transform="matrix(0.18,0,0,-0.18,727.7475,524.67719)"
               id="g86">
              <defs
                 id="defs80">
                <path
                   id="DejaVuSans-32"
                   d="M 1228,531 H 3431 V 0 H 469 v 531 q 359,372 979,998 621,627 780,809 303,340 423,576 121,236 121,464 0,372 -261,606 -261,235 -680,235 -297,0 -627,-103 -329,-103 -704,-313 v 638 q 381,153 712,231 332,78 607,78 725,0 1156,-363 431,-362 431,-968 0,-288 -108,-546 -107,-257 -392,-607 -78,-91 -497,-524 Q 1991,1309 1228,531 Z"
                   transform="scale(0.015625)" />
              </defs>
              <use
                 xlink:href="#DejaVuSans-32"
                 id="use82"
                 x="0"
                 y="0"
                 width="100%"
                 height="100%" />
              <use
                 xlink:href="#DejaVuSans-30"
                 x="63.623047"
                 id="use84"
                 y="0"
                 width="100%"
                 height="100%" />
            </g>
          </g>
        </g>
        <g
           id="xtick_6">
          <g
             id="line2d_6">
            <g
               id="g92">
              <use
                 xlink:href="#m26c4ec282c"
                 x="888"
                 y="504"
                 style="stroke:#000000;stroke-width:0.8"
                 id="use90"
                 width="100%"
                 height="100%" />
            </g>
          </g>
          <g
             id="text_6">
            <!-- 25 -->
            <g
               transform="matrix(0.18,0,0,-0.18,876.5475,524.67719)"
               id="g99">
              <use
                 xlink:href="#DejaVuSans-32"
                 id="use95"
                 x="0"
                 y="0"
                 width="100%"
                 height="100%" />
              <use
                 xlink:href="#DejaVuSans-35"
                 x="63.623047"
                 id="use97"
                 y="0"
                 width="100%"
                 height="100%" />
            </g>
          </g>
        </g>
        <g
           id="xtick_7">
          <g
             id="line2d_7">
            <g
               id="g105">
              <use
                 xlink:href="#m26c4ec282c"
                 x="1036.8"
                 y="504"
                 style="stroke:#000000;stroke-width:0.8"
                 id="use103"
                 width="100%"
                 height="100%" />
            </g>
          </g>
          <g
             id="text_7">
            <!-- 30 -->
            <g
               transform="matrix(0.18,0,0,-0.18,1025.3475,524.67719)"
               id="g115">
              <defs
                 id="defs109">
                <path
                   id="DejaVuSans-33"
                   d="m 2597,2516 q 453,-97 707,-404 255,-306 255,-756 0,-690 -475,-1069 -475,-378 -1350,-378 -293,0 -604,58 -311,58 -642,174 v 609 q 262,-153 574,-231 313,-78 654,-78 593,0 904,234 311,234 311,681 0,413 -289,645 -289,233 -804,233 h -544 v 519 h 569 q 465,0 712,186 247,186 247,536 0,359 -255,551 -254,193 -729,193 -260,0 -557,-57 -297,-56 -653,-174 v 562 q 360,100 674,150 314,50 592,50 719,0 1137,-327 419,-326 419,-882 0,-388 -222,-655 -222,-267 -631,-370 z"
                   transform="scale(0.015625)" />
              </defs>
              <use
                 xlink:href="#DejaVuSans-33"
                 id="use111"
                 x="0"
                 y="0"
                 width="100%"
                 height="100%" />
              <use
                 xlink:href="#DejaVuSans-30"
                 x="63.623047"
                 id="use113"
                 y="0"
                 width="100%"
                 height="100%" />
            </g>
          </g>
        </g>
        <g
           id="text_8">
          <!-- $\chi^2_{min}$ -->
          <g
             transform="matrix(0.18,0,0,-0.18,572.94,548.80062)"
             id="g135">
            <defs
               id="defs123">
              <path
                 id="DejaVuSans-Oblique-3c7"
                 d="M 1922,-781 1691,416 394,-1334 h -678 l 1837,2475 -284,1472 q -75,393 -556,393 H 559 l 94,494 219,-6 q 803,-22 903,-544 l 231,-1197 1297,1750 h 678 L 2144,1028 2428,-444 q 75,-394 556,-394 h 154 l -94,-493 -219,6 q -803,22 -903,544 z"
                 transform="scale(0.015625)" />
              <path
                 id="DejaVuSans-Oblique-6d"
                 d="M 5747,2113 5338,0 h -575 l 403,2094 q 25,134 37,231 13,97 13,166 0,281 -157,437 -156,156 -437,156 -419,0 -747,-314 -328,-314 -425,-817 L 3066,0 h -575 l 409,2094 q 25,115 37,213 13,99 13,177 0,285 -156,442 -156,158 -431,158 -425,0 -754,-314 -328,-314 -425,-817 L 800,0 H 225 l 684,3500 h 575 l -109,-544 q 234,307 548,467 315,161 674,161 381,0 626,-200 246,-200 296,-556 262,369 607,562 346,194 730,194 450,0 695,-259 246,-259 246,-734 0,-103 -13,-227 -12,-123 -37,-251 z"
                 transform="scale(0.015625)" />
              <path
                 id="DejaVuSans-Oblique-69"
                 d="m 1172,4863 h 575 L 1606,4134 H 1031 Z M 909,3500 h 575 L 800,0 H 225 Z"
                 transform="scale(0.015625)" />
              <path
                 id="DejaVuSans-Oblique-6e"
                 d="M 3566,2113 3156,0 h -578 l 410,2091 q 28,147 43,259 16,113 16,178 0,263 -166,409 -165,147 -462,147 -463,0 -797,-308 -334,-307 -438,-835 L 800,0 H 225 l 678,3500 h 575 l -115,-550 q 240,303 577,468 338,166 710,166 463,0 717,-250 255,-250 255,-703 0,-112 -14,-240 -14,-128 -42,-278 z"
                 transform="scale(0.015625)" />
            </defs>
            <use
               xlink:href="#DejaVuSans-Oblique-3c7"
               transform="translate(0,0.701562)"
               id="use125"
               x="0"
               y="0"
               width="100%"
               height="100%" />
            <use
               xlink:href="#DejaVuSans-32"
               transform="matrix(0.7,0,0,0.7,63.652396,39.046875)"
               id="use127"
               x="0"
               y="0"
               width="100%"
               height="100%" />
            <use
               xlink:href="#DejaVuSans-Oblique-6d"
               transform="matrix(0.7,0,0,0.7,59.179688,-26.642188)"
               id="use129"
               x="0"
               y="0"
               width="100%"
               height="100%" />
            <use
               xlink:href="#DejaVuSans-Oblique-69"
               transform="matrix(0.7,0,0,0.7,127.36816,-26.642188)"
               id="use131"
               x="0"
               y="0"
               width="100%"
               height="100%" />
            <use
               xlink:href="#DejaVuSans-Oblique-6e"
               transform="matrix(0.7,0,0,0.7,146.81641,-26.642188)"
               id="use133"
               x="0"
               y="0"
               width="100%"
               height="100%" />
          </g>
        </g>
      </g>
      <g
         id="matplotlib.axis_2">
        <g
           id="ytick_1">
          <g
             id="line2d_8">
            <defs
               id="defs140">
              <path
                 id="mbeb84ed7e0"
                 d="M 0,0 H -3.5"
                 style="stroke:#000000;stroke-width:0.8" />
            </defs>
            <g
               id="g144">
              <use
                 xlink:href="#mbeb84ed7e0"
                 x="144"
                 y="504"
                 style="stroke:#000000;stroke-width:0.8"
                 id="use142"
                 width="100%"
                 height="100%" />
            </g>
          </g>
          <g
             id="text_9">
            <!-- 0.0 -->
            <g
               transform="matrix(0.18,0,0,-0.18,108.37438,510.83859)"
               id="g156">
              <defs
                 id="defs148">
                <path
                   id="DejaVuSans-2e"
                   d="m 684,794 h 660 V 0 H 684 Z"
                   transform="scale(0.015625)" />
              </defs>
              <use
                 xlink:href="#DejaVuSans-30"
                 id="use150"
                 x="0"
                 y="0"
                 width="100%"
                 height="100%" />
              <use
                 xlink:href="#DejaVuSans-2e"
                 x="63.623047"
                 id="use152"
                 y="0"
                 width="100%"
                 height="100%" />
              <use
                 xlink:href="#DejaVuSans-30"
                 x="95.410156"
                 id="use154"
                 y="0"
                 width="100%"
                 height="100%" />
            </g>
          </g>
        </g>
        <g
           id="ytick_2">
          <g
             id="line2d_9">
            <g
               id="g162">
              <use
                 xlink:href="#mbeb84ed7e0"
                 x="144"
                 y="417.02399"
                 style="stroke:#000000;stroke-width:0.8"
                 id="use160"
                 width="100%"
                 height="100%" />
            </g>
          </g>
          <g
             id="text_10">
            <!-- 0.2 -->
            <g
               transform="matrix(0.18,0,0,-0.18,108.37438,423.86259)"
               id="g171">
              <use
                 xlink:href="#DejaVuSans-30"
                 id="use165"
                 x="0"
                 y="0"
                 width="100%"
                 height="100%" />
              <use
                 xlink:href="#DejaVuSans-2e"
                 x="63.623047"
                 id="use167"
                 y="0"
                 width="100%"
                 height="100%" />
              <use
                 xlink:href="#DejaVuSans-32"
                 x="95.410156"
                 id="use169"
                 y="0"
                 width="100%"
                 height="100%" />
            </g>
          </g>
        </g>
        <g
           id="ytick_3">
          <g
             id="line2d_10">
            <g
               id="g177">
              <use
                 xlink:href="#mbeb84ed7e0"
                 x="144"
                 y="330.048"
                 style="stroke:#000000;stroke-width:0.8"
                 id="use175"
                 width="100%"
                 height="100%" />
            </g>
          </g>
          <g
             id="text_11">
            <!-- 0.4 -->
            <g
               transform="matrix(0.18,0,0,-0.18,108.37438,336.88659)"
               id="g189">
              <defs
                 id="defs181">
                <path
                   id="DejaVuSans-34"
                   d="M 2419,4116 825,1625 h 1594 z m -166,550 h 794 V 1625 h 666 V 1100 H 3047 V 0 H 2419 V 1100 H 313 v 609 z"
                   transform="scale(0.015625)" />
              </defs>
              <use
                 xlink:href="#DejaVuSans-30"
                 id="use183"
                 x="0"
                 y="0"
                 width="100%"
                 height="100%" />
              <use
                 xlink:href="#DejaVuSans-2e"
                 x="63.623047"
                 id="use185"
                 y="0"
                 width="100%"
                 height="100%" />
              <use
                 xlink:href="#DejaVuSans-34"
                 x="95.410156"
                 id="use187"
                 y="0"
                 width="100%"
                 height="100%" />
            </g>
          </g>
        </g>
        <g
           id="ytick_4">
          <g
             id="line2d_11">
            <g
               id="g195">
              <use
                 xlink:href="#mbeb84ed7e0"
                 x="144"
                 y="243.07201"
                 style="stroke:#000000;stroke-width:0.8"
                 id="use193"
                 width="100%"
                 height="100%" />
            </g>
          </g>
          <g
             id="text_12">
            <!-- 0.6 -->
            <g
               transform="matrix(0.18,0,0,-0.18,108.37438,249.91059)"
               id="g207">
              <defs
                 id="defs199">
                <path
                   id="DejaVuSans-36"
                   d="m 2113,2584 q -425,0 -674,-291 -248,-290 -248,-796 0,-503 248,-796 249,-292 674,-292 425,0 673,292 248,293 248,796 0,506 -248,796 -248,291 -673,291 z m 1253,1979 v -575 q -238,112 -480,171 -242,60 -480,60 -625,0 -955,-422 -329,-422 -376,-1275 184,272 462,417 279,145 613,145 703,0 1111,-427 408,-426 408,-1160 0,-719 -425,-1154 -425,-434 -1131,-434 -810,0 -1238,620 -428,621 -428,1799 0,1106 525,1764 525,658 1409,658 238,0 480,-47 242,-47 505,-140 z"
                   transform="scale(0.015625)" />
              </defs>
              <use
                 xlink:href="#DejaVuSans-30"
                 id="use201"
                 x="0"
                 y="0"
                 width="100%"
                 height="100%" />
              <use
                 xlink:href="#DejaVuSans-2e"
                 x="63.623047"
                 id="use203"
                 y="0"
                 width="100%"
                 height="100%" />
              <use
                 xlink:href="#DejaVuSans-36"
                 x="95.410156"
                 id="use205"
                 y="0"
                 width="100%"
                 height="100%" />
            </g>
          </g>
        </g>
        <g
           id="ytick_5">
          <g
             id="line2d_12">
            <g
               id="g213">
              <use
                 xlink:href="#mbeb84ed7e0"
                 x="144"
                 y="156.09599"
                 style="stroke:#000000;stroke-width:0.8"
                 id="use211"
                 width="100%"
                 height="100%" />
            </g>
          </g>
          <g
             id="text_13">
            <!-- 0.8 -->
            <g
               transform="matrix(0.18,0,0,-0.18,108.37438,162.93459)"
               id="g225">
              <defs
                 id="defs217">
                <path
                   id="DejaVuSans-38"
                   d="m 2034,2216 q -450,0 -708,-241 -257,-241 -257,-662 0,-422 257,-663 258,-241 708,-241 450,0 709,242 260,243 260,662 0,421 -258,662 -257,241 -711,241 z m -631,268 q -406,100 -633,378 -226,279 -226,679 0,559 398,884 399,325 1092,325 697,0 1094,-325 397,-325 397,-884 0,-400 -227,-679 -226,-278 -629,-378 456,-106 710,-416 255,-309 255,-755 Q 3634,634 3220,271 2806,-91 2034,-91 1263,-91 848,271 434,634 434,1313 q 0,446 256,755 257,310 713,416 z m -231,997 q 0,-362 226,-565 227,-203 636,-203 407,0 636,203 230,203 230,565 0,363 -230,566 -229,203 -636,203 -409,0 -636,-203 -226,-203 -226,-566 z"
                   transform="scale(0.015625)" />
              </defs>
              <use
                 xlink:href="#DejaVuSans-30"
                 id="use219"
                 x="0"
                 y="0"
                 width="100%"
                 height="100%" />
              <use
                 xlink:href="#DejaVuSans-2e"
                 x="63.623047"
                 id="use221"
                 y="0"
                 width="100%"
                 height="100%" />
              <use
                 xlink:href="#DejaVuSans-38"
                 x="95.410156"
                 id="use223"
                 y="0"
                 width="100%"
                 height="100%" />
            </g>
          </g>
        </g>
        <g
           id="ytick_6">
          <g
             id="line2d_13">
            <g
               id="g231">
              <use
                 xlink:href="#mbeb84ed7e0"
                 x="144"
                 y="69.120003"
                 style="stroke:#000000;stroke-width:0.8"
                 id="use229"
                 width="100%"
                 height="100%" />
            </g>
          </g>
          <g
             id="text_14">
            <!-- 1.0 -->
            <g
               transform="matrix(0.18,0,0,-0.18,108.37438,75.958594)"
               id="g240">
              <use
                 xlink:href="#DejaVuSans-31"
                 id="use234"
                 x="0"
                 y="0"
                 width="100%"
                 height="100%" />
              <use
                 xlink:href="#DejaVuSans-2e"
                 x="63.623047"
                 id="use236"
                 y="0"
                 width="100%"
                 height="100%" />
              <use
                 xlink:href="#DejaVuSans-30"
                 x="95.410156"
                 id="use238"
                 y="0"
                 width="100%"
                 height="100%" />
            </g>
          </g>
        </g>
        <g
           id="text_15">
          <!-- $P(\chi^2_{min} \leq \chi^2)$ -->
          <g
             transform="matrix(0,-0.18,-0.18,0,99.334375,337.5)"
             id="g272">
            <defs
               id="defs248">
              <path
                 id="DejaVuSans-Oblique-50"
                 d="m 1081,4666 h 1460 q 637,0 971,-297 335,-297 335,-869 0,-769 -494,-1197 -494,-428 -1387,-428 H 1172 L 806,0 H 172 Z m 532,-519 -338,-1753 h 794 q 537,0 824,275 288,275 288,787 0,328 -195,509 -195,182 -548,182 z"
                 transform="scale(0.015625)" />
              <path
                 id="DejaVuSans-28"
                 d="m 1984,4856 q -418,-718 -622,-1422 -203,-703 -203,-1425 0,-721 205,-1429 205,-708 620,-1424 h -500 q -468,735 -701,1444 -233,709 -233,1409 0,697 231,1403 232,707 703,1444 z"
                 transform="scale(0.015625)" />
              <path
                 id="DejaVuSans-2264"
                 d="M 4684,3175 1684,2309 4684,1453 V 897 L 678,2047 v 531 L 4684,3725 Z M 678,531 H 4684 V 0 H 678 Z"
                 transform="scale(0.015625)" />
              <path
                 id="DejaVuSans-29"
                 d="m 513,4856 h 500 q 468,-737 701,-1444 233,-706 233,-1403 0,-700 -233,-1409 -233,-709 -701,-1444 H 513 q 415,716 620,1424 205,708 205,1429 0,722 -205,1425 -205,704 -620,1422 z"
                 transform="scale(0.015625)" />
            </defs>
            <use
               xlink:href="#DejaVuSans-Oblique-50"
               transform="translate(0,0.701562)"
               id="use250"
               x="0"
               y="0"
               width="100%"
               height="100%" />
            <use
               xlink:href="#DejaVuSans-28"
               transform="translate(60.302734,0.701562)"
               id="use252"
               x="0"
               y="0"
               width="100%"
               height="100%" />
            <use
               xlink:href="#DejaVuSans-Oblique-3c7"
               transform="translate(99.316406,0.701562)"
               id="use254"
               x="0"
               y="0"
               width="100%"
               height="100%" />
            <use
               xlink:href="#DejaVuSans-32"
               transform="matrix(0.7,0,0,0.7,162.9688,39.046875)"
               id="use256"
               x="0"
               y="0"
               width="100%"
               height="100%" />
            <use
               xlink:href="#DejaVuSans-Oblique-6d"
               transform="matrix(0.7,0,0,0.7,158.49609,-26.642188)"
               id="use258"
               x="0"
               y="0"
               width="100%"
               height="100%" />
            <use
               xlink:href="#DejaVuSans-Oblique-69"
               transform="matrix(0.7,0,0,0.7,226.68457,-26.642188)"
               id="use260"
               x="0"
               y="0"
               width="100%"
               height="100%" />
            <use
               xlink:href="#DejaVuSans-Oblique-6e"
               transform="matrix(0.7,0,0,0.7,246.13281,-26.642188)"
               id="use262"
               x="0"
               y="0"
               width="100%"
               height="100%" />
            <use
               xlink:href="#DejaVuSans-2264"
               transform="translate(312.71484,0.701562)"
               id="use264"
               x="0"
               y="0"
               width="100%"
               height="100%" />
            <use
               xlink:href="#DejaVuSans-Oblique-3c7"
               transform="translate(415.98633,0.701562)"
               id="use266"
               x="0"
               y="0"
               width="100%"
               height="100%" />
            <use
               xlink:href="#DejaVuSans-32"
               transform="matrix(0.7,0,0,0.7,479.63872,38.982812)"
               id="use268"
               x="0"
               y="0"
               width="100%"
               height="100%" />
            <use
               xlink:href="#DejaVuSans-29"
               transform="translate(526.90923,0.701562)"
               id="use270"
               x="0"
               y="0"
               width="100%"
               height="100%" />
          </g>
        </g>
      </g>
      <g
         id="line2d_14">
        <path
           d="m 144,69.12 9.01818,181.78467 9.01818,63.36809 9.01818,41.71333 9.01819,30.19951 9.01818,22.85631 9.01818,17.75391 9.01818,14.0285 9.01818,11.22014 9.01819,9.05567 9.01818,7.36028 9.01818,6.01595 9.01818,4.93975 9.01818,4.07157 9.01818,3.36681 9.01819,2.79175 9.01818,2.32044 9.01818,1.93275 9.01818,1.61281 9.01819,1.34803 9.01818,1.12837 9.01818,0.94577 9.01818,0.79364 9.01818,0.66673 9.01818,0.56065 9.01818,0.47189 9.01819,0.3975 9.01818,0.3351 9.01818,0.2827 9.01818,0.23866 9.01818,0.20159 9.01819,0.17038 9.01818,0.14408 9.01818,0.12191 9.01818,0.10319 9.01818,0.0874 9.01818,0.074 9.01819,0.0627 9.01818,0.0532 9.01818,0.0451 9.01818,0.0383 9.01818,0.0325 9.01819,0.0276 9.01818,0.0234 9.01818,0.0199 9.01818,0.0169 9.01818,0.0144 9.01819,0.0122 9.01818,0.0104 9.01818,0.009 9.01818,0.008 9.01818,0.006 9.01819,0.005 9.01818,0.005 9.01818,0.004 9.01818,0.003 9.01818,0.003 9.01818,0.002 9.01818,0.002 9.01819,0.002 9.01818,0.002 9.01818,0.001 9.01818,10e-4 9.01818,9.3e-4 9.01819,8e-4 9.01818,6.7e-4 9.01818,5.8e-4 9.01818,5e-4 9.01818,4.2e-4 9.01818,3.6e-4 9.01819,3e-4 9.01818,2.6e-4 9.01818,2.3e-4 9.01818,1.9e-4 9.01819,1.6e-4 9.01818,1.4e-4 9.01818,1.2e-4 9.01818,10e-5 9.01818,8e-5 9.01818,8e-5 9.01819,6e-5 9.01818,5e-5 9.01818,5e-5 9.01818,4e-5 9.01818,3e-5 9.01818,3e-5 9.01819,3e-5 9.01818,2e-5 9.01818,10e-6 9.01818,2e-5 9.01818,1e-5 9.01818,10e-6 9.01819,1e-5 9.01818,10e-6 9.01818,10e-6 h 9.01821 l 9.0182,1e-5 h 9.0181 l 9.0182,10e-6 h 9.0182"
           clip-path="url(#p29f99df9ee)"
           style="fill:none;stroke:#1f77b4;stroke-width:1.5;stroke-linecap:square"
           id="path276" />
      </g>
      <g
         id="line2d_15">
        <path
           d="m 144,69.12 9.01818,4.515047 9.01818,11.841729 9.01818,17.018974 9.01819,20.50634 9.01818,22.6767 9.01818,23.83141 9.01818,24.21318 9.01818,24.01653 9.01819,23.39655 9.01818,22.47617 9.01818,21.35211 9.01818,20.09984 9.01818,18.77763 9.01818,17.4299 9.01819,16.08995 9.01818,14.78226 9.01818,13.52423 9.01818,12.32773 9.01819,11.20035 9.01818,10.1463 9.01818,9.16723 9.01818,8.26291 9.01818,7.43167 9.01818,6.67083 9.01818,5.97703 9.01819,5.34646 9.01818,4.77505 9.01818,4.25863 9.01818,3.79303 9.01818,3.37418 9.01819,2.99813 9.01818,2.66112 9.01818,2.35961 9.01818,2.09028 9.01818,1.85004 9.01818,1.63604 9.01819,1.44563 9.01818,1.27644 9.01818,1.12624 9.01818,0.99305 9.01818,0.87504 9.01819,0.77058 9.01818,0.67821 9.01818,0.59658 9.01818,0.52449 9.01818,0.46088 9.01819,0.40479 9.01818,0.35536 9.01818,0.31183 9.01818,0.27351 9.01818,0.23982 9.01819,0.21017 9.01818,0.18414 9.01818,0.16126 9.01818,0.14118 9.01818,0.12356 9.01818,0.1081 9.01818,0.0945 9.01819,0.0827 9.01818,0.0723 9.01818,0.0631 9.01818,0.0552 9.01818,0.0482 9.01819,0.0421 9.01818,0.0367 9.01818,0.0321 9.01818,0.028 9.01818,0.0244 9.01818,0.0213 9.01819,0.0186 9.01818,0.0162 9.01818,0.0141 9.01818,0.0123 9.01819,0.0107 9.01818,0.009 9.01818,0.008 9.01818,0.007 9.01818,0.006 9.01818,0.005 9.01819,0.005 9.01818,0.004 9.01818,0.004 9.01818,0.003 9.01818,0.003 9.01818,0.002 9.01819,0.002 9.01818,0.002 9.01818,0.002 9.01818,0.001 9.01818,10e-4 9.01818,0.001 9.01819,8.7e-4 9.01818,7.6e-4 9.01818,6.5e-4 9.01821,5.8e-4 9.0182,4.9e-4 9.0181,4.3e-4 9.0182,3.8e-4 9.0182,3.2e-4"
           clip-path="url(#p29f99df9ee)"
           style="fill:none;stroke:#ff7f0e;stroke-width:1.5;stroke-linecap:square"
           id="path279" />
      </g>
      <g
         id="line2d_16">
        <path
           d="m 144,69.12 9.01818,0.04501 9.01818,0.408102 9.01818,1.214728 9.01819,2.400408 9.01818,3.85506 9.01818,5.464508 9.01818,7.126424 9.01818,8.756298 9.01819,10.288692 9.01818,11.67622 9.01818,12.88739 9.01818,13.90418 9.01818,14.7194 9.01818,15.33439 9.01819,15.75688 9.01818,15.9992 9.01818,16.0767 9.01818,16.00662 9.01819,15.80705 9.01818,15.49616 9.01818,15.09167 9.01818,14.61043 9.01818,14.06813 9.01818,13.47915 9.01818,12.85642 9.01819,12.21141 9.01818,11.55423 9.01818,10.8935 9.01818,10.23663 9.01818,9.58977 9.01819,8.958 9.01818,8.34537 9.01818,7.75504 9.01818,7.18943 9.01818,6.65023 9.01818,6.13855 9.01819,5.65499 9.01818,5.19976 9.01818,4.77268 9.01818,4.37328 9.01818,4.00089 9.01819,3.65463 9.01818,3.33348 9.01818,3.03636 9.01818,2.76207 9.01818,2.50937 9.01819,2.27704 9.01818,2.06384 9.01818,1.86853 9.01818,1.6899 9.01818,1.52678 9.01819,1.37806 9.01818,1.24266 9.01818,1.11954 9.01818,1.00774 9.01818,0.90634 9.01818,0.81448 9.01818,0.73136 9.01819,0.65622 9.01818,0.58838 9.01818,0.52717 9.01818,0.47201 9.01818,0.42234 9.01819,0.37766 9.01818,0.3375 9.01818,0.30142 9.01818,0.26904 9.01818,0.24001 9.01818,0.21399 9.01819,0.19069 9.01818,0.16984 9.01818,0.1512 9.01818,0.13452 9.01819,0.11965 9.01818,0.10635 9.01818,0.0945 9.01818,0.0839 9.01818,0.0745 9.01818,0.0661 9.01819,0.0587 9.01818,0.052 9.01818,0.0461 9.01818,0.0408 9.01818,0.0362 9.01818,0.032 9.01819,0.0283 9.01818,0.0251 9.01818,0.0222 9.01818,0.0196 9.01818,0.0173 9.01818,0.0153 9.01819,0.0135 9.01818,0.012 9.01818,0.0106 9.01821,0.009 9.0182,0.008 9.0181,0.007 9.0182,0.006 9.0182,0.006"
           clip-path="url(#p29f99df9ee)"
           style="fill:none;stroke:#2ca02c;stroke-width:1.5;stroke-linecap:square"
           id="path282" />
      </g>
      <g
         id="line2d_17">
        <path
           d="m 144,69.12 9.01818,2.55e-4 9.01818,0.0069 9.01818,0.04105 9.01819,0.131252 9.01818,0.304363 9.01818,0.580182 9.01818,0.969507 9.01818,1.47406 9.01819,2.08754 9.01818,2.797204 9.01818,3.585656 9.01818,4.43256 9.01818,5.316204 9.01818,6.214786 9.01819,7.107461 9.01818,7.97509 9.01818,8.80079 9.01818,9.57026 9.01819,10.27186 9.01818,10.89672 9.01818,11.43855 9.01818,11.89352 9.01818,12.25995 9.01818,12.53815 9.01818,12.73008 9.01819,12.83904 9.01818,12.86947 9.01818,12.82667 9.01818,12.71653 9.01818,12.54536 9.01819,12.31972 9.01818,12.04618 9.01818,11.73132 9.01818,11.38147 9.01818,11.00275 9.01818,10.60093 9.01819,10.1814 9.01818,9.74913 9.01818,9.30871 9.01818,8.8642 9.01818,8.41929 9.01819,7.97725 9.01818,7.54085 9.01818,7.11256 9.01818,6.69443 9.01818,6.28814 9.01819,5.89512 9.01818,5.51643 9.01818,5.15294 9.01818,4.8052 9.01818,4.47362 9.01819,4.1584 9.01818,3.85955 9.01818,3.57699 9.01818,3.31048 9.01818,3.0597 9.01818,2.82425 9.01818,2.60366 9.01819,2.39738 9.01818,2.20488 9.01818,2.02553 9.01818,1.85875 9.01818,1.70389 9.01819,1.56033 9.01818,1.42746 9.01818,1.30464 9.01818,1.19128 9.01818,1.08679 9.01818,0.99058 9.01819,0.90213 9.01818,0.8209 9.01818,0.74637 9.01818,0.67809 9.01819,0.61558 9.01818,0.55842 9.01818,0.5062 9.01818,0.45855 9.01818,0.41509 9.01818,0.3755 9.01819,0.33948 9.01818,0.3067 9.01818,0.27693 9.01818,0.2499 9.01818,0.22536 9.01818,0.20313 9.01819,0.18298 9.01818,0.16474 9.01818,0.14824 9.01818,0.13333 9.01818,0.11984 9.01818,0.10768 9.01819,0.0967 9.01818,0.0868 9.01818,0.0779 9.01821,0.0698 9.0182,0.0626 9.0181,0.0561 9.0182,0.0502 9.0182,0.045"
           clip-path="url(#p29f99df9ee)"
           style="fill:none;stroke:#d62728;stroke-width:1.5;stroke-linecap:square"
           id="path285" />
      </g>
      <g
         id="patch_3">
        <path
           d="M 144,504 V 69.12"
           style="fill:none;stroke:#000000;stroke-width:0.8;stroke-linecap:square;stroke-linejoin:miter"
           id="path288" />
      </g>
      <g
         id="patch_4">
        <path
           d="M 1036.8,504 V 69.12"
           style="fill:none;stroke:#000000;stroke-width:0.8;stroke-linecap:square;stroke-linejoin:miter"
           id="path291" />
      </g>
      <g
         id="patch_5">
        <path
           d="m 144,504 h 892.8"
           style="fill:none;stroke:#000000;stroke-width:0.8;stroke-linecap:square;stroke-linejoin:miter"
           id="path294" />
      </g>
      <g
         id="patch_6">
        <path
           d="m 144,69.12 h 892.8"
           style="fill:none;stroke:#000000;stroke-width:0.8;stroke-linecap:square;stroke-linejoin:miter"
           id="path297" />
      </g>
      <g
         id="legend_1">
        <g
           id="patch_7">
          <path
             d="m 907.02,189.2025 h 117.18 q 3.6,0 3.6,-3.6 V 81.72 q 0,-3.6 -3.6,-3.6 H 907.02 q -3.6,0 -3.6,3.6 v 103.8825 q 0,3.6 3.6,3.6 z"
             style="opacity:0.8;fill:#ffffff;stroke:#cccccc;stroke-linejoin:miter"
             id="path300" />
        </g>
        <g
           id="line2d_18">
          <path
             d="m 910.62,92.697187 h 18 18"
             style="fill:none;stroke:#1f77b4;stroke-width:1.5;stroke-linecap:square"
             id="path303" />
        </g>
        <g
           id="text_16">
          <!-- $\nu$ = 1 -->
          <g
             transform="matrix(0.18,0,0,-0.18,961.02,98.997187)"
             id="g321">
            <defs
               id="defs309">
              <path
                 id="DejaVuSans-Oblique-3bd"
                 d="M 959,0 572,3500 h 619 L 1522,563 q 450,387 869,925 315,403 397,753 37,165 21,478 -15,372 -265,781 h 581 v 0 q 163,-278 228,-666 63,-356 16,-600 Q 3250,1622 2719,1075 2025,363 1572,0 Z"
                 transform="scale(0.015625)" />
              <path
                 id="DejaVuSans-20"
                 transform="scale(0.015625)"
                 d="" />
              <path
                 id="DejaVuSans-3d"
                 d="M 678,2906 H 4684 V 2381 H 678 Z m 0,-1275 H 4684 V 1100 H 678 Z"
                 transform="scale(0.015625)" />
            </defs>
            <use
               xlink:href="#DejaVuSans-Oblique-3bd"
               transform="translate(0,0.09375)"
               id="use311"
               x="0"
               y="0"
               width="100%"
               height="100%" />
            <use
               xlink:href="#DejaVuSans-20"
               transform="translate(55.859375,0.09375)"
               id="use313"
               x="0"
               y="0"
               width="100%"
               height="100%" />
            <use
               xlink:href="#DejaVuSans-3d"
               transform="translate(87.646484,0.09375)"
               id="use315"
               x="0"
               y="0"
               width="100%"
               height="100%" />
            <use
               xlink:href="#DejaVuSans-20"
               transform="translate(171.43555,0.09375)"
               id="use317"
               x="0"
               y="0"
               width="100%"
               height="100%" />
            <use
               xlink:href="#DejaVuSans-31"
               transform="translate(203.22266,0.09375)"
               id="use319"
               x="0"
               y="0"
               width="100%"
               height="100%" />
          </g>
        </g>
        <g
           id="line2d_19">
          <path
             d="m 910.62,119.11781 h 18 18"
             style="fill:none;stroke:#ff7f0e;stroke-width:1.5;stroke-linecap:square"
             id="path324" />
        </g>
        <g
           id="text_17">
          <!-- $\nu$ = 4 -->
          <g
             transform="matrix(0.18,0,0,-0.18,961.02,125.41781)"
             id="g337">
            <use
               xlink:href="#DejaVuSans-Oblique-3bd"
               transform="translate(0,0.09375)"
               id="use327"
               x="0"
               y="0"
               width="100%"
               height="100%" />
            <use
               xlink:href="#DejaVuSans-20"
               transform="translate(55.859375,0.09375)"
               id="use329"
               x="0"
               y="0"
               width="100%"
               height="100%" />
            <use
               xlink:href="#DejaVuSans-3d"
               transform="translate(87.646484,0.09375)"
               id="use331"
               x="0"
               y="0"
               width="100%"
               height="100%" />
            <use
               xlink:href="#DejaVuSans-20"
               transform="translate(171.43555,0.09375)"
               id="use333"
               x="0"
               y="0"
               width="100%"
               height="100%" />
            <use
               xlink:href="#DejaVuSans-34"
               transform="translate(203.22266,0.09375)"
               id="use335"
               x="0"
               y="0"
               width="100%"
               height="100%" />
          </g>
        </g>
        <g
           id="line2d_20">
          <path
             d="m 910.62,145.53844 h 18 18"
             style="fill:none;stroke:#2ca02c;stroke-width:1.5;stroke-linecap:square"
             id="path340" />
        </g>
        <g
           id="text_18">
          <!-- $\nu$ = 7 -->
          <g
             transform="matrix(0.18,0,0,-0.18,961.02,151.83844)"
             id="g356">
            <defs
               id="defs344">
              <path
                 id="DejaVuSans-37"
                 d="M 525,4666 H 3525 V 4397 L 1831,0 H 1172 L 2766,4134 H 525 Z"
                 transform="scale(0.015625)" />
            </defs>
            <use
               xlink:href="#DejaVuSans-Oblique-3bd"
               transform="translate(0,0.09375)"
               id="use346"
               x="0"
               y="0"
               width="100%"
               height="100%" />
            <use
               xlink:href="#DejaVuSans-20"
               transform="translate(55.859375,0.09375)"
               id="use348"
               x="0"
               y="0"
               width="100%"
               height="100%" />
            <use
               xlink:href="#DejaVuSans-3d"
               transform="translate(87.646484,0.09375)"
               id="use350"
               x="0"
               y="0"
               width="100%"
               height="100%" />
            <use
               xlink:href="#DejaVuSans-20"
               transform="translate(171.43555,0.09375)"
               id="use352"
               x="0"
               y="0"
               width="100%"
               height="100%" />
            <use
               xlink:href="#DejaVuSans-37"
               transform="translate(203.22266,0.09375)"
               id="use354"
               x="0"
               y="0"
               width="100%"
               height="100%" />
          </g>
        </g>
        <g
           id="line2d_21">
          <path
             d="m 910.62,171.95906 h 18 18"
             style="fill:none;stroke:#d62728;stroke-width:1.5;stroke-linecap:square"
             id="path359" />
        </g>
        <g
           id="text_19">
          <!-- $\nu$ = 10 -->
          <g
             transform="matrix(0.18,0,0,-0.18,961.02,178.25906)"
             id="g374">
            <use
               xlink:href="#DejaVuSans-Oblique-3bd"
               transform="translate(0,0.78125)"
               id="use362"
               x="0"
               y="0"
               width="100%"
               height="100%" />
            <use
               xlink:href="#DejaVuSans-20"
               transform="translate(55.859375,0.78125)"
               id="use364"
               x="0"
               y="0"
               width="100%"
               height="100%" />
            <use
               xlink:href="#DejaVuSans-3d"
               transform="translate(87.646484,0.78125)"
               id="use366"
               x="0"
               y="0"
               width="100%"
               height="100%" />
            <use
               xlink:href="#DejaVuSans-20"
               transform="translate(171.43555,0.78125)"
               id="use368"
               x="0"
               y="0"
               width="100%"
               height="100%" />
            <use
               xlink:href="#DejaVuSans-31"
               transform="translate(203.22266,0.78125)"
               id="use370"
               x="0"
               y="0"
               width="100%"
               height="100%" />
            <use
               xlink:href="#DejaVuSans-30"
               transform="translate(266.8457,0.78125)"
               id="use372"
               x="0"
               y="0"
               width="100%"
               height="100%" />
          </g>
        </g>
      </g>
    </g>
  </g>
  <defs
     id="defs383">
    <clipPath
       id="p29f99df9ee">
      <rect
         x="144"
         y="69.120003"
         width="892.79999"
         height="434.88"
         id="rect380" />
    </clipPath>
  </defs>
</svg>
