<?xml version="1.0" encoding="UTF-8" standalone="no"?>
<svg
   width="991.89783pt"
   height="525.39301pt"
   viewBox="0 0 991.89783 525.39301"
   version="1.1"
   id="svg425"
   sodipodi:docname="pdfChi.svg"
   inkscape:version="1.1.1 (3bf5ae0d25, 2021-09-20)"
   xmlns:inkscape="http://www.inkscape.org/namespaces/inkscape"
   xmlns:sodipodi="http://sodipodi.sourceforge.net/DTD/sodipodi-0.dtd"
   xmlns:xlink="http://www.w3.org/1999/xlink"
   xmlns="http://www.w3.org/2000/svg"
   xmlns:svg="http://www.w3.org/2000/svg"
   xmlns:rdf="http://www.w3.org/1999/02/22-rdf-syntax-ns#"
   xmlns:cc="http://creativecommons.org/ns#"
   xmlns:dc="http://purl.org/dc/elements/1.1/">
  <sodipodi:namedview
     id="namedview427"
     pagecolor="#ffffff"
     bordercolor="#666666"
     borderopacity="1.0"
     inkscape:pageshadow="2"
     inkscape:pageopacity="0.0"
     inkscape:pagecheckerboard="0"
     inkscape:document-units="pt"
     showgrid="false"
     inkscape:zoom="0.81510417"
     inkscape:cx="708.4984"
     inkscape:cy="335.53994"
     inkscape:window-width="1920"
     inkscape:window-height="991"
     inkscape:window-x="-9"
     inkscape:window-y="-9"
     inkscape:window-maximized="1"
     inkscape:current-layer="svg425" />
  <metadata
     id="metadata2">
    <rdf:RDF>
      <cc:Work>
        <dc:type
           rdf:resource="http://purl.org/dc/dcmitype/StillImage" />
        <dc:date>2023-04-27T15:27:41.158314</dc:date>
        <dc:format>image/svg+xml</dc:format>
        <dc:creator>
          <cc:Agent>
            <dc:title>Matplotlib v3.5.1, https://matplotlib.org/</dc:title>
          </cc:Agent>
        </dc:creator>
      </cc:Work>
    </rdf:RDF>
  </metadata>
  <defs
     id="defs6">
    <style
       type="text/css"
       id="style4">*{stroke-linejoin: round; stroke-linecap: butt}</style>
    <clipPath
       clipPathUnits="userSpaceOnUse"
       id="clipPath1348">
      <rect
         style="font-variation-settings:normal;opacity:1;vector-effect:none;fill:#0000ff;fill-opacity:1;fill-rule:evenodd;stroke-width:0.749999;stroke-linecap:butt;stroke-linejoin:round;stroke-miterlimit:4;stroke-dasharray:none;stroke-dashoffset:0;stroke-opacity:1;-inkscape-stroke:none;stop-color:#000000;stop-opacity:1"
         id="rect1350"
         width="991.89783"
         height="525.39301"
         x="63.488819"
         y="35.884983" />
    </clipPath>
  </defs>
  <g
     id="figure_1"
     clip-path="url(#clipPath1348)"
     transform="translate(-63.488819,-35.884983)">
    <g
       id="patch_1">
      <path
         d="M 0,576 H 1152 V 0 H 0 Z"
         style="fill:none"
         id="path8" />
    </g>
    <g
       id="axes_1">
      <g
         id="patch_2">
        <path
           d="m 144,504 h 892.8 V 69.12 H 144 Z"
           style="fill:#ffffff"
           id="path11" />
      </g>
      <g
         id="matplotlib.axis_1">
        <g
           id="xtick_1">
          <g
             id="line2d_1">
            <defs
               id="defs15">
              <path
                 id="md9364a90f7"
                 d="M 0,0 V 3.5"
                 style="stroke:#000000;stroke-width:0.8" />
            </defs>
            <g
               id="g19">
              <use
                 xlink:href="#md9364a90f7"
                 x="144"
                 y="504"
                 style="stroke:#000000;stroke-width:0.8"
                 id="use17"
                 width="100%"
                 height="100%" />
            </g>
          </g>
          <g
             id="text_1">
            <!-- 0 -->
            <g
               transform="matrix(0.18,0,0,-0.18,138.27375,524.67719)"
               id="g27">
              <defs
                 id="defs23">
                <path
                   id="DejaVuSans-30"
                   d="m 2034,4250 q -487,0 -733,-480 -245,-479 -245,-1442 0,-959 245,-1439 246,-480 733,-480 491,0 736,480 246,480 246,1439 0,963 -246,1442 -245,480 -736,480 z m 0,500 q 785,0 1199,-621 414,-620 414,-1801 0,-1178 -414,-1799 -414,-620 -1199,-620 -784,0 -1198,620 -414,621 -414,1799 0,1181 414,1801 414,621 1198,621 z"
                   transform="scale(0.015625)" />
              </defs>
              <use
                 xlink:href="#DejaVuSans-30"
                 id="use25"
                 x="0"
                 y="0"
                 width="100%"
                 height="100%" />
            </g>
          </g>
        </g>
        <g
           id="xtick_2">
          <g
             id="line2d_2">
            <g
               id="g33">
              <use
                 xlink:href="#md9364a90f7"
                 x="292.79999"
                 y="504"
                 style="stroke:#000000;stroke-width:0.8"
                 id="use31"
                 width="100%"
                 height="100%" />
            </g>
          </g>
          <g
             id="text_2">
            <!-- 5 -->
            <g
               transform="matrix(0.18,0,0,-0.18,287.07375,524.67719)"
               id="g41">
              <defs
                 id="defs37">
                <path
                   id="DejaVuSans-35"
                   d="M 691,4666 H 3169 V 4134 H 1269 V 2991 q 137,47 274,70 138,23 276,23 781,0 1237,-428 457,-428 457,-1159 Q 3513,744 3044,326 2575,-91 1722,-91 1428,-91 1123,-41 819,9 494,109 v 635 q 281,-153 581,-228 300,-75 634,-75 541,0 856,284 316,284 316,772 0,487 -316,771 -315,285 -856,285 -253,0 -505,-56 -251,-56 -513,-175 z"
                   transform="scale(0.015625)" />
              </defs>
              <use
                 xlink:href="#DejaVuSans-35"
                 id="use39"
                 x="0"
                 y="0"
                 width="100%"
                 height="100%" />
            </g>
          </g>
        </g>
        <g
           id="xtick_3">
          <g
             id="line2d_3">
            <g
               id="g47">
              <use
                 xlink:href="#md9364a90f7"
                 x="441.60001"
                 y="504"
                 style="stroke:#000000;stroke-width:0.8"
                 id="use45"
                 width="100%"
                 height="100%" />
            </g>
          </g>
          <g
             id="text_3">
            <!-- 10 -->
            <g
               transform="matrix(0.18,0,0,-0.18,430.1475,524.67719)"
               id="g57">
              <defs
                 id="defs51">
                <path
                   id="DejaVuSans-31"
                   d="M 794,531 H 1825 V 4091 L 703,3866 v 575 l 1116,225 h 631 V 531 H 3481 V 0 H 794 Z"
                   transform="scale(0.015625)" />
              </defs>
              <use
                 xlink:href="#DejaVuSans-31"
                 id="use53"
                 x="0"
                 y="0"
                 width="100%"
                 height="100%" />
              <use
                 xlink:href="#DejaVuSans-30"
                 x="63.623047"
                 id="use55"
                 y="0"
                 width="100%"
                 height="100%" />
            </g>
          </g>
        </g>
        <g
           id="xtick_4">
          <g
             id="line2d_4">
            <g
               id="g63">
              <use
                 xlink:href="#md9364a90f7"
                 x="590.40002"
                 y="504"
                 style="stroke:#000000;stroke-width:0.8"
                 id="use61"
                 width="100%"
                 height="100%" />
            </g>
          </g>
          <g
             id="text_4">
            <!-- 15 -->
            <g
               transform="matrix(0.18,0,0,-0.18,578.9475,524.67719)"
               id="g70">
              <use
                 xlink:href="#DejaVuSans-31"
                 id="use66"
                 x="0"
                 y="0"
                 width="100%"
                 height="100%" />
              <use
                 xlink:href="#DejaVuSans-35"
                 x="63.623047"
                 id="use68"
                 y="0"
                 width="100%"
                 height="100%" />
            </g>
          </g>
        </g>
        <g
           id="xtick_5">
          <g
             id="line2d_5">
            <g
               id="g76">
              <use
                 xlink:href="#md9364a90f7"
                 x="739.20001"
                 y="504"
                 style="stroke:#000000;stroke-width:0.8"
                 id="use74"
                 width="100%"
                 height="100%" />
            </g>
          </g>
          <g
             id="text_5">
            <!-- 20 -->
            <g
               transform="matrix(0.18,0,0,-0.18,727.7475,524.67719)"
               id="g86">
              <defs
                 id="defs80">
                <path
                   id="DejaVuSans-32"
                   d="M 1228,531 H 3431 V 0 H 469 v 531 q 359,372 979,998 621,627 780,809 303,340 423,576 121,236 121,464 0,372 -261,606 -261,235 -680,235 -297,0 -627,-103 -329,-103 -704,-313 v 638 q 381,153 712,231 332,78 607,78 725,0 1156,-363 431,-362 431,-968 0,-288 -108,-546 -107,-257 -392,-607 -78,-91 -497,-524 Q 1991,1309 1228,531 Z"
                   transform="scale(0.015625)" />
              </defs>
              <use
                 xlink:href="#DejaVuSans-32"
                 id="use82"
                 x="0"
                 y="0"
                 width="100%"
                 height="100%" />
              <use
                 xlink:href="#DejaVuSans-30"
                 x="63.623047"
                 id="use84"
                 y="0"
                 width="100%"
                 height="100%" />
            </g>
          </g>
        </g>
        <g
           id="xtick_6">
          <g
             id="line2d_6">
            <g
               id="g92">
              <use
                 xlink:href="#md9364a90f7"
                 x="888"
                 y="504"
                 style="stroke:#000000;stroke-width:0.8"
                 id="use90"
                 width="100%"
                 height="100%" />
            </g>
          </g>
          <g
             id="text_6">
            <!-- 25 -->
            <g
               transform="matrix(0.18,0,0,-0.18,876.5475,524.67719)"
               id="g99">
              <use
                 xlink:href="#DejaVuSans-32"
                 id="use95"
                 x="0"
                 y="0"
                 width="100%"
                 height="100%" />
              <use
                 xlink:href="#DejaVuSans-35"
                 x="63.623047"
                 id="use97"
                 y="0"
                 width="100%"
                 height="100%" />
            </g>
          </g>
        </g>
        <g
           id="xtick_7">
          <g
             id="line2d_7">
            <g
               id="g105">
              <use
                 xlink:href="#md9364a90f7"
                 x="1036.8"
                 y="504"
                 style="stroke:#000000;stroke-width:0.8"
                 id="use103"
                 width="100%"
                 height="100%" />
            </g>
          </g>
          <g
             id="text_7">
            <!-- 30 -->
            <g
               transform="matrix(0.18,0,0,-0.18,1025.3475,524.67719)"
               id="g115">
              <defs
                 id="defs109">
                <path
                   id="DejaVuSans-33"
                   d="m 2597,2516 q 453,-97 707,-404 255,-306 255,-756 0,-690 -475,-1069 -475,-378 -1350,-378 -293,0 -604,58 -311,58 -642,174 v 609 q 262,-153 574,-231 313,-78 654,-78 593,0 904,234 311,234 311,681 0,413 -289,645 -289,233 -804,233 h -544 v 519 h 569 q 465,0 712,186 247,186 247,536 0,359 -255,551 -254,193 -729,193 -260,0 -557,-57 -297,-56 -653,-174 v 562 q 360,100 674,150 314,50 592,50 719,0 1137,-327 419,-326 419,-882 0,-388 -222,-655 -222,-267 -631,-370 z"
                   transform="scale(0.015625)" />
              </defs>
              <use
                 xlink:href="#DejaVuSans-33"
                 id="use111"
                 x="0"
                 y="0"
                 width="100%"
                 height="100%" />
              <use
                 xlink:href="#DejaVuSans-30"
                 x="63.623047"
                 id="use113"
                 y="0"
                 width="100%"
                 height="100%" />
            </g>
          </g>
        </g>
        <g
           id="text_8">
          <!-- $\chi^2$ -->
          <g
             transform="matrix(0.18,0,0,-0.18,580.41,548.80062)"
             id="g126">
            <defs
               id="defs120">
              <path
                 id="DejaVuSans-Oblique-3c7"
                 d="M 1922,-781 1691,416 394,-1334 h -678 l 1837,2475 -284,1472 q -75,393 -556,393 H 559 l 94,494 219,-6 q 803,-22 903,-544 l 231,-1197 1297,1750 h 678 L 2144,1028 2428,-444 q 75,-394 556,-394 h 154 l -94,-493 -219,6 q -803,22 -903,544 z"
                 transform="scale(0.015625)" />
            </defs>
            <use
               xlink:href="#DejaVuSans-Oblique-3c7"
               transform="translate(0,0.765625)"
               id="use122"
               x="0"
               y="0"
               width="100%"
               height="100%" />
            <use
               xlink:href="#DejaVuSans-32"
               transform="matrix(0.7,0,0,0.7,63.652396,39.046875)"
               id="use124"
               x="0"
               y="0"
               width="100%"
               height="100%" />
          </g>
        </g>
      </g>
      <g
         id="matplotlib.axis_2">
        <g
           id="ytick_1">
          <g
             id="line2d_8">
            <defs
               id="defs131">
              <path
                 id="m0fd4242e29"
                 d="M 0,0 H -3.5"
                 style="stroke:#000000;stroke-width:0.8" />
            </defs>
            <g
               id="g135">
              <use
                 xlink:href="#m0fd4242e29"
                 x="144"
                 y="504"
                 style="stroke:#000000;stroke-width:0.8"
                 id="use133"
                 width="100%"
                 height="100%" />
            </g>
          </g>
          <g
             id="text_9">
            <!-- 0.00 -->
            <g
               transform="matrix(0.18,0,0,-0.18,96.921875,510.83859)"
               id="g149">
              <defs
                 id="defs139">
                <path
                   id="DejaVuSans-2e"
                   d="m 684,794 h 660 V 0 H 684 Z"
                   transform="scale(0.015625)" />
              </defs>
              <use
                 xlink:href="#DejaVuSans-30"
                 id="use141"
                 x="0"
                 y="0"
                 width="100%"
                 height="100%" />
              <use
                 xlink:href="#DejaVuSans-2e"
                 x="63.623047"
                 id="use143"
                 y="0"
                 width="100%"
                 height="100%" />
              <use
                 xlink:href="#DejaVuSans-30"
                 x="95.410156"
                 id="use145"
                 y="0"
                 width="100%"
                 height="100%" />
              <use
                 xlink:href="#DejaVuSans-30"
                 x="159.0332"
                 id="use147"
                 y="0"
                 width="100%"
                 height="100%" />
            </g>
          </g>
        </g>
        <g
           id="ytick_2">
          <g
             id="line2d_9">
            <g
               id="g155">
              <use
                 xlink:href="#m0fd4242e29"
                 x="144"
                 y="449.64001"
                 style="stroke:#000000;stroke-width:0.8"
                 id="use153"
                 width="100%"
                 height="100%" />
            </g>
          </g>
          <g
             id="text_10">
            <!-- 0.05 -->
            <g
               transform="matrix(0.18,0,0,-0.18,96.921875,456.47859)"
               id="g166">
              <use
                 xlink:href="#DejaVuSans-30"
                 id="use158"
                 x="0"
                 y="0"
                 width="100%"
                 height="100%" />
              <use
                 xlink:href="#DejaVuSans-2e"
                 x="63.623047"
                 id="use160"
                 y="0"
                 width="100%"
                 height="100%" />
              <use
                 xlink:href="#DejaVuSans-30"
                 x="95.410156"
                 id="use162"
                 y="0"
                 width="100%"
                 height="100%" />
              <use
                 xlink:href="#DejaVuSans-35"
                 x="159.0332"
                 id="use164"
                 y="0"
                 width="100%"
                 height="100%" />
            </g>
          </g>
        </g>
        <g
           id="ytick_3">
          <g
             id="line2d_10">
            <g
               id="g172">
              <use
                 xlink:href="#m0fd4242e29"
                 x="144"
                 y="395.28"
                 style="stroke:#000000;stroke-width:0.8"
                 id="use170"
                 width="100%"
                 height="100%" />
            </g>
          </g>
          <g
             id="text_11">
            <!-- 0.10 -->
            <g
               transform="matrix(0.18,0,0,-0.18,96.921875,402.11859)"
               id="g183">
              <use
                 xlink:href="#DejaVuSans-30"
                 id="use175"
                 x="0"
                 y="0"
                 width="100%"
                 height="100%" />
              <use
                 xlink:href="#DejaVuSans-2e"
                 x="63.623047"
                 id="use177"
                 y="0"
                 width="100%"
                 height="100%" />
              <use
                 xlink:href="#DejaVuSans-31"
                 x="95.410156"
                 id="use179"
                 y="0"
                 width="100%"
                 height="100%" />
              <use
                 xlink:href="#DejaVuSans-30"
                 x="159.0332"
                 id="use181"
                 y="0"
                 width="100%"
                 height="100%" />
            </g>
          </g>
        </g>
        <g
           id="ytick_4">
          <g
             id="line2d_11">
            <g
               id="g189">
              <use
                 xlink:href="#m0fd4242e29"
                 x="144"
                 y="340.92001"
                 style="stroke:#000000;stroke-width:0.8"
                 id="use187"
                 width="100%"
                 height="100%" />
            </g>
          </g>
          <g
             id="text_12">
            <!-- 0.15 -->
            <g
               transform="matrix(0.18,0,0,-0.18,96.921875,347.75859)"
               id="g200">
              <use
                 xlink:href="#DejaVuSans-30"
                 id="use192"
                 x="0"
                 y="0"
                 width="100%"
                 height="100%" />
              <use
                 xlink:href="#DejaVuSans-2e"
                 x="63.623047"
                 id="use194"
                 y="0"
                 width="100%"
                 height="100%" />
              <use
                 xlink:href="#DejaVuSans-31"
                 x="95.410156"
                 id="use196"
                 y="0"
                 width="100%"
                 height="100%" />
              <use
                 xlink:href="#DejaVuSans-35"
                 x="159.0332"
                 id="use198"
                 y="0"
                 width="100%"
                 height="100%" />
            </g>
          </g>
        </g>
        <g
           id="ytick_5">
          <g
             id="line2d_12">
            <g
               id="g206">
              <use
                 xlink:href="#m0fd4242e29"
                 x="144"
                 y="286.56"
                 style="stroke:#000000;stroke-width:0.8"
                 id="use204"
                 width="100%"
                 height="100%" />
            </g>
          </g>
          <g
             id="text_13">
            <!-- 0.20 -->
            <g
               transform="matrix(0.18,0,0,-0.18,96.921875,293.39859)"
               id="g217">
              <use
                 xlink:href="#DejaVuSans-30"
                 id="use209"
                 x="0"
                 y="0"
                 width="100%"
                 height="100%" />
              <use
                 xlink:href="#DejaVuSans-2e"
                 x="63.623047"
                 id="use211"
                 y="0"
                 width="100%"
                 height="100%" />
              <use
                 xlink:href="#DejaVuSans-32"
                 x="95.410156"
                 id="use213"
                 y="0"
                 width="100%"
                 height="100%" />
              <use
                 xlink:href="#DejaVuSans-30"
                 x="159.0332"
                 id="use215"
                 y="0"
                 width="100%"
                 height="100%" />
            </g>
          </g>
        </g>
        <g
           id="ytick_6">
          <g
             id="line2d_13">
            <g
               id="g223">
              <use
                 xlink:href="#m0fd4242e29"
                 x="144"
                 y="232.2"
                 style="stroke:#000000;stroke-width:0.8"
                 id="use221"
                 width="100%"
                 height="100%" />
            </g>
          </g>
          <g
             id="text_14">
            <!-- 0.25 -->
            <g
               transform="matrix(0.18,0,0,-0.18,96.921875,239.03859)"
               id="g234">
              <use
                 xlink:href="#DejaVuSans-30"
                 id="use226"
                 x="0"
                 y="0"
                 width="100%"
                 height="100%" />
              <use
                 xlink:href="#DejaVuSans-2e"
                 x="63.623047"
                 id="use228"
                 y="0"
                 width="100%"
                 height="100%" />
              <use
                 xlink:href="#DejaVuSans-32"
                 x="95.410156"
                 id="use230"
                 y="0"
                 width="100%"
                 height="100%" />
              <use
                 xlink:href="#DejaVuSans-35"
                 x="159.0332"
                 id="use232"
                 y="0"
                 width="100%"
                 height="100%" />
            </g>
          </g>
        </g>
        <g
           id="ytick_7">
          <g
             id="line2d_14">
            <g
               id="g240">
              <use
                 xlink:href="#m0fd4242e29"
                 x="144"
                 y="177.84"
                 style="stroke:#000000;stroke-width:0.8"
                 id="use238"
                 width="100%"
                 height="100%" />
            </g>
          </g>
          <g
             id="text_15">
            <!-- 0.30 -->
            <g
               transform="matrix(0.18,0,0,-0.18,96.921875,184.67859)"
               id="g251">
              <use
                 xlink:href="#DejaVuSans-30"
                 id="use243"
                 x="0"
                 y="0"
                 width="100%"
                 height="100%" />
              <use
                 xlink:href="#DejaVuSans-2e"
                 x="63.623047"
                 id="use245"
                 y="0"
                 width="100%"
                 height="100%" />
              <use
                 xlink:href="#DejaVuSans-33"
                 x="95.410156"
                 id="use247"
                 y="0"
                 width="100%"
                 height="100%" />
              <use
                 xlink:href="#DejaVuSans-30"
                 x="159.0332"
                 id="use249"
                 y="0"
                 width="100%"
                 height="100%" />
            </g>
          </g>
        </g>
        <g
           id="ytick_8">
          <g
             id="line2d_15">
            <g
               id="g257">
              <use
                 xlink:href="#m0fd4242e29"
                 x="144"
                 y="123.48"
                 style="stroke:#000000;stroke-width:0.8"
                 id="use255"
                 width="100%"
                 height="100%" />
            </g>
          </g>
          <g
             id="text_16">
            <!-- 0.35 -->
            <g
               transform="matrix(0.18,0,0,-0.18,96.921875,130.31859)"
               id="g268">
              <use
                 xlink:href="#DejaVuSans-30"
                 id="use260"
                 x="0"
                 y="0"
                 width="100%"
                 height="100%" />
              <use
                 xlink:href="#DejaVuSans-2e"
                 x="63.623047"
                 id="use262"
                 y="0"
                 width="100%"
                 height="100%" />
              <use
                 xlink:href="#DejaVuSans-33"
                 x="95.410156"
                 id="use264"
                 y="0"
                 width="100%"
                 height="100%" />
              <use
                 xlink:href="#DejaVuSans-35"
                 x="159.0332"
                 id="use266"
                 y="0"
                 width="100%"
                 height="100%" />
            </g>
          </g>
        </g>
        <g
           id="ytick_9">
          <g
             id="line2d_16">
            <g
               id="g274">
              <use
                 xlink:href="#m0fd4242e29"
                 x="144"
                 y="69.120003"
                 style="stroke:#000000;stroke-width:0.8"
                 id="use272"
                 width="100%"
                 height="100%" />
            </g>
          </g>
          <g
             id="text_17">
            <!-- 0.40 -->
            <g
               transform="matrix(0.18,0,0,-0.18,96.921875,75.958594)"
               id="g288">
              <defs
                 id="defs278">
                <path
                   id="DejaVuSans-34"
                   d="M 2419,4116 825,1625 h 1594 z m -166,550 h 794 V 1625 h 666 V 1100 H 3047 V 0 H 2419 V 1100 H 313 v 609 z"
                   transform="scale(0.015625)" />
              </defs>
              <use
                 xlink:href="#DejaVuSans-30"
                 id="use280"
                 x="0"
                 y="0"
                 width="100%"
                 height="100%" />
              <use
                 xlink:href="#DejaVuSans-2e"
                 x="63.623047"
                 id="use282"
                 y="0"
                 width="100%"
                 height="100%" />
              <use
                 xlink:href="#DejaVuSans-34"
                 x="95.410156"
                 id="use284"
                 y="0"
                 width="100%"
                 height="100%" />
              <use
                 xlink:href="#DejaVuSans-30"
                 x="159.0332"
                 id="use286"
                 y="0"
                 width="100%"
                 height="100%" />
            </g>
          </g>
        </g>
        <g
           id="text_18">
          <!-- $X(\chi^2;\nu)$ -->
          <g
             transform="matrix(0,-0.18,-0.18,0,89.141875,319.59)"
             id="g313">
            <defs
               id="defs297">
              <path
                 id="DejaVuSans-Oblique-58"
                 d="m 878,4666 h 638 l 800,-1685 1447,1685 h 737 L 2578,2438 3738,0 H 3103 L 2163,1966 459,0 h -734 l 2181,2509 z"
                 transform="scale(0.015625)" />
              <path
                 id="DejaVuSans-28"
                 d="m 1984,4856 q -418,-718 -622,-1422 -203,-703 -203,-1425 0,-721 205,-1429 205,-708 620,-1424 h -500 q -468,735 -701,1444 -233,709 -233,1409 0,697 231,1403 232,707 703,1444 z"
                 transform="scale(0.015625)" />
              <path
                 id="DejaVuSans-3b"
                 d="m 750,3309 h 659 V 2516 H 750 Z m 0,-2515 h 659 V 256 L 897,-744 H 494 L 750,256 Z"
                 transform="scale(0.015625)" />
              <path
                 id="DejaVuSans-Oblique-3bd"
                 d="M 959,0 572,3500 h 619 L 1522,563 q 450,387 869,925 315,403 397,753 37,165 21,478 -15,372 -265,781 h 581 v 0 q 163,-278 228,-666 63,-356 16,-600 Q 3250,1622 2719,1075 2025,363 1572,0 Z"
                 transform="scale(0.015625)" />
              <path
                 id="DejaVuSans-29"
                 d="m 513,4856 h 500 q 468,-737 701,-1444 233,-706 233,-1403 0,-700 -233,-1409 -233,-709 -701,-1444 H 513 q 415,716 620,1424 205,708 205,1429 0,722 -205,1425 -205,704 -620,1422 z"
                 transform="scale(0.015625)" />
            </defs>
            <use
               xlink:href="#DejaVuSans-Oblique-58"
               transform="translate(0,0.765625)"
               id="use299"
               x="0"
               y="0"
               width="100%"
               height="100%" />
            <use
               xlink:href="#DejaVuSans-28"
               transform="translate(68.505859,0.765625)"
               id="use301"
               x="0"
               y="0"
               width="100%"
               height="100%" />
            <use
               xlink:href="#DejaVuSans-Oblique-3c7"
               transform="translate(107.51953,0.765625)"
               id="use303"
               x="0"
               y="0"
               width="100%"
               height="100%" />
            <use
               xlink:href="#DejaVuSans-32"
               transform="matrix(0.7,0,0,0.7,171.17193,39.046875)"
               id="use305"
               x="0"
               y="0"
               width="100%"
               height="100%" />
            <use
               xlink:href="#DejaVuSans-3b"
               transform="translate(218.44243,0.765625)"
               id="use307"
               x="0"
               y="0"
               width="100%"
               height="100%" />
            <use
               xlink:href="#DejaVuSans-Oblique-3bd"
               transform="translate(271.61626,0.765625)"
               id="use309"
               x="0"
               y="0"
               width="100%"
               height="100%" />
            <use
               xlink:href="#DejaVuSans-29"
               transform="translate(327.47564,0.765625)"
               id="use311"
               x="0"
               y="0"
               width="100%"
               height="100%" />
          </g>
        </g>
      </g>
      <g
         id="line2d_17">
        <path
           d="m 158.8618,-1 3.17456,93.512077 9.01818,122.746383 9.01819,73.8409 9.01818,49.71187 9.01818,35.59394 9.01818,26.48214 9.01818,20.22044 9.01819,15.72842 9.01818,12.40495 9.01818,9.88889 9.01818,7.95017 9.01818,6.43552 9.01818,5.23893 9.01819,4.28505 9.01818,3.51892 9.01818,2.89972 9.01818,2.39659 9.01819,1.98593 9.01818,1.64939 9.01818,1.37269 9.01818,1.14446 9.01818,0.95573 9.01818,0.79931 9.01818,0.66936 9.01819,0.56122 9.01818,0.47108 9.01818,0.39581 9.01818,0.33288 9.01818,0.28019 9.01819,0.23604 9.01818,0.19898 9.01818,0.16786 9.01818,0.1417 9.01818,0.11969 9.01818,0.10114 9.01819,0.0855 9.01818,0.0724 9.01818,0.0612 9.01818,0.0519 9.01818,0.0439 9.01819,0.0372 9.01818,0.0316 9.01818,0.0268 9.01818,0.0227 9.01818,0.0193 9.01819,0.0163 9.01818,0.0139 9.01818,0.0118 9.01818,0.01 9.01818,0.009 9.01819,0.007 9.01818,0.006 9.01818,0.005 9.01818,0.004 9.01818,0.004 9.01818,0.003 9.01818,0.003 9.01819,0.002 9.01818,0.002 9.01818,0.002 9.01818,10e-4 9.01818,0.001 9.01819,10e-4 9.01818,8.9e-4 9.01818,7.6e-4 9.01818,6.4e-4 9.01818,5.6e-4 9.01818,4.7e-4 9.01819,4e-4 9.01818,3.4e-4 9.01818,2.9e-4 9.01818,2.5e-4 9.01819,2.1e-4 9.01818,1.8e-4 9.01818,1.6e-4 9.01818,1.3e-4 9.01818,1.1e-4 9.01818,10e-5 9.01819,8e-5 9.01818,7e-5 9.01818,6e-5 9.01818,5e-5 9.01818,5e-5 9.01818,3e-5 9.01819,3e-5 9.01818,3e-5 9.01818,2e-5 9.01818,2e-5 9.01818,2e-5 9.01818,10e-6 9.01819,2e-5 9.01818,10e-6 9.01818,1e-5 h 9.01821 l 9.0182,10e-6 9.0181,1e-5 h 9.0182 l 9.0182,10e-6"
           clip-path="url(#pd666801fba)"
           style="fill:none;stroke:#1f77b4;stroke-width:1.5;stroke-linecap:square"
           id="path317" />
      </g>
      <g
         id="line2d_18">
        <path
           d="m 144,504 9.01818,-70.78371 9.01818,-50.88002 9.01818,-35.17387 9.01819,-22.87839 9.01818,-13.34501 9.01818,-6.04007 9.01818,-0.52543 9.01818,3.55795 9.01819,6.5035 9.01818,8.55046 9.01818,9.89329 9.01818,10.68951 9.01818,11.06627 9.01818,11.1258 9.01819,10.94985 9.01818,10.60343 9.01818,10.13799 9.01818,9.59383 9.01819,9.00228 9.01818,8.38742 9.01818,7.76752 9.01818,7.15612 9.01818,6.56312 9.01818,5.99539 9.01818,5.45757 9.01819,4.95248 9.01818,4.48153 9.01818,4.04511 9.01818,3.64283 9.01818,3.27369 9.01819,2.93636 9.01818,2.62916 9.01818,2.3503 9.01818,2.09789 9.01818,1.86998 9.01818,1.66471 9.01819,1.48018 9.01818,1.31464 9.01818,1.16638 9.01818,1.03383 9.01818,0.91549 9.01819,0.81 9.01818,0.71607 9.01818,0.63254 9.01818,0.55835 9.01818,0.49251 9.01819,0.43415 9.01818,0.38247 9.01818,0.33673 9.01818,0.2963 9.01818,0.26057 9.01819,0.22905 9.01818,0.20122 9.01818,0.17671 9.01818,0.1551 9.01818,0.13607 9.01818,0.11934 9.01818,0.10461 9.01819,0.0917 9.01818,0.0803 9.01818,0.0703 9.01818,0.0616 9.01818,0.0539 9.01819,0.0471 9.01818,0.0412 9.01818,0.036 9.01818,0.0315 9.01818,0.0275 9.01818,0.024 9.01819,0.021 9.01818,0.0183 9.01818,0.016 9.01818,0.014 9.01819,0.0122 9.01818,0.0106 9.01818,0.009 9.01818,0.008 9.01818,0.007 9.01818,0.006 9.01819,0.005 9.01818,0.005 9.01818,0.004 9.01818,0.004 9.01818,0.003 9.01818,0.003 9.01819,0.002 9.01818,0.002 9.01818,0.002 9.01818,0.002 9.01818,0.001 9.01818,10e-4 9.01819,0.001 9.01818,8.7e-4 9.01818,7.7e-4 9.01821,6.6e-4 9.0182,5.8e-4 9.0181,5e-4 9.0182,4.4e-4 9.0182,3.8e-4"
           clip-path="url(#pd666801fba)"
           style="fill:none;stroke:#ff7f0e;stroke-width:1.5;stroke-linecap:square"
           id="path320" />
      </g>
      <g
         id="line2d_19">
        <path
           d="m 144,504 9.01818,-1.25615 9.01818,-4.85065 9.01818,-8.35559 9.01819,-11.05197 9.01818,-12.79081 9.01818,-13.62364 9.01818,-13.68166 9.01818,-13.12145 9.01819,-12.09821 9.01818,-10.75297 9.01818,-9.20701 9.01818,-7.56041 9.01818,-5.89286 9.01818,-4.26539 9.01819,-2.72289 9.01818,-1.29653 9.01818,-0.006 9.01818,1.13743 9.01819,2.13049 9.01818,2.97481 9.01818,3.67606 9.01818,4.24277 9.01818,4.68533 9.01818,5.01515 9.01818,5.24419 9.01819,5.3844 9.01818,5.44742 9.01818,5.44435 9.01818,5.38556 9.01818,5.2806 9.01819,5.13814 9.01818,4.96598 9.01818,4.771 9.01818,4.55929 9.01818,4.33607 9.01818,4.10585 9.01819,3.87248 9.01818,3.63913 9.01818,3.40843 9.01818,3.18254 9.01818,2.96314 9.01819,2.75156 9.01818,2.54876 9.01818,2.35548 9.01818,2.17212 9.01818,1.99898 9.01819,1.83611 9.01818,1.68347 9.01818,1.54089 9.01818,1.4081 9.01818,1.2848 9.01819,1.17057 9.01818,1.06504 9.01818,0.96774 9.01818,0.87824 9.01818,0.79604 9.01818,0.72073 9.01818,0.65181 9.01819,0.58888 9.01818,0.53148 9.01818,0.47922 9.01818,0.43169 9.01818,0.38853 9.01819,0.34939 9.01818,0.31393 9.01818,0.28184 9.01818,0.25285 9.01818,0.22666 9.01818,0.20305 9.01819,0.18177 9.01818,0.1626 9.01818,0.14538 9.01818,0.12988 9.01819,0.11597 9.01818,0.1035 9.01818,0.0923 9.01818,0.0823 9.01818,0.0733 9.01818,0.0653 9.01819,0.0581 9.01818,0.0517 9.01818,0.046 9.01818,0.0408 9.01818,0.0363 9.01818,0.0322 9.01819,0.0286 9.01818,0.0254 9.01818,0.0225 9.01818,0.0199 9.01818,0.0177 9.01818,0.0156 9.01819,0.0139 9.01818,0.0123 9.01818,0.0109 9.01821,0.01 9.0182,0.008 9.0181,0.008 9.0182,0.007 9.0182,0.006"
           clip-path="url(#pd666801fba)"
           style="fill:none;stroke:#2ca02c;stroke-width:1.5;stroke-linecap:square"
           id="path323" />
      </g>
      <g
         id="line2d_20">
        <path
           d="m 144,504 9.01818,-0.0103 9.01818,-0.1308 9.01818,-0.47266 9.01819,-1.05323 9.01818,-1.83058 9.01818,-2.73529 9.01818,-3.69078 9.01818,-4.62546 9.01819,-5.47918 9.01818,-6.20612 9.01818,-6.77515 9.01818,-7.16875 9.01818,-7.38125 9.01818,-7.41658 9.01819,-7.28613 9.01818,-7.00652 9.01818,-6.5979 9.01818,-6.08223 9.01819,-5.48208 9.01818,-4.81952 9.01818,-4.11547 9.01818,-3.38912 9.01818,-2.65753 9.01818,-1.93556 9.01818,-1.23574 9.01819,-0.56826 9.01818,0.0588 9.01818,0.63936 9.01818,1.16926 9.01818,1.64594 9.01819,2.06818 9.01818,2.43604 9.01818,2.75054 9.01818,3.01351 9.01818,3.22743 9.01818,3.39522 9.01819,3.52019 9.01818,3.60582 9.01818,3.65572 9.01818,3.67354 9.01818,3.66286 9.01819,3.62719 9.01818,3.56989 9.01818,3.49411 9.01818,3.40284 9.01818,3.29884 9.01819,3.18461 9.01818,3.06248 9.01818,2.93451 9.01818,2.80254 9.01818,2.66823 9.01819,2.53299 9.01818,2.39807 9.01818,2.26454 9.01818,2.13329 9.01818,2.00508 9.01818,1.88052 9.01818,1.76008 9.01819,1.64416 9.01818,1.53305 9.01818,1.42693 9.01818,1.32592 9.01818,1.23008 9.01819,1.13943 9.01818,1.05389 9.01818,0.97342 9.01818,0.89786 9.01818,0.82709 9.01818,0.76095 9.01819,0.69926 9.01818,0.64182 9.01818,0.58845 9.01818,0.53892 9.01819,0.49306 9.01818,0.45064 9.01818,0.41147 9.01818,0.37535 9.01818,0.34209 9.01818,0.31151 9.01819,0.28341 9.01818,0.25764 9.01818,0.23402 9.01818,0.2124 9.01818,0.19262 9.01818,0.17458 9.01819,0.15809 9.01818,0.14307 9.01818,0.12939 9.01818,0.11693 9.01818,0.10562 9.01818,0.0953 9.01819,0.086 9.01818,0.0775 9.01818,0.0698 9.01821,0.0629 9.0182,0.0566 9.0181,0.0509 9.0182,0.0458 9.0182,0.0411"
           clip-path="url(#pd666801fba)"
           style="fill:none;stroke:#d62728;stroke-width:1.5;stroke-linecap:square"
           id="path326" />
      </g>
      <g
         id="patch_3">
        <path
           d="M 144,504 V 69.12"
           style="fill:none;stroke:#000000;stroke-width:0.8;stroke-linecap:square;stroke-linejoin:miter"
           id="path329" />
      </g>
      <g
         id="patch_4">
        <path
           d="M 1036.8,504 V 69.12"
           style="fill:none;stroke:#000000;stroke-width:0.8;stroke-linecap:square;stroke-linejoin:miter"
           id="path332" />
      </g>
      <g
         id="patch_5">
        <path
           d="m 144,504 h 892.8"
           style="fill:none;stroke:#000000;stroke-width:0.8;stroke-linecap:square;stroke-linejoin:miter"
           id="path335" />
      </g>
      <g
         id="patch_6">
        <path
           d="m 144,69.12 h 892.8"
           style="fill:none;stroke:#000000;stroke-width:0.8;stroke-linecap:square;stroke-linejoin:miter"
           id="path338" />
      </g>
      <g
         id="legend_1">
        <g
           id="patch_7">
          <path
             d="m 907.02,189.2025 h 117.18 q 3.6,0 3.6,-3.6 V 81.72 q 0,-3.6 -3.6,-3.6 H 907.02 q -3.6,0 -3.6,3.6 v 103.8825 q 0,3.6 3.6,3.6 z"
             style="opacity:0.8;fill:#ffffff;stroke:#cccccc;stroke-linejoin:miter"
             id="path341" />
        </g>
        <g
           id="line2d_21">
          <path
             d="m 910.62,92.697187 h 18 18"
             style="fill:none;stroke:#1f77b4;stroke-width:1.5;stroke-linecap:square"
             id="path344" />
        </g>
        <g
           id="text_19">
          <!-- $\nu$ = 1 -->
          <g
             transform="matrix(0.18,0,0,-0.18,961.02,98.997187)"
             id="g361">
            <defs
               id="defs349">
              <path
                 id="DejaVuSans-20"
                 transform="scale(0.015625)"
                 d="" />
              <path
                 id="DejaVuSans-3d"
                 d="M 678,2906 H 4684 V 2381 H 678 Z m 0,-1275 H 4684 V 1100 H 678 Z"
                 transform="scale(0.015625)" />
            </defs>
            <use
               xlink:href="#DejaVuSans-Oblique-3bd"
               transform="translate(0,0.09375)"
               id="use351"
               x="0"
               y="0"
               width="100%"
               height="100%" />
            <use
               xlink:href="#DejaVuSans-20"
               transform="translate(55.859375,0.09375)"
               id="use353"
               x="0"
               y="0"
               width="100%"
               height="100%" />
            <use
               xlink:href="#DejaVuSans-3d"
               transform="translate(87.646484,0.09375)"
               id="use355"
               x="0"
               y="0"
               width="100%"
               height="100%" />
            <use
               xlink:href="#DejaVuSans-20"
               transform="translate(171.43555,0.09375)"
               id="use357"
               x="0"
               y="0"
               width="100%"
               height="100%" />
            <use
               xlink:href="#DejaVuSans-31"
               transform="translate(203.22266,0.09375)"
               id="use359"
               x="0"
               y="0"
               width="100%"
               height="100%" />
          </g>
        </g>
        <g
           id="line2d_22">
          <path
             d="m 910.62,119.11781 h 18 18"
             style="fill:none;stroke:#ff7f0e;stroke-width:1.5;stroke-linecap:square"
             id="path364" />
        </g>
        <g
           id="text_20">
          <!-- $\nu$ = 4 -->
          <g
             transform="matrix(0.18,0,0,-0.18,961.02,125.41781)"
             id="g377">
            <use
               xlink:href="#DejaVuSans-Oblique-3bd"
               transform="translate(0,0.09375)"
               id="use367"
               x="0"
               y="0"
               width="100%"
               height="100%" />
            <use
               xlink:href="#DejaVuSans-20"
               transform="translate(55.859375,0.09375)"
               id="use369"
               x="0"
               y="0"
               width="100%"
               height="100%" />
            <use
               xlink:href="#DejaVuSans-3d"
               transform="translate(87.646484,0.09375)"
               id="use371"
               x="0"
               y="0"
               width="100%"
               height="100%" />
            <use
               xlink:href="#DejaVuSans-20"
               transform="translate(171.43555,0.09375)"
               id="use373"
               x="0"
               y="0"
               width="100%"
               height="100%" />
            <use
               xlink:href="#DejaVuSans-34"
               transform="translate(203.22266,0.09375)"
               id="use375"
               x="0"
               y="0"
               width="100%"
               height="100%" />
          </g>
        </g>
        <g
           id="line2d_23">
          <path
             d="m 910.62,145.53844 h 18 18"
             style="fill:none;stroke:#2ca02c;stroke-width:1.5;stroke-linecap:square"
             id="path380" />
        </g>
        <g
           id="text_21">
          <!-- $\nu$ = 7 -->
          <g
             transform="matrix(0.18,0,0,-0.18,961.02,151.83844)"
             id="g396">
            <defs
               id="defs384">
              <path
                 id="DejaVuSans-37"
                 d="M 525,4666 H 3525 V 4397 L 1831,0 H 1172 L 2766,4134 H 525 Z"
                 transform="scale(0.015625)" />
            </defs>
            <use
               xlink:href="#DejaVuSans-Oblique-3bd"
               transform="translate(0,0.09375)"
               id="use386"
               x="0"
               y="0"
               width="100%"
               height="100%" />
            <use
               xlink:href="#DejaVuSans-20"
               transform="translate(55.859375,0.09375)"
               id="use388"
               x="0"
               y="0"
               width="100%"
               height="100%" />
            <use
               xlink:href="#DejaVuSans-3d"
               transform="translate(87.646484,0.09375)"
               id="use390"
               x="0"
               y="0"
               width="100%"
               height="100%" />
            <use
               xlink:href="#DejaVuSans-20"
               transform="translate(171.43555,0.09375)"
               id="use392"
               x="0"
               y="0"
               width="100%"
               height="100%" />
            <use
               xlink:href="#DejaVuSans-37"
               transform="translate(203.22266,0.09375)"
               id="use394"
               x="0"
               y="0"
               width="100%"
               height="100%" />
          </g>
        </g>
        <g
           id="line2d_24">
          <path
             d="m 910.62,171.95906 h 18 18"
             style="fill:none;stroke:#d62728;stroke-width:1.5;stroke-linecap:square"
             id="path399" />
        </g>
        <g
           id="text_22">
          <!-- $\nu$ = 10 -->
          <g
             transform="matrix(0.18,0,0,-0.18,961.02,178.25906)"
             id="g414">
            <use
               xlink:href="#DejaVuSans-Oblique-3bd"
               transform="translate(0,0.78125)"
               id="use402"
               x="0"
               y="0"
               width="100%"
               height="100%" />
            <use
               xlink:href="#DejaVuSans-20"
               transform="translate(55.859375,0.78125)"
               id="use404"
               x="0"
               y="0"
               width="100%"
               height="100%" />
            <use
               xlink:href="#DejaVuSans-3d"
               transform="translate(87.646484,0.78125)"
               id="use406"
               x="0"
               y="0"
               width="100%"
               height="100%" />
            <use
               xlink:href="#DejaVuSans-20"
               transform="translate(171.43555,0.78125)"
               id="use408"
               x="0"
               y="0"
               width="100%"
               height="100%" />
            <use
               xlink:href="#DejaVuSans-31"
               transform="translate(203.22266,0.78125)"
               id="use410"
               x="0"
               y="0"
               width="100%"
               height="100%" />
            <use
               xlink:href="#DejaVuSans-30"
               transform="translate(266.8457,0.78125)"
               id="use412"
               x="0"
               y="0"
               width="100%"
               height="100%" />
          </g>
        </g>
      </g>
    </g>
  </g>
  <defs
     id="defs423">
    <clipPath
       id="pd666801fba">
      <rect
         x="144"
         y="69.120003"
         width="892.79999"
         height="434.88"
         id="rect420" />
    </clipPath>
  </defs>
</svg>
